<svg xmlns="http://www.w3.org/2000/svg" viewBox="0 0 318 211" font-family="Latin Modern Sans, sans-serif"><rect x="14" y="42" width="27" height="27" fill="#eef2f6" stroke="#c7ced6"/><rect x="41" y="42" width="27" height="27" fill="#eef2f6" stroke="#c7ced6"/><rect x="68" y="42" width="27" height="27" fill="#eef2f6" stroke="#c7ced6"/><rect x="95" y="42" width="27" height="27" fill="#eef2f6" stroke="#c7ced6"/><rect x="122" y="42" width="27" height="27" fill="#eef2f6" stroke="#c7ced6"/><rect x="14" y="69" width="27" height="27" fill="#eef2f6" stroke="#c7ced6"/><rect x="41" y="69" width="27" height="27" fill="#eef2f6" stroke="#c7ced6"/><rect x="68" y="69" width="27" height="27" fill="#eef2f6" stroke="#c7ced6"/><rect x="95" y="69" width="27" height="27" fill="#eef2f6" stroke="#c7ced6"/><rect x="122" y="69" width="27" height="27" fill="#eef2f6" stroke="#c7ced6"/><rect x="14" y="96" width="27" height="27" fill="#eef2f6" stroke="#c7ced6"/><rect x="41" y="96" width="27" height="27" fill="#eef2f6" stroke="#c7ced6"/><rect x="68" y="96" width="27" height="27" fill="#eef2f6" stroke="#c7ced6"/><rect x="95" y="96" width="27" height="27" fill="#eef2f6" stroke="#c7ced6"/><rect x="122" y="96" width="27" height="27" fill="#eef2f6" stroke="#c7ced6"/><rect x="14" y="123" width="27" height="27" fill="#eef2f6" stroke="#c7ced6"/><rect x="41" y="123" width="27" height="27" fill="#eef2f6" stroke="#c7ced6"/><rect x="68" y="123" width="27" height="27" fill="#eef2f6" stroke="#c7ced6"/><rect x="95" y="123" width="27" height="27" fill="#eef2f6" stroke="#c7ced6"/><rect x="122" y="123" width="27" height="27" fill="#eef2f6" stroke="#c7ced6"/><rect x="14" y="150" width="27" height="27" fill="#eef2f6" stroke="#c7ced6"/><rect x="41" y="150" width="27" height="27" fill="#eef2f6" stroke="#c7ced6"/><rect x="68" y="150" width="27" height="27" fill="#eef2f6" stroke="#c7ced6"/><rect x="95" y="150" width="27" height="27" fill="#eef2f6" stroke="#c7ced6"/><rect x="122" y="150" width="27" height="27" fill="#eef2f6" stroke="#c7ced6"/><rect x="14" y="42" width="81" height="81" fill="#4682B4" fill-opacity="0.22" stroke="#4682B4" stroke-width="2.5"/><text x="81.5" y="197" text-anchor="middle" font-size="15" fill="#5b6b7a">input grid</text><line x1="157" y1="82.5" x2="209" y2="82.5" stroke="#003E74" stroke-width="2.5"/><polygon points="209,82.5 201,77.5 201,87.5" fill="#003E74"/><text x="183" y="72.5" text-anchor="middle" font-size="13" fill="#003E74">filter</text><rect x="221" y="50" width="27" height="27" fill="#006E5A" fill-opacity="0.30" stroke="#c7ced6"/><rect x="248" y="50" width="27" height="27" fill="#eef2f6" stroke="#c7ced6"/><rect x="275" y="50" width="27" height="27" fill="#eef2f6" stroke="#c7ced6"/><rect x="221" y="77" width="27" height="27" fill="#eef2f6" stroke="#c7ced6"/><rect x="248" y="77" width="27" height="27" fill="#eef2f6" stroke="#c7ced6"/><rect x="275" y="77" width="27" height="27" fill="#eef2f6" stroke="#c7ced6"/><rect x="221" y="104" width="27" height="27" fill="#eef2f6" stroke="#c7ced6"/><rect x="248" y="104" width="27" height="27" fill="#eef2f6" stroke="#c7ced6"/><rect x="275" y="104" width="27" height="27" fill="#eef2f6" stroke="#c7ced6"/><rect x="221" y="50" width="27" height="27" fill="none" stroke="#006E5A" stroke-width="2.5"/><text x="261.5" y="149" text-anchor="middle" font-size="15" fill="#5b6b7a">feature map</text></svg>