<svg xmlns="http://www.w3.org/2000/svg" xmlns:xlink="http://www.w3.org/1999/xlink" xmlns:inkscape="http://www.inkscape.org/namespaces/inkscape" version="1.1" width="162.878" height="88.403" viewBox="0 0 162.878 88.403">
<defs>
<path id="font_1_18" d="M.69699099 .4947052C.69699099 .5936432 .58499148 .6826172 .43798829 .6826172H.057998659V.64660647H.08198547C.15899658 .64660647 .16099549 .63661196 .16099549 .6016388V.080963138C.16099549 .04698181 .15899658 .035995485 .08198547 .035995485H.057998659V0L.20799256 .00390625 .35899354 0V.035995485H.33499146C.2579956 .035995485 .2559967 .04598999 .2559967 .080963138V.30978395H.43798829C.58299258 .30978395 .69699099 .39375306 .69699099 .4947052M.58999636 .4947052C.58999636 .45072938 .58999636 .34179688 .41299439 .34179688H.2519989V.6076355C.2519989 .63861086 .25299073 .64660647 .2999878 .64660647H.41299439C.5799866 .64660647 .58999636 .5526581 .58999636 .4947052Z"/>
<path id="font_1_17" d="M.5289917 .21325684C.5289917 .3382721 .42199708 .44628907 .28399659 .44628907 .1459961 .44628907 .038986207 .3382721 .038986207 .21325684 .038986207 .0892334 .14898682-.009765625 .28399659-.009765625 .4189911-.009765625 .5289917 .0892334 .5289917 .21325684M.43798829 .22225952C.43798829 .17424011 .43499757 .12124634 .4059906 .08023071 .3789978 .042236329 .33299256 .022232056 .28399659 .022232056 .24699402 .022232056 .19299317 .034225465 .1599884 .083236698 .1329956 .12423706 .12998963 .17625427 .12998963 .22225952 .12998963 .2652588 .1309967 .32426454 .1659851 .36727906 .19099427 .39627076 .23298645 .41827394 .28399659 .41827394 .34298707 .41827394 .3849945 .39027406 .40699769 .3592682 .43499757 .32026673 .43798829 .27026368 .43798829 .22225952Z"/>
<path id="font_1_19" d="M.58399966 .21640015C.58399966 .33940126 .48199464 .44140626 .35499574 .44140626 .2979889 .44140626 .23999024 .4203949 .19898987 .3804016V.44140626L.04899597 .43052674V.39453126C.11898804 .39453126 .12399292 .38952638 .12399292 .34753419V-.11437988C.12399292-.15736389 .11399841-.15736389 .04899597-.15736389V-.19335938C.04899597-.19346619 .12098694-.18945313 .16299439-.18945313 .19999695-.18936157 .2689972-.19236756 .27799989-.19335938V-.15736389C.21299744-.15736389 .20298767-.15736389 .20298767-.114486698V.048233034C.20799256 .04324341 .25498963-.009765625 .33898927-.009765625 .47099305-.009765625 .58399966 .089263919 .58399966 .2163086V.21640015M.49299623 .2163086C.49299623 .102264408 .41799928 .018234253 .33299256 .018234253 .24499512 .018234253 .20599365 .09526062 .20298767 .101257327V.33335877C.23298645 .38339234 .29100038 .4093933 .34399415 .4093933 .42799378 .4093933 .49299623 .32136537 .49299623 .2163086Z"/>
<path id="font_1_25" d="M.58999636 0V.035995485C.522995 .035995485 .5149994 .042999269 .5149994 .092056278V.44140626L.36099244 .43052674V.39453126C.42799378 .39439393 .43598939 .3874359 .43598939 .33872987V.16749573C.43598939 .079330448 .3789978 .018234253 .30299378 .018234253 .21199036 .018234253 .20799256 .061309816 .20799256 .11239624V.44140626L.053985597 .43052674V.39453126C.1289978 .39453126 .1289978 .39154054 .1289978 .30273438V.15246582C.1289978 .083343509 .1289978-.009765625 .29599-.009765625 .31799317-.009765625 .3909912-.009765625 .43899537 .07432556H.43998719V-.009765625L.58999636 0Z"/>
<path id="font_1_12" d="M.2809906 0V.035995485C.21598816 .035995485 .20599365 .035995485 .20599365 .07901001V.69433596L.055999757 .6826172V.64660647C.12298584 .64660647 .1309967 .6396179 .1309967 .59065249V.07896423C.1309967 .035995485 .12098694 .035995485 .055999757 .035995485V0C.055999757 0 .12799073 .0039978029 .16799927 .0039978029 .20599365 .0039978029 .24299622 .0029907227 .2809906 0Z"/>
<path id="font_1_1" d="M.5439911 .09013367V.14515686H.5099945V.09114075C.5099945 .08113098 .5099945 .033111574 .47299195 .033111574 .43598939 .033111574 .43598939 .0801239 .43598939 .09313965V.268219C.43598939 .3212433 .43598939 .35925294 .3899994 .39627076 .34899903 .4302826 .30099488 .44628907 .24198914 .44628907 .14698792 .44628907 .07998657 .41027833 .07998657 .34925843 .07998657 .31723023 .101989749 .30023194 .12799073 .30023194 .15499878 .30023194 .1749878 .3202362 .1749878 .34724427 .1749878 .3642578 .16699219 .38526917 .13999939 .39326478 .17599488 .41827394 .23399353 .41827394 .23999024 .41827394 .29599 .41827394 .35699464 .38127137 .35699464 .29722596V.2662201C.3019867 .26420594 .23599243 .2612152 .16299439 .23420716 .07299805 .20118714 .04499817 .14616394 .04499817 .101135257 .04499817 .0152282719 .14898682-.009765625 .21998596-.009765625 .2999878-.009765625 .34700013 .035232545 .36799623 .07423401 .37199403 .033111574 .39898683-.0048828127 .44499208-.0048828127 .44499208-.0048828127 .5439911-.0048828127 .5439911 .09010315V.09013367M.35699464 .14111328C.35699464 .04522705 .272995 .018234253 .22799683 .018234253 .1769867 .018234253 .1289978 .052230836 .1289978 .10122681 .1289978 .15621948 .1769867 .23323059 .35699464 .24023438V.14111328Z"/>
<path id="font_1_23" d="M.375 .12606812V.1809845H.34098817V.12705994C.34098817 .059173585 .30899049 .022232056 .269989 .022232056 .20098877 .022232056 .20098877 .10609436 .20098877 .124069217V.39465333H.35699464V.43066407H.20098877V.6142578H.16699219C.1659851 .5244446 .125 .42565919 .0289917 .4226532V.39465333H.12199402V.1250763C.12199402 .01322937 .20599365-.009765625 .2619934-.009765625 .32899476-.010009766 .375 .04699707 .375 .12599182V.12606812Z"/>
<path id="font_1_29" d="M.27398683 0V.035995485C.21598816 .035995485 .20599365 .035995485 .20599365 .07803345V.44140626L.05899048 .43052674V.39453126C.12199402 .39453126 .1309967 .3885193 .1309967 .33952333V.07952881C.1309967 .035995485 .12098694 .035995485 .055999757 .035995485V0C.055999757 0 .12799073 .0039978029 .16799927 .0039978029 .20298767 .0039978029 .23899842 .0029907227 .27398683 0M.21899414 .60214236C.21899414 .6341553 .19400025 .66015627 .1619873 .66015627 .12799073 .66015627 .10499573 .6321411 .10499573 .6031494 .10499573 .57115176 .12998963 .54515078 .1619873 .54515078 .19599915 .54515078 .21899414 .57315066 .21899414 .60214236Z"/>
<path id="font_1_16" d="M.58999636 0V.035995485C.5249939 .035995485 .5149994 .035995485 .5149994 .07904053V.3032837C.5149994 .3903656 .47200013 .44140626 .36499024 .44140626 .2829895 .44140626 .22999573 .39637757 .20199585 .34432984H.20098877V.44140626L.053985597 .43052674V.39453126C.12098694 .39453126 .1289978 .3875122 .1289978 .33843995V.079055789C.1289978 .035995485 .11898804 .035995485 .053985597 .035995485V0C.053985597 0 .12599182 .0039978029 .16799927 .0039978029 .20498657 .0039978029 .27398683 .0009918213 .2829895 0V.035995485C.21798706 .035995485 .20799256 .035995485 .20799256 .079055789V.25932313C.20799256 .36434938 .29100038 .4133911 .35699464 .4133911 .4269867 .4133911 .43598939 .3583374 .43598939 .3072815V.07904053C.43598939 .035995485 .42599488 .035995485 .36099244 .035995485V0C.36099244 0 .43299867 .0039978029 .47499085 .0039978029 .5119934 .0039978029 .58099368 .0009918213 .58999636 0Z"/>
<path id="font_2_1" d="M.7839966 .25C.7839966 .2659912 .772995 .2709961 .7630005 .27598573L.15299988 .56999209C.13899231 .57699587 .1329956 .57699587 .1329956 .57699587 .11898804 .57699587 .10798645 .56599429 .10798645 .5519867 .10798645 .5369873 .11999512 .5309906 .1289978 .5269928L.7029877 .25099183 .12998963-.025009156C.117996219-.03100586 .10798645-.038009645 .10798645-.05101013 .10798645-.06500244 .11898804-.07600403 .1329956-.07600403 .1329956-.07600403 .13899231-.07600403 .15098572-.070007327L.7619934 .22399903C.7739868 .22999573 .7839966 .23699951 .7839966 .25Z"/>
<path id="font_1_5" d="M.5049896 .20095825C.5049896 .31396485 .4189911 .41796876 .29499818 .41796876 .25099183 .41796876 .19898987 .40696717 .15499878 .36895753V.5579071C.20599365 .5449219 .23599243 .5449219 .2519989 .5449219 .38398744 .5449219 .46199037 .6349182 .46199037 .6499176 .46199037 .6610565 .45498658 .6640625 .44999696 .6640625 .44999696 .6640625 .44599916 .6640625 .44198609 .6610565 .41799928 .65205386 .36499024 .63204959 .29100038 .63204959 .2630005 .63204959 .20999146 .63404849 .14498902 .6590576 .1349945 .6640625 .13198853 .6640625 .13198853 .6640625 .11898804 .6640625 .11898804 .6530609 .11898804 .63705447V.34204103C.11898804 .32507325 .11898804 .3130951 .1349945 .3130951 .14399719 .3130951 .14498902 .31507875 .15499878 .32707215 .19799805 .38197328 .25898744 .3899536 .2939911 .3899536 .35398866 .3899536 .3809967 .34204103 .38598634 .33406068 .4039917 .30110169 .4099884 .26316834 .4099884 .20524597 .4099884 .17524719 .4099884 .116256717 .37998963 .07234192 .35499574 .03640747 .31199647 .012466431 .2630005 .012466431 .19799805 .012466431 .1309967 .04838562 .10598755 .11425781 .14399719 .11125183 .16299439 .13624573 .16299439 .16325379 .16299439 .20625305 .12599182 .21424866 .11299133 .21424866 .11299133 .21424866 .06298828 .21424866 .06298828 .1602478 .06298828 .07034302 .14498902-.01953125 .2649994-.01953125 .3929901-.019744873 .5049896 .07525635 .5049896 .20124817V.20095825Z"/>
<path id="font_1_28" d="M.5159912 .31925965C.5159912 .42918397 .5029907 .50813296 .45700074 .5780945 .42599488 .62405398 .3639984 .6640625 .28399659 .6640625 .051986696 .6640625 .051986696 .39120484 .051986696 .31925965 .051986696 .2472992 .051986696-.01953125 .28399659-.01953125 .5159912-.01953125 .5159912 .2472992 .5159912 .31925965M.4249878 .33224488C.4249878 .25830079 .4249878 .18434143 .4119873 .12138367 .3919983 .030441285 .32398988 .008468628 .28399659 .008468628 .23799134 .008468628 .1769867 .035446168 .15699768 .117385867 .14299011 .17634583 .14299011 .25830079 .14299011 .33224488 .14299011 .40519715 .14299011 .4811554 .1579895 .53611758 .1789856 .6150665 .24299622 .63604739 .28399659 .63604739 .33799745 .63604739 .3899994 .6030731 .4079895 .545105 .42399598 .4911499 .4249878 .41918946 .4249878 .33224488Z"/>
<path id="font_1_10" d="M.57199099 0V.035995485C.5349884 .035995485 .5130005 .038986207 .48399354 .07395935L.32299806 .2707672C.44599916 .36567689 .47898866 .39265443 .5479889 .39465333V.43066407C.5269928 .4286499 .5009918 .426651 .47999574 .426651 .43998719 .426651 .3999939 .42765809 .3600006 .43066407V.39465333C.37298585 .39265443 .37799073 .3846588 .37799073 .37667848 .37799073 .36068727 .35899354 .34170533 .34700013 .3327179L.19898987 .2188263V.69433596L.04899597 .6826172V.64660647C.115997318 .64660647 .12399292 .6396179 .12399292 .59065249V.07896423C.12399292 .035995485 .11399841 .035995485 .04899597 .035995485V0C.085998538 .0029907227 .12298584 .0039978029 .1599884 .0039978029 .19699097 .0039978029 .23399353 .0029907227 .2709961 0V.035995485C.20599365 .035995485 .19599915 .035995485 .19599915 .07896423V.17390442L.2679901 .22987366 .3769989 .094955448C.3880005 .081970218 .3999939 .066970828 .3999939 .053985597 .3999939 .037994386 .38198854 .035995485 .37199403 .035995485V0C.3849945 .0009918213 .45599366 .0039978029 .4850006 .0039978029 .5139923 .0039978029 .54299929 .0019989014 .57199099 0Z"/>
<path id="font_1_20" d="M.46798707 .5692291C.46798707 .62220767 .42900086 .70410159 .25898744 .70410159 .13598633 .70410159 .069992069 .6391754 .069992069 .571228 .069992069 .53022769 .102996829 .521225 .117996219 .521225 .13699341 .521225 .16499329 .53523257 .16499329 .5692291 .16499329 .57522585 .16499329 .6122284 .117996219 .6162262 .13598633 .64408877 .18199158 .6760864 .2559967 .6760864 .36999513 .6760864 .3769989 .61909487 .3769989 .5730896 .3769989 .5200958 .35699464 .50009158 .34098817 .48609925 .27398683 .42567445 .23699951 .337677 .23699951 .2606659V.2186737C.23699951 .19866944 .23699951 .19366455 .2539978 .19366455 .2709961 .19366455 .2709961 .20066834 .2709961 .22167969V.25567628C.2709961 .3436737 .32998658 .41767884 .40499879 .4646759 .42399598 .4766693 .46798707 .5076752 .46798707 .5686798V.5692291M.31098939 .056991579C.31098939 .09199524 .2829895 .114990238 .2539978 .114990238 .21899414 .114990238 .19599915 .08699036 .19599915 .057998659 .19599915 .022994996 .22399903 0 .25299073 0 .28799439 0 .31098939 .027999878 .31098939 .056991579Z"/>
<path id="font_1_9" d="M.5139923 .64660647V.6826172C.5089874 .6826172 .43598939 .6786041 .3869934 .6786041L.21199036 .6826172V.64660647H.24899292C.34599305 .64660647 .34599305 .63360598 .34599305 .60058596V.14857483C.34599305 .059570314 .2919922 .008468628 .23498535 .008468628 .20399475 .008468628 .15098572 .020492554 .12199402 .058563234 .15899658 .061569215 .1769867 .08555603 .1769867 .11456299 .1769867 .14656067 .1539917 .16955567 .12199402 .16955567 .09098816 .16955567 .06599426 .14956665 .06599426 .11256409 .06599426 .038513185 .14099121-.01953125 .23899842-.01953125 .33099366-.01953125 .4169922 .03451538 .43399049 .11656189 .43699647 .12957764 .43699647 .17358399 .43699647 .20257569V.5725708C.43699647 .5905762 .43699647 .6195984 .43899537 .6255951 .44299317 .64660647 .46699525 .64660647 .5139923 .64660647Z"/>
<path id="font_1_2" d="M.58399966 .21640015C.58399966 .33839417 .48098756 .44140626 .34999085 .44140626 .2899933 .44140626 .23498535 .41740418 .19898987 .38139344V.69433596L.04899597 .68333438V.6473236C.116989139 .6473236 .12399292 .639328 .12399292 .58935549V.00022888184H.1579895L.19299317 .06124878C.23098755 .011230469 .28599549-.009765625 .33898927-.009765625 .47099305-.009765625 .58399966 .089263919 .58399966 .2163086V.21640015M.49299623 .21731568C.49299623 .19430542 .49299623 .119277957 .45199586 .072250369 .4119873 .027236939 .36299134 .018234253 .33399964 .018234253 .2539978 .018234253 .21398926 .08125305 .20298767 .102264408V.33535768C.23098755 .38137818 .2849884 .4133911 .34498597 .4133911 .40098573 .4133911 .44099427 .38137818 .46099855 .35136415 .48098756 .32235719 .49299623 .28334046 .49299623 .21731568Z"/>
<path id="font_1_22" d="M.40699769 .1315155C.40699769 .1694336 .3899994 .1993866 .3639984 .2233429 .32598878 .25827027 .27999879 .2662506 .24499512 .2722473 .16499329 .28622438 .099990848 .29818727 .099990848 .35113526 .099990848 .38320924 .1269989 .422287 .22200012 .422287 .33799745 .422287 .34298707 .34114076 .34498597 .3121643 .34599305 .30119325 .35798646 .30119325 .3619995 .30119325 .3789978 .30119325 .3789978 .30818177 .3789978 .32714845V.42027284C.3789978 .43728639 .3789978 .44628907 .36499024 .44628907 .3600006 .44628907 .35798646 .44628907 .34498597 .4342804 .34298707 .43328858 .33299256 .4242859 .32699586 .419281 .29699708 .4402771 .25898744 .44628907 .22200012 .44628907 .07899475 .44628907 .04499817 .3711853 .04499817 .32115174 .04499817 .2892151 .05899048 .2632599 .08299255 .24330139 .12098694 .21035767 .15899658 .20336914 .22099304 .1933899 .2709961 .18440247 .35198976 .17044068 .35198976 .103515628 .35198976 .06437683 .32499696 .018234253 .22898865 .018234253 .1329956 .018234253 .09799194 .08143616 .07998657 .1494751 .07699585 .16244507 .07598877 .16644287 .06199646 .16644287 .04499817 .16644287 .04499817 .15945435 .04499817 .13949585V.016220093C.04499817-.00077819827 .04499817-.009765625 .05899048-.009765625 .067993167-.009765625 .08699036 .011230469 .10699463 .03327942 .15098572-.0077667238 .20498657-.009765625 .22898865-.009765625 .35899354-.009765625 .40699769 .06036377 .40699769 .1315155Z"/>
<path id="font_1_24" d="M.5049896 .18203736H.47099305C.46798707 .16001892 .45799256 .100997928 .44499208 .09098816 .43699647 .084991458 .3600006 .084991458 .34599305 .084991458H.1619873C.2669983 .17803955 .3019867 .20603943 .3619995 .25306703 .43598939 .312088 .5049896 .374115 .5049896 .46914674 .5049896 .5900879 .39898683 .6640625 .2709961 .6640625 .14698792 .6640625 .06298828 .57710269 .06298828 .4851532 .06298828 .43414308 .10598755 .42915345 .115997318 .42915345 .13999939 .42915345 .16899109 .44615174 .16899109 .48214723 .16899109 .5001526 .1619873 .53515627 .10998535 .53515627 .14099121 .6060791 .20899964 .62805178 .2559967 .62805178 .35598756 .62805178 .4079895 .5501404 .4079895 .46914674 .4079895 .38212586 .34599305 .3130951 .31399537 .27708436L.07299805 .038986207C.06298828 .02999878 .06298828 .027999878 .06298828 0H.47499085L.5049896 .18203736Z"/>
<path id="font_1_7" d="M.7859955 0V.035995485H.7619934C.68499758 .035995485 .68299868 .04598999 .68299868 .08097839V.60165408C.68299868 .6356201 .68499758 .64660647 .7619934 .64660647H.7859955V.6826172L.6359863 .6786041 .4850006 .6826172V.64660647H.5089874C.58599856 .64660647 .58799746 .6366272 .58799746 .60165408V.37290956H.2539978V.60165408C.2539978 .6356201 .2559967 .64660647 .33299256 .64660647H.35699464V.6826172L.20698548 .6786041 .055999757 .6826172V.64660647H.07998657C.15699768 .64660647 .15899658 .6366272 .15899658 .60165408V.08097839C.15899658 .04698181 .15699768 .035995485 .07998657 .035995485H.055999757V0L.20599365 .0039978029 .35699464 0V.035995485H.33299256C.2559967 .035995485 .2539978 .04598999 .2539978 .08097839V.33691407H.58799746V.08097839C.58799746 .04698181 .58599856 .035995485 .5089874 .035995485H.4850006V0L.6349945 .0039978029 .7859955 0Z"/>
<path id="font_1_6" d="M.54499819 .40040589C.54499819 .42340089 .526001 .45140077 .48599244 .45140077 .47099305 .45140077 .4169922 .44839479 .36999513 .4053955 .33999635 .42739869 .2979889 .44140626 .2539978 .44140626 .15098572 .44140626 .07598877 .372406 .07598877 .29440309 .07598877 .2554016 .09599304 .21939087 .12399292 .19340515 .115997318 .18440247 .09399414 .1513977 .09399414 .11239624 .09399414 .09939575 .09700012 .05239868 .13598633 .023391724 .09098816 .0082092289 .038986207-.024841309 .038986207-.076934818 .038986207-.15003968 .14898682-.20507813 .28399659-.20507813 .41099549-.20507813 .5289917-.15505982 .5289917-.074920658 .5289917-.0448761 .5169983 .00920105 .46199037 .039260866 .40299989 .0703125 .34399415 .0703125 .24699402 .0703125 .22499085 .0703125 .18899536 .0703125 .18099976 .07130432 .14898682 .078308109 .1309967 .108306888 .1309967 .13729859 .1309967 .16246033 .13798523 .17045594 .14399719 .17845154 .15899658 .16944885 .19499207 .14746094 .25299073 .14746094 .35598756 .14746094 .43099977 .21644593 .43099977 .29444886 .43099977 .33345033 .41299439 .36445619 .3889923 .39045716 .43399049 .42245484 .47299195 .42344667 .48999024 .42344667 .48599244 .41944886 .48098756 .41545106 .48098756 .39945985 .48098756 .37945558 .49598695 .3674469 .5130005 .3674469 .5269928 .3674469 .54499819 .37745667 .54499819 .40045167V.40040589M.35099793 .29444886C.35099793 .27845765 .35099793 .2384491 .33099366 .21244812 .31698609 .19544983 .2899933 .17745972 .2539978 .17745972 .1559906 .17720032 .1559906 .2732849 .1559906 .29429627 .1559906 .310318 .1559906 .3503418 .17599488 .3763733 .18998719 .39338685 .21699524 .4113922 .25299073 .4113922 .35099793 .4113922 .35099793 .31532289 .35099793 .29429627V.29444886M.46798707-.07600403C.46798707-.12904358 .3889923-.17507935 .28399659-.17507935 .1789856-.17507935 .099990848-.12808228 .099990848-.07608032 .099990848-.04107666 .13198853 .0019226074 .19599915 .0029296876H.2539978C.34298707 .0029296876 .46798707 .0029296876 .46798707-.07608032V-.07600403Z"/>
<path id="font_1_8" d="M.58999636 0V.035995485C.5249939 .035995485 .5149994 .035995485 .5149994 .0790863V.3035736C.5149994 .39045716 .47200013 .44140626 .36499024 .44140626 .27598573 .44140626 .22698975 .3884735 .20498657 .35058595H.20399475V.69433596L.053985597 .6826172V.64660647C.12098694 .64660647 .1289978 .6396179 .1289978 .59065249V.07896423C.1289978 .035995485 .11898804 .035995485 .053985597 .035995485V0C.053985597 0 .12599182 .0039978029 .16799927 .0039978029 .20498657 .0039978029 .27398683 .0009918213 .2829895 0V.035995485C.21798706 .035995485 .20799256 .035995485 .20799256 .07904053V.25923158C.20799256 .36434938 .29100038 .4133911 .35699464 .4133911 .4269867 .4133911 .43598939 .3583374 .43598939 .3072815V.07904053C.43598939 .035995485 .42599488 .035995485 .36099244 .035995485V0C.36099244 0 .43299867 .0039978029 .47499085 .0039978029 .5119934 .0039978029 .58099368 .0009918213 .58999636 0Z"/>
<path id="font_3_5" d="M.48199464-.0067749025 .5799866 .38938905C.58200076 .39839173 .58299258 .4013977 .58299258 .4013977 .58299258 .4163971 .57199099 .43139649 .5509949 .43139649 .519989 .43139649 .5099945 .4033966 .5059967 .38838197L.44099427 .12426758C.43699647 .10626221 .3919983 .018234253 .31698609 .018234253 .2679901 .018234253 .2519989 .056243898 .2519989 .09925842 .2519989 .15428162 .2809906 .23332215 .31098939 .3093567 .31698609 .32635499 .32199098 .33836366 .32199098 .3573761 .32199098 .4073944 .28199769 .44140626 .23298645 .44140626 .13398743 .44140626 .08799744 .3053589 .08799744 .28834535 .08799744 .27534486 .100997928 .27534486 .10899353 .27534486 .12098694 .27534486 .1269989 .27534486 .12998963 .28834535 .16099549 .39738465 .20599365 .4133911 .22999573 .4133911 .24699402 .4133911 .25498963 .40238954 .25498963 .38038636 .25498963 .3573761 .24798584 .34136964 .22999573 .29335023 .19299317 .19822693 .18199158 .15222168 .18199158 .114227298 .18199158 .0152282719 .25498963-.009765625 .31399537-.009765625 .34899903-.009765625 .38198854 .0012207031 .4169922 .031219483 .40499879-.01675415 .3929901-.06668091 .34899903-.11767578 .31599427-.1557312 .27598573-.17578125 .23999024-.17578125 .21199036-.17578125 .18598938-.16474915 .17599488-.13768006 .20599365-.13067627 .21699524-.10467529 .21699524-.08868408 .21699524-.07067871 .20399475-.05567932 .18099976-.05567932 .16499329-.05567932 .12998963-.06668091 .12998963-.11668396 .12998963-.1667633 .17399597-.20379639 .23899842-.20379639 .35699464-.20379639 .45899964-.09867859 .48199464-.0067749025Z"/>
<path id="font_3_1" d="M.54100039 .097335819C.54100039 .10534668 .5269928 .12136841 .5179901 .12136841 .5130005 .12136841 .5099945 .11836243 .5029907 .11035156 .44198609 .037246705 .35499574 .018234253 .30499269 .018234253 .23999024 .018234253 .21199036 .07330322 .21199036 .13638306 .21199036 .16741944 .21798706 .19847107 .22499085 .22851563H.2869873C.32998658 .22851563 .5269928 .22851563 .5269928 .35343934 .5269928 .40740968 .47599793 .44140626 .4059906 .44140626 .2939911 .44140626 .1349945 .35144044 .1349945 .1754303 .1349945 .07029724 .19699097-.009765625 .30499269-.009765625 .46398927-.009765625 .54100039 .08432007 .54100039 .097335819M.47898866 .3544464C.47898866 .2565155 .31900025 .2565155 .27999879 .2565155H.23298645C.27799989 .4113922 .3939972 .4133911 .4059906 .4133911 .44799806 .4133911 .47898866 .39041139 .47898866 .3544464Z"/>
<path id="font_3_4" d="M.45399476 .15612793C.45399476 .18611145 .44099427 .21409607 .4169922 .2350769 .3880005 .25906373 .36299134 .2640686 .30899049 .2740631 .2789917 .28004457 .23498535 .28804017 .23498535 .32904054 .23498535 .3470459 .2519989 .4133911 .34700013 .4133911 .36999513 .4133911 .41299439 .4083557 .42900086 .3720398 .42399598 .3700409 .397995 .35603334 .397995 .33003236 .397995 .31703187 .40499879 .30003358 .42999269 .30003358 .44198609 .30003358 .47399903 .30604554 .47399903 .35403443 .47399903 .418396 .4059906 .44140626 .34799195 .44140626 .20498657 .44140626 .17199707 .33303834 .17199707 .29403688 .17199707 .21308899 .25099183 .19810486 .28799439 .19111634 .33499146 .18211365 .3909912 .17211914 .3909912 .121154788 .3909912 .094177249 .3659973 .018234253 .24598694 .018234253 .21499634 .018234253 .15699768 .024215699 .13598633 .06719971 .17098999 .076187137 .1769867 .105163577 .1769867 .11616516 .1769867 .1351471 .16299439 .1491394 .14199829 .1491394 .114990238 .1491394 .08999634 .12915039 .08999634 .08717346 .08999634 .02722168 .1519928-.009765625 .24398804-.009765625 .4149933-.009765625 .45399476 .11116028 .45399476 .15612793Z"/>
<path id="font_1_13" d="M.96499636 0V.035995485H.94099429C.8639984 .035995485 .8619995 .04598999 .8619995 .080963138V.6016388C.8619995 .6356201 .8639984 .64660647 .94099429 .64660647H.96499636V.6826172H.79100039C.7709961 .6826172 .7619934 .6826172 .7539978 .6626129L.5139923 .095962528 .2749939 .660614C.2659912 .6826172 .2579956 .6826172 .23699951 .6826172H.06199646V.64660647H.085998538C.16299439 .64660647 .16499329 .63661196 .16499329 .6016388V.107940677C.16499329 .080963138 .16499329 .035995485 .06199646 .035995485V0C.102996829 .0029907227 .14299011 .0039978029 .18399048 .0039978029 .22499085 .0039978029 .2649994 .0029907227 .30599977 0V.035995485C.20298767 .035995485 .20298767 .080963138 .20298767 .107940677V.63461306L.20399475 .6356201 .46398927 .022994996C.46899415 .010986328 .47399903 0 .4889984 0 .49598695 0 .5049896 .0029907227 .5130005 .020996094L.7769928 .6456146 .7779999 .64460757V.080963138C.7779999 .04698181 .776001 .035995485 .69898989 .035995485H.6749878V0L.81999209 .0039978029 .96499636 0Z"/>
<path id="font_1_4" d="M.46798707 .12036133C.46798707 .12435913 .46598817 .13438416 .45098878 .13438416 .43798829 .13438416 .43598939 .12837219 .43299867 .11836243 .4019928 .037246705 .32598878 .022232056 .2899933 .022232056 .24299622 .022232056 .19799805 .043258668 .16799927 .08131409 .1309967 .12837219 .12998963 .18945313 .12998963 .22851563H.43998719C.46099855 .22851563 .46798707 .22851563 .46798707 .25050355 .46798707 .33839417 .4189911 .44628907 .269989 .44628907 .13899231 .44628907 .038986207 .34239198 .038986207 .21949768 .038986207 .092315677 .1499939-.009765625 .2829895-.009765625 .41799928-.009765625 .46798707 .09832764 .46798707 .12036133M.397995 .25450135H.1309967C.14199829 .39530946 .23199463 .41827394 .269989 .41827394 .3929901 .41827394 .39698792 .27947999 .397995 .25450135Z"/>
<path id="font_1_3" d="M.58099368 0V.035995485C.5139923 .035995485 .5059967 .042999269 .5059967 .09202576V.69433596L.35598756 .6826172V.64660647C.4229889 .64660647 .43099977 .6396332 .43099977 .5908203V.3843689C.3939972 .4203949 .34599305 .44140626 .29100038 .44140626 .1579895 .44140626 .04598999 .34132386 .04598999 .21520996 .04598999 .09008789 .1519928-.009765625 .2789917-.009765625 .36099244-.009765625 .4099884 .03414917 .4269867 .05206299V-.009765625L.58099368 0M.4269867 .10499573C.40098573 .05807495 .34999085 .018234253 .2849884 .018234253 .22898865 .018234253 .18899536 .051071168 .16899109 .080078128 .14898682 .11010742 .13699341 .15014649 .13699341 .21421814 .13699341 .23724365 .13699341 .3123169 .17799378 .35932923 .21798706 .40438844 .2669983 .4133911 .29599 .4133911 .34399415 .4133911 .3869934 .39137269 .4149933 .35533143 .4269867 .33932496 .4269867 .33833314 .4269867 .31933595V.10499573Z"/>
<path id="font_1_14" d="M.8969879 0V.035995485C.83200076 .035995485 .82199099 .035995485 .82199099 .07904053V.3032837C.82199099 .3903656 .7789917 .44140626 .6719971 .44140626 .59298709 .44140626 .5389862 .39837647 .5119934 .34832765 .49198915 .41940309 .43798829 .44140626 .36499024 .44140626 .2829895 .44140626 .22999573 .39637757 .20199585 .34432984H.20098877V.44140626L.053985597 .43052674V.39453126C.12098694 .39453126 .1289978 .3875122 .1289978 .33843995V.079055789C.1289978 .035995485 .11898804 .035995485 .053985597 .035995485V0C.053985597 0 .12599182 .0039978029 .16799927 .0039978029 .20498657 .0039978029 .27398683 .0009918213 .2829895 0V.035995485C.21798706 .035995485 .20799256 .035995485 .20799256 .079055789V.25932313C.20799256 .36434938 .29100038 .4133911 .35699464 .4133911 .4269867 .4133911 .43598939 .3583374 .43598939 .3072815V.07904053C.43598939 .035995485 .42599488 .035995485 .36099244 .035995485V0C.36099244 0 .43299867 .0039978029 .47499085 .0039978029 .5119934 .0039978029 .58099368 .0009918213 .58999636 0V.035995485C.5249939 .035995485 .5149994 .035995485 .5149994 .07904053V.25923158C.5149994 .36434938 .59799197 .4133911 .6639862 .4133911 .73399356 .4133911 .7429962 .3583374 .7429962 .3072815V.07904053C.7429962 .035995485 .73298647 .035995485 .66799929 .035995485V0C.66799929 0 .73999026 .0039978029 .7819977 .0039978029 .81900027 .0039978029 .8880005 .0009918213 .8969879 0Z"/>
<path id="font_3_2" d="M.6799927 .14328003C.6799927 .15628052 .6669922 .15628052 .6589966 .15628052 .6409912 .15628052 .6399994 .1532898 .6349945 .13528443 .6179962 .07325745 .58200076 .018234253 .5379944 .018234253 .5239868 .018234253 .5130005 .025222779 .5130005 .052246095 .5130005 .07424927 .5219879 .0962677 .5299988 .119277957 .5479889 .16629029 .58999636 .27534486 .58999636 .33036805 .58999636 .4084015 .5359955 .44140626 .46699525 .44140626 .3880005 .44140626 .33399964 .39439393 .3039856 .35636903 .29699708 .41740418 .24499512 .44140626 .20498657 .44140626 .1619873 .44140626 .13999939 .4133911 .125 .38838197 .10398865 .3553772 .08799744 .29434205 .08799744 .28834535 .08799744 .27534486 .100997928 .27534486 .10899353 .27534486 .1269989 .27534486 .12799073 .27633668 .1349945 .3043518 .1519928 .37338258 .17098999 .4133911 .20199585 .4133911 .23298645 .4133911 .23298645 .37738038 .23298645 .3653717 .23298645 .3463745 .21998596 .29534913 .21199036 .2603302L.18399048 .15228272C.18099976 .13728333 .17098999 .09925842 .16699219 .08425903 .1619873 .0622406 .15299988 .027236939 .15299988 .020233155 .15299988-.0017700195 .16899109-.009765625 .18399048-.009765625 .21798706-.009765625 .22499085 .020233155 .22898865 .035232545L.2519989 .12426758C.25498963 .13928223 .2649994 .17729187 .2679901 .19230652 .2709961 .20230103 .28399659 .2523346 .2849884 .25933839 .2869873 .26533509 .31698609 .33135987 .35798646 .36938478 .3880005 .39639283 .4229889 .4133911 .46299745 .4133911 .5089874 .4133911 .519989 .37838746 .519989 .34536744 .519989 .28634645 .47299195 .1652832 .45599366 .119277957 .44599916 .09425354 .44599916 .087249759 .44599916 .07424927 .44599916 .020233155 .4889984-.009765625 .5349884-.009765625 .6349945-.009765625 .6799927 .12727356 .6799927 .14328003Z"/>
<path id="font_3_3" d="M.57899478 .2693329C.57899478 .36637879 .5109863 .44140626 .4079895 .44140626 .2649994 .44140626 .12998963 .3023529 .12998963 .16229248 .12998963 .0602417 .20199585-.009765625 .30099488-.009765625 .44400025-.009765625 .57899478 .13027954 .57899478 .2693329M.5 .30334474C.5 .2693329 .4850006 .17329407 .44198609 .105270389 .41099549 .057250978 .35499574 .018234253 .3019867 .018234253 .27398683 .018234253 .20899964 .032226564 .20899964 .12828064 .20899964 .17228699 .22898865 .27734376 .2769928 .33937074 .31199647 .38638307 .36299134 .4133911 .40699769 .4133911 .44198609 .4133911 .5 .39239503 .5 .30334474Z"/>
<path id="font_1_15" d="M.7859955 .64660647V.6826172C.7449951 .6796112 .7049866 .6786041 .6639862 .6786041 .6230011 .6786041 .58299258 .6796112 .5419922 .6826172V.64660647C.644989 .64660647 .644989 .6016388 .644989 .57466128V.15092469L.26098634 .66760256C.25 .6816101 .24899292 .6826172 .22898865 .6826172H.055999757V.64660647H.085998538C.1289978 .64660647 .1539917 .6416168 .15899658 .64060977V.107940677C.15899658 .080963138 .15899658 .035995485 .055999757 .035995485V0C.09700012 .0029907227 .13699341 .0039978029 .17799378 .0039978029 .21899414 .0039978029 .25898744 .0029907227 .2999878 0V.035995485C.19699097 .035995485 .19699097 .080963138 .19699097 .107940677V.6126251L.6409912 .01499939C.651001 .0009918213 .6519928 0 .6639862 0 .68299868 0 .68299868 .008987427 .68299868 .027999878V.57466128C.68299868 .6016388 .68299868 .64660647 .7859955 .64660647Z"/>
<path id="font_1_21" d="M.40699769 .37739564C.40699769 .4113922 .375 .44140626 .32798768 .44140626 .27799989 .44140626 .22299195 .4104004 .19299317 .33439637H.19198609V.44140626L.04899597 .43052674V.39453126C.115997318 .39453126 .12399292 .3875122 .12399292 .33843995V.079055789C.12399292 .035995485 .11399841 .035995485 .04899597 .035995485V0C.053985597 0 .12199402 .0039978029 .16299439 .0039978029L.29299928 0V.035995485H.272995C.19898987 .036071779 .19898987 .047073366 .19898987 .081085208V.22807312C.19898987 .31207276 .23799134 .41308595 .33299256 .41308595 .32398988 .40608216 .31599427 .39308167 .31599427 .3770752 .31599427 .3440857 .34199525 .3310852 .36099244 .3310852 .3849945 .3310852 .40699769 .34707643 .40699769 .3770752V.37739564Z"/>
<path id="font_1_26" d="M.7839966 .39465333V.43066407C.7569885 .42765809 .7409973 .426651 .71199038 .426651 .6819916 .426651 .6439972 .42765809 .6139984 .43066407V.39465333C.6489868 .3936615 .66600039 .37471009 .66600039 .350708 .66600039 .3427124 .66600039 .3407135 .6599884 .32670594L.5629883 .07771301 .45498658 .350708C.45298768 .3559723 .44999696 .36398316 .44999696 .36997987 .44999696 .39169313 .47599793 .39465333 .5039978 .39465333V.43066407C.46798707 .42765809 .43199159 .426651 .3959961 .426651 .36698915 .426651 .33699037 .4286499 .30799867 .43066407V.39465333C.33099366 .39471437 .35198976 .39471437 .36499024 .38671876 .3789978 .37670899 .3880005 .3427124 .3880005 .3427124 .3880005 .3427124 .38598634 .3347168 .38398744 .33070375L.2899933 .0927124 .18899536 .350708C.18299866 .36497499 .18299866 .36598207 .18299866 .36997987 .18299866 .39465333 .21899414 .39465333 .23699951 .39465333V.43066407C.23699951 .43066407 .1639862 .426651 .12399292 .426651 .09298706 .426651 .06098938 .42765809 .02999878 .43066407V.39465333C.068984989 .39465333 .09098816 .39465333 .101989749 .36598207L.24099732 .013214111C.24699402-.0017852783 .25-.009765625 .2679901-.009765625 .28599549-.009765625 .2889862-.0017852783 .2939911 .01121521L.40699769 .29699708 .5179901 .014205933C.5239868-.00077819827 .5279999-.009765625 .54599-.009765625 .56399539-.009765625 .5669861-.0027770997 .57299807 .013214111L.69999697 .33398438C.7200012 .38380433 .7529907 .39367677 .7839966 .39465333Z"/>
<path id="font_1_27" d="M.56799319 .39465333V.43066407C.5399933 .4286499 .5209961 .426651 .49198915 .426651 .46499635 .426651 .42799378 .42765809 .40098573 .43066407V.39465333C.43399049 .39265443 .44198609 .3726654 .44198609 .3566742 .44198609 .3446808 .43699647 .33569337 .43299867 .32569886L.32199098 .08883667 .19898987 .3526764C.19599915 .3586731 .19299317 .3646698 .19299317 .37167359 .19299317 .39465333 .22698975 .39465333 .24398804 .39465333V.43066407L.1289978 .426651C.09899902 .426651 .05999756 .42765809 .0309906 .43066407V.39465333C.08699036 .39465333 .09799194 .3916626 .11299133 .35968019L.2809906-.00012207031C.27198792-.020111084 .2619934-.039093019 .25299073-.05908203 .23098755-.10707092 .19898987-.17610169 .1309967-.17610169 .10598755-.17610169 .09799194-.1710968 .08799744-.1640625 .08799744-.16397095 .116989139-.15396118 .116989139-.12097168 .116989139-.096069339 .09899902-.078063968 .07398987-.078063968 .04798889-.078063968 .02999878-.096069339 .02999878-.12207031 .02999878-.16908264 .07699585-.20410156 .1309967-.20410156 .21598816-.20396424 .2649994-.114974979 .2789917-.08496094L.47299195 .33270265C.5009918 .3936615 .5519867 .39465333 .56799319 .39465333Z"/>
<path id="font_1_11" d="M.651001 .2628479H.61698916C.60598757 .16491699 .59098818 .035995485 .4019928 .035995485H.3019867C.25498963 .035995485 .2539978 .04399109 .2539978 .07496643V.600647C.2539978 .6336212 .2539978 .64660647 .34799195 .64660647H.3829956V.6826172L.20799256 .6786041 .055999757 .6826172V.64660647H.07998657C.15699768 .64660647 .15899658 .63661196 .15899658 .6016388V.080963138C.15899658 .04698181 .15699768 .035995485 .07998657 .035995485H.055999757V0H.62098696L.651001 .2628479Z"/>
</defs>
<path transform="matrix(1,0,0,-1,81.973,14.438004)" d="M31.68361 6.06894H-31.68361C-33.88455 6.06894-35.66872 4.28477-35.66872 2.08383V-2.08383C-35.66872-4.28477-33.88455-6.06894-31.68361-6.06894H31.68361C33.88455-6.06894 35.66872-4.28477 35.66872-2.08383V2.08383C35.66872 4.28477 33.88455 6.06894 31.68361 6.06894ZM-35.66872-6.06894" fill="#f0f3f7"/>
<path transform="matrix(1,0,0,-1,81.973,14.438004)" stroke-width=".79701" stroke-linecap="butt" stroke-miterlimit="10" stroke-linejoin="miter" fill="none" stroke="#003e74" d="M31.68361 6.06894H-31.68361C-33.88455 6.06894-35.66872 4.28477-35.66872 2.08383V-2.08383C-35.66872-4.28477-33.88455-6.06894-31.68361-6.06894H31.68361C33.88455-6.06894 35.66872-4.28477 35.66872-2.08383V2.08383C35.66872 4.28477 33.88455 6.06894 31.68361 6.06894ZM-35.66872-6.06894"/>
<use data-text="P" xlink:href="#font_1_18" transform="matrix(6.9738,0,0,-6.9738,49.294,16.162003)"/>
<use data-text="o" xlink:href="#font_1_17" transform="matrix(6.9738,0,0,-6.9738,54.43369,16.162003)"/>
<use data-text="p" xlink:href="#font_1_19" transform="matrix(6.9738,0,0,-6.9738,58.401784,16.162003)"/>
<use data-text="u" xlink:href="#font_1_25" transform="matrix(6.9738,0,0,-6.9738,62.80225,16.162003)"/>
<use data-text="l" xlink:href="#font_1_12" transform="matrix(6.9738,0,0,-6.9738,67.20272,16.162003)"/>
<use data-text="a" xlink:href="#font_1_1" transform="matrix(6.9738,0,0,-6.9738,69.45526,16.162003)"/>
<use data-text="t" xlink:href="#font_1_23" transform="matrix(6.9738,0,0,-6.9738,73.423358,16.162003)"/>
<use data-text="i" xlink:href="#font_1_29" transform="matrix(6.9738,0,0,-6.9738,76.53367,16.162003)"/>
<use data-text="o" xlink:href="#font_1_17" transform="matrix(6.9738,0,0,-6.9738,78.78621,16.162003)"/>
<use data-text="n" xlink:href="#font_1_16" transform="matrix(6.9738,0,0,-6.9738,82.7543,16.162003)"/>
<use data-text="&#x003e;" xlink:href="#font_2_1" transform="matrix(6.9738,0,0,-6.9738,89.83968,16.162003)"/>
<use data-text="5" xlink:href="#font_1_5" transform="matrix(6.9738,0,0,-6.9738,98.752208,16.162003)"/>
<use data-text="0" xlink:href="#font_1_28" transform="matrix(6.9738,0,0,-6.9738,102.7203,16.162003)"/>
<use data-text="k" xlink:href="#font_1_10" transform="matrix(6.9738,0,0,-6.9738,106.68839,16.162003)"/>
<use data-text="?" xlink:href="#font_1_20" transform="matrix(6.9738,0,0,-6.9738,110.87267,16.162003)"/>
<path transform="matrix(1,0,0,-1,81.973,14.438004)" d="M-10.63953-24.10944H-51.72333C-53.92427-24.10944-55.70844-25.8936-55.70844-28.09454V-31.43393C-55.70844-33.63487-53.92427-35.41904-51.72333-35.41904H-10.63953C-8.43858-35.41904-6.65442-33.63487-6.65442-31.43393V-28.09454C-6.65442-25.8936-8.43858-24.10944-10.63953-24.10944ZM-55.70844-35.41904" fill="#f0f3f7"/>
<path transform="matrix(1,0,0,-1,81.973,14.438004)" stroke-width=".79701" stroke-linecap="butt" stroke-miterlimit="10" stroke-linejoin="miter" fill="none" stroke="#003e74" d="M-10.63953-24.10944H-51.72333C-53.92427-24.10944-55.70844-25.8936-55.70844-28.09454V-31.43393C-55.70844-33.63487-53.92427-35.41904-51.72333-35.41904H-10.63953C-8.43858-35.41904-6.65442-33.63487-6.65442-31.43393V-28.09454C-6.65442-25.8936-8.43858-24.10944-10.63953-24.10944ZM-55.70844-35.41904"/>
<use data-text="J" xlink:href="#font_1_9" transform="matrix(6.9738,0,0,-6.9738,29.253998,46.34)"/>
<use data-text="o" xlink:href="#font_1_17" transform="matrix(6.9738,0,0,-6.9738,33.319726,46.34)"/>
<use data-text="b" xlink:href="#font_1_2" transform="matrix(6.9738,0,0,-6.9738,37.28782,46.34)"/>
<use data-text="s" xlink:href="#font_1_22" transform="matrix(6.9738,0,0,-6.9738,41.688287,46.34)"/>
<use data-text="&#x003e;" xlink:href="#font_2_1" transform="matrix(6.9738,0,0,-6.9738,47.532327,46.34)"/>
<use data-text="2" xlink:href="#font_1_24" transform="matrix(6.9738,0,0,-6.9738,56.444849,46.34)"/>
<use data-text="0" xlink:href="#font_1_28" transform="matrix(6.9738,0,0,-6.9738,60.41294,46.34)"/>
<use data-text="k" xlink:href="#font_1_10" transform="matrix(6.9738,0,0,-6.9738,64.381038,46.34)"/>
<use data-text="?" xlink:href="#font_1_20" transform="matrix(6.9738,0,0,-6.9738,68.565319,46.34)"/>
<path transform="matrix(1,0,0,-1,81.973,14.438004)" stroke-width=".99628" stroke-linecap="butt" stroke-miterlimit="10" stroke-linejoin="miter" fill="none" stroke="#003e74" d="M-6.77425-6.46745-21.53975-20.55948"/>
<path transform="matrix(-.72337,.69038,.69038,.72337,62.4626,33.060705)" d="M5.95149 0 1.60866 1.6449 3.05444 0 1.60866-1.6449Z" fill="#003e74"/>
<path transform="matrix(-.72337,.69038,.69038,.72337,62.4626,33.060705)" stroke-width=".99628" stroke-linecap="butt" stroke-miterlimit="10" stroke-linejoin="miter" fill="none" stroke="#003e74" d="M5.95149 0 1.60866 1.6449 3.05444 0 1.60866-1.6449Z"/>
<path transform="matrix(1,0,0,-1,81.973,14.438004)" d="M-55.10516-53.45953H-69.62056C-71.8215-53.45953-73.60567-55.2437-73.60567-57.44464V-61.61232C-73.60567-63.81326-71.8215-65.59743-69.62056-65.59743H-55.10516C-52.90422-65.59743-51.12006-63.81326-51.12006-61.61232V-57.44464C-51.12006-55.2437-52.90422-53.45953-55.10516-53.45953ZM-73.60567-65.59743" fill="#cce2de"/>
<path transform="matrix(1,0,0,-1,81.973,14.438004)" stroke-width=".79701" stroke-linecap="butt" stroke-miterlimit="10" stroke-linejoin="miter" fill="none" stroke="#006e5a" d="M-55.10516-53.45953H-69.62056C-71.8215-53.45953-73.60567-55.2437-73.60567-57.44464V-61.61232C-73.60567-63.81326-71.8215-65.59743-69.62056-65.59743H-55.10516C-52.90422-65.59743-51.12006-63.81326-51.12006-61.61232V-57.44464C-51.12006-55.2437-52.90422-53.45953-55.10516-53.45953ZM-73.60567-65.59743"/>
<use data-text="H" xlink:href="#font_1_7" transform="matrix(6.9738,0,0,-6.9738,11.357002,75.69)"/>
<use data-text="i" xlink:href="#font_1_29" transform="matrix(6.9738,0,0,-6.9738,17.235917,75.69)"/>
<use data-text="g" xlink:href="#font_1_6" transform="matrix(6.9738,0,0,-6.9738,19.488453,75.69)"/>
<use data-text="h" xlink:href="#font_1_8" transform="matrix(6.9738,0,0,-6.9738,23.456545,75.69)"/>
<path transform="matrix(1,0,0,-1,81.973,14.438004)" stroke-width=".99628" stroke-linecap="butt" stroke-miterlimit="10" stroke-linejoin="miter" fill="none" stroke="#003e74" d="M-37.52199-35.81754-52.28745-49.90958"/>
<path transform="matrix(-.72337,.69038,.69038,.72337,31.714901,62.41078)" d="M5.95149 0 1.60866 1.6449 3.05444 0 1.60866-1.6449Z" fill="#003e74"/>
<path transform="matrix(-.72337,.69038,.69038,.72337,31.714901,62.41078)" stroke-width=".99628" stroke-linecap="butt" stroke-miterlimit="10" stroke-linejoin="miter" fill="none" stroke="#003e74" d="M5.95149 0 1.60866 1.6449 3.05444 0 1.60866-1.6449Z"/>
<use data-text="y" xlink:href="#font_3_5" transform="matrix(6.9738,0,0,-6.9738,20.845002,59.7)" fill="#555555"/>
<use data-text="e" xlink:href="#font_3_1" transform="matrix(6.9738,0,0,-6.9738,24.847964,59.7)" fill="#555555"/>
<use data-text="s" xlink:href="#font_3_4" transform="matrix(6.9738,0,0,-6.9738,28.64171,59.7)" fill="#555555"/>
<path transform="matrix(1,0,0,-1,81.973,14.438004)" d="M13.15926-54.13756H-13.15916C-15.3601-54.13756-17.14427-55.92172-17.14427-58.12267V-60.9343C-17.14427-63.13524-15.3601-64.9194-13.15916-64.9194H13.15926C15.3602-64.9194 17.14436-63.13524 17.14436-60.9343V-58.12267C17.14436-55.92172 15.3602-54.13756 13.15926-54.13756ZM-17.14427-64.9194" fill="#f0e8d8"/>
<path transform="matrix(1,0,0,-1,81.973,14.438004)" stroke-width=".79701" stroke-linecap="butt" stroke-miterlimit="10" stroke-linejoin="miter" fill="none" stroke="#b48c3c" d="M13.15926-54.13756H-13.15916C-15.3601-54.13756-17.14427-55.92172-17.14427-58.12267V-60.9343C-17.14427-63.13524-15.3601-64.9194-13.15916-64.9194H13.15926C15.3602-64.9194 17.14436-63.13524 17.14436-60.9343V-58.12267C17.14436-55.92172 15.3602-54.13756 13.15926-54.13756ZM-17.14427-64.9194"/>
<use data-text="M" xlink:href="#font_1_13" transform="matrix(6.9738,0,0,-6.9738,67.818,76.368)"/>
<use data-text="e" xlink:href="#font_1_4" transform="matrix(6.9738,0,0,-6.9738,74.98707,76.368)"/>
<use data-text="d" xlink:href="#font_1_3" transform="matrix(6.9738,0,0,-6.9738,78.52976,76.368)"/>
<use data-text="i" xlink:href="#font_1_29" transform="matrix(6.9738,0,0,-6.9738,82.93023,76.368)"/>
<use data-text="u" xlink:href="#font_1_25" transform="matrix(6.9738,0,0,-6.9738,85.18277,76.368)"/>
<use data-text="m" xlink:href="#font_1_14" transform="matrix(6.9738,0,0,-6.9738,89.58324,76.368)"/>
<path transform="matrix(1,0,0,-1,81.973,14.438004)" stroke-width=".99628" stroke-linecap="butt" stroke-miterlimit="10" stroke-linejoin="miter" fill="none" stroke="#003e74" d="M-24.84032-35.81754-9.3652-50.58752"/>
<path transform="matrix(.72336,.6904,.6904,-.72336,70.5785,63.088685)" d="M5.95149 0 1.60866 1.6449 3.05444 0 1.60866-1.6449Z" fill="#003e74"/>
<path transform="matrix(.72336,.6904,.6904,-.72336,70.5785,63.088685)" stroke-width=".99628" stroke-linecap="butt" stroke-miterlimit="10" stroke-linejoin="miter" fill="none" stroke="#003e74" d="M5.95149 0 1.60866 1.6449 3.05444 0 1.60866-1.6449Z"/>
<use data-text="n" xlink:href="#font_3_2" transform="matrix(6.9738,0,0,-6.9738,69.909,60.717)" fill="#555555"/>
<use data-text="o" xlink:href="#font_3_3" transform="matrix(6.9738,0,0,-6.9738,74.52565,60.717)" fill="#555555"/>
<use data-text="y" xlink:href="#font_3_5" transform="matrix(6.9738,0,0,-6.9738,51.592,30.349999)" fill="#555555"/>
<use data-text="e" xlink:href="#font_3_1" transform="matrix(6.9738,0,0,-6.9738,55.59496,30.349999)" fill="#555555"/>
<use data-text="s" xlink:href="#font_3_4" transform="matrix(6.9738,0,0,-6.9738,59.388708,30.349999)" fill="#555555"/>
<path transform="matrix(1,0,0,-1,81.973,14.438004)" d="M58.7244-23.69528H3.63853C1.43759-23.69528-.34656-25.47945-.34656-27.68039V-31.84808C-.34656-34.04901 1.43759-35.83319 3.63853-35.83319H58.7244C60.92534-35.83319 62.7095-34.04901 62.7095-31.84808V-27.68039C62.7095-25.47945 60.92534-23.69528 58.7244-23.69528ZM-.34656-35.83319" fill="#f0f3f7"/>
<path transform="matrix(1,0,0,-1,81.973,14.438004)" stroke-width=".79701" stroke-linecap="butt" stroke-miterlimit="10" stroke-linejoin="miter" fill="none" stroke="#003e74" d="M58.7244-23.69528H3.63853C1.43759-23.69528-.34656-25.47945-.34656-27.68039V-31.84808C-.34656-34.04901 1.43759-35.83319 3.63853-35.83319H58.7244C60.92534-35.83319 62.7095-34.04901 62.7095-31.84808V-27.68039C62.7095-25.47945 60.92534-23.69528 58.7244-23.69528ZM-.34656-35.83319"/>
<use data-text="N" xlink:href="#font_1_15" transform="matrix(6.9738,0,0,-6.9738,84.615,45.926)"/>
<use data-text="e" xlink:href="#font_1_4" transform="matrix(6.9738,0,0,-6.9738,90.49391,45.926)"/>
<use data-text="a" xlink:href="#font_1_1" transform="matrix(6.9738,0,0,-6.9738,94.036609,45.926)"/>
<use data-text="r" xlink:href="#font_1_21" transform="matrix(6.9738,0,0,-6.9738,98.0047,45.926)"/>
<use data-text="m" xlink:href="#font_1_14" transform="matrix(6.9738,0,0,-6.9738,103.79993,45.926)"/>
<use data-text="o" xlink:href="#font_1_17" transform="matrix(6.9738,0,0,-6.9738,110.34833,45.926)"/>
<use data-text="t" xlink:href="#font_1_23" transform="matrix(6.9738,0,0,-6.9738,114.31642,45.926)"/>
<use data-text="o" xlink:href="#font_1_17" transform="matrix(6.9738,0,0,-6.9738,117.426738,45.926)"/>
<use data-text="r" xlink:href="#font_1_21" transform="matrix(6.9738,0,0,-6.9738,121.39483,45.926)"/>
<use data-text="w" xlink:href="#font_1_26" transform="matrix(6.9738,0,0,-6.9738,124.50514,45.926)"/>
<use data-text="a" xlink:href="#font_1_1" transform="matrix(6.9738,0,0,-6.9738,129.97959,45.926)"/>
<use data-text="y" xlink:href="#font_1_27" transform="matrix(6.9738,0,0,-6.9738,133.73847,45.926)"/>
<use data-text="?" xlink:href="#font_1_20" transform="matrix(6.9738,0,0,-6.9738,137.92275,45.926)"/>
<path transform="matrix(1,0,0,-1,81.973,14.438004)" stroke-width=".99628" stroke-linecap="butt" stroke-miterlimit="10" stroke-linejoin="miter" fill="none" stroke="#003e74" d="M6.77444-6.46745 21.10597-20.1454"/>
<path transform="matrix(.72339,.69037,.69037,-.72339,101.049579,32.646654)" d="M5.95149 0 1.60866 1.6449 3.05444 0 1.60866-1.6449Z" fill="#003e74"/>
<path transform="matrix(.72339,.69037,.69037,-.72339,101.049579,32.646654)" stroke-width=".99628" stroke-linecap="butt" stroke-miterlimit="10" stroke-linejoin="miter" fill="none" stroke="#003e74" d="M5.95149 0 1.60866 1.6449 3.05444 0 1.60866-1.6449Z"/>
<path transform="matrix(1,0,0,-1,81.973,14.438004)" d="M13.15926-54.13756H-13.15916C-15.3601-54.13756-17.14427-55.92172-17.14427-58.12267V-60.9343C-17.14427-63.13524-15.3601-64.9194-13.15916-64.9194H13.15926C15.3602-64.9194 17.14436-63.13524 17.14436-60.9343V-58.12267C17.14436-55.92172 15.3602-54.13756 13.15926-54.13756ZM-17.14427-64.9194" fill="#f0e8d8"/>
<path transform="matrix(1,0,0,-1,81.973,14.438004)" stroke-width=".79701" stroke-linecap="butt" stroke-miterlimit="10" stroke-linejoin="miter" fill="none" stroke="#b48c3c" d="M13.15926-54.13756H-13.15916C-15.3601-54.13756-17.14427-55.92172-17.14427-58.12267V-60.9343C-17.14427-63.13524-15.3601-64.9194-13.15916-64.9194H13.15926C15.3602-64.9194 17.14436-63.13524 17.14436-60.9343V-58.12267C17.14436-55.92172 15.3602-54.13756 13.15926-54.13756ZM-17.14427-64.9194"/>
<use data-text="M" xlink:href="#font_1_13" transform="matrix(6.9738,0,0,-6.9738,67.818,76.368)"/>
<use data-text="e" xlink:href="#font_1_4" transform="matrix(6.9738,0,0,-6.9738,74.98707,76.368)"/>
<use data-text="d" xlink:href="#font_1_3" transform="matrix(6.9738,0,0,-6.9738,78.52976,76.368)"/>
<use data-text="i" xlink:href="#font_1_29" transform="matrix(6.9738,0,0,-6.9738,82.93023,76.368)"/>
<use data-text="u" xlink:href="#font_1_25" transform="matrix(6.9738,0,0,-6.9738,85.18277,76.368)"/>
<use data-text="m" xlink:href="#font_1_14" transform="matrix(6.9738,0,0,-6.9738,89.58324,76.368)"/>
<path transform="matrix(1,0,0,-1,81.973,14.438004)" stroke-width=".99628" stroke-linecap="butt" stroke-miterlimit="10" stroke-linejoin="miter" fill="none" stroke="#003e74" d="M24.40652-36.23169 9.3653-50.58752"/>
<path transform="matrix(-.72336,.6904,.6904,.72336,93.36759,63.088685)" d="M5.95149 0 1.60866 1.6449 3.05444 0 1.60866-1.6449Z" fill="#003e74"/>
<path transform="matrix(-.72336,.6904,.6904,.72336,93.36759,63.088685)" stroke-width=".99628" stroke-linecap="butt" stroke-miterlimit="10" stroke-linejoin="miter" fill="none" stroke="#003e74" d="M5.95149 0 1.60866 1.6449 3.05444 0 1.60866-1.6449Z"/>
<use data-text="y" xlink:href="#font_3_5" transform="matrix(6.9738,0,0,-6.9738,82.635,60.246004)" fill="#555555"/>
<use data-text="e" xlink:href="#font_3_1" transform="matrix(6.9738,0,0,-6.9738,86.63796,60.246004)" fill="#555555"/>
<use data-text="s" xlink:href="#font_3_4" transform="matrix(6.9738,0,0,-6.9738,90.43171,60.246004)" fill="#555555"/>
<path transform="matrix(1,0,0,-1,81.973,14.438004)" d="M68.55165-54.13756H56.17424C53.9733-54.13756 52.18913-55.92172 52.18913-58.12267V-60.9343C52.18913-63.13524 53.9733-64.9194 56.17424-64.9194H68.55165C70.7526-64.9194 72.53676-63.13524 72.53676-60.9343V-58.12267C72.53676-55.92172 70.7526-54.13756 68.55165-54.13756ZM52.18913-64.9194" fill="#d1e0ec"/>
<path transform="matrix(1,0,0,-1,81.973,14.438004)" stroke-width=".79701" stroke-linecap="butt" stroke-miterlimit="10" stroke-linejoin="miter" fill="none" stroke="#4682b4" d="M68.55165-54.13756H56.17424C53.9733-54.13756 52.18913-55.92172 52.18913-58.12267V-60.9343C52.18913-63.13524 53.9733-64.9194 56.17424-64.9194H68.55165C70.7526-64.9194 72.53676-63.13524 72.53676-60.9343V-58.12267C72.53676-55.92172 70.7526-54.13756 68.55165-54.13756ZM52.18913-64.9194"/>
<use data-text="L" xlink:href="#font_1_11" transform="matrix(6.9738,0,0,-6.9738,137.151,76.368)"/>
<use data-text="o" xlink:href="#font_1_17" transform="matrix(6.9738,0,0,-6.9738,142.07451,76.368)"/>
<use data-text="w" xlink:href="#font_1_26" transform="matrix(6.9738,0,0,-6.9738,145.82642,76.368)"/>
<path transform="matrix(1,0,0,-1,81.973,14.438004)" stroke-width=".99628" stroke-linecap="butt" stroke-miterlimit="10" stroke-linejoin="miter" fill="none" stroke="#003e74" d="M37.95642-36.23169 52.99763-50.5876"/>
<path transform="matrix(.72337,.69038,.69038,-.72337,132.94129,63.088804)" d="M5.95149 0 1.60866 1.6449 3.05444 0 1.60866-1.6449Z" fill="#003e74"/>
<path transform="matrix(.72337,.69038,.69038,-.72337,132.94129,63.088804)" stroke-width=".99628" stroke-linecap="butt" stroke-miterlimit="10" stroke-linejoin="miter" fill="none" stroke="#003e74" d="M5.95149 0 1.60866 1.6449 3.05444 0 1.60866-1.6449Z"/>
<use data-text="n" xlink:href="#font_3_2" transform="matrix(6.9738,0,0,-6.9738,132.488,60.924)" fill="#555555"/>
<use data-text="o" xlink:href="#font_3_3" transform="matrix(6.9738,0,0,-6.9738,137.10466,60.924)" fill="#555555"/>
<use data-text="n" xlink:href="#font_3_2" transform="matrix(6.9738,0,0,-6.9738,100.951999,30.821)" fill="#555555"/>
<use data-text="o" xlink:href="#font_3_3" transform="matrix(6.9738,0,0,-6.9738,105.56865,30.821)" fill="#555555"/>
</svg>
