<svg xmlns="http://www.w3.org/2000/svg" xmlns:xlink="http://www.w3.org/1999/xlink" xmlns:inkscape="http://www.inkscape.org/namespaces/inkscape" version="1.1" width="191.195" height="142.857" viewBox="0 0 191.195 142.857">
<defs>
<path id="font_1_1" d="M.848999 0V.04899597H.7519989L.48999024 .67318728C.47898866 .7001953 .46398927 .7001953 .44599916 .7001953 .42799378 .7001953 .41299439 .7001953 .4019928 .67318728L.14898682 .072006229C.14199829 .055923463 .14199829 .05491638 .116989139 .05192566 .099990848 .049987794 .08099365 .04899597 .06399536 .04899597H.042999269V0C.09899902 .0019226074 .11199951 .0029296876 .16499329 .0029296876 .20399475 .0029907227 .23599243 .0029907227 .2979889 0V.04899597C.2709961 .04899597 .23699951 .04899597 .20899964 .060012819L.2639923 .1921997H.54100039L.6009979 .04899597H.5069885V0C.5419922 .0029296876 .6429901 .0029296876 .6839905 .0029296876 .7259979 .0029907227 .8109894 .0029907227 .848999 0M.519989 .24121094H.2849884L.40299989 .5212097 .519989 .24121094Z"/>
<path id="font_1_4" d="M.49198915 .11613464C.49198915 .13212586 .47698976 .13212586 .46598817 .13212586 .44599916 .13212586 .44599916 .13113404 .43798829 .11312866 .41799928 .06512451 .37298585 .037139894 .31399537 .037139894 .17199707 .037139894 .17199707 .18112183 .17199707 .22612 .17199707 .28611756 .17298889 .41011048 .3039856 .41011048 .31098939 .41011048 .36499024 .40911866 .36499024 .40411378L.3619995 .39912416C.35299684 .38812257 .34899903 .3721161 .34899903 .35812379 .34899903 .3171234 .37998963 .29312135 .4139862 .29312135 .44499208 .29312135 .47898866 .31411744 .47898866 .3591156 .47898866 .453125 .33898927 .453125 .2999878 .453125 .10798645 .453125 .038986207 .33111573 .038986207 .22212219 .038986207 .09613037 .1289978-.005859375 .29499818-.005859375 .33198548-.005859375 .3809967 .0001373291 .4229889 .026138306 .47999574 .06098938 .49198915 .11299133 .49198915 .115997318V.11613464Z"/>
<path id="font_1_20" d="M.6299896 0V.04899597C.56999209 .04899597 .56199648 .04899597 .56199648 .088012699V.4501953L.3769989 .4423828V.39337159C.43699647 .39337159 .44499208 .39337159 .44499208 .35437013V.16433716C.44499208 .08433533 .3929901 .03413391 .31599427 .03413391 .23899842 .03413391 .23498535 .056259157 .23498535 .10932922V.4501953L.049987794 .4423828V.39337159C.10998535 .39337159 .117996219 .39337159 .117996219 .35437013V.12333679C.117996219 .014129639 .20399475-.005859375 .30099488-.005859375 .33198548-.005859375 .3999939-.005859375 .45098878 .06933594V-.005859375L.6299896 0Z"/>
<path id="font_1_16" d="M.45498658 .36618043C.45498658 .41719056 .40299989 .4501953 .34399415 .4501953 .27398683 .4501953 .23098755 .39918519 .20899964 .34118653H.20799256V.4501953L.040985109 .4423828V.39337159C.100997928 .39337159 .10899353 .39337159 .10899353 .3543396V.04899597H.040985109V0L.16899109 .0029907227C.19400025 .0029907227 .2519989 .0029907227 .30499269 0V.04899597H.21998596V.21818543C.21998596 .29125978 .24699402 .40737916 .34399415 .41036988 .33299256 .39898683 .32798768 .38198854 .32798768 .3659973 .32798768 .32199098 .36299134 .3019867 .3909912 .3019867 .4229889 .3019867 .45498658 .32398988 .45498658 .3659973V.36618043Z"/>
<path id="font_1_2" d="M.56900027 .025131226C.56900027 .0491333 .5529938 .0491333 .54299929 .0491333 .47898866 .050125123 .47898866 .060134889 .47898866 .08413696V.29812623C.47898866 .38612367 .40699769 .453125 .25299073 .453125 .19599915 .453125 .067993167 .45111085 .067993167 .3591156 .067993167 .31411744 .101989749 .29312135 .1329956 .29312135 .16699219 .29312135 .19799805 .3171234 .19799805 .35812379 .19799805 .38711549 .18099976 .40411378 .17799378 .40711976 .18798828 .40911866 .21199036 .41311646 .24899292 .41311646 .32099916 .41311646 .3619995 .37712098 .3619995 .29812623V.26612855C.19599915 .26612855 .027999878 .22312927 .027999878 .11213684 .027999878 .013137817 .15299988-.005859375 .22499085-.005859375 .30099488-.005859375 .35299684 .027130127 .37998963 .0741272 .37998963 .04798889 .37998963 0 .4869995 0H.5359955C.5549927 0 .56900027 0 .56900027 .024993897V.025131226M.3619995 .13899231C.3619995 .033996583 .24598694 .033996583 .24198914 .033996583 .19099427 .033996583 .14898682 .066986087 .14898682 .11199951 .14898682 .14498902 .16699219 .22299195 .3619995 .23199463V.13899231Z"/>
<path id="font_1_19" d="M.3929901 .123184207V.1762085H.34199525V.12617493C.34199525 .055145265 .30599977 .037139894 .2809906 .037139894 .22299195 .037139894 .22299195 .09716797 .22299195 .1211853V.3953247H.37399293V.44433595H.22299195V.6357422H.17199707C.17098999 .5415344 .12399292 .43832398 .021987915 .43533326V.3953247H.10598755V.123184207C.10598755 .009140015 .20498657-.005859375 .2669983-.005859375 .34498597-.005859375 .3929901 .05014038 .3929901 .123184207Z"/>
<path id="font_1_5" d="M.5089874 .11605835C.5089874 .13604737 .4889984 .13604737 .48298646 .13604737 .46499635 .13604737 .46299745 .13005066 .45700074 .11605835 .43399049 .06410217 .37298585 .037139894 .30999757 .037139894 .16799927 .037139894 .1659851 .16601563 .1659851 .21496582H.47599793C.49699403 .21496582 .5089874 .21496582 .5089874 .2429657 .5089874 .26498414 .5069885 .35305787 .44198609 .4071045 .39698792 .4441223 .33699037 .453125 .28799439 .453125 .116989139 .453125 .032989503 .345047 .032989503 .22497559 .032989503 .09408569 .13198853-.005859375 .3019867-.005859375 .46699525-.005859375 .5089874 .1000824 .5089874 .11605835M.41099549 .25097657H.1659851C.16799927 .29701234 .17298889 .41311646 .28799439 .41311646 .40499879 .41311646 .40899659 .29100038 .41099549 .25097657Z"/>
<path id="font_1_18" d="M.7789917 .4308777 .7569885 .6738281H.06498718L.042999269 .4308777H.09399414C.10398865 .5418396 .11299133 .6248169 .2599945 .6248169H.33898927V.04899597H.18598938V0C.22999573 .0029907227 .3600006 .0029907227 .4119873 .0029907227 .46398927 .0029907227 .59298709 .0029907227 .6369934 0V.04899597H.48399354V.6248169H.5629883C.70999148 .6248169 .71798709 .5398407 .7279968 .4308777H.7789917Z"/>
<path id="font_1_13" d="M.6299896-.0002746582V.048721315H.56199648V.30471803C.56199648 .4237213 .48999024 .4497223 .40299989 .4497223 .27999879 .4497223 .23098755 .35972596 .22399903 .34472657H.22299195V.4497223L.049987794 .44172669V.39271546C.10998535 .39271546 .117996219 .39271546 .117996219 .353714V.048721315H.049987794V-.0002746582L.17599488 .0027160645 .30299378-.0002746582V.048721315H.23498535V.25372315C.23498535 .36572267 .32699586 .40971376 .3869934 .40971376 .4249878 .40971376 .44499208 .38871766 .44499208 .3137207V.048721315H.3769989V-.0002746582L.5029907 .0027160645 .6299896-.0002746582Z"/>
<path id="font_1_17" d="M.4269867 .14027405C.4269867 .19128418 .397995 .22328186 .37998963 .23828125 .33499146 .27627564 .30299378 .28128053 .22399903 .294281 .17599488 .3022766 .11299133 .31228639 .11299133 .35728456 .11299133 .41711427 .20599365 .41711427 .22799683 .41711427 .33999635 .41711427 .34399415 .35827638 .34599305 .33128358 .34700013 .3173828 .36099244 .3173828 .37098695 .3173828 .3959961 .3173828 .39698792 .32237245 .39698792 .3463745V.42411805C.39698792 .4421234 .39698792 .453125 .3769989 .453125 .36698915 .453125 .35099793 .44511415 .33299256 .43511964 .30099488 .44911195 .2619934 .453125 .22898865 .453125 .19799805 .4532776 .038986207 .4532776 .038986207 .32128907 .038986207 .2162323 .16999817 .19421387 .20498657 .18821717 .2869873 .1742096 .35299684 .16320801 .35299684 .106170658 .35299684 .03413391 .25898744 .03413391 .23699951 .03413391 .18598938 .03413391 .12098694 .0471344 .09199524 .13919068 .08699036 .15620423 .085998538 .15919495 .06498718 .15919495 .038986207 .15919495 .038986207 .15319824 .038986207 .12918091V.023132325C.038986207 .005126953 .038986207-.005859375 .05899048-.005859375 .06599426-.005859375 .067993167-.005859375 .08999634 .008132935L.116989139 .025131226C.1639862-.005859375 .21699524-.005859375 .23699951-.005859375 .2669983-.005859375 .4269867-.005859375 .4269867 .1401825V.14027405Z"/>
<path id="font_1_6" d="M.45098878 .6111908C.45098878 .65615847 .4119873 .70014956 .33399964 .70014956 .22898865 .70014956 .12098694 .65515139 .12098694 .5432434V.44433595H.04399109V.3953247H.12098694V.04899597H.052993776V0L.18099976 .0029907227C.20599365 .0029907227 .2639923 .0029907227 .31698609 0V.04899597H.23199463V.3953247H.35099793V.44433595H.22599793V.5432434C.22599793 .65216067 .3039856 .66015627 .32899476 .66015627 .33198548 .66015627 .34199525 .65815737 .34199525 .65815737 .34199525 .65815737 .34199525 .65615847 .33999635 .65415957 .32899476 .6411438 .32398988 .6271515 .32398988 .611145 .32398988 .56915286 .35798646 .54714968 .3869934 .54714968 .41999818 .54714968 .45098878 .57115176 .45098878 .611145V.6111908Z"/>
<path id="font_1_3" d="M.61698916 .22207642C.61698916 .35716249 .519989 .4501953 .37199403 .4501953 .2919922 .4501953 .23899842 .41618348 .21998596 .4021759V.69433596L.040985109 .6863251V.6373291C.100997928 .6373291 .10899353 .6373291 .10899353 .5982971V0H.1599884L.20698548 .056991579C.23899842 .025131226 .28799439-.005859375 .35899354-.005859375 .5149994-.005859375 .61698916 .088134769 .61698916 .22216797V.22207642M.48399354 .22416687C.48399354 .18215943 .48399354 .13014221 .46299745 .09414673 .42999269 .038131715 .36898805 .03413391 .34899903 .03413391 .2869873 .03413391 .24699402 .072143558 .22599793 .104141239V.34617616C.25099183 .3781891 .29899598 .41018678 .3600006 .41018678 .48399354 .41018678 .48399354 .2901764 .48399354 .22416687Z"/>
<path id="font_1_11" d="M.29899598 0V.04899597H.23098755V.69433596L.051986696 .6855469V.63653567C.11199951 .63653567 .11999512 .63653567 .11999512 .5975647V.04899597H.051986696V0L.1749878 .0029907227 .29899598 0Z"/>
<path id="font_1_9" d="M.4079895 0V.04899597H.29499818V.63653567H.4079895V.6855469C.37298585 .6825409 .2649994 .6825409 .22299195 .6825409 .18099976 .6825409 .07199097 .6825409 .036987306 .6855469V.63653567H.1499939V.04899597H.036987306V0C.07199097 .0029907227 .17999268 .0029907227 .22200012 .0029907227 .2639923 .0029907227 .37298585 .0029907227 .4079895 0Z"/>
<path id="font_1_15" d="M.61698916 .22218323C.61698916 .354187 .526001 .4501953 .375 .4501953 .2939911 .45033265 .23899842 .41633607 .21998596 .40234376V.4501953L.040985109 .4423828V.39337159C.06098938 .39337159 .07699585 .39337159 .08999634 .39038087 .10899353 .38737489 .10899353 .3763733 .10899353 .3553772V-.14453125H.040985109V-.19354248L.16699219-.1905365 .2939911-.19354248V-.14453125H.22599793V.03942871C.2849884-.005859375 .33999635-.005859375 .35899354-.005859375 .5159912-.005859375 .61698916 .089141849 .61698916 .22216797V.22218323M.48399354 .22315979C.48399354 .08413696 .41299439 .03413391 .34700013 .03413391 .29599 .03413391 .25299073 .06314087 .22599793 .104141239V.34518434C.24398804 .3671875 .29100038 .4071808 .35899354 .4071808 .42900086 .4071808 .48399354 .34518434 .48399354 .22315979Z"/>
<path id="font_1_10" d="M.6609955 .27581788H.6100006C.60198977 .2068634 .58499148 .04899597 .4019928 .04899597H.29499818V.63653567H.42999269V.6855469C.3889923 .6825409 .27598573 .6825409 .22898865 .6825409 .18699646 .6825409 .07699585 .6825409 .041992189 .6855469V.63653567H.1499939V.04899597H.041992189V0H.6299896L.6609955 .27581788Z"/>
<path id="font_1_14" d="M.55799868 .21812439C.55799868 .3491211 .46598817 .453125 .29599 .453125 .11999512 .453125 .032989503 .3441162 .032989503 .21812439 .032989503 .09413147 .12298584-.005859375 .29499818-.005859375 .47399903-.005859375 .55799868 .09913635 .55799868 .21812439M.4249878 .22912598C.4249878 .14312744 .4249878 .037139894 .29599 .037139894 .1659851 .037139894 .1659851 .14213562 .1659851 .22912598 .1659851 .3131256 .1659851 .41311646 .29499818 .41311646 .4249878 .41311646 .4249878 .3131256 .4249878 .22912598Z"/>
<path id="font_1_7" d="M.57499697 .39517213C.57499697 .42118836 .5549927 .45619203 .5089874 .45619203 .45999146 .45619203 .41799928 .43218995 .39898683 .41818238 .35699464 .44319154 .31098939 .4501953 .2630005 .4501953 .10998535 .4501953 .057998659 .36715699 .057998659 .30212403 .057998659 .24708557 .09199524 .21107483 .10998535 .19606018 .08898926 .17304993 .07699585 .13902283 .07699585 .10900879 .07699585 .06599426 .09799194 .031967164 .11898804 .012954712 .042999269-.008056641 .032989503-.051071168 .032989503-.0730896 .032989503-.13311768 .101989749-.20114136 .29499818-.20114136 .46998597-.2010498 .55799868-.14604187 .55799868-.0700531 .55799868-.03504944 .54499819 .026947022 .47599793 .05895996 .41799928 .08496094 .36499024 .08496094 .2659912 .08496094H.21598816C.18399048 .08496094 .16999817 .08496094 .15299988 .09802246 .13798523 .111083988 .12998963 .12817383 .12998963 .14828491 .12998963 .1683197 .13798523 .17930603 .13798523 .17930603 .1749878 .16030884 .21899414 .15332031 .2630005 .15332031 .41600038 .15332031 .46798707 .23631287 .46798707 .3013153 .46798707 .34231568 .44898988 .37532044 .42799378 .39631654 .45498658 .41018678 .47499085 .41218568 .48799134 .41418458 .4869995 .41018678 .4850006 .40419007 .4850006 .39419557 .4850006 .36721803 .5059967 .3492279 .5299988 .3492279 .5519867 .3492279 .57499697 .36521913 .57499697 .39520265V.39517213M.35299684 .3022461C.35299684 .25727845 .35299684 .1933136 .2630005 .1933136 .17298889 .1933136 .17298889 .25727845 .17298889 .30125428 .17298889 .34622193 .17298889 .41018678 .2630005 .41018678 .35299684 .41018678 .35299684 .34622193 .35299684 .3022461M.46899415-.07408142C.46899415-.10610962 .43199159-.16113281 .29599-.16113281 .1639862-.16113281 .12199402-.1111145 .12199402-.07208252 .12199402-.014053345 .18598938-.014053345 .20098877-.014053345H.32199098C.35299684-.014007568 .46899415-.014007568 .46899415-.07400513V-.07408142Z"/>
<path id="font_1_8" d="M.32699586 .171875V.27186585H.0129852299V.171875H.32699586Z"/>
<path id="font_1_12" d="M.95899966-.0002746582V.048721315H.8909912V.30471803C.8909912 .42271424 .81999209 .4497223 .7319946 .4497223 .6279907 .4497223 .57699587 .38671876 .55799868 .3557129 .5359955 .4457245 .44799806 .4497223 .4039917 .4497223 .27999879 .4497223 .23098755 .35972596 .22399903 .34472657H.22299195V.4497223L.049987794 .44172669V.39271546C.10998535 .39271546 .117996219 .39271546 .117996219 .353714V.048721315H.049987794V-.0002746582L.17599488 .0027160645 .30299378-.0002746582V.048721315H.23498535V.25372315C.23498535 .36471559 .32699586 .40971376 .3869934 .40971376 .4249878 .40971376 .44599916 .38972474 .44599916 .3137207V.048721315H.37799073V-.0002746582L.5039978 .0027160645 .6309967-.0002746582V.048721315H.5629883V.25372315C.5629883 .36471559 .6549988 .40971376 .71499636 .40971376 .7529907 .40971376 .7739868 .38972474 .7739868 .3137207V.048721315H.70599368V-.0002746582L.83200076 .0027160645 .95899966-.0002746582Z"/>
<path id="font_2_7" d="M.7659912 .44577027 .7449951 .67578127H.068984989L.04798889 .44577027H.08198547C.09599304 .6187744 .125 .6397705 .2789917 .6397705 .29899598 .6397705 .32798768 .6397705 .33799745 .6387787 .3600006 .6347809 .3600006 .6237793 .3600006 .6007843V.081970218C.3600006 .048980714 .3600006 .035995485 .2559967 .035995485H.21398926V0C.2630005 .0039978029 .35598756 .0039978029 .4079895 .0039978029 .45999146 .0039978029 .5519867 .0039978029 .6009979 0V.035995485H.5589905C.45498658 .035995485 .45498658 .048980714 .45498658 .081970218V.6007843C.45498658 .6237793 .45498658 .6347809 .47698976 .6387787 .4869995 .6397705 .5159912 .6397705 .5359955 .6397705 .59199526 .6397705 .6349945 .6397705 .66999819 .61976626 .71499636 .59277346 .7220001 .5287781 .72299197 .5237732L.7319946 .44577027H.7659912Z"/>
<path id="font_2_4" d="M.58999636 0V.035995485C.5249939 .035995485 .5149994 .035995485 .5149994 .0790863V.3035736C.5149994 .39045716 .47200013 .44140626 .36499024 .44140626 .27598573 .44140626 .22698975 .3884735 .20498657 .35058595H.20399475V.69433596L.053985597 .6826172V.64660647C.12098694 .64660647 .1289978 .6396179 .1289978 .59065249V.07896423C.1289978 .035995485 .11898804 .035995485 .053985597 .035995485V0C.053985597 0 .12599182 .0039978029 .16799927 .0039978029 .20498657 .0039978029 .27398683 .0009918213 .2829895 0V.035995485C.21798706 .035995485 .20799256 .035995485 .20799256 .07904053V.25923158C.20799256 .36434938 .29100038 .4133911 .35699464 .4133911 .4269867 .4133911 .43598939 .3583374 .43598939 .3072815V.07904053C.43598939 .035995485 .42599488 .035995485 .36099244 .035995485V0C.36099244 0 .43299867 .0039978029 .47499085 .0039978029 .5119934 .0039978029 .58099368 .0009918213 .58999636 0Z"/>
<path id="font_2_2" d="M.46798707 .12036133C.46798707 .12435913 .46598817 .13438416 .45098878 .13438416 .43798829 .13438416 .43598939 .12837219 .43299867 .11836243 .4019928 .037246705 .32598878 .022232056 .2899933 .022232056 .24299622 .022232056 .19799805 .043258668 .16799927 .08131409 .1309967 .12837219 .12998963 .18945313 .12998963 .22851563H.43998719C.46099855 .22851563 .46798707 .22851563 .46798707 .25050355 .46798707 .33839417 .4189911 .44628907 .269989 .44628907 .13899231 .44628907 .038986207 .34239198 .038986207 .21949768 .038986207 .092315677 .1499939-.009765625 .2829895-.009765625 .41799928-.009765625 .46798707 .09832764 .46798707 .12036133M.397995 .25450135H.1309967C.14199829 .39530946 .23199463 .41827394 .269989 .41827394 .3929901 .41827394 .39698792 .27947999 .397995 .25450135Z"/>
<path id="font_2_3" d="M.54499819 .40040589C.54499819 .42340089 .526001 .45140077 .48599244 .45140077 .47099305 .45140077 .4169922 .44839479 .36999513 .4053955 .33999635 .42739869 .2979889 .44140626 .2539978 .44140626 .15098572 .44140626 .07598877 .372406 .07598877 .29440309 .07598877 .2554016 .09599304 .21939087 .12399292 .19340515 .115997318 .18440247 .09399414 .1513977 .09399414 .11239624 .09399414 .09939575 .09700012 .05239868 .13598633 .023391724 .09098816 .0082092289 .038986207-.024841309 .038986207-.076934818 .038986207-.15003968 .14898682-.20507813 .28399659-.20507813 .41099549-.20507813 .5289917-.15505982 .5289917-.074920658 .5289917-.0448761 .5169983 .00920105 .46199037 .039260866 .40299989 .0703125 .34399415 .0703125 .24699402 .0703125 .22499085 .0703125 .18899536 .0703125 .18099976 .07130432 .14898682 .078308109 .1309967 .108306888 .1309967 .13729859 .1309967 .16246033 .13798523 .17045594 .14399719 .17845154 .15899658 .16944885 .19499207 .14746094 .25299073 .14746094 .35598756 .14746094 .43099977 .21644593 .43099977 .29444886 .43099977 .33345033 .41299439 .36445619 .3889923 .39045716 .43399049 .42245484 .47299195 .42344667 .48999024 .42344667 .48599244 .41944886 .48098756 .41545106 .48098756 .39945985 .48098756 .37945558 .49598695 .3674469 .5130005 .3674469 .5269928 .3674469 .54499819 .37745667 .54499819 .40045167V.40040589M.35099793 .29444886C.35099793 .27845765 .35099793 .2384491 .33099366 .21244812 .31698609 .19544983 .2899933 .17745972 .2539978 .17745972 .1559906 .17720032 .1559906 .2732849 .1559906 .29429627 .1559906 .310318 .1559906 .3503418 .17599488 .3763733 .18998719 .39338685 .21699524 .4113922 .25299073 .4113922 .35099793 .4113922 .35099793 .31532289 .35099793 .29429627V.29444886M.46798707-.07600403C.46798707-.12904358 .3889923-.17507935 .28399659-.17507935 .1789856-.17507935 .099990848-.12808228 .099990848-.07608032 .099990848-.04107666 .13198853 .0019226074 .19599915 .0029296876H.2539978C.34298707 .0029296876 .46798707 .0029296876 .46798707-.07608032V-.07600403Z"/>
<path id="font_2_6" d="M.5289917 .21325684C.5289917 .3382721 .42199708 .44628907 .28399659 .44628907 .1459961 .44628907 .038986207 .3382721 .038986207 .21325684 .038986207 .0892334 .14898682-.009765625 .28399659-.009765625 .4189911-.009765625 .5289917 .0892334 .5289917 .21325684M.43798829 .22225952C.43798829 .17424011 .43499757 .12124634 .4059906 .08023071 .3789978 .042236329 .33299256 .022232056 .28399659 .022232056 .24699402 .022232056 .19299317 .034225465 .1599884 .083236698 .1329956 .12423706 .12998963 .17625427 .12998963 .22225952 .12998963 .2652588 .1309967 .32426454 .1659851 .36727906 .19099427 .39627076 .23298645 .41827394 .28399659 .41827394 .34298707 .41827394 .3849945 .39027406 .40699769 .3592682 .43499757 .32026673 .43798829 .27026368 .43798829 .22225952Z"/>
<path id="font_2_1" d="M.5439911 .09013367V.14515686H.5099945V.09114075C.5099945 .08113098 .5099945 .033111574 .47299195 .033111574 .43598939 .033111574 .43598939 .0801239 .43598939 .09313965V.268219C.43598939 .3212433 .43598939 .35925294 .3899994 .39627076 .34899903 .4302826 .30099488 .44628907 .24198914 .44628907 .14698792 .44628907 .07998657 .41027833 .07998657 .34925843 .07998657 .31723023 .101989749 .30023194 .12799073 .30023194 .15499878 .30023194 .1749878 .3202362 .1749878 .34724427 .1749878 .3642578 .16699219 .38526917 .13999939 .39326478 .17599488 .41827394 .23399353 .41827394 .23999024 .41827394 .29599 .41827394 .35699464 .38127137 .35699464 .29722596V.2662201C.3019867 .26420594 .23599243 .2612152 .16299439 .23420716 .07299805 .20118714 .04499817 .14616394 .04499817 .101135257 .04499817 .0152282719 .14898682-.009765625 .21998596-.009765625 .2999878-.009765625 .34700013 .035232545 .36799623 .07423401 .37199403 .033111574 .39898683-.0048828127 .44499208-.0048828127 .44499208-.0048828127 .5439911-.0048828127 .5439911 .09010315V.09013367M.35699464 .14111328C.35699464 .04522705 .272995 .018234253 .22799683 .018234253 .1769867 .018234253 .1289978 .052230836 .1289978 .10122681 .1289978 .15621948 .1769867 .23323059 .35699464 .24023438V.14111328Z"/>
<path id="font_2_5" d="M.2809906 0V.035995485C.21598816 .035995485 .20599365 .035995485 .20599365 .07901001V.69433596L.055999757 .6826172V.64660647C.12298584 .64660647 .1309967 .6396179 .1309967 .59065249V.07896423C.1309967 .035995485 .12098694 .035995485 .055999757 .035995485V0C.055999757 0 .12799073 .0039978029 .16799927 .0039978029 .20599365 .0039978029 .24299622 .0029907227 .2809906 0Z"/>
</defs>
<path transform="matrix(1,0,0,-1,94.542,70.993)" d="M28.61377 62.62492H-28.61377C-30.81471 62.62492-32.59888 60.84076-32.59888 58.63982V48.51068C-32.59888 46.30974-30.81471 44.52557-28.61377 44.52557H28.61377C30.81471 44.52557 32.59888 46.30974 32.59888 48.51068V58.63982C32.59888 60.84076 30.81471 62.62492 28.61377 62.62492ZM-32.59888 44.52557" fill="#ebf0f4"/>
<path transform="matrix(1,0,0,-1,94.542,70.993)" stroke-width=".79701" stroke-linecap="butt" stroke-miterlimit="10" stroke-linejoin="miter" fill="none" stroke="#003e74" d="M28.61377 62.62492H-28.61377C-30.81471 62.62492-32.59888 60.84076-32.59888 58.63982V48.51068C-32.59888 46.30974-30.81471 44.52557-28.61377 44.52557H28.61377C30.81471 44.52557 32.59888 46.30974 32.59888 48.51068V58.63982C32.59888 60.84076 30.81471 62.62492 28.61377 62.62492ZM-32.59888 44.52557"/>
<use data-text="A" xlink:href="#font_1_1" transform="matrix(8.9664,0,0,-8.9664,73.759,20.489998)"/>
<use data-text="c" xlink:href="#font_1_4" transform="matrix(8.9664,0,0,-8.9664,81.47011,20.489998)"/>
<use data-text="c" xlink:href="#font_1_4" transform="matrix(8.9664,0,0,-8.9664,86.18643,20.489998)"/>
<use data-text="u" xlink:href="#font_1_20" transform="matrix(8.9664,0,0,-8.9664,90.902759,20.489998)"/>
<use data-text="r" xlink:href="#font_1_16" transform="matrix(8.9664,0,0,-8.9664,96.79368,20.489998)"/>
<use data-text="a" xlink:href="#font_1_2" transform="matrix(8.9664,0,0,-8.9664,101.16928,20.489998)"/>
<use data-text="t" xlink:href="#font_1_19" transform="matrix(8.9664,0,0,-8.9664,106.32496,20.489998)"/>
<use data-text="e" xlink:href="#font_1_5" transform="matrix(8.9664,0,0,-8.9664,110.4495,20.489998)"/>
<path transform="matrix(1,0,0,-1,94.542,70.993)" d="M84.3006 9.04967H22.84988C20.64894 9.04967 18.86478 7.2655 18.86478 5.06456V-5.06456C18.86478-7.2655 20.64894-9.04967 22.84988-9.04967H84.3006C86.50154-9.04967 88.2857-7.2655 88.2857-5.06456V5.06456C88.2857 7.2655 86.50154 9.04967 84.3006 9.04967ZM18.86478-9.04967" fill="#ebf0f4"/>
<path transform="matrix(1,0,0,-1,94.542,70.993)" stroke-width=".79701" stroke-linecap="butt" stroke-miterlimit="10" stroke-linejoin="miter" fill="none" stroke="#003e74" d="M84.3006 9.04967H22.84988C20.64894 9.04967 18.86478 7.2655 18.86478 5.06456V-5.06456C18.86478-7.2655 20.64894-9.04967 22.84988-9.04967H84.3006C86.50154-9.04967 88.2857-7.2655 88.2857-5.06456V5.06456C88.2857 7.2655 86.50154 9.04967 84.3006 9.04967ZM18.86478-9.04967"/>
<use data-text="T" xlink:href="#font_1_18" transform="matrix(8.9664,0,0,-8.9664,119.384,74.064998)"/>
<use data-text="r" xlink:href="#font_1_16" transform="matrix(8.9664,0,0,-8.9664,125.87568,74.064998)"/>
<use data-text="a" xlink:href="#font_1_2" transform="matrix(8.9664,0,0,-8.9664,130.25128,74.064998)"/>
<use data-text="n" xlink:href="#font_1_13" transform="matrix(8.9664,0,0,-8.9664,135.40697,74.064998)"/>
<use data-text="s" xlink:href="#font_1_17" transform="matrix(8.9664,0,0,-8.9664,141.2979,74.064998)"/>
<use data-text="f" xlink:href="#font_1_6" transform="matrix(8.9664,0,0,-8.9664,145.4852,74.064998)"/>
<use data-text="e" xlink:href="#font_1_5" transform="matrix(8.9664,0,0,-8.9664,148.73104,74.064998)"/>
<use data-text="r" xlink:href="#font_1_16" transform="matrix(8.9664,0,0,-8.9664,153.5998,74.064998)"/>
<use data-text="a" xlink:href="#font_1_2" transform="matrix(8.9664,0,0,-8.9664,157.9754,74.064998)"/>
<use data-text="b" xlink:href="#font_1_3" transform="matrix(8.9664,0,0,-8.9664,163.13109,74.064998)"/>
<use data-text="l" xlink:href="#font_1_11" transform="matrix(8.9664,0,0,-8.9664,169.02202,74.064998)"/>
<use data-text="e" xlink:href="#font_1_5" transform="matrix(8.9664,0,0,-8.9664,171.97197,74.064998)"/>
<path transform="matrix(1,0,0,-1,94.542,70.993)" d="M32.54631-43.65382H-32.54631C-34.74724-43.65382-36.53142-45.43799-36.53142-47.63893V-59.51155C-36.53142-61.7125-34.74724-63.49666-32.54631-63.49666H32.54631C34.74724-63.49666 36.53142-61.7125 36.53142-59.51155V-47.63893C36.53142-45.43799 34.74724-43.65382 32.54631-43.65382ZM-36.53142-63.49666" fill="#ebf0f4"/>
<path transform="matrix(1,0,0,-1,94.542,70.993)" stroke-width=".79701" stroke-linecap="butt" stroke-miterlimit="10" stroke-linejoin="miter" fill="none" stroke="#003e74" d="M32.54631-43.65382H-32.54631C-34.74724-43.65382-36.53142-45.43799-36.53142-47.63893V-59.51155C-36.53142-61.7125-34.74724-63.49666-32.54631-63.49666H32.54631C34.74724-63.49666 36.53142-61.7125 36.53142-59.51155V-47.63893C36.53142-45.43799 34.74724-43.65382 32.54631-43.65382ZM-36.53142-63.49666"/>
<use data-text="I" xlink:href="#font_1_9" transform="matrix(8.9664,0,0,-8.9664,63.988,126.767)"/>
<use data-text="n" xlink:href="#font_1_13" transform="matrix(8.9664,0,0,-8.9664,67.987018,126.767)"/>
<use data-text="t" xlink:href="#font_1_19" transform="matrix(8.9664,0,0,-8.9664,73.58205,126.767)"/>
<use data-text="e" xlink:href="#font_1_5" transform="matrix(8.9664,0,0,-8.9664,77.70659,126.767)"/>
<use data-text="r" xlink:href="#font_1_16" transform="matrix(8.9664,0,0,-8.9664,82.57535,126.767)"/>
<use data-text="p" xlink:href="#font_1_15" transform="matrix(8.9664,0,0,-8.9664,86.95095,126.767)"/>
<use data-text="r" xlink:href="#font_1_16" transform="matrix(8.9664,0,0,-8.9664,92.84187,126.767)"/>
<use data-text="e" xlink:href="#font_1_5" transform="matrix(8.9664,0,0,-8.9664,97.217479,126.767)"/>
<use data-text="t" xlink:href="#font_1_19" transform="matrix(8.9664,0,0,-8.9664,102.086238,126.767)"/>
<use data-text="a" xlink:href="#font_1_2" transform="matrix(8.9664,0,0,-8.9664,106.21078,126.767)"/>
<use data-text="b" xlink:href="#font_1_3" transform="matrix(8.9664,0,0,-8.9664,111.366458,126.767)"/>
<use data-text="l" xlink:href="#font_1_11" transform="matrix(8.9664,0,0,-8.9664,117.25738,126.767)"/>
<use data-text="e" xlink:href="#font_1_5" transform="matrix(8.9664,0,0,-8.9664,120.20732,126.767)"/>
<path transform="matrix(1,0,0,-1,94.542,70.993)" d="M-24.96147 9.92142H-82.18901C-84.38995 9.92142-86.17412 8.13725-86.17412 5.93631V-5.93631C-86.17412-8.13725-84.38995-9.92142-82.18901-9.92142H-24.96147C-22.76053-9.92142-20.97636-8.13725-20.97636-5.93631V5.93631C-20.97636 8.13725-22.76053 9.92142-24.96147 9.92142ZM-86.17412-9.92142" fill="#ebf0f4"/>
<path transform="matrix(1,0,0,-1,94.542,70.993)" stroke-width=".79701" stroke-linecap="butt" stroke-miterlimit="10" stroke-linejoin="miter" fill="none" stroke="#003e74" d="M-24.96147 9.92142H-82.18901C-84.38995 9.92142-86.17412 8.13725-86.17412 5.93631V-5.93631C-86.17412-8.13725-84.38995-9.92142-82.18901-9.92142H-24.96147C-22.76053-9.92142-20.97636-8.13725-20.97636-5.93631V5.93631C-20.97636 8.13725-22.76053 9.92142-24.96147 9.92142ZM-86.17412-9.92142"/>
<use data-text="L" xlink:href="#font_1_10" transform="matrix(8.9664,0,0,-8.9664,16.650002,73.19299)"/>
<use data-text="o" xlink:href="#font_1_14" transform="matrix(8.9664,0,0,-8.9664,23.025113,73.19299)"/>
<use data-text="n" xlink:href="#font_1_13" transform="matrix(8.9664,0,0,-8.9664,28.333222,73.19299)"/>
<use data-text="g" xlink:href="#font_1_7" transform="matrix(8.9664,0,0,-8.9664,34.224145,73.19299)"/>
<use data-text="-" xlink:href="#font_1_8" transform="matrix(8.9664,0,0,-8.9664,39.532258,73.19299)"/>
<use data-text="t" xlink:href="#font_1_19" transform="matrix(8.9664,0,0,-8.9664,43.065019,73.19299)"/>
<use data-text="e" xlink:href="#font_1_5" transform="matrix(8.9664,0,0,-8.9664,47.18956,73.19299)"/>
<use data-text="r" xlink:href="#font_1_16" transform="matrix(8.9664,0,0,-8.9664,52.05832,73.19299)"/>
<use data-text="m" xlink:href="#font_1_12" transform="matrix(8.9664,0,0,-8.9664,56.43392,73.19299)"/>
<path transform="matrix(1,0,0,-1,94.542,70.993)" d="M24.09473 0C24.09473 13.30731 13.30731 24.09473 0 24.09473-13.30731 24.09473-24.09473 13.30731-24.09473 0-24.09473-13.30731-13.30731-24.09473 0-24.09473 13.30731-24.09473 24.09473-13.30731 24.09473 0ZM0 0" fill="#f4eee2"/>
<path transform="matrix(1,0,0,-1,94.542,70.993)" stroke-width=".99628" stroke-linecap="butt" stroke-miterlimit="10" stroke-linejoin="miter" fill="none" stroke="#b48c3c" d="M24.09473 0C24.09473 13.30731 13.30731 24.09473 0 24.09473-13.30731 24.09473-24.09473 13.30731-24.09473 0-24.09473-13.30731-13.30731-24.09473 0-24.09473 13.30731-24.09473 24.09473-13.30731 24.09473 0ZM0 0"/>
<use data-text="T" xlink:href="#font_2_7" transform="matrix(6.9738,0,0,-6.9738,87.727,68.731998)"/>
<use data-text="h" xlink:href="#font_2_4" transform="matrix(6.9738,0,0,-6.9738,93.41762,68.731998)"/>
<use data-text="e" xlink:href="#font_2_2" transform="matrix(6.9738,0,0,-6.9738,97.818088,68.731998)"/>
<use data-text="g" xlink:href="#font_2_3" transform="matrix(6.9738,0,0,-6.9738,87.457,76.701999)"/>
<use data-text="o" xlink:href="#font_2_6" transform="matrix(6.9738,0,0,-6.9738,91.425098,76.701999)"/>
<use data-text="a" xlink:href="#font_2_1" transform="matrix(6.9738,0,0,-6.9738,95.39319,76.701999)"/>
<use data-text="l" xlink:href="#font_2_5" transform="matrix(6.9738,0,0,-6.9738,99.36128,76.701999)"/>
<path transform="matrix(1,0,0,-1,94.542,70.993)" stroke-width=".99628" stroke-linecap="butt" stroke-miterlimit="10" stroke-linejoin="miter" fill="none" stroke="#b48c3c" d="M0 0V28.45688"/>
<path transform="matrix(0,-1,-1,-0,94.542,44.772428)" d="M4.30702 0 1.54472 1.0515 2.47548 0 1.54472-1.0515Z" fill="#b48c3c"/>
<path transform="matrix(0,-1,-1,-0,94.542,44.772428)" stroke-width=".9567" stroke-linecap="butt" stroke-miterlimit="10" stroke-linejoin="miter" fill="none" stroke="#b48c3c" d="M4.30702 0 1.54472 1.0515 2.47548 0 1.54472-1.0515Z"/>
<path transform="matrix(1,0,0,-1,94.542,70.993)" stroke-width=".99628" stroke-linecap="butt" stroke-miterlimit="10" stroke-linejoin="miter" fill="none" stroke="#b48c3c" d="M0 0H28.45688"/>
<path transform="matrix(1,0,0,-1,120.76257,70.993)" d="M4.30702 0 1.54472 1.0515 2.47548 0 1.54472-1.0515Z" fill="#b48c3c"/>
<path transform="matrix(1,0,0,-1,120.76257,70.993)" stroke-width=".9567" stroke-linecap="butt" stroke-miterlimit="10" stroke-linejoin="miter" fill="none" stroke="#b48c3c" d="M4.30702 0 1.54472 1.0515 2.47548 0 1.54472-1.0515Z"/>
<path transform="matrix(1,0,0,-1,94.542,70.993)" stroke-width=".99628" stroke-linecap="butt" stroke-miterlimit="10" stroke-linejoin="miter" fill="none" stroke="#b48c3c" d="M0 0V-28.45688"/>
<path transform="matrix(0,1,1,0,94.542,97.21356)" d="M4.30702 0 1.54472 1.0515 2.47548 0 1.54472-1.0515Z" fill="#b48c3c"/>
<path transform="matrix(0,1,1,0,94.542,97.21356)" stroke-width=".9567" stroke-linecap="butt" stroke-miterlimit="10" stroke-linejoin="miter" fill="none" stroke="#b48c3c" d="M4.30702 0 1.54472 1.0515 2.47548 0 1.54472-1.0515Z"/>
<path transform="matrix(1,0,0,-1,94.542,70.993)" stroke-width=".99628" stroke-linecap="butt" stroke-miterlimit="10" stroke-linejoin="miter" fill="none" stroke="#b48c3c" d="M0 0H-28.45688"/>
<path transform="matrix(-1,-0,0,1,68.32143,70.993)" d="M4.30702 0 1.54472 1.0515 2.47548 0 1.54472-1.0515Z" fill="#b48c3c"/>
<path transform="matrix(-1,-0,0,1,68.32143,70.993)" stroke-width=".9567" stroke-linecap="butt" stroke-miterlimit="10" stroke-linejoin="miter" fill="none" stroke="#b48c3c" d="M4.30702 0 1.54472 1.0515 2.47548 0 1.54472-1.0515Z"/>
</svg>
