<svg xmlns="http://www.w3.org/2000/svg" xmlns:xlink="http://www.w3.org/1999/xlink" xmlns:inkscape="http://www.inkscape.org/namespaces/inkscape" version="1.1" width="339.082" height="135.172" viewBox="0 0 339.082 135.172">
<defs>
<path id="font_1_13" d="M.5089874 0V.04899597H.3639984V.62309268C.3639984 .6451874 .3639984 .65625 .33499146 .65625 .32299806 .65625 .32099916 .65625 .31199647 .6492157 .23498535 .5919647 .12799073 .5919647 .10798645 .5919647H.08799744V.54296877H.10798645C.13198853 .54296877 .18598938 .5459595 .24198914 .56295779V.04899597H.09899902V0C.13699341 .0029907227 .2579956 .0029907227 .30299378 .0029907227 .34999085 .0029907227 .46798707 .0029907227 .5089874 0Z"/>
<path id="font_1_15" d="M.24299622 .07798767C.24299622 .12399292 .20599365 .15699768 .16499329 .15699768 .11898804 .15699768 .085998538 .11999512 .085998538 .07899475 .085998538 .032989503 .12298584 0 .1639862 0 .20999146 0 .24299622 .036987306 .24299622 .07798767Z"/>
<path id="font_1_1" d="M.848999 0V.04899597H.7519989L.48999024 .67318728C.47898866 .7001953 .46398927 .7001953 .44599916 .7001953 .42799378 .7001953 .41299439 .7001953 .4019928 .67318728L.14898682 .072006229C.14199829 .055923463 .14199829 .05491638 .116989139 .05192566 .099990848 .049987794 .08099365 .04899597 .06399536 .04899597H.042999269V0C.09899902 .0019226074 .11199951 .0029296876 .16499329 .0029296876 .20399475 .0029907227 .23599243 .0029907227 .2979889 0V.04899597C.2709961 .04899597 .23699951 .04899597 .20899964 .060012819L.2639923 .1921997H.54100039L.6009979 .04899597H.5069885V0C.5419922 .0029296876 .6429901 .0029296876 .6839905 .0029296876 .7259979 .0029907227 .8109894 .0029907227 .848999 0M.519989 .24121094H.2849884L.40299989 .5212097 .519989 .24121094Z"/>
<path id="font_1_4" d="M.49198915 .11613464C.49198915 .13212586 .47698976 .13212586 .46598817 .13212586 .44599916 .13212586 .44599916 .13113404 .43798829 .11312866 .41799928 .06512451 .37298585 .037139894 .31399537 .037139894 .17199707 .037139894 .17199707 .18112183 .17199707 .22612 .17199707 .28611756 .17298889 .41011048 .3039856 .41011048 .31098939 .41011048 .36499024 .40911866 .36499024 .40411378L.3619995 .39912416C.35299684 .38812257 .34899903 .3721161 .34899903 .35812379 .34899903 .3171234 .37998963 .29312135 .4139862 .29312135 .44499208 .29312135 .47898866 .31411744 .47898866 .3591156 .47898866 .453125 .33898927 .453125 .2999878 .453125 .10798645 .453125 .038986207 .33111573 .038986207 .22212219 .038986207 .09613037 .1289978-.005859375 .29499818-.005859375 .33198548-.005859375 .3809967 .0001373291 .4229889 .026138306 .47999574 .06098938 .49198915 .11299133 .49198915 .115997318V.11613464Z"/>
<path id="font_1_23" d="M.6299896 0V.04899597C.56999209 .04899597 .56199648 .04899597 .56199648 .088012699V.4501953L.3769989 .4423828V.39337159C.43699647 .39337159 .44499208 .39337159 .44499208 .35437013V.16433716C.44499208 .08433533 .3929901 .03413391 .31599427 .03413391 .23899842 .03413391 .23498535 .056259157 .23498535 .10932922V.4501953L.049987794 .4423828V.39337159C.10998535 .39337159 .117996219 .39337159 .117996219 .35437013V.12333679C.117996219 .014129639 .20399475-.005859375 .30099488-.005859375 .33198548-.005859375 .3999939-.005859375 .45098878 .06933594V-.005859375L.6299896 0Z"/>
<path id="font_1_16" d="M.45498658 .36618043C.45498658 .41719056 .40299989 .4501953 .34399415 .4501953 .27398683 .4501953 .23098755 .39918519 .20899964 .34118653H.20799256V.4501953L.040985109 .4423828V.39337159C.100997928 .39337159 .10899353 .39337159 .10899353 .3543396V.04899597H.040985109V0L.16899109 .0029907227C.19400025 .0029907227 .2519989 .0029907227 .30499269 0V.04899597H.21998596V.21818543C.21998596 .29125978 .24699402 .40737916 .34399415 .41036988 .33299256 .39898683 .32798768 .38198854 .32798768 .3659973 .32798768 .32199098 .36299134 .3019867 .3909912 .3019867 .4229889 .3019867 .45498658 .32398988 .45498658 .3659973V.36618043Z"/>
<path id="font_1_2" d="M.56900027 .025131226C.56900027 .0491333 .5529938 .0491333 .54299929 .0491333 .47898866 .050125123 .47898866 .060134889 .47898866 .08413696V.29812623C.47898866 .38612367 .40699769 .453125 .25299073 .453125 .19599915 .453125 .067993167 .45111085 .067993167 .3591156 .067993167 .31411744 .101989749 .29312135 .1329956 .29312135 .16699219 .29312135 .19799805 .3171234 .19799805 .35812379 .19799805 .38711549 .18099976 .40411378 .17799378 .40711976 .18798828 .40911866 .21199036 .41311646 .24899292 .41311646 .32099916 .41311646 .3619995 .37712098 .3619995 .29812623V.26612855C.19599915 .26612855 .027999878 .22312927 .027999878 .11213684 .027999878 .013137817 .15299988-.005859375 .22499085-.005859375 .30099488-.005859375 .35299684 .027130127 .37998963 .0741272 .37998963 .04798889 .37998963 0 .4869995 0H.5359955C.5549927 0 .56900027 0 .56900027 .024993897V.025131226M.3619995 .13899231C.3619995 .033996583 .24598694 .033996583 .24198914 .033996583 .19099427 .033996583 .14898682 .066986087 .14898682 .11199951 .14898682 .14498902 .16699219 .22299195 .3619995 .23199463V.13899231Z"/>
<path id="font_1_24" d="M.59599307 .3953247V.44433595C.56799319 .44132997 .54299929 .44132997 .5149994 .44132997 .4850006 .44132997 .45399476 .44232179 .4249878 .44433595V.3953247C.4249878 .3953247 .46899415 .3953247 .46899415 .38331605 .46899415 .38331605 .46899415 .38131715 .46398927 .37130738L.34498597 .12709046 .21499634 .3953247H.2659912V.44433595L.14299011 .44132997C.10699463 .44132997 .08699036 .44132997 .027999878 .44433595V.3953247H.09098816L.2829895-.000015258789C.24798584-.082092288 .20999146-.16015625 .1329956-.16015625 .1269989-.16015625 .12098694-.16015625 .11399841-.15716553 .1309967-.14814759 .14299011-.13014221 .14299011-.1051178 .14299011-.06707764 .114990238-.045059205 .08299255-.045059205 .050994874-.045059205 .022994996-.06707764 .022994996-.1051178 .022994996-.15916443 .07299805-.2001648 .13198853-.2001648 .20999146-.2001648 .27198792-.14215088 .30299378-.0770874L.5219879 .37330628C.5289917 .38832093 .5329895 .3953247 .59599307 .3953247Z"/>
<path id="font_2_16" d="M.55400088 .21640015C.55400088 .34140016 .45298768 .44140626 .33198548 .44140626 .29299928 .44140626 .23498535 .43139649 .18399048 .37939454V.44140626L.034988405 .43045045V.39746095C.10598755 .39746095 .11099243 .39144898 .11099243 .34947206V-.1159668C.11099243-.16113281 .09899902-.16113281 .034988405-.16113281V-.19413758C.07798767-.19114685 .12199402-.19114685 .14898682-.19114685 .17799378-.19114685 .21998596-.19114685 .2630005-.19413758V-.16113281C.19898987-.16113281 .18699646-.16113281 .18699646-.1159668V.049545289C.23399353-.0017700195 .2849884-.009765625 .31698609-.009765625 .44400025-.009765625 .55400088 .088256839 .55400088 .2163086V.21640015M.46499635 .2163086C.46499635 .101257327 .3929901 .018234253 .31199647 .018234253 .2769928 .018234253 .23098755 .033233644 .19898987 .08325195 .18699646 .1002655 .18699646 .101257327 .18699646 .120269779V.33335877C.20999146 .37338258 .2599945 .4104004 .32299806 .4104004 .3999939 .4104004 .46499635 .32536317 .46499635 .2163086Z"/>
<path id="font_2_12" d="M.2669983 0V.032989503C.20298767 .032989503 .19099427 .032989503 .19099427 .07801819V.69433596L.041992189 .6826172V.6496124C.10998535 .6496124 .117996219 .64260867 .117996219 .5936432V.07795715C.117996219 .032989503 .10598755 .032989503 .041992189 .032989503V0C.08099365 .0029907227 .13699341 .0029907227 .1539917 .0029907227 .17399597 .0029907227 .22799683 .0029907227 .2669983 0Z"/>
<path id="font_2_1" d="M.5139923 .09020996V.14530945H.48298646V.09020996C.48298646 .0491333 .46798707 .033111574 .44699098 .033111574 .4099884 .033111574 .4099884 .079193118 .4099884 .09020996V.29856874C.4099884 .39653016 .31498719 .44628907 .22399903 .44628907 .14099121 .44628907 .066986087 .4143219 .066986087 .34857179 .066986087 .318573 .08799744 .30056764 .11399841 .30056764 .14199829 .30056764 .16099549 .3205719 .16099549 .3475647 .16099549 .37156678 .1459961 .38856507 .12399292 .3935547 .16099549 .41827394 .21499634 .41827394 .22200012 .41827394 .27799989 .41827394 .33399964 .37957765 .33399964 .29756166V.26651C.27598573 .26350404 .20899964 .26049806 .13899231 .23144531 .050994874 .1933899 .033996583 .13528443 .033996583 .10223389 .033996583 .016220093 .1349945-.009765625 .20399475-.009765625 .2769928-.009765625 .32199098 .031219483 .34399415 .07122803 .34899903 .033111574 .375-.0048828127 .4189911-.0048828127 .42900086-.0048828127 .5139923-.00088500979 .5139923 .09010315V.09020996M.33399964 .14111328C.33399964 .04421997 .2519989 .018234253 .21199036 .018234253 .1599884 .018234253 .115997318 .053222658 .115997318 .10122681 .115997318 .16722107 .17799378 .23522949 .33399964 .24023438V.14111328Z"/>
<path id="font_2_14" d="M.56199648 0V.032989503C.49798585 .032989503 .48599244 .032989503 .48599244 .07803345V.3032837C.48599244 .38737489 .44799806 .44140626 .34298707 .44140626 .24398804 .44140626 .19898987 .36935426 .18699646 .34532167H.18598938V.44140626L.040985109 .43045045V.39746095C.10899353 .39746095 .116989139 .3904419 .116989139 .3413849V.078048709C.116989139 .032989503 .10499573 .032989503 .040985109 .032989503V0C.083999637 .0029907227 .12799073 .0029907227 .15499878 .0029907227 .18399048 .0029907227 .22599793 .0029907227 .2689972 0V.032989503C.20498657 .032989503 .19299317 .032989503 .19299317 .078048709V.25927735C.19299317 .36434938 .272995 .4133911 .33399964 .4133911 .394989 .4133911 .4099884 .37036134 .4099884 .3072815V.07803345C.4099884 .032989503 .397995 .032989503 .33399964 .032989503V0C.3769989 .0029907227 .42099 .0029907227 .44799806 .0029907227 .47698976 .0029907227 .5189972 .0029907227 .56199648 0Z"/>
<path id="font_2_24" d="M.2599945 .0001373291V.03314209C.19499207 .03314209 .19099427 .038146974 .19099427 .07714844V.44140626L.04499817 .43045045V.39746095C.10899353 .39746095 .117996219 .39144898 .117996219 .34239198V.07814026C.117996219 .03314209 .10598755 .03314209 .041992189 .03314209V0C.08099365 .0029907227 .13699341 .0029907227 .1519928 .0029907227 .16499329 .0029907227 .22499085 .0029907227 .2599945 0V.0001373291M.20298767 .6021881C.20298767 .6351929 .1769867 .6582031 .147995 .6582031 .11898804 .6582031 .09298706 .6351929 .09298706 .6021881 .09298706 .5731964 .115997318 .54719546 .147995 .54719546 .1789856 .54719546 .20298767 .5731964 .20298767 .6021881Z"/>
<path id="font_2_8" d="M.5149994 .40124513C.5149994 .418396 .5019989 .45239259 .45799256 .45239259 .44099427 .45239259 .3929901 .44839479 .34700013 .40625 .32199098 .4243927 .2829895 .44140626 .23599243 .44140626 .13699341 .44140626 .06399536 .37223817 .06399536 .294281 .06399536 .2472992 .08999634 .21231079 .11099243 .19232178 .08898926 .16732788 .08099365 .13531494 .08099365 .111328128 .08099365 .07032776 .100997928 .0393219 .12298584 .022323609 .070999149 .007904053 .02999878-.031097413 .02999878-.0770874 .02999878-.14909363 .1329956-.20507813 .2649994-.20507813 .3899994-.20507813 .5-.15408325 .5-.0750885 .5-.021102906 .46798707 .020904541 .43499757 .037902833 .37599183 .06889343 .32699586 .06889343 .22898865 .06889343H.17298889C.14199829 .07191467 .116989139 .099105838 .116989139 .13536072 .116989139 .15945435 .12298584 .16845703 .12998963 .17745972 .17199707 .15245056 .21099854 .14746094 .23498535 .14746094 .33399964 .14746094 .40699769 .21644593 .40699769 .29444886 .40699769 .3324585 .3899994 .36445619 .3659973 .39045716 .37998963 .40245057 .41299439 .42344667 .46199037 .42445375 .45799256 .42144776 .45298768 .41645814 .45298768 .40045167 .45298768 .3824463 .46598817 .36946107 .48399354 .36946107 .49798585 .36946107 .5149994 .3784485 .5149994 .40145875V.40124513M.32798768 .29444886C.32798768 .2574463 .32299806 .23146057 .30799867 .2114563 .28599549 .18345642 .2539978 .17645264 .23599243 .17645264 .14299011 .1761322 .14299011 .27218629 .14299011 .29418946 .14299011 .33122254 .147995 .35723878 .16299439 .37724305 .17999268 .40023805 .20799256 .4123993 .23498535 .4123993 .32798768 .4123993 .32798768 .3162079 .32798768 .29418946V.29444886M.44099427-.07601929C.44099427-.13005066 .3639984-.17608643 .2649994-.17608643 .16499329-.17610169 .08898926-.13009644 .08898926-.07609558 .08898926-.055099489 .10499573 .00390625 .18699646 .00390625H.2829895C.30999757 .00390625 .44099427 .00390625 .44099427-.07609558V-.07601929Z"/>
<path id="font_2_10" d="M.2939911 .18304444V.24804688H.011993408V.18304444H.2939911Z"/>
<path id="font_2_18" d="M.3829956 .12924195C.3829956 .1772461 .35398866 .24725342 .23498535 .2692566 .22698975 .2712555 .17098999 .28126527 .16699219 .28126527 .13598633 .28826905 .08898926 .30926515 .08898926 .34927369 .08898926 .37927247 .11099243 .4212799 .20599365 .4212799 .31799317 .4212799 .32299806 .33926393 .32499696 .31126405 .32598878 .30326844 .33299256 .30026246 .33999635 .30026246 .35598756 .30026246 .35598756 .30726625 .35598756 .32626344V.4202881C.35598756 .4362793 .35598756 .44628907 .34298707 .44628907 .33799745 .44628907 .33499146 .44628907 .31900025 .4302826 .31698609 .4292755 .30799867 .4202881 .30499269 .4202881 .30499269 .4202881 .3019867 .4202881 .29599 .4242859 .27999879 .43528749 .25099183 .44628907 .20599365 .44628907 .06599426 .44628907 .034988405 .37026979 .034988405 .32226563 .034988405 .27226258 .07199097 .24325562 .07499695 .24024964 .114990238 .21025086 .13798523 .20625305 .20498657 .19424439 .2519989 .18525696 .32899476 .17124939 .32899476 .10324097 .32899476 .0642395 .30299378 .018234253 .21099854 .018234253 .10998535 .018234253 .08099365 .09623718 .067993167 .14924622 .06399536 .1622467 .06298828 .16725159 .050994874 .16725159 .034988405 .16725159 .034988405 .15924073 .034988405 .14024353V.016220093C.034988405 .00022888184 .034988405-.009765625 .04798889-.009765625 .053985597-.009765625 .054992677-.008773804 .07299805 .010223389 .07798767 .0152282719 .08898926 .02822876 .09399414 .033233644 .13899231-.0077667238 .18598938-.009765625 .21199036-.009765625 .33898927-.009765625 .3829956 .06323242 .3829956 .12924195Z"/>
<path id="font_2_3" d="M.44099427 .12031555C.44099427 .13232422 .42799378 .13232422 .4249878 .13232422 .41799928 .13232422 .41299439 .13131714 .4099884 .12130737 .40299989 .10029602 .375 .021224976 .2749939 .021224976 .21299744 .021224976 .12399292 .0692749 .12399292 .21739197 .12399292 .3614807 .19799805 .4152832 .2709961 .4152832 .27999879 .4152832 .33299256 .4152832 .36799623 .39746095 .33999635 .3884735 .33599855 .36547853 .33599855 .35346986 .33599855 .32647706 .35499574 .30647279 .3829956 .30647279 .40899659 .30625917 .42999269 .32426454 .42999269 .35427857 .42999269 .41627503 .3619995 .44628907 .2679901 .44628907 .1289978 .44628907 .034988405 .3352661 .034988405 .21624756 .034988405 .0892334 .13899231-.009765625 .2649994-.009765625 .4059906-.009765625 .44099427 .10824585 .44099427 .12023926V.12031555Z"/>
<path id="font_2_6" d="M.44099427 .12036133C.44099427 .12435913 .43798829 .13438416 .4249878 .13438416 .4139862 .13438416 .4119873 .12736511 .4099884 .12136841 .37399293 .024230957 .28799439 .021224976 .269989 .021224976 .22499085 .021224976 .1789856 .042251588 .14898682 .08831787 .11898804 .13438416 .11898804 .19847107 .11898804 .22851563H.41299439C.43499757 .22851563 .44099427 .22851563 .44099427 .25151063 .44099427 .34039308 .3919983 .44628907 .25099183 .44628907 .1269989 .44628907 .02999878 .3433838 .02999878 .21949768 .02999878 .09031677 .13798523-.009765625 .2639923-.009765625 .3909912-.009765625 .44099427 .097335819 .44099427 .12036133M.37298585 .25450135H.11999512C.1289978 .39431764 .21398926 .41827394 .25099183 .41827394 .36799623 .41827394 .37199403 .27748109 .37298585 .25450135Z"/>
<path id="font_2_20" d="M.56199648 .00022888184V.033233644C.49398805 .033233644 .48599244 .040237428 .48599244 .08924866V.44140626L.33399964 .43040467V.3973999C.4019928 .3973999 .4099884 .39039613 .4099884 .34136964V.16726685C.4099884 .08125305 .35798646 .018234253 .2829895 .018234253 .19699097 .018234253 .19299317 .06123352 .19299317 .11126709V.44140626L.040985109 .43040467V.3973999C.116989139 .3973999 .116989139 .39439393 .116989139 .30534364V.15527344C.116989139 .08325195 .116989139-.009765625 .2769928-.009765625 .37098695-.009765625 .40699769 .0622406 .4119873 .071243289H.41299439V-.009765625L.56199648 .00022888184Z"/>
<path id="font_2_17" d="M.38398744 .3784027C.38398744 .4133911 .35198976 .44140626 .30799867 .44140626 .24299622 .44140626 .19898987 .39239503 .17799378 .33639527H.1769867V.44140626L.034988405 .43045045V.39746095C.102996829 .39746095 .11099243 .3904419 .11099243 .3413849V.078048709C.11099243 .032989503 .09899902 .032989503 .034988405 .032989503V0C.07398987 .0029907227 .1289978 .0029907227 .15299988 .0029907227 .21199036 .0029907227 .21398926 .0029907227 .2789917 0V.032989503H.25898744C.18598938 .032989503 .18399048 .044006349 .18399048 .08004761V.22824097C.18399048 .30332948 .21499634 .41145326 .31098939 .41345216 .30499269 .40899659 .29499818 .40098573 .29499818 .37799073 .29499818 .34700013 .31900025 .33299256 .33898927 .33299256 .36299134 .33299256 .38398744 .34899903 .38398744 .37799073V.3784027Z"/>
<path id="font_2_23" d="M.5379944 .3976593V.43066407C.5029907 .42765809 .5009918 .42765809 .45899964 .42765809 .45498658 .42765809 .4019928 .42765809 .37298585 .43066407V.3976593C.4019928 .39564515 .41600038 .37954713 .41600038 .3564148 .41600038 .3504181 .4149933 .3434143 .4099884 .3314209L.30299378 .089645389 .18699646 .3514099C.17999268 .36647035 .17999268 .3684845 .17999268 .37249757 .17999268 .39665223 .21099854 .3976593 .23298645 .3976593V.43066407C.18798828 .42765809 .14498902 .42765809 .12298584 .42765809 .101989749 .42765809 .053985597 .42765809 .021987915 .43066407V.3976593C.07398987 .3976593 .08799744 .39564515 .10499573 .35742188L.2630005-.0002746582C.21798706-.106170658 .18798828-.17610169 .117996219-.17610169 .09298706-.17610169 .07699585-.16412354 .07699585-.16412354 .083999637-.16212464 .10699463-.1511383 .10699463-.122161868 .10699463-.094192508 .085998538-.079193118 .06399536-.079193118 .04399109-.079193118 .020996094-.0921936 .020996094-.12315369 .020996094-.16711426 .06399536-.20410156 .117996219-.20410156 .20698548-.20410156 .25498963-.09718323 .25898744-.08718872L.44299317 .32940675C.46798707 .38659669 .5049896 .39665223 .5379944 .3976593Z"/>
<path id="font_2_7" d="M1.0619965 .25195313V.279953H0V.25195313H1.0619965Z"/>
<path id="font_2_15" d="M.5 .21325684C.5 .3382721 .39698792 .44628907 .2649994 .44628907 .1329956 .44628907 .02999878 .3382721 .02999878 .21325684 .02999878 .08824158 .13699341-.009765625 .2649994-.009765625 .3939972-.009765625 .5 .08824158 .5 .21325684M.41099549 .22225952C.41099549 .17625427 .40899659 .12124634 .3809967 .07923889 .35398866 .039230348 .30899049 .021224976 .2649994 .021224976 .21099854 .021224976 .16899109 .047225954 .14698792 .082229617 .12199402 .12324524 .11898804 .17224121 .11898804 .22225952 .11898804 .2602539 .11898804 .32026673 .1499939 .363266 .17599488 .3982849 .21798706 .41827394 .2649994 .41827394 .31698609 .41827394 .3600006 .39328004 .3829956 .35827638 .4099884 .31626893 .41099549 .2622528 .41099549 .22225952Z"/>
<path id="font_2_19" d="M.35299684 .1250763V.1809845H.32199098V.12705994C.32199098 .058166505 .29100038 .021224976 .25299073 .021224976 .18598938 .021224976 .18598938 .10710144 .18598938 .12307739V.3976593H.33499146V.43066407H.18598938V.6142578H.15499878C.1539917 .52345278 .11299133 .4286499 .019989014 .42565919V.3976593H.10998535V.1250763C.10998535 .008224487 .19999695-.009765625 .24598694-.009765625 .31298829-.010009766 .35299684 .049987794 .35299684 .125V.1250763Z"/>
<path id="font_2_25" d="M.22698975-.04560852V.44140626L.069992069 .43040467V.3973999C.14498902 .3973999 .1539917 .39039613 .1539917 .34140016V-.047607423C.1539917-.07510376 .1499939-.17610169 .08099365-.17610169 .06599426-.17610169 .04399109-.17210388 .0309906-.16711426 .036987306-.16511536 .057998659-.15211487 .057998659-.12411499 .057998659-.09710693 .038986207-.07710266 .010986328-.07710266-.014007568-.07710266-.036010744-.09411621-.036010744-.12510681-.036010744-.17610169 .019989014-.20410156 .08198547-.20410156 .1619873-.20401001 .22698975-.14001465 .22698975-.04600525V-.04560852M.22698975 .6021881C.22698975 .6351929 .20098877 .6582031 .17199707 .6582031 .14299011 .6582031 .116989139 .6351929 .116989139 .6021881 .116989139 .5731964 .13999939 .54719546 .17199707 .54719546 .20298767 .54719546 .22698975 .5731964 .22698975 .6021881Z"/>
<path id="font_2_22" d="M.5439911 0V.032989503C.48199464 .032989503 .47200013 .037994386 .44599916 .06895447L.30799867 .23381043C.33599855 .2687683 .36499024 .30274964 .394989 .33570863 .42799378 .37068177 .46299745 .39665223 .526001 .3976593V.43066407C.4869995 .42765809 .4850006 .42765809 .43998719 .42765809 .43499757 .42765809 .37599183 .42765809 .34498597 .43066407V.3976593C.3639984 .3956604 .36799623 .383667 .36799623 .37068177 .36799623 .35769654 .36299134 .34570313 .35099793 .33171083L.28799439 .25778199 .20899964 .35169984C.19699097 .36569215 .19699097 .37467958 .19699097 .37467958 .19699097 .3816681 .20298767 .39665223 .22799683 .3976593V.43066407C.18798828 .42765809 .13198853 .42765809 .12098694 .42765809 .102996829 .42765809 .051986696 .42765809 .021987915 .43066407V.3976593C.08999634 .3976593 .09098816 .39665223 .14299011 .33570863L.24598694 .21083069 .15499878 .10392761C.12998963 .07595825 .09298706 .034988405 .016998291 .032989503V0C.053985597 .0029907227 .06098938 .0029907227 .102996829 .0029907227 .102996829 .0029907227 .1659851 .0029907227 .19799805 0V.032989503C.18499756 .034988405 .17399597 .04197693 .17399597 .05996704 .17399597 .07795715 .18598938 .091934207 .18899536 .09693909L.2669983 .18585205 .34899903 .0879364C.36898805 .064956668 .36898805 .06295776 .36898805 .05596924 .36898805 .047973634 .3619995 .033996583 .33799745 .032989503V0C.3809967 .0029907227 .42599488 .0029907227 .44499208 .0029907227 .46299745 .0029907227 .5139923 .0029907227 .5439911 0Z"/>
<path id="font_2_13" d="M.8569946 0V.032989503C.79299929 .032989503 .7809906 .032989503 .7809906 .07803345V.3032837C.7809906 .3843689 .74598696 .44140626 .6369934 .44140626 .54499819 .44140626 .49899293 .37835694 .48298646 .34933473 .46499635 .42140199 .4079895 .44140626 .34298707 .44140626 .24598694 .44140626 .19999695 .37236024 .18699646 .34532167H.18598938V.44140626L.040985109 .43045045V.39746095C.10899353 .39746095 .116989139 .3904419 .116989139 .3413849V.078048709C.116989139 .032989503 .10499573 .032989503 .040985109 .032989503V0C.083999637 .0029907227 .12799073 .0029907227 .15499878 .0029907227 .18399048 .0029907227 .22599793 .0029907227 .2689972 0V.032989503C.20498657 .032989503 .19299317 .032989503 .19299317 .078048709V.25927735C.19299317 .36434938 .27198792 .4133911 .33499146 .4133911 .3999939 .4133911 .41099549 .36235047 .41099549 .3072815V.07803345C.41099549 .032989503 .39898683 .032989503 .33499146 .032989503V0C.37799073 .0029907227 .42199708 .0029907227 .44898988 .0029907227 .47799684 .0029907227 .519989 .0029907227 .5629883 0V.032989503C.49899293 .032989503 .4869995 .032989503 .4869995 .07803345V.25923158C.4869995 .36434938 .56599429 .4133911 .6289978 .4133911 .69400027 .4133911 .7049866 .36235047 .7049866 .3072815V.07803345C.7049866 .032989503 .69299319 .032989503 .6289978 .032989503V0C.6719971 .0029907227 .71598818 .0029907227 .7429962 .0029907227 .7719879 .0029907227 .81399539 .0029907227 .8569946 0Z"/>
<path id="font_2_21" d="M.7449951 .3976593V.43066407C.71199038 .42765809 .70999148 .42765809 .6669922 .42765809 .6349945 .42765809 .60798647 .42765809 .57598879 .43066407V.3976593C.6199951 .3956604 .6309967 .36968995 .6309967 .3517151 .6309967 .33973695 .6279907 .33374024 .6259918 .3267517L.5309906 .07810974 .42799378 .35072328C.4229889 .3637085 .4229889 .36669923 .4229889 .37069703 .4229889 .39665223 .45498658 .3976593 .47898866 .3976593V.43066407C.43998719 .42765809 .3869934 .42765809 .3769989 .42765809 .35499574 .42765809 .31399537 .42765809 .28399659 .43066407V.3976593C.34498597 .3976593 .34700013 .39266969 .3659973 .33973695L.27398683 .09307861 .1749878 .3517151C.17399597 .3557129 .16999817 .36669923 .16999817 .37069703 .16999817 .3976593 .20799256 .3976593 .22599793 .3976593V.43066407C.18299866 .42765809 .13798523 .42765809 .11898804 .42765809 .100997928 .42765809 .049987794 .42765809 .020996094 .43066407V.3976593C.070999149 .3976593 .08099365 .3936615 .09199524 .3657074L.22599793 .014190674C.23199463-.00079345706 .23498535-.009765625 .25099183-.009765625 .2679901-.009765625 .27198792 .0012054443 .2769928 .014190674L.3829956 .2947998 .4889984 .014190674C.49398805 .0012054443 .49798585-.009765625 .5149994-.009765625 .5309906-.009765625 .5349884 .00021362305 .5389862 .011199951L.6599884 .3297577C.6689911 .35272218 .6859894 .39665223 .7449951 .3976593Z"/>
<path id="font_1_22" d="M.5319977 .22503662H.48098756C.47898866 .21102906 .46998597 .13999939 .45498658 .1329956 .44198609 .12799073 .36799623 .12799073 .35099793 .12799073H.20799256C.26098634 .17102051 .32099916 .21803284 .37098695 .25305177 .45498658 .312088 .5319977 .36611939 .5319977 .46417237 .5319977 .58122256 .4249878 .65625 .27999879 .65625 .1559906 .65625 .05899048 .597229 .05899048 .505188 .05899048 .45318605 .09899902 .42918397 .13398743 .42918397 .1659851 .42918397 .20799256 .4521942 .20799256 .5041809 .20799256 .5261841 .19898987 .56318667 .15499878 .5751953 .18998719 .60324099 .23498535 .60723879 .25498963 .60723879 .33699037 .60723879 .3889923 .54618838 .3889923 .46318055 .3889923 .39115907 .34599305 .32511903 .29299928 .27108766L.069992069 .050994874C.05899048 .039993287 .05899048 .038986207 .05899048 .018997193V0H.5009918L.5319977 .22503662Z"/>
<path id="font_1_17" d="M.58999636 .20326233C.58999636 .31129457 .5089874 .39413453 .4139862 .4141388L.2689972 .44514466C.16799927 .46714784 .16499329 .5341797 .16499329 .54818728 .16499329 .59521487 .19599915 .65322878 .29699708 .65322878 .45498658 .65322878 .49398805 .5451813 .5049896 .4791565 .5079956 .46315003 .5079956 .45814515 .5309906 .45814515 .55599978 .45814515 .5569916 .46315003 .5569916 .48716737V.6692352C.5569916 .6872406 .5569916 .6982422 .5369873 .6982422 .5279999 .6982422 .5269928 .6972351 .5149994 .6862335L.47099305 .64323428C.4149933 .6872406 .34999085 .6982422 .29599 .6982422 .13598633 .6982422 .06599426 .59721377 .06599426 .49716188 .06599426 .42514039 .10699463 .37913514 .115997318 .36914063 .17098999 .31428529 .20399475 .30729676 .30799867 .2853546 .32398988 .2823639 .33999635 .27937318 .35499574 .27539063 .4139862 .26338197 .43099977 .26037599 .46398927 .2263794 .46499635 .22436524 .4909973 .1972351 .4909973 .15322876 .4909973 .13323975 .4850006 .03727722 .35598756 .03727722 .29599 .03727722 .125 .04826355 .116989139 .20426941 .115997318 .22236634 .115997318 .2283783 .09199524 .2283783 .06599426 .2283783 .06599426 .22236634 .06599426 .19824219V.01727295C.06599426-.0007324219 .06599426-.01171875 .085998538-.01171875 .09399414-.011932373 .09599304-.011932373 .10499573-.0029296876 .11099243 .0010681152 .1329956 .026062012 .1519928 .04206848 .21299744-.0017242432 .3019867-.01171875 .35699464-.01171875 .526001-.01171875 .58999636 .10028076 .58999636 .20327759V.20326233Z"/>
<path id="font_1_14" d="M.61698916 .22218323C.61698916 .354187 .526001 .4501953 .375 .4501953 .2939911 .45033265 .23899842 .41633607 .21998596 .40234376V.4501953L.040985109 .4423828V.39337159C.06098938 .39337159 .07699585 .39337159 .08999634 .39038087 .10899353 .38737489 .10899353 .3763733 .10899353 .3553772V-.14453125H.040985109V-.19354248L.16699219-.1905365 .2939911-.19354248V-.14453125H.22599793V.03942871C.2849884-.005859375 .33999635-.005859375 .35899354-.005859375 .5159912-.005859375 .61698916 .089141849 .61698916 .22216797V.22218323M.48399354 .22315979C.48399354 .08413696 .41299439 .03413391 .34700013 .03413391 .29599 .03413391 .25299073 .06314087 .22599793 .104141239V.34518434C.24398804 .3671875 .29100038 .4071808 .35899354 .4071808 .42900086 .4071808 .48399354 .34518434 .48399354 .22315979Z"/>
<path id="font_1_20" d="M.3929901 .123184207V.1762085H.34199525V.12617493C.34199525 .055145265 .30599977 .037139894 .2809906 .037139894 .22299195 .037139894 .22299195 .09716797 .22299195 .1211853V.3953247H.37399293V.44433595H.22299195V.6357422H.17199707C.17098999 .5415344 .12399292 .43832398 .021987915 .43533326V.3953247H.10598755V.123184207C.10598755 .009140015 .20498657-.005859375 .2669983-.005859375 .34498597-.005859375 .3929901 .05014038 .3929901 .123184207Z"/>
<path id="font_1_25" d="M.2919922 0V.04899597H.23098755V.4501953L.054992677 .4423828V.39337159C.11299133 .39337159 .11999512 .39337159 .11999512 .3543396V.04899597H.051986696V0C.11898804 .0019989014 .13198853 .0029907227 .17399597 .0029907227 .22299195 .0029907227 .23599243 .0019989014 .2919922 0M.24198914 .6053314C.24198914 .65234377 .20399475 .68434146 .1639862 .68434146 .12199402 .68434146 .085998538 .6503296 .085998538 .6063385 .085998538 .55934146 .12399292 .52734377 .1639862 .52734377 .20599365 .52734377 .24198914 .56134036 .24198914 .6053314Z"/>
<path id="font_1_9" d="M.29899598 0V.04899597H.23098755V.69433596L.051986696 .6855469V.63653567C.11199951 .63653567 .11999512 .63653567 .11999512 .5975647V.04899597H.051986696V0L.1749878 .0029907227 .29899598 0Z"/>
<path id="font_1_11" d="M.6299896-.0002746582V.048721315H.56199648V.30471803C.56199648 .4237213 .48999024 .4497223 .40299989 .4497223 .27999879 .4497223 .23098755 .35972596 .22399903 .34472657H.22299195V.4497223L.049987794 .44172669V.39271546C.10998535 .39271546 .117996219 .39271546 .117996219 .353714V.048721315H.049987794V-.0002746582L.17599488 .0027160645 .30299378-.0002746582V.048721315H.23498535V.25372315C.23498535 .36572267 .32699586 .40971376 .3869934 .40971376 .4249878 .40971376 .44499208 .38871766 .44499208 .3137207V.048721315H.3769989V-.0002746582L.5029907 .0027160645 .6299896-.0002746582Z"/>
<path id="font_1_18" d="M.4269867 .14027405C.4269867 .19128418 .397995 .22328186 .37998963 .23828125 .33499146 .27627564 .30299378 .28128053 .22399903 .294281 .17599488 .3022766 .11299133 .31228639 .11299133 .35728456 .11299133 .41711427 .20599365 .41711427 .22799683 .41711427 .33999635 .41711427 .34399415 .35827638 .34599305 .33128358 .34700013 .3173828 .36099244 .3173828 .37098695 .3173828 .3959961 .3173828 .39698792 .32237245 .39698792 .3463745V.42411805C.39698792 .4421234 .39698792 .453125 .3769989 .453125 .36698915 .453125 .35099793 .44511415 .33299256 .43511964 .30099488 .44911195 .2619934 .453125 .22898865 .453125 .19799805 .4532776 .038986207 .4532776 .038986207 .32128907 .038986207 .2162323 .16999817 .19421387 .20498657 .18821717 .2869873 .1742096 .35299684 .16320801 .35299684 .106170658 .35299684 .03413391 .25898744 .03413391 .23699951 .03413391 .18598938 .03413391 .12098694 .0471344 .09199524 .13919068 .08699036 .15620423 .085998538 .15919495 .06498718 .15919495 .038986207 .15919495 .038986207 .15319824 .038986207 .12918091V.023132325C.038986207 .005126953 .038986207-.005859375 .05899048-.005859375 .06599426-.005859375 .067993167-.005859375 .08999634 .008132935L.116989139 .025131226C.1639862-.005859375 .21699524-.005859375 .23699951-.005859375 .2669983-.005859375 .4269867-.005859375 .4269867 .1401825V.14027405Z"/>
<path id="font_1_6" d="M.45098878 .6111908C.45098878 .65615847 .4119873 .70014956 .33399964 .70014956 .22898865 .70014956 .12098694 .65515139 .12098694 .5432434V.44433595H.04399109V.3953247H.12098694V.04899597H.052993776V0L.18099976 .0029907227C.20599365 .0029907227 .2639923 .0029907227 .31698609 0V.04899597H.23199463V.3953247H.35099793V.44433595H.22599793V.5432434C.22599793 .65216067 .3039856 .66015627 .32899476 .66015627 .33198548 .66015627 .34199525 .65815737 .34199525 .65815737 .34199525 .65815737 .34199525 .65615847 .33999635 .65415957 .32899476 .6411438 .32398988 .6271515 .32398988 .611145 .32398988 .56915286 .35798646 .54714968 .3869934 .54714968 .41999818 .54714968 .45098878 .57115176 .45098878 .611145V.6111908Z"/>
<path id="font_1_5" d="M.5089874 .11605835C.5089874 .13604737 .4889984 .13604737 .48298646 .13604737 .46499635 .13604737 .46299745 .13005066 .45700074 .11605835 .43399049 .06410217 .37298585 .037139894 .30999757 .037139894 .16799927 .037139894 .1659851 .16601563 .1659851 .21496582H.47599793C.49699403 .21496582 .5089874 .21496582 .5089874 .2429657 .5089874 .26498414 .5069885 .35305787 .44198609 .4071045 .39698792 .4441223 .33699037 .453125 .28799439 .453125 .116989139 .453125 .032989503 .345047 .032989503 .22497559 .032989503 .09408569 .13198853-.005859375 .3019867-.005859375 .46699525-.005859375 .5089874 .1000824 .5089874 .11605835M.41099549 .25097657H.1659851C.16799927 .29701234 .17298889 .41311646 .28799439 .41311646 .40499879 .41311646 .40899659 .29100038 .41099549 .25097657Z"/>
<path id="font_1_3" d="M.61698916 .22207642C.61698916 .35716249 .519989 .4501953 .37199403 .4501953 .2919922 .4501953 .23899842 .41618348 .21998596 .4021759V.69433596L.040985109 .6863251V.6373291C.100997928 .6373291 .10899353 .6373291 .10899353 .5982971V0H.1599884L.20698548 .056991579C.23899842 .025131226 .28799439-.005859375 .35899354-.005859375 .5149994-.005859375 .61698916 .088134769 .61698916 .22216797V.22207642M.48399354 .22416687C.48399354 .18215943 .48399354 .13014221 .46299745 .09414673 .42999269 .038131715 .36898805 .03413391 .34899903 .03413391 .2869873 .03413391 .24699402 .072143558 .22599793 .104141239V.34617616C.25099183 .3781891 .29899598 .41018678 .3600006 .41018678 .48399354 .41018678 .48399354 .2901764 .48399354 .22416687Z"/>
<path id="font_2_5" d="M.55400088 0V.032989503C.48599244 .032989503 .47799684 .039993287 .47799684 .089019779V.69433596L.32899476 .6826172V.6496124C.39698792 .6496124 .40499879 .64263918 .40499879 .5938263V.38339234C.36999513 .42140199 .32299806 .44140626 .2709961 .44140626 .1459961 .44140626 .034988405 .3443756 .034988405 .21531677 .034988405 .09225464 .1349945-.009765625 .26098634-.009765625 .31999208-.009765625 .36898805 .018234253 .4019928 .053237916V-.009765625L.55400088 0M.4019928 .12399292C.4019928 .10598755 .4019928 .101989749 .3869934 .08198547 .35899354 .042236329 .31298829 .018234253 .2659912 .018234253 .21998596 .018234253 .17999268 .042236329 .1559906 .07925415 .1289978 .118270877 .12399292 .16729737 .12399292 .21430969 .12399292 .27233888 .1329956 .3133545 .1559906 .3483734 .17999268 .38539125 .22499085 .4133911 .27598573 .4133911 .32398988 .4133911 .37199403 .38938905 .4019928 .33737184V.12399292Z"/>
<path id="font_2_9" d="M.56199648 0V.032989503C.49798585 .032989503 .48599244 .032989503 .48599244 .07814026V.30371095C.48599244 .38746644 .44799806 .44140626 .34298707 .44140626 .25498963 .44140626 .20899964 .3854828 .19099427 .3535614H.18998719V.69433596L.040985109 .6826172V.6496124C.10899353 .6496124 .116989139 .64263918 .116989139 .5938263V.07814026C.116989139 .032989503 .10499573 .032989503 .040985109 .032989503V0C.083999637 .0029907227 .12799073 .0029907227 .15499878 .0029907227 .18399048 .0029907227 .22599793 .0029907227 .2689972 0V.032989503C.20498657 .032989503 .19299317 .032989503 .19299317 .07814026V.2597046C.19299317 .36453248 .272995 .4133911 .33399964 .4133911 .394989 .4133911 .4099884 .37051393 .4099884 .30769349V.07814026C.4099884 .032989503 .397995 .032989503 .33399964 .032989503V0C.3769989 .0029907227 .42099 .0029907227 .44799806 .0029907227 .47698976 .0029907227 .5189972 .0029907227 .56199648 0Z"/>
<path id="font_2_4" d="M.21499634 .0039978029C.21499634 .05899048 .19499207 .11099243 .14698792 .11099243 .11399841 .11099243 .09199524 .084991458 .09199524 .055999757 .09199524 .025985718 .11299133 0 .147995 0 .16999817 0 .18399048 .011993408 .18699646 .01499939 .18699646-.015029907 .18699646-.09718323 .11099243-.16830445 .10798645-.17131043 .10499573-.17330933 .10499573-.17932129 .10499573-.18833924 .11399841-.19433594 .11898804-.19433594 .13198853-.19433594 .21499634-.11621094 .21499634 .0039978029Z"/>
<path id="font_1_21" d="M.5419922 .18023682C.5419922 .25924684 .48199464 .32824708 .36898805 .35224916 .46998597 .38723756 .5089874 .4562378 .5089874 .51724246 .5089874 .5922394 .43399049 .65625 .2849884 .65625 .1619873 .65625 .08198547 .59013369 .08198547 .50909426 .08198547 .46409608 .11399841 .4360962 .1539917 .4360962 .19699097 .4360962 .22599793 .4670868 .22599793 .50808718 .22599793 .5410919 .20698548 .5700989 .16699219 .57910159 .1749878 .5861206 .21598816 .61624148 .27999879 .61624148 .36698915 .61624148 .36698915 .5510864 .36698915 .51908877 .36698915 .463089 .34599305 .3761139 .2599945 .37112428L.21299744 .36816407C.19699097 .3661499 .19699097 .35516358 .19699097 .3481598 .19699097 .32815553 .20799256 .32815553 .22599793 .32815553H.272995C.3849945 .32815553 .3849945 .23019409 .3849945 .18022156 .3849945 .13523865 .3849945 .03327942 .27799989 .03327942 .2659912 .03327942 .19699097 .03527832 .15098572 .06825256 .19699097 .08125305 .20698548 .12023926 .20698548 .14323426 .20698548 .19036865 .17399597 .22238159 .12799073 .22238159 .084991458 .22238159 .04899597 .19337464 .04899597 .14237976 .04899597 .048324586 .14898682-.01171875 .2829895-.01171875 .46598817-.01171875 .5419922 .088378909 .5419922 .18037415V.18023682Z"/>
<path id="font_1_19" d="M.7789917 .4308777 .7569885 .6738281H.06498718L.042999269 .4308777H.09399414C.10398865 .5418396 .11299133 .6248169 .2599945 .6248169H.33898927V.04899597H.18598938V0C.22999573 .0029907227 .3600006 .0029907227 .4119873 .0029907227 .46398927 .0029907227 .59298709 .0029907227 .6369934 0V.04899597H.48399354V.6248169H.5629883C.70999148 .6248169 .71798709 .5398407 .7279968 .4308777H.7789917Z"/>
<path id="font_1_10" d="M.95899966-.0002746582V.048721315H.8909912V.30471803C.8909912 .42271424 .81999209 .4497223 .7319946 .4497223 .6279907 .4497223 .57699587 .38671876 .55799868 .3557129 .5359955 .4457245 .44799806 .4497223 .4039917 .4497223 .27999879 .4497223 .23098755 .35972596 .22399903 .34472657H.22299195V.4497223L.049987794 .44172669V.39271546C.10998535 .39271546 .117996219 .39271546 .117996219 .353714V.048721315H.049987794V-.0002746582L.17599488 .0027160645 .30299378-.0002746582V.048721315H.23498535V.25372315C.23498535 .36471559 .32699586 .40971376 .3869934 .40971376 .4249878 .40971376 .44599916 .38972474 .44599916 .3137207V.048721315H.37799073V-.0002746582L.5039978 .0027160645 .6309967-.0002746582V.048721315H.5629883V.25372315C.5629883 .36471559 .6549988 .40971376 .71499636 .40971376 .7529907 .40971376 .7739868 .38972474 .7739868 .3137207V.048721315H.70599368V-.0002746582L.83200076 .0027160645 .95899966-.0002746582Z"/>
<path id="font_1_12" d="M.55799868 .21812439C.55799868 .3491211 .46598817 .453125 .29599 .453125 .11999512 .453125 .032989503 .3441162 .032989503 .21812439 .032989503 .09413147 .12298584-.005859375 .29499818-.005859375 .47399903-.005859375 .55799868 .09913635 .55799868 .21812439M.4249878 .22912598C.4249878 .14312744 .4249878 .037139894 .29599 .037139894 .1659851 .037139894 .1659851 .14213562 .1659851 .22912598 .1659851 .3131256 .1659851 .41311646 .29499818 .41311646 .4249878 .41311646 .4249878 .3131256 .4249878 .22912598Z"/>
<path id="font_1_7" d="M.55799868 0V.04899597H.45799256V.15509033H.55799868V.20410156H.45799256V.6241913C.45799256 .65319827 .45498658 .6582031 .4249878 .6582031 .40098573 .6582031 .39898683 .65618899 .3889923 .6431885L.032989503 .20410156V.15509033H.32998658V.04899597H.21499634V0C.25 .0029907227 .34999085 .0029907227 .3909912 .0029907227 .43199159 .0029907227 .5209961 .0029907227 .55799868 0M.34199525 .20410156H.08999634L.34199525 .51516726V.20410156Z"/>
<path id="font_1_8" d="M.4079895 0V.04899597H.29499818V.63653567H.4079895V.6855469C.37298585 .6825409 .2649994 .6825409 .22299195 .6825409 .18099976 .6825409 .07199097 .6825409 .036987306 .6855469V.63653567H.1499939V.04899597H.036987306V0C.07199097 .0029907227 .17999268 .0029907227 .22200012 .0029907227 .2639923 .0029907227 .37298585 .0029907227 .4079895 0Z"/>
<path id="font_2_2" d="M.55400088 .21650696C.55400088 .3425293 .45098878 .44140626 .32899476 .44140626 .25 .44140626 .20098877 .39845277 .18399048 .38053895V.69433596L.034988405 .68333438V.6503296C.102996829 .6503296 .11099243 .6433258 .11099243 .5943451V.00048828127H.14199829L.17799378 .0625C.20199585 .02822876 .24899292-.009765625 .31698609-.009765625 .44400025-.009765625 .55400088 .08828735 .55400088 .21640015V.21650696M.46499635 .21740723C.46499635 .19438172 .46499635 .12332153 .42900086 .07627869 .3929901 .031234742 .34599305 .018234253 .31298829 .018234253 .2649994 .018234253 .22499085 .04324341 .19898987 .08229065 .18699646 .1013031 .18699646 .10231018 .18699646 .12132263V.3164978C.18699646 .33551026 .18699646 .3375244 .20199585 .3555298 .23098755 .39248658 .27799989 .4133911 .32299806 .4133911 .375 .4133911 .4139862 .38252259 .43399049 .35253907 .45098878 .3255005 .46499635 .29048158 .46499635 .21740723Z"/>
<path id="font_2_11" d="M.5419922 0V.032989503C.5 .032989503 .48199464 .036987306 .44599916 .083984378L.30099488 .27194215 .38598634 .33992005C.45199586 .3917389 .49398805 .39666749 .5189972 .3976593V.43066407C.49499513 .42765809 .48098756 .42765809 .43998719 .42765809 .3909912 .42765809 .3769989 .4286499 .33299256 .43066407V.3976593C.35198976 .39666749 .35598756 .38383485 .35598756 .3779297 .35598756 .35691834 .33599855 .33992005 .32798768 .33392335L.18399048 .21794129V.69433596L.034988405 .6826172V.6496124C.102996829 .6496124 .11099243 .64260867 .11099243 .5936432V.07795715C.11099243 .032989503 .09899902 .032989503 .034988405 .032989503V0C.07398987 .0029907227 .12799073 .0029907227 .14498902 .0029907227 .16499329 .0029907227 .21699524 .0029907227 .2559967 0V.032989503C.19198609 .032989503 .17999268 .032989503 .17999268 .07795715V.17489624L.24798584 .22886658C.25099183 .22886658 .2769928 .19389344 .29299928 .17489624 .30799867 .1539154 .32398988 .13392639 .33999635 .11393738 .35398866 .093948367 .375 .067977908 .375 .052978517 .375 .035995485 .35598756 .032989503 .34399415 .032989503V0C.3869934 .0029907227 .43199159 .0029907227 .44898988 .0029907227 .4869995 .0029907227 .5069885 .0029907227 .5419922 0Z"/>
</defs>
<path transform="matrix(1,0,0,-1,83.795,33.879999)" d="M71.44215 25.51216H-71.44215C-73.6431 25.51216-75.42726 23.728-75.42726 21.52705V-21.52705C-75.42726-23.728-73.6431-25.51216-71.44215-25.51216H71.44215C73.6431-25.51216 75.42726-23.728 75.42726-21.52705V21.52705C75.42726 23.728 73.6431 25.51216 71.44215 25.51216ZM-75.42726-25.51216" fill="#f0f3f7"/>
<path transform="matrix(1,0,0,-1,83.795,33.879999)" stroke-width=".79701" stroke-linecap="butt" stroke-miterlimit="10" stroke-linejoin="miter" fill="none" stroke="#003e74" d="M71.44215 25.51216H-71.44215C-73.6431 25.51216-75.42726 23.728-75.42726 21.52705V-21.52705C-75.42726-23.728-73.6431-25.51216-71.44215-25.51216H71.44215C73.6431-25.51216 75.42726-23.728 75.42726-21.52705V21.52705C75.42726 23.728 73.6431 25.51216 71.44215 25.51216ZM-75.42726-25.51216"/>
<use data-text="1" xlink:href="#font_1_13" transform="matrix(8.9664,0,0,-8.9664,55.922,24.222)"/>
<use data-text="." xlink:href="#font_1_15" transform="matrix(8.9664,0,0,-8.9664,61.23011,24.222)"/>
<use data-text="A" xlink:href="#font_1_1" transform="matrix(8.9664,0,0,-8.9664,68.78878,24.222)"/>
<use data-text="c" xlink:href="#font_1_4" transform="matrix(8.9664,0,0,-8.9664,76.499889,24.222)"/>
<use data-text="c" xlink:href="#font_1_4" transform="matrix(8.9664,0,0,-8.9664,81.21621,24.222)"/>
<use data-text="u" xlink:href="#font_1_23" transform="matrix(8.9664,0,0,-8.9664,85.93253,24.222)"/>
<use data-text="r" xlink:href="#font_1_16" transform="matrix(8.9664,0,0,-8.9664,91.823459,24.222)"/>
<use data-text="a" xlink:href="#font_1_2" transform="matrix(8.9664,0,0,-8.9664,96.19906,24.222)"/>
<use data-text="c" xlink:href="#font_1_4" transform="matrix(8.9664,0,0,-8.9664,101.35474,24.222)"/>
<use data-text="y" xlink:href="#font_1_24" transform="matrix(8.9664,0,0,-8.9664,106.07106,24.222)"/>
<use data-text="p" xlink:href="#font_2_16" transform="matrix(7.9701,0,0,-7.9701,26.586003,37.173997)"/>
<use data-text="l" xlink:href="#font_2_12" transform="matrix(7.9701,0,0,-7.9701,31.28836,37.173997)"/>
<use data-text="a" xlink:href="#font_2_1" transform="matrix(7.9701,0,0,-7.9701,33.63954,37.173997)"/>
<use data-text="n" xlink:href="#font_2_14" transform="matrix(7.9701,0,0,-7.9701,37.871667,37.173997)"/>
<use data-text="n" xlink:href="#font_2_14" transform="matrix(7.9701,0,0,-7.9701,42.574026,37.173997)"/>
<use data-text="i" xlink:href="#font_2_24" transform="matrix(7.9701,0,0,-7.9701,47.276384,37.173997)"/>
<use data-text="n" xlink:href="#font_2_14" transform="matrix(7.9701,0,0,-7.9701,49.627565,37.173997)"/>
<use data-text="g" xlink:href="#font_2_8" transform="matrix(7.9701,0,0,-7.9701,54.32992,37.173997)"/>
<use data-text="-" xlink:href="#font_2_10" transform="matrix(7.9701,0,0,-7.9701,58.562047,37.173997)"/>
<use data-text="s" xlink:href="#font_2_18" transform="matrix(7.9701,0,0,-7.9701,61.38346,37.173997)"/>
<use data-text="c" xlink:href="#font_2_3" transform="matrix(7.9701,0,0,-7.9701,64.72293,37.173997)"/>
<use data-text="a" xlink:href="#font_2_1" transform="matrix(7.9701,0,0,-7.9701,68.48482,37.173997)"/>
<use data-text="l" xlink:href="#font_2_12" transform="matrix(7.9701,0,0,-7.9701,72.71694,37.173997)"/>
<use data-text="e" xlink:href="#font_2_6" transform="matrix(7.9701,0,0,-7.9701,75.06812,37.173997)"/>
<use data-text="a" xlink:href="#font_2_1" transform="matrix(7.9701,0,0,-7.9701,81.8985,37.173997)"/>
<use data-text="c" xlink:href="#font_2_3" transform="matrix(7.9701,0,0,-7.9701,86.13062,37.173997)"/>
<use data-text="c" xlink:href="#font_2_3" transform="matrix(7.9701,0,0,-7.9701,89.89251,37.173997)"/>
<use data-text="u" xlink:href="#font_2_20" transform="matrix(7.9701,0,0,-7.9701,93.654399,37.173997)"/>
<use data-text="r" xlink:href="#font_2_17" transform="matrix(7.9701,0,0,-7.9701,98.35676,37.173997)"/>
<use data-text="a" xlink:href="#font_2_1" transform="matrix(7.9701,0,0,-7.9701,101.65638,37.173997)"/>
<use data-text="c" xlink:href="#font_2_3" transform="matrix(7.9701,0,0,-7.9701,105.888507,37.173997)"/>
<use data-text="y" xlink:href="#font_2_23" transform="matrix(7.9701,0,0,-7.9701,109.65039,37.173997)"/>
<use data-text="&#x2014;" xlink:href="#font_2_7" transform="matrix(7.9701,0,0,-7.9701,117.19808,37.173997)"/>
<use data-text="n" xlink:href="#font_2_14" transform="matrix(7.9701,0,0,-7.9701,128.73879,37.173997)"/>
<use data-text="o" xlink:href="#font_2_15" transform="matrix(7.9701,0,0,-7.9701,133.44115,37.173997)"/>
<use data-text="t" xlink:href="#font_2_19" transform="matrix(7.9701,0,0,-7.9701,137.67327,37.173997)"/>
<use data-text="j" xlink:href="#font_2_25" transform="matrix(7.9701,0,0,-7.9701,35.135004,48.131998)"/>
<use data-text="u" xlink:href="#font_2_20" transform="matrix(7.9701,0,0,-7.9701,37.725286,48.131998)"/>
<use data-text="s" xlink:href="#font_2_18" transform="matrix(7.9701,0,0,-7.9701,42.427644,48.131998)"/>
<use data-text="t" xlink:href="#font_2_19" transform="matrix(7.9701,0,0,-7.9701,45.767118,48.131998)"/>
<use data-text="n" xlink:href="#font_2_14" transform="matrix(7.9701,0,0,-7.9701,52.12726,48.131998)"/>
<use data-text="e" xlink:href="#font_2_6" transform="matrix(7.9701,0,0,-7.9701,56.829618,48.131998)"/>
<use data-text="x" xlink:href="#font_2_22" transform="matrix(7.9701,0,0,-7.9701,60.591505,48.131998)"/>
<use data-text="t" xlink:href="#font_2_19" transform="matrix(7.9701,0,0,-7.9701,65.06273,48.131998)"/>
<use data-text="-" xlink:href="#font_2_10" transform="matrix(7.9701,0,0,-7.9701,68.35438,48.131998)"/>
<use data-text="m" xlink:href="#font_2_13" transform="matrix(7.9701,0,0,-7.9701,71.1758,48.131998)"/>
<use data-text="i" xlink:href="#font_2_24" transform="matrix(7.9701,0,0,-7.9701,78.22933,48.131998)"/>
<use data-text="n" xlink:href="#font_2_14" transform="matrix(7.9701,0,0,-7.9701,80.58051,48.131998)"/>
<use data-text="u" xlink:href="#font_2_20" transform="matrix(7.9701,0,0,-7.9701,85.05174,48.131998)"/>
<use data-text="t" xlink:href="#font_2_19" transform="matrix(7.9701,0,0,-7.9701,89.754108,48.131998)"/>
<use data-text="e" xlink:href="#font_2_6" transform="matrix(7.9701,0,0,-7.9701,93.04575,48.131998)"/>
<use data-text="n" xlink:href="#font_2_14" transform="matrix(7.9701,0,0,-7.9701,99.87613,48.131998)"/>
<use data-text="o" xlink:href="#font_2_15" transform="matrix(7.9701,0,0,-7.9701,104.57849,48.131998)"/>
<use data-text="w" xlink:href="#font_2_21" transform="matrix(7.9701,0,0,-7.9701,108.57948,48.131998)"/>
<use data-text="c" xlink:href="#font_2_3" transform="matrix(7.9701,0,0,-7.9701,114.453449,48.131998)"/>
<use data-text="a" xlink:href="#font_2_1" transform="matrix(7.9701,0,0,-7.9701,118.21533,48.131998)"/>
<use data-text="s" xlink:href="#font_2_18" transform="matrix(7.9701,0,0,-7.9701,122.44746,48.131998)"/>
<use data-text="t" xlink:href="#font_2_19" transform="matrix(7.9701,0,0,-7.9701,125.78693,48.131998)"/>
<use data-text="s" xlink:href="#font_2_18" transform="matrix(7.9701,0,0,-7.9701,129.07859,48.131998)"/>
<path transform="matrix(1,0,0,-1,83.795,33.879999)" d="M242.9364 25.51216H100.05208C97.85114 25.51216 96.06697 23.728 96.06697 21.52705V-21.52705C96.06697-23.728 97.85114-25.51216 100.05208-25.51216H242.9364C245.13735-25.51216 246.92151-23.728 246.92151-21.52705V21.52705C246.92151 23.728 245.13735 25.51216 242.9364 25.51216ZM96.06697-25.51216" fill="#f0f3f7"/>
<path transform="matrix(1,0,0,-1,83.795,33.879999)" stroke-width=".79701" stroke-linecap="butt" stroke-miterlimit="10" stroke-linejoin="miter" fill="none" stroke="#003e74" d="M242.9364 25.51216H100.05208C97.85114 25.51216 96.06697 23.728 96.06697 21.52705V-21.52705C96.06697-23.728 97.85114-25.51216 100.05208-25.51216H242.9364C245.13735-25.51216 246.92151-23.728 246.92151-21.52705V21.52705C246.92151 23.728 245.13735 25.51216 242.9364 25.51216ZM96.06697-25.51216"/>
<use data-text="2" xlink:href="#font_1_22" transform="matrix(8.9664,0,0,-8.9664,198.483,24.222)"/>
<use data-text="." xlink:href="#font_1_15" transform="matrix(8.9664,0,0,-8.9664,203.7911,24.222)"/>
<use data-text="S" xlink:href="#font_1_17" transform="matrix(8.9664,0,0,-8.9664,211.3498,24.222)"/>
<use data-text="p" xlink:href="#font_1_14" transform="matrix(8.9664,0,0,-8.9664,217.24073,24.222)"/>
<use data-text="a" xlink:href="#font_1_2" transform="matrix(8.9664,0,0,-8.9664,223.13166,24.222)"/>
<use data-text="t" xlink:href="#font_1_20" transform="matrix(8.9664,0,0,-8.9664,228.28734,24.222)"/>
<use data-text="i" xlink:href="#font_1_25" transform="matrix(8.9664,0,0,-8.9664,232.41188,24.222)"/>
<use data-text="a" xlink:href="#font_1_2" transform="matrix(8.9664,0,0,-8.9664,235.36183,24.222)"/>
<use data-text="l" xlink:href="#font_1_9" transform="matrix(8.9664,0,0,-8.9664,240.51752,24.222)"/>
<use data-text="t" xlink:href="#font_1_20" transform="matrix(8.9664,0,0,-8.9664,246.53398,24.222)"/>
<use data-text="r" xlink:href="#font_1_16" transform="matrix(8.9664,0,0,-8.9664,250.65853,24.222)"/>
<use data-text="a" xlink:href="#font_1_2" transform="matrix(8.9664,0,0,-8.9664,255.03414,24.222)"/>
<use data-text="n" xlink:href="#font_1_11" transform="matrix(8.9664,0,0,-8.9664,260.18983,24.222)"/>
<use data-text="s" xlink:href="#font_1_18" transform="matrix(8.9664,0,0,-8.9664,266.08076,24.222)"/>
<use data-text="f" xlink:href="#font_1_6" transform="matrix(8.9664,0,0,-8.9664,270.26808,24.222)"/>
<use data-text="e" xlink:href="#font_1_5" transform="matrix(8.9664,0,0,-8.9664,273.51393,24.222)"/>
<use data-text="r" xlink:href="#font_1_16" transform="matrix(8.9664,0,0,-8.9664,278.38267,24.222)"/>
<use data-text="a" xlink:href="#font_1_2" transform="matrix(8.9664,0,0,-8.9664,282.75828,24.222)"/>
<use data-text="b" xlink:href="#font_1_3" transform="matrix(8.9664,0,0,-8.9664,287.91395,24.222)"/>
<use data-text="i" xlink:href="#font_1_25" transform="matrix(8.9664,0,0,-8.9664,293.80488,24.222)"/>
<use data-text="l" xlink:href="#font_1_9" transform="matrix(8.9664,0,0,-8.9664,296.75483,24.222)"/>
<use data-text="i" xlink:href="#font_1_25" transform="matrix(8.9664,0,0,-8.9664,299.70478,24.222)"/>
<use data-text="t" xlink:href="#font_1_20" transform="matrix(8.9664,0,0,-8.9664,302.65473,24.222)"/>
<use data-text="y" xlink:href="#font_1_24" transform="matrix(8.9664,0,0,-8.9664,306.48338,24.222)"/>
<use data-text="p" xlink:href="#font_2_16" transform="matrix(7.9701,0,0,-7.9701,203.219,37.173997)"/>
<use data-text="r" xlink:href="#font_2_17" transform="matrix(7.9701,0,0,-7.9701,207.92136,37.173997)"/>
<use data-text="e" xlink:href="#font_2_6" transform="matrix(7.9701,0,0,-7.9701,211.22098,37.173997)"/>
<use data-text="d" xlink:href="#font_2_5" transform="matrix(7.9701,0,0,-7.9701,214.98287,37.173997)"/>
<use data-text="i" xlink:href="#font_2_24" transform="matrix(7.9701,0,0,-7.9701,219.68523,37.173997)"/>
<use data-text="c" xlink:href="#font_2_3" transform="matrix(7.9701,0,0,-7.9701,222.0364,37.173997)"/>
<use data-text="t" xlink:href="#font_2_19" transform="matrix(7.9701,0,0,-7.9701,225.7983,37.173997)"/>
<use data-text="r" xlink:href="#font_2_17" transform="matrix(7.9701,0,0,-7.9701,232.15843,37.173997)"/>
<use data-text="e" xlink:href="#font_2_6" transform="matrix(7.9701,0,0,-7.9701,235.45806,37.173997)"/>
<use data-text="g" xlink:href="#font_2_8" transform="matrix(7.9701,0,0,-7.9701,239.2279,37.173997)"/>
<use data-text="i" xlink:href="#font_2_24" transform="matrix(7.9701,0,0,-7.9701,243.45206,37.173997)"/>
<use data-text="o" xlink:href="#font_2_15" transform="matrix(7.9701,0,0,-7.9701,245.80324,37.173997)"/>
<use data-text="n" xlink:href="#font_2_14" transform="matrix(7.9701,0,0,-7.9701,250.03536,37.173997)"/>
<use data-text="s" xlink:href="#font_2_18" transform="matrix(7.9701,0,0,-7.9701,254.73772,37.173997)"/>
<use data-text="w" xlink:href="#font_2_21" transform="matrix(7.9701,0,0,-7.9701,261.15364,37.173997)"/>
<use data-text="i" xlink:href="#font_2_24" transform="matrix(7.9701,0,0,-7.9701,267.2667,37.173997)"/>
<use data-text="t" xlink:href="#font_2_19" transform="matrix(7.9701,0,0,-7.9701,269.61787,37.173997)"/>
<use data-text="h" xlink:href="#font_2_9" transform="matrix(7.9701,0,0,-7.9701,272.90953,37.173997)"/>
<use data-text="n" xlink:href="#font_2_14" transform="matrix(7.9701,0,0,-7.9701,280.68037,37.173997)"/>
<use data-text="o" xlink:href="#font_2_15" transform="matrix(7.9701,0,0,-7.9701,285.38273,37.173997)"/>
<use data-text="s" xlink:href="#font_2_18" transform="matrix(7.9701,0,0,-7.9701,292.69129,37.173997)"/>
<use data-text="e" xlink:href="#font_2_6" transform="matrix(7.9701,0,0,-7.9701,296.03077,37.173997)"/>
<use data-text="n" xlink:href="#font_2_14" transform="matrix(7.9701,0,0,-7.9701,299.79267,37.173997)"/>
<use data-text="-" xlink:href="#font_2_10" transform="matrix(7.9701,0,0,-7.9701,304.49504,37.173997)"/>
<use data-text="s" xlink:href="#font_2_18" transform="matrix(7.9701,0,0,-7.9701,211.788,48.131998)"/>
<use data-text="o" xlink:href="#font_2_15" transform="matrix(7.9701,0,0,-7.9701,215.12747,48.131998)"/>
<use data-text="r" xlink:href="#font_2_17" transform="matrix(7.9701,0,0,-7.9701,219.35959,48.131998)"/>
<use data-text="s" xlink:href="#font_2_18" transform="matrix(7.9701,0,0,-7.9701,222.65921,48.131998)"/>
<use data-text="," xlink:href="#font_2_4" transform="matrix(7.9701,0,0,-7.9701,225.99869,48.131998)"/>
<use data-text="u" xlink:href="#font_2_20" transform="matrix(7.9701,0,0,-7.9701,231.41835,48.131998)"/>
<use data-text="n" xlink:href="#font_2_14" transform="matrix(7.9701,0,0,-7.9701,236.12071,48.131998)"/>
<use data-text="s" xlink:href="#font_2_18" transform="matrix(7.9701,0,0,-7.9701,240.82308,48.131998)"/>
<use data-text="e" xlink:href="#font_2_6" transform="matrix(7.9701,0,0,-7.9701,244.16255,48.131998)"/>
<use data-text="e" xlink:href="#font_2_6" transform="matrix(7.9701,0,0,-7.9701,247.92444,48.131998)"/>
<use data-text="n" xlink:href="#font_2_14" transform="matrix(7.9701,0,0,-7.9701,251.69429,48.131998)"/>
<use data-text="i" xlink:href="#font_2_24" transform="matrix(7.9701,0,0,-7.9701,259.46513,48.131998)"/>
<use data-text="n" xlink:href="#font_2_14" transform="matrix(7.9701,0,0,-7.9701,261.81629,48.131998)"/>
<use data-text="t" xlink:href="#font_2_19" transform="matrix(7.9701,0,0,-7.9701,269.58714,48.131998)"/>
<use data-text="r" xlink:href="#font_2_17" transform="matrix(7.9701,0,0,-7.9701,272.87879,48.131998)"/>
<use data-text="a" xlink:href="#font_2_1" transform="matrix(7.9701,0,0,-7.9701,276.1784,48.131998)"/>
<use data-text="i" xlink:href="#font_2_24" transform="matrix(7.9701,0,0,-7.9701,280.41053,48.131998)"/>
<use data-text="n" xlink:href="#font_2_14" transform="matrix(7.9701,0,0,-7.9701,282.7617,48.131998)"/>
<use data-text="i" xlink:href="#font_2_24" transform="matrix(7.9701,0,0,-7.9701,287.46406,48.131998)"/>
<use data-text="n" xlink:href="#font_2_14" transform="matrix(7.9701,0,0,-7.9701,289.81523,48.131998)"/>
<use data-text="g" xlink:href="#font_2_8" transform="matrix(7.9701,0,0,-7.9701,294.51759,48.131998)"/>
<path transform="matrix(1,0,0,-1,83.795,33.879999)" d="M71.44215-41.90001H-71.44215C-73.6431-41.90001-75.42726-43.68417-75.42726-45.88512V-88.93924C-75.42726-91.14018-73.6431-92.92435-71.44215-92.92435H71.44215C73.6431-92.92435 75.42726-91.14018 75.42726-88.93924V-45.88512C75.42726-43.68417 73.6431-41.90001 71.44215-41.90001ZM-75.42726-92.92435" fill="#f0f3f7"/>
<path transform="matrix(1,0,0,-1,83.795,33.879999)" stroke-width=".79701" stroke-linecap="butt" stroke-miterlimit="10" stroke-linejoin="miter" fill="none" stroke="#003e74" d="M71.44215-41.90001H-71.44215C-73.6431-41.90001-75.42726-43.68417-75.42726-45.88512V-88.93924C-75.42726-91.14018-73.6431-92.92435-71.44215-92.92435H71.44215C73.6431-92.92435 75.42726-91.14018 75.42726-88.93924V-45.88512C75.42726-43.68417 73.6431-41.90001 71.44215-41.90001ZM-75.42726-92.92435"/>
<use data-text="3" xlink:href="#font_1_21" transform="matrix(8.9664,0,0,-8.9664,20.962002,91.632999)"/>
<use data-text="." xlink:href="#font_1_15" transform="matrix(8.9664,0,0,-8.9664,26.270112,91.632999)"/>
<use data-text="T" xlink:href="#font_1_19" transform="matrix(8.9664,0,0,-8.9664,33.828786,91.632999)"/>
<use data-text="e" xlink:href="#font_1_5" transform="matrix(8.9664,0,0,-8.9664,40.32046,91.632999)"/>
<use data-text="m" xlink:href="#font_1_10" transform="matrix(8.9664,0,0,-8.9664,45.189218,91.632999)"/>
<use data-text="p" xlink:href="#font_1_14" transform="matrix(8.9664,0,0,-8.9664,54.030088,91.632999)"/>
<use data-text="o" xlink:href="#font_1_12" transform="matrix(8.9664,0,0,-8.9664,60.216905,91.632999)"/>
<use data-text="r" xlink:href="#font_1_16" transform="matrix(8.9664,0,0,-8.9664,65.52501,91.632999)"/>
<use data-text="a" xlink:href="#font_1_2" transform="matrix(8.9664,0,0,-8.9664,69.90061,91.632999)"/>
<use data-text="l" xlink:href="#font_1_9" transform="matrix(8.9664,0,0,-8.9664,75.05629,91.632999)"/>
<use data-text="t" xlink:href="#font_1_20" transform="matrix(8.9664,0,0,-8.9664,81.08171,91.632999)"/>
<use data-text="r" xlink:href="#font_1_16" transform="matrix(8.9664,0,0,-8.9664,85.20625,91.632999)"/>
<use data-text="a" xlink:href="#font_1_2" transform="matrix(8.9664,0,0,-8.9664,89.581859,91.632999)"/>
<use data-text="n" xlink:href="#font_1_11" transform="matrix(8.9664,0,0,-8.9664,94.73753,91.632999)"/>
<use data-text="s" xlink:href="#font_1_18" transform="matrix(8.9664,0,0,-8.9664,100.628459,91.632999)"/>
<use data-text="f" xlink:href="#font_1_6" transform="matrix(8.9664,0,0,-8.9664,104.815769,91.632999)"/>
<use data-text="e" xlink:href="#font_1_5" transform="matrix(8.9664,0,0,-8.9664,108.0616,91.632999)"/>
<use data-text="r" xlink:href="#font_1_16" transform="matrix(8.9664,0,0,-8.9664,112.93036,91.632999)"/>
<use data-text="a" xlink:href="#font_1_2" transform="matrix(8.9664,0,0,-8.9664,117.30596,91.632999)"/>
<use data-text="b" xlink:href="#font_1_3" transform="matrix(8.9664,0,0,-8.9664,122.46164,91.632999)"/>
<use data-text="i" xlink:href="#font_1_25" transform="matrix(8.9664,0,0,-8.9664,128.35257,91.632999)"/>
<use data-text="l" xlink:href="#font_1_9" transform="matrix(8.9664,0,0,-8.9664,131.30252,91.632999)"/>
<use data-text="i" xlink:href="#font_1_25" transform="matrix(8.9664,0,0,-8.9664,134.25247,91.632999)"/>
<use data-text="t" xlink:href="#font_1_20" transform="matrix(8.9664,0,0,-8.9664,137.20243,91.632999)"/>
<use data-text="y" xlink:href="#font_1_24" transform="matrix(8.9664,0,0,-8.9664,141.03107,91.632999)"/>
<use data-text="h" xlink:href="#font_2_9" transform="matrix(7.9701,0,0,-7.9701,32.806,104.58499)"/>
<use data-text="o" xlink:href="#font_2_15" transform="matrix(7.9701,0,0,-7.9701,37.508359,104.58499)"/>
<use data-text="l" xlink:href="#font_2_12" transform="matrix(7.9701,0,0,-7.9701,41.740484,104.58499)"/>
<use data-text="d" xlink:href="#font_2_5" transform="matrix(7.9701,0,0,-7.9701,44.091665,104.58499)"/>
<use data-text="u" xlink:href="#font_2_20" transform="matrix(7.9701,0,0,-7.9701,51.86251,104.58499)"/>
<use data-text="p" xlink:href="#font_2_16" transform="matrix(7.9701,0,0,-7.9701,56.56487,104.58499)"/>
<use data-text="y" xlink:href="#font_2_23" transform="matrix(7.9701,0,0,-7.9701,64.34369,104.58499)"/>
<use data-text="e" xlink:href="#font_2_6" transform="matrix(7.9701,0,0,-7.9701,68.57581,104.58499)"/>
<use data-text="a" xlink:href="#font_2_1" transform="matrix(7.9701,0,0,-7.9701,72.3377,104.58499)"/>
<use data-text="r" xlink:href="#font_2_17" transform="matrix(7.9701,0,0,-7.9701,76.569828,104.58499)"/>
<use data-text="s" xlink:href="#font_2_18" transform="matrix(7.9701,0,0,-7.9701,79.869449,104.58499)"/>
<use data-text="a" xlink:href="#font_2_1" transform="matrix(7.9701,0,0,-7.9701,86.28538,104.58499)"/>
<use data-text="h" xlink:href="#font_2_9" transform="matrix(7.9701,0,0,-7.9701,90.5175,104.58499)"/>
<use data-text="e" xlink:href="#font_2_6" transform="matrix(7.9701,0,0,-7.9701,95.219867,104.58499)"/>
<use data-text="a" xlink:href="#font_2_1" transform="matrix(7.9701,0,0,-7.9701,98.98175,104.58499)"/>
<use data-text="d" xlink:href="#font_2_5" transform="matrix(7.9701,0,0,-7.9701,103.213878,104.58499)"/>
<use data-text="&#x2014;" xlink:href="#font_2_7" transform="matrix(7.9701,0,0,-7.9701,110.984729,104.58499)"/>
<use data-text="n" xlink:href="#font_2_14" transform="matrix(7.9701,0,0,-7.9701,122.52543,104.58499)"/>
<use data-text="o" xlink:href="#font_2_15" transform="matrix(7.9701,0,0,-7.9701,127.22779,104.58499)"/>
<use data-text="t" xlink:href="#font_2_19" transform="matrix(7.9701,0,0,-7.9701,131.45992,104.58499)"/>
<use data-text="e" xlink:href="#font_2_6" transform="matrix(7.9701,0,0,-7.9701,35.76,115.54399)"/>
<use data-text="x" xlink:href="#font_2_22" transform="matrix(7.9701,0,0,-7.9701,39.521886,115.54399)"/>
<use data-text="t" xlink:href="#font_2_19" transform="matrix(7.9701,0,0,-7.9701,43.99311,115.54399)"/>
<use data-text="r" xlink:href="#font_2_17" transform="matrix(7.9701,0,0,-7.9701,47.284765,115.54399)"/>
<use data-text="a" xlink:href="#font_2_1" transform="matrix(7.9701,0,0,-7.9701,50.584386,115.54399)"/>
<use data-text="p" xlink:href="#font_2_16" transform="matrix(7.9701,0,0,-7.9701,54.81651,115.54399)"/>
<use data-text="o" xlink:href="#font_2_15" transform="matrix(7.9701,0,0,-7.9701,59.75797,115.54399)"/>
<use data-text="l" xlink:href="#font_2_12" transform="matrix(7.9701,0,0,-7.9701,63.982126,115.54399)"/>
<use data-text="a" xlink:href="#font_2_1" transform="matrix(7.9701,0,0,-7.9701,66.34128,115.54399)"/>
<use data-text="t" xlink:href="#font_2_19" transform="matrix(7.9701,0,0,-7.9701,70.56543,115.54399)"/>
<use data-text="e" xlink:href="#font_2_6" transform="matrix(7.9701,0,0,-7.9701,73.85708,115.54399)"/>
<use data-text="r" xlink:href="#font_2_17" transform="matrix(7.9701,0,0,-7.9701,80.69543,115.54399)"/>
<use data-text="e" xlink:href="#font_2_6" transform="matrix(7.9701,0,0,-7.9701,83.99505,115.54399)"/>
<use data-text="c" xlink:href="#font_2_3" transform="matrix(7.9701,0,0,-7.9701,87.756938,115.54399)"/>
<use data-text="e" xlink:href="#font_2_6" transform="matrix(7.9701,0,0,-7.9701,91.51882,115.54399)"/>
<use data-text="n" xlink:href="#font_2_14" transform="matrix(7.9701,0,0,-7.9701,95.28071,115.54399)"/>
<use data-text="t" xlink:href="#font_2_19" transform="matrix(7.9701,0,0,-7.9701,99.743968,115.54399)"/>
<use data-text="h" xlink:href="#font_2_9" transform="matrix(7.9701,0,0,-7.9701,106.112079,115.54399)"/>
<use data-text="i" xlink:href="#font_2_24" transform="matrix(7.9701,0,0,-7.9701,110.81444,115.54399)"/>
<use data-text="s" xlink:href="#font_2_18" transform="matrix(7.9701,0,0,-7.9701,113.16562,115.54399)"/>
<use data-text="t" xlink:href="#font_2_19" transform="matrix(7.9701,0,0,-7.9701,116.50509,115.54399)"/>
<use data-text="o" xlink:href="#font_2_15" transform="matrix(7.9701,0,0,-7.9701,119.79674,115.54399)"/>
<use data-text="r" xlink:href="#font_2_17" transform="matrix(7.9701,0,0,-7.9701,124.02886,115.54399)"/>
<use data-text="y" xlink:href="#font_2_23" transform="matrix(7.9701,0,0,-7.9701,127.32848,115.54399)"/>
<path transform="matrix(1,0,0,-1,83.795,33.879999)" d="M242.9364-41.90001H100.05208C97.85114-41.90001 96.06697-43.68417 96.06697-45.88512V-88.93924C96.06697-91.14018 97.85114-92.92435 100.05208-92.92435H242.9364C245.13735-92.92435 246.92151-91.14018 246.92151-88.93924V-45.88512C246.92151-43.68417 245.13735-41.90001 242.9364-41.90001ZM96.06697-92.92435" fill="#f0f3f7"/>
<path transform="matrix(1,0,0,-1,83.795,33.879999)" stroke-width=".79701" stroke-linecap="butt" stroke-miterlimit="10" stroke-linejoin="miter" fill="none" stroke="#003e74" d="M242.9364-41.90001H100.05208C97.85114-41.90001 96.06697-43.68417 96.06697-45.88512V-88.93924C96.06697-91.14018 97.85114-92.92435 100.05208-92.92435H242.9364C245.13735-92.92435 246.92151-91.14018 246.92151-88.93924V-45.88512C246.92151-43.68417 245.13735-41.90001 242.9364-41.90001ZM96.06697-92.92435"/>
<use data-text="4" xlink:href="#font_1_7" transform="matrix(8.9664,0,0,-8.9664,213.075,92.408)"/>
<use data-text="." xlink:href="#font_1_15" transform="matrix(8.9664,0,0,-8.9664,218.3831,92.408)"/>
<use data-text="I" xlink:href="#font_1_8" transform="matrix(8.9664,0,0,-8.9664,225.94179,92.408)"/>
<use data-text="n" xlink:href="#font_1_11" transform="matrix(8.9664,0,0,-8.9664,229.9408,92.408)"/>
<use data-text="t" xlink:href="#font_1_20" transform="matrix(8.9664,0,0,-8.9664,235.53583,92.408)"/>
<use data-text="e" xlink:href="#font_1_5" transform="matrix(8.9664,0,0,-8.9664,239.66037,92.408)"/>
<use data-text="r" xlink:href="#font_1_16" transform="matrix(8.9664,0,0,-8.9664,244.52913,92.408)"/>
<use data-text="p" xlink:href="#font_1_14" transform="matrix(8.9664,0,0,-8.9664,248.90474,92.408)"/>
<use data-text="r" xlink:href="#font_1_16" transform="matrix(8.9664,0,0,-8.9664,254.79567,92.408)"/>
<use data-text="e" xlink:href="#font_1_5" transform="matrix(8.9664,0,0,-8.9664,259.17127,92.408)"/>
<use data-text="t" xlink:href="#font_1_20" transform="matrix(8.9664,0,0,-8.9664,264.04,92.408)"/>
<use data-text="a" xlink:href="#font_1_2" transform="matrix(8.9664,0,0,-8.9664,268.16456,92.408)"/>
<use data-text="b" xlink:href="#font_1_3" transform="matrix(8.9664,0,0,-8.9664,273.32023,92.408)"/>
<use data-text="i" xlink:href="#font_1_25" transform="matrix(8.9664,0,0,-8.9664,279.21116,92.408)"/>
<use data-text="l" xlink:href="#font_1_9" transform="matrix(8.9664,0,0,-8.9664,282.1611,92.408)"/>
<use data-text="i" xlink:href="#font_1_25" transform="matrix(8.9664,0,0,-8.9664,285.11106,92.408)"/>
<use data-text="t" xlink:href="#font_1_20" transform="matrix(8.9664,0,0,-8.9664,288.061,92.408)"/>
<use data-text="y" xlink:href="#font_1_24" transform="matrix(8.9664,0,0,-8.9664,291.88966,92.408)"/>
<use data-text="r" xlink:href="#font_2_17" transform="matrix(7.9701,0,0,-7.9701,209.157,105.36)"/>
<use data-text="e" xlink:href="#font_2_6" transform="matrix(7.9701,0,0,-7.9701,212.45662,105.36)"/>
<use data-text="a" xlink:href="#font_2_1" transform="matrix(7.9701,0,0,-7.9701,216.2185,105.36)"/>
<use data-text="d" xlink:href="#font_2_5" transform="matrix(7.9701,0,0,-7.9701,220.45063,105.36)"/>
<use data-text="t" xlink:href="#font_2_19" transform="matrix(7.9701,0,0,-7.9701,228.22147,105.36)"/>
<use data-text="h" xlink:href="#font_2_9" transform="matrix(7.9701,0,0,-7.9701,231.51313,105.36)"/>
<use data-text="e" xlink:href="#font_2_6" transform="matrix(7.9701,0,0,-7.9701,236.21549,105.36)"/>
<use data-text="d" xlink:href="#font_2_5" transform="matrix(7.9701,0,0,-7.9701,243.05384,105.36)"/>
<use data-text="e" xlink:href="#font_2_6" transform="matrix(7.9701,0,0,-7.9701,247.7562,105.36)"/>
<use data-text="m" xlink:href="#font_2_13" transform="matrix(7.9701,0,0,-7.9701,251.51808,105.36)"/>
<use data-text="a" xlink:href="#font_2_1" transform="matrix(7.9701,0,0,-7.9701,258.57164,105.36)"/>
<use data-text="n" xlink:href="#font_2_14" transform="matrix(7.9701,0,0,-7.9701,262.80375,105.36)"/>
<use data-text="d" xlink:href="#font_2_5" transform="matrix(7.9701,0,0,-7.9701,267.5061,105.36)"/>
<use data-text="m" xlink:href="#font_2_13" transform="matrix(7.9701,0,0,-7.9701,275.27696,105.36)"/>
<use data-text="e" xlink:href="#font_2_6" transform="matrix(7.9701,0,0,-7.9701,282.33049,105.36)"/>
<use data-text="c" xlink:href="#font_2_3" transform="matrix(7.9701,0,0,-7.9701,286.09239,105.36)"/>
<use data-text="h" xlink:href="#font_2_9" transform="matrix(7.9701,0,0,-7.9701,289.62315,105.36)"/>
<use data-text="a" xlink:href="#font_2_1" transform="matrix(7.9701,0,0,-7.9701,294.3255,105.36)"/>
<use data-text="-" xlink:href="#font_2_10" transform="matrix(7.9701,0,0,-7.9701,298.55763,105.36)"/>
<use data-text="n" xlink:href="#font_2_14" transform="matrix(7.9701,0,0,-7.9701,210.065,116.319)"/>
<use data-text="i" xlink:href="#font_2_24" transform="matrix(7.9701,0,0,-7.9701,214.76737,116.319)"/>
<use data-text="s" xlink:href="#font_2_18" transform="matrix(7.9701,0,0,-7.9701,217.11855,116.319)"/>
<use data-text="m" xlink:href="#font_2_13" transform="matrix(7.9701,0,0,-7.9701,220.45803,116.319)"/>
<use data-text="&#x2014;" xlink:href="#font_2_7" transform="matrix(7.9701,0,0,-7.9701,230.58005,116.319)"/>
<use data-text="n" xlink:href="#font_2_14" transform="matrix(7.9701,0,0,-7.9701,242.12873,116.319)"/>
<use data-text="o" xlink:href="#font_2_15" transform="matrix(7.9701,0,0,-7.9701,246.83109,116.319)"/>
<use data-text="t" xlink:href="#font_2_19" transform="matrix(7.9701,0,0,-7.9701,251.0632,116.319)"/>
<use data-text="a" xlink:href="#font_2_1" transform="matrix(7.9701,0,0,-7.9701,257.42335,116.319)"/>
<use data-text="b" xlink:href="#font_2_2" transform="matrix(7.9701,0,0,-7.9701,264.7319,116.319)"/>
<use data-text="l" xlink:href="#font_2_12" transform="matrix(7.9701,0,0,-7.9701,269.43428,116.319)"/>
<use data-text="a" xlink:href="#font_2_1" transform="matrix(7.9701,0,0,-7.9701,271.78544,116.319)"/>
<use data-text="c" xlink:href="#font_2_3" transform="matrix(7.9701,0,0,-7.9701,276.00959,116.319)"/>
<use data-text="k" xlink:href="#font_2_11" transform="matrix(7.9701,0,0,-7.9701,279.54035,116.319)"/>
<use data-text="b" xlink:href="#font_2_2" transform="matrix(7.9701,0,0,-7.9701,287.08006,116.319)"/>
<use data-text="o" xlink:href="#font_2_15" transform="matrix(7.9701,0,0,-7.9701,292.0215,116.319)"/>
<use data-text="x" xlink:href="#font_2_22" transform="matrix(7.9701,0,0,-7.9701,296.01454,116.319)"/>
</svg>
