<svg xmlns="http://www.w3.org/2000/svg" xmlns:xlink="http://www.w3.org/1999/xlink" xmlns:inkscape="http://www.inkscape.org/namespaces/inkscape" version="1.1" width="141.865" height="117.64" viewBox="0 0 141.865 117.64">
<defs>
<clipPath id="clip_1">
<path transform="matrix(1,0,0,-1,19.792,99.397998)" d="M0 0H113.90538V91.2301H0Z"/>
</clipPath>
<path id="font_2_1" d="M.5249939 .143219C.5249939 .15322876 .5169983 .15623474 .5099945 .15623474 .49798585 .15623474 .49598695 .14923096 .49299623 .13922119 .47299195 .07218933 .41600038 .018234253 .35798646 .018234253 .32499696 .018234253 .30099488 .04019165 .30099488 .0821991 .30099488 .10218811 .30699159 .12519837 .32099916 .18127442L.35499574 .31843568C.36898805 .37042237 .4039917 .4133911 .44898988 .4133911 .45399476 .4133911 .47999574 .4133911 .5009918 .39942933 .45700074 .38842774 .45498658 .34942628 .45498658 .34542848 .45498658 .3234253 .47200013 .3084259 .49398805 .3084259 .5159912 .3084259 .5499878 .3254242 .5499878 .36842347 .5499878 .42539979 .4869995 .44140626 .44999696 .44140626 .40299989 .44140626 .36499024 .4084015 .34199525 .36943055 .31999208 .4223938 .2679901 .44140626 .22698975 .44140626 .117996219 .44140626 .056991579 .31643678 .056991579 .28840638 .056991579 .27938844 .06399536 .27539063 .07199097 .27539063 .083999637 .27539063 .085998538 .2803955 .08898926 .29240418 .11199951 .36543275 .17199707 .4133911 .22399903 .4133911 .2630005 .4133911 .28199769 .385437 .28199769 .34942628 .28199769 .32943727 .269989 .2834015 .2619934 .25135804L.22799683 .11419678C.21398926 .060195924 .17799378 .018234253 .1329956 .018234253 .1289978 .018234253 .102996829 .018234253 .08198547 .032196046 .12799073 .04319763 .12799073 .0861969 .12799073 .0861969 .12799073 .109191898 .10998535 .12319946 .08799744 .12319946 .06098938 .12319946 .03199768 .10018921 .03199768 .062194826 .03199768 .016220093 .08099365-.009765625 .13198853-.009765625 .18499756-.009765625 .22200012 .030197144 .23999024 .062194826 .2619934 .01322937 .30799867-.009765625 .35598756-.009765625 .46499635-.009765625 .5249939 .1151886 .5249939 .143219Z"/>
<path id="font_2_2" d="M.5179901 .37738038C.5219879 .39138795 .5219879 .39338685 .5219879 .40039063 .5219879 .42539979 .5019989 .43139649 .48999024 .43139649 .4850006 .43139649 .46199037 .43040467 .44898988 .40438844 .44699098 .3993988 .43798829 .3633728 .43299867 .34236146L.37298585 .102264408C.37199403 .09925842 .32899476 .018234253 .2559967 .018234253 .20698548 .018234253 .18998719 .054244996 .18998719 .09925842 .18998719 .1572876 .22399903 .24632263 .24699402 .3043518 .25698854 .32936097 .2599945 .33836366 .2599945 .35636903 .2599945 .4113922 .21598816 .44140626 .16999817 .44140626 .070999149 .44140626 .02999878 .300354 .02999878 .28834535 .02999878 .27934266 .036987306 .27534486 .04499817 .27534486 .057998659 .27534486 .05899048 .28134156 .06199646 .29135133 .08799744 .37838746 .1309967 .4133911 .16699219 .4133911 .18199158 .4133911 .19099427 .4033966 .19099427 .38038636 .19099427 .359375 .18299866 .33636476 .17599488 .31835938 .1349945 .21231079 .117996219 .1612854 .117996219 .11427307 .117996219 .016220093 .19198609-.009765625 .25099183-.009765625 .2979889-.009765625 .33198548 .011230469 .35598756 .034240724 .34199525-.021774292 .33198548-.060791017 .2939911-.108795169 .26098634-.14979553 .22099304-.17578125 .17599488-.17578125 .15899658-.17578125 .12098694-.17279053 .100997928-.14279175 .1539917-.13879395 .1579895-.09379578 .1579895-.08778381 .1579895-.06378174 .13999939-.05078125 .11898804-.05078125 .09700012-.05078125 .06199646-.0677948 .06199646-.11679077 .06199646-.16378784 .10499573-.20379639 .17599488-.20379639 .27799989-.20379639 .3929901-.121795658 .4229889-.00077819827L.5179901 .37738038Z"/>
</defs>
<path transform="matrix(1,0,0,-1,19.792,99.397998)" stroke-width=".19925" stroke-linecap="butt" stroke-miterlimit="10" stroke-linejoin="miter" fill="none" stroke="#7f807f" d=""/>
<path transform="matrix(1,0,0,-1,19.792,99.397998)" stroke-width=".19925" stroke-linecap="butt" stroke-miterlimit="10" stroke-linejoin="miter" fill="none" stroke="#7f807f" d=""/>
<path transform="matrix(1,0,0,-1,19.792,99.397998)" stroke-width=".3985" stroke-linecap="butt" stroke-miterlimit="10" stroke-linejoin="miter" fill="none" stroke="#555555" d="M0 0V91.2301H113.90538V0H0Z"/>
<g clip-path="url(#clip_1)">
<path transform="matrix(1,0,0,-1,19.792,99.397998)" stroke-width="1.0959" stroke-linecap="butt" stroke-miterlimit="10" stroke-linejoin="miter" fill="none" stroke="#006e5a" d="M5.69527 19.77122 9.8876 31.29008 14.07994 40.7166 18.27228 48.45383 22.46463 54.7953 26.65698 59.99025 30.84932 64.2561 35.04166 67.74336 39.23401 70.61346 43.42635 72.95503 47.6187 74.87932 51.81104 76.45622 56.00339 77.7488 60.19572 78.80844 64.38808 79.67705 68.58041 80.38914 72.77277 80.97287 76.9651 81.45137 81.15744 81.8436 85.3498 82.16518 89.54214 82.42877 93.73448 82.64487 97.92682 82.82196 102.11917 82.9672 106.31152 83.08623"/>
<path transform="matrix(1,0,0,-1,19.792,99.397998)" stroke-width=".99628" stroke-linecap="butt" stroke-dasharray="2.98883,2.98883" stroke-miterlimit="10" stroke-linejoin="miter" fill="none" stroke="#b23232" d="M5.69527 27.74915 9.8876 30.26747 14.07994 32.7858 18.27228 35.30412 22.46463 37.82243 26.65698 40.34079 30.84932 42.85912 35.04166 45.37744 39.23401 47.89577 43.42635 50.41408 47.6187 52.93242 51.81104 55.45074 56.00339 57.96907 60.19572 60.48738 64.38808 63.00572 68.58041 65.52406 72.77277 68.04239 76.9651 70.5607 81.15744 73.07904 85.3498 75.59737 89.54214 78.11569 93.73448 80.634 97.92682 83.15234 102.11917 85.67067 106.31152 88.189"/>
</g>
<path transform="matrix(1,0,0,-1,19.792,99.397998)" d="M8.88885 7.60251C8.88885 8.3178 8.30899 8.89766 7.59369 8.89766 6.87839 8.89766 6.29852 8.3178 6.29852 7.60251 6.29852 6.8872 6.87839 6.30734 7.59369 6.30734 8.30899 6.30734 8.88885 6.8872 8.88885 7.60251ZM7.59369 7.60251" fill="#4682b4"/>
<path transform="matrix(1,0,0,-1,19.792,99.397998)" stroke-width=".3985" stroke-linecap="butt" stroke-miterlimit="10" stroke-linejoin="miter" fill="none" stroke="#4682b4" d="M8.88885 7.60251C8.88885 8.3178 8.30899 8.89766 7.59369 8.89766 6.87839 8.89766 6.29852 8.3178 6.29852 7.60251 6.29852 6.8872 6.87839 6.30734 7.59369 6.30734 8.30899 6.30734 8.88885 6.8872 8.88885 7.60251ZM7.59369 7.60251"/>
<path transform="matrix(1,0,0,-1,19.792,99.397998)" d="M16.48254 21.28702C16.48254 22.00232 15.90268 22.58218 15.18738 22.58218 14.47208 22.58218 13.89221 22.00232 13.89221 21.28702 13.89221 20.57172 14.47208 19.99185 15.18738 19.99185 15.90268 19.99185 16.48254 20.57172 16.48254 21.28702ZM15.18738 21.28702" fill="#4682b4"/>
<path transform="matrix(1,0,0,-1,19.792,99.397998)" stroke-width=".3985" stroke-linecap="butt" stroke-miterlimit="10" stroke-linejoin="miter" fill="none" stroke="#4682b4" d="M16.48254 21.28702C16.48254 22.00232 15.90268 22.58218 15.18738 22.58218 14.47208 22.58218 13.89221 22.00232 13.89221 21.28702 13.89221 20.57172 14.47208 19.99185 15.18738 19.99185 15.90268 19.99185 16.48254 20.57172 16.48254 21.28702ZM15.18738 21.28702"/>
<path transform="matrix(1,0,0,-1,19.792,99.397998)" d="M24.07623 34.97154C24.07623 35.68683 23.49637 36.2667 22.78107 36.2667 22.06577 36.2667 21.4859 35.68683 21.4859 34.97154 21.4859 34.25624 22.06577 33.67638 22.78107 33.67638 23.49637 33.67638 24.07623 34.25624 24.07623 34.97154ZM22.78107 34.97154" fill="#4682b4"/>
<path transform="matrix(1,0,0,-1,19.792,99.397998)" stroke-width=".3985" stroke-linecap="butt" stroke-miterlimit="10" stroke-linejoin="miter" fill="none" stroke="#4682b4" d="M24.07623 34.97154C24.07623 35.68683 23.49637 36.2667 22.78107 36.2667 22.06577 36.2667 21.4859 35.68683 21.4859 34.97154 21.4859 34.25624 22.06577 33.67638 22.78107 33.67638 23.49637 33.67638 24.07623 34.25624 24.07623 34.97154ZM22.78107 34.97154"/>
<path transform="matrix(1,0,0,-1,19.792,99.397998)" d="M31.66992 50.17656C31.66992 50.89185 31.09006 51.47171 30.37476 51.47171 29.65947 51.47171 29.0796 50.89185 29.0796 50.17656 29.0796 49.46126 29.65947 48.8814 30.37476 48.8814 31.09006 48.8814 31.66992 49.46126 31.66992 50.17656ZM30.37476 50.17656" fill="#4682b4"/>
<path transform="matrix(1,0,0,-1,19.792,99.397998)" stroke-width=".3985" stroke-linecap="butt" stroke-miterlimit="10" stroke-linejoin="miter" fill="none" stroke="#4682b4" d="M31.66992 50.17656C31.66992 50.89185 31.09006 51.47171 30.37476 51.47171 29.65947 51.47171 29.0796 50.89185 29.0796 50.17656 29.0796 49.46126 29.65947 48.8814 30.37476 48.8814 31.09006 48.8814 31.66992 49.46126 31.66992 50.17656ZM30.37476 50.17656"/>
<path transform="matrix(1,0,0,-1,19.792,99.397998)" d="M39.26361 60.82007C39.26361 61.53537 38.68375 62.11523 37.96846 62.11523 37.25316 62.11523 36.6733 61.53537 36.6733 60.82007 36.6733 60.10477 37.25316 59.5249 37.96846 59.5249 38.68375 59.5249 39.26361 60.10477 39.26361 60.82007ZM37.96846 60.82007" fill="#4682b4"/>
<path transform="matrix(1,0,0,-1,19.792,99.397998)" stroke-width=".3985" stroke-linecap="butt" stroke-miterlimit="10" stroke-linejoin="miter" fill="none" stroke="#4682b4" d="M39.26361 60.82007C39.26361 61.53537 38.68375 62.11523 37.96846 62.11523 37.25316 62.11523 36.6733 61.53537 36.6733 60.82007 36.6733 60.10477 37.25316 59.5249 37.96846 59.5249 38.68375 59.5249 39.26361 60.10477 39.26361 60.82007ZM37.96846 60.82007"/>
<path transform="matrix(1,0,0,-1,19.792,99.397998)" d="M46.85732 69.94308C46.85732 70.65837 46.27745 71.23824 45.56215 71.23824 44.84685 71.23824 44.26698 70.65837 44.26698 69.94308 44.26698 69.22778 44.84685 68.64792 45.56215 68.64792 46.27745 68.64792 46.85732 69.22778 46.85732 69.94308ZM45.56215 69.94308" fill="#4682b4"/>
<path transform="matrix(1,0,0,-1,19.792,99.397998)" stroke-width=".3985" stroke-linecap="butt" stroke-miterlimit="10" stroke-linejoin="miter" fill="none" stroke="#4682b4" d="M46.85732 69.94308C46.85732 70.65837 46.27745 71.23824 45.56215 71.23824 44.84685 71.23824 44.26698 70.65837 44.26698 69.94308 44.26698 69.22778 44.84685 68.64792 45.56215 68.64792 46.27745 68.64792 46.85732 69.22778 46.85732 69.94308ZM45.56215 69.94308"/>
<path transform="matrix(1,0,0,-1,19.792,99.397998)" d="M54.451 76.02509C54.451 76.74039 53.87114 77.32025 53.15584 77.32025 52.44054 77.32025 51.86067 76.74039 51.86067 76.02509 51.86067 75.30978 52.44054 74.72992 53.15584 74.72992 53.87114 74.72992 54.451 75.30978 54.451 76.02509ZM53.15584 76.02509" fill="#4682b4"/>
<path transform="matrix(1,0,0,-1,19.792,99.397998)" stroke-width=".3985" stroke-linecap="butt" stroke-miterlimit="10" stroke-linejoin="miter" fill="none" stroke="#4682b4" d="M54.451 76.02509C54.451 76.74039 53.87114 77.32025 53.15584 77.32025 52.44054 77.32025 51.86067 76.74039 51.86067 76.02509 51.86067 75.30978 52.44054 74.72992 53.15584 74.72992 53.87114 74.72992 54.451 75.30978 54.451 76.02509ZM53.15584 76.02509"/>
<path transform="matrix(1,0,0,-1,19.792,99.397998)" d="M62.0447 79.06609C62.0447 79.78139 61.46483 80.36125 60.74953 80.36125 60.03423 80.36125 59.45436 79.78139 59.45436 79.06609 59.45436 78.35078 60.03423 77.77092 60.74953 77.77092 61.46483 77.77092 62.0447 78.35078 62.0447 79.06609ZM60.74953 79.06609" fill="#4682b4"/>
<path transform="matrix(1,0,0,-1,19.792,99.397998)" stroke-width=".3985" stroke-linecap="butt" stroke-miterlimit="10" stroke-linejoin="miter" fill="none" stroke="#4682b4" d="M62.0447 79.06609C62.0447 79.78139 61.46483 80.36125 60.74953 80.36125 60.03423 80.36125 59.45436 79.78139 59.45436 79.06609 59.45436 78.35078 60.03423 77.77092 60.74953 77.77092 61.46483 77.77092 62.0447 78.35078 62.0447 79.06609ZM60.74953 79.06609"/>
<path transform="matrix(1,0,0,-1,19.792,99.397998)" d="M69.63838 80.5866C69.63838 81.3019 69.05852 81.88176 68.34322 81.88176 67.62793 81.88176 67.04807 81.3019 67.04807 80.5866 67.04807 79.87129 67.62793 79.29143 68.34322 79.29143 69.05852 79.29143 69.63838 79.87129 69.63838 80.5866ZM68.34322 80.5866" fill="#4682b4"/>
<path transform="matrix(1,0,0,-1,19.792,99.397998)" stroke-width=".3985" stroke-linecap="butt" stroke-miterlimit="10" stroke-linejoin="miter" fill="none" stroke="#4682b4" d="M69.63838 80.5866C69.63838 81.3019 69.05852 81.88176 68.34322 81.88176 67.62793 81.88176 67.04807 81.3019 67.04807 80.5866 67.04807 79.87129 67.62793 79.29143 68.34322 79.29143 69.05852 79.29143 69.63838 79.87129 69.63838 80.5866ZM68.34322 80.5866"/>
<path transform="matrix(1,0,0,-1,19.792,99.397998)" d="M81.02893 81.34685C81.02893 82.06215 80.44907 82.642 79.73376 82.642 79.01846 82.642 78.4386 82.06215 78.4386 81.34685 78.4386 80.63155 79.01846 80.05168 79.73376 80.05168 80.44907 80.05168 81.02893 80.63155 81.02893 81.34685ZM79.73376 81.34685" fill="#4682b4"/>
<path transform="matrix(1,0,0,-1,19.792,99.397998)" stroke-width=".3985" stroke-linecap="butt" stroke-miterlimit="10" stroke-linejoin="miter" fill="none" stroke="#4682b4" d="M81.02893 81.34685C81.02893 82.06215 80.44907 82.642 79.73376 82.642 79.01846 82.642 78.4386 82.06215 78.4386 81.34685 78.4386 80.63155 79.01846 80.05168 79.73376 80.05168 80.44907 80.05168 81.02893 80.63155 81.02893 81.34685ZM79.73376 81.34685"/>
<path transform="matrix(1,0,0,-1,19.792,99.397998)" d="M92.41946 82.10709C92.41946 82.82239 91.8396 83.40225 91.1243 83.40225 90.409 83.40225 89.82913 82.82239 89.82913 82.10709 89.82913 81.3918 90.409 80.81194 91.1243 80.81194 91.8396 80.81194 92.41946 81.3918 92.41946 82.10709ZM91.1243 82.10709" fill="#4682b4"/>
<path transform="matrix(1,0,0,-1,19.792,99.397998)" stroke-width=".3985" stroke-linecap="butt" stroke-miterlimit="10" stroke-linejoin="miter" fill="none" stroke="#4682b4" d="M92.41946 82.10709C92.41946 82.82239 91.8396 83.40225 91.1243 83.40225 90.409 83.40225 89.82913 82.82239 89.82913 82.10709 89.82913 81.3918 90.409 80.81194 91.1243 80.81194 91.8396 80.81194 92.41946 81.3918 92.41946 82.10709ZM91.1243 82.10709"/>
<path transform="matrix(1,0,0,-1,19.792,99.397998)" d="M103.81 82.86734C103.81 83.58264 103.23013 84.1625 102.51483 84.1625 101.79955 84.1625 101.21968 83.58264 101.21968 82.86734 101.21968 82.15204 101.79955 81.57219 102.51483 81.57219 103.23013 81.57219 103.81 82.15204 103.81 82.86734ZM102.51483 82.86734" fill="#4682b4"/>
<path transform="matrix(1,0,0,-1,19.792,99.397998)" stroke-width=".3985" stroke-linecap="butt" stroke-miterlimit="10" stroke-linejoin="miter" fill="none" stroke="#4682b4" d="M103.81 82.86734C103.81 83.58264 103.23013 84.1625 102.51483 84.1625 101.79955 84.1625 101.21968 83.58264 101.21968 82.86734 101.21968 82.15204 101.79955 81.57219 102.51483 81.57219 103.23013 81.57219 103.81 82.15204 103.81 82.86734ZM102.51483 82.86734"/>
<path transform="matrix(1,0,0,-1,19.792,99.397998)" stroke-width=".3985" stroke-linecap="butt" stroke-miterlimit="10" stroke-linejoin="miter" fill="none" stroke="#4682b4" d=""/>
<use data-text="x" xlink:href="#font_2_1" transform="matrix(7.9701,0,0,-7.9701,74.36,106.349)"/>
<use data-text="y" xlink:href="#font_2_2" transform="matrix(0,-7.9701,-7.9701,-0,14.722004,56.018999)"/>
</svg>
