<svg xmlns="http://www.w3.org/2000/svg" xmlns:xlink="http://www.w3.org/1999/xlink" xmlns:inkscape="http://www.inkscape.org/namespaces/inkscape" version="1.1" width="312.157" height="140.218" viewBox="0 0 312.157 140.218">
<defs>
<path id="font_1_14" d="M.6239929 .4967041C.6239929 .59465029 .5249939 .6826172 .3880005 .6826172H.034988405V.6516113H.05899048C.13598633 .6516113 .13798523 .64060977 .13798523 .6046295V.07795715C.13798523 .041992189 .13598633 .0309906 .05899048 .0309906H.034988405V0C.069992069 .0029907227 .14399719 .0029907227 .18199158 .0029907227 .21998596 .0029907227 .29499818 .0029907227 .32998658 0V.0309906H.30599977C.22898865 .0309906 .22698975 .041992189 .22698975 .07795715V.3157959H.3959961C.5159912 .3157959 .6239929 .39675904 .6239929 .4967041M.5209961 .4967041C.5209961 .4497223 .5209961 .34179688 .3619995 .34179688H.22399903V.6116333C.22399903 .64460757 .22599793 .6516113 .272995 .6516113H.3619995C.5209961 .6516113 .5209961 .54566958 .5209961 .4967041Z"/>
<path id="font_1_17" d="M.3639984 .38137818C.3639984 .41337586 .33299256 .4423828 .2899933 .4423828 .21699524 .4423828 .18099976 .37538148 .16699219 .3323822V.4423828L.027999878 .43066407V.3996582C.09799194 .3996582 .10598755 .39266969 .10598755 .34370423V.07595825C.10598755 .0309906 .09498596 .0309906 .027999878 .0309906V0L.14199829 .0029907227C.18199158 .0029907227 .22898865 .0029907227 .2689972 0V.0309906H.24798584C.17399597 .0309906 .17199707 .04197693 .17199707 .07795715V.23181153C.17199707 .33137513 .21398926 .42037965 .2899933 .42037965 .29699708 .42037965 .29899598 .42037965 .30099488 .41937257 .2979889 .41838075 .27799989 .40637208 .27799989 .3803711 .27799989 .35237123 .29899598 .33737184 .32099916 .33737184 .33898927 .33737184 .3639984 .3493805 .3639984 .38137818Z"/>
<path id="font_1_4" d="M.4149933 .11933899C.4149933 .12934876 .40699769 .13134766 .4019928 .13134766 .3929901 .13134766 .3909912 .12535095 .3889923 .11734009 .35398866 .014251709 .2639923 .014251709 .2539978 .014251709 .20399475 .014251709 .1639862 .044281007 .14099121 .08131409 .11099243 .12934876 .11099243 .19540406 .11099243 .23144531H.3899994C.4119873 .23144531 .4149933 .23144531 .4149933 .2524414 .4149933 .35131837 .36099244 .4482422 .23599243 .4482422 .11999512 .4482422 .027999878 .34532167 .027999878 .22042847 .027999878 .08631897 .1329956-.0107421879 .24798584-.0107421879 .36999513-.0107421879 .4149933 .10032654 .4149933 .11933899M.34899903 .2524414H.11199951C.117996219 .40126039 .20199585 .426239 .23599243 .426239 .33898927 .426239 .34899903 .2913971 .34899903 .2524414Z"/>
<path id="font_1_3" d="M.5269928 0V.0309906C.45700074 .0309906 .44898988 .038009645 .44898988 .0871582V.69433596L.30499269 .6826172V.6516113C.375 .6516113 .3829956 .64463809 .3829956 .59580996V.38035584C.35398866 .41636659 .31098939 .4423828 .25698854 .4423828 .13899231 .4423828 .033996583 .3443451 .033996583 .21531677 .033996583 .088272098 .13198853-.0107421879 .24598694-.0107421879 .30999757-.0107421879 .35499574 .023254395 .37998963 .055267335V-.0107421879L.5269928 0M.37998963 .117996219C.37998963 .099990848 .37998963 .09799194 .36898805 .08099365 .33898927 .033218385 .2939911 .011245728 .25099183 .011245728 .20599365 .011245728 .16999817 .037216188 .1459961 .075164798 .11999512 .1161499 .116989139 .17320252 .116989139 .21421814 .116989139 .25125123 .11898804 .31129457 .147995 .35632325 .16899109 .38734437 .20698548 .42037965 .26098634 .42037965 .29599 .42037965 .33799745 .405365 .36898805 .3603363 .37998963 .34332276 .37998963 .34132386 .37998963 .32330323V.117996219Z"/>
<path id="font_1_22" d="M.24699402 0V.0309906C.18099976 .0309906 .1769867 .035995485 .1769867 .075042728V.4423828L.036987306 .43066407V.3996582C.101989749 .3996582 .11099243 .3936615 .11099243 .3447113V.07595825C.11099243 .0309906 .099990848 .0309906 .032989503 .0309906V0L.14299011 .0029907227C.17799378 .0029907227 .21299744 .0009918213 .24699402 0M.19198609 .6042175C.19198609 .6312256 .16899109 .65722659 .13899231 .65722659 .10499573 .65722659 .084991458 .6292114 .084991458 .6042175 .084991458 .57722476 .10798645 .55122378 .13798523 .55122378 .17199707 .55122378 .19198609 .57922366 .19198609 .6042175Z"/>
<path id="font_1_2" d="M.4149933 .119140628C.4149933 .12911988 .40499879 .12911988 .4019928 .12911988 .3929901 .12911988 .3909912 .12512207 .3889923 .119140628 .3600006 .026229859 .29499818 .014251709 .2579956 .014251709 .20498657 .014251709 .116989139 .0572052 .116989139 .21801758 .116989139 .38093568 .19898987 .42323304 .2519989 .42323304 .26098634 .42323304 .32398988 .42222596 .35899354 .38594056 .31799317 .38293458 .31199647 .3529358 .31199647 .3399353 .31199647 .31393434 .32998658 .2939453 .35798646 .2939453 .38398744 .2939453 .4039917 .3109436 .4039917 .34094239 .4039917 .40911866 .32798768 .4482422 .25099183 .4482422 .12599182 .4482422 .033996583 .3399353 .033996583 .21601868 .033996583 .08816528 .1329956-.0107421879 .24899292-.0107421879 .3829956-.0107421879 .4149933 .10914612 .4149933 .119140628Z"/>
<path id="font_1_19" d="M.33198548 .12385559V.18066406H.30699159V.12585449C.30699159 .052108766 .2769928 .014251709 .23999024 .014251709 .17298889 .014251709 .17298889 .10491943 .17298889 .12187195V.3996582H.31599427V.43066407H.17298889V.6142578H.147995C.14698792 .5324249 .116989139 .42565919 .018997193 .42166139V.3996582H.10398865V.12408447C.10398865 .0012512207 .19699097-.0107421879 .23298645-.0107421879 .3039856-.0107421879 .33198548 .060180665 .33198548 .12408447V.12385559Z"/>
<path id="font_1_10" d="M.25498963 0V.0309906C.18798828 .0309906 .1769867 .0309906 .1769867 .07601929V.69433596L.032989503 .6826172V.6516113C.102996829 .6516113 .11099243 .64460757 .11099243 .5956421V.07595825C.11099243 .0309906 .099990848 .0309906 .032989503 .0309906V0L.14399719 .0029907227 .25498963 0Z"/>
<path id="font_1_13" d="M.47099305 .21424866C.47099305 .34223939 .37098695 .4482422 .25 .4482422 .125 .4482422 .027999878 .3392334 .027999878 .21424866 .027999878 .085250858 .13198853-.0107421879 .24899292-.0107421879 .36999513-.0107421879 .47099305 .087249759 .47099305 .21424866M.3880005 .22224427C.3880005 .18624878 .3880005 .13224793 .3659973 .08824158 .34399415 .04324341 .2999878 .014251709 .25 .014251709 .20698548 .014251709 .16299439 .035247804 .13598633 .08125305 .11099243 .12524414 .11099243 .18624878 .11099243 .22224427 .11099243 .26124574 .11099243 .31523133 .1349945 .35923768 .1619873 .40522767 .20899964 .426239 .24899292 .426239 .29299928 .426239 .33599855 .40423585 .3619995 .36123658 .3880005 .3182373 .3880005 .26023866 .3880005 .22224427Z"/>
<path id="font_1_12" d="M.5349884 0V.0309906C.48298646 .0309906 .45799256 .0309906 .45700074 .061019899V.25221253C.45700074 .3383026 .45700074 .36932374 .42599488 .405365 .4119873 .42237855 .3789978 .4423828 .32099916 .4423828 .24798584 .4423828 .20098877 .39935304 .17298889 .33729554V.4423828L.03199768 .43066407V.3996582C.101989749 .3996582 .10998535 .39266969 .10998535 .34370423V.07595825C.10998535 .0309906 .09899902 .0309906 .03199768 .0309906V0L.14498902 .0029907227 .25698854 0V.0309906C.18998719 .0309906 .1789856 .0309906 .1789856 .07595825V.25978089C.1789856 .36431886 .25 .42037965 .31399537 .42037965 .3769989 .42037965 .3880005 .36631776 .3880005 .30926515V.076034549C.3880005 .0309906 .3769989 .0309906 .30999757 .0309906V0L.4229889 .0029907227 .5349884 0Z"/>
<path id="font_1_7" d="M.4850006 .40411378C.4850006 .42111207 .47299195 .453125 .43399049 .453125 .4139862 .453125 .36999513 .44711305 .32798768 .40611268 .28599549 .43937684 .24398804 .4423828 .22200012 .4423828 .1289978 .4423828 .05999756 .37338258 .05999756 .29638673 .05999756 .25239564 .08198547 .21440125 .10699463 .19340515 .09399414 .17840576 .07598877 .14538574 .07598877 .11035156 .07598877 .07899475 .08898926 .04083252 .11999512 .020828248 .05999756 .003829956 .027999878-.039138795 .027999878-.07911682 .027999878-.15107727 .1269989-.20605469 .24899292-.20605469 .36698915-.20605469 .47099305-.15507508 .47099305-.07711792 .47099305-.042144777 .45700074 .008834839 .4059906 .036834718 .35299684 .064834598 .29499818 .064834598 .23399353 .064834598 .20899964 .064834598 .1659851 .064834598 .15899658 .065841678 .1269989 .069885257 .10598755 .101242069 .10598755 .13334656 .10598755 .13735962 .10598755 .16040039 .12298584 .18040467 .1619873 .15240479 .20298767 .14941406 .22200012 .14941406 .31498719 .14941406 .38398744 .21839905 .38398744 .2953949 .38398744 .3323822 .36799623 .36938478 .34298707 .39237977 .3789978 .42637635 .4149933 .43138124 .43299867 .43138124 .43299867 .43112184 .43998719 .43112184 .44299317 .43011476 .43199159 .42611695 .4269867 .41513063 .4269867 .40315248 .4269867 .38616944 .43998719 .37417604 .45599366 .37417604 .46598817 .37417604 .4850006 .3811798 .4850006 .4041443V.40411378M.30899049 .29626466C.30899049 .26930238 .30799867 .2373352 .29299928 .21235657 .2849884 .20037842 .2619934 .17240906 .22200012 .17240906 .1349945 .17240906 .1349945 .2722931 .1349945 .29527284 .1349945 .3222351 .13598633 .35420228 .15098572 .3791809 .15899658 .3913269 .18199158 .41937257 .22200012 .41937257 .30899049 .41937257 .30899049 .31922914 .30899049 .29618836V.29626466M.4189911-.07911682C.4189911-.13308716 .34799195-.18305969 .25-.18305969 .14898682-.18305969 .07998657-.13209534 .07998657-.07911682 .07998657-.03314209 .117996219 .003829956 .1619873 .0068359377H.22099304C.30699159 .0068359377 .4189911 .0068359377 .4189911-.07911682Z"/>
<path id="font_1_9" d="M.27598573 .18710327V.24511719H.010986328V.18710327H.27598573Z"/>
<path id="font_1_11" d="M.8129883 0V.0309906C.7609863 .0309906 .73599246 .0309906 .7350006 .061019899V.25221253C.7350006 .3383026 .7350006 .36932374 .70399478 .405365 .6899872 .42237855 .6569977 .4423828 .598999 .4423828 .5149994 .4423828 .47099305 .38233949 .45399476 .34429933 .43998719 .43138124 .3659973 .4423828 .32099916 .4423828 .24798584 .4423828 .20098877 .39935304 .17298889 .33729554V.4423828L.03199768 .43066407V.3996582C.101989749 .3996582 .10998535 .39266969 .10998535 .34370423V.07595825C.10998535 .0309906 .09899902 .0309906 .03199768 .0309906V0L.14498902 .0029907227 .25698854 0V.0309906C.18998719 .0309906 .1789856 .0309906 .1789856 .07595825V.25978089C.1789856 .36431886 .25 .42037965 .31399537 .42037965 .3769989 .42037965 .3880005 .36631776 .3880005 .30926515V.076034549C.3880005 .0309906 .3769989 .0309906 .30999757 .0309906V0L.4229889 .0029907227 .5349884 0V.0309906C.46798707 .0309906 .45700074 .0309906 .45700074 .076034549V.2602234C.45700074 .36431886 .5279999 .42037965 .59199526 .42037965 .6549988 .42037965 .66600039 .36631776 .66600039 .30926515V.076034549C.66600039 .0309906 .6549988 .0309906 .58799746 .0309906V0L.70098879 .0029907227 .8129883 0Z"/>
<path id="font_1_1" d="M.48298646 .08912659V.14511109H.45799256V.08912659C.45799256 .03112793 .43299867 .025131226 .42199708 .025131226 .3889923 .025131226 .3849945 .070129398 .3849945 .07511902V.27508546C.3849945 .31707765 .3849945 .3560791 .34899903 .39312745 .30999757 .43223573 .2599945 .4482422 .21199036 .4482422 .12998963 .4482422 .06098938 .40115357 .06098938 .335083 .06098938 .30508424 .08099365 .28808595 .10699463 .28808595 .1349945 .28808595 .15299988 .30807496 .15299988 .33407594 .15299988 .3460846 .147995 .37908937 .101989749 .38008119 .1289978 .41519166 .17799378 .426239 .20999146 .426239 .25898744 .426239 .31599427 .38710023 .31599427 .29808045V.26107789C.2649994 .25808717 .19499207 .25508119 .13198853 .22509766 .056991579 .19110108 .03199768 .13911438 .03199768 .09512329 .03199768 .014251709 .1289978-.0107421879 .19198609-.0107421879 .2579956-.0107421879 .3039856 .029251099 .32299806 .07624817 .32699586 .036132814 .35398866-.005859375 .40098573-.005859375 .42199708-.005859375 .48298646 .008132935 .48298646 .08912659M.31599427 .14013672C.31599427 .04525757 .24398804 .011245728 .19898987 .011245728 .1499939 .011245728 .10899353 .04624939 .10899353 .09625244 .10899353 .15124512 .15098572 .23425293 .31599427 .24024964V.14013672Z"/>
<path id="font_1_6" d="M.80400088 0V.0309906C.7369995 .0309906 .7259979 .0309906 .7259979 .07595825V.44265748L.68699648 .4396515 .58200076 .43165589C.5799866 .43066407 .5779877 .43066407 .56399539 .43066407H.44599916V.5436096C.44599916 .64260867 .5319977 .68307498 .59399417 .68307498 .6239929 .68307498 .6599884 .67292788 .6799927 .6496124 .6389923 .6476135 .6329956 .61961367 .6329956 .6036072 .6329956 .5706024 .6589966 .5576172 .6779938 .5576172 .70098879 .5576172 .723999 .5736084 .723999 .6036072 .723999 .662796 .6689911 .7050781 .59498599 .7050781 .5069885 .7050781 .44999696 .66482546 .43199159 .6496124 .40899659 .68507388 .36698915 .7050781 .31698609 .7050781 .22299195 .7050781 .10598755 .65367129 .10598755 .5446167V.43066407H.026992798V.3996582H.10598755V.07595825C.10598755 .0309906 .09498596 .0309906 .027999878 .0309906V0L.13899231 .0029907227 .25 0V.0309906C.18299866 .0309906 .17199707 .0309906 .17199707 .07595825V.3996582H.3829956V.07595825C.3829956 .0309906 .37199403 .0309906 .30499269 .0309906V0L.41600038 .0029907227 .5269928 0V.0309906C.45999146 .0309906 .44898988 .0309906 .44898988 .07595825V.3996582H.6069946C.6529999 .3996582 .6599884 .38667298 .6599884 .34570313V.07595825C.6599884 .0309906 .6489868 .0309906 .58200076 .0309906V0L.69299319 .0029907227 .80400088 0M.40098573 .6496124C.3619995 .6476135 .35299684 .62361147 .35299684 .6036072 .35299684 .581604 .36499024 .5656128 .3829956 .5606079V.43066407H.16899109V.5436096C.16899109 .6436157 .2559967 .68307498 .31498719 .68307498 .33898927 .68307498 .37399293 .6779938 .40098573 .6496124Z"/>
<path id="font_2_5" d="M.43699647 .6132202C.43699647 .65519717 .40098573 .7001953 .32299806 .7001953 .22499085 .7001953 .116989139 .65818789 .116989139 .54525759V.44433595H.041992189V.3973236H.116989139V.04699707H.04798889V0L.17399597 .0029907227C.21199036 .0029907227 .27598573 .0029907227 .31199647 0V.04699707H.22499085V.3973236H.33999635V.44433595H.21899414V.54525759C.21899414 .65519717 .29499818 .6641846 .31999208 .6641846 .32499696 .6641846 .32998658 .6641846 .33699037 .66218569 .32199098 .65119937 .31399537 .63220217 .31399537 .6132202 .31399537 .57025149 .34899903 .5512543 .375 .5512543 .40499879 .5512543 .43699647 .57225039 .43699647 .6132202Z"/>
<path id="font_2_12" d="M.44198609 .36819459C.44198609 .42118836 .3880005 .4501953 .33599855 .4501953 .2659912 .4501953 .22599793 .40019227 .20298767 .33718873V.4501953L.036987306 .4423828V.39537049C.09899902 .39537049 .10598755 .39537049 .10598755 .3563385V.04699707H.036987306V0L.16299439 .0029907227C.20098877 .0029907227 .2649994 .0029907227 .30099488 0V.04699707H.21398926V.22218323C.21398926 .29226686 .23899842 .41436769 .33898927 .41436769 .33898927 .41436769 .31999208 .39736939 .31999208 .36834718 .31999208 .32730104 .35198976 .3072815 .3809967 .3072815 .4099884 .3072815 .44198609 .3283081 .44198609 .36834718V.36819459Z"/>
<path id="font_2_10" d="M.5419922 .21812439C.5419922 .35212709 .44999696 .453125 .2869873 .453125 .12298584 .453125 .03199768 .35112 .03199768 .21812439 .03199768 .09413147 .11999512-.005859375 .2869873-.005859375 .45498658-.005859375 .5419922 .09512329 .5419922 .21812439M.4139862 .22912598C.4139862 .14213562 .4139862 .03413391 .2869873 .03413391 .1599884 .03413391 .1599884 .14213562 .1599884 .22912598 .1599884 .27412416 .1599884 .32511903 .1769867 .3591156 .19599915 .39611817 .23799134 .41711427 .2869873 .41711427 .32899476 .41711427 .37098695 .40112306 .3929901 .36611939 .4139862 .3321228 .4139862 .27713014 .4139862 .22912598Z"/>
<path id="font_2_8" d="M.93499758 0V.04699707H.8659973V.30613709C.8659973 .40919496 .8149872 .4501953 .71199038 .4501953 .62098696 .4501953 .56900027 .40019227 .54299929 .3541565 .522995 .44718934 .43099977 .4501953 .3929901 .4501953 .30599977 .4501953 .24899292 .40518189 .21699524 .3421631V.4501953L.04499817 .4423828V.39537049C.10699463 .39537049 .11399841 .39537049 .11399841 .3563385V.04699707H.04499817V0L.17098999 .0029907227 .29699708 0V.04699707H.22799683V.2562256C.22799683 .3653412 .31498719 .41436769 .3769989 .41436769 .41099549 .41436769 .43299867 .39437867 .43299867 .31729127V.04699707H.3639984V0L.48999024 .0029907227 .6159973 0V.04699707H.5469971V.2562256C.5469971 .3653412 .6339874 .41436769 .69599917 .41436769 .7299957 .41436769 .7519989 .39437867 .7519989 .31729127V.04699707H.68299868V0L.8089905 .0029907227 .93499758 0Z"/>
<path id="font_2_13" d="M.4149933 .14012146C.4149933 .18312073 .394989 .21812439 .3600006 .24612427 .32099916 .27511598 .2889862 .28112794 .21099854 .29412843 .17399597 .30111695 .10899353 .31211854 .10899353 .3591156 .10899353 .42111207 .20199585 .42111207 .22099304 .42111207 .29599 .42111207 .33399964 .39212037 .33898927 .33711244 .33999635 .32211305 .34098817 .3171234 .3619995 .3171234 .38598634 .3171234 .38598634 .32211305 .38598634 .3451233V.42510987C.38598634 .4441223 .38598634 .453125 .36799623 .453125 .3639984 .453125 .3619995 .453125 .32299806 .43411256 .29699708 .44711305 .2619934 .453125 .22200012 .453125 .19198609 .453125 .037994386 .453125 .037994386 .32211305 .037994386 .28211976 .057998659 .25512696 .07798767 .23812866 .117996219 .203125 .1559906 .1971283 .23298645 .18312073 .2689972 .17712403 .34399415 .16412354 .34399415 .10513306 .34399415 .030136109 .2519989 .030136109 .22999573 .030136109 .12399292 .030136109 .09799194 .103134158 .085998538 .14613343 .08099365 .16012573 .07598877 .16012573 .06199646 .16012573 .037994386 .16012573 .037994386 .15412903 .037994386 .13113404V.022140503C.037994386 .0031280518 .037994386-.005859375 .055999757-.005859375 .06298828-.005859375 .06498718-.005859375 .085998538 .009140015L.11199951 .026138306C.1579895-.005859375 .20999146-.005859375 .22999573-.005859375 .26098634-.005859375 .4149933-.005859375 .4149933 .14013672V.14012146Z"/>
<path id="font_2_3" d="M.47799684 .117126468C.47799684 .13113404 .46398927 .13113404 .45399476 .13113404 .43598939 .13113404 .43499757 .12913513 .42999269 .11613464 .4039917 .053131105 .35598756 .03413391 .30499269 .03413391 .1659851 .03413391 .1659851 .18112183 .1659851 .22712708 .1659851 .28312684 .1659851 .41311646 .29499818 .41311646 .32998658 .41311646 .34700013 .41011048 .3600006 .40711976 .34199525 .39111329 .33999635 .3701172 .33999635 .3611145 .33999635 .3171234 .375 .29811097 .4019928 .29811097 .43299867 .29811097 .46499635 .3191223 .46499635 .3611145 .46499635 .44711305 .34899903 .453125 .29100038 .453125 .11199951 .45314027 .037994386 .33813478 .037994386 .22213745 .037994386 .08912659 .13198853-.005859375 .28599549-.005859375 .44799806-.005859375 .47799684 .11013794 .47799684 .117126468Z"/>
<path id="font_2_16" d="M.28599549 0V.04699707H.22399903V.4501953L.049987794 .4423828V.39537049C.10899353 .39537049 .115997318 .39537049 .115997318 .3563385V.04699707H.04699707V0L.16899109 .0029907227 .28599549 0M.23799134 .60728457C.23799134 .6502838 .20298767 .6852875 .1599884 .6852875 .116989139 .6852875 .08198547 .6502838 .08198547 .60728457 .08198547 .5642853 .116989139 .5292969 .1599884 .5292969 .20298767 .5292969 .23799134 .5642853 .23799134 .60728457Z"/>
<path id="font_2_4" d="M.49398805 .11706543C.49398805 .13504029 .47499085 .13504029 .46998597 .13504029 .45298768 .13504029 .45098878 .13005066 .44499208 .11405945 .42399598 .066101077 .36698915 .03413391 .3019867 .03413391 .16099549 .03413391 .1599884 .16700745 .1599884 .2179718H.46199037C.48399354 .2179718 .49398805 .2179718 .49398805 .2449646 .49398805 .27598573 .48799134 .34906007 .43798829 .3991089 .40098573 .43511964 .34799195 .453125 .2789917 .453125 .11898804 .453125 .03199768 .35005189 .03199768 .22497559 .03199768 .09107971 .13198853-.005859375 .29299928-.005859375 .45098878-.005859375 .49398805 .10006714 .49398805 .11706543M.39898683 .25097657H.1599884C.1619873 .29000855 .16299439 .3320465 .18399048 .36506654 .20999146 .4051056 .25 .41711427 .2789917 .41711427 .3959961 .41711427 .397995 .28599549 .39898683 .25097657Z"/>
<path id="font_2_9" d="M.61499026 0V.04699707H.54599V.30613709C.54599 .41119386 .49198915 .4501953 .3919983 .4501953 .29599 .4501953 .24299622 .39318849 .21699524 .3421631V.4501953L.04499817 .4423828V.39537049C.10699463 .39537049 .11399841 .39537049 .11399841 .3563385V.04699707H.04499817V0L.17098999 .0029907227 .29699708 0V.04699707H.22799683V.2562256C.22799683 .3653412 .31399537 .41436769 .3769989 .41436769 .41099549 .41436769 .43199159 .39337159 .43199159 .31729127V.04699707H.36299134V0L.4889984 .0029907227 .61499026 0Z"/>
<path id="font_2_1" d="M.5529938 .023986817C.5529938 .04699707 .5399933 .04699707 .5269928 .04699707 .46598817 .04798889 .46598817 .06100464 .46598817 .083999637V.29907228C.46598817 .3881073 .394989 .453125 .24598694 .453125 .18899536 .453125 .066986087 .44911195 .066986087 .36109925 .066986087 .3170929 .101989749 .29808045 .1289978 .29808045 .1599884 .29808045 .19198609 .3190918 .19198609 .36109925 .19198609 .39111329 .17298889 .40811158 .16999817 .41011048 .19799805 .41612245 .22999573 .41711427 .24198914 .41711427 .31698609 .41711427 .35198976 .3751068 .35198976 .29907228V.26506043C.2809906 .2620697 .026992798 .25306703 .026992798 .10801697 .026992798 .012130737 .15098572-.005859375 .21998596-.005859375 .2999878-.005859375 .34700013 .035125734 .36898805 .07713318 .36898805 .04598999 .36898805 0 .47299195 0H.5209961C.54100039 0 .5529938 0 .5529938 .023986817M.35198976 .13899231C.35198976 .043151857 .2599945 .030136109 .23498535 .030136109 .18399048 .030136109 .14399719 .06517029 .14399719 .10922241 .14399719 .21734619 .3019867 .23136902 .35198976 .234375V.13899231Z"/>
<path id="font_2_14" d="M.38198854 .124176029V.17721558H.33499146V.12619019C.33499146 .058151246 .30299378 .03413391 .2749939 .03413391 .21699524 .03413391 .21699524 .09817505 .21699524 .1211853V.3973236H.36299134V.44433595H.21699524V.6357422H.16999817C.16899109 .53552249 .11999512 .43632508 .020996094 .43333436V.3973236H.102996829V.123184207C.102996829 .01612854 .18998719-.005859375 .26098634-.005859375 .33699037-.005859375 .38198854 .05114746 .38198854 .124176029Z"/>
<path id="font_2_15" d="M.61499026 .0001373291V.0471344C.5529938 .0471344 .54599 .0471344 .54599 .086135867V.4501953L.36299134 .44218446V.39518739C.4249878 .39518739 .43199159 .39518739 .43199159 .3561859V.16514588C.43199159 .08314514 .3809967 .030136109 .30799867 .030136109 .23098755 .030136109 .22799683 .055130006 .22799683 .10914612V.4501953L.04499817 .44218446V.39518739C.10699463 .39518739 .11399841 .39518739 .11399841 .3561859V.12313843C.11399841 .01612854 .19499207-.005859375 .2939911-.005859375 .31999208-.005859375 .3919983-.005859375 .43798829 .072143558V-.005859375L.61499026 .0001373291Z"/>
<path id="font_2_7" d="M.29299928 0V.04699707H.22399903V.69433596L.04699707 .6855469V.63853457C.10899353 .63853457 .115997318 .63853457 .115997318 .5995636V.04699707H.04699707V0L.16999817 .0029907227 .29299928 0Z"/>
<path id="font_1_5" d="M.9989929 .2548828V.27687074H0V.2548828H.9989929Z"/>
<path id="font_1_8" d="M.5349884 0V.0309906C.48298646 .0309906 .45799256 .0309906 .45700074 .061019899V.25221253C.45700074 .3383026 .45700074 .36932374 .42599488 .405365 .4119873 .42237855 .3789978 .4423828 .32099916 .4423828 .23699951 .4423828 .19299317 .38233949 .1769867 .34629823H.17599488V.69433596L.03199768 .6826172V.6516113C.101989749 .6516113 .10998535 .64463809 .10998535 .59580996V.076034549C.10998535 .0309906 .09899902 .0309906 .03199768 .0309906V0L.14498902 .0029907227 .25698854 0V.0309906C.18998719 .0309906 .1789856 .0309906 .1789856 .076034549V.2602234C.1789856 .36431886 .25 .42037965 .31399537 .42037965 .3769989 .42037965 .3880005 .36631776 .3880005 .30926515V.076034549C.3880005 .0309906 .3769989 .0309906 .30999757 .0309906V0L.4229889 .0029907227 .5349884 0Z"/>
<path id="font_1_18" d="M.3600006 .12823487C.3600006 .18122864 .32998658 .21122742 .31799317 .22323609 .2849884 .25523377 .24598694 .26322938 .20399475 .27124024 .147995 .28224183 .08099365 .29522706 .08099365 .35324098 .08099365 .38822938 .10699463 .42922975 .19299317 .42922975 .30299378 .42922975 .30799867 .3392334 .30999757 .30822755 .31098939 .2992401 .32199098 .2992401 .32199098 .2992401 .33499146 .2992401 .33499146 .30422975 .33499146 .32322694V.4242401C.33499146 .4412384 .33499146 .4482422 .32398988 .4482422 .31900025 .4482422 .31698609 .4482422 .3039856 .43623353 .30099488 .43223573 .29100038 .42323304 .2869873 .42022706 .24899292 .4482422 .20799256 .4482422 .19299317 .4482422 .070999149 .4482422 .032989503 .38124085 .032989503 .3252411 .032989503 .29023744 .04899597 .26223756 .07598877 .24023438 .10798645 .2142334 .13598633 .2082367 .20799256 .19422913 .22999573 .19021607 .31199647 .17422486 .31199647 .10221863 .31199647 .051223756 .2769928 .011245728 .19898987 .011245728 .114990238 .011245728 .07899475 .068222049 .05999756 .1532135 .056991579 .16621399 .055999757 .17021179 .04598999 .17021179 .032989503 .17021179 .032989503 .16322327 .032989503 .1452179V.013214111C.032989503-.003753662 .032989503-.0107421879 .04399109-.0107421879 .04899597-.0107421879 .049987794-.009750366 .068984989 .009246826 .070999149 .011245728 .070999149 .013214111 .08898926 .032226564 .1329956-.009750366 .17799378-.0107421879 .19898987-.0107421879 .31399537-.0107421879 .3600006 .05621338 .3600006 .1282196V.12823487Z"/>
<path id="font_1_15" d="M.5209961 .21636963C.5209961 .34336854 .42399598 .4423828 .31199647 .4423828 .23399353 .4423828 .19198609 .39837647 .17199707 .3763733V.4423828L.027999878 .43066407V.3996582C.09899902 .3996582 .10598755 .3936615 .10598755 .34973146V-.117996219C.10598755-.16308594 .09498596-.16308594 .027999878-.16308594V-.1940918L.13999939-.19110108 .25299073-.1940918V-.16308594C.18598938-.16308594 .1749878-.16308594 .1749878-.117996219V.050186159 .059173585C.17999268 .04319763 .22200012-.0107421879 .2979889-.0107421879 .4169922-.0107421879 .5209961 .087127689 .5209961 .21594239V.21636963M.43798829 .21594239C.43798829 .09512329 .36799623 .011245728 .2939911 .011245728 .2539978 .011245728 .21598816 .031219483 .18899536 .07215881 .1749878 .09312439 .1749878 .09411621 .1749878 .114089969V.33674623C.20399475 .38838197 .25299073 .41737367 .3039856 .41737367 .3769989 .41737367 .43798829 .32937623 .43798829 .21636963V.21594239Z"/>
<path id="font_1_20" d="M.5349884 0V.0309906C.46499635 .0309906 .45700074 .037994386 .45700074 .08705139V.4423828L.30999757 .43066407V.3996582C.37998963 .3996582 .3880005 .39266969 .3880005 .34373475V.16601563C.3880005 .07910156 .33999635 .011245728 .2669983 .011245728 .18299866 .011245728 .1789856 .058135988 .1789856 .11009216V.4423828L.03199768 .43066407V.3996582C.10998535 .3996582 .10998535 .39666749 .10998535 .3078003V.15802002C.10998535 .080093387 .10998535-.0107421879 .2619934-.0107421879 .31799317-.0107421879 .3619995 .017242432 .3909912 .07910156V-.0107421879L.5349884 0Z"/>
<path id="font_2_6" d="M.55799868 .3970642C.55799868 .42007447 .54100039 .45507813 .49499513 .45507813 .47999574 .45507813 .43299867 .45207215 .3889923 .41706849 .37098695 .42918397 .32899476 .4501953 .25498963 .4501953 .11099243 .4501953 .055999757 .37243653 .055999757 .3024292 .055999757 .26127626 .07598877 .22012329 .10798645 .19703675 .07998657 .16191101 .07398987 .12878418 .07398987 .10771179 .07398987 .0927124 .07798767 .04371643 .117996219 .01171875 .10499573 .008712769 .03199768-.012252808 .03199768-.075164798 .03199768-.12609864 .08699036-.2010498 .2869873-.2010498 .46398927-.2010498 .5419922-.14207459 .5419922-.07217407 .5419922-.04222107 .5339966 .020706177 .46699525 .054718019 .41099549 .08300781 .35099793 .08300781 .25498963 .08300781 .22898865 .08300781 .18299866 .08300781 .17799378 .083984378 .13398743 .0909729 .12298584 .12898255 .12298584 .14697266 .12298584 .15698242 .1269989 .17198181 .1329956 .17997742 .1789856 .15629578 .22999573 .15429688 .25498963 .15429688 .39898683 .15429688 .45399476 .23234558 .45399476 .3024292 .45399476 .34942628 .42900086 .38243104 .4139862 .3984375 .44400025 .4144287 .46499635 .4164276 .47599793 .4174347 .47399903 .4124298 .47200013 .40342713 .47200013 .39743043 .47200013 .37219239 .4889984 .354187 .5149994 .354187 .54100039 .354187 .55799868 .3731842 .55799868 .39718629V.3970642M.34298707 .30221559C.34298707 .25724793 .34298707 .19029236 .25498963 .19029236 .16699219 .19021607 .16699219 .25733949 .16699219 .3024292 .16699219 .34742738 .16699219 .41418458 .25498963 .41418458 .34298707 .41418458 .34298707 .34742738 .34298707 .3024292V.30221559M.45599366-.07501221C.45599366-.11102295 .4169922-.16503906 .2869873-.16503906 .16699219-.16503906 .117996219-.11903381 .117996219-.073013309 .117996219-.013000488 .18099976-.013000488 .19499207-.013000488H.31199647C.34298707-.013000488 .45599366-.013000488 .45599366-.07501221Z"/>
<path id="font_1_21" d="M.5079956 .3996582V.43066407C.4850006 .4286499 .45599366 .42765809 .43299867 .42765809L.34599305 .43066407V.3996582C.3769989 .39866639 .3929901 .3816681 .3929901 .35668946 .3929901 .34669496 .3919983 .34469605 .3869934 .33270265L.28599549 .08685303 .1749878 .35568238C.17098999 .36567689 .16899109 .36967469 .16899109 .3736725 .16899109 .3996582 .20599365 .3996582 .22499085 .3996582V.43066407L.115997318 .42765809C.08898926 .42765809 .04899597 .4286499 .018997193 .43066407V.3996582C.066986087 .3996582 .085998538 .3996582 .099990848 .36468507L.25-.000091552738 .22499085-.059066774C.20298767-.11407471 .1749878-.18309021 .11099243-.18309021 .10598755-.18309021 .08299255-.18309021 .06399536-.16503906 .09498596-.16104126 .102996829-.13905335 .102996829-.123046878 .102996829-.0970459 .083999637-.08103943 .06098938-.08103943 .040985109-.08103943 .018997193-.09403992 .018997193-.124053958 .018997193-.16905213 .06098938-.20507813 .11099243-.20507813 .17399597-.20507813 .21499634-.14804077 .23899842-.091049198L.4149933 .33569337C.44099427 .39865113 .49198915 .3996582 .5079956 .3996582Z"/>
<path id="font_2_11" d="M.59999087 .22319031C.59999087 .3561859 .5089874 .4501953 .36499024 .4501953 .2899933 .4501953 .23699951 .41918946 .21398926 .40118409V.4501953L.036987306 .4423828V.39537049C.09899902 .39537049 .10598755 .39537049 .10598755 .3573761V-.14648438H.036987306V-.1934967L.16299439-.19049073 .2889862-.1934967V-.14648438H.21998596V.03945923C.2630005 .004135132 .30699159-.005859375 .34799195-.005859375 .49798585-.005859375 .59999087 .08413696 .59999087 .22312927V.22319031M.47200013 .22312927C.47200013 .08213806 .4019928 .030136109 .33699037 .030136109 .32299806 .030136109 .27598573 .030136109 .23098755 .08413696 .21998596 .09713745 .21998596 .09812927 .21998596 .117126468V.32913209C.21998596 .34814454 .22099304 .3491516 .23498535 .36314393 .2749939 .4041443 .32699586 .41015626 .34899903 .41015626 .41600038 .41015626 .47200013 .3491516 .47200013 .22314453V.22312927Z"/>
<path id="font_2_2" d="M.59999087 .22319031C.59999087 .3561859 .5059967 .4501953 .36099244 .4501953 .28799439 .4501953 .23799134 .42118836 .21398926 .40118409V.69433596L.036987306 .6863251V.639328C.09899902 .639328 .10598755 .639328 .10598755 .600296V.00018310547H.15299988C.16899109 .019180298 .18598938 .03718567 .20199585 .05618286 .20999146 .04814148 .25898744-.005859375 .34799195-.005859375 .49699403-.005859375 .59999087 .08413696 .59999087 .22315979V.22319031M.47200013 .22315979C.47200013 .17614746 .47200013 .12113953 .44599916 .08213806 .4169922 .041137697 .37098695 .030136109 .33898927 .030136109 .2689972 .030136109 .22999573 .08413696 .21998596 .09913635V.35017396C.24699402 .3851776 .29499818 .41418458 .34999085 .41418458 .47200013 .41418458 .47200013 .2931671 .47200013 .22315979Z"/>
<path id="font_1_16" d="M.19198609 .052993776C.19198609 .08198547 .16799927 .10598755 .13899231 .10598755 .10998535 .10598755 .085998538 .08198547 .085998538 .052993776 .085998538 .023986817 .10998535 0 .13899231 0 .16799927 0 .19198609 .023986817 .19198609 .052993776Z"/>
<path id="font_3_6" d="M1.0759888 0V.04899597H.96798709V.63653567H1.0759888V.6855469H.8529968C.83200076 .6855469 .81900027 .6855469 .8069916 .6605377L.5609894 .13093567 .31599427 .6595459C.3039856 .6855469 .2899933 .6855469 .2689972 .6855469H.04499817V.63653567H.15299988V.07797241C.15299988 .055923463 .1519928 .05491638 .12399292 .05192566 .099990848 .04899597 .09799194 .04899597 .070999149 .04899597H.04499817V0C.10998535 .0029296876 .13798523 .0029296876 .18099976 .0029296876 .22499085 .0029907227 .2519989 .0029907227 .31799317 0V.04899597H.2919922C.2649994 .048919679 .2630005 .048919679 .23899842 .05192566 .21099854 .05491638 .20999146 .055923463 .20999146 .077926639V.6229248H.21099854L.48799134 .025924683C.49198915 .016998291 .5 0 .5219879 0 .54499819 0 .5519867 .015991211 .5569916 .025985718L.83999636 .6359863H.84098818V.04899597H.73298647V0C.7679901 .0029296876 .8639984 .0029296876 .9039917 .0029296876 .94400027 .0029907227 1.0410004 .0029907227 1.0759888 0Z"/>
<path id="font_3_11" d="M.6299896 0V.04899597C.56999209 .04899597 .56199648 .04899597 .56199648 .088012699V.4501953L.3769989 .4423828V.39337159C.43699647 .39337159 .44499208 .39337159 .44499208 .35437013V.16433716C.44499208 .08433533 .3929901 .03413391 .31599427 .03413391 .23899842 .03413391 .23498535 .056259157 .23498535 .10932922V.4501953L.049987794 .4423828V.39337159C.10998535 .39337159 .117996219 .39337159 .117996219 .35437013V.12333679C.117996219 .014129639 .20399475-.005859375 .30099488-.005859375 .33198548-.005859375 .3999939-.005859375 .45098878 .06933594V-.005859375L.6299896 0Z"/>
<path id="font_3_5" d="M.6049957 0V.04899597C.58898928 .04899597 .56900027 .04899597 .55799868 .049987794 .54299929 .052993776 .5389862 .057006837 .5299988 .06800842L.35398866 .2762146 .48999024 .37831117C.5029907 .38731385 .5130005 .3953247 .5779877 .3953247V.44433595C.54599 .44140626 .5169983 .44140626 .49598695 .44140626L.38398744 .44433595V.3953247C.40299989 .395401 .4059906 .39239503 .4119873 .3843994L.21998596 .23840332V.69433596L.040985109 .6855469V.63653567C.100997928 .63653567 .10899353 .63653567 .10899353 .5975647V.04899597H.040985109V0L.16099549 .0029907227C.20399475 .0029907227 .21499634 .0029907227 .28199769 0V.04899597H.21398926V.16989136L.2749939 .21485901C.27799989 .2108612 .4059906 .06298828 .4059906 .0579834 .4059906 .04899597 .3899994 .04899597 .3789978 .04899597V0L.49899293 .0029907227C.5379944 .0029907227 .5649872 .0029907227 .6049957 0Z"/>
<path id="font_3_1" d="M.56900027 .025131226C.56900027 .0491333 .5529938 .0491333 .54299929 .0491333 .47898866 .050125123 .47898866 .060134889 .47898866 .08413696V.29812623C.47898866 .38612367 .40699769 .453125 .25299073 .453125 .19599915 .453125 .067993167 .45111085 .067993167 .3591156 .067993167 .31411744 .101989749 .29312135 .1329956 .29312135 .16699219 .29312135 .19799805 .3171234 .19799805 .35812379 .19799805 .38711549 .18099976 .40411378 .17799378 .40711976 .18798828 .40911866 .21199036 .41311646 .24899292 .41311646 .32099916 .41311646 .3619995 .37712098 .3619995 .29812623V.26612855C.19599915 .26612855 .027999878 .22312927 .027999878 .11213684 .027999878 .013137817 .15299988-.005859375 .22499085-.005859375 .30099488-.005859375 .35299684 .027130127 .37998963 .0741272 .37998963 .04798889 .37998963 0 .4869995 0H.5359955C.5549927 0 .56900027 0 .56900027 .024993897V.025131226M.3619995 .13899231C.3619995 .033996583 .24598694 .033996583 .24198914 .033996583 .19099427 .033996583 .14898682 .066986087 .14898682 .11199951 .14898682 .14498902 .16699219 .22299195 .3619995 .23199463V.13899231Z"/>
<path id="font_3_10" d="M.45498658 .36618043C.45498658 .41719056 .40299989 .4501953 .34399415 .4501953 .27398683 .4501953 .23098755 .39918519 .20899964 .34118653H.20799256V.4501953L.040985109 .4423828V.39337159C.100997928 .39337159 .10899353 .39337159 .10899353 .3543396V.04899597H.040985109V0L.16899109 .0029907227C.19400025 .0029907227 .2519989 .0029907227 .30499269 0V.04899597H.21998596V.21818543C.21998596 .29125978 .24699402 .40737916 .34399415 .41036988 .33299256 .39898683 .32798768 .38198854 .32798768 .3659973 .32798768 .32199098 .36299134 .3019867 .3909912 .3019867 .4229889 .3019867 .45498658 .32398988 .45498658 .3659973V.36618043Z"/>
<path id="font_4_13" d="M.2669983 0V.032989503C.20298767 .032989503 .19099427 .032989503 .19099427 .07801819V.69433596L.041992189 .6826172V.6496124C.10998535 .6496124 .117996219 .64260867 .117996219 .5936432V.07795715C.117996219 .032989503 .10598755 .032989503 .041992189 .032989503V0C.08099365 .0029907227 .13699341 .0029907227 .1539917 .0029907227 .17399597 .0029907227 .22799683 .0029907227 .2669983 0Z"/>
<path id="font_4_6" d="M.44099427 .12036133C.44099427 .12435913 .43798829 .13438416 .4249878 .13438416 .4139862 .13438416 .4119873 .12736511 .4099884 .12136841 .37399293 .024230957 .28799439 .021224976 .269989 .021224976 .22499085 .021224976 .1789856 .042251588 .14898682 .08831787 .11898804 .13438416 .11898804 .19847107 .11898804 .22851563H.41299439C.43499757 .22851563 .44099427 .22851563 .44099427 .25151063 .44099427 .34039308 .3919983 .44628907 .25099183 .44628907 .1269989 .44628907 .02999878 .3433838 .02999878 .21949768 .02999878 .09031677 .13798523-.009765625 .2639923-.009765625 .3909912-.009765625 .44099427 .097335819 .44099427 .12036133M.37298585 .25450135H.11999512C.1289978 .39431764 .21398926 .41827394 .25099183 .41827394 .36799623 .41827394 .37199403 .27748109 .37298585 .25450135Z"/>
<path id="font_4_2" d="M.5139923 .09020996V.14530945H.48298646V.09020996C.48298646 .0491333 .46798707 .033111574 .44699098 .033111574 .4099884 .033111574 .4099884 .079193118 .4099884 .09020996V.29856874C.4099884 .39653016 .31498719 .44628907 .22399903 .44628907 .14099121 .44628907 .066986087 .4143219 .066986087 .34857179 .066986087 .318573 .08799744 .30056764 .11399841 .30056764 .14199829 .30056764 .16099549 .3205719 .16099549 .3475647 .16099549 .37156678 .1459961 .38856507 .12399292 .3935547 .16099549 .41827394 .21499634 .41827394 .22200012 .41827394 .27799989 .41827394 .33399964 .37957765 .33399964 .29756166V.26651C.27598573 .26350404 .20899964 .26049806 .13899231 .23144531 .050994874 .1933899 .033996583 .13528443 .033996583 .10223389 .033996583 .016220093 .1349945-.009765625 .20399475-.009765625 .2769928-.009765625 .32199098 .031219483 .34399415 .07122803 .34899903 .033111574 .375-.0048828127 .4189911-.0048828127 .42900086-.0048828127 .5139923-.00088500979 .5139923 .09010315V.09020996M.33399964 .14111328C.33399964 .04421997 .2519989 .018234253 .21199036 .018234253 .1599884 .018234253 .115997318 .053222658 .115997318 .10122681 .115997318 .16722107 .17799378 .23522949 .33399964 .24023438V.14111328Z"/>
<path id="font_4_22" d="M.38398744 .3784027C.38398744 .4133911 .35198976 .44140626 .30799867 .44140626 .24299622 .44140626 .19898987 .39239503 .17799378 .33639527H.1769867V.44140626L.034988405 .43045045V.39746095C.102996829 .39746095 .11099243 .3904419 .11099243 .3413849V.078048709C.11099243 .032989503 .09899902 .032989503 .034988405 .032989503V0C.07398987 .0029907227 .1289978 .0029907227 .15299988 .0029907227 .21199036 .0029907227 .21398926 .0029907227 .2789917 0V.032989503H.25898744C.18598938 .032989503 .18399048 .044006349 .18399048 .08004761V.22824097C.18399048 .30332948 .21499634 .41145326 .31098939 .41345216 .30499269 .40899659 .29499818 .40098573 .29499818 .37799073 .29499818 .34700013 .31900025 .33299256 .33898927 .33299256 .36299134 .33299256 .38398744 .34899903 .38398744 .37799073V.3784027Z"/>
<path id="font_4_16" d="M.56199648 0V.032989503C.49798585 .032989503 .48599244 .032989503 .48599244 .07803345V.3032837C.48599244 .38737489 .44799806 .44140626 .34298707 .44140626 .24398804 .44140626 .19898987 .36935426 .18699646 .34532167H.18598938V.44140626L.040985109 .43045045V.39746095C.10899353 .39746095 .116989139 .3904419 .116989139 .3413849V.078048709C.116989139 .032989503 .10499573 .032989503 .040985109 .032989503V0C.083999637 .0029907227 .12799073 .0029907227 .15499878 .0029907227 .18399048 .0029907227 .22599793 .0029907227 .2689972 0V.032989503C.20498657 .032989503 .19299317 .032989503 .19299317 .078048709V.25927735C.19299317 .36434938 .272995 .4133911 .33399964 .4133911 .394989 .4133911 .4099884 .37036134 .4099884 .3072815V.07803345C.4099884 .032989503 .397995 .032989503 .33399964 .032989503V0C.3769989 .0029907227 .42099 .0029907227 .44799806 .0029907227 .47698976 .0029907227 .5189972 .0029907227 .56199648 0Z"/>
<path id="font_4_25" d="M.35299684 .1250763V.1809845H.32199098V.12705994C.32199098 .058166505 .29100038 .021224976 .25299073 .021224976 .18598938 .021224976 .18598938 .10710144 .18598938 .12307739V.3976593H.33499146V.43066407H.18598938V.6142578H.15499878C.1539917 .52345278 .11299133 .4286499 .019989014 .42565919V.3976593H.10998535V.1250763C.10998535 .008224487 .19999695-.009765625 .24598694-.009765625 .31298829-.010009766 .35299684 .049987794 .35299684 .125V.1250763Z"/>
<path id="font_4_10" d="M.56199648 0V.032989503C.49798585 .032989503 .48599244 .032989503 .48599244 .07814026V.30371095C.48599244 .38746644 .44799806 .44140626 .34298707 .44140626 .25498963 .44140626 .20899964 .3854828 .19099427 .3535614H.18998719V.69433596L.040985109 .6826172V.6496124C.10899353 .6496124 .116989139 .64263918 .116989139 .5938263V.07814026C.116989139 .032989503 .10499573 .032989503 .040985109 .032989503V0C.083999637 .0029907227 .12799073 .0029907227 .15499878 .0029907227 .18399048 .0029907227 .22599793 .0029907227 .2689972 0V.032989503C.20498657 .032989503 .19299317 .032989503 .19299317 .07814026V.2597046C.19299317 .36453248 .272995 .4133911 .33399964 .4133911 .394989 .4133911 .4099884 .37051393 .4099884 .30769349V.07814026C.4099884 .032989503 .397995 .032989503 .33399964 .032989503V0C.3769989 .0029907227 .42099 .0029907227 .44799806 .0029907227 .47698976 .0029907227 .5189972 .0029907227 .56199648 0Z"/>
<path id="font_4_27" d="M.7449951 .3976593V.43066407C.71199038 .42765809 .70999148 .42765809 .6669922 .42765809 .6349945 .42765809 .60798647 .42765809 .57598879 .43066407V.3976593C.6199951 .3956604 .6309967 .36968995 .6309967 .3517151 .6309967 .33973695 .6279907 .33374024 .6259918 .3267517L.5309906 .07810974 .42799378 .35072328C.4229889 .3637085 .4229889 .36669923 .4229889 .37069703 .4229889 .39665223 .45498658 .3976593 .47898866 .3976593V.43066407C.43998719 .42765809 .3869934 .42765809 .3769989 .42765809 .35499574 .42765809 .31399537 .42765809 .28399659 .43066407V.3976593C.34498597 .3976593 .34700013 .39266969 .3659973 .33973695L.27398683 .09307861 .1749878 .3517151C.17399597 .3557129 .16999817 .36669923 .16999817 .37069703 .16999817 .3976593 .20799256 .3976593 .22599793 .3976593V.43066407C.18299866 .42765809 .13798523 .42765809 .11898804 .42765809 .100997928 .42765809 .049987794 .42765809 .020996094 .43066407V.3976593C.070999149 .3976593 .08099365 .3936615 .09199524 .3657074L.22599793 .014190674C.23199463-.00079345706 .23498535-.009765625 .25099183-.009765625 .2679901-.009765625 .27198792 .0012054443 .2769928 .014190674L.3829956 .2947998 .4889984 .014190674C.49398805 .0012054443 .49798585-.009765625 .5149994-.009765625 .5309906-.009765625 .5349884 .00021362305 .5389862 .011199951L.6599884 .3297577C.6689911 .35272218 .6859894 .39665223 .7449951 .3976593Z"/>
<path id="font_4_17" d="M.5 .21325684C.5 .3382721 .39698792 .44628907 .2649994 .44628907 .1329956 .44628907 .02999878 .3382721 .02999878 .21325684 .02999878 .08824158 .13699341-.009765625 .2649994-.009765625 .3939972-.009765625 .5 .08824158 .5 .21325684M.41099549 .22225952C.41099549 .17625427 .40899659 .12124634 .3809967 .07923889 .35398866 .039230348 .30899049 .021224976 .2649994 .021224976 .21099854 .021224976 .16899109 .047225954 .14698792 .082229617 .12199402 .12324524 .11898804 .17224121 .11898804 .22225952 .11898804 .2602539 .11898804 .32026673 .1499939 .363266 .17599488 .3982849 .21798706 .41827394 .2649994 .41827394 .31698609 .41827394 .3600006 .39328004 .3829956 .35827638 .4099884 .31626893 .41099549 .2622528 .41099549 .22225952Z"/>
<path id="font_4_14" d="M.8569946 0V.032989503C.79299929 .032989503 .7809906 .032989503 .7809906 .07803345V.3032837C.7809906 .3843689 .74598696 .44140626 .6369934 .44140626 .54499819 .44140626 .49899293 .37835694 .48298646 .34933473 .46499635 .42140199 .4079895 .44140626 .34298707 .44140626 .24598694 .44140626 .19999695 .37236024 .18699646 .34532167H.18598938V.44140626L.040985109 .43045045V.39746095C.10899353 .39746095 .116989139 .3904419 .116989139 .3413849V.078048709C.116989139 .032989503 .10499573 .032989503 .040985109 .032989503V0C.083999637 .0029907227 .12799073 .0029907227 .15499878 .0029907227 .18399048 .0029907227 .22599793 .0029907227 .2689972 0V.032989503C.20498657 .032989503 .19299317 .032989503 .19299317 .078048709V.25927735C.19299317 .36434938 .27198792 .4133911 .33499146 .4133911 .3999939 .4133911 .41099549 .36235047 .41099549 .3072815V.07803345C.41099549 .032989503 .39898683 .032989503 .33499146 .032989503V0C.37799073 .0029907227 .42199708 .0029907227 .44898988 .0029907227 .47799684 .0029907227 .519989 .0029907227 .5629883 0V.032989503C.49899293 .032989503 .4869995 .032989503 .4869995 .07803345V.25923158C.4869995 .36434938 .56599429 .4133911 .6289978 .4133911 .69400027 .4133911 .7049866 .36235047 .7049866 .3072815V.07803345C.7049866 .032989503 .69299319 .032989503 .6289978 .032989503V0C.6719971 .0029907227 .71598818 .0029907227 .7429962 .0029907227 .7719879 .0029907227 .81399539 .0029907227 .8569946 0Z"/>
<path id="font_4_18" d="M.55400088 .21640015C.55400088 .34140016 .45298768 .44140626 .33198548 .44140626 .29299928 .44140626 .23498535 .43139649 .18399048 .37939454V.44140626L.034988405 .43045045V.39746095C.10598755 .39746095 .11099243 .39144898 .11099243 .34947206V-.1159668C.11099243-.16113281 .09899902-.16113281 .034988405-.16113281V-.19413758C.07798767-.19114685 .12199402-.19114685 .14898682-.19114685 .17799378-.19114685 .21998596-.19114685 .2630005-.19413758V-.16113281C.19898987-.16113281 .18699646-.16113281 .18699646-.1159668V.049545289C.23399353-.0017700195 .2849884-.009765625 .31698609-.009765625 .44400025-.009765625 .55400088 .088256839 .55400088 .2163086V.21640015M.46499635 .2163086C.46499635 .101257327 .3929901 .018234253 .31199647 .018234253 .2769928 .018234253 .23098755 .033233644 .19898987 .08325195 .18699646 .1002655 .18699646 .101257327 .18699646 .120269779V.33335877C.20999146 .37338258 .2599945 .4104004 .32299806 .4104004 .3999939 .4104004 .46499635 .32536317 .46499635 .2163086Z"/>
<path id="font_4_5" d="M.55400088 0V.032989503C.48599244 .032989503 .47799684 .039993287 .47799684 .089019779V.69433596L.32899476 .6826172V.6496124C.39698792 .6496124 .40499879 .64263918 .40499879 .5938263V.38339234C.36999513 .42140199 .32299806 .44140626 .2709961 .44140626 .1459961 .44140626 .034988405 .3443756 .034988405 .21531677 .034988405 .09225464 .1349945-.009765625 .26098634-.009765625 .31999208-.009765625 .36898805 .018234253 .4019928 .053237916V-.009765625L.55400088 0M.4019928 .12399292C.4019928 .10598755 .4019928 .101989749 .3869934 .08198547 .35899354 .042236329 .31298829 .018234253 .2659912 .018234253 .21998596 .018234253 .17999268 .042236329 .1559906 .07925415 .1289978 .118270877 .12399292 .16729737 .12399292 .21430969 .12399292 .27233888 .1329956 .3133545 .1559906 .3483734 .17999268 .38539125 .22499085 .4133911 .27598573 .4133911 .32398988 .4133911 .37199403 .38938905 .4019928 .33737184V.12399292Z"/>
<path id="font_4_11" d="M.2939911 .18304444V.24804688H.011993408V.18304444H.2939911Z"/>
<path id="font_4_19" d="M.35299684-.23800659C.35299684-.23400879 .35198976-.23300171 .33898927-.22000122 .20199585-.09100342 .16799927 .09498596 .16799927 .25 .16799927 .5379944 .2869873 .6729889 .33799745 .71899417 .35198976 .7319946 .35299684 .7330017 .35299684 .73799136 .35299684 .7429962 .34899903 .75 .33898927 .75 .32299806 .75 .272995 .69898989 .2649994 .6899872 .1309967 .5499878 .102996829 .36999513 .102996829 .25 .102996829 .025985718 .19699097-.15400696 .33299256-.25 .34098817-.25 .35299684-.25 .35299684-.23800659Z"/>
<path id="font_4_3" d="M.70700076 .23370362C.70700076 .24371338 .70700076 .25273133 .69099429 .25273133 .6799927 .25273133 .6769867 .24772644 .6759949 .23771668 .66799929 .08357239 .5439911 .011505127 .43798829 .011505127 .35299684 .011505127 .16299439 .06355286 .16299439 .34179688 .16299439 .6110382 .34298707 .6710968 .43798829 .6710968 .5319977 .6710968 .647995 .6040344 .673996 .43188478 .6749878 .4238739 .6759949 .41687013 .6899872 .41687013 .70700076 .41687013 .70700076 .4238739 .70700076 .4429016V.6781006C.70700076 .6940918 .70700076 .70410159 .69400027 .70410159 .68699648 .70410159 .6859894 .7030945 .6769867 .690094L.6259918 .6160431C.58999636 .65509036 .5239868 .70410159 .42799378 .70410159 .22698975 .70410159 .05899048 .542984 .05899048 .34179688 .05899048 .13961792 .22599793-.021484375 .42900086-.021484375 .5970001-.021484375 .70700076 .11160278 .70700076 .23370362Z"/>
<path id="font_4_15" d="M.7509918 .6496124V.6826172C.70599368 .6796112 .6589966 .6796112 .6329956 .6796112 .6069946 .6796112 .55999758 .6796112 .5149994 .6826172V.6496124C.6159973 .6496124 .6159973 .6016388 .6159973 .5756531V.14892578L.24299622 .66760256C.23199463 .6816101 .23098755 .6826172 .21099854 .6826172H.04399109V.6496124H.07199097C.08999634 .6496124 .09799194 .6496124 .117996219 .6476135 .14399719 .64460757 .14498902 .6436157 .14498902 .62461856V.10694885C.14498902 .080963138 .14498902 .032989503 .04399109 .032989503V0C.08898926 .0029907227 .13598633 .0029907227 .1619873 .0029907227 .18798828 .0029907227 .23498535 .0029907227 .27999879 0V.032989503C.1789856 .032989503 .1789856 .080963138 .1789856 .10694885V.6164093L.6119995 .01499939C.62098696 .0029907227 .6230011 0 .6329956 0 .6499939 0 .6499939 .009994507 .6499939 .027999878V.5754547C.6499939 .6014252 .6499939 .64941409 .7509918 .64941409V.6496124Z"/>
<path id="font_4_21" d="M.7659912 .25042726C.7659912 .2734375 .74398806 .2734375 .7299957 .2734375H.43598939V.5676117C.43598939 .5815735 .43598939 .6035156 .41299439 .6035156 .3899994 .6035156 .3899994 .5815735 .3899994 .5676117V.2734375H.09498596C.08099365 .2734375 .05899048 .2734375 .05899048 .25042726 .05899048 .22743225 .08099365 .22743225 .09498596 .22743225H.3899994V-.0675354C.3899994-.08152771 .3899994-.103515628 .41299439-.103515628 .43598939-.103515628 .43598939-.08152771 .43598939-.0675354V.22743225H.7299957C.74398806 .22743225 .7659912 .22743225 .7659912 .25042726Z"/>
<path id="font_4_8" d="M.7819977 .24238587V.27539063C.73098757 .27238465 .7029877 .27238465 .6459961 .27238465 .6029968 .27238465 .5219879 .27238465 .48298646 .27539063V.24238587H.5179901C.61299136 .24272156 .6159973 .23069763 .6159973 .19366455V.12960816C.6159973 .10958862 .6159973 .06855774 .5629883 .039535524 .5130005 .011505127 .45700074 .011505127 .44499208 .011505127 .34298707 .011505127 .16299439 .07356262 .16299439 .34179688 .16299439 .61305239 .34599305 .6710968 .43798829 .6710968 .5379944 .6710968 .6499939 .5980377 .6749878 .43289186 .6759949 .42288209 .6769867 .41687013 .69099429 .41687013 .70799258 .41687013 .70799258 .4238739 .70799258 .4429016V.6781006C.70799258 .6940918 .70799258 .70410159 .69499209 .70410159 .6879883 .70410159 .68699648 .7030945 .6779938 .690094L.6269989 .6160431C.58399966 .6620941 .5179901 .70410159 .42799378 .70410159 .22799683 .70410159 .05899048 .542984 .05899048 .34179688 .05899048 .1426239 .22299195-.021484375 .43099977-.021484375 .5079956-.021484375 .59399417 .0015106201 .6339874 .060546876 .6519928 .03253174 .6859894-.00048828127 .69599917-.00048828127 .70799258 0 .70799258 .010986328 .70799258 .025985718V.19799805C.70799258 .23738098 .71199038 .24238587 .7819977 .24238587Z"/>
<path id="font_4_1" d="M.7589874 0V.032989503H.74198916C.67900088 .032989503 .6689911 .04197693 .6569977 .07392883L.4229889 .69184878C.41799928 .7048645 .4149933 .7138672 .397995 .7138672 .37998963 .7138672 .3769989 .7058563 .37199403 .69184878L.14898682 .102890018C.13899231 .075927738 .117996219 .032989503 .035995485 .032989503V0C.067993167 .0029907227 .12098694 .0029907227 .13899231 .0029907227 .17098999 .0029907227 .20098877 .0029907227 .25 0V.032989503C.20599365 .033996583 .17999268 .053955079 .17999268 .08291626 .17999268 .089904788 .17999268 .09190369 .18499756 .103897098L.23199463 .22871399H.5039978L.55999758 .08091736C.5649872 .06893921 .5649872 .062942508 .5649872 .062942508 .5649872 .032989503 .5130005 .032989503 .4850006 .032989503V0L.6269989 .0029907227C.68299868 .0029907227 .70098879 .0029907227 .7589874 0M.4909973 .26171876H.24398804L.36799623 .5888214 .4909973 .26171876Z"/>
<path id="font_4_24" d="M.7279968 .44877626 .70799258 .67578127H.057998659L.037994386 .44877626H.068984989C.08299255 .61776736 .10598755 .6427765 .25898744 .6427765 .27799989 .6427765 .30899049 .6427765 .31698609 .6407776 .33599855 .6367798 .33699037 .6267853 .33699037 .6017914V.081970218C.33699037 .04698181 .33699037 .032989503 .23298645 .032989503H.19499207V0C.23199463 .0029907227 .33999635 .0029907227 .3829956 .0029907227 .42599488 .0029907227 .5339966 .0029907227 .57099917 0V.032989503H.5329895C.42900086 .032989503 .42900086 .04698181 .42900086 .081970218V.6017914C.42900086 .6247864 .42900086 .6367798 .44999696 .6407776 .45899964 .6427765 .48799134 .6427765 .5069885 .6427765 .6599884 .6427765 .68299868 .61776736 .69699099 .44877626H.7279968Z"/>
<path id="font_4_20" d="M.30899049 .25C.30899049 .34498597 .29299928 .45899964 .23098755 .57699587 .18199158 .6689911 .09098816 .75 .07299805 .75 .06298828 .75 .05999756 .7429962 .05999756 .73799136 .05999756 .73399356 .05999756 .7319946 .07199097 .7200012 .21199036 .58699038 .24398804 .4039917 .24398804 .25 .24398804-.037002565 .125-.17300415 .07398987-.2190094 .06098938-.23200989 .05999756-.23300171 .05999756-.23800659 .05999756-.24301148 .06298828-.25 .07299805-.25 .08898926-.25 .13899231-.19900513 .14698792-.19000244 .2809906-.05000305 .30899049 .12998963 .30899049 .25Z"/>
<path id="font_3_2" d="M.83999636 .33776856C.83999636 .5496063 .69299319 .6855469 .48298646 .6855469H.041992189V.63653567H.1499939V.04899597H.041992189V0H.48399354C.68299868 0 .83999636 .12094116 .83999636 .33776856M.68899539 .33776856C.68899539 .24084473 .68899539 .04899597 .44198609 .04899597H.2889862V.63653567H.44099427C.519989 .63653567 .59399417 .611557 .6380005 .55659487 .6819916 .50064089 .68899539 .42970277 .68899539 .33776856Z"/>
<path id="font_3_4" d="M.5089874 .11605835C.5089874 .13604737 .4889984 .13604737 .48298646 .13604737 .46499635 .13604737 .46299745 .13005066 .45700074 .11605835 .43399049 .06410217 .37298585 .037139894 .30999757 .037139894 .16799927 .037139894 .1659851 .16601563 .1659851 .21496582H.47599793C.49699403 .21496582 .5089874 .21496582 .5089874 .2429657 .5089874 .26498414 .5069885 .35305787 .44198609 .4071045 .39698792 .4441223 .33699037 .453125 .28799439 .453125 .116989139 .453125 .032989503 .345047 .032989503 .22497559 .032989503 .09408569 .13198853-.005859375 .3019867-.005859375 .46699525-.005859375 .5089874 .1000824 .5089874 .11605835M.41099549 .25097657H.1659851C.16799927 .29701234 .17298889 .41311646 .28799439 .41311646 .40499879 .41311646 .40899659 .29100038 .41099549 .25097657Z"/>
<path id="font_3_9" d="M.61698916 .22218323C.61698916 .354187 .526001 .4501953 .375 .4501953 .2939911 .45033265 .23899842 .41633607 .21998596 .40234376V.4501953L.040985109 .4423828V.39337159C.06098938 .39337159 .07699585 .39337159 .08999634 .39038087 .10899353 .38737489 .10899353 .3763733 .10899353 .3553772V-.14453125H.040985109V-.19354248L.16699219-.1905365 .2939911-.19354248V-.14453125H.22599793V.03942871C.2849884-.005859375 .33999635-.005859375 .35899354-.005859375 .5159912-.005859375 .61698916 .089141849 .61698916 .22216797V.22218323M.48399354 .22315979C.48399354 .08413696 .41299439 .03413391 .34700013 .03413391 .29599 .03413391 .25299073 .06314087 .22599793 .104141239V.34518434C.24398804 .3671875 .29100038 .4071808 .35899354 .4071808 .42900086 .4071808 .48399354 .34518434 .48399354 .22315979Z"/>
<path id="font_3_7" d="M.95899966-.0002746582V.048721315H.8909912V.30471803C.8909912 .42271424 .81999209 .4497223 .7319946 .4497223 .6279907 .4497223 .57699587 .38671876 .55799868 .3557129 .5359955 .4457245 .44799806 .4497223 .4039917 .4497223 .27999879 .4497223 .23098755 .35972596 .22399903 .34472657H.22299195V.4497223L.049987794 .44172669V.39271546C.10998535 .39271546 .117996219 .39271546 .117996219 .353714V.048721315H.049987794V-.0002746582L.17599488 .0027160645 .30299378-.0002746582V.048721315H.23498535V.25372315C.23498535 .36471559 .32699586 .40971376 .3869934 .40971376 .4249878 .40971376 .44599916 .38972474 .44599916 .3137207V.048721315H.37799073V-.0002746582L.5039978 .0027160645 .6309967-.0002746582V.048721315H.5629883V.25372315C.5629883 .36471559 .6549988 .40971376 .71499636 .40971376 .7529907 .40971376 .7739868 .38972474 .7739868 .3137207V.048721315H.70599368V-.0002746582L.83200076 .0027160645 .95899966-.0002746582Z"/>
<path id="font_3_8" d="M.6299896-.0002746582V.048721315H.56199648V.30471803C.56199648 .4237213 .48999024 .4497223 .40299989 .4497223 .27999879 .4497223 .23098755 .35972596 .22399903 .34472657H.22299195V.4497223L.049987794 .44172669V.39271546C.10998535 .39271546 .117996219 .39271546 .117996219 .353714V.048721315H.049987794V-.0002746582L.17599488 .0027160645 .30299378-.0002746582V.048721315H.23498535V.25372315C.23498535 .36572267 .32699586 .40971376 .3869934 .40971376 .4249878 .40971376 .44499208 .38871766 .44499208 .3137207V.048721315H.3769989V-.0002746582L.5029907 .0027160645 .6299896-.0002746582Z"/>
<path id="font_3_3" d="M.61499026 0V.04899597C.5549927 .04899597 .5469971 .04899597 .5469971 .088012699V.69433596L.36799623 .6855469V.63653567C.42799378 .63653567 .43598939 .63653567 .43598939 .5976715V.40518189C.3919983 .43719483 .34498597 .4501953 .29699708 .4501953 .13398743 .4501953 .038986207 .35118104 .038986207 .22216797 .038986207 .089141849 .1329956-.005859375 .2849884-.005859375 .34799195-.005859375 .397995 .018127442 .42999269 .044128419V-.005859375L.61499026 0M.42999269 .10899353C.4079895 .074142459 .3600006 .03413391 .29599 .03413391 .17199707 .03413391 .17199707 .15414429 .17199707 .22015381 .17199707 .27816773 .17298889 .32118226 .19898987 .3581848 .22499085 .39819337 .272995 .41018678 .30799867 .41018678 .35798646 .41018678 .39898683 .3881836 .42999269 .34918214V.10899353Z"/>
<path id="font_4_26" d="M.56199648 .00022888184V.033233644C.49398805 .033233644 .48599244 .040237428 .48599244 .08924866V.44140626L.33399964 .43040467V.3973999C.4019928 .3973999 .4099884 .39039613 .4099884 .34136964V.16726685C.4099884 .08125305 .35798646 .018234253 .2829895 .018234253 .19699097 .018234253 .19299317 .06123352 .19299317 .11126709V.44140626L.040985109 .43040467V.3973999C.116989139 .3973999 .116989139 .39439393 .116989139 .30534364V.15527344C.116989139 .08325195 .116989139-.009765625 .2769928-.009765625 .37098695-.009765625 .40699769 .0622406 .4119873 .071243289H.41299439V-.009765625L.56199648 .00022888184Z"/>
<path id="font_4_7" d="M.3769989 .63201907C.3769989 .6750946 .33499146 .70410159 .28199769 .70410159 .20698548 .70410159 .117996219 .65005496 .117996219 .54286196V.43066407H.035995485V.3976593H.117996219V.07795715C.117996219 .032989503 .10598755 .032989503 .041992189 .032989503V0C.08099365 .0029907227 .13598633 .0029907227 .1599884 .0029907227 .21899414 .0029907227 .22099304 .0029907227 .28599549 0V.032989503H.2659912C.19299317 .032989503 .19099427 .04397583 .19099427 .079956058V.3976593H.31098939V.43066407H.18798828V.54385378C.18798828 .63108828 .23699951 .6760864 .2809906 .6760864 .29699708 .6760864 .30599977 .6720886 .30999757 .6710968 .2919922 .6620941 .2869873 .6450958 .2869873 .63209536 .2869873 .60609439 .30599977 .58709719 .33198548 .58709719 .35899354 .58709719 .3769989 .60609439 .3769989 .63209536V.63201907Z"/>
<path id="font_4_23" d="M.3829956 .12924195C.3829956 .1772461 .35398866 .24725342 .23498535 .2692566 .22698975 .2712555 .17098999 .28126527 .16699219 .28126527 .13598633 .28826905 .08898926 .30926515 .08898926 .34927369 .08898926 .37927247 .11099243 .4212799 .20599365 .4212799 .31799317 .4212799 .32299806 .33926393 .32499696 .31126405 .32598878 .30326844 .33299256 .30026246 .33999635 .30026246 .35598756 .30026246 .35598756 .30726625 .35598756 .32626344V.4202881C.35598756 .4362793 .35598756 .44628907 .34298707 .44628907 .33799745 .44628907 .33499146 .44628907 .31900025 .4302826 .31698609 .4292755 .30799867 .4202881 .30499269 .4202881 .30499269 .4202881 .3019867 .4202881 .29599 .4242859 .27999879 .43528749 .25099183 .44628907 .20599365 .44628907 .06599426 .44628907 .034988405 .37026979 .034988405 .32226563 .034988405 .27226258 .07199097 .24325562 .07499695 .24024964 .114990238 .21025086 .13798523 .20625305 .20498657 .19424439 .2519989 .18525696 .32899476 .17124939 .32899476 .10324097 .32899476 .0642395 .30299378 .018234253 .21099854 .018234253 .10998535 .018234253 .08099365 .09623718 .067993167 .14924622 .06399536 .1622467 .06298828 .16725159 .050994874 .16725159 .034988405 .16725159 .034988405 .15924073 .034988405 .14024353V.016220093C.034988405 .00022888184 .034988405-.009765625 .04798889-.009765625 .053985597-.009765625 .054992677-.008773804 .07299805 .010223389 .07798767 .0152282719 .08898926 .02822876 .09399414 .033233644 .13899231-.0077667238 .18598938-.009765625 .21199036-.009765625 .33898927-.009765625 .3829956 .06323242 .3829956 .12924195Z"/>
<path id="font_4_9" d="M.5149994 .40124513C.5149994 .418396 .5019989 .45239259 .45799256 .45239259 .44099427 .45239259 .3929901 .44839479 .34700013 .40625 .32199098 .4243927 .2829895 .44140626 .23599243 .44140626 .13699341 .44140626 .06399536 .37223817 .06399536 .294281 .06399536 .2472992 .08999634 .21231079 .11099243 .19232178 .08898926 .16732788 .08099365 .13531494 .08099365 .111328128 .08099365 .07032776 .100997928 .0393219 .12298584 .022323609 .070999149 .007904053 .02999878-.031097413 .02999878-.0770874 .02999878-.14909363 .1329956-.20507813 .2649994-.20507813 .3899994-.20507813 .5-.15408325 .5-.0750885 .5-.021102906 .46798707 .020904541 .43499757 .037902833 .37599183 .06889343 .32699586 .06889343 .22898865 .06889343H.17298889C.14199829 .07191467 .116989139 .099105838 .116989139 .13536072 .116989139 .15945435 .12298584 .16845703 .12998963 .17745972 .17199707 .15245056 .21099854 .14746094 .23498535 .14746094 .33399964 .14746094 .40699769 .21644593 .40699769 .29444886 .40699769 .3324585 .3899994 .36445619 .3659973 .39045716 .37998963 .40245057 .41299439 .42344667 .46199037 .42445375 .45799256 .42144776 .45298768 .41645814 .45298768 .40045167 .45298768 .3824463 .46598817 .36946107 .48399354 .36946107 .49798585 .36946107 .5149994 .3784485 .5149994 .40145875V.40124513M.32798768 .29444886C.32798768 .2574463 .32299806 .23146057 .30799867 .2114563 .28599549 .18345642 .2539978 .17645264 .23599243 .17645264 .14299011 .1761322 .14299011 .27218629 .14299011 .29418946 .14299011 .33122254 .147995 .35723878 .16299439 .37724305 .17999268 .40023805 .20799256 .4123993 .23498535 .4123993 .32798768 .4123993 .32798768 .3162079 .32798768 .29418946V.29444886M.44099427-.07601929C.44099427-.13005066 .3639984-.17608643 .2649994-.17608643 .16499329-.17610169 .08898926-.13009644 .08898926-.07609558 .08898926-.055099489 .10499573 .00390625 .18699646 .00390625H.2829895C.30999757 .00390625 .44099427 .00390625 .44099427-.07609558V-.07601929Z"/>
<path id="font_4_28" d="M.2599945 .0001373291V.03314209C.19499207 .03314209 .19099427 .038146974 .19099427 .07714844V.44140626L.04499817 .43045045V.39746095C.10899353 .39746095 .117996219 .39144898 .117996219 .34239198V.07814026C.117996219 .03314209 .10598755 .03314209 .041992189 .03314209V0C.08099365 .0029907227 .13699341 .0029907227 .1519928 .0029907227 .16499329 .0029907227 .22499085 .0029907227 .2599945 0V.0001373291M.20298767 .6021881C.20298767 .6351929 .1769867 .6582031 .147995 .6582031 .11898804 .6582031 .09298706 .6351929 .09298706 .6021881 .09298706 .5731964 .115997318 .54719546 .147995 .54719546 .1789856 .54719546 .20298767 .5731964 .20298767 .6021881Z"/>
<path id="font_4_4" d="M.44099427 .12031555C.44099427 .13232422 .42799378 .13232422 .4249878 .13232422 .41799928 .13232422 .41299439 .13131714 .4099884 .12130737 .40299989 .10029602 .375 .021224976 .2749939 .021224976 .21299744 .021224976 .12399292 .0692749 .12399292 .21739197 .12399292 .3614807 .19799805 .4152832 .2709961 .4152832 .27999879 .4152832 .33299256 .4152832 .36799623 .39746095 .33999635 .3884735 .33599855 .36547853 .33599855 .35346986 .33599855 .32647706 .35499574 .30647279 .3829956 .30647279 .40899659 .30625917 .42999269 .32426454 .42999269 .35427857 .42999269 .41627503 .3619995 .44628907 .2679901 .44628907 .1289978 .44628907 .034988405 .3352661 .034988405 .21624756 .034988405 .0892334 .13899231-.009765625 .2649994-.009765625 .4059906-.009765625 .44099427 .10824585 .44099427 .12023926V.12031555Z"/>
<path id="font_5_5" d="M.35499574 .14328003C.35499574 .15628052 .34098817 .15628052 .33599855 .15628052 .31999208 .15628052 .31900025 .15228272 .31399537 .13528443 .29599 .070251468 .2630005 .018234253 .22099304 .018234253 .20199585 .018234253 .19898987 .032226564 .19898987 .050247194 .19898987 .07325745 .20498657 .09025574 .22099304 .13227844L.2869873 .3063507C.29499818 .32835389 .29899598 .33836366 .29899598 .35836793 .29899598 .4133911 .2579956 .44140626 .21598816 .44140626 .12098694 .44140626 .07998657 .30134584 .07998657 .28834535 .07998657 .27534486 .09298706 .27534486 .09899902 .27534486 .114990238 .27534486 .115997318 .27833558 .11999512 .29634095 .1349945 .3483734 .1659851 .4133911 .21398926 .4133911 .23199463 .4133911 .23599243 .40039063 .23599243 .38238526 .23599243 .359375 .22898865 .34036256 .21598816 .3053589L.1459961 .119277957C.14199829 .10926819 .1349945 .09126282 .1349945 .07325745 .1349945 .027236939 .16799927-.009765625 .21899414-.009765625 .31399537-.009765625 .35499574 .13127136 .35499574 .14328003M.37098695 .6082916C.37098695 .6432953 .34298707 .6542969 .32499696 .6542969 .29100038 .6542969 .2579956 .623291 .2579956 .58929446 .2579956 .55929568 .2809906 .5432892 .3039856 .5432892 .33699037 .5432892 .37098695 .57229617 .37098695 .6082916Z"/>
<path id="font_5_3" d="M.6289978 .14328003C.6289978 .15628052 .61499026 .15628052 .6100006 .15628052 .59399417 .15628052 .59298709 .15228272 .58799746 .13528443 .56999209 .071243289 .5369873 .018234253 .49398805 .018234253 .47499085 .018234253 .47200013 .032226564 .47200013 .050247194 .47200013 .07325745 .47999574 .09425354 .4869995 .11427307 .5069885 .16729737 .5479889 .27534486 .5479889 .33335877 .5479889 .41940309 .4889984 .44140626 .43399049 .44140626 .34899903 .44140626 .3019867 .38438417 .2829895 .3613739 .2769928 .4073944 .23999024 .44140626 .19099427 .44140626 .15699768 .44140626 .1329956 .4223938 .11299133 .38739015 .09498596 .3533783 .07998657 .29335023 .07998657 .28834535 .07998657 .27534486 .09298706 .27534486 .09899902 .27534486 .114990238 .27534486 .115997318 .27833558 .12199402 .3023529 .13699341 .3613739 .15499878 .4133911 .18899536 .4133911 .21699524 .4133911 .21699524 .37838746 .21699524 .36938478 .21699524 .3553772 .21499634 .33937074 .21099854 .32536317L.13798523 .033233644C.13598633 .024230957 .1349945 .021224976 .1349945 .018234253 .1349945 .0022277833 .147995-.009765625 .16499329-.009765625 .19699097-.009765625 .20298767 .014221191 .21199036 .052246095L.23399353 .13827515C.23899842 .1592865 .23899842 .1612854 .25 .2033081L.2659912 .26834107C.2709961 .28434754 .3019867 .34336854 .33299256 .3723755 .3639984 .3993988 .3959961 .4133911 .43099977 .4133911 .46998597 .4133911 .48199464 .38539125 .48199464 .34736634 .48199464 .28933717 .43998719 .17529297 .42099 .12527466 .4139862 .10726929 .4079895 .09126282 .4079895 .07325745 .4079895 .027236939 .44099427-.009765625 .49198915-.009765625 .58699038-.009765625 .6289978 .12927246 .6289978 .14328003Z"/>
<path id="font_5_4" d="M.4189911 .15634156C.4189911 .24516297 .33099366 .26313783 .2979889 .27012635 .2539978 .2790985 .21998596 .28608705 .21998596 .32705689 .21998596 .35505677 .24499512 .4133911 .32299806 .4133911 .35499574 .4133911 .3889923 .40231324 .40098573 .37106324 .3659973 .36206056 .3659973 .33006288 .3659973 .33006288 .3659973 .3120575 .37998963 .3000641 .39698792 .3000641 .40098573 .3000641 .44099427 .3000641 .44099427 .35505677 .44099427 .4143982 .38198854 .44140626 .32499696 .44140626 .18998719 .44140626 .1579895 .33206178 .1579895 .29406739 .1579895 .26812745 .16899109 .24017334 .18998719 .22320557 .21199036 .20423889 .22299195 .20225525 .28199769 .18927002 .3039856 .18528748 .35699464 .17430115 .35699464 .12335205 .35699464 .09335327 .33099366 .018234253 .22099304 .018234253 .19999695 .018234253 .14099121 .021240235 .11999512 .067352298 .16499329 .0753479 .16499329 .113357547 .16499329 .11634827 .16499329 .13534546 .15098572 .14935303 .12998963 .14935303 .102996829 .14935303 .07798767 .12934876 .07798767 .08735657 .07798767 .03126526 .1329956-.009765625 .22099304-.009765625 .37799073-.009765625 .4189911 .10835266 .4189911 .15634156Z"/>
<path id="font_5_1" d="M.57499697 .14328003C.57499697 .15628052 .5609894 .15628052 .55599978 .15628052 .5389862 .15628052 .5389862 .1532898 .5329895 .12828064 .5139923 .051239015 .49299623 .018234253 .46598817 .018234253 .43798829 .018234253 .43798829 .050247194 .43798829 .0622406 .43798829 .06825256 .43798829 .07925415 .44099427 .09126282L.58399966 .66529849C.58499148 .6693115 .58699038 .67630007 .58699038 .68029788 .58699038 .6953125 .57099917 .6943054 .55999758 .69329836L.45599366 .6843109C.44198609 .68330386 .43099977 .682312 .43099977 .66430667 .43099977 .6502991 .44299317 .6502991 .45700074 .6502991 .5049896 .6502991 .5049896 .64430239 .5049896 .63531497 .5049896 .63031008 .5019989 .61932376 .5009918 .613327L.44400025 .38539125C.4229889 .4203949 .3939972 .44140626 .35198976 .44140626 .23399353 .44140626 .11299133 .29335023 .11299133 .15028382 .11299133 .054244996 .16999817-.009765625 .24499512-.009765625 .3039856-.009765625 .35299684 .034240724 .37399293 .058242799 .3829956 .021224976 .41600038-.009765625 .46398927-.009765625 .5-.009765625 .5239868 .01222229 .54100039 .04324341 .56199648 .08325195 .57499697 .14328003 .57499697 .14328003M.3809967 .13327027C.37298585 .0982666 .30699159 .018234253 .24798584 .018234253 .20098877 .018234253 .18598938 .069244388 .18598938 .10926819 .18598938 .15628052 .21499634 .27433778 .23999024 .32035829 .27999879 .39338685 .32398988 .4133911 .35198976 .4133911 .4149933 .4133911 .42599488 .32835389 .42599488 .31835938L.4229889 .3043518 .3809967 .13327027Z"/>
<path id="font_5_2" d="M.5019989 .1003418C.5019989 .10835266 .4889984 .12136841 .48199464 .12136841 .47599793 .12136841 .47499085 .11936951 .46598817 .10934448 .4119873 .043258668 .33299256 .018234253 .27799989 .018234253 .20899964 .018234253 .19299317 .08732605 .19299317 .13238526 .19299317 .15541077 .19999695 .19847107 .20698548 .22851563H.2639923C.3039856 .22851563 .4909973 .22851563 .4909973 .3544464 .4909973 .4044037 .44699098 .44140626 .3789978 .44140626 .2709961 .44140626 .11898804 .34744264 .11898804 .17042542 .11898804 .078308109 .17098999-.009765625 .2769928-.009765625 .42099-.009765625 .5019989 .08631897 .5019989 .1003418M.44699098 .3544464C.44699098 .2565155 .29299928 .2565155 .2559967 .2565155H.21499634C.24798584 .38041688 .33499146 .4133911 .3789978 .4133911 .4139862 .4133911 .44699098 .39440919 .44699098 .3544464Z"/>
<path id="font_4_12" d="M.5419922 0V.032989503C.5 .032989503 .48199464 .036987306 .44599916 .083984378L.30099488 .27194215 .38598634 .33992005C.45199586 .3917389 .49398805 .39666749 .5189972 .3976593V.43066407C.49499513 .42765809 .48098756 .42765809 .43998719 .42765809 .3909912 .42765809 .3769989 .4286499 .33299256 .43066407V.3976593C.35198976 .39666749 .35598756 .38383485 .35598756 .3779297 .35598756 .35691834 .33599855 .33992005 .32798768 .33392335L.18399048 .21794129V.69433596L.034988405 .6826172V.6496124C.102996829 .6496124 .11099243 .64260867 .11099243 .5936432V.07795715C.11099243 .032989503 .09899902 .032989503 .034988405 .032989503V0C.07398987 .0029907227 .12799073 .0029907227 .14498902 .0029907227 .16499329 .0029907227 .21699524 .0029907227 .2559967 0V.032989503C.19198609 .032989503 .17999268 .032989503 .17999268 .07795715V.17489624L.24798584 .22886658C.25099183 .22886658 .2769928 .19389344 .29299928 .17489624 .30799867 .1539154 .32398988 .13392639 .33999635 .11393738 .35398866 .093948367 .375 .067977908 .375 .052978517 .375 .035995485 .35598756 .032989503 .34399415 .032989503V0C.3869934 .0029907227 .43199159 .0029907227 .44898988 .0029907227 .4869995 .0029907227 .5069885 .0029907227 .5419922 0Z"/>
</defs>
<path transform="matrix(1,0,0,-1,156.078,30.702004)" d="M143.72666 22.33311H-143.72666C-145.9276 22.33311-147.71176 20.54895-147.71176 18.348V-18.348C-147.71176-20.54895-145.9276-22.33311-143.72666-22.33311H143.72666C145.9276-22.33311 147.71176-20.54895 147.71176-18.348V18.348C147.71176 20.54895 145.9276 22.33311 143.72666 22.33311ZM-147.71176-22.33311" fill="#ebf3f2"/>
<path transform="matrix(1,0,0,-1,156.078,30.702004)" stroke-width=".79701" stroke-linecap="butt" stroke-miterlimit="10" stroke-linejoin="miter" fill="none" stroke="#006e5a" d="M143.72666 22.33311H-143.72666C-145.9276 22.33311-147.71176 20.54895-147.71176 18.348V-18.348C-147.71176-20.54895-145.9276-22.33311-143.72666-22.33311H143.72666C145.9276-22.33311 147.71176-20.54895 147.71176-18.348V18.348C147.71176 20.54895 145.9276 22.33311 143.72666 22.33311ZM-147.71176-22.33311"/>
<use data-text="P" xlink:href="#font_1_14" transform="matrix(9.9626,0,0,-9.9626,31.131009,21.21)"/>
<use data-text="r" xlink:href="#font_1_17" transform="matrix(9.9626,0,0,-9.9626,37.91554,21.21)"/>
<use data-text="e" xlink:href="#font_1_4" transform="matrix(9.9626,0,0,-9.9626,41.820878,21.21)"/>
<use data-text="d" xlink:href="#font_1_3" transform="matrix(9.9626,0,0,-9.9626,46.254236,21.21)"/>
<use data-text="i" xlink:href="#font_1_22" transform="matrix(9.9626,0,0,-9.9626,51.79344,21.21)"/>
<use data-text="c" xlink:href="#font_1_2" transform="matrix(9.9626,0,0,-9.9626,54.563047,21.21)"/>
<use data-text="t" xlink:href="#font_1_19" transform="matrix(9.9626,0,0,-9.9626,58.996404,21.21)"/>
<use data-text="l" xlink:href="#font_1_10" transform="matrix(9.9626,0,0,-9.9626,66.1894,21.21)"/>
<use data-text="o" xlink:href="#font_1_13" transform="matrix(9.9626,0,0,-9.9626,68.959,21.21)"/>
<use data-text="n" xlink:href="#font_1_12" transform="matrix(9.9626,0,0,-9.9626,73.9403,21.21)"/>
<use data-text="g" xlink:href="#font_1_7" transform="matrix(9.9626,0,0,-9.9626,79.47951,21.21)"/>
<use data-text="-" xlink:href="#font_1_9" transform="matrix(9.9626,0,0,-9.9626,84.46081,21.21)"/>
<use data-text="t" xlink:href="#font_1_19" transform="matrix(9.9626,0,0,-9.9626,87.77835,21.21)"/>
<use data-text="e" xlink:href="#font_1_4" transform="matrix(9.9626,0,0,-9.9626,91.6538,21.21)"/>
<use data-text="r" xlink:href="#font_1_17" transform="matrix(9.9626,0,0,-9.9626,96.08716,21.21)"/>
<use data-text="m" xlink:href="#font_1_11" transform="matrix(9.9626,0,0,-9.9626,99.9925,21.21)"/>
<use data-text="t" xlink:href="#font_1_19" transform="matrix(9.9626,0,0,-9.9626,111.60889,21.21)"/>
<use data-text="r" xlink:href="#font_1_17" transform="matrix(9.9626,0,0,-9.9626,115.48434,21.21)"/>
<use data-text="a" xlink:href="#font_1_1" transform="matrix(9.9626,0,0,-9.9626,119.38968,21.21)"/>
<use data-text="f" xlink:href="#font_1_6" transform="matrix(9.9626,0,0,-9.9626,124.37098,21.21)"/>
<use data-text="c" xlink:href="#font_1_2" transform="matrix(9.9626,0,0,-9.9626,132.66983,21.21)"/>
<use data-text="f" xlink:href="#font_2_5" transform="matrix(9.9626,0,0,-9.9626,140.42075,21.21)"/>
<use data-text="r" xlink:href="#font_2_12" transform="matrix(9.9626,0,0,-9.9626,143.91762,21.21)"/>
<use data-text="o" xlink:href="#font_2_10" transform="matrix(9.9626,0,0,-9.9626,148.6399,21.21)"/>
<use data-text="m" xlink:href="#font_2_8" transform="matrix(9.9626,0,0,-9.9626,154.3684,21.21)"/>
<use data-text="s" xlink:href="#font_2_13" transform="matrix(9.9626,0,0,-9.9626,167.24008,21.21)"/>
<use data-text="o" xlink:href="#font_2_10" transform="matrix(9.9626,0,0,-9.9626,171.7631,21.21)"/>
<use data-text="c" xlink:href="#font_2_3" transform="matrix(9.9626,0,0,-9.9626,177.81041,21.21)"/>
<use data-text="i" xlink:href="#font_2_16" transform="matrix(9.9626,0,0,-9.9626,182.90129,21.21)"/>
<use data-text="o" xlink:href="#font_2_10" transform="matrix(9.9626,0,0,-9.9626,186.08933,21.21)"/>
<use data-text="e" xlink:href="#font_2_4" transform="matrix(9.9626,0,0,-9.9626,192.13663,21.21)"/>
<use data-text="c" xlink:href="#font_2_3" transform="matrix(9.9626,0,0,-9.9626,197.38692,21.21)"/>
<use data-text="o" xlink:href="#font_2_10" transform="matrix(9.9626,0,0,-9.9626,202.4778,21.21)"/>
<use data-text="n" xlink:href="#font_2_9" transform="matrix(9.9626,0,0,-9.9626,208.2063,21.21)"/>
<use data-text="o" xlink:href="#font_2_10" transform="matrix(9.9626,0,0,-9.9626,214.5724,21.21)"/>
<use data-text="m" xlink:href="#font_2_8" transform="matrix(9.9626,0,0,-9.9626,220.3009,21.21)"/>
<use data-text="i" xlink:href="#font_2_16" transform="matrix(9.9626,0,0,-9.9626,229.84508,21.21)"/>
<use data-text="c" xlink:href="#font_2_3" transform="matrix(9.9626,0,0,-9.9626,233.03311,21.21)"/>
<use data-text="f" xlink:href="#font_2_5" transform="matrix(9.9626,0,0,-9.9626,241.44156,21.21)"/>
<use data-text="e" xlink:href="#font_2_4" transform="matrix(9.9626,0,0,-9.9626,244.93843,21.21)"/>
<use data-text="a" xlink:href="#font_2_1" transform="matrix(9.9626,0,0,-9.9626,250.18872,21.21)"/>
<use data-text="t" xlink:href="#font_2_14" transform="matrix(9.9626,0,0,-9.9626,255.75782,21.21)"/>
<use data-text="u" xlink:href="#font_2_15" transform="matrix(9.9626,0,0,-9.9626,260.2111,21.21)"/>
<use data-text="r" xlink:href="#font_2_12" transform="matrix(9.9626,0,0,-9.9626,266.57719,21.21)"/>
<use data-text="e" xlink:href="#font_2_4" transform="matrix(9.9626,0,0,-9.9626,271.29945,21.21)"/>
<use data-text="s" xlink:href="#font_2_13" transform="matrix(9.9626,0,0,-9.9626,276.54975,21.21)"/>
<use data-text="a" xlink:href="#font_2_1" transform="matrix(9.9626,0,0,-9.9626,37.34501,33.165)"/>
<use data-text="l" xlink:href="#font_2_7" transform="matrix(9.9626,0,0,-9.9626,42.9141,33.165)"/>
<use data-text="o" xlink:href="#font_2_10" transform="matrix(9.9626,0,0,-9.9626,46.102136,33.165)"/>
<use data-text="n" xlink:href="#font_2_9" transform="matrix(9.9626,0,0,-9.9626,51.83063,33.165)"/>
<use data-text="e" xlink:href="#font_2_4" transform="matrix(9.9626,0,0,-9.9626,58.19673,33.165)"/>
<use data-text="&#x2014;" xlink:href="#font_1_5" transform="matrix(9.9626,0,0,-9.9626,66.764568,33.165)"/>
<use data-text="n" xlink:href="#font_1_12" transform="matrix(9.9626,0,0,-9.9626,80.05467,33.165)"/>
<use data-text="o" xlink:href="#font_1_13" transform="matrix(9.9626,0,0,-9.9626,85.59388,33.165)"/>
<use data-text="h" xlink:href="#font_1_8" transform="matrix(9.9626,0,0,-9.9626,93.89272,33.165)"/>
<use data-text="i" xlink:href="#font_1_22" transform="matrix(9.9626,0,0,-9.9626,99.43193,33.165)"/>
<use data-text="s" xlink:href="#font_1_18" transform="matrix(9.9626,0,0,-9.9626,102.20153,33.165)"/>
<use data-text="t" xlink:href="#font_1_19" transform="matrix(9.9626,0,0,-9.9626,106.13676,33.165)"/>
<use data-text="o" xlink:href="#font_1_13" transform="matrix(9.9626,0,0,-9.9626,110.01221,33.165)"/>
<use data-text="r" xlink:href="#font_1_17" transform="matrix(9.9626,0,0,-9.9626,114.99351,33.165)"/>
<use data-text="i" xlink:href="#font_1_22" transform="matrix(9.9626,0,0,-9.9626,118.89885,33.165)"/>
<use data-text="c" xlink:href="#font_1_2" transform="matrix(9.9626,0,0,-9.9626,121.66845,33.165)"/>
<use data-text="a" xlink:href="#font_1_1" transform="matrix(9.9626,0,0,-9.9626,126.10181,33.165)"/>
<use data-text="l" xlink:href="#font_1_10" transform="matrix(9.9626,0,0,-9.9626,131.08312,33.165)"/>
<use data-text="s" xlink:href="#font_1_18" transform="matrix(9.9626,0,0,-9.9626,137.17028,33.165)"/>
<use data-text="e" xlink:href="#font_1_4" transform="matrix(9.9626,0,0,-9.9626,141.1055,33.165)"/>
<use data-text="n" xlink:href="#font_1_12" transform="matrix(9.9626,0,0,-9.9626,145.53887,33.165)"/>
<use data-text="s" xlink:href="#font_1_18" transform="matrix(9.9626,0,0,-9.9626,151.07807,33.165)"/>
<use data-text="o" xlink:href="#font_1_13" transform="matrix(9.9626,0,0,-9.9626,155.01329,33.165)"/>
<use data-text="r" xlink:href="#font_1_17" transform="matrix(9.9626,0,0,-9.9626,159.99459,33.165)"/>
<use data-text="i" xlink:href="#font_1_22" transform="matrix(9.9626,0,0,-9.9626,167.21747,33.165)"/>
<use data-text="n" xlink:href="#font_1_12" transform="matrix(9.9626,0,0,-9.9626,169.98708,33.165)"/>
<use data-text="p" xlink:href="#font_1_15" transform="matrix(9.9626,0,0,-9.9626,175.52628,33.165)"/>
<use data-text="u" xlink:href="#font_1_20" transform="matrix(9.9626,0,0,-9.9626,181.06548,33.165)"/>
<use data-text="t" xlink:href="#font_1_19" transform="matrix(9.9626,0,0,-9.9626,186.60468,33.165)"/>
<use data-text="&#x2014;" xlink:href="#font_1_5" transform="matrix(9.9626,0,0,-9.9626,193.79769,33.165)"/>
<use data-text="i" xlink:href="#font_1_22" transform="matrix(9.9626,0,0,-9.9626,207.07784,33.165)"/>
<use data-text="n" xlink:href="#font_1_12" transform="matrix(9.9626,0,0,-9.9626,209.84745,33.165)"/>
<use data-text="a" xlink:href="#font_1_1" transform="matrix(9.9626,0,0,-9.9626,218.71416,33.165)"/>
<use data-text="m" xlink:href="#font_1_11" transform="matrix(9.9626,0,0,-9.9626,227.013,33.165)"/>
<use data-text="o" xlink:href="#font_1_13" transform="matrix(9.9626,0,0,-9.9626,235.31185,33.165)"/>
<use data-text="d" xlink:href="#font_1_3" transform="matrix(9.9626,0,0,-9.9626,240.57209,33.165)"/>
<use data-text="e" xlink:href="#font_1_4" transform="matrix(9.9626,0,0,-9.9626,246.11128,33.165)"/>
<use data-text="l" xlink:href="#font_1_10" transform="matrix(9.9626,0,0,-9.9626,250.54463,33.165)"/>
<use data-text="t" xlink:href="#font_1_19" transform="matrix(9.9626,0,0,-9.9626,256.63179,33.165)"/>
<use data-text="h" xlink:href="#font_1_8" transform="matrix(9.9626,0,0,-9.9626,260.50724,33.165)"/>
<use data-text="a" xlink:href="#font_1_1" transform="matrix(9.9626,0,0,-9.9626,266.04646,33.165)"/>
<use data-text="t" xlink:href="#font_1_19" transform="matrix(9.9626,0,0,-9.9626,271.02775,33.165)"/>
<use data-text="t" xlink:href="#font_2_14" transform="matrix(9.9626,0,0,-9.9626,40.486009,45.120004)"/>
<use data-text="r" xlink:href="#font_2_12" transform="matrix(9.9626,0,0,-9.9626,44.93929,45.120004)"/>
<use data-text="a" xlink:href="#font_2_1" transform="matrix(9.9626,0,0,-9.9626,49.66156,45.120004)"/>
<use data-text="n" xlink:href="#font_2_9" transform="matrix(9.9626,0,0,-9.9626,55.23065,45.120004)"/>
<use data-text="s" xlink:href="#font_2_13" transform="matrix(9.9626,0,0,-9.9626,61.596754,45.120004)"/>
<use data-text="f" xlink:href="#font_2_5" transform="matrix(9.9626,0,0,-9.9626,66.119777,45.120004)"/>
<use data-text="e" xlink:href="#font_2_4" transform="matrix(9.9626,0,0,-9.9626,69.616649,45.120004)"/>
<use data-text="r" xlink:href="#font_2_12" transform="matrix(9.9626,0,0,-9.9626,74.866939,45.120004)"/>
<use data-text="s" xlink:href="#font_2_13" transform="matrix(9.9626,0,0,-9.9626,79.58921,45.120004)"/>
<use data-text="a" xlink:href="#font_2_1" transform="matrix(9.9626,0,0,-9.9626,87.42977,45.120004)"/>
<use data-text="c" xlink:href="#font_2_3" transform="matrix(9.9626,0,0,-9.9626,92.99886,45.120004)"/>
<use data-text="r" xlink:href="#font_2_12" transform="matrix(9.9626,0,0,-9.9626,98.08975,45.120004)"/>
<use data-text="o" xlink:href="#font_2_10" transform="matrix(9.9626,0,0,-9.9626,102.81203,45.120004)"/>
<use data-text="s" xlink:href="#font_2_13" transform="matrix(9.9626,0,0,-9.9626,108.54052,45.120004)"/>
<use data-text="s" xlink:href="#font_2_13" transform="matrix(9.9626,0,0,-9.9626,113.06354,45.120004)"/>
<use data-text="r" xlink:href="#font_2_12" transform="matrix(9.9626,0,0,-9.9626,120.91406,45.120004)"/>
<use data-text="e" xlink:href="#font_2_4" transform="matrix(9.9626,0,0,-9.9626,125.63634,45.120004)"/>
<use data-text="g" xlink:href="#font_2_6" transform="matrix(9.9626,0,0,-9.9626,130.88665,45.120004)"/>
<use data-text="i" xlink:href="#font_2_16" transform="matrix(9.9626,0,0,-9.9626,136.61515,45.120004)"/>
<use data-text="o" xlink:href="#font_2_10" transform="matrix(9.9626,0,0,-9.9626,139.80318,45.120004)"/>
<use data-text="n" xlink:href="#font_2_9" transform="matrix(9.9626,0,0,-9.9626,145.53168,45.120004)"/>
<use data-text="s" xlink:href="#font_2_13" transform="matrix(9.9626,0,0,-9.9626,151.89778,45.120004)"/>
<use data-text="a" xlink:href="#font_1_1" transform="matrix(9.9626,0,0,-9.9626,159.73836,45.120004)"/>
<use data-text="n" xlink:href="#font_1_12" transform="matrix(9.9626,0,0,-9.9626,164.71965,45.120004)"/>
<use data-text="d" xlink:href="#font_1_3" transform="matrix(9.9626,0,0,-9.9626,170.25885,45.120004)"/>
<use data-text="s" xlink:href="#font_1_18" transform="matrix(9.9626,0,0,-9.9626,179.1156,45.120004)"/>
<use data-text="t" xlink:href="#font_1_19" transform="matrix(9.9626,0,0,-9.9626,183.05083,45.120004)"/>
<use data-text="a" xlink:href="#font_1_1" transform="matrix(9.9626,0,0,-9.9626,186.92629,45.120004)"/>
<use data-text="y" xlink:href="#font_1_21" transform="matrix(9.9626,0,0,-9.9626,191.62863,45.120004)"/>
<use data-text="s" xlink:href="#font_1_18" transform="matrix(9.9626,0,0,-9.9626,196.88889,45.120004)"/>
<use data-text="i" xlink:href="#font_2_16" transform="matrix(9.9626,0,0,-9.9626,204.14167,45.120004)"/>
<use data-text="n" xlink:href="#font_2_9" transform="matrix(9.9626,0,0,-9.9626,207.3297,45.120004)"/>
<use data-text="t" xlink:href="#font_2_14" transform="matrix(9.9626,0,0,-9.9626,213.377,45.120004)"/>
<use data-text="e" xlink:href="#font_2_4" transform="matrix(9.9626,0,0,-9.9626,217.83028,45.120004)"/>
<use data-text="r" xlink:href="#font_2_12" transform="matrix(9.9626,0,0,-9.9626,223.08057,45.120004)"/>
<use data-text="p" xlink:href="#font_2_11" transform="matrix(9.9626,0,0,-9.9626,227.80284,45.120004)"/>
<use data-text="r" xlink:href="#font_2_12" transform="matrix(9.9626,0,0,-9.9626,234.16895,45.120004)"/>
<use data-text="e" xlink:href="#font_2_4" transform="matrix(9.9626,0,0,-9.9626,238.89122,45.120004)"/>
<use data-text="t" xlink:href="#font_2_14" transform="matrix(9.9626,0,0,-9.9626,244.14151,45.120004)"/>
<use data-text="a" xlink:href="#font_2_1" transform="matrix(9.9626,0,0,-9.9626,248.59479,45.120004)"/>
<use data-text="b" xlink:href="#font_2_2" transform="matrix(9.9626,0,0,-9.9626,254.16388,45.120004)"/>
<use data-text="l" xlink:href="#font_2_7" transform="matrix(9.9626,0,0,-9.9626,260.52998,45.120004)"/>
<use data-text="e" xlink:href="#font_2_4" transform="matrix(9.9626,0,0,-9.9626,263.718,45.120004)"/>
<use data-text="." xlink:href="#font_1_16" transform="matrix(9.9626,0,0,-9.9626,268.9683,45.120004)"/>
<path transform="matrix(1,0,0,-1,156.078,30.702004)" d="M-21.39186-57.14622H-127.42569C-129.62664-57.14622-131.4108-58.93039-131.4108-61.13133V-97.16367C-131.4108-99.36461-129.62664-101.14877-127.42569-101.14877H-21.39186C-19.19092-101.14877-17.40675-99.36461-17.40675-97.16367V-61.13133C-17.40675-58.93039-19.19092-57.14622-21.39186-57.14622ZM-131.4108-101.14877" fill="#ecf2f8"/>
<path transform="matrix(1,0,0,-1,156.078,30.702004)" stroke-width=".79701" stroke-linecap="butt" stroke-miterlimit="10" stroke-linejoin="miter" fill="none" stroke="#4682b4" d="M-21.39186-57.14622H-127.42569C-129.62664-57.14622-131.4108-58.93039-131.4108-61.13133V-97.16367C-131.4108-99.36461-129.62664-101.14877-127.42569-101.14877H-21.39186C-19.19092-101.14877-17.40675-99.36461-17.40675-97.16367V-61.13133C-17.40675-58.93039-19.19092-57.14622-21.39186-57.14622ZM-131.4108-101.14877"/>
<use data-text="M" xlink:href="#font_3_6" transform="matrix(8.9664,0,0,-8.9664,63.453004,99.969)"/>
<use data-text="u" xlink:href="#font_3_11" transform="matrix(8.9664,0,0,-8.9664,73.513309,99.969)"/>
<use data-text="k" xlink:href="#font_3_5" transform="matrix(8.9664,0,0,-8.9664,79.40422,99.969)"/>
<use data-text="a" xlink:href="#font_3_1" transform="matrix(8.9664,0,0,-8.9664,85.008228,99.969)"/>
<use data-text="r" xlink:href="#font_3_10" transform="matrix(8.9664,0,0,-8.9664,90.16391,99.969)"/>
<use data-text="a" xlink:href="#font_3_1" transform="matrix(8.9664,0,0,-8.9664,94.539508,99.969)"/>
<use data-text="l" xlink:href="#font_4_13" transform="matrix(7.9701,0,0,-7.9701,43.421,112.92)"/>
<use data-text="e" xlink:href="#font_4_6" transform="matrix(7.9701,0,0,-7.9701,45.772184,112.92)"/>
<use data-text="a" xlink:href="#font_4_2" transform="matrix(7.9701,0,0,-7.9701,49.53407,112.92)"/>
<use data-text="r" xlink:href="#font_4_22" transform="matrix(7.9701,0,0,-7.9701,53.766195,112.92)"/>
<use data-text="n" xlink:href="#font_4_16" transform="matrix(7.9701,0,0,-7.9701,57.065816,112.92)"/>
<use data-text="t" xlink:href="#font_4_25" transform="matrix(7.9701,0,0,-7.9701,64.836658,112.92)"/>
<use data-text="h" xlink:href="#font_4_10" transform="matrix(7.9701,0,0,-7.9701,68.12831,112.92)"/>
<use data-text="e" xlink:href="#font_4_6" transform="matrix(7.9701,0,0,-7.9701,72.83067,112.92)"/>
<use data-text="w" xlink:href="#font_4_27" transform="matrix(7.9701,0,0,-7.9701,79.66902,112.92)"/>
<use data-text="h" xlink:href="#font_4_10" transform="matrix(7.9701,0,0,-7.9701,85.78209,112.92)"/>
<use data-text="o" xlink:href="#font_4_17" transform="matrix(7.9701,0,0,-7.9701,90.48445,112.92)"/>
<use data-text="l" xlink:href="#font_4_13" transform="matrix(7.9701,0,0,-7.9701,94.71657,112.92)"/>
<use data-text="e" xlink:href="#font_4_6" transform="matrix(7.9701,0,0,-7.9701,97.06775,112.92)"/>
<use data-text="m" xlink:href="#font_4_14" transform="matrix(7.9701,0,0,-7.9701,103.89813,112.92)"/>
<use data-text="a" xlink:href="#font_4_2" transform="matrix(7.9701,0,0,-7.9701,110.95166,112.92)"/>
<use data-text="p" xlink:href="#font_4_18" transform="matrix(7.9701,0,0,-7.9701,115.18379,112.92)"/>
<use data-text="e" xlink:href="#font_4_6" transform="matrix(7.9701,0,0,-7.9701,32.118,123.879)"/>
<use data-text="n" xlink:href="#font_4_16" transform="matrix(7.9701,0,0,-7.9701,35.879888,123.879)"/>
<use data-text="d" xlink:href="#font_4_5" transform="matrix(7.9701,0,0,-7.9701,40.582246,123.879)"/>
<use data-text="-" xlink:href="#font_4_11" transform="matrix(7.9701,0,0,-7.9701,45.284605,123.879)"/>
<use data-text="t" xlink:href="#font_4_25" transform="matrix(7.9701,0,0,-7.9701,48.106019,123.879)"/>
<use data-text="o" xlink:href="#font_4_17" transform="matrix(7.9701,0,0,-7.9701,51.39767,123.879)"/>
<use data-text="-" xlink:href="#font_4_11" transform="matrix(7.9701,0,0,-7.9701,55.629796,123.879)"/>
<use data-text="e" xlink:href="#font_4_6" transform="matrix(7.9701,0,0,-7.9701,58.45121,123.879)"/>
<use data-text="n" xlink:href="#font_4_16" transform="matrix(7.9701,0,0,-7.9701,62.213098,123.879)"/>
<use data-text="d" xlink:href="#font_4_5" transform="matrix(7.9701,0,0,-7.9701,66.91545,123.879)"/>
<use data-text="(" xlink:href="#font_4_19" transform="matrix(7.9701,0,0,-7.9701,74.68631,123.879)"/>
<use data-text="C" xlink:href="#font_4_3" transform="matrix(7.9701,0,0,-7.9701,77.97795,123.879)"/>
<use data-text="N" xlink:href="#font_4_15" transform="matrix(7.9701,0,0,-7.9701,84.09102,123.879)"/>
<use data-text="N" xlink:href="#font_4_15" transform="matrix(7.9701,0,0,-7.9701,90.43523,123.879)"/>
<use data-text="+" xlink:href="#font_4_21" transform="matrix(7.9701,0,0,-7.9701,99.85588,123.879)"/>
<use data-text="G" xlink:href="#font_4_8" transform="matrix(7.9701,0,0,-7.9701,109.507678,123.879)"/>
<use data-text="A" xlink:href="#font_4_1" transform="matrix(7.9701,0,0,-7.9701,116.15474,123.879)"/>
<use data-text="T" xlink:href="#font_4_24" transform="matrix(7.9701,0,0,-7.9701,121.78961,123.879)"/>
<use data-text=")" xlink:href="#font_4_20" transform="matrix(7.9701,0,0,-7.9701,127.90268,123.879)"/>
<path transform="matrix(1,0,0,-1,156.078,30.702004)" d="M127.42569-57.14622H21.39186C19.19092-57.14622 17.40675-58.93039 17.40675-61.13133V-95.17111C17.40675-97.37206 19.19092-99.15622 21.39186-99.15622H127.42569C129.62664-99.15622 131.4108-97.37206 131.4108-95.17111V-61.13133C131.4108-58.93039 129.62664-57.14622 127.42569-57.14622ZM17.40675-99.15622" fill="#ebf3f2"/>
<path transform="matrix(1,0,0,-1,156.078,30.702004)" stroke-width=".79701" stroke-linecap="butt" stroke-miterlimit="10" stroke-linejoin="miter" fill="none" stroke="#006e5a" d="M127.42569-57.14622H21.39186C19.19092-57.14622 17.40675-58.93039 17.40675-61.13133V-95.17111C17.40675-97.37206 19.19092-99.15622 21.39186-99.15622H127.42569C129.62664-99.15622 131.4108-97.37206 131.4108-95.17111V-61.13133C131.4108-58.93039 129.62664-57.14622 127.42569-57.14622ZM17.40675-99.15622"/>
<use data-text="D" xlink:href="#font_3_2" transform="matrix(8.9664,0,0,-8.9664,199.213,99.969)"/>
<use data-text="e" xlink:href="#font_3_4" transform="matrix(8.9664,0,0,-8.9664,207.34552,99.969)"/>
<use data-text="e" xlink:href="#font_3_4" transform="matrix(8.9664,0,0,-8.9664,212.21428,99.969)"/>
<use data-text="p" xlink:href="#font_3_9" transform="matrix(8.9664,0,0,-8.9664,217.08304,99.969)"/>
<use data-text="D" xlink:href="#font_3_2" transform="matrix(8.9664,0,0,-8.9664,222.97397,99.969)"/>
<use data-text="e" xlink:href="#font_3_4" transform="matrix(8.9664,0,0,-8.9664,231.10649,99.969)"/>
<use data-text="m" xlink:href="#font_3_7" transform="matrix(8.9664,0,0,-8.9664,235.97525,99.969)"/>
<use data-text="a" xlink:href="#font_3_1" transform="matrix(8.9664,0,0,-8.9664,244.81612,99.969)"/>
<use data-text="n" xlink:href="#font_3_8" transform="matrix(8.9664,0,0,-8.9664,249.9718,99.969)"/>
<use data-text="d" xlink:href="#font_3_3" transform="matrix(8.9664,0,0,-8.9664,255.86273,99.969)"/>
<use data-text="p" xlink:href="#font_4_18" transform="matrix(7.9701,0,0,-7.9701,188.803,112.92)"/>
<use data-text="u" xlink:href="#font_4_26" transform="matrix(7.9701,0,0,-7.9701,193.50536,112.92)"/>
<use data-text="t" xlink:href="#font_4_25" transform="matrix(7.9701,0,0,-7.9701,198.20772,112.92)"/>
<use data-text="t" xlink:href="#font_4_25" transform="matrix(7.9701,0,0,-7.9701,204.56786,112.92)"/>
<use data-text="h" xlink:href="#font_4_10" transform="matrix(7.9701,0,0,-7.9701,207.85951,112.92)"/>
<use data-text="e" xlink:href="#font_4_6" transform="matrix(7.9701,0,0,-7.9701,212.56188,112.92)"/>
<use data-text="f" xlink:href="#font_4_7" transform="matrix(7.9701,0,0,-7.9701,219.40023,112.92)"/>
<use data-text="o" xlink:href="#font_4_17" transform="matrix(7.9701,0,0,-7.9701,221.99051,112.92)"/>
<use data-text="u" xlink:href="#font_4_26" transform="matrix(7.9701,0,0,-7.9701,226.22263,112.92)"/>
<use data-text="r" xlink:href="#font_4_22" transform="matrix(7.9701,0,0,-7.9701,230.92499,112.92)"/>
<use data-text="-" xlink:href="#font_4_11" transform="matrix(7.9701,0,0,-7.9701,234.22461,112.92)"/>
<use data-text="s" xlink:href="#font_4_23" transform="matrix(7.9701,0,0,-7.9701,237.04602,112.92)"/>
<use data-text="t" xlink:href="#font_4_25" transform="matrix(7.9701,0,0,-7.9701,240.3855,112.92)"/>
<use data-text="e" xlink:href="#font_4_6" transform="matrix(7.9701,0,0,-7.9701,243.67716,112.92)"/>
<use data-text="p" xlink:href="#font_4_18" transform="matrix(7.9701,0,0,-7.9701,247.43904,112.92)"/>
<use data-text="l" xlink:href="#font_4_13" transform="matrix(7.9701,0,0,-7.9701,255.20989,112.92)"/>
<use data-text="o" xlink:href="#font_4_17" transform="matrix(7.9701,0,0,-7.9701,257.56108,112.92)"/>
<use data-text="g" xlink:href="#font_4_9" transform="matrix(7.9701,0,0,-7.9701,261.79319,112.92)"/>
<use data-text="i" xlink:href="#font_4_28" transform="matrix(7.9701,0,0,-7.9701,266.0253,112.92)"/>
<use data-text="c" xlink:href="#font_4_4" transform="matrix(7.9701,0,0,-7.9701,268.37648,112.92)"/>
<use data-text="i" xlink:href="#font_5_5" transform="matrix(7.9701,0,0,-7.9701,195.754,123.879)"/>
<use data-text="n" xlink:href="#font_5_3" transform="matrix(7.9701,0,0,-7.9701,198.37616,123.879)"/>
<use data-text="s" xlink:href="#font_5_4" transform="matrix(7.9701,0,0,-7.9701,203.1901,123.879)"/>
<use data-text="i" xlink:href="#font_5_5" transform="matrix(7.9701,0,0,-7.9701,206.68897,123.879)"/>
<use data-text="d" xlink:href="#font_5_1" transform="matrix(7.9701,0,0,-7.9701,209.31113,123.879)"/>
<use data-text="e" xlink:href="#font_5_2" transform="matrix(7.9701,0,0,-7.9701,213.6867,123.879)"/>
<use data-text="t" xlink:href="#font_4_25" transform="matrix(7.9701,0,0,-7.9701,220.97934,123.879)"/>
<use data-text="h" xlink:href="#font_4_10" transform="matrix(7.9701,0,0,-7.9701,224.271,123.879)"/>
<use data-text="e" xlink:href="#font_4_6" transform="matrix(7.9701,0,0,-7.9701,228.97336,123.879)"/>
<use data-text="n" xlink:href="#font_4_16" transform="matrix(7.9701,0,0,-7.9701,235.8117,123.879)"/>
<use data-text="e" xlink:href="#font_4_6" transform="matrix(7.9701,0,0,-7.9701,240.51407,123.879)"/>
<use data-text="t" xlink:href="#font_4_25" transform="matrix(7.9701,0,0,-7.9701,244.27596,123.879)"/>
<use data-text="w" xlink:href="#font_4_27" transform="matrix(7.9701,0,0,-7.9701,247.3285,123.879)"/>
<use data-text="o" xlink:href="#font_4_17" transform="matrix(7.9701,0,0,-7.9701,253.21044,123.879)"/>
<use data-text="r" xlink:href="#font_4_22" transform="matrix(7.9701,0,0,-7.9701,257.44258,123.879)"/>
<use data-text="k" xlink:href="#font_4_12" transform="matrix(7.9701,0,0,-7.9701,260.7422,123.879)"/>
<path transform="matrix(1,0,0,-1,156.078,30.702004)" stroke-width=".99628" stroke-linecap="butt" stroke-miterlimit="10" stroke-linejoin="miter" fill="none" stroke="#003e74" d="M0-22.73161-70.25746-54.85002"/>
<path transform="matrix(-.90942,.41573,.41573,.90942,88.37184,84.385768)" d="M5.95149 0 1.60866 1.6449 3.05444 0 1.60866-1.6449Z" fill="#003e74"/>
<path transform="matrix(-.90942,.41573,.41573,.90942,88.37184,84.385768)" stroke-width=".99628" stroke-linecap="butt" stroke-miterlimit="10" stroke-linejoin="miter" fill="none" stroke="#003e74" d="M5.95149 0 1.60866 1.6449 3.05444 0 1.60866-1.6449Z"/>
<path transform="matrix(1,0,0,-1,156.078,30.702004)" stroke-width=".99628" stroke-linecap="butt" stroke-miterlimit="10" stroke-linejoin="miter" fill="none" stroke="#003e74" d="M0-22.73161 70.25746-54.85002"/>
<path transform="matrix(.90942,.41573,.41573,-.90942,223.78417,84.385768)" d="M5.95149 0 1.60866 1.6449 3.05444 0 1.60866-1.6449Z" fill="#003e74"/>
<path transform="matrix(.90942,.41573,.41573,-.90942,223.78417,84.385768)" stroke-width=".99628" stroke-linecap="butt" stroke-miterlimit="10" stroke-linejoin="miter" fill="none" stroke="#003e74" d="M5.95149 0 1.60866 1.6449 3.05444 0 1.60866-1.6449Z"/>
</svg>
