<svg xmlns="http://www.w3.org/2000/svg" xmlns:xlink="http://www.w3.org/1999/xlink" xmlns:inkscape="http://www.inkscape.org/namespaces/inkscape" version="1.1" width="160.926" height="130.675" viewBox="0 0 160.926 130.675">
<defs>
<clipPath id="clip_1">
<path transform="matrix(1,0,0,-1,21.851,107.894008)" d="M0 0H130.90727V99.72649H0Z"/>
</clipPath>
<path id="font_2_4" d="M.3769989 .63201907C.3769989 .6750946 .33499146 .70410159 .28199769 .70410159 .20698548 .70410159 .117996219 .65005496 .117996219 .54286196V.43066407H.035995485V.3976593H.117996219V.07795715C.117996219 .032989503 .10598755 .032989503 .041992189 .032989503V0C.08099365 .0029907227 .13598633 .0029907227 .1599884 .0029907227 .21899414 .0029907227 .22099304 .0029907227 .28599549 0V.032989503H.2659912C.19299317 .032989503 .19099427 .04397583 .19099427 .079956058V.3976593H.31098939V.43066407H.18798828V.54385378C.18798828 .63108828 .23699951 .6760864 .2809906 .6760864 .29699708 .6760864 .30599977 .6720886 .30999757 .6710968 .2919922 .6620941 .2869873 .6450958 .2869873 .63209536 .2869873 .60609439 .30599977 .58709719 .33198548 .58709719 .35899354 .58709719 .3769989 .60609439 .3769989 .63209536V.63201907Z"/>
<path id="font_2_3" d="M.44099427 .12036133C.44099427 .12435913 .43798829 .13438416 .4249878 .13438416 .4139862 .13438416 .4119873 .12736511 .4099884 .12136841 .37399293 .024230957 .28799439 .021224976 .269989 .021224976 .22499085 .021224976 .1789856 .042251588 .14898682 .08831787 .11898804 .13438416 .11898804 .19847107 .11898804 .22851563H.41299439C.43499757 .22851563 .44099427 .22851563 .44099427 .25151063 .44099427 .34039308 .3919983 .44628907 .25099183 .44628907 .1269989 .44628907 .02999878 .3433838 .02999878 .21949768 .02999878 .09031677 .13798523-.009765625 .2639923-.009765625 .3909912-.009765625 .44099427 .097335819 .44099427 .12036133M.37298585 .25450135H.11999512C.1289978 .39431764 .21398926 .41827394 .25099183 .41827394 .36799623 .41827394 .37199403 .27748109 .37298585 .25450135Z"/>
<path id="font_2_1" d="M.5139923 .09020996V.14530945H.48298646V.09020996C.48298646 .0491333 .46798707 .033111574 .44699098 .033111574 .4099884 .033111574 .4099884 .079193118 .4099884 .09020996V.29856874C.4099884 .39653016 .31498719 .44628907 .22399903 .44628907 .14099121 .44628907 .066986087 .4143219 .066986087 .34857179 .066986087 .318573 .08799744 .30056764 .11399841 .30056764 .14199829 .30056764 .16099549 .3205719 .16099549 .3475647 .16099549 .37156678 .1459961 .38856507 .12399292 .3935547 .16099549 .41827394 .21499634 .41827394 .22200012 .41827394 .27799989 .41827394 .33399964 .37957765 .33399964 .29756166V.26651C.27598573 .26350404 .20899964 .26049806 .13899231 .23144531 .050994874 .1933899 .033996583 .13528443 .033996583 .10223389 .033996583 .016220093 .1349945-.009765625 .20399475-.009765625 .2769928-.009765625 .32199098 .031219483 .34399415 .07122803 .34899903 .033111574 .375-.0048828127 .4189911-.0048828127 .42900086-.0048828127 .5139923-.00088500979 .5139923 .09010315V.09020996M.33399964 .14111328C.33399964 .04421997 .2519989 .018234253 .21199036 .018234253 .1599884 .018234253 .115997318 .053222658 .115997318 .10122681 .115997318 .16722107 .17799378 .23522949 .33399964 .24023438V.14111328Z"/>
<path id="font_2_15" d="M.35299684 .1250763V.1809845H.32199098V.12705994C.32199098 .058166505 .29100038 .021224976 .25299073 .021224976 .18598938 .021224976 .18598938 .10710144 .18598938 .12307739V.3976593H.33499146V.43066407H.18598938V.6142578H.15499878C.1539917 .52345278 .11299133 .4286499 .019989014 .42565919V.3976593H.10998535V.1250763C.10998535 .008224487 .19999695-.009765625 .24598694-.009765625 .31298829-.010009766 .35299684 .049987794 .35299684 .125V.1250763Z"/>
<path id="font_2_16" d="M.56199648 .00022888184V.033233644C.49398805 .033233644 .48599244 .040237428 .48599244 .08924866V.44140626L.33399964 .43040467V.3973999C.4019928 .3973999 .4099884 .39039613 .4099884 .34136964V.16726685C.4099884 .08125305 .35798646 .018234253 .2829895 .018234253 .19699097 .018234253 .19299317 .06123352 .19299317 .11126709V.44140626L.040985109 .43040467V.3973999C.116989139 .3973999 .116989139 .39439393 .116989139 .30534364V.15527344C.116989139 .08325195 .116989139-.009765625 .2769928-.009765625 .37098695-.009765625 .40699769 .0622406 .4119873 .071243289H.41299439V-.009765625L.56199648 .00022888184Z"/>
<path id="font_2_14" d="M.38398744 .3784027C.38398744 .4133911 .35198976 .44140626 .30799867 .44140626 .24299622 .44140626 .19898987 .39239503 .17799378 .33639527H.1769867V.44140626L.034988405 .43045045V.39746095C.102996829 .39746095 .11099243 .3904419 .11099243 .3413849V.078048709C.11099243 .032989503 .09899902 .032989503 .034988405 .032989503V0C.07398987 .0029907227 .1289978 .0029907227 .15299988 .0029907227 .21199036 .0029907227 .21398926 .0029907227 .2789917 0V.032989503H.25898744C.18598938 .032989503 .18399048 .044006349 .18399048 .08004761V.22824097C.18399048 .30332948 .21499634 .41145326 .31098939 .41345216 .30499269 .40899659 .29499818 .40098573 .29499818 .37799073 .29499818 .34700013 .31900025 .33299256 .33898927 .33299256 .36299134 .33299256 .38398744 .34899903 .38398744 .37799073V.3784027Z"/>
<path id="font_3_1" d="M.5249939 .143219C.5249939 .15322876 .5169983 .15623474 .5099945 .15623474 .49798585 .15623474 .49598695 .14923096 .49299623 .13922119 .47299195 .07218933 .41600038 .018234253 .35798646 .018234253 .32499696 .018234253 .30099488 .04019165 .30099488 .0821991 .30099488 .10218811 .30699159 .12519837 .32099916 .18127442L.35499574 .31843568C.36898805 .37042237 .4039917 .4133911 .44898988 .4133911 .45399476 .4133911 .47999574 .4133911 .5009918 .39942933 .45700074 .38842774 .45498658 .34942628 .45498658 .34542848 .45498658 .3234253 .47200013 .3084259 .49398805 .3084259 .5159912 .3084259 .5499878 .3254242 .5499878 .36842347 .5499878 .42539979 .4869995 .44140626 .44999696 .44140626 .40299989 .44140626 .36499024 .4084015 .34199525 .36943055 .31999208 .4223938 .2679901 .44140626 .22698975 .44140626 .117996219 .44140626 .056991579 .31643678 .056991579 .28840638 .056991579 .27938844 .06399536 .27539063 .07199097 .27539063 .083999637 .27539063 .085998538 .2803955 .08898926 .29240418 .11199951 .36543275 .17199707 .4133911 .22399903 .4133911 .2630005 .4133911 .28199769 .385437 .28199769 .34942628 .28199769 .32943727 .269989 .2834015 .2619934 .25135804L.22799683 .11419678C.21398926 .060195924 .17799378 .018234253 .1329956 .018234253 .1289978 .018234253 .102996829 .018234253 .08198547 .032196046 .12799073 .04319763 .12799073 .0861969 .12799073 .0861969 .12799073 .109191898 .10998535 .12319946 .08799744 .12319946 .06098938 .12319946 .03199768 .10018921 .03199768 .062194826 .03199768 .016220093 .08099365-.009765625 .13198853-.009765625 .18499756-.009765625 .22200012 .030197144 .23999024 .062194826 .2619934 .01322937 .30799867-.009765625 .35598756-.009765625 .46499635-.009765625 .5249939 .1151886 .5249939 .143219Z"/>
<path id="font_2_11" d="M.35299684-.23800659C.35299684-.23400879 .35198976-.23300171 .33898927-.22000122 .20199585-.09100342 .16799927 .09498596 .16799927 .25 .16799927 .5379944 .2869873 .6729889 .33799745 .71899417 .35198976 .7319946 .35299684 .7330017 .35299684 .73799136 .35299684 .7429962 .34899903 .75 .33898927 .75 .32299806 .75 .272995 .69898989 .2649994 .6899872 .1309967 .5499878 .102996829 .36999513 .102996829 .25 .102996829 .025985718 .19699097-.15400696 .33299256-.25 .34098817-.25 .35299684-.25 .35299684-.23800659Z"/>
<path id="font_2_13" d="M.20298767 .054992677C.20298767 .08898926 .17599488 .11099243 .147995 .11099243 .11399841 .11099243 .09199524 .083999637 .09199524 .055999757 .09199524 .021987915 .11898804 0 .14698792 0 .18099976 0 .20298767 .026992798 .20298767 .054992677Z"/>
<path id="font_2_6" d="M.5149994 .40124513C.5149994 .418396 .5019989 .45239259 .45799256 .45239259 .44099427 .45239259 .3929901 .44839479 .34700013 .40625 .32199098 .4243927 .2829895 .44140626 .23599243 .44140626 .13699341 .44140626 .06399536 .37223817 .06399536 .294281 .06399536 .2472992 .08999634 .21231079 .11099243 .19232178 .08898926 .16732788 .08099365 .13531494 .08099365 .111328128 .08099365 .07032776 .100997928 .0393219 .12298584 .022323609 .070999149 .007904053 .02999878-.031097413 .02999878-.0770874 .02999878-.14909363 .1329956-.20507813 .2649994-.20507813 .3899994-.20507813 .5-.15408325 .5-.0750885 .5-.021102906 .46798707 .020904541 .43499757 .037902833 .37599183 .06889343 .32699586 .06889343 .22898865 .06889343H.17298889C.14199829 .07191467 .116989139 .099105838 .116989139 .13536072 .116989139 .15945435 .12298584 .16845703 .12998963 .17745972 .17199707 .15245056 .21099854 .14746094 .23498535 .14746094 .33399964 .14746094 .40699769 .21644593 .40699769 .29444886 .40699769 .3324585 .3899994 .36445619 .3659973 .39045716 .37998963 .40245057 .41299439 .42344667 .46199037 .42445375 .45799256 .42144776 .45298768 .41645814 .45298768 .40045167 .45298768 .3824463 .46598817 .36946107 .48399354 .36946107 .49798585 .36946107 .5149994 .3784485 .5149994 .40145875V.40124513M.32798768 .29444886C.32798768 .2574463 .32299806 .23146057 .30799867 .2114563 .28599549 .18345642 .2539978 .17645264 .23599243 .17645264 .14299011 .1761322 .14299011 .27218629 .14299011 .29418946 .14299011 .33122254 .147995 .35723878 .16299439 .37724305 .17999268 .40023805 .20799256 .4123993 .23498535 .4123993 .32798768 .4123993 .32798768 .3162079 .32798768 .29418946V.29444886M.44099427-.07601929C.44099427-.13005066 .3639984-.17608643 .2649994-.17608643 .16499329-.17610169 .08898926-.13009644 .08898926-.07609558 .08898926-.055099489 .10499573 .00390625 .18699646 .00390625H.2829895C.30999757 .00390625 .44099427 .00390625 .44099427-.07609558V-.07601929Z"/>
<path id="font_2_10" d="M.55400088 .21640015C.55400088 .34140016 .45298768 .44140626 .33198548 .44140626 .29299928 .44140626 .23498535 .43139649 .18399048 .37939454V.44140626L.034988405 .43045045V.39746095C.10598755 .39746095 .11099243 .39144898 .11099243 .34947206V-.1159668C.11099243-.16113281 .09899902-.16113281 .034988405-.16113281V-.19413758C.07798767-.19114685 .12199402-.19114685 .14898682-.19114685 .17799378-.19114685 .21998596-.19114685 .2630005-.19413758V-.16113281C.19898987-.16113281 .18699646-.16113281 .18699646-.1159668V.049545289C.23399353-.0017700195 .2849884-.009765625 .31698609-.009765625 .44400025-.009765625 .55400088 .088256839 .55400088 .2163086V.21640015M.46499635 .2163086C.46499635 .101257327 .3929901 .018234253 .31199647 .018234253 .2769928 .018234253 .23098755 .033233644 .19898987 .08325195 .18699646 .1002655 .18699646 .101257327 .18699646 .120269779V.33335877C.20999146 .37338258 .2599945 .4104004 .32299806 .4104004 .3999939 .4104004 .46499635 .32536317 .46499635 .2163086Z"/>
<path id="font_2_9" d="M.5 .21325684C.5 .3382721 .39698792 .44628907 .2649994 .44628907 .1329956 .44628907 .02999878 .3382721 .02999878 .21325684 .02999878 .08824158 .13699341-.009765625 .2649994-.009765625 .3939972-.009765625 .5 .08824158 .5 .21325684M.41099549 .22225952C.41099549 .17625427 .40899659 .12124634 .3809967 .07923889 .35398866 .039230348 .30899049 .021224976 .2649994 .021224976 .21099854 .021224976 .16899109 .047225954 .14698792 .082229617 .12199402 .12324524 .11898804 .17224121 .11898804 .22225952 .11898804 .2602539 .11898804 .32026673 .1499939 .363266 .17599488 .3982849 .21798706 .41827394 .2649994 .41827394 .31698609 .41827394 .3600006 .39328004 .3829956 .35827638 .4099884 .31626893 .41099549 .2622528 .41099549 .22225952Z"/>
<path id="font_2_7" d="M.2669983 0V.032989503C.20298767 .032989503 .19099427 .032989503 .19099427 .07801819V.69433596L.041992189 .6826172V.6496124C.10998535 .6496124 .117996219 .64260867 .117996219 .5936432V.07795715C.117996219 .032989503 .10598755 .032989503 .041992189 .032989503V0C.08099365 .0029907227 .13699341 .0029907227 .1539917 .0029907227 .17399597 .0029907227 .22799683 .0029907227 .2669983 0Z"/>
<path id="font_2_17" d="M.2599945 .0001373291V.03314209C.19499207 .03314209 .19099427 .038146974 .19099427 .07714844V.44140626L.04499817 .43045045V.39746095C.10899353 .39746095 .117996219 .39144898 .117996219 .34239198V.07814026C.117996219 .03314209 .10598755 .03314209 .041992189 .03314209V0C.08099365 .0029907227 .13699341 .0029907227 .1519928 .0029907227 .16499329 .0029907227 .22499085 .0029907227 .2599945 0V.0001373291M.20298767 .6021881C.20298767 .6351929 .1769867 .6582031 .147995 .6582031 .11898804 .6582031 .09298706 .6351929 .09298706 .6021881 .09298706 .5731964 .115997318 .54719546 .147995 .54719546 .1789856 .54719546 .20298767 .5731964 .20298767 .6021881Z"/>
<path id="font_2_8" d="M.56199648 0V.032989503C.49798585 .032989503 .48599244 .032989503 .48599244 .07803345V.3032837C.48599244 .38737489 .44799806 .44140626 .34298707 .44140626 .24398804 .44140626 .19898987 .36935426 .18699646 .34532167H.18598938V.44140626L.040985109 .43045045V.39746095C.10899353 .39746095 .116989139 .3904419 .116989139 .3413849V.078048709C.116989139 .032989503 .10499573 .032989503 .040985109 .032989503V0C.083999637 .0029907227 .12799073 .0029907227 .15499878 .0029907227 .18399048 .0029907227 .22599793 .0029907227 .2689972 0V.032989503C.20498657 .032989503 .19299317 .032989503 .19299317 .078048709V.25927735C.19299317 .36434938 .272995 .4133911 .33399964 .4133911 .394989 .4133911 .4099884 .37036134 .4099884 .3072815V.07803345C.4099884 .032989503 .397995 .032989503 .33399964 .032989503V0C.3769989 .0029907227 .42099 .0029907227 .44799806 .0029907227 .47698976 .0029907227 .5189972 .0029907227 .56199648 0Z"/>
<path id="font_2_12" d="M.30899049 .25C.30899049 .34498597 .29299928 .45899964 .23098755 .57699587 .18199158 .6689911 .09098816 .75 .07299805 .75 .06298828 .75 .05999756 .7429962 .05999756 .73799136 .05999756 .73399356 .05999756 .7319946 .07199097 .7200012 .21199036 .58699038 .24398804 .4039917 .24398804 .25 .24398804-.037002565 .125-.17300415 .07398987-.2190094 .06098938-.23200989 .05999756-.23300171 .05999756-.23800659 .05999756-.24301148 .06298828-.25 .07299805-.25 .08898926-.25 .13899231-.19900513 .14698792-.19000244 .2809906-.05000305 .30899049 .12998963 .30899049 .25Z"/>
<path id="font_2_5" d="M.848999 0V.032989503C.7849884 .032989503 .772995 .032989503 .772995 .07795715V.44302369L.6419983 .43374635C.6309967 .432724 .6259918 .432724 .6239929 .4316864 .621994 .43066407 .6199951 .43066407 .60598757 .43066407H.47599793V.54003909C.47599793 .6387329 .56900027 .6760864 .6309967 .6760864 .6609955 .6760864 .69099429 .6689911 .71598818 .6497345 .71598818 .6497345 .6749878 .64172366 .6749878 .60072329 .6749878 .5687256 .70098879 .5527344 .72299197 .5527344 .7369995 .5527344 .7709961 .5617218 .7709961 .60272219 .7709961 .6558075 .71899417 .70410159 .6339874 .70410159 .58999636 .70410159 .5209961 .6950989 .45999146 .6487274 .44198609 .67507937 .40299989 .70410159 .33699037 .70410159 .23999024 .70410159 .11099243 .6548004 .11099243 .5410156V.43066407H.0289917V.3976593H.11099243V.07795715C.11099243 .032989503 .09899902 .032989503 .034988405 .032989503V0C.07398987 .0029907227 .12998963 .0029907227 .14698792 .0029907227 .16699219 .0029907227 .22099304 .0029907227 .2599945 0V.032989503C.19599915 .032989503 .18399048 .032989503 .18399048 .07795715V.3976593H.4059906V.07795715C.4059906 .032989503 .3939972 .032989503 .32998658 .032989503V0C.36898805 .0029907227 .4249878 .0029907227 .44198609 .0029907227 .46199037 .0029907227 .5159912 .0029907227 .5549927 0V.032989503C.4909973 .032989503 .47898866 .032989503 .47898866 .07795715V.3976593H.651001C.69299319 .3976593 .69999697 .3856659 .69999697 .34370423V.07795715C.69999697 .032989503 .6879883 .032989503 .6239929 .032989503V0C.6629944 .0029907227 .71899417 .0029907227 .73599246 .0029907227 .7559967 .0029907227 .80999758 .0029907227 .848999 0M.4189911 .6497345C.4189911 .6497345 .37799073 .6427307 .37799073 .60072329 .37799073 .5777283 .3899994 .5637207 .4059906 .5567322V.43066407H.18099976V.54003909C.18099976 .6387329 .27198792 .6760864 .33499146 .6760864 .36499024 .6760864 .394989 .667984 .4189911 .6497345Z"/>
<path id="font_2_2" d="M.44099427 .12031555C.44099427 .13232422 .42799378 .13232422 .4249878 .13232422 .41799928 .13232422 .41299439 .13131714 .4099884 .12130737 .40299989 .10029602 .375 .021224976 .2749939 .021224976 .21299744 .021224976 .12399292 .0692749 .12399292 .21739197 .12399292 .3614807 .19799805 .4152832 .2709961 .4152832 .27999879 .4152832 .33299256 .4152832 .36799623 .39746095 .33999635 .3884735 .33599855 .36547853 .33599855 .35346986 .33599855 .32647706 .35499574 .30647279 .3829956 .30647279 .40899659 .30625917 .42999269 .32426454 .42999269 .35427857 .42999269 .41627503 .3619995 .44628907 .2679901 .44628907 .1289978 .44628907 .034988405 .3352661 .034988405 .21624756 .034988405 .0892334 .13899231-.009765625 .2649994-.009765625 .4059906-.009765625 .44099427 .10824585 .44099427 .12023926V.12031555Z"/>
<path id="font_3_2" d="M.5179901 .37738038C.5219879 .39138795 .5219879 .39338685 .5219879 .40039063 .5219879 .42539979 .5019989 .43139649 .48999024 .43139649 .4850006 .43139649 .46199037 .43040467 .44898988 .40438844 .44699098 .3993988 .43798829 .3633728 .43299867 .34236146L.37298585 .102264408C.37199403 .09925842 .32899476 .018234253 .2559967 .018234253 .20698548 .018234253 .18998719 .054244996 .18998719 .09925842 .18998719 .1572876 .22399903 .24632263 .24699402 .3043518 .25698854 .32936097 .2599945 .33836366 .2599945 .35636903 .2599945 .4113922 .21598816 .44140626 .16999817 .44140626 .070999149 .44140626 .02999878 .300354 .02999878 .28834535 .02999878 .27934266 .036987306 .27534486 .04499817 .27534486 .057998659 .27534486 .05899048 .28134156 .06199646 .29135133 .08799744 .37838746 .1309967 .4133911 .16699219 .4133911 .18199158 .4133911 .19099427 .4033966 .19099427 .38038636 .19099427 .359375 .18299866 .33636476 .17599488 .31835938 .1349945 .21231079 .117996219 .1612854 .117996219 .11427307 .117996219 .016220093 .19198609-.009765625 .25099183-.009765625 .2979889-.009765625 .33198548 .011230469 .35598756 .034240724 .34199525-.021774292 .33198548-.060791017 .2939911-.108795169 .26098634-.14979553 .22099304-.17578125 .17599488-.17578125 .15899658-.17578125 .12098694-.17279053 .100997928-.14279175 .1539917-.13879395 .1579895-.09379578 .1579895-.08778381 .1579895-.06378174 .13999939-.05078125 .11898804-.05078125 .09700012-.05078125 .06199646-.0677948 .06199646-.11679077 .06199646-.16378784 .10499573-.20379639 .17599488-.20379639 .27799989-.20379639 .3929901-.121795658 .4229889-.00077819827L.5179901 .37738038Z"/>
</defs>
<path transform="matrix(1,0,0,-1,21.851,107.894008)" stroke-width=".19925" stroke-linecap="butt" stroke-miterlimit="10" stroke-linejoin="miter" fill="none" stroke="#555555" d=""/>
<path transform="matrix(1,0,0,-1,21.851,107.894008)" stroke-width=".19925" stroke-linecap="butt" stroke-miterlimit="10" stroke-linejoin="miter" fill="none" stroke="#555555" d=""/>
<path transform="matrix(1,0,0,-1,21.851,107.894008)" stroke-width=".3985" stroke-linecap="butt" stroke-miterlimit="10" stroke-linejoin="miter" fill="none" stroke="#555555" d="M0 0V99.72649H130.90727V0H0Z"/>
<g clip-path="url(#clip_1)">
<path transform="matrix(1,0,0,-1,21.851,107.894008)" stroke-width="1.19553" stroke-linecap="butt" stroke-miterlimit="10" stroke-linejoin="miter" fill="none" stroke="#006e5a" d="M7.27261 17.28592 12.06041 20.27676 16.8482 23.26764 21.63602 26.2585 26.42381 29.24937 31.21161 32.24023 35.99942 35.2311 40.78722 38.22195 45.57503 41.21284 50.36282 44.20369 55.15062 47.19456 59.93843 50.18541 64.72623 53.17628 69.51404 56.16716 74.30183 59.15802 79.08965 62.14888 83.87744 65.13976 88.66524 68.13062 93.45305 71.12149 98.24084 74.11235 103.02866 77.10321 107.81645 80.09409 112.60425 83.08493 117.39206 86.07582 122.17986 89.06668"/>
</g>
<path transform="matrix(1,0,0,-1,21.851,107.894008)" d="M16.1393 24.37758C16.1393 25.25797 15.42563 25.97163 14.54524 25.97163 13.66487 25.97163 12.9512 25.25797 12.9512 24.37758 12.9512 23.49721 13.66487 22.78354 14.54524 22.78354 15.42563 22.78354 16.1393 23.49721 16.1393 24.37758ZM14.54524 24.37758" fill="#4682b4"/>
<path transform="matrix(1,0,0,-1,21.851,107.894008)" stroke-width=".3985" stroke-linecap="butt" stroke-miterlimit="10" stroke-linejoin="miter" fill="none" stroke="#4682b4" d="M16.1393 24.37758C16.1393 25.25797 15.42563 25.97163 14.54524 25.97163 13.66487 25.97163 12.9512 25.25797 12.9512 24.37758 12.9512 23.49721 13.66487 22.78354 14.54524 22.78354 15.42563 22.78354 16.1393 23.49721 16.1393 24.37758ZM14.54524 24.37758"/>
<path transform="matrix(1,0,0,-1,21.851,107.894008)" d="M23.41193 22.16144C23.41193 23.04181 22.69824 23.75548 21.81787 23.75548 20.9375 23.75548 20.22382 23.04181 20.22382 22.16144 20.22382 21.28107 20.9375 20.56738 21.81787 20.56738 22.69824 20.56738 23.41193 21.28107 23.41193 22.16144ZM21.81787 22.16144" fill="#4682b4"/>
<path transform="matrix(1,0,0,-1,21.851,107.894008)" stroke-width=".3985" stroke-linecap="butt" stroke-miterlimit="10" stroke-linejoin="miter" fill="none" stroke="#4682b4" d="M23.41193 22.16144C23.41193 23.04181 22.69824 23.75548 21.81787 23.75548 20.9375 23.75548 20.22382 23.04181 20.22382 22.16144 20.22382 21.28107 20.9375 20.56738 21.81787 20.56738 22.69824 20.56738 23.41193 21.28107 23.41193 22.16144ZM21.81787 22.16144"/>
<path transform="matrix(1,0,0,-1,21.851,107.894008)" d="M30.68454 34.35023C30.68454 35.2306 29.97087 35.94427 29.0905 35.94427 28.21013 35.94427 27.49644 35.2306 27.49644 34.35023 27.49644 33.46985 28.21013 32.75618 29.0905 32.75618 29.97087 32.75618 30.68454 33.46985 30.68454 34.35023ZM29.0905 34.35023" fill="#4682b4"/>
<path transform="matrix(1,0,0,-1,21.851,107.894008)" stroke-width=".3985" stroke-linecap="butt" stroke-miterlimit="10" stroke-linejoin="miter" fill="none" stroke="#4682b4" d="M30.68454 34.35023C30.68454 35.2306 29.97087 35.94427 29.0905 35.94427 28.21013 35.94427 27.49644 35.2306 27.49644 34.35023 27.49644 33.46985 28.21013 32.75618 29.0905 32.75618 29.97087 32.75618 30.68454 33.46985 30.68454 34.35023ZM29.0905 34.35023"/>
<path transform="matrix(1,0,0,-1,21.851,107.894008)" d="M37.95717 31.02602C37.95717 31.90639 37.2435 32.62006 36.36313 32.62006 35.48274 32.62006 34.76907 31.90639 34.76907 31.02602 34.76907 30.14563 35.48274 29.43196 36.36313 29.43196 37.2435 29.43196 37.95717 30.14563 37.95717 31.02602ZM36.36313 31.02602" fill="#4682b4"/>
<path transform="matrix(1,0,0,-1,21.851,107.894008)" stroke-width=".3985" stroke-linecap="butt" stroke-miterlimit="10" stroke-linejoin="miter" fill="none" stroke="#4682b4" d="M37.95717 31.02602C37.95717 31.90639 37.2435 32.62006 36.36313 32.62006 35.48274 32.62006 34.76907 31.90639 34.76907 31.02602 34.76907 30.14563 35.48274 29.43196 36.36313 29.43196 37.2435 29.43196 37.95717 30.14563 37.95717 31.02602ZM36.36313 31.02602"/>
<path transform="matrix(1,0,0,-1,21.851,107.894008)" d="M45.2298 43.21481C45.2298 44.09518 44.51613 44.80885 43.63576 44.80885 42.75537 44.80885 42.0417 44.09518 42.0417 43.21481 42.0417 42.33443 42.75537 41.62076 43.63576 41.62076 44.51613 41.62076 45.2298 42.33443 45.2298 43.21481ZM43.63576 43.21481" fill="#4682b4"/>
<path transform="matrix(1,0,0,-1,21.851,107.894008)" stroke-width=".3985" stroke-linecap="butt" stroke-miterlimit="10" stroke-linejoin="miter" fill="none" stroke="#4682b4" d="M45.2298 43.21481C45.2298 44.09518 44.51613 44.80885 43.63576 44.80885 42.75537 44.80885 42.0417 44.09518 42.0417 43.21481 42.0417 42.33443 42.75537 41.62076 43.63576 41.62076 44.51613 41.62076 45.2298 42.33443 45.2298 43.21481ZM43.63576 43.21481"/>
<path transform="matrix(1,0,0,-1,21.851,107.894008)" d="M52.50243 47.6471C52.50243 48.52748 51.78876 49.24115 50.90837 49.24115 50.028 49.24115 49.31433 48.52748 49.31433 47.6471 49.31433 46.76672 50.028 46.05305 50.90837 46.05305 51.78876 46.05305 52.50243 46.76672 52.50243 47.6471ZM50.90837 47.6471" fill="#4682b4"/>
<path transform="matrix(1,0,0,-1,21.851,107.894008)" stroke-width=".3985" stroke-linecap="butt" stroke-miterlimit="10" stroke-linejoin="miter" fill="none" stroke="#4682b4" d="M52.50243 47.6471C52.50243 48.52748 51.78876 49.24115 50.90837 49.24115 50.028 49.24115 49.31433 48.52748 49.31433 47.6471 49.31433 46.76672 50.028 46.05305 50.90837 46.05305 51.78876 46.05305 52.50243 46.76672 52.50243 47.6471ZM50.90837 47.6471"/>
<path transform="matrix(1,0,0,-1,21.851,107.894008)" d="M59.77505 45.43095C59.77505 46.31133 59.06139 47.02501 58.181 47.02501 57.30063 47.02501 56.58696 46.31133 56.58696 45.43095 56.58696 44.55058 57.30063 43.8369 58.181 43.8369 59.06139 43.8369 59.77505 44.55058 59.77505 45.43095ZM58.181 45.43095" fill="#4682b4"/>
<path transform="matrix(1,0,0,-1,21.851,107.894008)" stroke-width=".3985" stroke-linecap="butt" stroke-miterlimit="10" stroke-linejoin="miter" fill="none" stroke="#4682b4" d="M59.77505 45.43095C59.77505 46.31133 59.06139 47.02501 58.181 47.02501 57.30063 47.02501 56.58696 46.31133 56.58696 45.43095 56.58696 44.55058 57.30063 43.8369 58.181 43.8369 59.06139 43.8369 59.77505 44.55058 59.77505 45.43095ZM58.181 45.43095"/>
<path transform="matrix(1,0,0,-1,21.851,107.894008)" d="M67.04768 57.61975C67.04768 58.50012 66.33401 59.21379 65.45363 59.21379 64.57326 59.21379 63.85959 58.50012 63.85959 57.61975 63.85959 56.73936 64.57326 56.0257 65.45363 56.0257 66.33401 56.0257 67.04768 56.73936 67.04768 57.61975ZM65.45363 57.61975" fill="#4682b4"/>
<path transform="matrix(1,0,0,-1,21.851,107.894008)" stroke-width=".3985" stroke-linecap="butt" stroke-miterlimit="10" stroke-linejoin="miter" fill="none" stroke="#4682b4" d="M67.04768 57.61975C67.04768 58.50012 66.33401 59.21379 65.45363 59.21379 64.57326 59.21379 63.85959 58.50012 63.85959 57.61975 63.85959 56.73936 64.57326 56.0257 65.45363 56.0257 66.33401 56.0257 67.04768 56.73936 67.04768 57.61975ZM65.45363 57.61975"/>
<path transform="matrix(1,0,0,-1,21.851,107.894008)" d="M74.32031 55.4036C74.32031 56.28398 73.60663 56.99765 72.72626 56.99765 71.84589 56.99765 71.1322 56.28398 71.1322 55.4036 71.1322 54.52322 71.84589 53.80956 72.72626 53.80956 73.60663 53.80956 74.32031 54.52322 74.32031 55.4036ZM72.72626 55.4036" fill="#4682b4"/>
<path transform="matrix(1,0,0,-1,21.851,107.894008)" stroke-width=".3985" stroke-linecap="butt" stroke-miterlimit="10" stroke-linejoin="miter" fill="none" stroke="#4682b4" d="M74.32031 55.4036C74.32031 56.28398 73.60663 56.99765 72.72626 56.99765 71.84589 56.99765 71.1322 56.28398 71.1322 55.4036 71.1322 54.52322 71.84589 53.80956 72.72626 53.80956 73.60663 53.80956 74.32031 54.52322 74.32031 55.4036ZM72.72626 55.4036"/>
<path transform="matrix(1,0,0,-1,21.851,107.894008)" d="M81.59293 67.59239C81.59293 68.47278 80.87926 69.18645 79.99889 69.18645 79.1185 69.18645 78.40483 68.47278 78.40483 67.59239 78.40483 66.71202 79.1185 65.99835 79.99889 65.99835 80.87926 65.99835 81.59293 66.71202 81.59293 67.59239ZM79.99889 67.59239" fill="#4682b4"/>
<path transform="matrix(1,0,0,-1,21.851,107.894008)" stroke-width=".3985" stroke-linecap="butt" stroke-miterlimit="10" stroke-linejoin="miter" fill="none" stroke="#4682b4" d="M81.59293 67.59239C81.59293 68.47278 80.87926 69.18645 79.99889 69.18645 79.1185 69.18645 78.40483 68.47278 78.40483 67.59239 78.40483 66.71202 79.1185 65.99835 79.99889 65.99835 80.87926 65.99835 81.59293 66.71202 81.59293 67.59239ZM79.99889 67.59239"/>
<path transform="matrix(1,0,0,-1,21.851,107.894008)" d="M88.86555 64.26817C88.86555 65.14856 88.15189 65.86223 87.27151 65.86223 86.39113 65.86223 85.67746 65.14856 85.67746 64.26817 85.67746 63.3878 86.39113 62.67413 87.27151 62.67413 88.15189 62.67413 88.86555 63.3878 88.86555 64.26817ZM87.27151 64.26817" fill="#4682b4"/>
<path transform="matrix(1,0,0,-1,21.851,107.894008)" stroke-width=".3985" stroke-linecap="butt" stroke-miterlimit="10" stroke-linejoin="miter" fill="none" stroke="#4682b4" d="M88.86555 64.26817C88.86555 65.14856 88.15189 65.86223 87.27151 65.86223 86.39113 65.86223 85.67746 65.14856 85.67746 64.26817 85.67746 63.3878 86.39113 62.67413 87.27151 62.67413 88.15189 62.67413 88.86555 63.3878 88.86555 64.26817ZM87.27151 64.26817"/>
<path transform="matrix(1,0,0,-1,21.851,107.894008)" d="M96.13818 76.45697C96.13818 77.33736 95.42451 78.05103 94.54414 78.05103 93.66376 78.05103 92.95009 77.33736 92.95009 76.45697 92.95009 75.5766 93.66376 74.86293 94.54414 74.86293 95.42451 74.86293 96.13818 75.5766 96.13818 76.45697ZM94.54414 76.45697" fill="#4682b4"/>
<path transform="matrix(1,0,0,-1,21.851,107.894008)" stroke-width=".3985" stroke-linecap="butt" stroke-miterlimit="10" stroke-linejoin="miter" fill="none" stroke="#4682b4" d="M96.13818 76.45697C96.13818 77.33736 95.42451 78.05103 94.54414 78.05103 93.66376 78.05103 92.95009 77.33736 92.95009 76.45697 92.95009 75.5766 93.66376 74.86293 94.54414 74.86293 95.42451 74.86293 96.13818 75.5766 96.13818 76.45697ZM94.54414 76.45697"/>
<path transform="matrix(1,0,0,-1,21.851,107.894008)" d="M103.41081 80.88927C103.41081 81.76964 102.69714 82.4833 101.81676 82.4833 100.93639 82.4833 100.22272 81.76964 100.22272 80.88927 100.22272 80.00888 100.93639 79.29521 101.81676 79.29521 102.69714 79.29521 103.41081 80.00888 103.41081 80.88927ZM101.81676 80.88927" fill="#4682b4"/>
<path transform="matrix(1,0,0,-1,21.851,107.894008)" stroke-width=".3985" stroke-linecap="butt" stroke-miterlimit="10" stroke-linejoin="miter" fill="none" stroke="#4682b4" d="M103.41081 80.88927C103.41081 81.76964 102.69714 82.4833 101.81676 82.4833 100.93639 82.4833 100.22272 81.76964 100.22272 80.88927 100.22272 80.00888 100.93639 79.29521 101.81676 79.29521 102.69714 79.29521 103.41081 80.00888 103.41081 80.88927ZM101.81676 80.88927"/>
<path transform="matrix(1,0,0,-1,21.851,107.894008)" d="M110.68344 77.56505C110.68344 78.44542 109.96977 79.15909 109.08939 79.15909 108.20901 79.15909 107.49535 78.44542 107.49535 77.56505 107.49535 76.68468 108.20901 75.971 109.08939 75.971 109.96977 75.971 110.68344 76.68468 110.68344 77.56505ZM109.08939 77.56505" fill="#4682b4"/>
<path transform="matrix(1,0,0,-1,21.851,107.894008)" stroke-width=".3985" stroke-linecap="butt" stroke-miterlimit="10" stroke-linejoin="miter" fill="none" stroke="#4682b4" d="M110.68344 77.56505C110.68344 78.44542 109.96977 79.15909 109.08939 79.15909 108.20901 79.15909 107.49535 78.44542 107.49535 77.56505 107.49535 76.68468 108.20901 75.971 109.08939 75.971 109.96977 75.971 110.68344 76.68468 110.68344 77.56505ZM109.08939 77.56505"/>
<path transform="matrix(1,0,0,-1,21.851,107.894008)" d="M117.95607 89.75385C117.95607 90.63422 117.24239 91.34789 116.36201 91.34789 115.48164 91.34789 114.76796 90.63422 114.76796 89.75385 114.76796 88.87346 115.48164 88.15979 116.36201 88.15979 117.24239 88.15979 117.95607 88.87346 117.95607 89.75385ZM116.36201 89.75385" fill="#4682b4"/>
<path transform="matrix(1,0,0,-1,21.851,107.894008)" stroke-width=".3985" stroke-linecap="butt" stroke-miterlimit="10" stroke-linejoin="miter" fill="none" stroke="#4682b4" d="M117.95607 89.75385C117.95607 90.63422 117.24239 91.34789 116.36201 91.34789 115.48164 91.34789 114.76796 90.63422 114.76796 89.75385 114.76796 88.87346 115.48164 88.15979 116.36201 88.15979 117.24239 88.15979 117.95607 88.87346 117.95607 89.75385ZM116.36201 89.75385"/>
<path transform="matrix(1,0,0,-1,21.851,107.894008)" stroke-width=".3985" stroke-linecap="butt" stroke-miterlimit="10" stroke-linejoin="miter" fill="none" stroke="#4682b4" d=""/>
<use data-text="f" xlink:href="#font_2_4" transform="matrix(7.9701,0,0,-7.9701,38.34,117.392009)"/>
<use data-text="e" xlink:href="#font_2_3" transform="matrix(7.9701,0,0,-7.9701,40.930284,117.392009)"/>
<use data-text="a" xlink:href="#font_2_1" transform="matrix(7.9701,0,0,-7.9701,44.69217,117.392009)"/>
<use data-text="t" xlink:href="#font_2_15" transform="matrix(7.9701,0,0,-7.9701,48.924295,117.392009)"/>
<use data-text="u" xlink:href="#font_2_16" transform="matrix(7.9701,0,0,-7.9701,52.215948,117.392009)"/>
<use data-text="r" xlink:href="#font_2_14" transform="matrix(7.9701,0,0,-7.9701,56.918306,117.392009)"/>
<use data-text="e" xlink:href="#font_2_3" transform="matrix(7.9701,0,0,-7.9701,60.217927,117.392009)"/>
<use data-text="x" xlink:href="#font_3_1" transform="matrix(7.9701,0,0,-7.9701,66.80123,117.392009)"/>
<use data-text="(" xlink:href="#font_2_11" transform="matrix(7.9701,0,0,-7.9701,74.38877,117.392009)"/>
<use data-text="e" xlink:href="#font_2_3" transform="matrix(7.9701,0,0,-7.9701,77.68042,117.392009)"/>
<use data-text="." xlink:href="#font_2_13" transform="matrix(7.9701,0,0,-7.9701,81.44231,117.392009)"/>
<use data-text="g" xlink:href="#font_2_6" transform="matrix(7.9701,0,0,-7.9701,83.79349,117.392009)"/>
<use data-text="." xlink:href="#font_2_13" transform="matrix(7.9701,0,0,-7.9701,88.02561,117.392009)"/>
<use data-text="p" xlink:href="#font_2_10" transform="matrix(7.9701,0,0,-7.9701,93.20618,117.392009)"/>
<use data-text="o" xlink:href="#font_2_9" transform="matrix(7.9701,0,0,-7.9701,98.13967,117.392009)"/>
<use data-text="p" xlink:href="#font_2_10" transform="matrix(7.9701,0,0,-7.9701,102.371799,117.392009)"/>
<use data-text="u" xlink:href="#font_2_16" transform="matrix(7.9701,0,0,-7.9701,107.07416,117.392009)"/>
<use data-text="l" xlink:href="#font_2_7" transform="matrix(7.9701,0,0,-7.9701,111.77652,117.392009)"/>
<use data-text="a" xlink:href="#font_2_1" transform="matrix(7.9701,0,0,-7.9701,114.1277,117.392009)"/>
<use data-text="t" xlink:href="#font_2_15" transform="matrix(7.9701,0,0,-7.9701,118.359828,117.392009)"/>
<use data-text="i" xlink:href="#font_2_17" transform="matrix(7.9701,0,0,-7.9701,121.651477,117.392009)"/>
<use data-text="o" xlink:href="#font_2_9" transform="matrix(7.9701,0,0,-7.9701,124.002658,117.392009)"/>
<use data-text="n" xlink:href="#font_2_8" transform="matrix(7.9701,0,0,-7.9701,128.23477,117.392009)"/>
<use data-text=")" xlink:href="#font_2_12" transform="matrix(7.9701,0,0,-7.9701,132.93714,117.392009)"/>
<use data-text="t" xlink:href="#font_2_15" transform="matrix(0,-7.9701,-7.9701,-0,16.781002,72.503009)"/>
<use data-text="r" xlink:href="#font_2_14" transform="matrix(0,-7.9701,-7.9701,-0,16.781002,69.21135)"/>
<use data-text="a" xlink:href="#font_2_1" transform="matrix(0,-7.9701,-7.9701,-0,16.781002,65.91173)"/>
<use data-text="f" xlink:href="#font_2_5" transform="matrix(0,-7.9701,-7.9701,-0,16.781002,61.679609)"/>
<use data-text="c" xlink:href="#font_2_2" transform="matrix(0,-7.9701,-7.9701,-0,16.781002,54.62607)"/>
<use data-text="y" xlink:href="#font_3_2" transform="matrix(0,-7.9701,-7.9701,-0,16.781002,48.042768)"/>
</svg>
