<svg xmlns="http://www.w3.org/2000/svg" xmlns:xlink="http://www.w3.org/1999/xlink" xmlns:inkscape="http://www.inkscape.org/namespaces/inkscape" version="1.1" width="176.528" height="102.241" viewBox="0 0 176.528 102.241">
<defs>
<path id="font_1_12" d="M.6409912 .49668885C.6409912 .5956421 .5379944 .6826172 .39898683 .6826172H.039993287V.6516113H.06298828C.13999939 .6516113 .14199829 .64060977 .14199829 .6036377V.0789032C.14199829 .041915895 .13999939 .030929566 .06298828 .030929566H.039993287V0C.084991458 .0029296876 .14099121 .0029296876 .18699646 .0029296876 .23298645 .0029907227 .2889862 .0029907227 .33399964 0V.0309906H.31098939C.23399353 .0309906 .23199463 .041992189 .23199463 .07896423V.31378175H.39898683C.5389862 .31378175 .6409912 .40075685 .6409912 .4967041V.49668885M.5389862 .4967041C.5389862 .4517212 .5389862 .34179688 .37298585 .34179688H.22898865V.6106262C.22898865 .64460757 .23098755 .6516113 .27799989 .6516113H.37399293C.5389862 .6516113 .5389862 .54167178 .5389862 .4967041Z"/>
<path id="font_1_11" d="M.48399354 .21324158C.48399354 .34423829 .37998963 .4482422 .25698854 .4482422 .12998963 .4482422 .0289917 .3412323 .0289917 .21324158 .0289917 .08824158 .1329956-.0107421879 .2559967-.0107421879 .3829956-.0107421879 .48399354 .09024048 .48399354 .21324158M.397995 .22224427C.397995 .1852417 .397995 .12724304 .37298585 .08325195 .34498597 .037246705 .29899598 .01725769 .25698854 .01725769 .20698548 .01725769 .16499329 .042251588 .14199829 .08125305 .115997318 .12324524 .114990238 .17623902 .114990238 .22224427 .114990238 .25924684 .114990238 .3162384 .13999939 .35723878 .16999817 .40823365 .21998596 .42323304 .2559967 .42323304 .31298829 .42323304 .35398866 .39123536 .37399293 .35723878 .39698792 .31523133 .397995 .26423646 .397995 .22224427Z"/>
<path id="font_1_13" d="M.5359955 .21655274C.5359955 .3425598 .43798829 .4423828 .31999208 .4423828 .2659912 .4423828 .21598816 .42037965 .17799378 .37956239V.4423828L.02999878 .43066407V.3996582C.100997928 .3996582 .10699463 .39390565 .10699463 .3515625V-.116989139C.10699463-.16308594 .09599304-.16308594 .02999878-.16308594V-.1940918C.07699585-.1920929 .09599304-.19110108 .14399719-.19110108 .19198609-.19110108 .20498657-.1920929 .2579956-.1940918V-.16308594C.19198609-.16308594 .18099976-.16308594 .18099976-.116989139V.04827881C.20698548 .022262574 .24099732-.0107421879 .30699159-.0107421879 .42599488-.0107421879 .5359955 .08531189 .5359955 .21643067V.21655274M.44999696 .21643067C.44999696 .10232544 .38198854 .014251709 .30099488 .014251709 .2559967 .014251709 .21798706 .040267946 .19400025 .075302127 .18099976 .095321658 .18099976 .09732056 .18099976 .11634827V.33654786C.21499634 .39437867 .269989 .41436769 .31199647 .41436769 .3899994 .41436769 .44999696 .32437135 .44999696 .21636963V.21643067Z"/>
<path id="font_1_17" d="M.5469971 .00024414063V.03125C.47898866 .03125 .46998597 .038253786 .46998597 .087265018V.4423828L.31900025 .43138124V.40037538C.3869934 .40037538 .3959961 .39337159 .3959961 .34436036V.16729737C.3959961 .07826233 .34599305 .014251709 .27398683 .014251709 .19099427 .014251709 .18598938 .057266237 .18598938 .11128235V.4423828L.034988405 .43138124V.40037538C.11199951 .40037538 .11199951 .39736939 .11199951 .3083496V.15829468C.11199951 .09327698 .11199951 .051254274 .1579895 .01625061 .18699646-.003753662 .22799683-.0107421879 .2679901-.0107421879 .31999208-.0107421879 .36898805 .012252808 .397995 .072265628H.39898683V-.0107421879L.5469971 .00024414063Z"/>
<path id="font_1_9" d="M.26098634 0V.0309906C.19499207 .0309906 .18399048 .0309906 .18399048 .07701111V.69433596L.035995485 .6826172V.6516113C.10398865 .6516113 .11299133 .64460757 .11299133 .5956421V.07696533C.11299133 .0309906 .101989749 .0309906 .035995485 .0309906V0C.08299255 .0019989014 .101989749 .0029907227 .147995 .0029907227 .19499207 .0029907227 .21199036 .0019989014 .26098634 0Z"/>
<path id="font_1_1" d="M.49699403 .089141849V.14515686H.46899415V.090148929C.46899415 .07914734 .46899415 .029129029 .43299867 .029129029 .39698792 .029129029 .39698792 .07714844 .39698792 .09315491V.26818849C.39698792 .32521058 .39698792 .3592224 .35198976 .40022279 .31498719 .43322755 .2669983 .4482422 .21699524 .4482422 .1329956 .4482422 .06298828 .40623475 .06298828 .34220887 .06298828 .311203 .083999637 .2942047 .10998535 .2942047 .13699341 .2942047 .1559906 .31420899 .1559906 .34020997 .1559906 .3832245 .11099243 .38822938 .11099243 .38822938 .13798523 .41423036 .18598938 .42323304 .21499634 .42323304 .2659912 .42323304 .32299806 .3852234 .32299806 .29719544V.26419068C.2689972 .26219178 .19400025 .2571869 .1269989 .22518921 .054992677 .19017029 .032989503 .13816834 .032989503 .09814453 .032989503 .01625061 .12998963-.0107421879 .19699097-.0107421879 .27999879-.0107421879 .31799317 .04425049 .33198548 .072250369 .33699037 .030136109 .3659973-.005859375 .40899659-.005859375 .43399049-.005859375 .49699403 .009140015 .49699403 .08912659V.089141849M.32299806 .14112854C.32299806 .04425049 .24798584 .014251709 .20399475 .014251709 .15699768 .014251709 .11299133 .04824829 .11299133 .098236087 .11299133 .16423035 .16999817 .23422241 .32299806 .24023438V.14112854Z"/>
<path id="font_1_16" d="M.34199525 .12408447V.18099976H.31399537V.1270752C.31399537 .05319214 .2829895 .01725769 .24699402 .01725769 .17999268 .01725769 .17999268 .1051178 .17999268 .12309265V.3996582H.32499696V.43066407H.17999268V.6142578H.1519928C.15098572 .5304413 .115997318 .42765809 .018997193 .4246521V.3996582H.10598755V.12408447C.10598755 .012252808 .18699646-.0107421879 .23999024-.0107421879 .30699159-.011001587 .34199525 .052993776 .34199525 .12399292V.12408447Z"/>
<path id="font_1_19" d="M.25299073 0V.0309906C.18798828 .0309906 .18399048 .035995485 .18399048 .075042728V.4423828L.039993287 .43066407V.3996582C.10398865 .3996582 .11299133 .3936615 .11299133 .3447113V.07695007C.11299133 .0309906 .101989749 .0309906 .035995485 .0309906V0C.08099365 .0019989014 .101989749 .0029907227 .1459961 .0029907227 .1619873 .0029907227 .20399475 .0029907227 .25299073 0M.19699097 .6032257C.19699097 .6332245 .17298889 .65722659 .14299011 .65722659 .11299133 .65722659 .08898926 .6332245 .08898926 .6032257 .08898926 .57321169 .11299133 .54922488 .14299011 .54922488 .17298889 .54922488 .19699097 .57321169 .19699097 .6032257Z"/>
<path id="font_1_10" d="M.5469971 0V.0309906C.49598695 .03125 .47099305 .03125 .46998597 .0622406V.25431825C.46998597 .3373413 .46998597 .36636354 .44198609 .4013672 .4189911 .42938233 .3809967 .4423828 .33099366 .4423828 .23799134 .4423828 .19499207 .37335206 .18099976 .34535218H.17999268V.4423828L.034988405 .43066407V.3996582C.102996829 .3996582 .11199951 .39266969 .11199951 .34370423V.07695007C.11199951 .0309906 .100997928 .0309906 .034988405 .0309906V0C.08198547 .0019989014 .100997928 .0029907227 .14898682 .0029907227 .19699097 .0029907227 .20999146 .0019989014 .2630005 0V.0309906C.19699097 .0309906 .18598938 .0309906 .18598938 .07695007V.25878907C.18598938 .36532594 .26098634 .41737367 .32398988 .41737367 .3829956 .41737367 .3959961 .3683319 .3959961 .30825807V.077041629C.3959961 .0309906 .3849945 .0309906 .31900025 .0309906V0C.3659973 .0019989014 .3849945 .0029907227 .43299867 .0029907227 .48098756 .0029907227 .49398805 .0019989014 .5469971 0Z"/>
<path id="font_1_7" d="M.47499085 .6516113V.6826172C.40899659 .6796112 .39698792 .6796112 .34298707 .6796112 .30299378 .6796112 .21499634 .6796112 .17999268 .6826172V.6516113H.21398926C.30899049 .6516113 .31199647 .63960269 .31199647 .6026001V.14756775C.31199647 .05555725 .2599945 .002532959 .20799256 .002532959 .16799927 .002532959 .11999512 .02154541 .09498596 .059570314 .13398743 .05555725 .15699768 .08256531 .15699768 .11355591 .15699768 .14356995 .1349945 .16755677 .102996829 .16755677 .07199097 .16755677 .04798889 .14656067 .04798889 .11155701 .04798889 .03855896 .117996219-.022460938 .20999146-.022460938 .29499818-.022460938 .38398744 .029541016 .397995 .12556458 .39898683 .13356018 .39898683 .17756653 .39898683 .2035675V.61061099C.39898683 .6516113 .4139862 .6516113 .47499085 .6516113Z"/>
<path id="font_1_2" d="M.5359955 .21636963C.5359955 .34144593 .43699647 .4423828 .31698609 .4423828 .24899292 .4423828 .20199585 .4073944 .17799378 .38046266V.69433596L.02999878 .68333438V.6523285C.09799194 .6523285 .10699463 .6453247 .10699463 .596344V.00024414063H.1349945L.17199707 .061279298C.20298767 .01725769 .25299073-.0107421879 .30699159-.0107421879 .42599488-.0107421879 .5359955 .08529663 .5359955 .21636963M.44999696 .21737671C.44999696 .17034912 .44400025 .11730957 .41799928 .07728577 .3959961 .045272829 .35499574 .014251709 .3019867 .014251709 .25698854 .014251709 .21899414 .038269044 .19499207 .075286868 .18099976 .09629822 .18099976 .0973053 .18099976 .11631775V.31944276C.18099976 .3384552 .18099976 .33944703 .19198609 .35546876 .22599793 .40141297 .2749939 .41737367 .31298829 .41737367 .35598756 .41737367 .3959961 .39343263 .42199708 .3514557 .44799806 .3084259 .44999696 .24938965 .44999696 .21737671Z"/>
<path id="font_1_15" d="M.36999513 .12831116C.36999513 .17330933 .34999085 .20030213 .32798768 .22329712 .2939911 .25628663 .2579956 .26327516 .18399048 .2772827 .1579895 .28227235 .084991458 .29527284 .084991458 .35224916 .084991458 .38424684 .10798645 .426239 .19898987 .426239 .30699159 .426239 .31399537 .34326173 .31599427 .31826783 .31698609 .3062744 .31698609 .3002777 .32998658 .3002777 .34399415 .3002777 .34399415 .30726625 .34399415 .32626344V.4222412C.34399415 .4392395 .34399415 .4482422 .33198548 .4482422 .32699586 .4482422 .32499696 .4482422 .31199647 .43623353 .30999757 .43423463 .30099488 .42523194 .29499818 .4202423 .2639923 .44223023 .23298645 .4482422 .19898987 .4482422 .066986087 .4482422 .033996583 .37524415 .033996583 .32426454 .033996583 .29226686 .04798889 .26628114 .070999149 .24429322 .10499573 .21330261 .14299011 .20629883 .19400025 .19729615 .24499512 .18730164 .2619934 .18431092 .28399659 .16731262 .2939911 .15931702 .31900025 .14031983 .31900025 .10229492 .31900025 .014251709 .21798706 .014251709 .20399475 .014251709 .101989749 .014251709 .07598877 .0993042 .06399536 .15332031 .06098938 .16331482 .05999756 .16931153 .04798889 .16931153 .033996583 .16931153 .033996583 .16131592 .033996583 .14331055V.01524353C.033996583-.0017547608 .033996583-.0107421879 .04598999-.0107421879 .051986696-.0107421879 .052993776-.009750366 .070999149 .009246826 .07499695 .01524353 .085998538 .028259278 .09098816 .03326416 .1329956-.007751465 .1789856-.0107421879 .20399475-.0107421879 .32699586-.0107421879 .36999513 .061279298 .36999513 .12831116Z"/>
<path id="font_1_3" d="M.6839905 .23170471C.6839905 .24171448 .6839905 .25073243 .66999819 .25073243 .6569977 .25073243 .6569977 .24372864 .6559906 .2347107 .647995 .082595828 .5279999 .008529663 .4249878 .008529663 .33999635 .008529663 .15899658 .061569215 .15899658 .34179688 .15899658 .6210327 .34098817 .67407229 .42399598 .67407229 .522995 .67407229 .6279907 .5990143 .6519928 .4368744 .6539917 .4238739 .6549988 .41886903 .66799929 .41886903 .6839905 .41886903 .6839905 .4238739 .6839905 .44488526V.67907717C.6839905 .69607546 .6839905 .7050781 .6719971 .7050781 .6649933 .7050781 .6619873 .70207217 .6559906 .69306948L.6049957 .61802676C.57299807 .64904788 .5159912 .7050781 .4149933 .7050781 .22099304 .7050781 .056991579 .5439606 .056991579 .34179688 .056991579 .13563538 .22299195-.022460938 .4149933-.022460938 .58099368-.022460938 .6839905 .11462402 .6839905 .23170471Z"/>
<path id="font_1_14" d="M.37298585 .3798828C.37298585 .41236878 .34298707 .4423828 .2979889 .4423828 .23799134 .4423828 .19599915 .40037538 .17298889 .33789063H.17199707V.4423828L.02999878 .43066407V.3996582C.09799194 .3996582 .10699463 .3927307 .10699463 .34388734V.07698059C.10699463 .0309906 .09599304 .0309906 .02999878 .0309906V0C.08299255 .0019989014 .09599304 .0029907227 .14698792 .0029907227L.27398683 0V.0309906H.2539978C.18099976 .0309906 .17799378 .041992189 .17799378 .07897949V.22892761C.17799378 .26991273 .18899536 .4166565 .30299378 .4166565V.4156494C.30099488 .4146576 .2849884 .40264894 .2849884 .37887574 .2849884 .35188294 .30599977 .33488465 .32899476 .33488465 .34999085 .33488465 .37298585 .34988404 .37298585 .3798828Z"/>
<path id="font_1_18" d="M.72099307 .3996582V.43066407C.68099978 .42765809 .67900088 .42765809 .6459961 .42765809 .60798647 .42765809 .59399417 .42765809 .55400088 .43066407V.3996582C.5970001 .39865113 .61099246 .3717041 .61099246 .35173036 .61099246 .34173585 .60899356 .3357544 .60598757 .32876588L.5139923 .07911682 .41299439 .35272218C.4079895 .3657074 .4079895 .36869813 .4079895 .3717041 .4079895 .3976593 .43899537 .3996582 .46499635 .3996582V.43066407C.4189911 .42765809 .37799073 .42765809 .3619995 .42765809 .33099366 .42765809 .3019867 .42765809 .269989 .43066407V.3996582C.3019867 .3996582 .32199098 .39865113 .33299256 .38467408 .34199525 .37368775 .35499574 .3337555 .35499574 .3307495L.34999085 .31677247 .2679901 .09210205 .17298889 .35173036C.16699219 .36669923 .16699219 .36869813 .16699219 .37269593 .16699219 .3996582 .20599365 .3996582 .22499085 .3996582V.43066407L.115997318 .42765809C.08299255 .42765809 .053985597 .42765809 .019989014 .43066407V.3996582C.067993167 .3996582 .08099365 .3976593 .09298706 .3637085L.22200012 .01121521C.22698975-.00076293948 .22999573-.0107421879 .24499512-.0107421879 .2599945-.0107421879 .2639923 .00022888184 .2679901 .010223389L.36999513 .28981019 .47299195 .010223389C.47698976 .00022888184 .48098756-.0107421879 .49598695-.0107421879 .5109863-.0107421879 .5139923-.00076293948 .5179901 .009216309L.6369934 .3337555C.6589966 .39466859 .69999697 .39865113 .72099307 .3996582Z"/>
<path id="font_1_5" d="M.4269867 .11936951C.4269867 .12637329 .42199708 .13237 .41299439 .13237 .40299989 .13237 .3999939 .12536621 .39898683 .12136841 .36499024 .019256592 .27598573 .01725769 .26098634 .01725769 .21299744 .01725769 .17199707 .044281007 .14898682 .078323367 .115997318 .12736511 .114990238 .18743897 .114990238 .22949219H.3999939C.42199708 .22949219 .4269867 .22949219 .4269867 .25048829 .4269867 .35333253 .37098695 .4482422 .24299622 .4482422 .12298584 .4482422 .0289917 .3443451 .0289917 .22047425 .0289917 .08932495 .13398743-.0107421879 .2559967-.0107421879 .37799073-.0107421879 .4269867 .096343997 .4269867 .11936951M.35899354 .253479H.115997318C.125 .40725709 .21499634 .42323304 .24299622 .42323304 .2979889 .42323304 .35798646 .38130189 .35899354 .253479Z"/>
<path id="font_1_6" d="M.5469971 0V.0309906C.49598695 .03125 .47099305 .03125 .46998597 .0622406V.25431825C.46998597 .3373413 .46998597 .36636354 .44198609 .4013672 .4189911 .42938233 .3809967 .4423828 .33099366 .4423828 .2639923 .4423828 .21499634 .40737916 .18399048 .35134889H.18299866V.69433596L.034988405 .6826172V.6516113C.102996829 .6516113 .11199951 .64463809 .11199951 .59580996V.077041629C.11199951 .0309906 .100997928 .0309906 .034988405 .0309906V0C.08198547 .0019989014 .100997928 .0029907227 .14898682 .0029907227 .19699097 .0029907227 .20999146 .0019989014 .2630005 0V.0309906C.19699097 .0309906 .18598938 .0309906 .18598938 .077041629V.2592163C.18598938 .36532594 .26098634 .41737367 .32398988 .41737367 .3829956 .41737367 .3959961 .3683319 .3959961 .30825807V.077041629C.3959961 .0309906 .3849945 .0309906 .31900025 .0309906V0C.3659973 .0019989014 .3849945 .0029907227 .43299867 .0029907227 .48098756 .0029907227 .49398805 .0019989014 .5469971 0Z"/>
<path id="font_1_8" d="M.59799197 .25785829H.56999209C.5589905 .15692139 .54499819 .0309906 .3659973 .0309906H.2789917C.23199463 .0309906 .22999573 .037994386 .22999573 .07196045V.6026306C.22999573 .6396179 .23399353 .6516113 .32499696 .6516113H.35699464V.6826172C.32199098 .6796112 .23098755 .6796112 .19099427 .6796112 .14498902 .6796112 .08299255 .6796112 .037994386 .6826172V.6516113H.06098938C.13798523 .6516113 .13999939 .64060977 .13999939 .6036377V.07896423C.13999939 .041992189 .13798523 .0309906 .06098938 .0309906H.037994386V0H.56999209L.59799197 .25785829Z"/>
<path id="font_1_4" d="M.5399933 0V.0309906C.47200013 .0309906 .46299745 .037994386 .46299745 .087020877V.69433596L.31498719 .6826172V.6516113C.3829956 .6516113 .3919983 .64463809 .3919983 .59580996V.38339234C.3869934 .38938905 .34199525 .4423828 .2639923 .4423828 .14099121 .4423828 .033996583 .3443756 .033996583 .21525574 .033996583 .09013367 .13398743-.0107421879 .25299073-.0107421879 .32598878-.0107421879 .37098695 .03224182 .3889923 .053115846V-.0107421879L.5399933 0M.3889923 .12011719C.3889923 .10211182 .3889923 .099105838 .37399293 .07810974 .34298707 .033203126 .29699708 .014251709 .25698854 .014251709 .21398926 .014251709 .17399597 .03819275 .147995 .08010864 .12199402 .12310791 .11999512 .18218994 .11999512 .21421814 .11999512 .26127626 .12599182 .31433106 .1519928 .35438539 .17399597 .38638307 .21499634 .41737367 .2679901 .41737367 .30999757 .41737367 .34999085 .39637757 .3769989 .35839845 .3889923 .3423767 .3889923 .34136964 .3889923 .32234193V.12011719Z"/>
<path id="font_2_9" d="M.7789917 .4308777 .7569885 .6738281H.06498718L.042999269 .4308777H.09399414C.10398865 .5418396 .11299133 .6248169 .2599945 .6248169H.33898927V.04899597H.18598938V0C.22999573 .0029907227 .3600006 .0029907227 .4119873 .0029907227 .46398927 .0029907227 .59298709 .0029907227 .6369934 0V.04899597H.48399354V.6248169H.5629883C.70999148 .6248169 .71798709 .5398407 .7279968 .4308777H.7789917Z"/>
<path id="font_2_7" d="M.45498658 .36618043C.45498658 .41719056 .40299989 .4501953 .34399415 .4501953 .27398683 .4501953 .23098755 .39918519 .20899964 .34118653H.20799256V.4501953L.040985109 .4423828V.39337159C.100997928 .39337159 .10899353 .39337159 .10899353 .3543396V.04899597H.040985109V0L.16899109 .0029907227C.19400025 .0029907227 .2519989 .0029907227 .30499269 0V.04899597H.21998596V.21818543C.21998596 .29125978 .24699402 .40737916 .34399415 .41036988 .33299256 .39898683 .32798768 .38198854 .32798768 .3659973 .32798768 .32199098 .36299134 .3019867 .3909912 .3019867 .4229889 .3019867 .45498658 .32398988 .45498658 .3659973V.36618043Z"/>
<path id="font_2_11" d="M.2919922 0V.04899597H.23098755V.4501953L.054992677 .4423828V.39337159C.11299133 .39337159 .11999512 .39337159 .11999512 .3543396V.04899597H.051986696V0C.11898804 .0019989014 .13198853 .0029907227 .17399597 .0029907227 .22299195 .0029907227 .23599243 .0019989014 .2919922 0M.24198914 .6053314C.24198914 .65234377 .20399475 .68434146 .1639862 .68434146 .12199402 .68434146 .085998538 .6503296 .085998538 .6063385 .085998538 .55934146 .12399292 .52734377 .1639862 .52734377 .20599365 .52734377 .24198914 .56134036 .24198914 .6053314Z"/>
<path id="font_2_6" d="M.61698916 .22218323C.61698916 .354187 .526001 .4501953 .375 .4501953 .2939911 .45033265 .23899842 .41633607 .21998596 .40234376V.4501953L.040985109 .4423828V.39337159C.06098938 .39337159 .07699585 .39337159 .08999634 .39038087 .10899353 .38737489 .10899353 .3763733 .10899353 .3553772V-.14453125H.040985109V-.19354248L.16699219-.1905365 .2939911-.19354248V-.14453125H.22599793V.03942871C.2849884-.005859375 .33999635-.005859375 .35899354-.005859375 .5159912-.005859375 .61698916 .089141849 .61698916 .22216797V.22218323M.48399354 .22315979C.48399354 .08413696 .41299439 .03413391 .34700013 .03413391 .29599 .03413391 .25299073 .06314087 .22599793 .104141239V.34518434C.24398804 .3671875 .29100038 .4071808 .35899354 .4071808 .42900086 .4071808 .48399354 .34518434 .48399354 .22315979Z"/>
<path id="font_2_8" d="M.4269867 .14027405C.4269867 .19128418 .397995 .22328186 .37998963 .23828125 .33499146 .27627564 .30299378 .28128053 .22399903 .294281 .17599488 .3022766 .11299133 .31228639 .11299133 .35728456 .11299133 .41711427 .20599365 .41711427 .22799683 .41711427 .33999635 .41711427 .34399415 .35827638 .34599305 .33128358 .34700013 .3173828 .36099244 .3173828 .37098695 .3173828 .3959961 .3173828 .39698792 .32237245 .39698792 .3463745V.42411805C.39698792 .4421234 .39698792 .453125 .3769989 .453125 .36698915 .453125 .35099793 .44511415 .33299256 .43511964 .30099488 .44911195 .2619934 .453125 .22898865 .453125 .19799805 .4532776 .038986207 .4532776 .038986207 .32128907 .038986207 .2162323 .16999817 .19421387 .20498657 .18821717 .2869873 .1742096 .35299684 .16320801 .35299684 .106170658 .35299684 .03413391 .25898744 .03413391 .23699951 .03413391 .18598938 .03413391 .12098694 .0471344 .09199524 .13919068 .08699036 .15620423 .085998538 .15919495 .06498718 .15919495 .038986207 .15919495 .038986207 .15319824 .038986207 .12918091V.023132325C.038986207 .005126953 .038986207-.005859375 .05899048-.005859375 .06599426-.005859375 .067993167-.005859375 .08999634 .008132935L.116989139 .025131226C.1639862-.005859375 .21699524-.005859375 .23699951-.005859375 .2669983-.005859375 .4269867-.005859375 .4269867 .1401825V.14027405Z"/>
<path id="font_2_4" d="M.57499697 .39517213C.57499697 .42118836 .5549927 .45619203 .5089874 .45619203 .45999146 .45619203 .41799928 .43218995 .39898683 .41818238 .35699464 .44319154 .31098939 .4501953 .2630005 .4501953 .10998535 .4501953 .057998659 .36715699 .057998659 .30212403 .057998659 .24708557 .09199524 .21107483 .10998535 .19606018 .08898926 .17304993 .07699585 .13902283 .07699585 .10900879 .07699585 .06599426 .09799194 .031967164 .11898804 .012954712 .042999269-.008056641 .032989503-.051071168 .032989503-.0730896 .032989503-.13311768 .101989749-.20114136 .29499818-.20114136 .46998597-.2010498 .55799868-.14604187 .55799868-.0700531 .55799868-.03504944 .54499819 .026947022 .47599793 .05895996 .41799928 .08496094 .36499024 .08496094 .2659912 .08496094H.21598816C.18399048 .08496094 .16999817 .08496094 .15299988 .09802246 .13798523 .111083988 .12998963 .12817383 .12998963 .14828491 .12998963 .1683197 .13798523 .17930603 .13798523 .17930603 .1749878 .16030884 .21899414 .15332031 .2630005 .15332031 .41600038 .15332031 .46798707 .23631287 .46798707 .3013153 .46798707 .34231568 .44898988 .37532044 .42799378 .39631654 .45498658 .41018678 .47499085 .41218568 .48799134 .41418458 .4869995 .41018678 .4850006 .40419007 .4850006 .39419557 .4850006 .36721803 .5059967 .3492279 .5299988 .3492279 .5519867 .3492279 .57499697 .36521913 .57499697 .39520265V.39517213M.35299684 .3022461C.35299684 .25727845 .35299684 .1933136 .2630005 .1933136 .17298889 .1933136 .17298889 .25727845 .17298889 .30125428 .17298889 .34622193 .17298889 .41018678 .2630005 .41018678 .35299684 .41018678 .35299684 .34622193 .35299684 .3022461M.46899415-.07408142C.46899415-.10610962 .43199159-.16113281 .29599-.16113281 .1639862-.16113281 .12199402-.1111145 .12199402-.07208252 .12199402-.014053345 .18598938-.014053345 .20098877-.014053345H.32199098C.35299684-.014007568 .46899415-.014007568 .46899415-.07400513V-.07408142Z"/>
<path id="font_2_3" d="M.5089874 .11605835C.5089874 .13604737 .4889984 .13604737 .48298646 .13604737 .46499635 .13604737 .46299745 .13005066 .45700074 .11605835 .43399049 .06410217 .37298585 .037139894 .30999757 .037139894 .16799927 .037139894 .1659851 .16601563 .1659851 .21496582H.47599793C.49699403 .21496582 .5089874 .21496582 .5089874 .2429657 .5089874 .26498414 .5069885 .35305787 .44198609 .4071045 .39698792 .4441223 .33699037 .453125 .28799439 .453125 .116989139 .453125 .032989503 .345047 .032989503 .22497559 .032989503 .09408569 .13198853-.005859375 .3019867-.005859375 .46699525-.005859375 .5089874 .1000824 .5089874 .11605835M.41099549 .25097657H.1659851C.16799927 .29701234 .17298889 .41311646 .28799439 .41311646 .40499879 .41311646 .40899659 .29100038 .41099549 .25097657Z"/>
<path id="font_2_5" d="M.6299896-.0002746582V.048721315H.56199648V.30471803C.56199648 .4237213 .48999024 .4497223 .40299989 .4497223 .27999879 .4497223 .23098755 .35972596 .22399903 .34472657H.22299195V.4497223L.049987794 .44172669V.39271546C.10998535 .39271546 .117996219 .39271546 .117996219 .353714V.048721315H.049987794V-.0002746582L.17599488 .0027160645 .30299378-.0002746582V.048721315H.23498535V.25372315C.23498535 .36572267 .32699586 .40971376 .3869934 .40971376 .4249878 .40971376 .44499208 .38871766 .44499208 .3137207V.048721315H.3769989V-.0002746582L.5029907 .0027160645 .6299896-.0002746582Z"/>
<path id="font_2_1" d="M.56900027 .025131226C.56900027 .0491333 .5529938 .0491333 .54299929 .0491333 .47898866 .050125123 .47898866 .060134889 .47898866 .08413696V.29812623C.47898866 .38612367 .40699769 .453125 .25299073 .453125 .19599915 .453125 .067993167 .45111085 .067993167 .3591156 .067993167 .31411744 .101989749 .29312135 .1329956 .29312135 .16699219 .29312135 .19799805 .3171234 .19799805 .35812379 .19799805 .38711549 .18099976 .40411378 .17799378 .40711976 .18798828 .40911866 .21199036 .41311646 .24899292 .41311646 .32099916 .41311646 .3619995 .37712098 .3619995 .29812623V.26612855C.19599915 .26612855 .027999878 .22312927 .027999878 .11213684 .027999878 .013137817 .15299988-.005859375 .22499085-.005859375 .30099488-.005859375 .35299684 .027130127 .37998963 .0741272 .37998963 .04798889 .37998963 0 .4869995 0H.5359955C.5549927 0 .56900027 0 .56900027 .024993897V.025131226M.3619995 .13899231C.3619995 .033996583 .24598694 .033996583 .24198914 .033996583 .19099427 .033996583 .14898682 .066986087 .14898682 .11199951 .14898682 .14498902 .16699219 .22299195 .3619995 .23199463V.13899231Z"/>
<path id="font_2_10" d="M.3929901 .123184207V.1762085H.34199525V.12617493C.34199525 .055145265 .30599977 .037139894 .2809906 .037139894 .22299195 .037139894 .22299195 .09716797 .22299195 .1211853V.3953247H.37399293V.44433595H.22299195V.6357422H.17199707C.17098999 .5415344 .12399292 .43832398 .021987915 .43533326V.3953247H.10598755V.123184207C.10598755 .009140015 .20498657-.005859375 .2669983-.005859375 .34498597-.005859375 .3929901 .05014038 .3929901 .123184207Z"/>
<path id="font_2_2" d="M.61499026 0V.04899597C.5549927 .04899597 .5469971 .04899597 .5469971 .088012699V.69433596L.36799623 .6855469V.63653567C.42799378 .63653567 .43598939 .63653567 .43598939 .5976715V.40518189C.3919983 .43719483 .34498597 .4501953 .29699708 .4501953 .13398743 .4501953 .038986207 .35118104 .038986207 .22216797 .038986207 .089141849 .1329956-.005859375 .2849884-.005859375 .34799195-.005859375 .397995 .018127442 .42999269 .044128419V-.005859375L.61499026 0M.42999269 .10899353C.4079895 .074142459 .3600006 .03413391 .29599 .03413391 .17199707 .03413391 .17199707 .15414429 .17199707 .22015381 .17199707 .27816773 .17298889 .32118226 .19898987 .3581848 .22499085 .39819337 .272995 .41018678 .30799867 .41018678 .35798646 .41018678 .39898683 .3881836 .42999269 .34918214V.10899353Z"/>
</defs>
<path transform="matrix(1,0,0,-1,43.449,54.815999)" d="M23.9433 46.4483H-23.9433C-26.14424 46.4483-27.9284 44.66414-27.9284 42.4632V30.55771C-27.9284 28.35677-26.14424 26.5726-23.9433 26.5726H23.9433C26.14424 26.5726 27.9284 28.35677 27.9284 30.55771V42.4632C27.9284 44.66414 26.14424 46.4483 23.9433 46.4483ZM-27.9284 26.5726" fill="#ebf0f4"/>
<path transform="matrix(1,0,0,-1,43.449,54.815999)" stroke-width=".79701" stroke-linecap="butt" stroke-miterlimit="10" stroke-linejoin="miter" fill="none" stroke="#003e74" d="M23.9433 46.4483H-23.9433C-26.14424 46.4483-27.9284 44.66414-27.9284 42.4632V30.55771C-27.9284 28.35677-26.14424 26.5726-23.9433 26.5726H23.9433C26.14424 26.5726 27.9284 28.35677 27.9284 30.55771V42.4632C27.9284 44.66414 26.14424 46.4483 23.9433 46.4483ZM-27.9284 26.5726"/>
<use data-text="P" xlink:href="#font_1_12" transform="matrix(8.9664,0,0,-8.9664,21.498002,20.522995)"/>
<use data-text="o" xlink:href="#font_1_11" transform="matrix(8.9664,0,0,-8.9664,27.505492,20.522995)"/>
<use data-text="p" xlink:href="#font_1_13" transform="matrix(8.9664,0,0,-8.9664,32.11422,20.522995)"/>
<use data-text="u" xlink:href="#font_1_17" transform="matrix(8.9664,0,0,-8.9664,37.23404,20.522995)"/>
<use data-text="l" xlink:href="#font_1_9" transform="matrix(8.9664,0,0,-8.9664,42.35385,20.522995)"/>
<use data-text="a" xlink:href="#font_1_1" transform="matrix(8.9664,0,0,-8.9664,44.918245,20.522995)"/>
<use data-text="t" xlink:href="#font_1_16" transform="matrix(8.9664,0,0,-8.9664,49.526979,20.522995)"/>
<use data-text="i" xlink:href="#font_1_19" transform="matrix(8.9664,0,0,-8.9664,53.113534,20.522995)"/>
<use data-text="o" xlink:href="#font_1_11" transform="matrix(8.9664,0,0,-8.9664,55.677927,20.522995)"/>
<use data-text="n" xlink:href="#font_1_10" transform="matrix(8.9664,0,0,-8.9664,60.28666,20.522995)"/>
<path transform="matrix(1,0,0,-1,43.449,54.815999)" d="M11.04138 23.40962H-11.04138C-13.24232 23.40962-15.02649 21.62546-15.02649 19.42451V9.26251C-15.02649 7.06157-13.24232 5.2774-11.04138 5.2774H11.04138C13.24232 5.2774 15.02649 7.06157 15.02649 9.26251V19.42451C15.02649 21.62546 13.24232 23.40962 11.04138 23.40962ZM-15.02649 5.2774" fill="#ebf0f4"/>
<path transform="matrix(1,0,0,-1,43.449,54.815999)" stroke-width=".79701" stroke-linecap="butt" stroke-miterlimit="10" stroke-linejoin="miter" fill="none" stroke="#003e74" d="M11.04138 23.40962H-11.04138C-13.24232 23.40962-15.02649 21.62546-15.02649 19.42451V9.26251C-15.02649 7.06157-13.24232 5.2774-11.04138 5.2774H11.04138C13.24232 5.2774 15.02649 7.06157 15.02649 9.26251V19.42451C15.02649 21.62546 13.24232 23.40962 11.04138 23.40962ZM-15.02649 5.2774"/>
<use data-text="J" xlink:href="#font_1_7" transform="matrix(8.9664,0,0,-8.9664,34.4,43.560998)"/>
<use data-text="o" xlink:href="#font_1_11" transform="matrix(8.9664,0,0,-8.9664,39.134263,43.560998)"/>
<use data-text="b" xlink:href="#font_1_2" transform="matrix(8.9664,0,0,-8.9664,43.742994,43.560998)"/>
<use data-text="s" xlink:href="#font_1_15" transform="matrix(8.9664,0,0,-8.9664,48.86281,43.560998)"/>
<path transform="matrix(1,0,0,-1,43.449,54.815999)" d="M31.09526 2.11407H-31.09526C-33.2962 2.11407-35.08037 .32991-35.08037-1.87102V-13.7765C-35.08037-15.97745-33.2962-17.76161-31.09526-17.76161H31.09526C33.2962-17.76161 35.08037-15.97745 35.08037-13.7765V-1.87102C35.08037 .32991 33.2962 2.11407 31.09526 2.11407ZM-35.08037-17.76161" fill="#ebf0f4"/>
<path transform="matrix(1,0,0,-1,43.449,54.815999)" stroke-width=".79701" stroke-linecap="butt" stroke-miterlimit="10" stroke-linejoin="miter" fill="none" stroke="#003e74" d="M31.09526 2.11407H-31.09526C-33.2962 2.11407-35.08037 .32991-35.08037-1.87102V-13.7765C-35.08037-15.97745-33.2962-17.76161-31.09526-17.76161H31.09526C33.2962-17.76161 35.08037-15.97745 35.08037-13.7765V-1.87102C35.08037 .32991 33.2962 2.11407 31.09526 2.11407ZM-35.08037-17.76161"/>
<use data-text="C" xlink:href="#font_1_3" transform="matrix(8.9664,0,0,-8.9664,14.346001,64.856)"/>
<use data-text="a" xlink:href="#font_1_1" transform="matrix(8.9664,0,0,-8.9664,20.99907,64.856)"/>
<use data-text="r" xlink:href="#font_1_14" transform="matrix(8.9664,0,0,-8.9664,25.6078,64.856)"/>
<use data-text="o" xlink:href="#font_1_11" transform="matrix(8.9664,0,0,-8.9664,32.287767,64.856)"/>
<use data-text="w" xlink:href="#font_1_18" transform="matrix(8.9664,0,0,-8.9664,36.63647,64.856)"/>
<use data-text="n" xlink:href="#font_1_10" transform="matrix(8.9664,0,0,-8.9664,43.28954,64.856)"/>
<use data-text="e" xlink:href="#font_1_5" transform="matrix(8.9664,0,0,-8.9664,48.409357,64.856)"/>
<use data-text="r" xlink:href="#font_1_14" transform="matrix(8.9664,0,0,-8.9664,52.507,64.856)"/>
<use data-text="s" xlink:href="#font_1_15" transform="matrix(8.9664,0,0,-8.9664,56.111494,64.856)"/>
<use data-text="h" xlink:href="#font_1_6" transform="matrix(8.9664,0,0,-8.9664,59.742887,64.856)"/>
<use data-text="i" xlink:href="#font_1_19" transform="matrix(8.9664,0,0,-8.9664,64.8627,64.856)"/>
<use data-text="p" xlink:href="#font_1_13" transform="matrix(8.9664,0,0,-8.9664,67.42709,64.856)"/>
<path transform="matrix(1,0,0,-1,43.449,54.815999)" d="M20.25876-20.92458H-20.25876C-22.4597-20.92458-24.24387-22.70874-24.24387-24.90968V-35.07169C-24.24387-37.27263-22.4597-39.0568-20.25876-39.0568H20.25876C22.4597-39.0568 24.24387-37.27263 24.24387-35.07169V-24.90968C24.24387-22.70874 22.4597-20.92458 20.25876-20.92458ZM-24.24387-39.0568" fill="#ebf0f4"/>
<path transform="matrix(1,0,0,-1,43.449,54.815999)" stroke-width=".79701" stroke-linecap="butt" stroke-miterlimit="10" stroke-linejoin="miter" fill="none" stroke="#003e74" d="M20.25876-20.92458H-20.25876C-22.4597-20.92458-24.24387-22.70874-24.24387-24.90968V-35.07169C-24.24387-37.27263-22.4597-39.0568-20.25876-39.0568H20.25876C22.4597-39.0568 24.24387-37.27263 24.24387-35.07169V-24.90968C24.24387-22.70874 22.4597-20.92458 20.25876-20.92458ZM-24.24387-39.0568"/>
<use data-text="L" xlink:href="#font_1_8" transform="matrix(8.9664,0,0,-8.9664,25.183,87.895)"/>
<use data-text="a" xlink:href="#font_1_1" transform="matrix(8.9664,0,0,-8.9664,30.93943,87.895)"/>
<use data-text="n" xlink:href="#font_1_10" transform="matrix(8.9664,0,0,-8.9664,35.54816,87.895)"/>
<use data-text="d" xlink:href="#font_1_4" transform="matrix(8.9664,0,0,-8.9664,40.667978,87.895)"/>
<use data-text="u" xlink:href="#font_1_17" transform="matrix(8.9664,0,0,-8.9664,48.863267,87.895)"/>
<use data-text="s" xlink:href="#font_1_15" transform="matrix(8.9664,0,0,-8.9664,53.98308,87.895)"/>
<use data-text="e" xlink:href="#font_1_5" transform="matrix(8.9664,0,0,-8.9664,57.614477,87.895)"/>
<path transform="matrix(1,0,0,-1,43.449,54.815999)" d="M121.6235 34.18561H64.26642C62.6157 34.18561 61.27759 32.84749 61.27759 31.19678V-8.18062C61.27759-9.83133 62.6157-11.16945 64.26642-11.16945H121.6235C123.27422-11.16945 124.61234-9.83133 124.61234-8.18062V31.19678C124.61234 32.84749 123.27422 34.18561 121.6235 34.18561ZM61.27759-11.16945" fill="#e6ecf1"/>
<path transform="matrix(1,0,0,-1,43.449,54.815999)" stroke-width=".99628" stroke-linecap="butt" stroke-miterlimit="10" stroke-linejoin="miter" fill="none" stroke="#003e74" d="M121.6235 34.18561H64.26642C62.6157 34.18561 61.27759 32.84749 61.27759 31.19678V-8.18062C61.27759-9.83133 62.6157-11.16945 64.26642-11.16945H121.6235C123.27422-11.16945 124.61234-9.83133 124.61234-8.18062V31.19678C124.61234 32.84749 123.27422 34.18561 121.6235 34.18561ZM61.27759-11.16945"/>
<use data-text="T" xlink:href="#font_2_9" transform="matrix(8.9664,0,0,-8.9664,124.44301,40.028997)" fill="#003e74"/>
<use data-text="r" xlink:href="#font_2_7" transform="matrix(8.9664,0,0,-8.9664,130.93466,40.028997)" fill="#003e74"/>
<use data-text="i" xlink:href="#font_2_11" transform="matrix(8.9664,0,0,-8.9664,135.31027,40.028997)" fill="#003e74"/>
<use data-text="p" xlink:href="#font_2_6" transform="matrix(8.9664,0,0,-8.9664,138.26023,40.028997)" fill="#003e74"/>
<use data-text="s" xlink:href="#font_2_8" transform="matrix(8.9664,0,0,-8.9664,144.15116,40.028997)" fill="#003e74"/>
<use data-text="g" xlink:href="#font_2_4" transform="matrix(8.9664,0,0,-8.9664,113.712009,50.987997)" fill="#003e74"/>
<use data-text="e" xlink:href="#font_2_3" transform="matrix(8.9664,0,0,-8.9664,119.02011,50.987997)" fill="#003e74"/>
<use data-text="n" xlink:href="#font_2_5" transform="matrix(8.9664,0,0,-8.9664,123.88887,50.987997)" fill="#003e74"/>
<use data-text="e" xlink:href="#font_2_3" transform="matrix(8.9664,0,0,-8.9664,129.77979,50.987997)" fill="#003e74"/>
<use data-text="r" xlink:href="#font_2_7" transform="matrix(8.9664,0,0,-8.9664,134.64856,50.987997)" fill="#003e74"/>
<use data-text="a" xlink:href="#font_2_1" transform="matrix(8.9664,0,0,-8.9664,139.02417,50.987997)" fill="#003e74"/>
<use data-text="t" xlink:href="#font_2_10" transform="matrix(8.9664,0,0,-8.9664,144.17984,50.987997)" fill="#003e74"/>
<use data-text="e" xlink:href="#font_2_3" transform="matrix(8.9664,0,0,-8.9664,148.30438,50.987997)" fill="#003e74"/>
<use data-text="d" xlink:href="#font_2_2" transform="matrix(8.9664,0,0,-8.9664,153.17316,50.987997)" fill="#003e74"/>
<path transform="matrix(1,0,0,-1,43.449,54.815999)" stroke-width=".99628" stroke-linecap="butt" stroke-miterlimit="10" stroke-linejoin="miter" fill="none" stroke="#003e74" d="M28.32574 36.50893 57.16104 14.29329"/>
<path transform="matrix(.79213,.61026,.61026,-.79213,98.38781,38.810689)" d="M5.95149 0 1.60866 1.6449 3.05444 0 1.60866-1.6449Z" fill="#003e74"/>
<path transform="matrix(.79213,.61026,.61026,-.79213,98.38781,38.810689)" stroke-width=".99628" stroke-linecap="butt" stroke-miterlimit="10" stroke-linejoin="miter" fill="none" stroke="#003e74" d="M5.95149 0 1.60866 1.6449 3.05444 0 1.60866-1.6449Z"/>
<path transform="matrix(1,0,0,-1,43.449,54.815999)" stroke-width=".99628" stroke-linecap="butt" stroke-miterlimit="10" stroke-linejoin="miter" fill="none" stroke="#003e74" d="M15.42436 14.34293 56.22134 11.79239"/>
<path transform="matrix(.99799,.0624,.0624,-.99799,96.87062,42.848558)" d="M5.95149 0 1.60866 1.6449 3.05444 0 1.60866-1.6449Z" fill="#003e74"/>
<path transform="matrix(.99799,.0624,.0624,-.99799,96.87062,42.848558)" stroke-width=".99628" stroke-linecap="butt" stroke-miterlimit="10" stroke-linejoin="miter" fill="none" stroke="#003e74" d="M5.95149 0 1.60866 1.6449 3.05444 0 1.60866-1.6449Z"/>
<path transform="matrix(1,0,0,-1,43.449,54.815999)" stroke-width=".99628" stroke-linecap="butt" stroke-miterlimit="10" stroke-linejoin="miter" fill="none" stroke="#003e74" d="M35.4774-7.82343 57.1499 8.73631"/>
<path transform="matrix(.79457,-.6071,-.6071,-.79457,98.36982,47.78286)" d="M5.95149 0 1.60866 1.6449 3.05444 0 1.60866-1.6449Z" fill="#003e74"/>
<path transform="matrix(.79457,-.6071,-.6071,-.79457,98.36982,47.78286)" stroke-width=".99628" stroke-linecap="butt" stroke-miterlimit="10" stroke-linejoin="miter" fill="none" stroke="#003e74" d="M5.95149 0 1.60866 1.6449 3.05444 0 1.60866-1.6449Z"/>
<path transform="matrix(1,0,0,-1,43.449,54.815999)" stroke-width=".99628" stroke-linecap="butt" stroke-miterlimit="10" stroke-linejoin="miter" fill="none" stroke="#003e74" d="M24.64134-29.98944 57.7793 8.06512"/>
<path transform="matrix(.6567,-.75414,-.75414,-.6567,99.38602,48.866518)" d="M5.95149 0 1.60866 1.6449 3.05444 0 1.60866-1.6449Z" fill="#003e74"/>
<path transform="matrix(.6567,-.75414,-.75414,-.6567,99.38602,48.866518)" stroke-width=".99628" stroke-linecap="butt" stroke-miterlimit="10" stroke-linejoin="miter" fill="none" stroke="#003e74" d="M5.95149 0 1.60866 1.6449 3.05444 0 1.60866-1.6449Z"/>
</svg>
