<svg xmlns="http://www.w3.org/2000/svg" xmlns:xlink="http://www.w3.org/1999/xlink" xmlns:inkscape="http://www.inkscape.org/namespaces/inkscape" version="1.1" width="193.701" height="99.042" viewBox="0 0 193.701 99.042">
<defs>
<path id="font_1_4" d="M.4149933 .14404297C.4149933 .15602112 .4019928 .15602112 .394989 .15602112 .3789978 .15602112 .37799073 .15402222 .37199403 .14004517 .32499696 .034194948 .272995 .018234253 .24598694 .018234253 .21199036 .018234253 .21199036 .05517578 .21199036 .06515503 .21199036 .0821228 .21699524 .10310364 .21798706 .10609436L.2899933 .39465333H.3889923C.40699769 .39465333 .4189911 .39465333 .4189911 .4166565 .4189911 .43066407 .40699769 .43066407 .3909912 .43066407H.29899598L.33499146 .5749054C.33898927 .5889282 .33898927 .5909271 .33898927 .5949402 .33898927 .6129761 .32499696 .625 .30699159 .625 .272995 .625 .2649994 .5919342 .2630005 .58291628L.22499085 .43066407H.12599182C.10798645 .43066407 .09599304 .43066407 .09599304 .4086609 .09599304 .39465333 .10798645 .39465333 .12399292 .39465333H.21598816L.14698792 .11807251C.14199829 .098098758 .14199829 .09111023 .14199829 .084121707 .14199829 .022216797 .19099427-.009765625 .24299622-.009765625 .35099793-.009765625 .4149933 .12806702 .4149933 .14404297Z"/>
<path id="font_1_3" d="M.55999758 .3723755C.55999758 .42340089 .49798585 .44140626 .43899537 .44140626 .4119873 .44140626 .35798646 .4393921 .30099488 .37338258 .2849884 .42840577 .23298645 .44140626 .20498657 .44140626 .1619873 .44140626 .13999939 .4133911 .125 .38838197 .10398865 .3553772 .08799744 .2943573 .08799744 .28834535 .08799744 .27534486 .100997928 .27534486 .10899353 .27534486 .1269989 .27534486 .12799073 .27633668 .1349945 .3043518 .1519928 .37338258 .17098999 .4133911 .20199585 .4133911 .23298645 .4133911 .23298645 .37738038 .23298645 .3653717 .23298645 .3463745 .21998596 .29534913 .21199036 .2603302L.18399048 .15229798C.18099976 .13728333 .17098999 .09927368 .16699219 .08425903 .1619873 .06225586 .15299988 .027236939 .15299988 .020233155 .15299988-.0017700195 .16899109-.009765625 .18399048-.009765625 .20599365-.009765625 .21899414 .0062408449 .22299195 .01423645 .22599793 .021240235 .23498535 .057250978 .23999024 .07826233L.2669983 .18630982C.27198792 .20831299 .27799989 .22932434 .2829895 .2513275 .2889862 .27534486 .2999878 .31835938 .34399415 .3683777 .3639984 .39138795 .3929901 .4133911 .43699647 .4133911 .44799806 .4133911 .48199464 .4123993 .5049896 .39639283 .48399354 .38638307 .47499085 .3683777 .47499085 .3513794 .47499085 .32336427 .49699403 .3173523 .5099945 .3173523 .5289917 .3173523 .55999758 .33135987 .55999758 .3723755Z"/>
<path id="font_1_1" d="M.54100039 .097335819C.54100039 .10534668 .5269928 .12136841 .5179901 .12136841 .5130005 .12136841 .5099945 .11836243 .5029907 .11035156 .44198609 .037246705 .35499574 .018234253 .30499269 .018234253 .23999024 .018234253 .21199036 .07330322 .21199036 .13638306 .21199036 .16741944 .21798706 .19847107 .22499085 .22851563H.2869873C.32998658 .22851563 .5269928 .22851563 .5269928 .35343934 .5269928 .40740968 .47599793 .44140626 .4059906 .44140626 .2939911 .44140626 .1349945 .35144044 .1349945 .1754303 .1349945 .07029724 .19699097-.009765625 .30499269-.009765625 .46398927-.009765625 .54100039 .08432007 .54100039 .097335819M.47898866 .3544464C.47898866 .2565155 .31900025 .2565155 .27999879 .2565155H.23298645C.27799989 .4113922 .3939972 .4133911 .4059906 .4133911 .44799806 .4133911 .47898866 .39041139 .47898866 .3544464Z"/>
<path id="font_1_2" d="M.48599244 .021987915C.48599244 .035995485 .47299195 .035995485 .45799256 .035995485H.44400025C.42999269 .035995485 .4119873 .036987306 .397995 .037994386 .36999513 .040985109 .36499024 .040985109 .36499024 .056991579 .36499024 .06098938 .36499024 .06298828 .36898805 .07798767L.5089874 .6370392C.5099945 .64004519 .5109863 .64704897 .5109863 .65005496 .5109863 .65005496 .5099945 .6640625 .49598695 .6640625 .4869995 .6640625 .48599244 .66204836 .47499085 .64805606 .43699647 .6000366 .375 .5430145 .2899933 .53601077 .2769928 .53401187 .2659912 .53302 .2659912 .5140228 .2659912 .49902345 .27999879 .49902345 .2849884 .49902345 .30099488 .49902345 .34700013 .50302127 .4099884 .5420227L.29499818 .08099365C.28599549 .04598999 .27999879 .035995485 .19099427 .035995485H.1769867C.1599884 .035995485 .14698792 .035995485 .14698792 .01399231 .14698792 .01399231 .14698792 0 .16299439 0 .21099854 0 .2639923 .0039978029 .31298829 .0039978029 .3619995 .0039978029 .41600038 0 .46398927 0 .47200013 0 .48599244 0 .48599244 .021987915Z"/>
<path id="font_1_6" d="M.5970001 .164505C.5970001 .17649842 .58299258 .17649842 .57598879 .17649842 .55999758 .17649842 .55799868 .17449951 .55400088 .16252136 .5339966 .10160828 .4850006 .056640626 .4229889 .056640626 .3909912 .056640626 .34700013 .06463623 .31199647 .070632938 .29499818 .07463074 .24198914 .0846405 .20298767 .0846405L.18798828 .08262634C.24099732 .16052246 .32099916 .19946289 .34098817 .20944214 .5499878 .30729676 .62098696 .38023377 .62098696 .48716737 .62098696 .58909609 .54499819 .6640625 .43499757 .6640625 .2809906 .6640625 .17999268 .48616029 .17999268 .40722657 .17999268 .35925294 .20799256 .33624269 .24299622 .33624269 .32598878 .33624269 .37799073 .4481964 .37799073 .49215699 .37799073 .5141449 .3639984 .5501251 .34999085 .5501251 .34298707 .5501251 .33499146 .54312136 .33499146 .5361328 .33499146 .532135 .33799745 .5271301 .33999635 .5241394 .34599305 .5141449 .34999085 .5021515 .34999085 .49116517 .34999085 .46017457 .30699159 .3642578 .24398804 .3642578 .22299195 .3642578 .21998596 .38423158 .21998596 .39923097 .21998596 .46617127 .3039856 .63604739 .43299867 .63604739 .47898866 .63604739 .54100039 .6100769 .54100039 .5191345 .54100039 .4112091 .49198915 .3252716 .32499696 .24539185 .1309967 .15153504 .101989749-.0033721924 .101989749-.007369995 .101989749-.01953125 .11399841-.01953125 .12298584-.01953125 .13899231-.01953125 .14099121-.018539429 .14498902-.0045318605 .15299988 .020462037 .17199707 .0554657 .20199585 .0554657 .23599243 .0554657 .2669983 .04046631 .3019867 .020462037 .32899476 .0044555666 .36898805-.01953125 .4139862-.01953125 .5359955-.01953125 .5970001 .13845825 .5970001 .16445923V.164505Z"/>
<path id="font_1_5" d="M.6319885 .5242615C.6319885 .6061096 .5629883 .6640625 .46299745 .6640625 .32699586 .6640625 .21899414 .5661926 .21899414 .4813385 .21899414 .4404297 .24598694 .41241456 .2869873 .41241456 .32798768 .41241456 .3789978 .44641114 .3789978 .49632264 .3789978 .52027896 .3619995 .5502167 .34999085 .5502167 .34298707 .5502167 .33499146 .54322817 .33499146 .5362396 .33499146 .5322571 .33699037 .5282593 .33898927 .52526858 .34498597 .51727297 .35099793 .5063019 .35099793 .49531556 .35099793 .46437074 .31599427 .4404297 .28799439 .4404297 .2639923 .4404297 .2599945 .4633789 .2599945 .47735597 .2599945 .54922488 .35299684 .63604739 .46099855 .63604739 .5019989 .63604739 .56199648 .62008669 .56199648 .54322817 .56199648 .4813385 .5209961 .3533783 .3809967 .3533783H.34199525C.32499696 .3533783 .31199647 .3533783 .31199647 .32937623 .31199647 .3173828 .32199098 .3173828 .33799745 .3173828H.37399293C.43499757 .3173828 .46998597 .2873993 .46998597 .22743225 .46998597 .12446594 .4019928 .008468628 .2709961 .008468628 .21598816 .008468628 .16099549 .037460329 .15499878 .10246277 .19198609 .10845947 .20098877 .13845825 .20098877 .15246582 .20098877 .16845703 .18998719 .18545532 .16499329 .18545532 .11898804 .18545532 .11299133 .13546753 .11299133 .111465457 .11299133 .033462526 .17799378-.01953125 .2709961-.01953125 .40899659-.01953125 .5499878 .07646179 .5499878 .19845581 .5499878 .24243164 .5299988 .3013916 .46199037 .32937623 .5509949 .3573761 .6319885 .4374237 .6319885 .5242615Z"/>
<path id="font_2_1" d="M.19198609 .2502594C.19198609 .2792511 .16799927 .30325318 .13899231 .30325318 .10998535 .30325318 .085998538 .2792511 .085998538 .2502594 .085998538 .22125244 .10998535 .19726563 .13899231 .19726563 .16799927 .19726563 .19198609 .22125244 .19198609 .2502594Z"/>
<path id="font_3_1" d="M.56900027 .025131226C.56900027 .0491333 .5529938 .0491333 .54299929 .0491333 .47898866 .050125123 .47898866 .060134889 .47898866 .08413696V.29812623C.47898866 .38612367 .40699769 .453125 .25299073 .453125 .19599915 .453125 .067993167 .45111085 .067993167 .3591156 .067993167 .31411744 .101989749 .29312135 .1329956 .29312135 .16699219 .29312135 .19799805 .3171234 .19799805 .35812379 .19799805 .38711549 .18099976 .40411378 .17799378 .40711976 .18798828 .40911866 .21199036 .41311646 .24899292 .41311646 .32099916 .41311646 .3619995 .37712098 .3619995 .29812623V.26612855C.19599915 .26612855 .027999878 .22312927 .027999878 .11213684 .027999878 .013137817 .15299988-.005859375 .22499085-.005859375 .30099488-.005859375 .35299684 .027130127 .37998963 .0741272 .37998963 .04798889 .37998963 0 .4869995 0H.5359955C.5549927 0 .56900027 0 .56900027 .024993897V.025131226M.3619995 .13899231C.3619995 .033996583 .24598694 .033996583 .24198914 .033996583 .19099427 .033996583 .14898682 .066986087 .14898682 .11199951 .14898682 .14498902 .16699219 .22299195 .3619995 .23199463V.13899231Z"/>
<path id="font_3_11" d="M.59599307 .3953247V.44433595C.56799319 .44132997 .54299929 .44132997 .5149994 .44132997 .48599244 .44132997 .45399476 .44132997 .4249878 .44433595V.3953247C.45298768 .3953247 .46199037 .39033509 .47099305 .38632203 .46998597 .38232423 .46998597 .38032533 .46499635 .37231446L.34498597 .123184207 .21398926 .3953247H.2659912V.44433595L.14299011 .44132997C.10699463 .44132997 .08699036 .44132997 .027999878 .44433595V.3953247H.09098816L.269989 .023132325C.2789917 .004119873 .2869873-.0048828127 .31199647-.0048828127 .33699037-.0048828127 .34498597 .004119873 .35398866 .023132325L.522995 .37431336C.5299988 .38832093 .5329895 .3953247 .59599307 .3953247Z"/>
<path id="font_3_4" d="M.5089874 .11605835C.5089874 .13604737 .4889984 .13604737 .48298646 .13604737 .46499635 .13604737 .46299745 .13005066 .45700074 .11605835 .43399049 .06410217 .37298585 .037139894 .30999757 .037139894 .16799927 .037139894 .1659851 .16601563 .1659851 .21496582H.47599793C.49699403 .21496582 .5089874 .21496582 .5089874 .2429657 .5089874 .26498414 .5069885 .35305787 .44198609 .4071045 .39698792 .4441223 .33699037 .453125 .28799439 .453125 .116989139 .453125 .032989503 .345047 .032989503 .22497559 .032989503 .09408569 .13198853-.005859375 .3019867-.005859375 .46699525-.005859375 .5089874 .1000824 .5089874 .11605835M.41099549 .25097657H.1659851C.16799927 .29701234 .17298889 .41311646 .28799439 .41311646 .40499879 .41311646 .40899659 .29100038 .41099549 .25097657Z"/>
<path id="font_3_9" d="M.45498658 .36618043C.45498658 .41719056 .40299989 .4501953 .34399415 .4501953 .27398683 .4501953 .23098755 .39918519 .20899964 .34118653H.20799256V.4501953L.040985109 .4423828V.39337159C.100997928 .39337159 .10899353 .39337159 .10899353 .3543396V.04899597H.040985109V0L.16899109 .0029907227C.19400025 .0029907227 .2519989 .0029907227 .30499269 0V.04899597H.21998596V.21818543C.21998596 .29125978 .24699402 .40737916 .34399415 .41036988 .33299256 .39898683 .32798768 .38198854 .32798768 .3659973 .32798768 .32199098 .36299134 .3019867 .3909912 .3019867 .4229889 .3019867 .45498658 .32398988 .45498658 .3659973V.36618043Z"/>
<path id="font_3_5" d="M.57499697 .39517213C.57499697 .42118836 .5549927 .45619203 .5089874 .45619203 .45999146 .45619203 .41799928 .43218995 .39898683 .41818238 .35699464 .44319154 .31098939 .4501953 .2630005 .4501953 .10998535 .4501953 .057998659 .36715699 .057998659 .30212403 .057998659 .24708557 .09199524 .21107483 .10998535 .19606018 .08898926 .17304993 .07699585 .13902283 .07699585 .10900879 .07699585 .06599426 .09799194 .031967164 .11898804 .012954712 .042999269-.008056641 .032989503-.051071168 .032989503-.0730896 .032989503-.13311768 .101989749-.20114136 .29499818-.20114136 .46998597-.2010498 .55799868-.14604187 .55799868-.0700531 .55799868-.03504944 .54499819 .026947022 .47599793 .05895996 .41799928 .08496094 .36499024 .08496094 .2659912 .08496094H.21598816C.18399048 .08496094 .16999817 .08496094 .15299988 .09802246 .13798523 .111083988 .12998963 .12817383 .12998963 .14828491 .12998963 .1683197 .13798523 .17930603 .13798523 .17930603 .1749878 .16030884 .21899414 .15332031 .2630005 .15332031 .41600038 .15332031 .46798707 .23631287 .46798707 .3013153 .46798707 .34231568 .44898988 .37532044 .42799378 .39631654 .45498658 .41018678 .47499085 .41218568 .48799134 .41418458 .4869995 .41018678 .4850006 .40419007 .4850006 .39419557 .4850006 .36721803 .5059967 .3492279 .5299988 .3492279 .5519867 .3492279 .57499697 .36521913 .57499697 .39520265V.39517213M.35299684 .3022461C.35299684 .25727845 .35299684 .1933136 .2630005 .1933136 .17298889 .1933136 .17298889 .25727845 .17298889 .30125428 .17298889 .34622193 .17298889 .41018678 .2630005 .41018678 .35299684 .41018678 .35299684 .34622193 .35299684 .3022461M.46899415-.07408142C.46899415-.10610962 .43199159-.16113281 .29599-.16113281 .1639862-.16113281 .12199402-.1111145 .12199402-.07208252 .12199402-.014053345 .18598938-.014053345 .20098877-.014053345H.32199098C.35299684-.014007568 .46899415-.014007568 .46899415-.07400513V-.07408142Z"/>
<path id="font_3_8" d="M.61698916 .22218323C.61698916 .354187 .526001 .4501953 .375 .4501953 .2939911 .45033265 .23899842 .41633607 .21998596 .40234376V.4501953L.040985109 .4423828V.39337159C.06098938 .39337159 .07699585 .39337159 .08999634 .39038087 .10899353 .38737489 .10899353 .3763733 .10899353 .3553772V-.14453125H.040985109V-.19354248L.16699219-.1905365 .2939911-.19354248V-.14453125H.22599793V.03942871C.2849884-.005859375 .33999635-.005859375 .35899354-.005859375 .5159912-.005859375 .61698916 .089141849 .61698916 .22216797V.22218323M.48399354 .22315979C.48399354 .08413696 .41299439 .03413391 .34700013 .03413391 .29599 .03413391 .25299073 .06314087 .22599793 .104141239V.34518434C.24398804 .3671875 .29100038 .4071808 .35899354 .4071808 .42900086 .4071808 .48399354 .34518434 .48399354 .22315979Z"/>
<path id="font_3_3" d="M.61499026 0V.04899597C.5549927 .04899597 .5469971 .04899597 .5469971 .088012699V.69433596L.36799623 .6855469V.63653567C.42799378 .63653567 .43598939 .63653567 .43598939 .5976715V.40518189C.3919983 .43719483 .34498597 .4501953 .29699708 .4501953 .13398743 .4501953 .038986207 .35118104 .038986207 .22216797 .038986207 .089141849 .1329956-.005859375 .2849884-.005859375 .34799195-.005859375 .397995 .018127442 .42999269 .044128419V-.005859375L.61499026 0M.42999269 .10899353C.4079895 .074142459 .3600006 .03413391 .29599 .03413391 .17199707 .03413391 .17199707 .15414429 .17199707 .22015381 .17199707 .27816773 .17298889 .32118226 .19898987 .3581848 .22499085 .39819337 .272995 .41018678 .30799867 .41018678 .35798646 .41018678 .39898683 .3881836 .42999269 .34918214V.10899353Z"/>
<path id="font_3_12" d="M.2919922 0V.04899597H.23098755V.4501953L.054992677 .4423828V.39337159C.11299133 .39337159 .11999512 .39337159 .11999512 .3543396V.04899597H.051986696V0C.11898804 .0019989014 .13198853 .0029907227 .17399597 .0029907227 .22299195 .0029907227 .23599243 .0019989014 .2919922 0M.24198914 .6053314C.24198914 .65234377 .20399475 .68434146 .1639862 .68434146 .12199402 .68434146 .085998538 .6503296 .085998538 .6063385 .085998538 .55934146 .12399292 .52734377 .1639862 .52734377 .20599365 .52734377 .24198914 .56134036 .24198914 .6053314Z"/>
<path id="font_3_2" d="M.49198915 .11613464C.49198915 .13212586 .47698976 .13212586 .46598817 .13212586 .44599916 .13212586 .44599916 .13113404 .43798829 .11312866 .41799928 .06512451 .37298585 .037139894 .31399537 .037139894 .17199707 .037139894 .17199707 .18112183 .17199707 .22612 .17199707 .28611756 .17298889 .41011048 .3039856 .41011048 .31098939 .41011048 .36499024 .40911866 .36499024 .40411378L.3619995 .39912416C.35299684 .38812257 .34899903 .3721161 .34899903 .35812379 .34899903 .3171234 .37998963 .29312135 .4139862 .29312135 .44499208 .29312135 .47898866 .31411744 .47898866 .3591156 .47898866 .453125 .33898927 .453125 .2999878 .453125 .10798645 .453125 .038986207 .33111573 .038986207 .22212219 .038986207 .09613037 .1289978-.005859375 .29499818-.005859375 .33198548-.005859375 .3809967 .0001373291 .4229889 .026138306 .47999574 .06098938 .49198915 .11299133 .49198915 .115997318V.11613464Z"/>
<path id="font_3_10" d="M.3929901 .123184207V.1762085H.34199525V.12617493C.34199525 .055145265 .30599977 .037139894 .2809906 .037139894 .22299195 .037139894 .22299195 .09716797 .22299195 .1211853V.3953247H.37399293V.44433595H.22299195V.6357422H.17199707C.17098999 .5415344 .12399292 .43832398 .021987915 .43533326V.3953247H.10598755V.123184207C.10598755 .009140015 .20498657-.005859375 .2669983-.005859375 .34498597-.005859375 .3929901 .05014038 .3929901 .123184207Z"/>
<path id="font_3_7" d="M.55799868 .21812439C.55799868 .3491211 .46598817 .453125 .29599 .453125 .11999512 .453125 .032989503 .3441162 .032989503 .21812439 .032989503 .09413147 .12298584-.005859375 .29499818-.005859375 .47399903-.005859375 .55799868 .09913635 .55799868 .21812439M.4249878 .22912598C.4249878 .14312744 .4249878 .037139894 .29599 .037139894 .1659851 .037139894 .1659851 .14213562 .1659851 .22912598 .1659851 .3131256 .1659851 .41311646 .29499818 .41311646 .4249878 .41311646 .4249878 .3131256 .4249878 .22912598Z"/>
<path id="font_3_6" d="M.6299896-.0002746582V.048721315H.56199648V.30471803C.56199648 .4237213 .48999024 .4497223 .40299989 .4497223 .27999879 .4497223 .23098755 .35972596 .22399903 .34472657H.22299195V.4497223L.049987794 .44172669V.39271546C.10998535 .39271546 .117996219 .39271546 .117996219 .353714V.048721315H.049987794V-.0002746582L.17599488 .0027160645 .30299378-.0002746582V.048721315H.23498535V.25372315C.23498535 .36572267 .32699586 .40971376 .3869934 .40971376 .4249878 .40971376 .44499208 .38871766 .44499208 .3137207V.048721315H.3769989V-.0002746582L.5029907 .0027160645 .6299896-.0002746582Z"/>
</defs>
<path transform="matrix(1,0,0,-1,22.542,23.96)" d="M0 15.59082-14.17339-4.25183H14.17339Z" fill="#e9f0f6"/>
<path transform="matrix(1,0,0,-1,22.542,23.96)" stroke-width=".79701" stroke-linecap="butt" stroke-miterlimit="10" stroke-linejoin="miter" fill="none" stroke="#4682b4" d="M0 15.59082-14.17339-4.25183H14.17339Z"/>
<path transform="matrix(1,0,0,-1,22.542,23.96)" d="M0 5.66927-11.33855-9.92155H11.33855Z" fill="#dae6f0"/>
<path transform="matrix(1,0,0,-1,22.542,23.96)" stroke-width=".79701" stroke-linecap="butt" stroke-miterlimit="10" stroke-linejoin="miter" fill="none" stroke="#4682b4" d="M0 5.66927-11.33855-9.92155H11.33855Z"/>
<path transform="matrix(1,0,0,-1,22.542,23.96)" d="M-1.98447-9.92155V-17.57486H1.98447V-9.92155ZM1.98447-17.57486" fill="#90b4d2"/>
<use data-text="t" xlink:href="#font_1_4" transform="matrix(6.9738,0,0,-6.9738,12.431,50.301)" fill="#555555"/>
<use data-text="r" xlink:href="#font_1_3" transform="matrix(6.9738,0,0,-6.9738,15.206573,50.301)" fill="#555555"/>
<use data-text="e" xlink:href="#font_1_1" transform="matrix(6.9738,0,0,-6.9738,18.282017,50.301)" fill="#555555"/>
<use data-text="e" xlink:href="#font_1_1" transform="matrix(6.9738,0,0,-6.9738,21.671284,50.301)" fill="#555555"/>
<use data-text="1" xlink:href="#font_1_2" transform="matrix(6.9738,0,0,-6.9738,28.442845,50.301)" fill="#555555"/>
<path transform="matrix(1,0,0,-1,22.542,23.96)" d="M48.18947 15.59082 34.01608-4.25183H62.36288Z" fill="#e9f0f6"/>
<path transform="matrix(1,0,0,-1,22.542,23.96)" stroke-width=".79701" stroke-linecap="butt" stroke-miterlimit="10" stroke-linejoin="miter" fill="none" stroke="#4682b4" d="M48.18947 15.59082 34.01608-4.25183H62.36288Z"/>
<path transform="matrix(1,0,0,-1,22.542,23.96)" d="M48.18947 5.66927 36.85092-9.92155H59.52802Z" fill="#dae6f0"/>
<path transform="matrix(1,0,0,-1,22.542,23.96)" stroke-width=".79701" stroke-linecap="butt" stroke-miterlimit="10" stroke-linejoin="miter" fill="none" stroke="#4682b4" d="M48.18947 5.66927 36.85092-9.92155H59.52802Z"/>
<path transform="matrix(1,0,0,-1,22.542,23.96)" d="M46.20499-9.92155V-17.57486H50.17395V-9.92155ZM50.17395-17.57486" fill="#90b4d2"/>
<use data-text="t" xlink:href="#font_1_4" transform="matrix(6.9738,0,0,-6.9738,60.62,50.301)" fill="#555555"/>
<use data-text="r" xlink:href="#font_1_3" transform="matrix(6.9738,0,0,-6.9738,63.395574,50.301)" fill="#555555"/>
<use data-text="e" xlink:href="#font_1_1" transform="matrix(6.9738,0,0,-6.9738,66.471019,50.301)" fill="#555555"/>
<use data-text="e" xlink:href="#font_1_1" transform="matrix(6.9738,0,0,-6.9738,69.86028,50.301)" fill="#555555"/>
<use data-text="2" xlink:href="#font_1_6" transform="matrix(6.9738,0,0,-6.9738,76.63184,50.301)" fill="#555555"/>
<path transform="matrix(1,0,0,-1,22.542,23.96)" d="M96.37897 15.59082 82.20555-4.25183H110.55237Z" fill="#e9f0f6"/>
<path transform="matrix(1,0,0,-1,22.542,23.96)" stroke-width=".79701" stroke-linecap="butt" stroke-miterlimit="10" stroke-linejoin="miter" fill="none" stroke="#4682b4" d="M96.37897 15.59082 82.20555-4.25183H110.55237Z"/>
<path transform="matrix(1,0,0,-1,22.542,23.96)" d="M96.37897 5.66927 85.04042-9.92155H107.71751Z" fill="#dae6f0"/>
<path transform="matrix(1,0,0,-1,22.542,23.96)" stroke-width=".79701" stroke-linecap="butt" stroke-miterlimit="10" stroke-linejoin="miter" fill="none" stroke="#4682b4" d="M96.37897 5.66927 85.04042-9.92155H107.71751Z"/>
<path transform="matrix(1,0,0,-1,22.542,23.96)" d="M94.39449-9.92155V-17.57486H98.36345V-9.92155ZM98.36345-17.57486" fill="#90b4d2"/>
<use data-text="t" xlink:href="#font_1_4" transform="matrix(6.9738,0,0,-6.9738,108.809,50.301)" fill="#555555"/>
<use data-text="r" xlink:href="#font_1_3" transform="matrix(6.9738,0,0,-6.9738,111.58457,50.301)" fill="#555555"/>
<use data-text="e" xlink:href="#font_1_1" transform="matrix(6.9738,0,0,-6.9738,114.66002,50.301)" fill="#555555"/>
<use data-text="e" xlink:href="#font_1_1" transform="matrix(6.9738,0,0,-6.9738,118.049289,50.301)" fill="#555555"/>
<use data-text="3" xlink:href="#font_1_5" transform="matrix(6.9738,0,0,-6.9738,124.82085,50.301)" fill="#555555"/>
<use data-text="&#x00b7;" xlink:href="#font_2_1" transform="matrix(9.9626,0,0,-9.9626,142.04199,27.590996)" fill="#555555"/>
<use data-text="&#x00b7;" xlink:href="#font_2_1" transform="matrix(9.9626,0,0,-9.9626,146.47536,27.590996)" fill="#555555"/>
<use data-text="&#x00b7;" xlink:href="#font_2_1" transform="matrix(9.9626,0,0,-9.9626,150.89876,27.590996)" fill="#555555"/>
<path transform="matrix(1,0,0,-1,22.542,23.96)" d="M67.55472-47.90198H28.82423C26.62329-47.90198 24.83913-49.68614 24.83913-51.88708V-61.50014C24.83913-63.70108 26.62329-65.48524 28.82423-65.48524H67.55472C69.75566-65.48524 71.53983-63.70108 71.53983-61.50014V-51.88708C71.53983-49.68614 69.75566-47.90198 67.55472-47.90198ZM24.83913-65.48524" fill="#f4eee2"/>
<path transform="matrix(1,0,0,-1,22.542,23.96)" stroke-width=".99628" stroke-linecap="butt" stroke-miterlimit="10" stroke-linejoin="miter" fill="none" stroke="#b48c3c" d="M67.55472-47.90198H28.82423C26.62329-47.90198 24.83913-49.68614 24.83913-51.88708V-61.50014C24.83913-63.70108 26.62329-65.48524 28.82423-65.48524H67.55472C69.75566-65.48524 71.53983-63.70108 71.53983-61.50014V-51.88708C71.53983-49.68614 69.75566-47.90198 67.55472-47.90198ZM24.83913-65.48524"/>
<use data-text="a" xlink:href="#font_3_1" transform="matrix(8.9664,0,0,-8.9664,53.358,81.723)" fill="#003e74"/>
<use data-text="v" xlink:href="#font_3_11" transform="matrix(8.9664,0,0,-8.9664,58.217794,81.723)" fill="#003e74"/>
<use data-text="e" xlink:href="#font_3_4" transform="matrix(8.9664,0,0,-8.9664,63.5259,81.723)" fill="#003e74"/>
<use data-text="r" xlink:href="#font_3_9" transform="matrix(8.9664,0,0,-8.9664,68.39466,81.723)" fill="#003e74"/>
<use data-text="a" xlink:href="#font_3_1" transform="matrix(8.9664,0,0,-8.9664,72.77026,81.723)" fill="#003e74"/>
<use data-text="g" xlink:href="#font_3_5" transform="matrix(8.9664,0,0,-8.9664,77.92594,81.723)" fill="#003e74"/>
<use data-text="e" xlink:href="#font_3_4" transform="matrix(8.9664,0,0,-8.9664,83.23405,81.723)" fill="#003e74"/>
<path transform="matrix(1,0,0,-1,22.542,23.96)" stroke-width=".69739" stroke-linecap="butt" stroke-miterlimit="10" stroke-linejoin="miter" fill="none" stroke="#b9b9b9" d="M0-28.3468C0-48.63948 48.18947-27.11116 48.18947-43.5551"/>
<path transform="matrix(0,1,1,0,70.73147,65.23675)" d="M5.13399 0 1.12613 1.51437 2.45268 0 1.12613-1.51437Z" fill="#b9b9b9"/>
<path transform="matrix(0,1,1,0,70.73147,65.23675)" stroke-width=".69739" stroke-linecap="butt" stroke-miterlimit="10" stroke-linejoin="miter" fill="none" stroke="#b9b9b9" d="M5.13399 0 1.12613 1.51437 2.45268 0 1.12613-1.51437Z"/>
<path transform="matrix(1,0,0,-1,22.542,23.96)" stroke-width=".69739" stroke-linecap="butt" stroke-miterlimit="10" stroke-linejoin="miter" fill="none" stroke="#b9b9b9" d="M48.18947-28.3468C48.18947-35.77846 48.18947-39.97218 48.18947-43.5551"/>
<path transform="matrix(0,1,1,0,70.73147,65.23675)" d="M5.13399 0 1.12613 1.51437 2.45268 0 1.12613-1.51437Z" fill="#b9b9b9"/>
<path transform="matrix(0,1,1,0,70.73147,65.23675)" stroke-width=".69739" stroke-linecap="butt" stroke-miterlimit="10" stroke-linejoin="miter" fill="none" stroke="#b9b9b9" d="M5.13399 0 1.12613 1.51437 2.45268 0 1.12613-1.51437Z"/>
<path transform="matrix(1,0,0,-1,22.542,23.96)" stroke-width=".69739" stroke-linecap="butt" stroke-miterlimit="10" stroke-linejoin="miter" fill="none" stroke="#b9b9b9" d="M96.37897-28.3468C96.37897-48.63948 48.18947-27.11116 48.18947-43.5551"/>
<path transform="matrix(0,1,1,0,70.73147,65.23675)" d="M5.13399 0 1.12613 1.51437 2.45268 0 1.12613-1.51437Z" fill="#b9b9b9"/>
<path transform="matrix(0,1,1,0,70.73147,65.23675)" stroke-width=".69739" stroke-linecap="butt" stroke-miterlimit="10" stroke-linejoin="miter" fill="none" stroke="#b9b9b9" d="M5.13399 0 1.12613 1.51437 2.45268 0 1.12613-1.51437Z"/>
<path transform="matrix(1,0,0,-1,22.542,23.96)" d="M158.70774-46.77219H107.75208C105.55113-46.77219 103.76697-48.55635 103.76697-50.7573V-62.62993C103.76697-64.83087 105.55113-66.61504 107.75208-66.61504H158.70774C160.90868-66.61504 162.69284-64.83087 162.69284-62.62993V-50.7573C162.69284-48.55635 160.90868-46.77219 158.70774-46.77219ZM103.76697-66.61504" fill="#e0eeeb"/>
<path transform="matrix(1,0,0,-1,22.542,23.96)" stroke-width=".99628" stroke-linecap="butt" stroke-miterlimit="10" stroke-linejoin="miter" fill="none" stroke="#006e5a" d="M158.70774-46.77219H107.75208C105.55113-46.77219 103.76697-48.55635 103.76697-50.7573V-62.62993C103.76697-64.83087 105.55113-66.61504 107.75208-66.61504H158.70774C160.90868-66.61504 162.69284-64.83087 162.69284-62.62993V-50.7573C162.69284-48.55635 160.90868-46.77219 158.70774-46.77219ZM103.76697-66.61504"/>
<use data-text="p" xlink:href="#font_3_8" transform="matrix(8.9664,0,0,-8.9664,132.285,82.853)" fill="#006e5a"/>
<use data-text="r" xlink:href="#font_3_9" transform="matrix(8.9664,0,0,-8.9664,138.17594,82.853)" fill="#006e5a"/>
<use data-text="e" xlink:href="#font_3_4" transform="matrix(8.9664,0,0,-8.9664,142.55155,82.853)" fill="#006e5a"/>
<use data-text="d" xlink:href="#font_3_3" transform="matrix(8.9664,0,0,-8.9664,147.4203,82.853)" fill="#006e5a"/>
<use data-text="i" xlink:href="#font_3_12" transform="matrix(8.9664,0,0,-8.9664,153.31124,82.853)" fill="#006e5a"/>
<use data-text="c" xlink:href="#font_3_2" transform="matrix(8.9664,0,0,-8.9664,156.26119,82.853)" fill="#006e5a"/>
<use data-text="t" xlink:href="#font_3_10" transform="matrix(8.9664,0,0,-8.9664,160.97751,82.853)" fill="#006e5a"/>
<use data-text="i" xlink:href="#font_3_12" transform="matrix(8.9664,0,0,-8.9664,165.10205,82.853)" fill="#006e5a"/>
<use data-text="o" xlink:href="#font_3_7" transform="matrix(8.9664,0,0,-8.9664,168.052,82.853)" fill="#006e5a"/>
<use data-text="n" xlink:href="#font_3_6" transform="matrix(8.9664,0,0,-8.9664,173.3601,82.853)" fill="#006e5a"/>
<path transform="matrix(1,0,0,-1,22.542,23.96)" stroke-width="1.0959" stroke-linecap="butt" stroke-miterlimit="10" stroke-linejoin="miter" fill="none" stroke="#003e74" d="M72.03796-56.69362H98.37361"/>
<path transform="matrix(1,0,0,-1,117.890399,80.65362)" d="M6.35986 0 1.76953 1.73935 3.29916 0 1.76953-1.73935Z" fill="#003e74"/>
<path transform="matrix(1,0,0,-1,117.890399,80.65362)" stroke-width="1.0959" stroke-linecap="butt" stroke-miterlimit="10" stroke-linejoin="miter" fill="none" stroke="#003e74" d="M6.35986 0 1.76953 1.73935 3.29916 0 1.76953-1.73935Z"/>
</svg>
