<svg xmlns="http://www.w3.org/2000/svg" xmlns:xlink="http://www.w3.org/1999/xlink" xmlns:inkscape="http://www.inkscape.org/namespaces/inkscape" version="1.1" width="339.32" height="79.824" viewBox="0 0 339.32 79.824">
<defs>
<path id="font_1_6" d="M.57499697 .39517213C.57499697 .42118836 .5549927 .45619203 .5089874 .45619203 .45999146 .45619203 .41799928 .43218995 .39898683 .41818238 .35699464 .44319154 .31098939 .4501953 .2630005 .4501953 .10998535 .4501953 .057998659 .36715699 .057998659 .30212403 .057998659 .24708557 .09199524 .21107483 .10998535 .19606018 .08898926 .17304993 .07699585 .13902283 .07699585 .10900879 .07699585 .06599426 .09799194 .031967164 .11898804 .012954712 .042999269-.008056641 .032989503-.051071168 .032989503-.0730896 .032989503-.13311768 .101989749-.20114136 .29499818-.20114136 .46998597-.2010498 .55799868-.14604187 .55799868-.0700531 .55799868-.03504944 .54499819 .026947022 .47599793 .05895996 .41799928 .08496094 .36499024 .08496094 .2659912 .08496094H.21598816C.18399048 .08496094 .16999817 .08496094 .15299988 .09802246 .13798523 .111083988 .12998963 .12817383 .12998963 .14828491 .12998963 .1683197 .13798523 .17930603 .13798523 .17930603 .1749878 .16030884 .21899414 .15332031 .2630005 .15332031 .41600038 .15332031 .46798707 .23631287 .46798707 .3013153 .46798707 .34231568 .44898988 .37532044 .42799378 .39631654 .45498658 .41018678 .47499085 .41218568 .48799134 .41418458 .4869995 .41018678 .4850006 .40419007 .4850006 .39419557 .4850006 .36721803 .5059967 .3492279 .5299988 .3492279 .5519867 .3492279 .57499697 .36521913 .57499697 .39520265V.39517213M.35299684 .3022461C.35299684 .25727845 .35299684 .1933136 .2630005 .1933136 .17298889 .1933136 .17298889 .25727845 .17298889 .30125428 .17298889 .34622193 .17298889 .41018678 .2630005 .41018678 .35299684 .41018678 .35299684 .34622193 .35299684 .3022461M.46899415-.07408142C.46899415-.10610962 .43199159-.16113281 .29599-.16113281 .1639862-.16113281 .12199402-.1111145 .12199402-.07208252 .12199402-.014053345 .18598938-.014053345 .20098877-.014053345H.32199098C.35299684-.014007568 .46899415-.014007568 .46899415-.07400513V-.07408142Z"/>
<path id="font_1_5" d="M.5089874 .11605835C.5089874 .13604737 .4889984 .13604737 .48298646 .13604737 .46499635 .13604737 .46299745 .13005066 .45700074 .11605835 .43399049 .06410217 .37298585 .037139894 .30999757 .037139894 .16799927 .037139894 .1659851 .16601563 .1659851 .21496582H.47599793C.49699403 .21496582 .5089874 .21496582 .5089874 .2429657 .5089874 .26498414 .5069885 .35305787 .44198609 .4071045 .39698792 .4441223 .33699037 .453125 .28799439 .453125 .116989139 .453125 .032989503 .345047 .032989503 .22497559 .032989503 .09408569 .13198853-.005859375 .3019867-.005859375 .46699525-.005859375 .5089874 .1000824 .5089874 .11605835M.41099549 .25097657H.1659851C.16799927 .29701234 .17298889 .41311646 .28799439 .41311646 .40499879 .41311646 .40899659 .29100038 .41099549 .25097657Z"/>
<path id="font_1_8" d="M.6299896-.0002746582V.048721315H.56199648V.30471803C.56199648 .4237213 .48999024 .4497223 .40299989 .4497223 .27999879 .4497223 .23098755 .35972596 .22399903 .34472657H.22299195V.4497223L.049987794 .44172669V.39271546C.10998535 .39271546 .117996219 .39271546 .117996219 .353714V.048721315H.049987794V-.0002746582L.17599488 .0027160645 .30299378-.0002746582V.048721315H.23498535V.25372315C.23498535 .36572267 .32699586 .40971376 .3869934 .40971376 .4249878 .40971376 .44499208 .38871766 .44499208 .3137207V.048721315H.3769989V-.0002746582L.5029907 .0027160645 .6299896-.0002746582Z"/>
<path id="font_1_10" d="M.45498658 .36618043C.45498658 .41719056 .40299989 .4501953 .34399415 .4501953 .27398683 .4501953 .23098755 .39918519 .20899964 .34118653H.20799256V.4501953L.040985109 .4423828V.39337159C.100997928 .39337159 .10899353 .39337159 .10899353 .3543396V.04899597H.040985109V0L.16899109 .0029907227C.19400025 .0029907227 .2519989 .0029907227 .30499269 0V.04899597H.21998596V.21818543C.21998596 .29125978 .24699402 .40737916 .34399415 .41036988 .33299256 .39898683 .32798768 .38198854 .32798768 .3659973 .32798768 .32199098 .36299134 .3019867 .3909912 .3019867 .4229889 .3019867 .45498658 .32398988 .45498658 .3659973V.36618043Z"/>
<path id="font_1_1" d="M.56900027 .025131226C.56900027 .0491333 .5529938 .0491333 .54299929 .0491333 .47898866 .050125123 .47898866 .060134889 .47898866 .08413696V.29812623C.47898866 .38612367 .40699769 .453125 .25299073 .453125 .19599915 .453125 .067993167 .45111085 .067993167 .3591156 .067993167 .31411744 .101989749 .29312135 .1329956 .29312135 .16699219 .29312135 .19799805 .3171234 .19799805 .35812379 .19799805 .38711549 .18099976 .40411378 .17799378 .40711976 .18798828 .40911866 .21199036 .41311646 .24899292 .41311646 .32099916 .41311646 .3619995 .37712098 .3619995 .29812623V.26612855C.19599915 .26612855 .027999878 .22312927 .027999878 .11213684 .027999878 .013137817 .15299988-.005859375 .22499085-.005859375 .30099488-.005859375 .35299684 .027130127 .37998963 .0741272 .37998963 .04798889 .37998963 0 .4869995 0H.5359955C.5549927 0 .56900027 0 .56900027 .024993897V.025131226M.3619995 .13899231C.3619995 .033996583 .24598694 .033996583 .24198914 .033996583 .19099427 .033996583 .14898682 .066986087 .14898682 .11199951 .14898682 .14498902 .16699219 .22299195 .3619995 .23199463V.13899231Z"/>
<path id="font_1_12" d="M.3929901 .123184207V.1762085H.34199525V.12617493C.34199525 .055145265 .30599977 .037139894 .2809906 .037139894 .22299195 .037139894 .22299195 .09716797 .22299195 .1211853V.3953247H.37399293V.44433595H.22299195V.6357422H.17199707C.17098999 .5415344 .12399292 .43832398 .021987915 .43533326V.3953247H.10598755V.123184207C.10598755 .009140015 .20498657-.005859375 .2669983-.005859375 .34498597-.005859375 .3929901 .05014038 .3929901 .123184207Z"/>
<path id="font_1_14" d="M.2919922 0V.04899597H.23098755V.4501953L.054992677 .4423828V.39337159C.11299133 .39337159 .11999512 .39337159 .11999512 .3543396V.04899597H.051986696V0C.11898804 .0019989014 .13198853 .0029907227 .17399597 .0029907227 .22299195 .0029907227 .23599243 .0019989014 .2919922 0M.24198914 .6053314C.24198914 .65234377 .20399475 .68434146 .1639862 .68434146 .12199402 .68434146 .085998538 .6503296 .085998538 .6063385 .085998538 .55934146 .12399292 .52734377 .1639862 .52734377 .20599365 .52734377 .24198914 .56134036 .24198914 .6053314Z"/>
<path id="font_1_9" d="M.55799868 .21812439C.55799868 .3491211 .46598817 .453125 .29599 .453125 .11999512 .453125 .032989503 .3441162 .032989503 .21812439 .032989503 .09413147 .12298584-.005859375 .29499818-.005859375 .47399903-.005859375 .55799868 .09913635 .55799868 .21812439M.4249878 .22912598C.4249878 .14312744 .4249878 .037139894 .29599 .037139894 .1659851 .037139894 .1659851 .14213562 .1659851 .22912598 .1659851 .3131256 .1659851 .41311646 .29499818 .41311646 .4249878 .41311646 .4249878 .3131256 .4249878 .22912598Z"/>
<path id="font_1_4" d="M.61499026 0V.04899597C.5549927 .04899597 .5469971 .04899597 .5469971 .088012699V.69433596L.36799623 .6855469V.63653567C.42799378 .63653567 .43598939 .63653567 .43598939 .5976715V.40518189C.3919983 .43719483 .34498597 .4501953 .29699708 .4501953 .13398743 .4501953 .038986207 .35118104 .038986207 .22216797 .038986207 .089141849 .1329956-.005859375 .2849884-.005859375 .34799195-.005859375 .397995 .018127442 .42999269 .044128419V-.005859375L.61499026 0M.42999269 .10899353C.4079895 .074142459 .3600006 .03413391 .29599 .03413391 .17199707 .03413391 .17199707 .15414429 .17199707 .22015381 .17199707 .27816773 .17298889 .32118226 .19898987 .3581848 .22499085 .39819337 .272995 .41018678 .30799867 .41018678 .35798646 .41018678 .39898683 .3881836 .42999269 .34918214V.10899353Z"/>
<path id="font_1_11" d="M.4269867 .14027405C.4269867 .19128418 .397995 .22328186 .37998963 .23828125 .33499146 .27627564 .30299378 .28128053 .22399903 .294281 .17599488 .3022766 .11299133 .31228639 .11299133 .35728456 .11299133 .41711427 .20599365 .41711427 .22799683 .41711427 .33999635 .41711427 .34399415 .35827638 .34599305 .33128358 .34700013 .3173828 .36099244 .3173828 .37098695 .3173828 .3959961 .3173828 .39698792 .32237245 .39698792 .3463745V.42411805C.39698792 .4421234 .39698792 .453125 .3769989 .453125 .36698915 .453125 .35099793 .44511415 .33299256 .43511964 .30099488 .44911195 .2619934 .453125 .22898865 .453125 .19799805 .4532776 .038986207 .4532776 .038986207 .32128907 .038986207 .2162323 .16999817 .19421387 .20498657 .18821717 .2869873 .1742096 .35299684 .16320801 .35299684 .106170658 .35299684 .03413391 .25898744 .03413391 .23699951 .03413391 .18598938 .03413391 .12098694 .0471344 .09199524 .13919068 .08699036 .15620423 .085998538 .15919495 .06498718 .15919495 .038986207 .15919495 .038986207 .15319824 .038986207 .12918091V.023132325C.038986207 .005126953 .038986207-.005859375 .05899048-.005859375 .06599426-.005859375 .067993167-.005859375 .08999634 .008132935L.116989139 .025131226C.1639862-.005859375 .21699524-.005859375 .23699951-.005859375 .2669983-.005859375 .4269867-.005859375 .4269867 .1401825V.14027405Z"/>
<path id="font_1_2" d="M.61698916 .22207642C.61698916 .35716249 .519989 .4501953 .37199403 .4501953 .2919922 .4501953 .23899842 .41618348 .21998596 .4021759V.69433596L.040985109 .6863251V.6373291C.100997928 .6373291 .10899353 .6373291 .10899353 .5982971V0H.1599884L.20698548 .056991579C.23899842 .025131226 .28799439-.005859375 .35899354-.005859375 .5149994-.005859375 .61698916 .088134769 .61698916 .22216797V.22207642M.48399354 .22416687C.48399354 .18215943 .48399354 .13014221 .46299745 .09414673 .42999269 .038131715 .36898805 .03413391 .34899903 .03413391 .2869873 .03413391 .24699402 .072143558 .22599793 .104141239V.34617616C.25099183 .3781891 .29899598 .41018678 .3600006 .41018678 .48399354 .41018678 .48399354 .2901764 .48399354 .22416687Z"/>
<path id="font_1_13" d="M.6299896 0V.04899597C.56999209 .04899597 .56199648 .04899597 .56199648 .088012699V.4501953L.3769989 .4423828V.39337159C.43699647 .39337159 .44499208 .39337159 .44499208 .35437013V.16433716C.44499208 .08433533 .3929901 .03413391 .31599427 .03413391 .23899842 .03413391 .23498535 .056259157 .23498535 .10932922V.4501953L.049987794 .4423828V.39337159C.10998535 .39337159 .117996219 .39337159 .117996219 .35437013V.12333679C.117996219 .014129639 .20399475-.005859375 .30099488-.005859375 .33198548-.005859375 .3999939-.005859375 .45098878 .06933594V-.005859375L.6299896 0Z"/>
<path id="font_1_3" d="M.49198915 .11613464C.49198915 .13212586 .47698976 .13212586 .46598817 .13212586 .44599916 .13212586 .44599916 .13113404 .43798829 .11312866 .41799928 .06512451 .37298585 .037139894 .31399537 .037139894 .17199707 .037139894 .17199707 .18112183 .17199707 .22612 .17199707 .28611756 .17298889 .41011048 .3039856 .41011048 .31098939 .41011048 .36499024 .40911866 .36499024 .40411378L.3619995 .39912416C.35299684 .38812257 .34899903 .3721161 .34899903 .35812379 .34899903 .3171234 .37998963 .29312135 .4139862 .29312135 .44499208 .29312135 .47898866 .31411744 .47898866 .3591156 .47898866 .453125 .33898927 .453125 .2999878 .453125 .10798645 .453125 .038986207 .33111573 .038986207 .22212219 .038986207 .09613037 .1289978-.005859375 .29499818-.005859375 .33198548-.005859375 .3809967 .0001373291 .4229889 .026138306 .47999574 .06098938 .49198915 .11299133 .49198915 .115997318V.11613464Z"/>
<path id="font_1_7" d="M.95899966-.0002746582V.048721315H.8909912V.30471803C.8909912 .42271424 .81999209 .4497223 .7319946 .4497223 .6279907 .4497223 .57699587 .38671876 .55799868 .3557129 .5359955 .4457245 .44799806 .4497223 .4039917 .4497223 .27999879 .4497223 .23098755 .35972596 .22399903 .34472657H.22299195V.4497223L.049987794 .44172669V.39271546C.10998535 .39271546 .117996219 .39271546 .117996219 .353714V.048721315H.049987794V-.0002746582L.17599488 .0027160645 .30299378-.0002746582V.048721315H.23498535V.25372315C.23498535 .36471559 .32699586 .40971376 .3869934 .40971376 .4249878 .40971376 .44599916 .38972474 .44599916 .3137207V.048721315H.37799073V-.0002746582L.5039978 .0027160645 .6309967-.0002746582V.048721315H.5629883V.25372315C.5629883 .36471559 .6549988 .40971376 .71499636 .40971376 .7529907 .40971376 .7739868 .38972474 .7739868 .3137207V.048721315H.70599368V-.0002746582L.83200076 .0027160645 .95899966-.0002746582Z"/>
<path id="font_2_2" d="M.60398867 .63227847C.60398867 .678772 .5549927 .7037811 .5039978 .7037811 .45999146 .7037811 .41099549 .678772 .38398744 .62828066 .3639984 .5912781 .35598756 .54634097 .33499146 .43066407H.2559967C.23599243 .43066407 .22299195 .43066407 .22299195 .4086609 .22299195 .39465333 .23599243 .39465333 .2539978 .39465333H.32798768L.23999024-.078063968C.23498535-.10006714 .21798706-.17610169 .16999817-.17610169 .16999817-.17610169 .14498902-.17610169 .12599182-.1640625 .16699219-.15107727 .16999817-.11506653 .16999817-.109069827 .16999817-.08706665 .15299988-.07206726 .12998963-.07206726 .102996829-.07206726 .07299805-.095077518 .07299805-.1330719 .07299805-.17811585 .11999512-.20410156 .16999817-.20410156 .23399353-.20410156 .27799989-.13807678 .2899933-.11607361 .32598878-.049087526 .34899903 .07385254 .35099793 .08584595L.40699769 .39465333H.5049896C.5249939 .39465333 .5379944 .39465333 .5379944 .4166565 .5379944 .43066407 .5249939 .43066407 .5069885 .43066407H.4139862C.43699647 .557312 .44499208 .60328677 .45298768 .63227847 .45799256 .6542816 .47999574 .67578127 .5039978 .67578127 .5039978 .67578127 .5319977 .67578127 .5509949 .6632843 .5099945 .6502838 .5069885 .61428835 .5069885 .60827639 .5069885 .58628848 .5239868 .57128909 .5469971 .57128909 .57398989 .57128909 .60398867 .59428408 .60398867 .63227847Z"/>
<path id="font_3_2" d="M.96699526 .41685487C.96699526 .5779877 .83599856 .7050781 .6319885 .7050781 .35899354 .7050781 .11399841 .48091126 .11399841 .2627411 .11399841 .10160828 .24598694-.022460938 .44999696-.022460938 .71899417-.022460938 .96699526 .19367981 .96699526 .41685487M.85899356 .44589234C.85899356 .38583375 .83499148 .25872804 .74398806 .15164185 .6749878 .07157898 .5669861 .015533447 .45999146 .015533447 .35899354 .015533447 .22799683 .068573 .22799683 .24871826 .22799683 .47891236 .4079895 .66807559 .621994 .66807559 .7489929 .66807559 .85899356 .5970154 .85899356 .44589234Z"/>
<path id="font_2_1" d="M.23899842 .005996704C.23899842 .067993167 .21499634 .114990238 .16899109 .114990238 .13598633 .114990238 .11199951 .08898926 .11199951 .057998659 .11199951 .025985718 .1349945 0 .16999817 0 .19400025 0 .21099854 .015991211 .21099854 .015991211 .21099854-.039001466 .20098877-.103012088 .1329956-.16700745 .1289978-.17100525 .12599182-.17401123 .12599182-.17900086 .12599182-.18600464 .13398743-.19300843 .13999939-.19300843 .1539917-.19300843 .23899842-.11300659 .23899842 .005996704Z"/>
<path id="font_3_1" d="M1.0279999 .41175843C1.0279999 .5766449 .8959961 .6826172 .723999 .6826172H.31399537C.2939911 .6826172 .2789917 .6826172 .2789917 .65460208 .2789917 .637619 .29100038 .637619 .31599427 .637619 .32598878 .637619 .35899354 .637619 .37998963 .6316223 .37998963 .6196289 .37998963 .61763 .3769989 .6066284L.24598694 .082962039C.23799134 .052993776 .23699951 .04499817 .1599884 .04499817 .1349945 .04499817 .11898804 .04499817 .11898804 .016998291 .11898804 0 .1349945 0 .1519928 0H.55400088C.78900149 0 1.0279999 .18989563 1.0279999 .41175843M.9229889 .43774415C.9229889 .37478639 .8989868 .24786377 .82398989 .16390991 .7489929 .07997131 .6380005 .04499817 .5369873 .04499817H.37098695C.36299134 .04499817 .34899903 .04499817 .33898927 .04699707 .33999635 .055984498 .33999635 .0579834 .34199525 .064971927L.47698976 .6046295C.4850006 .6356201 .4850006 .637619 .5269928 .637619H.68499758C.7549896 .637619 .82199099 .6196289 .8639984 .5826416 .901001 .54867556 .9229889 .5076904 .9229889 .43774415Z"/>
<path id="font_3_4" d="M.47299195 .14405823C.47299195 .15803528 .45599366 .15803528 .45199586 .15803528 .43598939 .15803528 .43399049 .15403748 .42900086 .14105225 .3959961 .06916809 .33399964 .023254395 .28199769 .023254395 .25 .023254395 .23999024 .046218873 .23999024 .076156619 .23999024 .09213257 .24099732 .09513855 .24299622 .10411072L.31399537 .3856659H.43199159C.45298768 .3856659 .45399476 .3866577 .45899964 .39065553 .46398927 .39465333 .46699525 .4076538 .46699525 .4136505 .46699525 .43066407 .45199586 .43066407 .43499757 .43066407H.32499696L.34599305 .51379397C.35198976 .53982546 .3639984 .5848999 .3639984 .59091189 .3639984 .6079407 .35099793 .62597659 .32699586 .62597659 .30999757 .62597659 .28599549 .61494448 .27799989 .5879059 .272995 .5708771 .2849884 .61795046 .23799134 .43066407H.11898804C.09899902 .43066407 .083999637 .43066407 .083999637 .40264894 .083999637 .3856659 .09799194 .3856659 .115997318 .3856659H.22698975L.16799927 .15104676C.16299439 .1290741 .15499878 .09812927 .15499878 .08615112 .15499878 .02923584 .20799256-.0107421879 .27799989-.0107421879 .39898683-.0107421879 .47299195 .12408447 .47299195 .14405823Z"/>
<path id="font_4_2" d="M.78900149 .33580018C.78900149 .52568057 .6380005 .6826172 .45199586 .6826172H.057998659V.64660647H.08198547C.15899658 .64660647 .16099549 .63661196 .16099549 .6016388V.080963138C.16099549 .04698181 .15899658 .035995485 .08198547 .035995485H.057998659V0H.45199586C.6359863 0 .78900149 .1479187 .78900149 .33580018M.6859894 .33580018C.6859894 .21987915 .6569977 .15991211 .621994 .11793518 .57699587 .066970828 .5049896 .035995485 .4249878 .035995485H.2999878C.25299073 .035614015 .2519989 .04360962 .2519989 .07461548V.607605C.2519989 .63861086 .25299073 .64660647 .2999878 .64660647H.42399598C.5089874 .64660647 .58299258 .6116028 .6289978 .5526123 .66999819 .49861146 .6859894 .42260743 .6859894 .3356018V.33580018Z"/>
<path id="font_4_8" d="M.27398683 0V.035995485C.21598816 .035995485 .20599365 .035995485 .20599365 .07803345V.44140626L.05899048 .43052674V.39453126C.12199402 .39453126 .1309967 .3885193 .1309967 .33952333V.07952881C.1309967 .035995485 .12098694 .035995485 .055999757 .035995485V0C.055999757 0 .12799073 .0039978029 .16799927 .0039978029 .20298767 .0039978029 .23899842 .0029907227 .27398683 0M.21899414 .60214236C.21899414 .6341553 .19400025 .66015627 .1619873 .66015627 .12799073 .66015627 .10499573 .6321411 .10499573 .6031494 .10499573 .57115176 .12998963 .54515078 .1619873 .54515078 .19599915 .54515078 .21899414 .57315066 .21899414 .60214236Z"/>
<path id="font_4_9" d="M.24299622-.04585266V.44140626L.084991458 .43040467V.39439393C.15899658 .39439393 .16799927 .38739015 .16799927 .33836366V-.047851564C.16799927-.08605957 .1599884-.17610169 .09298706-.17610169 .08999634-.17610169 .06599426-.17610169 .042999269-.16609192 .04499817-.1651001 .067993167-.15309143 .067993167-.123046878 .067993167-.09605408 .04798889-.076049808 .020996094-.076049808-.008010864-.076049808-.027008057-.09605408-.027008057-.124053958-.027008057-.17811585 .032989503-.20410156 .09399414-.20410156 .1749878-.20401001 .24299622-.14100647 .24299622-.04600525V-.04585266M.24299622 .60214236C.24299622 .6341553 .21798706 .66015627 .18598938 .66015627 .1519928 .66015627 .1289978 .6321411 .1289978 .6031494 .1289978 .57115176 .1539917 .54515078 .18598938 .54515078 .21998596 .54515078 .24299622 .57315066 .24299622 .60214236Z"/>
<path id="font_4_3" d="M.57199099 0V.035995485C.5349884 .035995485 .5130005 .038986207 .48399354 .07395935L.32299806 .2707672C.44599916 .36567689 .47898866 .39265443 .5479889 .39465333V.43066407C.5269928 .4286499 .5009918 .426651 .47999574 .426651 .43998719 .426651 .3999939 .42765809 .3600006 .43066407V.39465333C.37298585 .39265443 .37799073 .3846588 .37799073 .37667848 .37799073 .36068727 .35899354 .34170533 .34700013 .3327179L.19898987 .2188263V.69433596L.04899597 .6826172V.64660647C.115997318 .64660647 .12399292 .6396179 .12399292 .59065249V.07896423C.12399292 .035995485 .11399841 .035995485 .04899597 .035995485V0C.085998538 .0029907227 .12298584 .0039978029 .1599884 .0039978029 .19699097 .0039978029 .23399353 .0029907227 .2709961 0V.035995485C.20599365 .035995485 .19599915 .035995485 .19599915 .07896423V.17390442L.2679901 .22987366 .3769989 .094955448C.3880005 .081970218 .3999939 .066970828 .3999939 .053985597 .3999939 .037994386 .38198854 .035995485 .37199403 .035995485V0C.3849945 .0009918213 .45599366 .0039978029 .4850006 .0039978029 .5139923 .0039978029 .54299929 .0019989014 .57199099 0Z"/>
<path id="font_4_6" d="M.40699769 .1315155C.40699769 .1694336 .3899994 .1993866 .3639984 .2233429 .32598878 .25827027 .27999879 .2662506 .24499512 .2722473 .16499329 .28622438 .099990848 .29818727 .099990848 .35113526 .099990848 .38320924 .1269989 .422287 .22200012 .422287 .33799745 .422287 .34298707 .34114076 .34498597 .3121643 .34599305 .30119325 .35798646 .30119325 .3619995 .30119325 .3789978 .30119325 .3789978 .30818177 .3789978 .32714845V.42027284C.3789978 .43728639 .3789978 .44628907 .36499024 .44628907 .3600006 .44628907 .35798646 .44628907 .34498597 .4342804 .34298707 .43328858 .33299256 .4242859 .32699586 .419281 .29699708 .4402771 .25898744 .44628907 .22200012 .44628907 .07899475 .44628907 .04499817 .3711853 .04499817 .32115174 .04499817 .2892151 .05899048 .2632599 .08299255 .24330139 .12098694 .21035767 .15899658 .20336914 .22099304 .1933899 .2709961 .18440247 .35198976 .17044068 .35198976 .103515628 .35198976 .06437683 .32499696 .018234253 .22898865 .018234253 .1329956 .018234253 .09799194 .08143616 .07998657 .1494751 .07699585 .16244507 .07598877 .16644287 .06199646 .16644287 .04499817 .16644287 .04499817 .15945435 .04499817 .13949585V.016220093C.04499817-.00077819827 .04499817-.009765625 .05899048-.009765625 .067993167-.009765625 .08699036 .011230469 .10699463 .03327942 .15098572-.0077667238 .20498657-.009765625 .22898865-.009765625 .35899354-.009765625 .40699769 .06036377 .40699769 .1315155Z"/>
<path id="font_4_7" d="M.375 .12606812V.1809845H.34098817V.12705994C.34098817 .059173585 .30899049 .022232056 .269989 .022232056 .20098877 .022232056 .20098877 .10609436 .20098877 .124069217V.39465333H.35699464V.43066407H.20098877V.6142578H.16699219C.1659851 .5244446 .125 .42565919 .0289917 .4226532V.39465333H.12199402V.1250763C.12199402 .01322937 .20599365-.009765625 .2619934-.009765625 .32899476-.010009766 .375 .04699707 .375 .12599182V.12606812Z"/>
<path id="font_4_5" d="M.40699769 .37739564C.40699769 .4113922 .375 .44140626 .32798768 .44140626 .27799989 .44140626 .22299195 .4104004 .19299317 .33439637H.19198609V.44140626L.04899597 .43052674V.39453126C.115997318 .39453126 .12399292 .3875122 .12399292 .33843995V.079055789C.12399292 .035995485 .11399841 .035995485 .04899597 .035995485V0C.053985597 0 .12199402 .0039978029 .16299439 .0039978029L.29299928 0V.035995485H.272995C.19898987 .036071779 .19898987 .047073366 .19898987 .081085208V.22807312C.19898987 .31207276 .23799134 .41308595 .33299256 .41308595 .32398988 .40608216 .31599427 .39308167 .31599427 .3770752 .31599427 .3440857 .34199525 .3310852 .36099244 .3310852 .3849945 .3310852 .40699769 .34707643 .40699769 .3770752V.37739564Z"/>
<path id="font_4_1" d="M.5439911 .09013367V.14515686H.5099945V.09114075C.5099945 .08113098 .5099945 .033111574 .47299195 .033111574 .43598939 .033111574 .43598939 .0801239 .43598939 .09313965V.268219C.43598939 .3212433 .43598939 .35925294 .3899994 .39627076 .34899903 .4302826 .30099488 .44628907 .24198914 .44628907 .14698792 .44628907 .07998657 .41027833 .07998657 .34925843 .07998657 .31723023 .101989749 .30023194 .12799073 .30023194 .15499878 .30023194 .1749878 .3202362 .1749878 .34724427 .1749878 .3642578 .16699219 .38526917 .13999939 .39326478 .17599488 .41827394 .23399353 .41827394 .23999024 .41827394 .29599 .41827394 .35699464 .38127137 .35699464 .29722596V.2662201C.3019867 .26420594 .23599243 .2612152 .16299439 .23420716 .07299805 .20118714 .04499817 .14616394 .04499817 .101135257 .04499817 .0152282719 .14898682-.009765625 .21998596-.009765625 .2999878-.009765625 .34700013 .035232545 .36799623 .07423401 .37199403 .033111574 .39898683-.0048828127 .44499208-.0048828127 .44499208-.0048828127 .5439911-.0048828127 .5439911 .09010315V.09013367M.35699464 .14111328C.35699464 .04522705 .272995 .018234253 .22799683 .018234253 .1769867 .018234253 .1289978 .052230836 .1289978 .10122681 .1289978 .15621948 .1769867 .23323059 .35699464 .24023438V.14111328Z"/>
<path id="font_4_4" d="M.80599978 .25038148C.80599978 .27539063 .7829895 .27539063 .7689972 .27539063H.46299745V.5821533C.46299745 .5951538 .46299745 .6191406 .43899537 .6191406 .4139862 .6191406 .4139862 .59614565 .4139862 .5821533V.27539063H.10699463C.09399414 .27539063 .069992069 .27539063 .069992069 .25138856 .069992069 .2263794 .09298706 .2263794 .10699463 .2263794H.4139862V-.08111572C.4139862-.09413147 .4139862-.11816406 .43798829-.11816406 .46299745-.11816406 .46299745-.09513855 .46299745-.08111572V.2263794H.7689972C.7819977 .2263794 .80599978 .2263794 .80599978 .25038148Z"/>
<path id="font_3_3" d="M.73098757 .21769715C.73098757 .29075624 .6769867 .35281373 .59498599 .372818L.46398927 .3998413C.394989 .41485597 .37799073 .41786195 .34799195 .44088746 .32798768 .45689393 .31498719 .47991944 .31498719 .50694277 .31498719 .5850067 .41600038 .6630707 .5389862 .6630707 .6279907 .6630707 .723999 .6310425 .723999 .50593569 .723999 .4899292 .7220001 .47590638 .7220001 .46990968 .7220001 .4559021 .7369995 .4559021 .74198916 .4559021 .7599945 .4559021 .7599945 .457901 .7649994 .47691346L.81799319 .69107058C.81799319 .69107058 .81799319 .7050781 .8019867 .7050781 .7939911 .7050781 .79299929 .70407107 .7809906 .69107058 .7689972 .67907717 .73999026 .6460571 .7279968 .6330414 .7029877 .6650696 .647995 .7050781 .5419922 .7050781 .3849945 .7050781 .25 .5960083 .25 .48391725 .25 .41186524 .30499269 .3598175 .3809967 .3387909L.49699403 .31477357C.58299258 .2967682 .6009979 .29275514 .6279907 .2707367 .6519928 .25172425 .66600039 .22570801 .66600039 .19467163 .66600039 .114608768 .56999209 .022537232 .43499757 .022537232 .3619995 .022537232 .21299744 .03755188 .21299744 .16064453 .21299744 .1746521 .21499634 .18966675 .21798706 .20368958 .21899414 .20768738 .21998596 .20869446 .21998596 .21168518 .21998596 .22669983 .20599365 .22669983 .19898987 .22669983 .18598938 .22669983 .18099976 .22570801 .17599488 .2066803L.1269989 .007537842 .12298584-.008468628C.12298584-.008468628 .12399292-.022460938 .13999939-.022460938 .1459961-.022460938 .14698792-.021469117 .16099549-.008468628L.21199036 .046554567C.2689972-.008468628 .35598756-.022460938 .43199159-.022460938 .598999-.022460938 .73098757 .1006012 .73098757 .21769715Z"/>
</defs>
<path transform="matrix(1,0,0,-1,45.527,24.766999)" d="M31.51318 16.29933H-31.51318C-33.16388 16.29933-34.50201 14.9612-34.50201 13.3105V-13.3105C-34.50201-14.9612-33.16388-16.29933-31.51318-16.29933H31.51318C33.16388-16.29933 34.50201-14.9612 34.50201-13.3105V13.3105C34.50201 14.9612 33.16388 16.29933 31.51318 16.29933ZM-34.50201-16.29933" fill="#e6ecf1"/>
<path transform="matrix(1,0,0,-1,45.527,24.766999)" stroke-width=".99628" stroke-linecap="butt" stroke-miterlimit="10" stroke-linejoin="miter" fill="none" stroke="#003e74" d="M31.51318 16.29933H-31.51318C-33.16388 16.29933-34.50201 14.9612-34.50201 13.3105V-13.3105C-34.50201-14.9612-33.16388-16.29933-31.51318-16.29933H31.51318C33.16388-16.29933 34.50201-14.9612 34.50201-13.3105V13.3105C34.50201 14.9612 33.16388 16.29933 31.51318 16.29933ZM-34.50201-16.29933"/>
<use data-text="g" xlink:href="#font_1_6" transform="matrix(8.9664,0,0,-8.9664,21.155003,26.967)" fill="#003e74"/>
<use data-text="e" xlink:href="#font_1_5" transform="matrix(8.9664,0,0,-8.9664,26.463112,26.967)" fill="#003e74"/>
<use data-text="n" xlink:href="#font_1_8" transform="matrix(8.9664,0,0,-8.9664,31.331868,26.967)" fill="#003e74"/>
<use data-text="e" xlink:href="#font_1_5" transform="matrix(8.9664,0,0,-8.9664,37.22279,26.967)" fill="#003e74"/>
<use data-text="r" xlink:href="#font_1_10" transform="matrix(8.9664,0,0,-8.9664,42.091547,26.967)" fill="#003e74"/>
<use data-text="a" xlink:href="#font_1_1" transform="matrix(8.9664,0,0,-8.9664,46.467149,26.967)" fill="#003e74"/>
<use data-text="t" xlink:href="#font_1_12" transform="matrix(8.9664,0,0,-8.9664,51.62283,26.967)" fill="#003e74"/>
<use data-text="i" xlink:href="#font_1_14" transform="matrix(8.9664,0,0,-8.9664,55.747377,26.967)" fill="#003e74"/>
<use data-text="o" xlink:href="#font_1_9" transform="matrix(8.9664,0,0,-8.9664,58.697324,26.967)" fill="#003e74"/>
<use data-text="n" xlink:href="#font_1_8" transform="matrix(8.9664,0,0,-8.9664,64.00543,26.967)" fill="#003e74"/>
<path transform="matrix(1,0,0,-1,45.527,24.766999)" d="M114.26947 16.29933H51.24309C49.59239 16.29933 48.25426 14.9612 48.25426 13.3105V-13.3105C48.25426-14.9612 49.59239-16.29933 51.24309-16.29933H114.26947C115.92017-16.29933 117.2583-14.9612 117.2583-13.3105V13.3105C117.2583 14.9612 115.92017 16.29933 114.26947 16.29933ZM48.25426-16.29933" fill="#e6ecf1"/>
<path transform="matrix(1,0,0,-1,45.527,24.766999)" stroke-width=".99628" stroke-linecap="butt" stroke-miterlimit="10" stroke-linejoin="miter" fill="none" stroke="#003e74" d="M114.26947 16.29933H51.24309C49.59239 16.29933 48.25426 14.9612 48.25426 13.3105V-13.3105C48.25426-14.9612 49.59239-16.29933 51.24309-16.29933H114.26947C115.92017-16.29933 117.2583-14.9612 117.2583-13.3105V13.3105C117.2583 14.9612 115.92017 16.29933 114.26947 16.29933ZM48.25426-16.29933"/>
<use data-text="d" xlink:href="#font_1_4" transform="matrix(8.9664,0,0,-8.9664,101.013,27.838997)" fill="#003e74"/>
<use data-text="i" xlink:href="#font_1_14" transform="matrix(8.9664,0,0,-8.9664,106.90392,27.838997)" fill="#003e74"/>
<use data-text="s" xlink:href="#font_1_11" transform="matrix(8.9664,0,0,-8.9664,109.85387,27.838997)" fill="#003e74"/>
<use data-text="t" xlink:href="#font_1_12" transform="matrix(8.9664,0,0,-8.9664,114.041179,27.838997)" fill="#003e74"/>
<use data-text="r" xlink:href="#font_1_10" transform="matrix(8.9664,0,0,-8.9664,118.16572,27.838997)" fill="#003e74"/>
<use data-text="i" xlink:href="#font_1_14" transform="matrix(8.9664,0,0,-8.9664,122.54132,27.838997)" fill="#003e74"/>
<use data-text="b" xlink:href="#font_1_2" transform="matrix(8.9664,0,0,-8.9664,125.491268,27.838997)" fill="#003e74"/>
<use data-text="u" xlink:href="#font_1_13" transform="matrix(8.9664,0,0,-8.9664,131.38219,27.838997)" fill="#003e74"/>
<use data-text="t" xlink:href="#font_1_12" transform="matrix(8.9664,0,0,-8.9664,137.27312,27.838997)" fill="#003e74"/>
<use data-text="i" xlink:href="#font_1_14" transform="matrix(8.9664,0,0,-8.9664,141.39766,27.838997)" fill="#003e74"/>
<use data-text="o" xlink:href="#font_1_9" transform="matrix(8.9664,0,0,-8.9664,144.34761,27.838997)" fill="#003e74"/>
<use data-text="n" xlink:href="#font_1_8" transform="matrix(8.9664,0,0,-8.9664,149.65572,27.838997)" fill="#003e74"/>
<path transform="matrix(1,0,0,-1,45.527,24.766999)" d="M197.02576 16.29933H133.99938C132.34868 16.29933 131.01055 14.9612 131.01055 13.3105V-13.3105C131.01055-14.9612 132.34868-16.29933 133.99938-16.29933H197.02576C198.67646-16.29933 200.01459-14.9612 200.01459-13.3105V13.3105C200.01459 14.9612 198.67646 16.29933 197.02576 16.29933ZM131.01055-16.29933" fill="#e6ecf1"/>
<path transform="matrix(1,0,0,-1,45.527,24.766999)" stroke-width=".99628" stroke-linecap="butt" stroke-miterlimit="10" stroke-linejoin="miter" fill="none" stroke="#003e74" d="M197.02576 16.29933H133.99938C132.34868 16.29933 131.01055 14.9612 131.01055 13.3105V-13.3105C131.01055-14.9612 132.34868-16.29933 133.99938-16.29933H197.02576C198.67646-16.29933 200.01459-14.9612 200.01459-13.3105V13.3105C200.01459 14.9612 198.67646 16.29933 197.02576 16.29933ZM131.01055-16.29933"/>
<use data-text="d" xlink:href="#font_1_4" transform="matrix(8.9664,0,0,-8.9664,186.608,27.838997)" fill="#003e74"/>
<use data-text="e" xlink:href="#font_1_5" transform="matrix(8.9664,0,0,-8.9664,192.49893,27.838997)" fill="#003e74"/>
<use data-text="t" xlink:href="#font_1_12" transform="matrix(8.9664,0,0,-8.9664,197.36769,27.838997)" fill="#003e74"/>
<use data-text="e" xlink:href="#font_1_5" transform="matrix(8.9664,0,0,-8.9664,201.49224,27.838997)" fill="#003e74"/>
<use data-text="r" xlink:href="#font_1_10" transform="matrix(8.9664,0,0,-8.9664,206.361,27.838997)" fill="#003e74"/>
<use data-text="r" xlink:href="#font_1_10" transform="matrix(8.9664,0,0,-8.9664,210.7366,27.838997)" fill="#003e74"/>
<use data-text="e" xlink:href="#font_1_5" transform="matrix(8.9664,0,0,-8.9664,215.11222,27.838997)" fill="#003e74"/>
<use data-text="n" xlink:href="#font_1_8" transform="matrix(8.9664,0,0,-8.9664,219.98097,27.838997)" fill="#003e74"/>
<use data-text="c" xlink:href="#font_1_3" transform="matrix(8.9664,0,0,-8.9664,225.8719,27.838997)" fill="#003e74"/>
<use data-text="e" xlink:href="#font_1_5" transform="matrix(8.9664,0,0,-8.9664,230.58823,27.838997)" fill="#003e74"/>
<path transform="matrix(1,0,0,-1,45.527,24.766999)" d="M279.78205 16.29933H216.75566C215.10497 16.29933 213.76683 14.9612 213.76683 13.3105V-13.3105C213.76683-14.9612 215.10497-16.29933 216.75566-16.29933H279.78205C281.43275-16.29933 282.77088-14.9612 282.77088-13.3105V13.3105C282.77088 14.9612 281.43275 16.29933 279.78205 16.29933ZM213.76683-16.29933" fill="#e6ecf1"/>
<path transform="matrix(1,0,0,-1,45.527,24.766999)" stroke-width=".99628" stroke-linecap="butt" stroke-miterlimit="10" stroke-linejoin="miter" fill="none" stroke="#003e74" d="M279.78205 16.29933H216.75566C215.10497 16.29933 213.76683 14.9612 213.76683 13.3105V-13.3105C213.76683-14.9612 215.10497-16.29933 216.75566-16.29933H279.78205C281.43275-16.29933 282.77088-14.9612 282.77088-13.3105V13.3105C282.77088 14.9612 281.43275 16.29933 279.78205 16.29933ZM213.76683-16.29933"/>
<use data-text="a" xlink:href="#font_1_1" transform="matrix(8.9664,0,0,-8.9664,268.238,26.967)" fill="#003e74"/>
<use data-text="s" xlink:href="#font_1_11" transform="matrix(8.9664,0,0,-8.9664,273.39369,26.967)" fill="#003e74"/>
<use data-text="s" xlink:href="#font_1_11" transform="matrix(8.9664,0,0,-8.9664,277.581,26.967)" fill="#003e74"/>
<use data-text="i" xlink:href="#font_1_14" transform="matrix(8.9664,0,0,-8.9664,281.7683,26.967)" fill="#003e74"/>
<use data-text="g" xlink:href="#font_1_6" transform="matrix(8.9664,0,0,-8.9664,284.71827,26.967)" fill="#003e74"/>
<use data-text="n" xlink:href="#font_1_8" transform="matrix(8.9664,0,0,-8.9664,290.02638,26.967)" fill="#003e74"/>
<use data-text="m" xlink:href="#font_1_7" transform="matrix(8.9664,0,0,-8.9664,295.9173,26.967)" fill="#003e74"/>
<use data-text="e" xlink:href="#font_1_5" transform="matrix(8.9664,0,0,-8.9664,304.75819,26.967)" fill="#003e74"/>
<use data-text="n" xlink:href="#font_1_8" transform="matrix(8.9664,0,0,-8.9664,309.62693,26.967)" fill="#003e74"/>
<use data-text="t" xlink:href="#font_1_12" transform="matrix(8.9664,0,0,-8.9664,315.22196,26.967)" fill="#003e74"/>
<path transform="matrix(1,0,0,-1,45.527,24.766999)" stroke-width=".99628" stroke-linecap="butt" stroke-miterlimit="10" stroke-linejoin="miter" fill="none" stroke="#003e74" d="M35.00015 0H43.19133"/>
<path transform="matrix(1,0,0,-1,85.912967,24.766999)" d="M5.95149 0 1.60866 1.6449 3.05444 0 1.60866-1.6449Z" fill="#003e74"/>
<path transform="matrix(1,0,0,-1,85.912967,24.766999)" stroke-width=".99628" stroke-linecap="butt" stroke-miterlimit="10" stroke-linejoin="miter" fill="none" stroke="#003e74" d="M5.95149 0 1.60866 1.6449 3.05444 0 1.60866-1.6449Z"/>
<path transform="matrix(1,0,0,-1,45.527,24.766999)" stroke-width=".99628" stroke-linecap="butt" stroke-miterlimit="10" stroke-linejoin="miter" fill="none" stroke="#003e74" d="M117.75644 0H125.94762"/>
<path transform="matrix(1,0,0,-1,168.66925,24.766999)" d="M5.95149 0 1.60866 1.6449 3.05444 0 1.60866-1.6449Z" fill="#003e74"/>
<path transform="matrix(1,0,0,-1,168.66925,24.766999)" stroke-width=".99628" stroke-linecap="butt" stroke-miterlimit="10" stroke-linejoin="miter" fill="none" stroke="#003e74" d="M5.95149 0 1.60866 1.6449 3.05444 0 1.60866-1.6449Z"/>
<path transform="matrix(1,0,0,-1,45.527,24.766999)" stroke-width=".99628" stroke-linecap="butt" stroke-miterlimit="10" stroke-linejoin="miter" fill="none" stroke="#003e74" d="M200.51273 0H208.7039"/>
<path transform="matrix(1,0,0,-1,251.42554,24.766999)" d="M5.95149 0 1.60866 1.6449 3.05444 0 1.60866-1.6449Z" fill="#003e74"/>
<path transform="matrix(1,0,0,-1,251.42554,24.766999)" stroke-width=".99628" stroke-linecap="butt" stroke-miterlimit="10" stroke-linejoin="miter" fill="none" stroke="#003e74" d="M5.95149 0 1.60866 1.6449 3.05444 0 1.60866-1.6449Z"/>
<path transform="matrix(1,0,0,-1,45.527,24.766999)" d="M33.174-28.53452H-33.174C-35.37494-28.53452-37.1591-30.31868-37.1591-32.51962V-42.70377C-37.1591-44.90471-35.37494-46.68887-33.174-46.68887H33.174C35.37494-46.68887 37.1591-44.90471 37.1591-42.70377V-32.51962C37.1591-30.31868 35.37494-28.53452 33.174-28.53452ZM-37.1591-46.68887" fill="#ebf3f2"/>
<path transform="matrix(1,0,0,-1,45.527,24.766999)" stroke-width=".79701" stroke-linecap="butt" stroke-miterlimit="10" stroke-linejoin="miter" fill="none" stroke="#006e5a" d="M33.174-28.53452H-33.174C-35.37494-28.53452-37.1591-30.31868-37.1591-32.51962V-42.70377C-37.1591-44.90471-35.37494-46.68887-33.174-46.68887H33.174C35.37494-46.68887 37.1591-44.90471 37.1591-42.70377V-32.51962C37.1591-30.31868 35.37494-28.53452 33.174-28.53452ZM-37.1591-46.68887"/>
<use data-text="f" xlink:href="#font_2_2" transform="matrix(6.9738,0,0,-6.9738,33.735,64.121997)"/>
<use data-text="O" xlink:href="#font_3_2" transform="matrix(4.9813,0,0,-4.9813,37.619,65.12399)"/>
<use data-text="," xlink:href="#font_2_1" transform="matrix(6.9738,0,0,-6.9738,43.509,64.121997)"/>
<use data-text="f" xlink:href="#font_2_2" transform="matrix(6.9738,0,0,-6.9738,47.233007,64.121997)"/>
<use data-text="D" xlink:href="#font_3_1" transform="matrix(4.9813,0,0,-4.9813,51.12,65.12399)"/>
<path transform="matrix(1,0,0,-1,45.527,24.766999)" d="M115.93028-28.53452H49.58228C47.38133-28.53452 45.59717-30.31868 45.59717-32.51962V-42.70377C45.59717-44.90471 47.38133-46.68887 49.58228-46.68887H115.93028C118.13123-46.68887 119.91539-44.90471 119.91539-42.70377V-32.51962C119.91539-30.31868 118.13123-28.53452 115.93028-28.53452ZM45.59717-46.68887" fill="#ebf3f2"/>
<path transform="matrix(1,0,0,-1,45.527,24.766999)" stroke-width=".79701" stroke-linecap="butt" stroke-miterlimit="10" stroke-linejoin="miter" fill="none" stroke="#006e5a" d="M115.93028-28.53452H49.58228C47.38133-28.53452 45.59717-30.31868 45.59717-32.51962V-42.70377C45.59717-44.90471 47.38133-46.68887 49.58228-46.68887H115.93028C118.13123-46.68887 119.91539-44.90471 119.91539-42.70377V-32.51962C119.91539-30.31868 118.13123-28.53452 115.93028-28.53452ZM45.59717-46.68887"/>
<use data-text="f" xlink:href="#font_2_2" transform="matrix(6.9738,0,0,-6.9738,120.545,64.121997)"/>
<use data-text="O" xlink:href="#font_3_2" transform="matrix(4.9813,0,0,-4.9813,124.429,65.12399)"/>
<use data-text="D" xlink:href="#font_3_1" transform="matrix(4.9813,0,0,-4.9813,129.82375,65.12399)"/>
<path transform="matrix(1,0,0,-1,45.527,24.766999)" d="M198.68657-28.53452H132.33856C130.13762-28.53452 128.35346-30.31868 128.35346-32.51962V-42.70377C128.35346-44.90471 130.13762-46.68887 132.33856-46.68887H198.68657C200.88751-46.68887 202.67168-44.90471 202.67168-42.70377V-32.51962C202.67168-30.31868 200.88751-28.53452 198.68657-28.53452ZM128.35346-46.68887" fill="#ebf3f2"/>
<path transform="matrix(1,0,0,-1,45.527,24.766999)" stroke-width=".79701" stroke-linecap="butt" stroke-miterlimit="10" stroke-linejoin="miter" fill="none" stroke="#006e5a" d="M198.68657-28.53452H132.33856C130.13762-28.53452 128.35346-30.31868 128.35346-32.51962V-42.70377C128.35346-44.90471 130.13762-46.68887 132.33856-46.68887H198.68657C200.88751-46.68887 202.67168-44.90471 202.67168-42.70377V-32.51962C202.67168-30.31868 200.88751-28.53452 198.68657-28.53452ZM128.35346-46.68887"/>
<use data-text="f" xlink:href="#font_2_2" transform="matrix(6.9738,0,0,-6.9738,207.442,64.121997)"/>
<use data-text="t" xlink:href="#font_3_4" transform="matrix(4.9813,0,0,-4.9813,211.327,65.11799)"/>
<path transform="matrix(1,0,0,-1,45.527,24.766999)" d="M281.44288-28.53452H215.09485C212.8939-28.53452 211.10974-30.31868 211.10974-32.51962V-42.70377C211.10974-44.90471 212.8939-46.68887 215.09485-46.68887H281.44288C283.6438-46.68887 285.42796-44.90471 285.42796-42.70377V-32.51962C285.42796-30.31868 283.6438-28.53452 281.44288-28.53452ZM211.10974-46.68887" fill="#ebf3f2"/>
<path transform="matrix(1,0,0,-1,45.527,24.766999)" stroke-width=".79701" stroke-linecap="butt" stroke-miterlimit="10" stroke-linejoin="miter" fill="none" stroke="#006e5a" d="M281.44288-28.53452H215.09485C212.8939-28.53452 211.10974-30.31868 211.10974-32.51962V-42.70377C211.10974-44.90471 212.8939-46.68887 215.09485-46.68887H281.44288C283.6438-46.68887 285.42796-44.90471 285.42796-42.70377V-32.51962C285.42796-30.31868 283.6438-28.53452 281.44288-28.53452ZM211.10974-46.68887"/>
<use data-text="D" xlink:href="#font_4_2" transform="matrix(6.9738,0,0,-6.9738,270.829,64.121997)"/>
<use data-text="i" xlink:href="#font_4_8" transform="matrix(6.9738,0,0,-6.9738,276.82649,64.121997)"/>
<use data-text="j" xlink:href="#font_4_9" transform="matrix(6.9738,0,0,-6.9738,279.079,64.121997)"/>
<use data-text="k" xlink:href="#font_4_3" transform="matrix(6.9738,0,0,-6.9738,281.54774,64.121997)"/>
<use data-text="s" xlink:href="#font_4_6" transform="matrix(6.9738,0,0,-6.9738,285.732,64.121997)"/>
<use data-text="t" xlink:href="#font_4_7" transform="matrix(6.9738,0,0,-6.9738,288.8911,64.121997)"/>
<use data-text="r" xlink:href="#font_4_5" transform="matrix(6.9738,0,0,-6.9738,292.00144,64.121997)"/>
<use data-text="a" xlink:href="#font_4_1" transform="matrix(6.9738,0,0,-6.9738,295.11177,64.121997)"/>
<use data-text="+" xlink:href="#font_4_4" transform="matrix(6.9738,0,0,-6.9738,301.7299,64.121997)"/>
<use data-text="f" xlink:href="#font_2_2" transform="matrix(6.9738,0,0,-6.9738,307.84593,64.121997)"/>
<use data-text="S" xlink:href="#font_3_3" transform="matrix(4.9813,0,0,-4.9813,311.741,65.12399)"/>
</svg>
