<svg xmlns="http://www.w3.org/2000/svg" xmlns:xlink="http://www.w3.org/1999/xlink" xmlns:inkscape="http://www.inkscape.org/namespaces/inkscape" version="1.1" width="61.992" height="50.653" viewBox="0 0 61.992 50.653">
<path transform="matrix(1,0,0,-1,13.988,43.468)" d="M5.66934 22.67752C5.66934 25.80864 3.13112 28.34686 0 28.34686-3.13112 28.34686-5.66934 25.80864-5.66934 22.67752-5.66934 19.54639-3.13112 17.00816 0 17.00816 3.13112 17.00816 5.66934 19.54639 5.66934 22.67752ZM0 22.67752" fill="#dae6f0"/>
<path transform="matrix(1,0,0,-1,13.988,43.468)" stroke-width=".69739" stroke-linecap="butt" stroke-miterlimit="10" stroke-linejoin="miter" fill="none" stroke="#555555" d="M5.66934 22.67752C5.66934 25.80864 3.13112 28.34686 0 28.34686-3.13112 28.34686-5.66934 25.80864-5.66934 22.67752-5.66934 19.54639-3.13112 17.00816 0 17.00816 3.13112 17.00816 5.66934 19.54639 5.66934 22.67752ZM0 22.67752"/>
<path transform="matrix(1,0,0,-1,13.988,43.468)" d="M28.34686 29.48083C28.34686 32.61195 25.80864 35.15019 22.67752 35.15019 19.54639 35.15019 17.00816 32.61195 17.00816 29.48083 17.00816 26.34972 19.54639 23.8115 22.67752 23.8115 25.80864 23.8115 28.34686 26.34972 28.34686 29.48083ZM22.67752 29.48083" fill="#dae6f0"/>
<path transform="matrix(1,0,0,-1,13.988,43.468)" stroke-width=".69739" stroke-linecap="butt" stroke-miterlimit="10" stroke-linejoin="miter" fill="none" stroke="#555555" d="M28.34686 29.48083C28.34686 32.61195 25.80864 35.15019 22.67752 35.15019 19.54639 35.15019 17.00816 32.61195 17.00816 29.48083 17.00816 26.34972 19.54639 23.8115 22.67752 23.8115 25.80864 23.8115 28.34686 26.34972 28.34686 29.48083ZM22.67752 29.48083"/>
<path transform="matrix(1,0,0,-1,13.988,43.468)" d="M19.27599 6.8033C19.27599 9.93442 16.73775 12.47266 13.60663 12.47266 10.47551 12.47266 7.93729 9.93442 7.93729 6.8033 7.93729 3.67218 10.47551 1.13396 13.60663 1.13396 16.73775 1.13396 19.27599 3.67218 19.27599 6.8033ZM13.60663 6.8033" fill="#dae6f0"/>
<path transform="matrix(1,0,0,-1,13.988,43.468)" stroke-width=".69739" stroke-linecap="butt" stroke-miterlimit="10" stroke-linejoin="miter" fill="none" stroke="#555555" d="M19.27599 6.8033C19.27599 9.93442 16.73775 12.47266 13.60663 12.47266 10.47551 12.47266 7.93729 9.93442 7.93729 6.8033 7.93729 3.67218 10.47551 1.13396 13.60663 1.13396 16.73775 1.13396 19.27599 3.67218 19.27599 6.8033ZM13.60663 6.8033"/>
<path transform="matrix(1,0,0,-1,13.988,43.468)" d="M39.68562 11.33876C39.68562 14.46988 37.1474 17.0081 34.01628 17.0081 30.88515 17.0081 28.34692 14.46988 28.34692 11.33876 28.34692 8.20763 30.88515 5.6694 34.01628 5.6694 37.1474 5.6694 39.68562 8.20763 39.68562 11.33876ZM34.01628 11.33876" fill="#dae6f0"/>
<path transform="matrix(1,0,0,-1,13.988,43.468)" stroke-width=".69739" stroke-linecap="butt" stroke-miterlimit="10" stroke-linejoin="miter" fill="none" stroke="#555555" d="M39.68562 11.33876C39.68562 14.46988 37.1474 17.0081 34.01628 17.0081 30.88515 17.0081 28.34692 14.46988 28.34692 11.33876 28.34692 8.20763 30.88515 5.6694 34.01628 5.6694 37.1474 5.6694 39.68562 8.20763 39.68562 11.33876ZM34.01628 11.33876"/>
<path transform="matrix(1,0,0,-1,13.988,43.468)" stroke-width=".79701" stroke-linecap="butt" stroke-miterlimit="10" stroke-linejoin="miter" fill="none" stroke="#003e74" d="M5.76404 24.40845 16.91437 27.75343M25.86905 24.37932 30.8288 16.44312M28.14334 10.03403 19.48195 8.10913M9.69113 11.37305 3.91663 18.10965"/>
</svg>
