<svg xmlns="http://www.w3.org/2000/svg" xmlns:xlink="http://www.w3.org/1999/xlink" xmlns:inkscape="http://www.inkscape.org/namespaces/inkscape" version="1.1" width="175.347" height="121.226" viewBox="0 0 175.347 121.226">
<defs>
<path id="font_1_1" d="M.55999758 .14305115C.55999758 .15608216 .5469971 .15608216 .5439911 .15608216 .5299988 .15608216 .5289917 .15107727 .5249939 .13905335 .5039978 .07002258 .44400025 .018234253 .3880005 .018234253 .34799195 .018234253 .32699586 .04508972 .32699586 .08302307 .32699586 .10900879 .35099793 .20018006 .3789978 .31140138 .39898683 .38841249 .44400025 .4133911 .47698976 .4133911 .47698976 .4133911 .5099945 .4133911 .5309906 .39941407 .49899293 .39041139 .4869995 .3624115 .4869995 .34440614 .4869995 .32240296 .5039978 .30740357 .5269928 .30740357 .5499878 .30740357 .58299258 .32640077 .58299258 .3684082 .58299258 .4243927 .5189972 .44140626 .47898866 .44140626 .42900086 .44140626 .3889923 .4084015 .36698915 .3704071 .34899903 .4113922 .30299378 .44140626 .24699402 .44140626 .1349945 .44140626 .070999149 .31840516 .070999149 .2883606 .070999149 .27534486 .084991458 .27534486 .08799744 .27534486 .100997928 .27534486 .101989749 .27934266 .10699463 .29237367 .13198853 .3704071 .19499207 .4133911 .24398804 .4133911 .2769928 .4133911 .3039856 .395401 .3039856 .3474121 .3039856 .32740785 .2919922 .27734376 .2829895 .24327088L.24899292 .10601807C.23899842 .072021488 .20599365 .018234253 .15499878 .018234253 .1519928 .018234253 .12199402 .018234253 .100997928 .03215027 .14199829 .04508972 .14498902 .08100891 .14498902 .087020877 .14498902 .10900879 .12799073 .12402344 .10499573 .12402344 .07699585 .12402344 .04798889 .10002136 .04798889 .0630188 .04798889 .01322937 .10398865-.009765625 .15299988-.009765625 .19898987-.009765625 .23999024 .019226075 .2649994 .061019899 .2889862 .008224487 .34399415-.009765625 .38398744-.009765625 .49899293-.009765625 .55999758 .11502075 .55999758 .14305115Z"/>
<path id="font_2_1" d="M.55400088 0V.04399109H.5039978C.397995 .04399109 .397995 .054977418 .397995 .08596802V.6358185C.397995 .6660156 .394989 .6660156 .3619995 .6660156 .29100038 .6016083 .17999268 .6016083 .1599884 .6016083H.14299011V.5576172H.1599884C.18299866 .5576172 .24798584 .5606079 .30599977 .58561709V.08596802C.30599977 .054977418 .30599977 .04399109 .19999695 .04399109H.1499939V0C.20498657 .0039978029 .2939911 .0039978029 .35198976 .0039978029 .4099884 .0039978029 .49899293 .0039978029 .55400088 0Z"/>
<path id="font_2_3" d="M.58898928 .19299317H.5469971C.5439911 .17399597 .5339966 .11199951 .5179901 .101989749 .5099945 .09599304 .42599488 .09599304 .41099549 .09599304H.21499634C.2809906 .14498902 .35499574 .20098877 .4149933 .24099732 .5049896 .30300904 .58898928 .3610077 .58898928 .4670105 .58898928 .5950012 .46798707 .6660156 .32499696 .6660156 .18998719 .6660156 .09098816 .58795168 .09098816 .48986817 .09098816 .4378662 .1349945 .42886354 .14898682 .42886354 .17599488 .42886354 .20799256 .4468689 .20799256 .48786927 .20799256 .52386477 .18199158 .543869 .15098572 .546875 .1789856 .59194949 .23699951 .6220093 .3039856 .6220093 .40098573 .6220093 .48199464 .5639038 .48199464 .4658661 .48199464 .3818817 .42399598 .31791688 .34700013 .2529297L.102996829 .04598999C.09298706 .036987306 .09199524 .036987306 .09098816 .02999878V0H.55599978L.58898928 .19299317Z"/>
<path id="font_2_2" d="M.59999087 .17382813C.59999087 .25582887 .5269928 .32583619 .41299439 .35183717 .5329895 .39083863 .5649872 .46684266 .5649872 .5228424 .5649872 .60491946 .46299745 .6660156 .33699037 .6660156 .21398926 .6660156 .114990238 .61395266 .114990238 .5238342 .114990238 .47683717 .15299988 .46484376 .17199707 .46484376 .20098877 .46484376 .22898865 .48583985 .22898865 .5218353 .22898865 .5448303 .21699524 .5728302 .18099976 .57884219 .22399903 .625 .31298829 .628006 .33399964 .628006 .40699769 .628006 .45899964 .5908661 .45899964 .5228424 .45899964 .46484376 .42099 .37384034 .31599427 .36782838 .28799439 .36683656 .28399659 .36582948 .2579956 .36483766 .24699402 .36383058 .23599243 .36283876 .23599243 .34783937 .23599243 .3310547 .24598694 .3310547 .2639923 .3310547H.32998658C.42199708 .3310547 .48298646 .2737732 .48298646 .17437744 .48298646 .07237244 .41999818 .01852417 .33099366 .01852417 .31999208 .01852417 .20098877 .01852417 .1499939 .070373538 .19099427 .07637024 .20298767 .1073761 .20298767 .13137818 .20298767 .16838074 .1749878 .19238281 .14199829 .19238281 .10998535 .19238281 .07998657 .17137146 .07998657 .12937927 .07998657 .025512696 .19799805-.022460938 .33399964-.022460938 .49798585-.022460938 .59999087 .07637024 .59999087 .17337036V.17382813Z"/>
<path id="font_3_1" d="M.43699647 .5286255 .2849884 .6904297 .1329956 .5286255 .1459961 .51464846 .2849884 .6225128 .42399598 .51464846 .43699647 .5286255Z"/>
<path id="font_1_2" d="M.55599978 .37738038C.55999758 .39138795 .55999758 .39338685 .55999758 .3993988 .55999758 .41940309 .5439911 .43139649 .5269928 .43139649 .5159912 .43139649 .49699403 .4263916 .48599244 .4073944 .48298646 .4013977 .47499085 .36938478 .46998597 .34936524L.44898988 .2663269 .40899659 .105270389C.40899659 .105270389 .3639984 .018234253 .28599549 .018234253 .21798706 .018234253 .21798706 .08325195 .21798706 .101257327 .21798706 .1552887 .24099732 .2183075 .2709961 .29534913 .2829895 .32736207 .28799439 .33937074 .28799439 .35636903 .28799439 .40438844 .24699402 .44140626 .19299317 .44140626 .09199524 .44140626 .04699707 .3053589 .04699707 .28834535 .04699707 .27534486 .06098938 .27534486 .06399536 .27534486 .07798767 .27534486 .07899475 .28033448 .08198547 .29135133 .10699463 .3743744 .1499939 .4133911 .18998719 .4133911 .20698548 .4133911 .21499634 .40238954 .21499634 .37838746 .21499634 .3553772 .20599365 .33335877 .20098877 .32035829 .15299988 .19830323 .14299011 .1612854 .14299011 .117263797 .14299011 .1002655 .14299011 .053237916 .18199158 .021224976 .21299744-.004776001 .25498963-.009765625 .28199769-.009765625 .32199098-.009765625 .35798646 .0052337648 .3909912 .035232545 .37799073-.01977539 .36698915-.061782838 .32499696-.11178589 .2979889-.14279175 .2579956-.17578125 .20498657-.17578125 .19799805-.17578125 .15098572-.17578125 .12998963-.14279175 .18399048-.13679505 .18399048-.08778381 .18399048-.08778381 .18399048-.055786134 .15499878-.04978943 .14498902-.04978943 .11999512-.04978943 .08699036-.0697937 .08699036-.11578369 .08699036-.16679383 .1349945-.20379639 .20599365-.20379639 .30699159-.20379639 .42999269-.12579346 .46099855-.00077819827L.55599978 .37738038Z"/>
<path id="font_4_14" d="M.38598634 .14328003C.38598634 .15628052 .37298585 .15628052 .36499024 .15628052 .34700013 .15628052 .34599305 .1532898 .34098817 .13528443 .32798768 .087249759 .29499818 .018234253 .24398804 .018234253 .21998596 .018234253 .21998596 .042236329 .21998596 .052246095 .21998596 .07624817 .23699951 .119277957 .25 .1512909L.31599427 .32435609C.32199098 .34136964 .32199098 .3443756 .32199098 .3573761 .32199098 .40238954 .2869873 .44140626 .23199463 .44140626 .13398743 .44140626 .08799744 .3063507 .08799744 .28834535 .08799744 .27534486 .100997928 .27534486 .10899353 .27534486 .12098694 .27534486 .1269989 .27534486 .12998963 .28834535 .16299439 .40438844 .21099854 .4133911 .22898865 .4133911 .24099732 .4133911 .2539978 .4104004 .2539978 .37937928 .2539978 .3573761 .24598694 .33737184 .23799134 .31636048L.21099854 .24732971 .17599488 .15428162C.1659851 .12828064 .1519928 .09225464 .1519928 .07424927 .1519928 .02822876 .18798828-.009765625 .24099732-.009765625 .34098817-.009765625 .38598634 .12727356 .38598634 .14328003M.3919983 .6092377C.3919983 .63723757 .37098695 .65625 .34399415 .65625 .30599977 .65625 .27398683 .62124636 .27398683 .5882416 .27398683 .5632477 .29299928 .5412445 .32199098 .5412445 .35798646 .5412445 .3919983 .57424929 .3919983 .6092377Z"/>
<path id="font_4_6" d="M.6799927 .14328003C.6799927 .15628052 .6669922 .15628052 .6589966 .15628052 .6409912 .15628052 .6399994 .1532898 .6349945 .13528443 .6179962 .07325745 .58200076 .018234253 .5379944 .018234253 .5239868 .018234253 .5130005 .025222779 .5130005 .052246095 .5130005 .07424927 .5219879 .0962677 .5299988 .119277957 .5479889 .16629029 .58999636 .27534486 .58999636 .33036805 .58999636 .4084015 .5359955 .44140626 .46699525 .44140626 .3880005 .44140626 .33399964 .39439393 .3039856 .35636903 .29699708 .41740418 .24499512 .44140626 .20498657 .44140626 .1619873 .44140626 .13999939 .4133911 .125 .38838197 .10398865 .3553772 .08799744 .29434205 .08799744 .28834535 .08799744 .27534486 .100997928 .27534486 .10899353 .27534486 .1269989 .27534486 .12799073 .27633668 .1349945 .3043518 .1519928 .37338258 .17098999 .4133911 .20199585 .4133911 .23298645 .4133911 .23298645 .37738038 .23298645 .3653717 .23298645 .3463745 .21998596 .29534913 .21199036 .2603302L.18399048 .15228272C.18099976 .13728333 .17098999 .09925842 .16699219 .08425903 .1619873 .0622406 .15299988 .027236939 .15299988 .020233155 .15299988-.0017700195 .16899109-.009765625 .18399048-.009765625 .21798706-.009765625 .22499085 .020233155 .22898865 .035232545L.2519989 .12426758C.25498963 .13928223 .2649994 .17729187 .2679901 .19230652 .2709961 .20230103 .28399659 .2523346 .2849884 .25933839 .2869873 .26533509 .31698609 .33135987 .35798646 .36938478 .3880005 .39639283 .4229889 .4133911 .46299745 .4133911 .5089874 .4133911 .519989 .37838746 .519989 .34536744 .519989 .28634645 .47299195 .1652832 .45599366 .119277957 .44599916 .09425354 .44599916 .087249759 .44599916 .07424927 .44599916 .020233155 .4889984-.009765625 .5349884-.009765625 .6349945-.009765625 .6799927 .12727356 .6799927 .14328003Z"/>
<path id="font_4_8" d="M.5799866 .27734376C.5799866 .37838746 .5159912 .44140626 .43798829 .44140626 .37298585 .44140626 .31999208 .39439393 .30099488 .37338258 .2849884 .42840577 .23298645 .44140626 .20498657 .44140626 .1619873 .44140626 .13999939 .4133911 .125 .38838197 .10398865 .3553772 .08799744 .29434205 .08799744 .28834535 .08799744 .27534486 .100997928 .27534486 .10899353 .27534486 .1269989 .27534486 .12799073 .27633668 .1349945 .3043518 .1519928 .37338258 .17098999 .4133911 .20199585 .4133911 .23298645 .4133911 .23298645 .37738038 .23298645 .3653717 .23298645 .35437013 .23298645 .34736634 .22898865 .33135987L.115997318-.12246704C.10899353-.15138245 .102996829-.15736389 .06599426-.15736389 .051986696-.15736389 .039993287-.15736389 .039993287-.17936707 .039993287-.18836975 .04598999-.19335938 .053985597-.19335938 .07998657-.19335938 .11099243-.18936157 .13798523-.18936157 .17098999-.18936157 .20799256-.19335938 .23999024-.19335938 .24499512-.19335938 .2599945-.19335938 .2599945-.17236328 .2599945-.15736389 .25-.15736389 .23098755-.15736389 .21299744-.15736389 .18598938-.15736389 .18598938-.145401 .18598938-.13941956 .19099427-.116485599 .19499207-.10151672L.23199463 .04623413C.24598694 .024230957 .2769928-.009765625 .33099366-.009765625 .45399476-.009765625 .5799866 .13327027 .5799866 .27734376M.5039978 .3193512C.5039978 .2693329 .47599793 .16029358 .45199586 .11526489 .40899659 .036239625 .35798646 .018234253 .33099366 .018234253 .2639923 .018234253 .25 .101257327 .25 .11526489 .25 .119277957 .25099183 .121276859 .25299073 .13027954L.2939911 .29534913C.30299378 .33236695 .37199403 .4133911 .43499757 .4133911 .47999574 .4133911 .5039978 .37138368 .5039978 .3193512Z"/>
<path id="font_4_12" d="M.651001 .14328003C.651001 .15628052 .6380005 .15628052 .6299896 .15628052 .6119995 .15628052 .61099246 .15428162 .6049957 .12927246 .59098818 .07725525 .57398989 .018234253 .5369873 .018234253 .5089874 .018234253 .5049896 .048233034 .5049896 .06524658 .5049896 .08226013 .5049896 .08425903 .5109863 .10726929L.58099368 .38938905C.58299258 .39839173 .58399966 .4013977 .58399966 .4013977 .58399966 .4163971 .57299807 .43139649 .5519867 .43139649 .519989 .43139649 .5099945 .40238954 .5069885 .38838197L.44198609 .12626648C.43499757 .09725952 .3880005 .018234253 .31799317 .018234253 .27198792 .018234253 .2519989 .052246095 .2519989 .09925842 .2519989 .15628052 .28399659 .23931885 .31098939 .3083496 .31799317 .32736207 .32199098 .33836366 .32199098 .3573761 .32199098 .4073944 .28199769 .44140626 .23298645 .44140626 .13398743 .44140626 .08799744 .3053589 .08799744 .28834535 .08799744 .27534486 .100997928 .27534486 .10899353 .27534486 .12098694 .27534486 .1269989 .27534486 .12998963 .28834535 .16099549 .39738465 .20599365 .4133911 .22999573 .4133911 .24699402 .4133911 .25498963 .40238954 .25498963 .38038636 .25498963 .3573761 .24798584 .34136964 .22999573 .29335023 .19400025 .19923401 .18199158 .15322876 .18199158 .114227298 .18199158 .014221191 .2579956-.009765625 .31399537-.009765625 .37599183-.009765625 .41099549 .024230957 .43998719 .053222658 .45599366 .0042266848 .5039978-.009765625 .5339966-.009765625 .5649872-.009765625 .59098818 .0052337648 .61299136 .041229249 .6369934 .08023071 .651001 .14022827 .651001 .14323426V.14328003Z"/>
<path id="font_4_11" d="M.4149933 .14404297C.4149933 .15602112 .4019928 .15602112 .394989 .15602112 .3789978 .15602112 .37799073 .15402222 .37199403 .14004517 .32499696 .034194948 .272995 .018234253 .24598694 .018234253 .21199036 .018234253 .21199036 .05517578 .21199036 .06515503 .21199036 .0821228 .21699524 .10310364 .21798706 .10609436L.2899933 .39465333H.3889923C.40699769 .39465333 .4189911 .39465333 .4189911 .4166565 .4189911 .43066407 .40699769 .43066407 .3909912 .43066407H.29899598L.33499146 .5749054C.33898927 .5889282 .33898927 .5909271 .33898927 .5949402 .33898927 .6129761 .32499696 .625 .30699159 .625 .272995 .625 .2649994 .5919342 .2630005 .58291628L.22499085 .43066407H.12599182C.10798645 .43066407 .09599304 .43066407 .09599304 .4086609 .09599304 .39465333 .10798645 .39465333 .12399292 .39465333H.21598816L.14698792 .11807251C.14199829 .098098758 .14199829 .09111023 .14199829 .084121707 .14199829 .022216797 .19099427-.009765625 .24299622-.009765625 .35099793-.009765625 .4149933 .12806702 .4149933 .14404297Z"/>
<path id="font_4_10" d="M.45399476 .15612793C.45399476 .18611145 .44099427 .21409607 .4169922 .2350769 .3880005 .25906373 .36299134 .2640686 .30899049 .2740631 .2789917 .28004457 .23498535 .28804017 .23498535 .32904054 .23498535 .3470459 .2519989 .4133911 .34700013 .4133911 .36999513 .4133911 .41299439 .4083557 .42900086 .3720398 .42399598 .3700409 .397995 .35603334 .397995 .33003236 .397995 .31703187 .40499879 .30003358 .42999269 .30003358 .44198609 .30003358 .47399903 .30604554 .47399903 .35403443 .47399903 .418396 .4059906 .44140626 .34799195 .44140626 .20498657 .44140626 .17199707 .33303834 .17199707 .29403688 .17199707 .21308899 .25099183 .19810486 .28799439 .19111634 .33499146 .18211365 .3909912 .17211914 .3909912 .121154788 .3909912 .094177249 .3659973 .018234253 .24598694 .018234253 .21499634 .018234253 .15699768 .024215699 .13598633 .06719971 .17098999 .076187137 .1769867 .105163577 .1769867 .11616516 .1769867 .1351471 .16299439 .1491394 .14199829 .1491394 .114990238 .1491394 .08999634 .12915039 .08999634 .08717346 .08999634 .02722168 .1519928-.009765625 .24398804-.009765625 .4149933-.009765625 .45399476 .11116028 .45399476 .15612793Z"/>
<path id="font_4_4" d="M.62098696 .14328003C.62098696 .15628052 .60798647 .15628052 .59999087 .15628052 .58200076 .15628052 .58099368 .1532898 .57598879 .13528443 .5589905 .07325745 .522995 .018234253 .47898866 .018234253 .46499635 .018234253 .45399476 .025222779 .45399476 .052246095 .45399476 .07424927 .46299745 .0962677 .47099305 .119277957 .4889984 .16629029 .5309906 .27534486 .5309906 .33036805 .5309906 .4133911 .47099305 .44140626 .4079895 .44140626 .31698609 .44140626 .2619934 .37538148 .2539978 .36637879L.32899476 .66529849C.32998658 .6693115 .33198548 .67630007 .33198548 .68029788 .33198548 .6953125 .31599427 .6943054 .30499269 .69329836L.19699097 .6843109C.18399048 .68330386 .17098999 .682312 .17098999 .66130068 .17098999 .64730837 .18399048 .64730837 .19699097 .64730837 .24499512 .64730837 .24499512 .64030459 .24499512 .63131716 .24499512 .62731936 .24198914 .613327 .24099732 .60832217L.09899902 .041229249C.09498596 .027236939 .09498596 .025222779 .09498596 .020233155 .09498596 .0012207031 .10899353-.009765625 .1269989-.009765625 .1599884-.009765625 .16799927 .021224976 .16999817 .030227662L.19198609 .120269779 .22599793 .2543335C.22898865 .264328 .25498963 .32835389 .30299378 .37338258 .32998658 .39738465 .36698915 .4133911 .40499879 .4133911 .44898988 .4133911 .46099855 .37838746 .46099855 .34536744 .46099855 .28634645 .4139862 .16429138 .39698792 .119277957 .3869934 .09425354 .3869934 .087249759 .3869934 .07424927 .3869934 .020233155 .42999269-.009765625 .47599793-.009765625 .57598879-.009765625 .62098696 .12727356 .62098696 .14328003Z"/>
<path id="font_4_2" d="M.62098696 .14328003C.62098696 .15628052 .60798647 .15628052 .59999087 .15628052 .58200076 .15628052 .58099368 .15428162 .57499697 .12927246 .5609894 .07725525 .5439911 .018234253 .5069885 .018234253 .47898866 .018234253 .47499085 .048233034 .47499085 .06524658 .47499085 .08226013 .47999574 .103256229 .48098756 .10626221L.62098696 .66529849C.621994 .6693115 .6239929 .67630007 .6239929 .68029788 .6239929 .6953125 .60798647 .6943054 .5970001 .69329836L.4889984 .6843109C.47599793 .68330386 .46299745 .682312 .46299745 .66130068 .46299745 .64730837 .47599793 .64730837 .4889984 .64730837 .5369873 .64730837 .5369873 .64030459 .5369873 .63131716 .5369873 .62831118 .5369873 .62631228 .5329895 .61231997L.47698976 .38539125C.45399476 .4203949 .41999818 .44140626 .37799073 .44140626 .2559967 .44140626 .1289978 .300354 .1289978 .15428162 .1289978 .04724121 .19699097-.009765625 .2709961-.009765625 .33499146-.009765625 .3880005 .037231447 .4079895 .058242799 .42099 .010223389 .46798707-.009765625 .5039978-.009765625 .5349884-.009765625 .5609894 .0052337648 .58299258 .041229249 .6069946 .08026123 .62098696 .14027405 .62098696 .14328003M.45599366 .3023529 .4139862 .13627625C.4059906 .105270389 .38398744 .08125305 .36099244 .059249879 .31999208 .023223877 .2889862 .018234253 .27398683 .018234253 .22799683 .018234253 .20498657 .06124878 .20498657 .11326599 .20498657 .1552887 .22999573 .26533509 .2579956 .3193512 .2899933 .37838746 .33799745 .4133911 .37799073 .4133911 .44599916 .4133911 .45899964 .32635499 .45899964 .31636048 .45899964 .3133545 .45799256 .3093567 .45599366 .3023529Z"/>
<path id="font_4_3" d="M.54100039 .097335819C.54100039 .10534668 .5269928 .12136841 .5179901 .12136841 .5130005 .12136841 .5099945 .11836243 .5029907 .11035156 .44198609 .037246705 .35499574 .018234253 .30499269 .018234253 .23999024 .018234253 .21199036 .07330322 .21199036 .13638306 .21199036 .16741944 .21798706 .19847107 .22499085 .22851563H.2869873C.32998658 .22851563 .5269928 .22851563 .5269928 .35343934 .5269928 .40740968 .47599793 .44140626 .4059906 .44140626 .2939911 .44140626 .1349945 .35144044 .1349945 .1754303 .1349945 .07029724 .19699097-.009765625 .30499269-.009765625 .46398927-.009765625 .54100039 .08432007 .54100039 .097335819M.47898866 .3544464C.47898866 .2565155 .31900025 .2565155 .27999879 .2565155H.23298645C.27799989 .4113922 .3939972 .4133911 .4059906 .4133911 .44799806 .4133911 .47898866 .39041139 .47898866 .3544464Z"/>
<path id="font_4_5" d="M.32798768 .14324951C.32798768 .15625 .31498719 .15625 .30699159 .15625 .2889862 .15625 .28799439 .15324402 .28399659 .13624573 .269989 .083236698 .25299073 .018234253 .21499634 .018234253 .18699646 .018234253 .18299866 .048233034 .18299866 .06523132 .18299866 .082229617 .18798828 .10324097 .18899536 .10623169L.32899476 .66529849C.32998658 .6693115 .33198548 .67630007 .33198548 .68029788 .33198548 .6953125 .31599427 .6943054 .30499269 .69329836L.19699097 .6843109C.18399048 .68330386 .17098999 .682312 .17098999 .66130068 .17098999 .64730837 .18399048 .64730837 .19699097 .64730837 .24499512 .64730837 .24499512 .64030459 .24499512 .6313019 .24499512 .6242981 .24299622 .6163025 .24099732 .6092987L.117996219 .11824036C.11299133 .098236087 .11299133 .0912323 .11299133 .084228519 .11299133 .018234253 .16799927-.009765625 .21199036-.009765625 .23498535-.009765625 .2659912-.0017700195 .29299928 .04423523 .31498719 .083236698 .32798768 .13923645 .32798768 .14324951Z"/>
<path id="font_4_1" d="M.61099246 .14328003C.61099246 .15628052 .59799197 .15628052 .58999636 .15628052 .57199099 .15628052 .57099917 .15428162 .5649872 .12927246 .5509949 .07725525 .5339966 .018234253 .49699403 .018234253 .46899415 .018234253 .46499635 .048233034 .46499635 .06524658 .46499635 .08226013 .46499635 .08425903 .47099305 .10726929L.5369873 .37138368C.54100039 .38638307 .54100039 .38838197 .54100039 .39239503 .54100039 .4143982 .5249939 .4223938 .5099945 .4223938 .47698976 .4223938 .46699525 .38838197 .46598817 .38539125 .44099427 .4263916 .4039917 .44140626 .36799623 .44140626 .24598694 .44140626 .11898804 .300354 .11898804 .15428162 .11898804 .04724121 .18699646-.009765625 .26098634-.009765625 .32499696-.009765625 .37799073 .037231447 .397995 .058242799 .41099549 .010223389 .45799256-.009765625 .49398805-.009765625 .5249939-.009765625 .5509949 .0052337648 .57299807 .041229249 .5970001 .08026123 .61099246 .14027405 .61099246 .14328003M.44599916 .3023529 .4039917 .13627625C.3959961 .105270389 .37399293 .08125305 .35099793 .059249879 .30999757 .023223877 .2789917 .018234253 .2639923 .018234253 .21798706 .018234253 .19499207 .06124878 .19499207 .11326599 .19499207 .1552887 .21998596 .26533509 .24798584 .3193512 .27999879 .37838746 .32798768 .4133911 .36799623 .4133911 .43598939 .4133911 .44898988 .32635499 .44898988 .31636048 .44898988 .3133545 .44799806 .3093567 .44599916 .3023529Z"/>
<path id="font_4_13" d="M.48199464-.0067749025 .5799866 .38938905C.58200076 .39839173 .58299258 .4013977 .58299258 .4013977 .58299258 .4163971 .57199099 .43139649 .5509949 .43139649 .519989 .43139649 .5099945 .4033966 .5059967 .38838197L.44099427 .12426758C.43699647 .10626221 .3919983 .018234253 .31698609 .018234253 .2679901 .018234253 .2519989 .056243898 .2519989 .09925842 .2519989 .15428162 .2809906 .23332215 .31098939 .3093567 .31698609 .32635499 .32199098 .33836366 .32199098 .3573761 .32199098 .4073944 .28199769 .44140626 .23298645 .44140626 .13398743 .44140626 .08799744 .3053589 .08799744 .28834535 .08799744 .27534486 .100997928 .27534486 .10899353 .27534486 .12098694 .27534486 .1269989 .27534486 .12998963 .28834535 .16099549 .39738465 .20599365 .4133911 .22999573 .4133911 .24699402 .4133911 .25498963 .40238954 .25498963 .38038636 .25498963 .3573761 .24798584 .34136964 .22999573 .29335023 .19299317 .19822693 .18199158 .15222168 .18199158 .114227298 .18199158 .0152282719 .25498963-.009765625 .31399537-.009765625 .34899903-.009765625 .38198854 .0012207031 .4169922 .031219483 .40499879-.01675415 .3929901-.06668091 .34899903-.11767578 .31599427-.1557312 .27598573-.17578125 .23999024-.17578125 .21199036-.17578125 .18598938-.16474915 .17599488-.13768006 .20599365-.13067627 .21699524-.10467529 .21699524-.08868408 .21699524-.07067871 .20399475-.05567932 .18099976-.05567932 .16499329-.05567932 .12998963-.06668091 .12998963-.11668396 .12998963-.1667633 .17399597-.20379639 .23899842-.20379639 .35699464-.20379639 .45899964-.09867859 .48199464-.0067749025Z"/>
<path id="font_4_9" d="M.55999758 .3723755C.55999758 .42340089 .49798585 .44140626 .43899537 .44140626 .4119873 .44140626 .35798646 .4393921 .30099488 .37338258 .2849884 .42840577 .23298645 .44140626 .20498657 .44140626 .1619873 .44140626 .13999939 .4133911 .125 .38838197 .10398865 .3553772 .08799744 .2943573 .08799744 .28834535 .08799744 .27534486 .100997928 .27534486 .10899353 .27534486 .1269989 .27534486 .12799073 .27633668 .1349945 .3043518 .1519928 .37338258 .17098999 .4133911 .20199585 .4133911 .23298645 .4133911 .23298645 .37738038 .23298645 .3653717 .23298645 .3463745 .21998596 .29534913 .21199036 .2603302L.18399048 .15229798C.18099976 .13728333 .17098999 .09927368 .16699219 .08425903 .1619873 .06225586 .15299988 .027236939 .15299988 .020233155 .15299988-.0017700195 .16899109-.009765625 .18399048-.009765625 .20599365-.009765625 .21899414 .0062408449 .22299195 .01423645 .22599793 .021240235 .23498535 .057250978 .23999024 .07826233L.2669983 .18630982C.27198792 .20831299 .27799989 .22932434 .2829895 .2513275 .2889862 .27534486 .2999878 .31835938 .34399415 .3683777 .3639984 .39138795 .3929901 .4133911 .43699647 .4133911 .44799806 .4133911 .48199464 .4123993 .5049896 .39639283 .48399354 .38638307 .47499085 .3683777 .47499085 .3513794 .47499085 .32336427 .49699403 .3173523 .5099945 .3173523 .5289917 .3173523 .55999758 .33135987 .55999758 .3723755Z"/>
<path id="font_4_7" d="M.57899478 .2693329C.57899478 .36637879 .5109863 .44140626 .4079895 .44140626 .2649994 .44140626 .12998963 .3023529 .12998963 .16229248 .12998963 .0602417 .20199585-.009765625 .30099488-.009765625 .44400025-.009765625 .57899478 .13027954 .57899478 .2693329M.5 .30334474C.5 .2693329 .4850006 .17329407 .44198609 .105270389 .41099549 .057250978 .35499574 .018234253 .3019867 .018234253 .27398683 .018234253 .20899964 .032226564 .20899964 .12828064 .20899964 .17228699 .22898865 .27734376 .2769928 .33937074 .31199647 .38638307 .36299134 .4133911 .40699769 .4133911 .44198609 .4133911 .5 .39239503 .5 .30334474Z"/>
</defs>
<path transform="matrix(1,0,0,-1,22.272,68.55499)" d="M9.21269 35.43349C9.21269 40.52158 5.08807 44.6462 0 44.6462-5.08807 44.6462-9.21269 40.52158-9.21269 35.43349-9.21269 30.34541-5.08807 26.2208 0 26.2208 5.08807 26.2208 9.21269 30.34541 9.21269 35.43349ZM0 35.43349" fill="#dee8f2"/>
<path transform="matrix(1,0,0,-1,22.272,68.55499)" stroke-width=".69739" stroke-linecap="butt" stroke-miterlimit="10" stroke-linejoin="miter" fill="none" stroke="#555555" d="M9.21269 35.43349C9.21269 40.52158 5.08807 44.6462 0 44.6462-5.08807 44.6462-9.21269 40.52158-9.21269 35.43349-9.21269 30.34541-5.08807 26.2208 0 26.2208 5.08807 26.2208 9.21269 30.34541 9.21269 35.43349ZM0 35.43349"/>
<use data-text="x" xlink:href="#font_1_1" transform="matrix(6.9738,0,0,-6.9738,18.069,34.124994)"/>
<use data-text="1" xlink:href="#font_2_1" transform="matrix(4.9813,0,0,-4.9813,22.586,35.120996)"/>
<path transform="matrix(1,0,0,-1,22.272,68.55499)" d="M9.21269 8.50412C9.21269 13.59221 5.08807 17.71681 0 17.71681-5.08807 17.71681-9.21269 13.59221-9.21269 8.50412-9.21269 3.41603-5.08807-.70857 0-.70857 5.08807-.70857 9.21269 3.41603 9.21269 8.50412ZM0 8.50412" fill="#dee8f2"/>
<path transform="matrix(1,0,0,-1,22.272,68.55499)" stroke-width=".69739" stroke-linecap="butt" stroke-miterlimit="10" stroke-linejoin="miter" fill="none" stroke="#555555" d="M9.21269 8.50412C9.21269 13.59221 5.08807 17.71681 0 17.71681-5.08807 17.71681-9.21269 13.59221-9.21269 8.50412-9.21269 3.41603-5.08807-.70857 0-.70857 5.08807-.70857 9.21269 3.41603 9.21269 8.50412ZM0 8.50412"/>
<use data-text="x" xlink:href="#font_1_1" transform="matrix(6.9738,0,0,-6.9738,18.069,61.053998)"/>
<use data-text="2" xlink:href="#font_2_3" transform="matrix(4.9813,0,0,-4.9813,22.587,62.049997)"/>
<path transform="matrix(1,0,0,-1,22.272,68.55499)" d="M9.21269-18.42523C9.21269-13.33714 5.08807-9.21252 0-9.21252-5.08807-9.21252-9.21269-13.33714-9.21269-18.42523-9.21269-23.51332-5.08807-27.63794 0-27.63794 5.08807-27.63794 9.21269-23.51332 9.21269-18.42523ZM0-18.42523" fill="#dee8f2"/>
<path transform="matrix(1,0,0,-1,22.272,68.55499)" stroke-width=".69739" stroke-linecap="butt" stroke-miterlimit="10" stroke-linejoin="miter" fill="none" stroke="#555555" d="M9.21269-18.42523C9.21269-13.33714 5.08807-9.21252 0-9.21252-5.08807-9.21252-9.21269-13.33714-9.21269-18.42523-9.21269-23.51332-5.08807-27.63794 0-27.63794 5.08807-27.63794 9.21269-23.51332 9.21269-18.42523ZM0-18.42523"/>
<use data-text="x" xlink:href="#font_1_1" transform="matrix(6.9738,0,0,-6.9738,18.069,87.983)"/>
<use data-text="3" xlink:href="#font_2_2" transform="matrix(4.9813,0,0,-4.9813,22.587,88.979)"/>
<path transform="matrix(1,0,0,-1,22.272,68.55499)" d="M74.41045 51.0239C74.41045 56.11198 70.28583 60.2366 65.19774 60.2366 60.10965 60.2366 55.98503 56.11198 55.98503 51.0239 55.98503 45.9358 60.10965 41.81119 65.19774 41.81119 70.28583 41.81119 74.41045 45.9358 74.41045 51.0239ZM65.19774 51.0239" fill="#eee6d4"/>
<path transform="matrix(1,0,0,-1,22.272,68.55499)" stroke-width=".69739" stroke-linecap="butt" stroke-miterlimit="10" stroke-linejoin="miter" fill="none" stroke="#555555" d="M74.41045 51.0239C74.41045 56.11198 70.28583 60.2366 65.19774 60.2366 60.10965 60.2366 55.98503 56.11198 55.98503 51.0239 55.98503 45.9358 60.10965 41.81119 65.19774 41.81119 70.28583 41.81119 74.41045 45.9358 74.41045 51.0239ZM65.19774 51.0239"/>
<path transform="matrix(1,0,0,-1,22.272,68.55499)" d="M74.41045 26.92892C74.41045 32.01701 70.28583 36.14163 65.19774 36.14163 60.10965 36.14163 55.98503 32.01701 55.98503 26.92892 55.98503 21.84084 60.10965 17.71623 65.19774 17.71623 70.28583 17.71623 74.41045 21.84084 74.41045 26.92892ZM65.19774 26.92892" fill="#eee6d4"/>
<path transform="matrix(1,0,0,-1,22.272,68.55499)" stroke-width=".69739" stroke-linecap="butt" stroke-miterlimit="10" stroke-linejoin="miter" fill="none" stroke="#555555" d="M74.41045 26.92892C74.41045 32.01701 70.28583 36.14163 65.19774 36.14163 60.10965 36.14163 55.98503 32.01701 55.98503 26.92892 55.98503 21.84084 60.10965 17.71623 65.19774 17.71623 70.28583 17.71623 74.41045 21.84084 74.41045 26.92892ZM65.19774 26.92892"/>
<path transform="matrix(1,0,0,-1,22.272,68.55499)" d="M74.41045 2.83397C74.41045 7.92206 70.28583 12.04668 65.19774 12.04668 60.10965 12.04668 55.98503 7.92206 55.98503 2.83397 55.98503-2.25409 60.10965-6.37871 65.19774-6.37871 70.28583-6.37871 74.41045-2.25409 74.41045 2.83397ZM65.19774 2.83397" fill="#eee6d4"/>
<path transform="matrix(1,0,0,-1,22.272,68.55499)" stroke-width=".69739" stroke-linecap="butt" stroke-miterlimit="10" stroke-linejoin="miter" fill="none" stroke="#555555" d="M74.41045 2.83397C74.41045 7.92206 70.28583 12.04668 65.19774 12.04668 60.10965 12.04668 55.98503 7.92206 55.98503 2.83397 55.98503-2.25409 60.10965-6.37871 65.19774-6.37871 70.28583-6.37871 74.41045-2.25409 74.41045 2.83397ZM65.19774 2.83397"/>
<path transform="matrix(1,0,0,-1,22.272,68.55499)" d="M74.41045-21.26096C74.41045-16.17288 70.28583-12.04826 65.19774-12.04826 60.10965-12.04826 55.98503-16.17288 55.98503-21.26096 55.98503-26.34904 60.10965-30.47366 65.19774-30.47366 70.28583-30.47366 74.41045-26.34904 74.41045-21.26096ZM65.19774-21.26096" fill="#eee6d4"/>
<path transform="matrix(1,0,0,-1,22.272,68.55499)" stroke-width=".69739" stroke-linecap="butt" stroke-miterlimit="10" stroke-linejoin="miter" fill="none" stroke="#555555" d="M74.41045-21.26096C74.41045-16.17288 70.28583-12.04826 65.19774-12.04826 60.10965-12.04826 55.98503-16.17288 55.98503-21.26096 55.98503-26.34904 60.10965-30.47366 65.19774-30.47366 70.28583-30.47366 74.41045-26.34904 74.41045-21.26096ZM65.19774-21.26096"/>
<path transform="matrix(1,0,0,-1,22.272,68.55499)" d="M139.60819 15.59082C139.60819 20.67891 135.48357 24.80353 130.39548 24.80353 125.30739 24.80353 121.18277 20.67891 121.18277 15.59082 121.18277 10.50273 125.30739 6.37811 130.39548 6.37811 135.48357 6.37811 139.60819 10.50273 139.60819 15.59082ZM130.39548 15.59082" fill="#c7dfdb"/>
<path transform="matrix(1,0,0,-1,22.272,68.55499)" stroke-width=".69739" stroke-linecap="butt" stroke-miterlimit="10" stroke-linejoin="miter" fill="none" stroke="#555555" d="M139.60819 15.59082C139.60819 20.67891 135.48357 24.80353 130.39548 24.80353 125.30739 24.80353 121.18277 20.67891 121.18277 15.59082 121.18277 10.50273 125.30739 6.37811 130.39548 6.37811 135.48357 6.37811 139.60819 10.50273 139.60819 15.59082ZM130.39548 15.59082"/>
<use data-text="&#x02c6;" xlink:href="#font_3_1" transform="matrix(6.9738,0,0,-6.9738,151.109,54.687997)"/>
<use data-text="y" xlink:href="#font_1_2" transform="matrix(6.9738,0,0,-6.9738,150.51622,54.687997)"/>
<path transform="matrix(1,0,0,-1,22.272,68.55499)" stroke-width=".3985" stroke-linecap="butt" stroke-miterlimit="10" stroke-linejoin="miter" fill="none" stroke="#c6c6c6" d="M9.29861 37.65694 55.89896 48.80061"/>
<path transform="matrix(1,0,0,-1,22.272,68.55499)" stroke-width=".3985" stroke-linecap="butt" stroke-miterlimit="10" stroke-linejoin="miter" fill="none" stroke="#c6c6c6" d="M9.48056 34.19688 55.71718 28.16553"/>
<path transform="matrix(1,0,0,-1,22.272,68.55499)" stroke-width=".3985" stroke-linecap="butt" stroke-miterlimit="10" stroke-linejoin="miter" fill="none" stroke="#c6c6c6" d="M8.55148 31.15761 56.64624 7.10986"/>
<path transform="matrix(1,0,0,-1,22.272,68.55499)" stroke-width=".3985" stroke-linecap="butt" stroke-miterlimit="10" stroke-linejoin="miter" fill="none" stroke="#c6c6c6" d="M7.21494 29.15956 57.98279-14.98703"/>
<path transform="matrix(1,0,0,-1,22.272,68.55499)" stroke-width=".3985" stroke-linecap="butt" stroke-miterlimit="10" stroke-linejoin="miter" fill="none" stroke="#c6c6c6" d="M8.00847 13.72687 57.18925 45.80115"/>
<path transform="matrix(1,0,0,-1,22.272,68.55499)" stroke-width=".3985" stroke-linecap="butt" stroke-miterlimit="10" stroke-linejoin="miter" fill="none" stroke="#c6c6c6" d="M9.20058 11.10411 55.99715 24.32893"/>
<path transform="matrix(1,0,0,-1,22.272,68.55499)" stroke-width=".3985" stroke-linecap="butt" stroke-miterlimit="10" stroke-linejoin="miter" fill="none" stroke="#c6c6c6" d="M9.52519 7.67574 55.67255 3.66222"/>
<path transform="matrix(1,0,0,-1,22.272,68.55499)" stroke-width=".3985" stroke-linecap="butt" stroke-miterlimit="10" stroke-linejoin="miter" fill="none" stroke="#c6c6c6" d="M8.69737 4.53358 56.50035-17.29044"/>
<path transform="matrix(1,0,0,-1,22.272,68.55499)" stroke-width=".3985" stroke-linecap="butt" stroke-miterlimit="10" stroke-linejoin="miter" fill="none" stroke="#c6c6c6" d="M6.54398-11.45451 58.65375 44.05318"/>
<path transform="matrix(1,0,0,-1,22.272,68.55499)" stroke-width=".3985" stroke-linecap="butt" stroke-miterlimit="10" stroke-linejoin="miter" fill="none" stroke="#c6c6c6" d="M7.84871-12.9654 57.34901 21.46909"/>
<path transform="matrix(1,0,0,-1,22.272,68.55499)" stroke-width=".3985" stroke-linecap="butt" stroke-miterlimit="10" stroke-linejoin="miter" fill="none" stroke="#c6c6c6" d="M9.09013-15.46109 56.10745-.13002"/>
<path transform="matrix(1,0,0,-1,22.272,68.55499)" stroke-width=".3985" stroke-linecap="butt" stroke-miterlimit="10" stroke-linejoin="miter" fill="none" stroke="#c6c6c6" d="M9.55174-18.84059 55.64598-20.84575"/>
<path transform="matrix(1,0,0,-1,22.272,68.55499)" stroke-width=".3985" stroke-linecap="butt" stroke-miterlimit="10" stroke-linejoin="miter" fill="none" stroke="#c6c6c6" d="M73.59808 46.4587 121.99512 20.15602"/>
<path transform="matrix(1,0,0,-1,22.272,68.55499)" stroke-width=".3985" stroke-linecap="butt" stroke-miterlimit="10" stroke-linejoin="miter" fill="none" stroke="#c6c6c6" d="M74.6176 25.29097 120.97562 17.22878"/>
<path transform="matrix(1,0,0,-1,22.272,68.55499)" stroke-width=".3985" stroke-linecap="butt" stroke-miterlimit="10" stroke-linejoin="miter" fill="none" stroke="#c6c6c6" d="M74.58098 4.66977 121.01224 13.75504"/>
<path transform="matrix(1,0,0,-1,22.272,68.55499)" stroke-width=".3985" stroke-linecap="butt" stroke-miterlimit="10" stroke-linejoin="miter" fill="none" stroke="#c6c6c6" d="M73.5209-16.55644 122.07231 10.88629"/>
<use data-text="i" xlink:href="#font_4_14" transform="matrix(6.9738,0,0,-6.9738,11.290999,108.392)" fill="#555555"/>
<use data-text="n" xlink:href="#font_4_6" transform="matrix(6.9738,0,0,-6.9738,13.857358,108.392)" fill="#555555"/>
<use data-text="p" xlink:href="#font_4_8" transform="matrix(6.9738,0,0,-6.9738,18.474015,108.392)" fill="#555555"/>
<use data-text="u" xlink:href="#font_4_12" transform="matrix(6.9738,0,0,-6.9738,22.679215,108.392)" fill="#555555"/>
<use data-text="t" xlink:href="#font_4_11" transform="matrix(6.9738,0,0,-6.9738,27.093632,108.392)" fill="#555555"/>
<use data-text="s" xlink:href="#font_4_10" transform="matrix(6.9738,0,0,-6.9738,29.869206,108.392)" fill="#555555"/>
<use data-text="h" xlink:href="#font_4_4" transform="matrix(6.9738,0,0,-6.9738,65.353,108.578998)" fill="#555555"/>
<use data-text="i" xlink:href="#font_4_14" transform="matrix(6.9738,0,0,-6.9738,69.5582,108.578998)" fill="#555555"/>
<use data-text="d" xlink:href="#font_4_2" transform="matrix(6.9738,0,0,-6.9738,72.12456,108.578998)" fill="#555555"/>
<use data-text="d" xlink:href="#font_4_2" transform="matrix(6.9738,0,0,-6.9738,76.32976,108.578998)" fill="#555555"/>
<use data-text="e" xlink:href="#font_4_3" transform="matrix(6.9738,0,0,-6.9738,80.53496,108.578998)" fill="#555555"/>
<use data-text="n" xlink:href="#font_4_6" transform="matrix(6.9738,0,0,-6.9738,84.328708,108.578998)" fill="#555555"/>
<use data-text="l" xlink:href="#font_4_5" transform="matrix(6.9738,0,0,-6.9738,91.92317,108.578998)" fill="#555555"/>
<use data-text="a" xlink:href="#font_4_1" transform="matrix(6.9738,0,0,-6.9738,94.08505,108.578998)" fill="#555555"/>
<use data-text="y" xlink:href="#font_4_13" transform="matrix(6.9738,0,0,-6.9738,98.29025,108.578998)" fill="#555555"/>
<use data-text="e" xlink:href="#font_4_3" transform="matrix(6.9738,0,0,-6.9738,102.29321,108.578998)" fill="#555555"/>
<use data-text="r" xlink:href="#font_4_9" transform="matrix(6.9738,0,0,-6.9738,106.08696,108.578998)" fill="#555555"/>
<use data-text="o" xlink:href="#font_4_7" transform="matrix(6.9738,0,0,-6.9738,141.275,108.392)" fill="#555555"/>
<use data-text="u" xlink:href="#font_4_12" transform="matrix(6.9738,0,0,-6.9738,145.4802,108.392)" fill="#555555"/>
<use data-text="t" xlink:href="#font_4_11" transform="matrix(6.9738,0,0,-6.9738,149.8946,108.392)" fill="#555555"/>
<use data-text="p" xlink:href="#font_4_8" transform="matrix(6.9738,0,0,-6.9738,152.67018,108.392)" fill="#555555"/>
<use data-text="u" xlink:href="#font_4_12" transform="matrix(6.9738,0,0,-6.9738,156.87538,108.392)" fill="#555555"/>
<use data-text="t" xlink:href="#font_4_11" transform="matrix(6.9738,0,0,-6.9738,161.2898,108.392)" fill="#555555"/>
</svg>
