<svg xmlns="http://www.w3.org/2000/svg" xmlns:xlink="http://www.w3.org/1999/xlink" xmlns:inkscape="http://www.inkscape.org/namespaces/inkscape" version="1.1" width="435.452" height="71.255" viewBox="0 0 435.452 71.255">
<defs>
<path id="font_1_4" d="M.7879944 .22825623C.7879944 .2502594 .7779999 .2502594 .7619934 .2502594 .7509918 .2502594 .73799136 .2502594 .7369995 .23426819 .72898867 .089263919 .59599307 .03727722 .5009918 .03727722 .44699098 .03727722 .34999085 .04827881 .2829895 .12226868 .22999573 .18226624 .22299195 .2752533 .22299195 .34326173 .22299195 .46324159 .24699402 .52323916 .28799439 .5692444 .33499146 .62223818 .41600038 .64923098 .49899293 .64923098 .58699038 .64923098 .7029877 .5962372 .72898867 .43725587 .73098757 .42425538 .7429962 .42425538 .7579956 .42425538 .7849884 .42425538 .7879944 .42625428 .7879944 .45324708V.6692352C.7879944 .6872406 .7879944 .6982422 .7679901 .6982422 .7579956 .6982422 .7559967 .696228 .746994 .6882324L.68099978 .63023379C.6239929 .676239 .5509949 .6982422 .47799684 .6982422 .21998596 .6982422 .06599426 .5462494 .06599426 .34326173 .06599426 .14526367 .21398926-.01171875 .47898866-.01171875 .6669922-.01171875 .7879944 .10827637 .7879944 .22825623Z"/>
<path id="font_1_14" d="M.8809967 .63653567V.6855469C.81599429 .6826172 .7879944 .6826172 .7449951 .6826172 .70098879 .6825409 .673996 .6825409 .60798647 .6855469V.63653567H.6339874C.6609955 .63661196 .6629944 .63661196 .68699648 .63360598 .71499636 .63061526 .71598818 .62960818 .71598818 .607605V.20561219L.30699159 .6726074C.29599 .6855469 .2939911 .6855469 .272995 .6855469H.041992189V.63653567H.1499939V.07791138C.1499939 .055923463 .14898682 .05491638 .12098694 .05192566 .09700012 .04899597 .09498596 .04899597 .067993167 .04899597H.041992189V0C.10699463 .0029296876 .1349945 .0029296876 .17799378 .0029296876 .22200012 .0029907227 .24899292 .0029907227 .31498719 0V.04899597H.2889862C.2619934 .048919679 .2599945 .048919679 .23599243 .05192566 .20799256 .05491638 .20698548 .055923463 .20698548 .077926639V.592926L.71499636 .012924194C.7259979 0 .7299957 0 .74398806 0 .772995 0 .772995 .010986328 .772995 .032989503V.60762026C.772995 .62960818 .7739868 .63061526 .8019867 .63360598 .82598879 .63653567 .8279877 .63653567 .8549957 .63653567H.8809967Z"/>
<path id="font_1_3" d="M.61698916 .22207642C.61698916 .35716249 .519989 .4501953 .37199403 .4501953 .2919922 .4501953 .23899842 .41618348 .21998596 .4021759V.69433596L.040985109 .6863251V.6373291C.100997928 .6373291 .10899353 .6373291 .10899353 .5982971V0H.1599884L.20698548 .056991579C.23899842 .025131226 .28799439-.005859375 .35899354-.005859375 .5149994-.005859375 .61698916 .088134769 .61698916 .22216797V.22207642M.48399354 .22416687C.48399354 .18215943 .48399354 .13014221 .46299745 .09414673 .42999269 .038131715 .36898805 .03413391 .34899903 .03413391 .2869873 .03413391 .24699402 .072143558 .22599793 .104141239V.34617616C.25099183 .3781891 .29899598 .41018678 .3600006 .41018678 .48399354 .41018678 .48399354 .2901764 .48399354 .22416687Z"/>
<path id="font_1_12" d="M.29899598 0V.04899597H.23098755V.69433596L.051986696 .6855469V.63653567C.11199951 .63653567 .11999512 .63653567 .11999512 .5975647V.04899597H.051986696V0L.1749878 .0029907227 .29899598 0Z"/>
<path id="font_1_15" d="M.55799868 .21812439C.55799868 .3491211 .46598817 .453125 .29599 .453125 .11999512 .453125 .032989503 .3441162 .032989503 .21812439 .032989503 .09413147 .12298584-.005859375 .29499818-.005859375 .47399903-.005859375 .55799868 .09913635 .55799868 .21812439M.4249878 .22912598C.4249878 .14312744 .4249878 .037139894 .29599 .037139894 .1659851 .037139894 .1659851 .14213562 .1659851 .22912598 .1659851 .3131256 .1659851 .41311646 .29499818 .41311646 .4249878 .41311646 .4249878 .3131256 .4249878 .22912598Z"/>
<path id="font_1_5" d="M.49198915 .11613464C.49198915 .13212586 .47698976 .13212586 .46598817 .13212586 .44599916 .13212586 .44599916 .13113404 .43798829 .11312866 .41799928 .06512451 .37298585 .037139894 .31399537 .037139894 .17199707 .037139894 .17199707 .18112183 .17199707 .22612 .17199707 .28611756 .17298889 .41011048 .3039856 .41011048 .31098939 .41011048 .36499024 .40911866 .36499024 .40411378L.3619995 .39912416C.35299684 .38812257 .34899903 .3721161 .34899903 .35812379 .34899903 .3171234 .37998963 .29312135 .4139862 .29312135 .44499208 .29312135 .47898866 .31411744 .47898866 .3591156 .47898866 .453125 .33898927 .453125 .2999878 .453125 .10798645 .453125 .038986207 .33111573 .038986207 .22212219 .038986207 .09613037 .1289978-.005859375 .29499818-.005859375 .33198548-.005859375 .3809967 .0001373291 .4229889 .026138306 .47999574 .06098938 .49198915 .11299133 .49198915 .115997318V.11613464Z"/>
<path id="font_1_10" d="M.6049957 0V.04899597C.58898928 .04899597 .56900027 .04899597 .55799868 .049987794 .54299929 .052993776 .5389862 .057006837 .5299988 .06800842L.35398866 .2762146 .48999024 .37831117C.5029907 .38731385 .5130005 .3953247 .5779877 .3953247V.44433595C.54599 .44140626 .5169983 .44140626 .49598695 .44140626L.38398744 .44433595V.3953247C.40299989 .395401 .4059906 .39239503 .4119873 .3843994L.21998596 .23840332V.69433596L.040985109 .6855469V.63653567C.100997928 .63653567 .10899353 .63653567 .10899353 .5975647V.04899597H.040985109V0L.16099549 .0029907227C.20399475 .0029907227 .21499634 .0029907227 .28199769 0V.04899597H.21398926V.16989136L.2749939 .21485901C.27799989 .2108612 .4059906 .06298828 .4059906 .0579834 .4059906 .04899597 .3899994 .04899597 .3789978 .04899597V0L.49899293 .0029907227C.5379944 .0029907227 .5649872 .0029907227 .6049957 0Z"/>
<path id="font_2_15" d="M.38398744 .3784027C.38398744 .4133911 .35198976 .44140626 .30799867 .44140626 .24299622 .44140626 .19898987 .39239503 .17799378 .33639527H.1769867V.44140626L.034988405 .43045045V.39746095C.102996829 .39746095 .11099243 .3904419 .11099243 .3413849V.078048709C.11099243 .032989503 .09899902 .032989503 .034988405 .032989503V0C.07398987 .0029907227 .1289978 .0029907227 .15299988 .0029907227 .21199036 .0029907227 .21398926 .0029907227 .2789917 0V.032989503H.25898744C.18598938 .032989503 .18399048 .044006349 .18399048 .08004761V.22824097C.18399048 .30332948 .21499634 .41145326 .31098939 .41345216 .30499269 .40899659 .29499818 .40098573 .29499818 .37799073 .29499818 .34700013 .31900025 .33299256 .33898927 .33299256 .36299134 .33299256 .38398744 .34899903 .38398744 .37799073V.3784027Z"/>
<path id="font_2_5" d="M.44099427 .12036133C.44099427 .12435913 .43798829 .13438416 .4249878 .13438416 .4139862 .13438416 .4119873 .12736511 .4099884 .12136841 .37399293 .024230957 .28799439 .021224976 .269989 .021224976 .22499085 .021224976 .1789856 .042251588 .14898682 .08831787 .11898804 .13438416 .11898804 .19847107 .11898804 .22851563H.41299439C.43499757 .22851563 .44099427 .22851563 .44099427 .25151063 .44099427 .34039308 .3919983 .44628907 .25099183 .44628907 .1269989 .44628907 .02999878 .3433838 .02999878 .21949768 .02999878 .09031677 .13798523-.009765625 .2639923-.009765625 .3909912-.009765625 .44099427 .097335819 .44099427 .12036133M.37298585 .25450135H.11999512C.1289978 .39431764 .21398926 .41827394 .25099183 .41827394 .36799623 .41827394 .37199403 .27748109 .37298585 .25450135Z"/>
<path id="font_2_1" d="M.5139923 .09020996V.14530945H.48298646V.09020996C.48298646 .0491333 .46798707 .033111574 .44699098 .033111574 .4099884 .033111574 .4099884 .079193118 .4099884 .09020996V.29856874C.4099884 .39653016 .31498719 .44628907 .22399903 .44628907 .14099121 .44628907 .066986087 .4143219 .066986087 .34857179 .066986087 .318573 .08799744 .30056764 .11399841 .30056764 .14199829 .30056764 .16099549 .3205719 .16099549 .3475647 .16099549 .37156678 .1459961 .38856507 .12399292 .3935547 .16099549 .41827394 .21499634 .41827394 .22200012 .41827394 .27799989 .41827394 .33399964 .37957765 .33399964 .29756166V.26651C.27598573 .26350404 .20899964 .26049806 .13899231 .23144531 .050994874 .1933899 .033996583 .13528443 .033996583 .10223389 .033996583 .016220093 .1349945-.009765625 .20399475-.009765625 .2769928-.009765625 .32199098 .031219483 .34399415 .07122803 .34899903 .033111574 .375-.0048828127 .4189911-.0048828127 .42900086-.0048828127 .5139923-.00088500979 .5139923 .09010315V.09020996M.33399964 .14111328C.33399964 .04421997 .2519989 .018234253 .21199036 .018234253 .1599884 .018234253 .115997318 .053222658 .115997318 .10122681 .115997318 .16722107 .17799378 .23522949 .33399964 .24023438V.14111328Z"/>
<path id="font_2_4" d="M.55400088 0V.032989503C.48599244 .032989503 .47799684 .039993287 .47799684 .089019779V.69433596L.32899476 .6826172V.6496124C.39698792 .6496124 .40499879 .64263918 .40499879 .5938263V.38339234C.36999513 .42140199 .32299806 .44140626 .2709961 .44140626 .1459961 .44140626 .034988405 .3443756 .034988405 .21531677 .034988405 .09225464 .1349945-.009765625 .26098634-.009765625 .31999208-.009765625 .36898805 .018234253 .4019928 .053237916V-.009765625L.55400088 0M.4019928 .12399292C.4019928 .10598755 .4019928 .101989749 .3869934 .08198547 .35899354 .042236329 .31298829 .018234253 .2659912 .018234253 .21998596 .018234253 .17999268 .042236329 .1559906 .07925415 .1289978 .118270877 .12399292 .16729737 .12399292 .21430969 .12399292 .27233888 .1329956 .3133545 .1559906 .3483734 .17999268 .38539125 .22499085 .4133911 .27598573 .4133911 .32398988 .4133911 .37199403 .38938905 .4019928 .33737184V.12399292Z"/>
<path id="font_2_16" d="M.3829956 .12924195C.3829956 .1772461 .35398866 .24725342 .23498535 .2692566 .22698975 .2712555 .17098999 .28126527 .16699219 .28126527 .13598633 .28826905 .08898926 .30926515 .08898926 .34927369 .08898926 .37927247 .11099243 .4212799 .20599365 .4212799 .31799317 .4212799 .32299806 .33926393 .32499696 .31126405 .32598878 .30326844 .33299256 .30026246 .33999635 .30026246 .35598756 .30026246 .35598756 .30726625 .35598756 .32626344V.4202881C.35598756 .4362793 .35598756 .44628907 .34298707 .44628907 .33799745 .44628907 .33499146 .44628907 .31900025 .4302826 .31698609 .4292755 .30799867 .4202881 .30499269 .4202881 .30499269 .4202881 .3019867 .4202881 .29599 .4242859 .27999879 .43528749 .25099183 .44628907 .20599365 .44628907 .06599426 .44628907 .034988405 .37026979 .034988405 .32226563 .034988405 .27226258 .07199097 .24325562 .07499695 .24024964 .114990238 .21025086 .13798523 .20625305 .20498657 .19424439 .2519989 .18525696 .32899476 .17124939 .32899476 .10324097 .32899476 .0642395 .30299378 .018234253 .21099854 .018234253 .10998535 .018234253 .08099365 .09623718 .067993167 .14924622 .06399536 .1622467 .06298828 .16725159 .050994874 .16725159 .034988405 .16725159 .034988405 .15924073 .034988405 .14024353V.016220093C.034988405 .00022888184 .034988405-.009765625 .04798889-.009765625 .053985597-.009765625 .054992677-.008773804 .07299805 .010223389 .07798767 .0152282719 .08898926 .02822876 .09399414 .033233644 .13899231-.0077667238 .18598938-.009765625 .21199036-.009765625 .33898927-.009765625 .3829956 .06323242 .3829956 .12924195Z"/>
<path id="font_2_18" d="M.35299684 .1250763V.1809845H.32199098V.12705994C.32199098 .058166505 .29100038 .021224976 .25299073 .021224976 .18598938 .021224976 .18598938 .10710144 .18598938 .12307739V.3976593H.33499146V.43066407H.18598938V.6142578H.15499878C.1539917 .52345278 .11299133 .4286499 .019989014 .42565919V.3976593H.10998535V.1250763C.10998535 .008224487 .19999695-.009765625 .24598694-.009765625 .31298829-.010009766 .35299684 .049987794 .35299684 .125V.1250763Z"/>
<path id="font_2_9" d="M.56199648 0V.032989503C.49798585 .032989503 .48599244 .032989503 .48599244 .07814026V.30371095C.48599244 .38746644 .44799806 .44140626 .34298707 .44140626 .25498963 .44140626 .20899964 .3854828 .19099427 .3535614H.18998719V.69433596L.040985109 .6826172V.6496124C.10899353 .6496124 .116989139 .64263918 .116989139 .5938263V.07814026C.116989139 .032989503 .10499573 .032989503 .040985109 .032989503V0C.083999637 .0029907227 .12799073 .0029907227 .15499878 .0029907227 .18399048 .0029907227 .22599793 .0029907227 .2689972 0V.032989503C.20498657 .032989503 .19299317 .032989503 .19299317 .07814026V.2597046C.19299317 .36453248 .272995 .4133911 .33399964 .4133911 .394989 .4133911 .4099884 .37051393 .4099884 .30769349V.07814026C.4099884 .032989503 .397995 .032989503 .33399964 .032989503V0C.3769989 .0029907227 .42099 .0029907227 .44799806 .0029907227 .47698976 .0029907227 .5189972 .0029907227 .56199648 0Z"/>
<path id="font_2_14" d="M.55400088 .21640015C.55400088 .34140016 .45298768 .44140626 .33198548 .44140626 .29299928 .44140626 .23498535 .43139649 .18399048 .37939454V.44140626L.034988405 .43045045V.39746095C.10598755 .39746095 .11099243 .39144898 .11099243 .34947206V-.1159668C.11099243-.16113281 .09899902-.16113281 .034988405-.16113281V-.19413758C.07798767-.19114685 .12199402-.19114685 .14898682-.19114685 .17799378-.19114685 .21998596-.19114685 .2630005-.19413758V-.16113281C.19898987-.16113281 .18699646-.16113281 .18699646-.1159668V.049545289C.23399353-.0017700195 .2849884-.009765625 .31698609-.009765625 .44400025-.009765625 .55400088 .088256839 .55400088 .2163086V.21640015M.46499635 .2163086C.46499635 .101257327 .3929901 .018234253 .31199647 .018234253 .2769928 .018234253 .23098755 .033233644 .19898987 .08325195 .18699646 .1002655 .18699646 .101257327 .18699646 .120269779V.33335877C.20999146 .37338258 .2599945 .4104004 .32299806 .4104004 .3999939 .4104004 .46499635 .32536317 .46499635 .2163086Z"/>
<path id="font_2_13" d="M.5 .21325684C.5 .3382721 .39698792 .44628907 .2649994 .44628907 .1329956 .44628907 .02999878 .3382721 .02999878 .21325684 .02999878 .08824158 .13699341-.009765625 .2649994-.009765625 .3939972-.009765625 .5 .08824158 .5 .21325684M.41099549 .22225952C.41099549 .17625427 .40899659 .12124634 .3809967 .07923889 .35398866 .039230348 .30899049 .021224976 .2649994 .021224976 .21099854 .021224976 .16899109 .047225954 .14698792 .082229617 .12199402 .12324524 .11898804 .17224121 .11898804 .22225952 .11898804 .2602539 .11898804 .32026673 .1499939 .363266 .17599488 .3982849 .21798706 .41827394 .2649994 .41827394 .31698609 .41827394 .3600006 .39328004 .3829956 .35827638 .4099884 .31626893 .41099549 .2622528 .41099549 .22225952Z"/>
<path id="font_2_19" d="M.56199648 .00022888184V.033233644C.49398805 .033233644 .48599244 .040237428 .48599244 .08924866V.44140626L.33399964 .43040467V.3973999C.4019928 .3973999 .4099884 .39039613 .4099884 .34136964V.16726685C.4099884 .08125305 .35798646 .018234253 .2829895 .018234253 .19699097 .018234253 .19299317 .06123352 .19299317 .11126709V.44140626L.040985109 .43040467V.3973999C.116989139 .3973999 .116989139 .39439393 .116989139 .30534364V.15527344C.116989139 .08325195 .116989139-.009765625 .2769928-.009765625 .37098695-.009765625 .40699769 .0622406 .4119873 .071243289H.41299439V-.009765625L.56199648 .00022888184Z"/>
<path id="font_2_10" d="M.2669983 0V.032989503C.20298767 .032989503 .19099427 .032989503 .19099427 .07801819V.69433596L.041992189 .6826172V.6496124C.10998535 .6496124 .117996219 .64260867 .117996219 .5936432V.07795715C.117996219 .032989503 .10598755 .032989503 .041992189 .032989503V0C.08099365 .0029907227 .13699341 .0029907227 .1539917 .0029907227 .17399597 .0029907227 .22799683 .0029907227 .2669983 0Z"/>
<path id="font_2_20" d="M.2599945 .0001373291V.03314209C.19499207 .03314209 .19099427 .038146974 .19099427 .07714844V.44140626L.04499817 .43045045V.39746095C.10899353 .39746095 .117996219 .39144898 .117996219 .34239198V.07814026C.117996219 .03314209 .10598755 .03314209 .041992189 .03314209V0C.08099365 .0029907227 .13699341 .0029907227 .1519928 .0029907227 .16499329 .0029907227 .22499085 .0029907227 .2599945 0V.0001373291M.20298767 .6021881C.20298767 .6351929 .1769867 .6582031 .147995 .6582031 .11898804 .6582031 .09298706 .6351929 .09298706 .6021881 .09298706 .5731964 .115997318 .54719546 .147995 .54719546 .1789856 .54719546 .20298767 .5731964 .20298767 .6021881Z"/>
<path id="font_2_12" d="M.56199648 0V.032989503C.49798585 .032989503 .48599244 .032989503 .48599244 .07803345V.3032837C.48599244 .38737489 .44799806 .44140626 .34298707 .44140626 .24398804 .44140626 .19898987 .36935426 .18699646 .34532167H.18598938V.44140626L.040985109 .43045045V.39746095C.10899353 .39746095 .116989139 .3904419 .116989139 .3413849V.078048709C.116989139 .032989503 .10499573 .032989503 .040985109 .032989503V0C.083999637 .0029907227 .12799073 .0029907227 .15499878 .0029907227 .18399048 .0029907227 .22599793 .0029907227 .2689972 0V.032989503C.20498657 .032989503 .19299317 .032989503 .19299317 .078048709V.25927735C.19299317 .36434938 .272995 .4133911 .33399964 .4133911 .394989 .4133911 .4099884 .37036134 .4099884 .3072815V.07803345C.4099884 .032989503 .397995 .032989503 .33399964 .032989503V0C.3769989 .0029907227 .42099 .0029907227 .44799806 .0029907227 .47698976 .0029907227 .5189972 .0029907227 .56199648 0Z"/>
<path id="font_2_17" d="M.47099305 .72698977C.47099305 .73999026 .46099855 .75 .44799806 .75 .43199159 .75 .42799378 .73799136 .4229889 .7259979L.06399536-.2090149C.05899048-.2210083 .05899048-.227005 .05899048-.227005 .05899048-.2400055 .068984989-.25 .08198547-.25 .09799194-.25 .101989749-.23800659 .10699463-.22601319L.46598817 .70899966C.47099305 .72099307 .47099305 .72698977 .47099305 .72698977Z"/>
<path id="font_2_21" d="M.22698975-.04560852V.44140626L.069992069 .43040467V.3973999C.14498902 .3973999 .1539917 .39039613 .1539917 .34140016V-.047607423C.1539917-.07510376 .1499939-.17610169 .08099365-.17610169 .06599426-.17610169 .04399109-.17210388 .0309906-.16711426 .036987306-.16511536 .057998659-.15211487 .057998659-.12411499 .057998659-.09710693 .038986207-.07710266 .010986328-.07710266-.014007568-.07710266-.036010744-.09411621-.036010744-.12510681-.036010744-.17610169 .019989014-.20410156 .08198547-.20410156 .1619873-.20401001 .22698975-.14001465 .22698975-.04600525V-.04560852M.22698975 .6021881C.22698975 .6351929 .20098877 .6582031 .17199707 .6582031 .14299011 .6582031 .116989139 .6351929 .116989139 .6021881 .116989139 .5731964 .13999939 .54719546 .17199707 .54719546 .20298767 .54719546 .22698975 .5731964 .22698975 .6021881Z"/>
<path id="font_2_2" d="M.55400088 .21650696C.55400088 .3425293 .45098878 .44140626 .32899476 .44140626 .25 .44140626 .20098877 .39845277 .18399048 .38053895V.69433596L.034988405 .68333438V.6503296C.102996829 .6503296 .11099243 .6433258 .11099243 .5943451V.00048828127H.14199829L.17799378 .0625C.20199585 .02822876 .24899292-.009765625 .31698609-.009765625 .44400025-.009765625 .55400088 .08828735 .55400088 .21640015V.21650696M.46499635 .21740723C.46499635 .19438172 .46499635 .12332153 .42900086 .07627869 .3929901 .031234742 .34599305 .018234253 .31298829 .018234253 .2649994 .018234253 .22499085 .04324341 .19898987 .08229065 .18699646 .1013031 .18699646 .10231018 .18699646 .12132263V.3164978C.18699646 .33551026 .18699646 .3375244 .20199585 .3555298 .23098755 .39248658 .27799989 .4133911 .32299806 .4133911 .375 .4133911 .4139862 .38252259 .43399049 .35253907 .45098878 .3255005 .46499635 .29048158 .46499635 .21740723Z"/>
<path id="font_3_3" d="M.5109863 .37335206C.5119934 .37835694 .5149994 .38937379 .5149994 .39437867 .5149994 .4104004 .5019989 .4223938 .4850006 .4223938 .46499635 .4223938 .44799806 .4073944 .44299317 .38737489 .43199159 .4073944 .4039917 .44140626 .35198976 .44140626 .23599243 .44140626 .114990238 .3002777 .114990238 .15812683 .114990238 .058029176 .17599488 0 .24798584 0 .2849884 0 .32199098 .016998291 .3600006 .05001831L.33898927-.0340271C.32798768-.076049808 .32199098-.10006714 .29299928-.13208008 .25099183-.17610169 .20698548-.17610169 .18899536-.17610169 .17399597-.17610169 .147995-.17610169 .12098694-.16810608 .14399719-.15409851 .1459961-.12608338 .1459961-.12608338 .1459961-.10606384 .13198853-.092056278 .10998535-.092056278 .084991458-.092056278 .05999756-.11306763 .05999756-.14608765 .05999756-.19810486 .125-.20410156 .18699646-.20410156 .31399537-.20410156 .3849945-.13108826 .40098573-.06604004L.5109863 .37335206M.3829956 .14111328C.37399293 .10507202 .30899049 .027999878 .25 .027999878 .20698548 .027999878 .18798828 .07203674 .18798828 .11808777 .18798828 .1621399 .21398926 .2682495 .23599243 .31430055 .2669983 .3773651 .31399537 .4133911 .35198976 .4133911 .4139862 .4133911 .4269867 .333313 .4269867 .32130433 .4269867 .31729127 .42599488 .31529237 .42399598 .30628968L.3829956 .14111328Z"/>
<path id="font_3_7" d="M.5149994 .3723755C.5149994 .43040467 .44299317 .44140626 .40899659 .44140626 .35099793 .44140626 .30899049 .4093933 .2809906 .3723755 .27198792 .4104004 .23899842 .44140626 .19099427 .44140626 .15699768 .44140626 .1329956 .4223938 .11299133 .38739015 .09498596 .3533783 .07998657 .29335023 .07998657 .28834535 .07998657 .27534486 .09298706 .27534486 .09899902 .27534486 .114990238 .27534486 .115997318 .27835084 .12199402 .3023529 .13699341 .3613739 .15499878 .4133911 .18899536 .4133911 .21699524 .4133911 .21699524 .37838746 .21699524 .36938478 .21699524 .3553772 .21499634 .33937074 .21099854 .32536317L.13798523 .0332489C.13598633 .024246216 .1349945 .021240235 .1349945 .018234253 .1349945 .0022277833 .147995-.009765625 .16499329-.009765625 .19299317-.009765625 .20298767 .01322937 .20698548 .02923584L.2679901 .27433778C.2709961 .28834535 .31799317 .4133911 .4079895 .4133911 .4169922 .4133911 .44499208 .4123993 .46398927 .39738465 .43199159 .38539125 .42999269 .359375 .42999269 .3513794 .42999269 .32336427 .45199586 .3173523 .46499635 .3173523 .48399354 .3173523 .5149994 .33135987 .5149994 .3723755Z"/>
<path id="font_3_8" d="M.35499574 .14328003C.35499574 .15628052 .34098817 .15628052 .33599855 .15628052 .31999208 .15628052 .31900025 .15228272 .31399537 .13528443 .29599 .070251468 .2630005 .018234253 .22099304 .018234253 .20199585 .018234253 .19898987 .032226564 .19898987 .050247194 .19898987 .07325745 .20498657 .09025574 .22099304 .13227844L.2869873 .3063507C.29499818 .32835389 .29899598 .33836366 .29899598 .35836793 .29899598 .4133911 .2579956 .44140626 .21598816 .44140626 .12098694 .44140626 .07998657 .30134584 .07998657 .28834535 .07998657 .27534486 .09298706 .27534486 .09899902 .27534486 .114990238 .27534486 .115997318 .27833558 .11999512 .29634095 .1349945 .3483734 .1659851 .4133911 .21398926 .4133911 .23199463 .4133911 .23599243 .40039063 .23599243 .38238526 .23599243 .359375 .22898865 .34036256 .21598816 .3053589L.1459961 .119277957C.14199829 .10926819 .1349945 .09126282 .1349945 .07325745 .1349945 .027236939 .16799927-.009765625 .21899414-.009765625 .31399537-.009765625 .35499574 .13127136 .35499574 .14328003M.37098695 .6082916C.37098695 .6432953 .34298707 .6542969 .32499696 .6542969 .29100038 .6542969 .2579956 .623291 .2579956 .58929446 .2579956 .55929568 .2809906 .5432892 .3039856 .5432892 .33699037 .5432892 .37098695 .57229617 .37098695 .6082916Z"/>
<path id="font_3_2" d="M.57499697 .14328003C.57499697 .15628052 .5609894 .15628052 .55599978 .15628052 .5389862 .15628052 .5389862 .1532898 .5329895 .12828064 .5139923 .051239015 .49299623 .018234253 .46598817 .018234253 .43798829 .018234253 .43798829 .050247194 .43798829 .0622406 .43798829 .06825256 .43798829 .07925415 .44099427 .09126282L.58399966 .66529849C.58499148 .6693115 .58699038 .67630007 .58699038 .68029788 .58699038 .6953125 .57099917 .6943054 .55999758 .69329836L.45599366 .6843109C.44198609 .68330386 .43099977 .682312 .43099977 .66430667 .43099977 .6502991 .44299317 .6502991 .45700074 .6502991 .5049896 .6502991 .5049896 .64430239 .5049896 .63531497 .5049896 .63031008 .5019989 .61932376 .5009918 .613327L.44400025 .38539125C.4229889 .4203949 .3939972 .44140626 .35198976 .44140626 .23399353 .44140626 .11299133 .29335023 .11299133 .15028382 .11299133 .054244996 .16999817-.009765625 .24499512-.009765625 .3039856-.009765625 .35299684 .034240724 .37399293 .058242799 .3829956 .021224976 .41600038-.009765625 .46398927-.009765625 .5-.009765625 .5239868 .01222229 .54100039 .04324341 .56199648 .08325195 .57499697 .14328003 .57499697 .14328003M.3809967 .13327027C.37298585 .0982666 .30699159 .018234253 .24798584 .018234253 .20098877 .018234253 .18598938 .069244388 .18598938 .10926819 .18598938 .15628052 .21499634 .27433778 .23999024 .32035829 .27999879 .39338685 .32398988 .4133911 .35198976 .4133911 .4149933 .4133911 .42599488 .32835389 .42599488 .31835938L.4229889 .3043518 .3809967 .13327027Z"/>
<path id="font_2_3" d="M.44099427 .12031555C.44099427 .13232422 .42799378 .13232422 .4249878 .13232422 .41799928 .13232422 .41299439 .13131714 .4099884 .12130737 .40299989 .10029602 .375 .021224976 .2749939 .021224976 .21299744 .021224976 .12399292 .0692749 .12399292 .21739197 .12399292 .3614807 .19799805 .4152832 .2709961 .4152832 .27999879 .4152832 .33299256 .4152832 .36799623 .39746095 .33999635 .3884735 .33599855 .36547853 .33599855 .35346986 .33599855 .32647706 .35499574 .30647279 .3829956 .30647279 .40899659 .30625917 .42999269 .32426454 .42999269 .35427857 .42999269 .41627503 .3619995 .44628907 .2679901 .44628907 .1289978 .44628907 .034988405 .3352661 .034988405 .21624756 .034988405 .0892334 .13899231-.009765625 .2649994-.009765625 .4059906-.009765625 .44099427 .10824585 .44099427 .12023926V.12031555Z"/>
<path id="font_1_8" d="M.8699951 .22833252V.27734376C.83099368 .27433778 .74398806 .27433778 .70098879 .27433778 .651001 .27433778 .5389862 .27433778 .49499513 .27734376V.22833252H.6429901V.12831116C.6429901 .107299808 .6429901 .07829285 .59999087 .056274415 .57398989 .043273927 .5399933 .03727722 .5069885 .03727722 .45298768 .03727722 .35299684 .04727173 .2829895 .124298099 .22399903 .19032288 .22299195 .30133058 .22299195 .34431459 .22299195 .41929627 .23199463 .51327517 .2919922 .5742645 .3600006 .64224246 .45599366 .64923098 .49899293 .64923098 .58699038 .64923098 .7029877 .59625247 .72898867 .43728639 .73098757 .42430116 .7429962 .42430116 .7579956 .42430116 .7849884 .42430116 .7879944 .42630006 .7879944 .45329286V.6692352C.7879944 .6872406 .7879944 .6982422 .7679901 .6982422 .7579956 .6982422 .7559967 .696228 .746994 .6882324L.68099978 .630249C.6239929 .676239 .5509949 .6982422 .47799684 .6982422 .21998596 .6982422 .06599426 .54626467 .06599426 .34332276 .06599426 .14930725 .20999146-.01171875 .47999574-.01171875 .526001-.012008667 .6239929-.009002686 .6759949 .04899597 .70399478 .027999878 .7649994 0 .772995 0 .7879944 0 .7879944 .01499939 .7879944 .0289917V.22833252H.8699951Z"/>
<path id="font_1_1" d="M.848999 0V.04899597H.7519989L.48999024 .67318728C.47898866 .7001953 .46398927 .7001953 .44599916 .7001953 .42799378 .7001953 .41299439 .7001953 .4019928 .67318728L.14898682 .072006229C.14199829 .055923463 .14199829 .05491638 .116989139 .05192566 .099990848 .049987794 .08099365 .04899597 .06399536 .04899597H.042999269V0C.09899902 .0019226074 .11199951 .0029296876 .16499329 .0029296876 .20399475 .0029907227 .23599243 .0029907227 .2979889 0V.04899597C.2709961 .04899597 .23699951 .04899597 .20899964 .060012819L.2639923 .1921997H.54100039L.6009979 .04899597H.5069885V0C.5419922 .0029296876 .6429901 .0029296876 .6839905 .0029296876 .7259979 .0029907227 .8109894 .0029907227 .848999 0M.519989 .24121094H.2849884L.40299989 .5212097 .519989 .24121094Z"/>
<path id="font_1_17" d="M.7789917 .4308777 .7569885 .6738281H.06498718L.042999269 .4308777H.09399414C.10398865 .5418396 .11299133 .6248169 .2599945 .6248169H.33898927V.04899597H.18598938V0C.22999573 .0029907227 .3600006 .0029907227 .4119873 .0029907227 .46398927 .0029907227 .59298709 .0029907227 .6369934 0V.04899597H.48399354V.6248169H.5629883C.70999148 .6248169 .71798709 .5398407 .7279968 .4308777H.7789917Z"/>
<path id="font_2_6" d="M.3769989 .63201907C.3769989 .6750946 .33499146 .70410159 .28199769 .70410159 .20698548 .70410159 .117996219 .65005496 .117996219 .54286196V.43066407H.035995485V.3976593H.117996219V.07795715C.117996219 .032989503 .10598755 .032989503 .041992189 .032989503V0C.08099365 .0029907227 .13598633 .0029907227 .1599884 .0029907227 .21899414 .0029907227 .22099304 .0029907227 .28599549 0V.032989503H.2659912C.19299317 .032989503 .19099427 .04397583 .19099427 .079956058V.3976593H.31098939V.43066407H.18798828V.54385378C.18798828 .63108828 .23699951 .6760864 .2809906 .6760864 .29699708 .6760864 .30599977 .6720886 .30999757 .6710968 .2919922 .6620941 .2869873 .6450958 .2869873 .63209536 .2869873 .60609439 .30599977 .58709719 .33198548 .58709719 .35899354 .58709719 .3769989 .60609439 .3769989 .63209536V.63201907Z"/>
<path id="font_2_11" d="M.8569946 0V.032989503C.79299929 .032989503 .7809906 .032989503 .7809906 .07803345V.3032837C.7809906 .3843689 .74598696 .44140626 .6369934 .44140626 .54499819 .44140626 .49899293 .37835694 .48298646 .34933473 .46499635 .42140199 .4079895 .44140626 .34298707 .44140626 .24598694 .44140626 .19999695 .37236024 .18699646 .34532167H.18598938V.44140626L.040985109 .43045045V.39746095C.10899353 .39746095 .116989139 .3904419 .116989139 .3413849V.078048709C.116989139 .032989503 .10499573 .032989503 .040985109 .032989503V0C.083999637 .0029907227 .12799073 .0029907227 .15499878 .0029907227 .18399048 .0029907227 .22599793 .0029907227 .2689972 0V.032989503C.20498657 .032989503 .19299317 .032989503 .19299317 .078048709V.25927735C.19299317 .36434938 .27198792 .4133911 .33499146 .4133911 .3999939 .4133911 .41099549 .36235047 .41099549 .3072815V.07803345C.41099549 .032989503 .39898683 .032989503 .33499146 .032989503V0C.37799073 .0029907227 .42199708 .0029907227 .44898988 .0029907227 .47799684 .0029907227 .519989 .0029907227 .5629883 0V.032989503C.49899293 .032989503 .4869995 .032989503 .4869995 .07803345V.25923158C.4869995 .36434938 .56599429 .4133911 .6289978 .4133911 .69400027 .4133911 .7049866 .36235047 .7049866 .3072815V.07803345C.7049866 .032989503 .69299319 .032989503 .6289978 .032989503V0C.6719971 .0029907227 .71598818 .0029907227 .7429962 .0029907227 .7719879 .0029907227 .81399539 .0029907227 .8569946 0Z"/>
<path id="font_2_8" d="M.5149994 .40124513C.5149994 .418396 .5019989 .45239259 .45799256 .45239259 .44099427 .45239259 .3929901 .44839479 .34700013 .40625 .32199098 .4243927 .2829895 .44140626 .23599243 .44140626 .13699341 .44140626 .06399536 .37223817 .06399536 .294281 .06399536 .2472992 .08999634 .21231079 .11099243 .19232178 .08898926 .16732788 .08099365 .13531494 .08099365 .111328128 .08099365 .07032776 .100997928 .0393219 .12298584 .022323609 .070999149 .007904053 .02999878-.031097413 .02999878-.0770874 .02999878-.14909363 .1329956-.20507813 .2649994-.20507813 .3899994-.20507813 .5-.15408325 .5-.0750885 .5-.021102906 .46798707 .020904541 .43499757 .037902833 .37599183 .06889343 .32699586 .06889343 .22898865 .06889343H.17298889C.14199829 .07191467 .116989139 .099105838 .116989139 .13536072 .116989139 .15945435 .12298584 .16845703 .12998963 .17745972 .17199707 .15245056 .21099854 .14746094 .23498535 .14746094 .33399964 .14746094 .40699769 .21644593 .40699769 .29444886 .40699769 .3324585 .3899994 .36445619 .3659973 .39045716 .37998963 .40245057 .41299439 .42344667 .46199037 .42445375 .45799256 .42144776 .45298768 .41645814 .45298768 .40045167 .45298768 .3824463 .46598817 .36946107 .48399354 .36946107 .49798585 .36946107 .5149994 .3784485 .5149994 .40145875V.40124513M.32798768 .29444886C.32798768 .2574463 .32299806 .23146057 .30799867 .2114563 .28599549 .18345642 .2539978 .17645264 .23599243 .17645264 .14299011 .1761322 .14299011 .27218629 .14299011 .29418946 .14299011 .33122254 .147995 .35723878 .16299439 .37724305 .17999268 .40023805 .20799256 .4123993 .23498535 .4123993 .32798768 .4123993 .32798768 .3162079 .32798768 .29418946V.29444886M.44099427-.07601929C.44099427-.13005066 .3639984-.17608643 .2649994-.17608643 .16499329-.17610169 .08898926-.13009644 .08898926-.07609558 .08898926-.055099489 .10499573 .00390625 .18699646 .00390625H.2829895C.30999757 .00390625 .44099427 .00390625 .44099427-.07609558V-.07601929Z"/>
<path id="font_3_5" d="M.5399933 .27233888C.5399933 .37638856 .46998597 .44140626 .37998963 .44140626 .25099183 .44140626 .114990238 .3063507 .114990238 .1592865 .114990238 .049240114 .18998719-.009765625 .27398683-.009765625 .40699769-.009765625 .5399933 .12828064 .5399933 .27233888M.46499635 .3073578C.46499635 .27534486 .44999696 .17829895 .40899659 .11026001 .3769989 .055236818 .32299806 .018234253 .2749939 .018234253 .23699951 .018234253 .18998719 .04423523 .18998719 .12426758 .18998719 .16929627 .21099854 .26333619 .24299622 .31835938 .28599549 .39038087 .34498597 .4133911 .3789978 .4133911 .4269867 .4133911 .46499635 .37738038 .46499635 .3073578Z"/>
<path id="font_3_1" d="M.5649872 .14328003C.5649872 .15628052 .5509949 .15628052 .54599 .15628052 .5289917 .15628052 .5289917 .1532898 .522995 .12828064 .5039978 .051239015 .48298646 .018234253 .45599366 .018234253 .42799378 .018234253 .42799378 .050247194 .42799378 .0622406 .42799378 .069244388 .42799378 .07925415 .43099977 .09126282L.5009918 .37338258C.5019989 .37838746 .5049896 .38938905 .5049896 .39439393 .5049896 .4104004 .49198915 .4223938 .47499085 .4223938 .46099855 .4223938 .43899537 .4133911 .43399049 .38539125 .41299439 .4203949 .38398744 .44140626 .34199525 .44140626 .22399903 .44140626 .102996829 .29335023 .102996829 .15028382 .102996829 .054244996 .1599884-.009765625 .23498535-.009765625 .2939911-.009765625 .34298707 .034240724 .3639984 .058242799 .37298585 .021224976 .4059906-.009765625 .45399476-.009765625 .48999024-.009765625 .5139923 .01222229 .5309906 .04324341 .5519867 .08325195 .5649872 .14328003 .5649872 .14328003M.37098695 .13327027C.36299134 .0982666 .29699708 .018234253 .23799134 .018234253 .19099427 .018234253 .17599488 .069244388 .17599488 .10926819 .17599488 .15628052 .20498657 .27433778 .22999573 .32035829 .269989 .39338685 .31399537 .4133911 .34199525 .4133911 .40499879 .4133911 .41600038 .32835389 .41600038 .31835938L.41299439 .3043518 .37098695 .13327027Z"/>
<path id="font_3_6" d="M.54100039 .28134156C.54100039 .38938905 .47499085 .44140626 .40899659 .44140626 .35398866 .44140626 .30599977 .4013977 .27999879 .37338258 .2679901 .42140199 .22698975 .44140626 .19099427 .44140626 .15699768 .44140626 .1329956 .4223938 .11299133 .38739015 .09498596 .3533783 .07998657 .29335023 .07998657 .28834535 .07998657 .27534486 .09298706 .27534486 .09899902 .27534486 .114990238 .27534486 .115997318 .27833558 .12199402 .3023529 .13699341 .3613739 .15499878 .4133911 .18899536 .4133911 .21699524 .4133911 .21699524 .37838746 .21699524 .36938478 .21699524 .35437013 .21499634 .34736634 .21398926 .34236146L.09899902-.123046878C.09098816-.15612793 .084991458-.16113281 .04699707-.16113281 .035995485-.16113281 .022994996-.16113281 .022994996-.18014527 .022994996-.18414307 .024993897-.19413758 .036987306-.19413758 .04598999-.19413758 .050994874-.19114685 .12298584-.19114685 .19400025-.19114685 .21099854-.19413758 .21899414-.19413758 .22399903-.19413758 .23799134-.19413758 .23799134-.17514038 .23799134-.16113281 .22499085-.16113281 .21299744-.16113281 .18499756-.16113281 .1639862-.16113281 .1639862-.14710999 .1639862-.14208985 .17098999-.11503601 .1749878-.098983768L.21099854 .04623413C.23298645 .008224487 .2649994-.009765625 .30299378-.009765625 .41600038-.009765625 .54100039 .13027954 .54100039 .28134156M.4189911 .119277957C.3869934 .053237916 .33999635 .018234253 .30299378 .018234253 .23799134 .018234253 .22799683 .10626221 .22799683 .11326599 .22799683 .11627197 .22999573 .121276859 .23098755 .12626648L.27398683 .29734803C.27799989 .31436158 .2789917 .31636048 .29299928 .33636476 .33799745 .39538575 .3789978 .4133911 .40699769 .4133911 .43699647 .4133911 .46798707 .38938905 .46798707 .32136537 .46798707 .26834107 .43899537 .1612854 .4189911 .119277957Z"/>
<path id="font_3_4" d="M.57499697 .14328003C.57499697 .15628052 .5609894 .15628052 .55599978 .15628052 .5399933 .15628052 .5389862 .15228272 .5339966 .13528443 .5159912 .071243289 .48298646 .018234253 .43998719 .018234253 .42099 .018234253 .41799928 .032226564 .41799928 .050247194 .41799928 .07325745 .42599488 .09425354 .43299867 .11427307 .45298768 .16729737 .49398805 .27534486 .49398805 .33335877 .49398805 .41940309 .43399049 .44140626 .37998963 .44140626 .30599977 .44140626 .2619934 .3993988 .23799134 .3743744L.31098939 .66529849C.31199647 .6693115 .31399537 .67630007 .31399537 .68029788 .31399537 .6953125 .2979889 .6943054 .2869873 .69329836L.18299866 .6843109C.16899109 .68330386 .1579895 .682312 .1579895 .66430667 .1579895 .6502991 .16999817 .6502991 .18399048 .6502991 .23199463 .6502991 .23199463 .64430239 .23199463 .63531497 .23199463 .63031008 .22898865 .61932376 .22799683 .613327L.08299255 .034240724C.08198547 .030227662 .07998657 .023223877 .07998657 .019226075 .07998657 .0052337648 .08999634-.009765625 .11099243-.009765625 .1269989-.009765625 .14199829 .0012207031 .14698792 .0152282719 .1499939 .020233155 .1749878 .12327576 .19299317 .19430542 .19799805 .2163086 .20399475 .23731995 .20899964 .25933839 .21499634 .28334046 .2689972 .4133911 .3769989 .4133911 .41799928 .4133911 .42799378 .38137818 .42799378 .34736634 .42799378 .28933717 .38598634 .17630005 .36698915 .12527466 .3600006 .10726929 .35398866 .09126282 .35398866 .07325745 .35398866 .027236939 .3869934-.009765625 .43798829-.009765625 .5329895-.009765625 .57499697 .12927246 .57499697 .14328003Z"/>
<path id="font_1_13" d="M1.0759888 0V.04899597H.96798709V.63653567H1.0759888V.6855469H.8529968C.83200076 .6855469 .81900027 .6855469 .8069916 .6605377L.5609894 .13093567 .31599427 .6595459C.3039856 .6855469 .2899933 .6855469 .2689972 .6855469H.04499817V.63653567H.15299988V.07797241C.15299988 .055923463 .1519928 .05491638 .12399292 .05192566 .099990848 .04899597 .09799194 .04899597 .070999149 .04899597H.04499817V0C.10998535 .0029296876 .13798523 .0029296876 .18099976 .0029296876 .22499085 .0029907227 .2519989 .0029907227 .31799317 0V.04899597H.2919922C.2649994 .048919679 .2630005 .048919679 .23899842 .05192566 .21099854 .05491638 .20999146 .055923463 .20999146 .077926639V.6229248H.21099854L.48799134 .025924683C.49198915 .016998291 .5 0 .5219879 0 .54499819 0 .5519867 .015991211 .5569916 .025985718L.83999636 .6359863H.84098818V.04899597H.73298647V0C.7679901 .0029296876 .8639984 .0029296876 .9039917 .0029296876 .94400027 .0029907227 1.0410004 .0029907227 1.0759888 0Z"/>
<path id="font_1_11" d="M.6609955 .27581788H.6100006C.60198977 .2068634 .58499148 .04899597 .4019928 .04899597H.29499818V.63653567H.42999269V.6855469C.3889923 .6825409 .27598573 .6825409 .22898865 .6825409 .18699646 .6825409 .07699585 .6825409 .041992189 .6855469V.63653567H.1499939V.04899597H.041992189V0H.6299896L.6609955 .27581788Z"/>
<path id="font_1_16" d="M.7409973 .48965455C.7409973 .5995636 .6399994 .6855469 .46899415 .6855469H.041992189V.63653567H.1499939V.04899597H.041992189V0C.07699585 .0029907227 .18099976 .0029907227 .22200012 .0029907227 .2630005 .0029907227 .36799623 .0029907227 .40299989 0V.04899597H.29499818V.2987671H.47898866C.621994 .2987671 .7409973 .37174989 .7409973 .48965455M.58399966 .48965455C.58399966 .41970826 .58399966 .34277345 .42999269 .34277345H.2889862V.63653567H.43099977C.58399966 .63653567 .58399966 .56059268 .58399966 .48965455Z"/>
<path id="font_1_9" d="M.6299896 0V.04899597H.56199648V.30513C.56199648 .42419435 .48999024 .4501953 .40299989 .4501953 .30799867 .4501953 .25498963 .3961792 .22898865 .35516358V.69433596L.049987794 .6855469V.63653567C.10998535 .63653567 .117996219 .63653567 .117996219 .5976715V.04899597H.049987794V0L.17599488 .0029907227 .30299378 0V.04899597H.23498535V.2541046C.23498535 .36616517 .32699586 .41018678 .3869934 .41018678 .4249878 .41018678 .44499208 .38917542 .44499208 .3141327V.04899597H.3769989V0L.5029907 .0029907227 .6299896 0Z"/>
<path id="font_1_7" d="M.5089874 .11605835C.5089874 .13604737 .4889984 .13604737 .48298646 .13604737 .46499635 .13604737 .46299745 .13005066 .45700074 .11605835 .43399049 .06410217 .37298585 .037139894 .30999757 .037139894 .16799927 .037139894 .1659851 .16601563 .1659851 .21496582H.47599793C.49699403 .21496582 .5089874 .21496582 .5089874 .2429657 .5089874 .26498414 .5069885 .35305787 .44198609 .4071045 .39698792 .4441223 .33699037 .453125 .28799439 .453125 .116989139 .453125 .032989503 .345047 .032989503 .22497559 .032989503 .09408569 .13198853-.005859375 .3019867-.005859375 .46699525-.005859375 .5089874 .1000824 .5089874 .11605835M.41099549 .25097657H.1659851C.16799927 .29701234 .17298889 .41311646 .28799439 .41311646 .40499879 .41311646 .40899659 .29100038 .41099549 .25097657Z"/>
<path id="font_1_2" d="M.56900027 .025131226C.56900027 .0491333 .5529938 .0491333 .54299929 .0491333 .47898866 .050125123 .47898866 .060134889 .47898866 .08413696V.29812623C.47898866 .38612367 .40699769 .453125 .25299073 .453125 .19599915 .453125 .067993167 .45111085 .067993167 .3591156 .067993167 .31411744 .101989749 .29312135 .1329956 .29312135 .16699219 .29312135 .19799805 .3171234 .19799805 .35812379 .19799805 .38711549 .18099976 .40411378 .17799378 .40711976 .18798828 .40911866 .21199036 .41311646 .24899292 .41311646 .32099916 .41311646 .3619995 .37712098 .3619995 .29812623V.26612855C.19599915 .26612855 .027999878 .22312927 .027999878 .11213684 .027999878 .013137817 .15299988-.005859375 .22499085-.005859375 .30099488-.005859375 .35299684 .027130127 .37998963 .0741272 .37998963 .04798889 .37998963 0 .4869995 0H.5359955C.5549927 0 .56900027 0 .56900027 .024993897V.025131226M.3619995 .13899231C.3619995 .033996583 .24598694 .033996583 .24198914 .033996583 .19099427 .033996583 .14898682 .066986087 .14898682 .11199951 .14898682 .14498902 .16699219 .22299195 .3619995 .23199463V.13899231Z"/>
<path id="font_1_6" d="M.61499026 0V.04899597C.5549927 .04899597 .5469971 .04899597 .5469971 .088012699V.69433596L.36799623 .6855469V.63653567C.42799378 .63653567 .43598939 .63653567 .43598939 .5976715V.40518189C.3919983 .43719483 .34498597 .4501953 .29699708 .4501953 .13398743 .4501953 .038986207 .35118104 .038986207 .22216797 .038986207 .089141849 .1329956-.005859375 .2849884-.005859375 .34799195-.005859375 .397995 .018127442 .42999269 .044128419V-.005859375L.61499026 0M.42999269 .10899353C.4079895 .074142459 .3600006 .03413391 .29599 .03413391 .17199707 .03413391 .17199707 .15414429 .17199707 .22015381 .17199707 .27816773 .17298889 .32118226 .19898987 .3581848 .22499085 .39819337 .272995 .41018678 .30799867 .41018678 .35798646 .41018678 .39898683 .3881836 .42999269 .34918214V.10899353Z"/>
<path id="font_2_7" d="M.848999 0V.032989503C.7849884 .032989503 .772995 .032989503 .772995 .07795715V.44302369L.6419983 .43374635C.6309967 .432724 .6259918 .432724 .6239929 .4316864 .621994 .43066407 .6199951 .43066407 .60598757 .43066407H.47599793V.54003909C.47599793 .6387329 .56900027 .6760864 .6309967 .6760864 .6609955 .6760864 .69099429 .6689911 .71598818 .6497345 .71598818 .6497345 .6749878 .64172366 .6749878 .60072329 .6749878 .5687256 .70098879 .5527344 .72299197 .5527344 .7369995 .5527344 .7709961 .5617218 .7709961 .60272219 .7709961 .6558075 .71899417 .70410159 .6339874 .70410159 .58999636 .70410159 .5209961 .6950989 .45999146 .6487274 .44198609 .67507937 .40299989 .70410159 .33699037 .70410159 .23999024 .70410159 .11099243 .6548004 .11099243 .5410156V.43066407H.0289917V.3976593H.11099243V.07795715C.11099243 .032989503 .09899902 .032989503 .034988405 .032989503V0C.07398987 .0029907227 .12998963 .0029907227 .14698792 .0029907227 .16699219 .0029907227 .22099304 .0029907227 .2599945 0V.032989503C.19599915 .032989503 .18399048 .032989503 .18399048 .07795715V.3976593H.4059906V.07795715C.4059906 .032989503 .3939972 .032989503 .32998658 .032989503V0C.36898805 .0029907227 .4249878 .0029907227 .44198609 .0029907227 .46199037 .0029907227 .5159912 .0029907227 .5549927 0V.032989503C.4909973 .032989503 .47898866 .032989503 .47898866 .07795715V.3976593H.651001C.69299319 .3976593 .69999697 .3856659 .69999697 .34370423V.07795715C.69999697 .032989503 .6879883 .032989503 .6239929 .032989503V0C.6629944 .0029907227 .71899417 .0029907227 .73599246 .0029907227 .7559967 .0029907227 .80999758 .0029907227 .848999 0M.4189911 .6497345C.4189911 .6497345 .37799073 .6427307 .37799073 .60072329 .37799073 .5777283 .3899994 .5637207 .4059906 .5567322V.43066407H.18099976V.54003909C.18099976 .6387329 .27198792 .6760864 .33499146 .6760864 .36499024 .6760864 .394989 .667984 .4189911 .6497345Z"/>
<path id="font_4_1" d="M.40899659 .52960208 .25698854 .69140627 .10499573 .52960208 .117996219 .515625 .25698854 .6234894 .3959961 .515625 .40899659 .52960208Z"/>
<path id="font_5_1" d="M.7819977 .6696167C.7819977 .6776123 .776001 .6826172 .7689972 .6826172 .7689972 .6826172 .7369995 .6796112 .68699648 .6796112 .6549988 .6796112 .6199951 .6826172 .58898928 .6826172 .58399966 .6826172 .57099917 .6826172 .57099917 .6646118 .57099917 .65260317 .58200076 .6516113 .58799746 .6516113 .60899356 .6496124 .6199951 .64260867 .6199951 .6296234 .6199951 .6116333 .59199526 .5816498 .59098818 .5796509L.35299684 .31381227 .23599243 .6106262C.22999573 .62461856 .22999573 .62861636 .22999573 .62861636 .22999573 .6516113 .27799989 .6516113 .2869873 .6516113 .2999878 .6516113 .31199647 .6516113 .31199647 .6696167 .31199647 .6796112 .30299378 .6826172 .29599 .6826172 .27598573 .6826172 .25299073 .680603 .23298645 .680603L.17098999 .6796112 .11199951 .680603C.09599304 .6816101 .07299805 .6826172 .056991579 .6826172 .051986696 .6826172 .037994386 .6826172 .037994386 .6646118 .037994386 .6516113 .04899597 .6516113 .06098938 .6516113 .11999512 .6516113 .12399292 .6416168 .1329956 .6186218L.2630005 .28782655C.2679901 .2748413 .2679901 .27183534 .2679901 .27183534 .2679901 .26783753 .22799683 .107940677 .22299195 .08995056 .20999146 .035995485 .20899964 .03199768 .12998963 .0309906 .11399841 .0309906 .102996829 .0309906 .102996829 .0129852299 .102996829 .0039978029 .10998535 0 .117996219 0L.18099976 .0019989014C.20199585 .0029907227 .20399475 .0029907227 .24299622 .0029907227L.30699159 .0019989014 .37098695 0C.37799073 0 .3909912 0 .3909912 .017990113 .3909912 .0309906 .3809967 .0309906 .3600006 .0309906 .35598756 .0309906 .33799745 .0309906 .32199098 .032989503 .2999878 .035995485 .29899598 .039993287 .29899598 .048980714 .29899598 .05596924 .30699159 .08795166 .31199647 .10694885L.32899476 .17790222C.34298707 .22886658 .34298707 .23086548 .35299684 .27383424 .35598756 .2768402 .35798646 .27783204 .3639984 .28483583L.61499026 .56466677C.68699648 .6456146 .7279968 .64860537 .769989 .6516113 .7779999 .65260317 .7819977 .66160586 .7819977 .6696167Z"/>
<path id="font_4_5" d="M.5359955 .21655274C.5359955 .3425598 .43798829 .4423828 .31999208 .4423828 .2659912 .4423828 .21598816 .42037965 .17799378 .37956239V.4423828L.02999878 .43066407V.3996582C.100997928 .3996582 .10699463 .39390565 .10699463 .3515625V-.116989139C.10699463-.16308594 .09599304-.16308594 .02999878-.16308594V-.1940918C.07699585-.1920929 .09599304-.19110108 .14399719-.19110108 .19198609-.19110108 .20498657-.1920929 .2579956-.1940918V-.16308594C.19198609-.16308594 .18099976-.16308594 .18099976-.116989139V.04827881C.20698548 .022262574 .24099732-.0107421879 .30699159-.0107421879 .42599488-.0107421879 .5359955 .08531189 .5359955 .21643067V.21655274M.44999696 .21643067C.44999696 .10232544 .38198854 .014251709 .30099488 .014251709 .2559967 .014251709 .21798706 .040267946 .19400025 .075302127 .18099976 .095321658 .18099976 .09732056 .18099976 .11634827V.33654786C.21499634 .39437867 .269989 .41436769 .31199647 .41436769 .3899994 .41436769 .44999696 .32437135 .44999696 .21636963V.21643067Z"/>
<path id="font_4_3" d="M.4269867 .11936951C.4269867 .12637329 .42199708 .13237 .41299439 .13237 .40299989 .13237 .3999939 .12536621 .39898683 .12136841 .36499024 .019256592 .27598573 .01725769 .26098634 .01725769 .21299744 .01725769 .17199707 .044281007 .14898682 .078323367 .115997318 .12736511 .114990238 .18743897 .114990238 .22949219H.3999939C.42199708 .22949219 .4269867 .22949219 .4269867 .25048829 .4269867 .35333253 .37098695 .4482422 .24299622 .4482422 .12298584 .4482422 .0289917 .3443451 .0289917 .22047425 .0289917 .08932495 .13398743-.0107421879 .2559967-.0107421879 .37799073-.0107421879 .4269867 .096343997 .4269867 .11936951M.35899354 .253479H.115997318C.125 .40725709 .21499634 .42323304 .24299622 .42323304 .2979889 .42323304 .35798646 .38130189 .35899354 .253479Z"/>
<path id="font_4_6" d="M.37298585 .3798828C.37298585 .41236878 .34298707 .4423828 .2979889 .4423828 .23799134 .4423828 .19599915 .40037538 .17298889 .33789063H.17199707V.4423828L.02999878 .43066407V.3996582C.09799194 .3996582 .10699463 .3927307 .10699463 .34388734V.07698059C.10699463 .0309906 .09599304 .0309906 .02999878 .0309906V0C.08299255 .0019989014 .09599304 .0029907227 .14698792 .0029907227L.27398683 0V.0309906H.2539978C.18099976 .0309906 .17799378 .041992189 .17799378 .07897949V.22892761C.17799378 .26991273 .18899536 .4166565 .30299378 .4166565V.4156494C.30099488 .4146576 .2849884 .40264894 .2849884 .37887574 .2849884 .35188294 .30599977 .33488465 .32899476 .33488465 .34999085 .33488465 .37298585 .34988404 .37298585 .3798828Z"/>
<path id="font_4_2" d="M.5399933 0V.0309906C.47200013 .0309906 .46299745 .037994386 .46299745 .087020877V.69433596L.31498719 .6826172V.6516113C.3829956 .6516113 .3919983 .64463809 .3919983 .59580996V.38339234C.3869934 .38938905 .34199525 .4423828 .2639923 .4423828 .14099121 .4423828 .033996583 .3443756 .033996583 .21525574 .033996583 .09013367 .13398743-.0107421879 .25299073-.0107421879 .32598878-.0107421879 .37098695 .03224182 .3889923 .053115846V-.0107421879L.5399933 0M.3889923 .12011719C.3889923 .10211182 .3889923 .099105838 .37399293 .07810974 .34298707 .033203126 .29699708 .014251709 .25698854 .014251709 .21398926 .014251709 .17399597 .03819275 .147995 .08010864 .12199402 .12310791 .11999512 .18218994 .11999512 .21421814 .11999512 .26127626 .12599182 .31433106 .1519928 .35438539 .17399597 .38638307 .21499634 .41737367 .2679901 .41737367 .30999757 .41737367 .34999085 .39637757 .3769989 .35839845 .3889923 .3423767 .3889923 .34136964 .3889923 .32234193V.12011719Z"/>
<path id="font_4_4" d="M.49899293 .40338136C.49899293 .42237855 .4850006 .45336915 .44499208 .45336915 .41600038 .45336915 .37098695 .4423828 .33599855 .40637208 .30899049 .42837525 .269989 .4423828 .22799683 .4423828 .1329956 .4423828 .06098938 .3743744 .06098938 .29537965 .06098938 .2443695 .09098816 .20837403 .10699463 .19337464 .10499573 .19137573 .07699585 .15637207 .07699585 .11038208 .07699585 .07637024 .09298706 .040374757 .11999512 .022369385 .068984989 .005874634 .0289917-.03111267 .0289917-.07809448 .0289917-.14907837 .12799073-.20605469 .2559967-.20605469 .3789978-.20605469 .48399354-.15307617 .48399354-.07609558 .48399354-.035110475 .46499635 .008880615 .42799378 .03288269 .37199403 .067871097 .31399537 .067871097 .21899414 .067871097 .19898987 .067871097 .16699219 .067871097 .15899658 .069885257 .12998963 .075927738 .11099243 .1031189 .11099243 .13534546 .11099243 .15142823 .115997318 .16642761 .125 .1794281 .1499939 .16343689 .18099976 .1484375 .22698975 .1484375 .32199098 .1484375 .3939972 .21643067 .3939972 .29542542 .3939972 .34443666 .3659973 .37843324 .35299684 .39242555 .3929901 .42843629 .43998719 .42843629 .45199586 .42843629 .44699098 .4254303 .43899537 .42042542 .43899537 .4024353 .43899537 .39143373 .44599916 .37243653 .46899415 .37243653 .48298646 .37243653 .49899293 .38243104 .49899293 .40342713V.40338136M.31698609 .29542542C.31698609 .27243043 .31698609 .1754303 .22698975 .1754303 .13798523 .17520142 .13798523 .27326966 .13798523 .2952881 .13798523 .3223114 .13999939 .35632325 .15699768 .38034059 .17199707 .4003601 .19898987 .41537477 .22698975 .41537477 .31698609 .41537477 .31698609 .31829835 .31698609 .2952881V.29542542M.42799378-.07698059C.42799378-.1340332 .35099793-.17906189 .25698854-.17906189 .15899658-.17912293 .084991458-.13212586 .084991458-.07711792 .084991458-.06112671 .09498596 .0048828127 .18099976 .0048828127H.272995C.30499269 .0048828127 .42799378 .0038757325 .42799378-.07711792V-.07698059Z"/>
</defs>
<path transform="matrix(1,0,0,-1,56.866,35.627)" d="M44.51277 27.25938H-44.51277C-46.71371 27.25938-48.49788 25.47522-48.49788 23.27428V-23.27428C-48.49788-25.47522-46.71371-27.25938-44.51277-27.25938H44.51277C46.71371-27.25938 48.49788-25.47522 48.49788-23.27428V23.27428C48.49788 25.47522 46.71371 27.25938 44.51277 27.25938ZM-48.49788-27.25938" fill="#ecf2f8"/>
<path transform="matrix(1,0,0,-1,56.866,35.627)" stroke-width=".79701" stroke-linecap="butt" stroke-miterlimit="10" stroke-linejoin="miter" fill="none" stroke="#4682b4" d="M44.51277 27.25938H-44.51277C-46.71371 27.25938-48.49788 25.47522-48.49788 23.27428V-23.27428C-48.49788-25.47522-46.71371-27.25938-44.51277-27.25938H44.51277C46.71371-27.25938 48.49788-25.47522 48.49788-23.27428V23.27428C48.49788 25.47522 46.71371 27.25938 44.51277 27.25938ZM-48.49788-27.25938"/>
<use data-text="C" xlink:href="#font_1_4" transform="matrix(8.9664,0,0,-8.9664,30.943,20.489998)"/>
<use data-text="N" xlink:href="#font_1_14" transform="matrix(8.9664,0,0,-8.9664,38.609273,20.489998)"/>
<use data-text="N" xlink:href="#font_1_14" transform="matrix(8.9664,0,0,-8.9664,46.894227,20.489998)"/>
<use data-text="b" xlink:href="#font_1_3" transform="matrix(8.9664,0,0,-8.9664,58.254655,20.489998)"/>
<use data-text="l" xlink:href="#font_1_12" transform="matrix(8.9664,0,0,-8.9664,64.14558,20.489998)"/>
<use data-text="o" xlink:href="#font_1_15" transform="matrix(8.9664,0,0,-8.9664,67.09552,20.489998)"/>
<use data-text="c" xlink:href="#font_1_5" transform="matrix(8.9664,0,0,-8.9664,72.69055,20.489998)"/>
<use data-text="k" xlink:href="#font_1_10" transform="matrix(8.9664,0,0,-8.9664,77.11995,20.489998)"/>
<use data-text="r" xlink:href="#font_2_15" transform="matrix(7.9701,0,0,-7.9701,16.248002,33.440999)"/>
<use data-text="e" xlink:href="#font_2_5" transform="matrix(7.9701,0,0,-7.9701,19.547623,33.440999)"/>
<use data-text="a" xlink:href="#font_2_1" transform="matrix(7.9701,0,0,-7.9701,23.30951,33.440999)"/>
<use data-text="d" xlink:href="#font_2_4" transform="matrix(7.9701,0,0,-7.9701,27.541634,33.440999)"/>
<use data-text="s" xlink:href="#font_2_16" transform="matrix(7.9701,0,0,-7.9701,32.24399,33.440999)"/>
<use data-text="t" xlink:href="#font_2_18" transform="matrix(7.9701,0,0,-7.9701,38.651956,33.440999)"/>
<use data-text="h" xlink:href="#font_2_9" transform="matrix(7.9701,0,0,-7.9701,41.943609,33.440999)"/>
<use data-text="e" xlink:href="#font_2_5" transform="matrix(7.9701,0,0,-7.9701,46.645967,33.440999)"/>
<use data-text="p" xlink:href="#font_2_14" transform="matrix(7.9701,0,0,-7.9701,53.48431,33.440999)"/>
<use data-text="o" xlink:href="#font_2_13" transform="matrix(7.9701,0,0,-7.9701,58.4178,33.440999)"/>
<use data-text="p" xlink:href="#font_2_14" transform="matrix(7.9701,0,0,-7.9701,62.649927,33.440999)"/>
<use data-text="u" xlink:href="#font_2_19" transform="matrix(7.9701,0,0,-7.9701,67.35229,33.440999)"/>
<use data-text="l" xlink:href="#font_2_10" transform="matrix(7.9701,0,0,-7.9701,72.05465,33.440999)"/>
<use data-text="a" xlink:href="#font_2_1" transform="matrix(7.9701,0,0,-7.9701,74.40583,33.440999)"/>
<use data-text="t" xlink:href="#font_2_18" transform="matrix(7.9701,0,0,-7.9701,78.637958,33.440999)"/>
<use data-text="i" xlink:href="#font_2_20" transform="matrix(7.9701,0,0,-7.9701,81.9296,33.440999)"/>
<use data-text="o" xlink:href="#font_2_13" transform="matrix(7.9701,0,0,-7.9701,84.280788,33.440999)"/>
<use data-text="n" xlink:href="#font_2_12" transform="matrix(7.9701,0,0,-7.9701,88.51291,33.440999)"/>
<use data-text="/" xlink:href="#font_2_17" transform="matrix(7.9701,0,0,-7.9701,93.21527,33.440999)"/>
<use data-text="j" xlink:href="#font_2_21" transform="matrix(7.9701,0,0,-7.9701,25.886002,44.399999)"/>
<use data-text="o" xlink:href="#font_2_13" transform="matrix(7.9701,0,0,-7.9701,28.476284,44.399999)"/>
<use data-text="b" xlink:href="#font_2_2" transform="matrix(7.9701,0,0,-7.9701,32.70841,44.399999)"/>
<use data-text="s" xlink:href="#font_2_16" transform="matrix(7.9701,0,0,-7.9701,37.410768,44.399999)"/>
<use data-text="g" xlink:href="#font_3_3" transform="matrix(7.9701,0,0,-7.9701,43.81873,44.399999)"/>
<use data-text="r" xlink:href="#font_3_7" transform="matrix(7.9701,0,0,-7.9701,47.75596,44.399999)"/>
<use data-text="i" xlink:href="#font_3_8" transform="matrix(7.9701,0,0,-7.9701,51.366415,44.399999)"/>
<use data-text="d" xlink:href="#font_3_2" transform="matrix(7.9701,0,0,-7.9701,53.988576,44.399999)"/>
<use data-text="a" xlink:href="#font_2_1" transform="matrix(7.9701,0,0,-7.9701,61.966646,44.399999)"/>
<use data-text="r" xlink:href="#font_2_15" transform="matrix(7.9701,0,0,-7.9701,66.19877,44.399999)"/>
<use data-text="o" xlink:href="#font_2_13" transform="matrix(7.9701,0,0,-7.9701,69.49839,44.399999)"/>
<use data-text="u" xlink:href="#font_2_19" transform="matrix(7.9701,0,0,-7.9701,73.730518,44.399999)"/>
<use data-text="n" xlink:href="#font_2_12" transform="matrix(7.9701,0,0,-7.9701,78.43288,44.399999)"/>
<use data-text="d" xlink:href="#font_2_4" transform="matrix(7.9701,0,0,-7.9701,83.13524,44.399999)"/>
<use data-text="e" xlink:href="#font_2_5" transform="matrix(7.9701,0,0,-7.9701,32.042,55.358999)"/>
<use data-text="a" xlink:href="#font_2_1" transform="matrix(7.9701,0,0,-7.9701,35.803888,55.358999)"/>
<use data-text="c" xlink:href="#font_2_3" transform="matrix(7.9701,0,0,-7.9701,40.03601,55.358999)"/>
<use data-text="h" xlink:href="#font_2_9" transform="matrix(7.9701,0,0,-7.9701,43.566766,55.358999)"/>
<use data-text="j" xlink:href="#font_2_21" transform="matrix(7.9701,0,0,-7.9701,51.337614,55.358999)"/>
<use data-text="u" xlink:href="#font_2_19" transform="matrix(7.9701,0,0,-7.9701,53.927896,55.358999)"/>
<use data-text="n" xlink:href="#font_2_12" transform="matrix(7.9701,0,0,-7.9701,58.630254,55.358999)"/>
<use data-text="c" xlink:href="#font_2_3" transform="matrix(7.9701,0,0,-7.9701,63.33261,55.358999)"/>
<use data-text="t" xlink:href="#font_2_18" transform="matrix(7.9701,0,0,-7.9701,67.0945,55.358999)"/>
<use data-text="i" xlink:href="#font_2_20" transform="matrix(7.9701,0,0,-7.9701,70.38615,55.358999)"/>
<use data-text="o" xlink:href="#font_2_13" transform="matrix(7.9701,0,0,-7.9701,72.73733,55.358999)"/>
<use data-text="n" xlink:href="#font_2_12" transform="matrix(7.9701,0,0,-7.9701,76.96945,55.358999)"/>
<path transform="matrix(1,0,0,-1,56.866,35.627)" d="M162.14823 21.77986H73.12268C70.92174 21.77986 69.13757 19.9957 69.13757 17.79475V-17.79475C69.13757-19.9957 70.92174-21.77986 73.12268-21.77986H162.14823C164.34917-21.77986 166.13333-19.9957 166.13333-17.79475V17.79475C166.13333 19.9957 164.34917 21.77986 162.14823 21.77986ZM69.13757-21.77986" fill="#ecf2f8"/>
<path transform="matrix(1,0,0,-1,56.866,35.627)" stroke-width=".79701" stroke-linecap="butt" stroke-miterlimit="10" stroke-linejoin="miter" fill="none" stroke="#4682b4" d="M162.14823 21.77986H73.12268C70.92174 21.77986 69.13757 19.9957 69.13757 17.79475V-17.79475C69.13757-19.9957 70.92174-21.77986 73.12268-21.77986H162.14823C164.34917-21.77986 166.13333-19.9957 166.13333-17.79475V17.79475C166.13333 19.9957 164.34917 21.77986 162.14823 21.77986ZM69.13757-21.77986"/>
<use data-text="G" xlink:href="#font_1_8" transform="matrix(8.9664,0,0,-8.9664,149.276,25.968998)"/>
<use data-text="A" xlink:href="#font_1_1" transform="matrix(8.9664,0,0,-8.9664,157.61475,25.968998)"/>
<use data-text="T" xlink:href="#font_1_17" transform="matrix(8.9664,0,0,-8.9664,164.73406,25.968998)"/>
<use data-text="b" xlink:href="#font_1_3" transform="matrix(8.9664,0,0,-8.9664,175.18888,25.968998)"/>
<use data-text="l" xlink:href="#font_1_12" transform="matrix(8.9664,0,0,-8.9664,181.0798,25.968998)"/>
<use data-text="o" xlink:href="#font_1_15" transform="matrix(8.9664,0,0,-8.9664,184.02976,25.968998)"/>
<use data-text="c" xlink:href="#font_1_5" transform="matrix(8.9664,0,0,-8.9664,189.63376,25.968998)"/>
<use data-text="k" xlink:href="#font_1_10" transform="matrix(8.9664,0,0,-8.9664,194.05419,25.968998)"/>
<use data-text="p" xlink:href="#font_2_14" transform="matrix(7.9701,0,0,-7.9701,140.075,38.920999)"/>
<use data-text="a" xlink:href="#font_2_1" transform="matrix(7.9701,0,0,-7.9701,144.77736,38.920999)"/>
<use data-text="s" xlink:href="#font_2_16" transform="matrix(7.9701,0,0,-7.9701,149.00948,38.920999)"/>
<use data-text="s" xlink:href="#font_2_16" transform="matrix(7.9701,0,0,-7.9701,152.34896,38.920999)"/>
<use data-text="e" xlink:href="#font_2_5" transform="matrix(7.9701,0,0,-7.9701,155.68843,38.920999)"/>
<use data-text="s" xlink:href="#font_2_16" transform="matrix(7.9701,0,0,-7.9701,159.45032,38.920999)"/>
<use data-text="i" xlink:href="#font_2_20" transform="matrix(7.9701,0,0,-7.9701,165.85828,38.920999)"/>
<use data-text="n" xlink:href="#font_2_12" transform="matrix(7.9701,0,0,-7.9701,168.20946,38.920999)"/>
<use data-text="f" xlink:href="#font_2_6" transform="matrix(7.9701,0,0,-7.9701,172.91182,38.920999)"/>
<use data-text="o" xlink:href="#font_2_13" transform="matrix(7.9701,0,0,-7.9701,175.5021,38.920999)"/>
<use data-text="r" xlink:href="#font_2_15" transform="matrix(7.9701,0,0,-7.9701,179.73423,38.920999)"/>
<use data-text="m" xlink:href="#font_2_11" transform="matrix(7.9701,0,0,-7.9701,183.03385,38.920999)"/>
<use data-text="a" xlink:href="#font_2_1" transform="matrix(7.9701,0,0,-7.9701,190.08739,38.920999)"/>
<use data-text="t" xlink:href="#font_2_18" transform="matrix(7.9701,0,0,-7.9701,194.3195,38.920999)"/>
<use data-text="i" xlink:href="#font_2_20" transform="matrix(7.9701,0,0,-7.9701,197.61116,38.920999)"/>
<use data-text="o" xlink:href="#font_2_13" transform="matrix(7.9701,0,0,-7.9701,199.96234,38.920999)"/>
<use data-text="n" xlink:href="#font_2_12" transform="matrix(7.9701,0,0,-7.9701,204.19446,38.920999)"/>
<use data-text="a" xlink:href="#font_2_1" transform="matrix(7.9701,0,0,-7.9701,135.882,49.879999)"/>
<use data-text="l" xlink:href="#font_2_10" transform="matrix(7.9701,0,0,-7.9701,140.11412,49.879999)"/>
<use data-text="o" xlink:href="#font_2_13" transform="matrix(7.9701,0,0,-7.9701,142.4653,49.879999)"/>
<use data-text="n" xlink:href="#font_2_12" transform="matrix(7.9701,0,0,-7.9701,146.69742,49.879999)"/>
<use data-text="g" xlink:href="#font_2_8" transform="matrix(7.9701,0,0,-7.9701,151.39978,49.879999)"/>
<use data-text="t" xlink:href="#font_2_18" transform="matrix(7.9701,0,0,-7.9701,158.70038,49.879999)"/>
<use data-text="h" xlink:href="#font_2_9" transform="matrix(7.9701,0,0,-7.9701,161.99204,49.879999)"/>
<use data-text="e" xlink:href="#font_2_5" transform="matrix(7.9701,0,0,-7.9701,166.6944,49.879999)"/>
<use data-text="r" xlink:href="#font_3_7" transform="matrix(7.9701,0,0,-7.9701,173.53275,49.879999)"/>
<use data-text="o" xlink:href="#font_3_5" transform="matrix(7.9701,0,0,-7.9701,176.70485,49.879999)"/>
<use data-text="a" xlink:href="#font_3_1" transform="matrix(7.9701,0,0,-7.9701,180.64208,49.879999)"/>
<use data-text="d" xlink:href="#font_3_2" transform="matrix(7.9701,0,0,-7.9701,185.01766,49.879999)"/>
<use data-text="g" xlink:href="#font_3_3" transform="matrix(7.9701,0,0,-7.9701,192.46172,49.879999)"/>
<use data-text="r" xlink:href="#font_3_7" transform="matrix(7.9701,0,0,-7.9701,196.39894,49.879999)"/>
<use data-text="a" xlink:href="#font_3_1" transform="matrix(7.9701,0,0,-7.9701,199.57901,49.879999)"/>
<use data-text="p" xlink:href="#font_3_6" transform="matrix(7.9701,0,0,-7.9701,203.95459,49.879999)"/>
<use data-text="h" xlink:href="#font_3_4" transform="matrix(7.9701,0,0,-7.9701,208.33017,49.879999)"/>
<path transform="matrix(1,0,0,-1,56.866,35.627)" d="M279.7837 21.00499H190.75815C188.5572 21.00499 186.77304 19.22083 186.77304 17.01988V-17.01988C186.77304-19.22083 188.5572-21.00499 190.75815-21.00499H279.7837C281.98463-21.00499 283.7688-19.22083 283.7688-17.01988V17.01988C283.7688 19.22083 281.98463 21.00499 279.7837 21.00499ZM186.77304-21.00499" fill="#ecf2f8"/>
<path transform="matrix(1,0,0,-1,56.866,35.627)" stroke-width=".79701" stroke-linecap="butt" stroke-miterlimit="10" stroke-linejoin="miter" fill="none" stroke="#4682b4" d="M279.7837 21.00499H190.75815C188.5572 21.00499 186.77304 19.22083 186.77304 17.01988V-17.01988C186.77304-19.22083 188.5572-21.00499 190.75815-21.00499H279.7837C281.98463-21.00499 283.7688-19.22083 283.7688-17.01988V17.01988C283.7688 19.22083 281.98463 21.00499 279.7837 21.00499ZM186.77304-21.00499"/>
<use data-text="M" xlink:href="#font_1_13" transform="matrix(8.9664,0,0,-8.9664,267.853,26.744004)"/>
<use data-text="L" xlink:href="#font_1_11" transform="matrix(8.9664,0,0,-8.9664,277.9133,26.744004)"/>
<use data-text="P" xlink:href="#font_1_16" transform="matrix(8.9664,0,0,-8.9664,284.28843,26.744004)"/>
<use data-text="h" xlink:href="#font_1_9" transform="matrix(8.9664,0,0,-8.9664,294.60874,26.744004)"/>
<use data-text="e" xlink:href="#font_1_7" transform="matrix(8.9664,0,0,-8.9664,300.49967,26.744004)"/>
<use data-text="a" xlink:href="#font_1_2" transform="matrix(8.9664,0,0,-8.9664,305.3684,26.744004)"/>
<use data-text="d" xlink:href="#font_1_6" transform="matrix(8.9664,0,0,-8.9664,310.52409,26.744004)"/>
<use data-text="t" xlink:href="#font_2_18" transform="matrix(7.9701,0,0,-7.9701,259.261,39.696004)"/>
<use data-text="u" xlink:href="#font_2_19" transform="matrix(7.9701,0,0,-7.9701,262.55265,39.696004)"/>
<use data-text="r" xlink:href="#font_2_15" transform="matrix(7.9701,0,0,-7.9701,267.255,39.696004)"/>
<use data-text="n" xlink:href="#font_2_12" transform="matrix(7.9701,0,0,-7.9701,270.55464,39.696004)"/>
<use data-text="s" xlink:href="#font_2_16" transform="matrix(7.9701,0,0,-7.9701,275.257,39.696004)"/>
<use data-text="e" xlink:href="#font_2_5" transform="matrix(7.9701,0,0,-7.9701,281.66496,39.696004)"/>
<use data-text="m" xlink:href="#font_2_11" transform="matrix(7.9701,0,0,-7.9701,285.42686,39.696004)"/>
<use data-text="b" xlink:href="#font_2_2" transform="matrix(7.9701,0,0,-7.9701,292.24925,39.696004)"/>
<use data-text="e" xlink:href="#font_2_5" transform="matrix(7.9701,0,0,-7.9701,297.18275,39.696004)"/>
<use data-text="d" xlink:href="#font_2_4" transform="matrix(7.9701,0,0,-7.9701,300.94465,39.696004)"/>
<use data-text="d" xlink:href="#font_2_4" transform="matrix(7.9701,0,0,-7.9701,305.647,39.696004)"/>
<use data-text="i" xlink:href="#font_2_20" transform="matrix(7.9701,0,0,-7.9701,310.34938,39.696004)"/>
<use data-text="n" xlink:href="#font_2_12" transform="matrix(7.9701,0,0,-7.9701,312.7085,39.696004)"/>
<use data-text="g" xlink:href="#font_2_8" transform="matrix(7.9701,0,0,-7.9701,317.41087,39.696004)"/>
<use data-text="s" xlink:href="#font_2_16" transform="matrix(7.9701,0,0,-7.9701,321.635,39.696004)"/>
<use data-text="i" xlink:href="#font_2_20" transform="matrix(7.9701,0,0,-7.9701,253.41098,50.654005)"/>
<use data-text="n" xlink:href="#font_2_12" transform="matrix(7.9701,0,0,-7.9701,255.76216,50.654005)"/>
<use data-text="t" xlink:href="#font_2_18" transform="matrix(7.9701,0,0,-7.9701,260.2254,50.654005)"/>
<use data-text="o" xlink:href="#font_2_13" transform="matrix(7.9701,0,0,-7.9701,263.51707,50.654005)"/>
<use data-text="a" xlink:href="#font_2_1" transform="matrix(7.9701,0,0,-7.9701,270.82563,50.654005)"/>
<use data-text="t" xlink:href="#font_2_18" transform="matrix(7.9701,0,0,-7.9701,278.12623,50.654005)"/>
<use data-text="r" xlink:href="#font_2_15" transform="matrix(7.9701,0,0,-7.9701,281.41789,50.654005)"/>
<use data-text="a" xlink:href="#font_2_1" transform="matrix(7.9701,0,0,-7.9701,284.7175,50.654005)"/>
<use data-text="f" xlink:href="#font_2_7" transform="matrix(7.9701,0,0,-7.9701,288.94963,50.654005)"/>
<use data-text="c" xlink:href="#font_2_3" transform="matrix(7.9701,0,0,-7.9701,296.00315,50.654005)"/>
<use data-text="n" xlink:href="#font_2_12" transform="matrix(7.9701,0,0,-7.9701,302.8415,50.654005)"/>
<use data-text="u" xlink:href="#font_2_19" transform="matrix(7.9701,0,0,-7.9701,307.30476,50.654005)"/>
<use data-text="m" xlink:href="#font_2_11" transform="matrix(7.9701,0,0,-7.9701,312.0071,50.654005)"/>
<use data-text="b" xlink:href="#font_2_2" transform="matrix(7.9701,0,0,-7.9701,318.8295,50.654005)"/>
<use data-text="e" xlink:href="#font_2_5" transform="matrix(7.9701,0,0,-7.9701,323.763,50.654005)"/>
<use data-text="r" xlink:href="#font_2_15" transform="matrix(7.9701,0,0,-7.9701,327.5249,50.654005)"/>
<path transform="matrix(1,0,0,-1,56.866,35.627)" stroke-width=".99628" stroke-linecap="butt" stroke-miterlimit="10" stroke-linejoin="miter" fill="none" stroke="#003e74" d="M48.89638 0H64.17427"/>
<path transform="matrix(1,0,0,-1,118.2349,35.627)" d="M5.95149 0 1.60866 1.6449 3.05444 0 1.60866-1.6449Z" fill="#003e74"/>
<path transform="matrix(1,0,0,-1,118.2349,35.627)" stroke-width=".99628" stroke-linecap="butt" stroke-miterlimit="10" stroke-linejoin="miter" fill="none" stroke="#003e74" d="M5.95149 0 1.60866 1.6449 3.05444 0 1.60866-1.6449Z"/>
<path transform="matrix(1,0,0,-1,56.866,35.627)" stroke-width=".99628" stroke-linecap="butt" stroke-miterlimit="10" stroke-linejoin="miter" fill="none" stroke="#003e74" d="M166.53185 0H181.80974"/>
<path transform="matrix(1,0,0,-1,235.87035,35.627)" d="M5.95149 0 1.60866 1.6449 3.05444 0 1.60866-1.6449Z" fill="#003e74"/>
<path transform="matrix(1,0,0,-1,235.87035,35.627)" stroke-width=".99628" stroke-linecap="butt" stroke-miterlimit="10" stroke-linejoin="miter" fill="none" stroke="#003e74" d="M5.95149 0 1.60866 1.6449 3.05444 0 1.60866-1.6449Z"/>
<path transform="matrix(1,0,0,-1,56.866,35.627)" d="M366.2375 11.0711H308.3936C306.19267 11.0711 304.4085 9.28694 304.4085 7.086V-7.086C304.4085-9.28694 306.19267-11.0711 308.3936-11.0711H366.2375C368.43846-11.0711 370.2226-9.28694 370.2226-7.086V7.086C370.2226 9.28694 368.43846 11.0711 366.2375 11.0711ZM304.4085-11.0711" fill="#ebf3f2"/>
<path transform="matrix(1,0,0,-1,56.866,35.627)" stroke-width=".79701" stroke-linecap="butt" stroke-miterlimit="10" stroke-linejoin="miter" fill="none" stroke="#006e5a" d="M366.2375 11.0711H308.3936C306.19267 11.0711 304.4085 9.28694 304.4085 7.086V-7.086C304.4085-9.28694 306.19267-11.0711 308.3936-11.0711H366.2375C368.43846-11.0711 370.2226-9.28694 370.2226-7.086V7.086C370.2226 9.28694 368.43846 11.0711 366.2375 11.0711ZM304.4085-11.0711"/>
<use data-text="&#x02c6;" xlink:href="#font_4_1" transform="matrix(8.9664,0,0,-8.9664,373.299,36.711)"/>
<use data-text="Y" xlink:href="#font_5_1" transform="matrix(8.9664,0,0,-8.9664,371.905,38.976999)"/>
<use data-text="p" xlink:href="#font_4_5" transform="matrix(8.9664,0,0,-8.9664,382.37776,38.976999)"/>
<use data-text="e" xlink:href="#font_4_3" transform="matrix(8.9664,0,0,-8.9664,387.74864,38.976999)"/>
<use data-text="r" xlink:href="#font_4_6" transform="matrix(8.9664,0,0,-8.9664,391.84629,38.976999)"/>
<use data-text="e" xlink:href="#font_4_3" transform="matrix(8.9664,0,0,-8.9664,398.52626,38.976999)"/>
<use data-text="d" xlink:href="#font_4_2" transform="matrix(8.9664,0,0,-8.9664,402.6239,38.976999)"/>
<use data-text="g" xlink:href="#font_4_4" transform="matrix(8.9664,0,0,-8.9664,407.7437,38.976999)"/>
<use data-text="e" xlink:href="#font_4_3" transform="matrix(8.9664,0,0,-8.9664,412.35246,38.976999)"/>
<path transform="matrix(1,0,0,-1,56.866,35.627)" stroke-width=".99628" stroke-linecap="butt" stroke-miterlimit="10" stroke-linejoin="miter" fill="none" stroke="#003e74" d="M284.1673 0H299.4452"/>
<path transform="matrix(1,0,0,-1,353.50584,35.627)" d="M5.95149 0 1.60866 1.6449 3.05444 0 1.60866-1.6449Z" fill="#003e74"/>
<path transform="matrix(1,0,0,-1,353.50584,35.627)" stroke-width=".99628" stroke-linecap="butt" stroke-miterlimit="10" stroke-linejoin="miter" fill="none" stroke="#003e74" d="M5.95149 0 1.60866 1.6449 3.05444 0 1.60866-1.6449Z"/>
</svg>
