<svg xmlns="http://www.w3.org/2000/svg" xmlns:xlink="http://www.w3.org/1999/xlink" xmlns:inkscape="http://www.inkscape.org/namespaces/inkscape" version="1.1" width="155.857" height="63.34" viewBox="0 0 155.857 63.34">
<defs>
<path id="font_1_4" d="M.43798829-.06404114 .54599 .37135316C.5499878 .3863678 .5499878 .3883667 .5499878 .39237977 .5499878 .4143982 .5339966 .4223938 .5189972 .4223938 .49798585 .4223938 .48098756 .4073944 .47499085 .38737489 .45098878 .4243927 .41600038 .44140626 .3769989 .44140626 .25498963 .44140626 .12998963 .3012848 .12998963 .16113281 .12998963 .06903076 .18899536 0 .272995 0 .32299806 0 .36499024 .026992798 .3919983 .05001831L.36099244-.07304382C.35299684-.094055179 .31599427-.17610169 .21299744-.17610169 .19898987-.17610169 .1639862-.17610169 .13999939-.167099 .1639862-.15309143 .1639862-.12608338 .1639862-.12608338 .1639862-.10606384 .1499939-.092056278 .12799073-.092056278 .102996829-.092056278 .07798767-.11306763 .07798767-.14608765 .07798767-.19911194 .14199829-.20410156 .20999146-.20410156 .35398866-.20410156 .42199708-.1270752 .43798829-.06404114M.4149933 .14111328C.40699769 .110076908 .33999635 .027999878 .27598573 .027999878 .22999573 .027999878 .20698548 .06903076 .20698548 .12109375 .20698548 .16313172 .23199463 .2752533 .2630005 .3283081 .2979889 .3883667 .34399415 .4133911 .3769989 .4133911 .44599916 .4133911 .45799256 .32731629 .45799256 .31829835L.45498658 .30429078 .4149933 .14111328Z"/>
<path id="font_1_13" d="M.55999758 .3723755C.55999758 .42340089 .49798585 .44140626 .43899537 .44140626 .4119873 .44140626 .35798646 .4393921 .30099488 .37338258 .2849884 .42840577 .23298645 .44140626 .20498657 .44140626 .1619873 .44140626 .13999939 .4133911 .125 .38838197 .10398865 .3553772 .08799744 .2943573 .08799744 .28834535 .08799744 .27534486 .100997928 .27534486 .10899353 .27534486 .1269989 .27534486 .12799073 .27633668 .1349945 .3043518 .1519928 .37338258 .17098999 .4133911 .20199585 .4133911 .23298645 .4133911 .23298645 .37738038 .23298645 .3653717 .23298645 .3463745 .21998596 .29534913 .21199036 .2603302L.18399048 .15229798C.18099976 .13728333 .17098999 .09927368 .16699219 .08425903 .1619873 .06225586 .15299988 .027236939 .15299988 .020233155 .15299988-.0017700195 .16899109-.009765625 .18399048-.009765625 .20599365-.009765625 .21899414 .0062408449 .22299195 .01423645 .22599793 .021240235 .23498535 .057250978 .23999024 .07826233L.2669983 .18630982C.27198792 .20831299 .27799989 .22932434 .2829895 .2513275 .2889862 .27534486 .2999878 .31835938 .34399415 .3683777 .3639984 .39138795 .3929901 .4133911 .43699647 .4133911 .44799806 .4133911 .48199464 .4123993 .5049896 .39639283 .48399354 .38638307 .47499085 .3683777 .47499085 .3513794 .47499085 .32336427 .49699403 .3173523 .5099945 .3173523 .5289917 .3173523 .55999758 .33135987 .55999758 .3723755Z"/>
<path id="font_1_16" d="M.38598634 .14328003C.38598634 .15628052 .37298585 .15628052 .36499024 .15628052 .34700013 .15628052 .34599305 .1532898 .34098817 .13528443 .32798768 .087249759 .29499818 .018234253 .24398804 .018234253 .21998596 .018234253 .21998596 .042236329 .21998596 .052246095 .21998596 .07624817 .23699951 .119277957 .25 .1512909L.31599427 .32435609C.32199098 .34136964 .32199098 .3443756 .32199098 .3573761 .32199098 .40238954 .2869873 .44140626 .23199463 .44140626 .13398743 .44140626 .08799744 .3063507 .08799744 .28834535 .08799744 .27534486 .100997928 .27534486 .10899353 .27534486 .12098694 .27534486 .1269989 .27534486 .12998963 .28834535 .16299439 .40438844 .21099854 .4133911 .22898865 .4133911 .24099732 .4133911 .2539978 .4104004 .2539978 .37937928 .2539978 .3573761 .24598694 .33737184 .23799134 .31636048L.21099854 .24732971 .17599488 .15428162C.1659851 .12828064 .1519928 .09225464 .1519928 .07424927 .1519928 .02822876 .18798828-.009765625 .24099732-.009765625 .34098817-.009765625 .38598634 .12727356 .38598634 .14328003M.3919983 .6092377C.3919983 .63723757 .37098695 .65625 .34399415 .65625 .30599977 .65625 .27398683 .62124636 .27398683 .5882416 .27398683 .5632477 .29299928 .5412445 .32199098 .5412445 .35798646 .5412445 .3919983 .57424929 .3919983 .6092377Z"/>
<path id="font_1_2" d="M.62098696 .14328003C.62098696 .15628052 .60798647 .15628052 .59999087 .15628052 .58200076 .15628052 .58099368 .15428162 .57499697 .12927246 .5609894 .07725525 .5439911 .018234253 .5069885 .018234253 .47898866 .018234253 .47499085 .048233034 .47499085 .06524658 .47499085 .08226013 .47999574 .103256229 .48098756 .10626221L.62098696 .66529849C.621994 .6693115 .6239929 .67630007 .6239929 .68029788 .6239929 .6953125 .60798647 .6943054 .5970001 .69329836L.4889984 .6843109C.47599793 .68330386 .46299745 .682312 .46299745 .66130068 .46299745 .64730837 .47599793 .64730837 .4889984 .64730837 .5369873 .64730837 .5369873 .64030459 .5369873 .63131716 .5369873 .62831118 .5369873 .62631228 .5329895 .61231997L.47698976 .38539125C.45399476 .4203949 .41999818 .44140626 .37799073 .44140626 .2559967 .44140626 .1289978 .300354 .1289978 .15428162 .1289978 .04724121 .19699097-.009765625 .2709961-.009765625 .33499146-.009765625 .3880005 .037231447 .4079895 .058242799 .42099 .010223389 .46798707-.009765625 .5039978-.009765625 .5349884-.009765625 .5609894 .0052337648 .58299258 .041229249 .6069946 .08026123 .62098696 .14027405 .62098696 .14328003M.45599366 .3023529 .4139862 .13627625C.4059906 .105270389 .38398744 .08125305 .36099244 .059249879 .31999208 .023223877 .2889862 .018234253 .27398683 .018234253 .22799683 .018234253 .20498657 .06124878 .20498657 .11326599 .20498657 .1552887 .22999573 .26533509 .2579956 .3193512 .2899933 .37838746 .33799745 .4133911 .37799073 .4133911 .44599916 .4133911 .45899964 .32635499 .45899964 .31636048 .45899964 .3133545 .45799256 .3093567 .45599366 .3023529Z"/>
<path id="font_1_11" d="M.57199099 .73799136C.57199099 .74697878 .5649872 .75 .55799868 .75 .5439911 .75 .40098573 .6579895 .30599977 .49998475 .22599793 .36798097 .1789856 .2199707 .1789856 .07498169 .1789856 .038970949 .17999268-.03703308 .21798706-.12602234 .24299622-.18302918 .29699708-.24902344 .31498719-.24902344 .32798768-.24902344 .32798768-.23703003 .32798768-.23703003 .32798768-.23402405 .32798768-.23202515 .31599427-.21702576 .24198914-.12503052 .23799134-.0040283205 .23799134 .039978029 .23799134 .15097046 .27198792 .31497193 .34199525 .4559784 .40899659 .58898928 .4869995 .6669769 .5629883 .72499087 .56900027 .72898867 .57199099 .73197939 .57199099 .73799136Z"/>
<path id="font_1_7" d="M.973999 .14328003C.973999 .15628052 .96099856 .15628052 .9529877 .15628052 .93499758 .15628052 .9339905 .1532898 .92900088 .13528443 .9119873 .07325745 .8759918 .018234253 .83200076 .018234253 .81799319 .018234253 .8069916 .025222779 .8069916 .052246095 .8069916 .07424927 .81599429 .0962677 .82398989 .119277957 .84199526 .16629029 .8839874 .27534486 .8839874 .33036805 .8839874 .4084015 .8299866 .44140626 .7609863 .44140626 .6839905 .44140626 .6309967 .39839173 .58999636 .34536744 .58099368 .42840577 .5130005 .44140626 .46699525 .44140626 .37799073 .44140626 .32699586 .38137818 .3039856 .3553772 .2979889 .418396 .24398804 .44140626 .20498657 .44140626 .1619873 .44140626 .13999939 .4133911 .125 .38838197 .10398865 .3553772 .08799744 .29434205 .08799744 .28834535 .08799744 .27534486 .100997928 .27534486 .10899353 .27534486 .1269989 .27534486 .12799073 .27633668 .1349945 .3043518 .1519928 .37338258 .17098999 .4133911 .20199585 .4133911 .23298645 .4133911 .23298645 .37738038 .23298645 .3653717 .23298645 .3463745 .21998596 .29534913 .21199036 .2603302L.18399048 .15228272C.18099976 .13728333 .17098999 .09925842 .16699219 .08425903 .1619873 .0622406 .15299988 .027236939 .15299988 .020233155 .15299988-.0017700195 .16899109-.009765625 .18399048-.009765625 .21798706-.009765625 .22499085 .020233155 .22898865 .035232545L.2519989 .12426758 .2849884 .25933839C.2849884 .25933839 .31799317 .33636476 .36299134 .3743744 .3769989 .38539125 .41099549 .4133911 .46398927 .4133911 .5109863 .4133911 .5209961 .37638856 .5209961 .3443756 .5209961 .32136537 .5139923 .29434205 .5079956 .26834107L.48399354 .17228699 .46299745 .088256839C.45700074 .06625366 .44699098 .026229859 .44699098 .020233155 .44699098-.0017700195 .46299745-.009765625 .47799684-.009765625 .5119934-.009765625 .5189972 .020233155 .522995 .035232545L.54599 .12426758C.548996 .13928223 .5589905 .17729187 .56199648 .19230652 .5649872 .20230103 .5779877 .2523346 .57899478 .25933839 .58099368 .26533509 .61099246 .33135987 .6519928 .36938478 .6819916 .39639283 .71699526 .4133911 .7569885 .4133911 .8029938 .4133911 .81399539 .37838746 .81399539 .34536744 .81399539 .28634645 .7669983 .1652832 .75 .119277957 .73999026 .09425354 .73999026 .087249759 .73999026 .07424927 .73999026 .020233155 .7829895-.009765625 .82899478-.009765625 .92900088-.009765625 .973999 .12727356 .973999 .14328003Z"/>
<path id="font_1_1" d="M.61099246 .14328003C.61099246 .15628052 .59799197 .15628052 .58999636 .15628052 .57199099 .15628052 .57099917 .15428162 .5649872 .12927246 .5509949 .07725525 .5339966 .018234253 .49699403 .018234253 .46899415 .018234253 .46499635 .048233034 .46499635 .06524658 .46499635 .08226013 .46499635 .08425903 .47099305 .10726929L.5369873 .37138368C.54100039 .38638307 .54100039 .38838197 .54100039 .39239503 .54100039 .4143982 .5249939 .4223938 .5099945 .4223938 .47698976 .4223938 .46699525 .38838197 .46598817 .38539125 .44099427 .4263916 .4039917 .44140626 .36799623 .44140626 .24598694 .44140626 .11898804 .300354 .11898804 .15428162 .11898804 .04724121 .18699646-.009765625 .26098634-.009765625 .32499696-.009765625 .37799073 .037231447 .397995 .058242799 .41099549 .010223389 .45799256-.009765625 .49398805-.009765625 .5249939-.009765625 .5509949 .0052337648 .57299807 .041229249 .5970001 .08026123 .61099246 .14027405 .61099246 .14328003M.44599916 .3023529 .4039917 .13627625C.3959961 .105270389 .37399293 .08125305 .35099793 .059249879 .30999757 .023223877 .2789917 .018234253 .2639923 .018234253 .21798706 .018234253 .19499207 .06124878 .19499207 .11326599 .19499207 .1552887 .21998596 .26533509 .24798584 .3193512 .27999879 .37838746 .32798768 .4133911 .36799623 .4133911 .43598939 .4133911 .44898988 .32635499 .44898988 .31636048 .44898988 .3133545 .44799806 .3093567 .44599916 .3023529Z"/>
<path id="font_1_10" d="M.5799866 .27734376C.5799866 .37838746 .5159912 .44140626 .43798829 .44140626 .37298585 .44140626 .31999208 .39439393 .30099488 .37338258 .2849884 .42840577 .23298645 .44140626 .20498657 .44140626 .1619873 .44140626 .13999939 .4133911 .125 .38838197 .10398865 .3553772 .08799744 .29434205 .08799744 .28834535 .08799744 .27534486 .100997928 .27534486 .10899353 .27534486 .1269989 .27534486 .12799073 .27633668 .1349945 .3043518 .1519928 .37338258 .17098999 .4133911 .20199585 .4133911 .23298645 .4133911 .23298645 .37738038 .23298645 .3653717 .23298645 .35437013 .23298645 .34736634 .22898865 .33135987L.115997318-.12246704C.10899353-.15138245 .102996829-.15736389 .06599426-.15736389 .051986696-.15736389 .039993287-.15736389 .039993287-.17936707 .039993287-.18836975 .04598999-.19335938 .053985597-.19335938 .07998657-.19335938 .11099243-.18936157 .13798523-.18936157 .17098999-.18936157 .20799256-.19335938 .23999024-.19335938 .24499512-.19335938 .2599945-.19335938 .2599945-.17236328 .2599945-.15736389 .25-.15736389 .23098755-.15736389 .21299744-.15736389 .18598938-.15736389 .18598938-.145401 .18598938-.13941956 .19099427-.116485599 .19499207-.10151672L.23199463 .04623413C.24598694 .024230957 .2769928-.009765625 .33099366-.009765625 .45399476-.009765625 .5799866 .13327027 .5799866 .27734376M.5039978 .3193512C.5039978 .2693329 .47599793 .16029358 .45199586 .11526489 .40899659 .036239625 .35798646 .018234253 .33099366 .018234253 .2639923 .018234253 .25 .101257327 .25 .11526489 .25 .119277957 .25099183 .121276859 .25299073 .13027954L.2939911 .29534913C.30299378 .33236695 .37199403 .4133911 .43499757 .4133911 .47999574 .4133911 .5039978 .37138368 .5039978 .3193512Z"/>
<path id="font_1_12" d="M.43099977 .4259796C.43099977 .46298219 .42799378 .5379791 .3959961 .61698916 .36698915 .6859894 .31098939 .75 .29499818 .75 .28599549 .75 .2809906 .74598696 .2809906 .73799136 .2809906 .7339783 .2809906 .73197939 .2919922 .7189789 .35099793 .64598086 .37098695 .5529785 .37098695 .46098329 .37098695 .34797669 .32598878-.0110321049 .04899597-.22203064 .038986207-.23002625 .036987306-.23103333 .036987306-.23703003 .036987306-.24302674 .039993287-.24902344 .050994874-.24902344 .06199646-.24902344 .20399475-.1650238 .30999757 .010971069 .394989 .15296936 .43099977 .30897523 .43099977 .4259796Z"/>
<path id="font_1_5" d="M.62098696 .14328003C.62098696 .15628052 .60798647 .15628052 .59999087 .15628052 .58200076 .15628052 .58099368 .1532898 .57598879 .13528443 .5589905 .07325745 .522995 .018234253 .47898866 .018234253 .46499635 .018234253 .45399476 .025222779 .45399476 .052246095 .45399476 .07424927 .46299745 .0962677 .47099305 .119277957 .4889984 .16629029 .5309906 .27534486 .5309906 .33036805 .5309906 .4133911 .47099305 .44140626 .4079895 .44140626 .31698609 .44140626 .2619934 .37538148 .2539978 .36637879L.32899476 .66529849C.32998658 .6693115 .33198548 .67630007 .33198548 .68029788 .33198548 .6953125 .31599427 .6943054 .30499269 .69329836L.19699097 .6843109C.18399048 .68330386 .17098999 .682312 .17098999 .66130068 .17098999 .64730837 .18399048 .64730837 .19699097 .64730837 .24499512 .64730837 .24499512 .64030459 .24499512 .63131716 .24499512 .62731936 .24198914 .613327 .24099732 .60832217L.09899902 .041229249C.09498596 .027236939 .09498596 .025222779 .09498596 .020233155 .09498596 .0012207031 .10899353-.009765625 .1269989-.009765625 .1599884-.009765625 .16799927 .021224976 .16999817 .030227662L.19198609 .120269779 .22599793 .2543335C.22898865 .264328 .25498963 .32835389 .30299378 .37338258 .32998658 .39738465 .36698915 .4133911 .40499879 .4133911 .44898988 .4133911 .46099855 .37838746 .46099855 .34536744 .46099855 .28634645 .4139862 .16429138 .39698792 .119277957 .3869934 .09425354 .3869934 .087249759 .3869934 .07424927 .3869934 .020233155 .42999269-.009765625 .47599793-.009765625 .57598879-.009765625 .62098696 .12727356 .62098696 .14328003Z"/>
<path id="font_1_8" d="M.6799927 .14328003C.6799927 .15628052 .6669922 .15628052 .6589966 .15628052 .6409912 .15628052 .6399994 .1532898 .6349945 .13528443 .6179962 .07325745 .58200076 .018234253 .5379944 .018234253 .5239868 .018234253 .5130005 .025222779 .5130005 .052246095 .5130005 .07424927 .5219879 .0962677 .5299988 .119277957 .5479889 .16629029 .58999636 .27534486 .58999636 .33036805 .58999636 .4084015 .5359955 .44140626 .46699525 .44140626 .3880005 .44140626 .33399964 .39439393 .3039856 .35636903 .29699708 .41740418 .24499512 .44140626 .20498657 .44140626 .1619873 .44140626 .13999939 .4133911 .125 .38838197 .10398865 .3553772 .08799744 .29434205 .08799744 .28834535 .08799744 .27534486 .100997928 .27534486 .10899353 .27534486 .1269989 .27534486 .12799073 .27633668 .1349945 .3043518 .1519928 .37338258 .17098999 .4133911 .20199585 .4133911 .23298645 .4133911 .23298645 .37738038 .23298645 .3653717 .23298645 .3463745 .21998596 .29534913 .21199036 .2603302L.18399048 .15228272C.18099976 .13728333 .17098999 .09925842 .16699219 .08425903 .1619873 .0622406 .15299988 .027236939 .15299988 .020233155 .15299988-.0017700195 .16899109-.009765625 .18399048-.009765625 .21798706-.009765625 .22499085 .020233155 .22898865 .035232545L.2519989 .12426758C.25498963 .13928223 .2649994 .17729187 .2679901 .19230652 .2709961 .20230103 .28399659 .2523346 .2849884 .25933839 .2869873 .26533509 .31698609 .33135987 .35798646 .36938478 .3880005 .39639283 .4229889 .4133911 .46299745 .4133911 .5089874 .4133911 .519989 .37838746 .519989 .34536744 .519989 .28634645 .47299195 .1652832 .45599366 .119277957 .44599916 .09425354 .44599916 .087249759 .44599916 .07424927 .44599916 .020233155 .4889984-.009765625 .5349884-.009765625 .6349945-.009765625 .6799927 .12727356 .6799927 .14328003Z"/>
<path id="font_1_3" d="M.54100039 .097335819C.54100039 .10534668 .5269928 .12136841 .5179901 .12136841 .5130005 .12136841 .5099945 .11836243 .5029907 .11035156 .44198609 .037246705 .35499574 .018234253 .30499269 .018234253 .23999024 .018234253 .21199036 .07330322 .21199036 .13638306 .21199036 .16741944 .21798706 .19847107 .22499085 .22851563H.2869873C.32998658 .22851563 .5269928 .22851563 .5269928 .35343934 .5269928 .40740968 .47599793 .44140626 .4059906 .44140626 .2939911 .44140626 .1349945 .35144044 .1349945 .1754303 .1349945 .07029724 .19699097-.009765625 .30499269-.009765625 .46398927-.009765625 .54100039 .08432007 .54100039 .097335819M.47898866 .3544464C.47898866 .2565155 .31900025 .2565155 .27999879 .2565155H.23298645C.27799989 .4113922 .3939972 .4133911 .4059906 .4133911 .44799806 .4133911 .47898866 .39041139 .47898866 .3544464Z"/>
<path id="font_1_14" d="M.4149933 .14404297C.4149933 .15602112 .4019928 .15602112 .394989 .15602112 .3789978 .15602112 .37799073 .15402222 .37199403 .14004517 .32499696 .034194948 .272995 .018234253 .24598694 .018234253 .21199036 .018234253 .21199036 .05517578 .21199036 .06515503 .21199036 .0821228 .21699524 .10310364 .21798706 .10609436L.2899933 .39465333H.3889923C.40699769 .39465333 .4189911 .39465333 .4189911 .4166565 .4189911 .43066407 .40699769 .43066407 .3909912 .43066407H.29899598L.33499146 .5749054C.33898927 .5889282 .33898927 .5909271 .33898927 .5949402 .33898927 .6129761 .32499696 .625 .30699159 .625 .272995 .625 .2649994 .5919342 .2630005 .58291628L.22499085 .43066407H.12599182C.10798645 .43066407 .09599304 .43066407 .09599304 .4086609 .09599304 .39465333 .10798645 .39465333 .12399292 .39465333H.21598816L.14698792 .11807251C.14199829 .098098758 .14199829 .09111023 .14199829 .084121707 .14199829 .022216797 .19099427-.009765625 .24299622-.009765625 .35099793-.009765625 .4149933 .12806702 .4149933 .14404297Z"/>
<path id="font_1_15" d="M.79299929 .36437989C.79299929 .4393921 .7529907 .44239808 .74598696 .44239808 .7200012 .44239808 .69400027 .4163971 .69400027 .39138795 .69400027 .37738038 .70199587 .3703766 .70700076 .36437989 .72698977 .3443756 .73599246 .31835938 .73599246 .28933717 .73599246 .2513275 .70700076 .15628052 .68899539 .11427307 .6609955 .050247194 .625 .018234253 .57899478 .018234253 .548996 .018234253 .5019989 .030227662 .5019989 .104263309 .5019989 .13027954 .5069885 .1512909 .5189972 .20030213 .5479889 .3123474 .5479889 .31436158 .5499878 .32336427 .5569916 .34936524 .56900027 .39738465 .56900027 .4013977 .56900027 .4163971 .55799868 .43139649 .5369873 .43139649 .5049896 .43139649 .49598695 .40238954 .49198915 .38838197L.43899537 .17329407C.43299867 .14727783 .43199159 .13227844 .43199159 .121276859 .43099977 .09925842 .4119873 .06724548 .39898683 .051239015 .37399293 .018234253 .34799195 .018234253 .33799745 .018234253 .27799989 .018234253 .2539978 .056243898 .2539978 .10826111 .2539978 .15829468 .2769928 .22232056 .31199647 .3123474 .31799317 .32736207 .32199098 .33836366 .32199098 .3573761 .32199098 .4073944 .28199769 .44140626 .23298645 .44140626 .13398743 .44140626 .08799744 .3053589 .08799744 .28834535 .08799744 .27534486 .100997928 .27534486 .10899353 .27534486 .12098694 .27534486 .1269989 .27534486 .12998963 .28834535 .16099549 .39738465 .20599365 .4133911 .22999573 .4133911 .24699402 .4133911 .25498963 .40238954 .25498963 .38038636 .25498963 .3573761 .24798584 .34136964 .22999573 .29335023 .19499207 .2013092 .18299866 .15628052 .18299866 .121276859 .18299866 .017227173 .2669983-.009765625 .33599855-.009765625 .35598756-.009765625 .4039917-.008773804 .44499208 .054244996 .47698976-.003768921 .5439911-.009765625 .57598879-.009765625 .6499939-.009765625 .69599917 .04524231 .7279968 .11227417 .7589874 .17829895 .79299929 .3083496 .79299929 .36437989Z"/>
<path id="font_1_9" d="M.57899478 .2693329C.57899478 .36637879 .5109863 .44140626 .4079895 .44140626 .2649994 .44140626 .12998963 .3023529 .12998963 .16229248 .12998963 .0602417 .20199585-.009765625 .30099488-.009765625 .44400025-.009765625 .57899478 .13027954 .57899478 .2693329M.5 .30334474C.5 .2693329 .4850006 .17329407 .44198609 .105270389 .41099549 .057250978 .35499574 .018234253 .3019867 .018234253 .27398683 .018234253 .20899964 .032226564 .20899964 .12828064 .20899964 .17228699 .22898865 .27734376 .2769928 .33937074 .31199647 .38638307 .36299134 .4133911 .40699769 .4133911 .44198609 .4133911 .5 .39239503 .5 .30334474Z"/>
<path id="font_1_6" d="M.56199648 .14329529C.56199648 .15629578 .548996 .15629578 .54100039 .15629578 .522995 .15629578 .5219879 .1532898 .5169983 .1362915 .5049896 .087265018 .48199464 .018234253 .43699647 .018234253 .41600038 .018234253 .40299989 .031234742 .40299989 .06825256 .40299989 .072250369 .40299989 .089263919 .40899659 .11328125 .4119873 .12828064 .4139862 .1402893 .4139862 .14628601 .4139862 .22232056 .32598878 .24433899 .2639923 .25234986 .2669983 .25434876 .29699708 .27334596 .34899903 .32537843 .394989 .3703766 .44198609 .4133911 .49198915 .4133911 .5089874 .4133911 .5169983 .40538026 .519989 .39938355 .49899293 .39337159 .48199464 .37538148 .48199464 .3513794 .48199464 .32337953 .5039978 .3173828 .5169983 .3173828 .54299929 .3173828 .56799319 .3383789 .56799319 .3743744 .56799319 .4093933 .5419922 .44140626 .49398805 .44140626 .44499208 .44140626 .39898683 .4113922 .34098817 .3533783 .2829895 .29637147 .25698854 .277359 .22898865 .26535035L.32899476 .66529849C.32998658 .6693115 .33198548 .67630007 .33198548 .68029788 .33198548 .6953125 .31599427 .6943054 .30499269 .69329836L.19699097 .6843109C.18399048 .68330386 .17098999 .682312 .17098999 .66130068 .17098999 .64730837 .18399048 .64730837 .19699097 .64730837 .24499512 .64730837 .24499512 .64030459 .24499512 .63131716 .24499512 .62731936 .24198914 .613327 .24099732 .60832217L.09899902 .041244508C.09498596 .027236939 .09498596 .025222779 .09498596 .020233155 .09498596 .0012207031 .10899353-.009765625 .1269989-.009765625 .1599884-.009765625 .16699219 .019226075 .17199707 .038238527L.21899414 .22633362C.27198792 .22132874 .33999635 .20132447 .33999635 .14428711 .33999635 .1382904 .33999635 .13427735 .33699037 .119277957 .33299256 .104263309 .33299256 .10127258 .33299256 .09126282 .33299256 .037231447 .37199403-.009765625 .43399049-.009765625 .5299988-.009765625 .56199648 .1402893 .56199648 .14329529Z"/>
</defs>
<use data-text="g" xlink:href="#font_1_4" transform="matrix(6.9738,0,0,-6.9738,12.960003,16.521004)" fill="#555555"/>
<use data-text="r" xlink:href="#font_1_13" transform="matrix(6.9738,0,0,-6.9738,16.75375,16.521004)" fill="#555555"/>
<use data-text="i" xlink:href="#font_1_16" transform="matrix(6.9738,0,0,-6.9738,20.24065,16.521004)" fill="#555555"/>
<use data-text="d" xlink:href="#font_1_2" transform="matrix(6.9738,0,0,-6.9738,22.80701,16.521004)" fill="#555555"/>
<use data-text="(" xlink:href="#font_1_11" transform="matrix(6.9738,0,0,-6.9738,29.990025,16.521004)" fill="#555555"/>
<use data-text="m" xlink:href="#font_1_7" transform="matrix(6.9738,0,0,-6.9738,33.37929,16.521004)" fill="#555555"/>
<use data-text="a" xlink:href="#font_1_1" transform="matrix(6.9738,0,0,-6.9738,40.046247,16.521004)" fill="#555555"/>
<use data-text="p" xlink:href="#font_1_10" transform="matrix(6.9738,0,0,-6.9738,44.251447,16.521004)" fill="#555555"/>
<use data-text=")" xlink:href="#font_1_12" transform="matrix(6.9738,0,0,-6.9738,48.456647,16.521004)" fill="#555555"/>
<path transform="matrix(1,0,0,-1,72.799,71.328)" stroke-width=".3985" stroke-linecap="butt" stroke-miterlimit="10" stroke-linejoin="miter" fill="none" stroke="#b9b9b9" d="M-64.63034 17.23518H-16.15776M-64.63034 25.85278H-16.15776M-64.63034 34.47038H-16.15776M-64.63034 43.088H-16.15776M-64.63034 51.70558H-16.15776M-60.3232 16.15776V53.85875M-51.70558 16.15776V53.85875M-43.088 16.15776V53.85875M-34.47038 16.15776V53.85875M-25.85278 16.15776V53.85875M-17.23518 16.15776V53.85875M-16.15776 53.85875"/>
<use data-text="g" xlink:href="#font_1_4" transform="matrix(6.9738,0,0,-6.9738,87.204,16.521004)" fill="#555555"/>
<use data-text="r" xlink:href="#font_1_13" transform="matrix(6.9738,0,0,-6.9738,90.99775,16.521004)" fill="#555555"/>
<use data-text="a" xlink:href="#font_1_1" transform="matrix(6.9738,0,0,-6.9738,94.0732,16.521004)" fill="#555555"/>
<use data-text="p" xlink:href="#font_1_10" transform="matrix(6.9738,0,0,-6.9738,98.2784,16.521004)" fill="#555555"/>
<use data-text="h" xlink:href="#font_1_5" transform="matrix(6.9738,0,0,-6.9738,102.4836,16.521004)" fill="#555555"/>
<use data-text="(" xlink:href="#font_1_11" transform="matrix(6.9738,0,0,-6.9738,109.66661,16.521004)" fill="#555555"/>
<use data-text="n" xlink:href="#font_1_8" transform="matrix(6.9738,0,0,-6.9738,113.05588,16.521004)" fill="#555555"/>
<use data-text="e" xlink:href="#font_1_3" transform="matrix(6.9738,0,0,-6.9738,117.67253,16.521004)" fill="#555555"/>
<use data-text="t" xlink:href="#font_1_14" transform="matrix(6.9738,0,0,-6.9738,121.46628,16.521004)" fill="#555555"/>
<use data-text="w" xlink:href="#font_1_15" transform="matrix(6.9738,0,0,-6.9738,124.24185,16.521004)" fill="#555555"/>
<use data-text="o" xlink:href="#font_1_9" transform="matrix(6.9738,0,0,-6.9738,129.67444,16.521004)" fill="#555555"/>
<use data-text="r" xlink:href="#font_1_13" transform="matrix(6.9738,0,0,-6.9738,133.87964,16.521004)" fill="#555555"/>
<use data-text="k" xlink:href="#font_1_6" transform="matrix(6.9738,0,0,-6.9738,137.36653,16.521004)" fill="#555555"/>
<use data-text=")" xlink:href="#font_1_12" transform="matrix(6.9738,0,0,-6.9738,141.16028,16.521004)" fill="#555555"/>
<path transform="matrix(1,0,0,-1,72.799,71.328)" d="M29.9056 43.08716C29.9056 46.21828 27.36737 48.7565 24.23625 48.7565 21.10513 48.7565 18.5669 46.21828 18.5669 43.08716 18.5669 39.95604 21.10513 37.4178 24.23625 37.4178 27.36737 37.4178 29.9056 39.95604 29.9056 43.08716ZM24.23625 43.08716" fill="#dae6f0"/>
<path transform="matrix(1,0,0,-1,72.799,71.328)" stroke-width=".69739" stroke-linecap="butt" stroke-miterlimit="10" stroke-linejoin="miter" fill="none" stroke="#555555" d="M29.9056 43.08716C29.9056 46.21828 27.36737 48.7565 24.23625 48.7565 21.10513 48.7565 18.5669 46.21828 18.5669 43.08716 18.5669 39.95604 21.10513 37.4178 24.23625 37.4178 27.36737 37.4178 29.9056 39.95604 29.9056 43.08716ZM24.23625 43.08716"/>
<path transform="matrix(1,0,0,-1,72.799,71.328)" d="M62.2212 47.1264C62.2212 50.25752 59.68297 52.79575 56.55185 52.79575 53.42073 52.79575 50.8825 50.25752 50.8825 47.1264 50.8825 43.99529 53.42073 41.45705 56.55185 41.45705 59.68297 41.45705 62.2212 43.99529 62.2212 47.1264ZM56.55185 47.1264" fill="#dae6f0"/>
<path transform="matrix(1,0,0,-1,72.799,71.328)" stroke-width=".69739" stroke-linecap="butt" stroke-miterlimit="10" stroke-linejoin="miter" fill="none" stroke="#555555" d="M62.2212 47.1264C62.2212 50.25752 59.68297 52.79575 56.55185 52.79575 53.42073 52.79575 50.8825 50.25752 50.8825 47.1264 50.8825 43.99529 53.42073 41.45705 56.55185 41.45705 59.68297 41.45705 62.2212 43.99529 62.2212 47.1264ZM56.55185 47.1264"/>
<path transform="matrix(1,0,0,-1,72.799,71.328)" d="M46.0634 24.23625C46.0634 27.36737 43.52518 29.9056 40.39406 29.9056 37.26292 29.9056 34.7247 27.36737 34.7247 24.23625 34.7247 21.10513 37.26292 18.5669 40.39406 18.5669 43.52518 18.5669 46.0634 21.10513 46.0634 24.23625ZM40.39406 24.23625" fill="#dae6f0"/>
<path transform="matrix(1,0,0,-1,72.799,71.328)" stroke-width=".69739" stroke-linecap="butt" stroke-miterlimit="10" stroke-linejoin="miter" fill="none" stroke="#555555" d="M46.0634 24.23625C46.0634 27.36737 43.52518 29.9056 40.39406 29.9056 37.26292 29.9056 34.7247 27.36737 34.7247 24.23625 34.7247 21.10513 37.26292 18.5669 40.39406 18.5669 43.52518 18.5669 46.0634 21.10513 46.0634 24.23625ZM40.39406 24.23625"/>
<path transform="matrix(1,0,0,-1,72.799,71.328)" d="M70.29968 24.23625C70.29968 27.36737 67.76146 29.9056 64.63034 29.9056 61.49922 29.9056 58.96098 27.36737 58.96098 24.23625 58.96098 21.10513 61.49922 18.5669 64.63034 18.5669 67.76146 18.5669 70.29968 21.10513 70.29968 24.23625ZM64.63034 24.23625" fill="#cce2de"/>
<path transform="matrix(1,0,0,-1,72.799,71.328)" stroke-width=".69739" stroke-linecap="butt" stroke-miterlimit="10" stroke-linejoin="miter" fill="none" stroke="#555555" d="M70.29968 24.23625C70.29968 27.36737 67.76146 29.9056 64.63034 29.9056 61.49922 29.9056 58.96098 27.36737 58.96098 24.23625 58.96098 21.10513 61.49922 18.5669 64.63034 18.5669 67.76146 18.5669 70.29968 21.10513 70.29968 24.23625ZM64.63034 24.23625"/>
<path transform="matrix(1,0,0,-1,72.799,71.328)" stroke-width=".79701" stroke-linecap="butt" stroke-miterlimit="10" stroke-linejoin="miter" fill="none" stroke="#003e74" d="M30.20705 43.83229 50.57938 46.37892M58.55269 41.45053 62.62593 29.91019M58.61102 24.2357H46.41107M36.47662 28.80432 28.15163 38.51715"/>
<path transform="matrix(1,0,0,-1,72.799,71.328)" stroke-width=".79701" stroke-linecap="butt" stroke-miterlimit="10" stroke-linejoin="miter" fill="none" stroke="#003e74" d="M53.08026 42.20929 43.86336 29.15196"/>
</svg>
