<svg xmlns="http://www.w3.org/2000/svg" xmlns:xlink="http://www.w3.org/1999/xlink" xmlns:inkscape="http://www.inkscape.org/namespaces/inkscape" version="1.1" width="334.835" height="158.968" viewBox="0 0 334.835 158.968">
<defs>
<path id="font_1_2" d="M.7659912 .22724915C.7659912 .24725342 .7589874 .2482605 .74198916 .2482605 .72898867 .2482605 .7200012 .2482605 .71899417 .23124695 .71199038 .09724426 .59098818 .036254884 .48999024 .036254884 .4119873 .036254884 .32798768 .060256959 .27598573 .12124634 .22898865 .17825318 .21699524 .25325013 .21699524 .34326173 .21699524 .39926148 .21998596 .5072632 .2829895 .57325747 .34799195 .63926699 .43499757 .6502533 .4869995 .6502533 .59498599 .6502533 .6899872 .5742645 .71199038 .44725038 .71499636 .42825318 .71598818 .42625428 .7389984 .42625428 .7649994 .42625428 .7659912 .42825318 .7659912 .45425416V.6692505C.7659912 .68826296 .7659912 .6972656 .7480011 .6972656 .7389984 .6972656 .7369995 .69525149 .72898867 .68826296L.6629944 .6292572C.6009979 .67926028 .5339966 .6972656 .46598817 .6972656 .21699524 .6972656 .06399536 .54826357 .06399536 .34326173 .06399536 .13824463 .21699524-.0107421879 .46598817-.0107421879 .6529999-.0107421879 .7659912 .11225891 .7659912 .22724915Z"/>
<path id="font_1_8" d="M.29299928 0V.04699707H.22399903V.69433596L.04699707 .6855469V.63853457C.10899353 .63853457 .115997318 .63853457 .115997318 .5995636V.04699707H.04699707V0L.16999817 .0029907227 .29299928 0Z"/>
<path id="font_1_1" d="M.5529938 .023986817C.5529938 .04699707 .5399933 .04699707 .5269928 .04699707 .46598817 .04798889 .46598817 .06100464 .46598817 .083999637V.29907228C.46598817 .3881073 .394989 .453125 .24598694 .453125 .18899536 .453125 .066986087 .44911195 .066986087 .36109925 .066986087 .3170929 .101989749 .29808045 .1289978 .29808045 .1599884 .29808045 .19198609 .3190918 .19198609 .36109925 .19198609 .39111329 .17298889 .40811158 .16999817 .41011048 .19799805 .41612245 .22999573 .41711427 .24198914 .41711427 .31698609 .41711427 .35198976 .3751068 .35198976 .29907228V.26506043C.2809906 .2620697 .026992798 .25306703 .026992798 .10801697 .026992798 .012130737 .15098572-.005859375 .21998596-.005859375 .2999878-.005859375 .34700013 .035125734 .36898805 .07713318 .36898805 .04598999 .36898805 0 .47299195 0H.5209961C.54100039 0 .5529938 0 .5529938 .023986817M.35198976 .13899231C.35198976 .043151857 .2599945 .030136109 .23498535 .030136109 .18399048 .030136109 .14399719 .06517029 .14399719 .10922241 .14399719 .21734619 .3019867 .23136902 .35198976 .234375V.13899231Z"/>
<path id="font_1_13" d="M.4149933 .14012146C.4149933 .18312073 .394989 .21812439 .3600006 .24612427 .32099916 .27511598 .2889862 .28112794 .21099854 .29412843 .17399597 .30111695 .10899353 .31211854 .10899353 .3591156 .10899353 .42111207 .20199585 .42111207 .22099304 .42111207 .29599 .42111207 .33399964 .39212037 .33898927 .33711244 .33999635 .32211305 .34098817 .3171234 .3619995 .3171234 .38598634 .3171234 .38598634 .32211305 .38598634 .3451233V.42510987C.38598634 .4441223 .38598634 .453125 .36799623 .453125 .3639984 .453125 .3619995 .453125 .32299806 .43411256 .29699708 .44711305 .2619934 .453125 .22200012 .453125 .19198609 .453125 .037994386 .453125 .037994386 .32211305 .037994386 .28211976 .057998659 .25512696 .07798767 .23812866 .117996219 .203125 .1559906 .1971283 .23298645 .18312073 .2689972 .17712403 .34399415 .16412354 .34399415 .10513306 .34399415 .030136109 .2519989 .030136109 .22999573 .030136109 .12399292 .030136109 .09799194 .103134158 .085998538 .14613343 .08099365 .16012573 .07598877 .16012573 .06199646 .16012573 .037994386 .16012573 .037994386 .15412903 .037994386 .13113404V.022140503C.037994386 .0031280518 .037994386-.005859375 .055999757-.005859375 .06298828-.005859375 .06498718-.005859375 .085998538 .009140015L.11199951 .026138306C.1579895-.005859375 .20999146-.005859375 .22999573-.005859375 .26098634-.005859375 .4149933-.005859375 .4149933 .14013672V.14012146Z"/>
<path id="font_1_16" d="M.28599549 0V.04699707H.22399903V.4501953L.049987794 .4423828V.39537049C.10899353 .39537049 .115997318 .39537049 .115997318 .3563385V.04699707H.04699707V0L.16899109 .0029907227 .28599549 0M.23799134 .60728457C.23799134 .6502838 .20298767 .6852875 .1599884 .6852875 .116989139 .6852875 .08198547 .6502838 .08198547 .60728457 .08198547 .5642853 .116989139 .5292969 .1599884 .5292969 .20298767 .5292969 .23799134 .5642853 .23799134 .60728457Z"/>
<path id="font_1_3" d="M.47799684 .117126468C.47799684 .13113404 .46398927 .13113404 .45399476 .13113404 .43598939 .13113404 .43499757 .12913513 .42999269 .11613464 .4039917 .053131105 .35598756 .03413391 .30499269 .03413391 .1659851 .03413391 .1659851 .18112183 .1659851 .22712708 .1659851 .28312684 .1659851 .41311646 .29499818 .41311646 .32998658 .41311646 .34700013 .41011048 .3600006 .40711976 .34199525 .39111329 .33999635 .3701172 .33999635 .3611145 .33999635 .3171234 .375 .29811097 .4019928 .29811097 .43299867 .29811097 .46499635 .3191223 .46499635 .3611145 .46499635 .44711305 .34899903 .453125 .29100038 .453125 .11199951 .45314027 .037994386 .33813478 .037994386 .22213745 .037994386 .08912659 .13198853-.005859375 .28599549-.005859375 .44799806-.005859375 .47799684 .11013794 .47799684 .117126468Z"/>
<path id="font_1_14" d="M.38198854 .124176029V.17721558H.33499146V.12619019C.33499146 .058151246 .30299378 .03413391 .2749939 .03413391 .21699524 .03413391 .21699524 .09817505 .21699524 .1211853V.3973236H.36299134V.44433595H.21699524V.6357422H.16999817C.16899109 .53552249 .11999512 .43632508 .020996094 .43333436V.3973236H.102996829V.123184207C.102996829 .01612854 .18998719-.005859375 .26098634-.005859375 .33699037-.005859375 .38198854 .05114746 .38198854 .124176029Z"/>
<path id="font_1_7" d="M.61499026 0V.04699707H.54599V.30613709C.54599 .41119386 .49198915 .4501953 .3919983 .4501953 .29599 .4501953 .24499512 .3921814 .22299195 .3541565H.22200012V.69433596L.04499817 .6855469V.63853457C.10699463 .63853457 .11399841 .63853457 .11399841 .5996704V.04699707H.04499817V0L.17098999 .0029907227 .29699708 0V.04699707H.22799683V.25610353C.22799683 .36515809 .31399537 .41418458 .3769989 .41418458 .41099549 .41418458 .43199159 .39317323 .43199159 .31713868V.04699707H.36299134V0L.4889984 .0029907227 .61499026 0Z"/>
<path id="font_1_5" d="M.49398805 .11706543C.49398805 .13504029 .47499085 .13504029 .46998597 .13504029 .45298768 .13504029 .45098878 .13005066 .44499208 .11405945 .42399598 .066101077 .36698915 .03413391 .3019867 .03413391 .16099549 .03413391 .1599884 .16700745 .1599884 .2179718H.46199037C.48399354 .2179718 .49398805 .2179718 .49398805 .2449646 .49398805 .27598573 .48799134 .34906007 .43798829 .3991089 .40098573 .43511964 .34799195 .453125 .2789917 .453125 .11898804 .453125 .03199768 .35005189 .03199768 .22497559 .03199768 .09107971 .13198853-.005859375 .29299928-.005859375 .45098878-.005859375 .49398805 .10006714 .49398805 .11706543M.39898683 .25097657H.1599884C.1619873 .29000855 .16299439 .3320465 .18399048 .36506654 .20999146 .4051056 .25 .41711427 .2789917 .41711427 .3959961 .41711427 .397995 .28599549 .39898683 .25097657Z"/>
<path id="font_1_10" d="M.5419922 .21812439C.5419922 .35212709 .44999696 .453125 .2869873 .453125 .12298584 .453125 .03199768 .35112 .03199768 .21812439 .03199768 .09413147 .11999512-.005859375 .2869873-.005859375 .45498658-.005859375 .5419922 .09512329 .5419922 .21812439M.4139862 .22912598C.4139862 .14213562 .4139862 .03413391 .2869873 .03413391 .1599884 .03413391 .1599884 .14213562 .1599884 .22912598 .1599884 .27412416 .1599884 .32511903 .1769867 .3591156 .19599915 .39611817 .23799134 .41711427 .2869873 .41711427 .32899476 .41711427 .37098695 .40112306 .3929901 .36611939 .4139862 .3321228 .4139862 .27713014 .4139862 .22912598Z"/>
<path id="font_1_12" d="M.44198609 .36819459C.44198609 .42118836 .3880005 .4501953 .33599855 .4501953 .2659912 .4501953 .22599793 .40019227 .20298767 .33718873V.4501953L.036987306 .4423828V.39537049C.09899902 .39537049 .10598755 .39537049 .10598755 .3563385V.04699707H.036987306V0L.16299439 .0029907227C.20098877 .0029907227 .2649994 .0029907227 .30099488 0V.04699707H.21398926V.22218323C.21398926 .29226686 .23899842 .41436769 .33898927 .41436769 .33898927 .41436769 .31999208 .39736939 .31999208 .36834718 .31999208 .32730104 .35198976 .3072815 .3809967 .3072815 .4099884 .3072815 .44198609 .3283081 .44198609 .36834718V.36819459Z"/>
<path id="font_1_15" d="M.5799866 .3973236V.44433595C.55599978 .44232179 .526001 .44132997 .5009918 .44132997L.4099884 .44433595V.3973236C.4099884 .3973236 .45700074 .3973236 .45700074 .3853302L.45199586 .37332154 .33699037 .12713623 .20999146 .3973236H.2639923V.44433595L.13999939 .44132997 .025985718 .44433595V.3973236H.08999634L.2769928 .000045776369 .2539978-.04798889C.23199463-.09602356 .19999695-.1640625 .1289978-.1640625 .114990238-.1640625 .11299133-.16307068 .10499573-.1600647 .11399841-.1560669 .13699341-.14205933 .13699341-.10702515 .13699341-.07400513 .11299133-.049987794 .07899475-.049987794 .050994874-.049987794 .021987915-.069000247 .021987915-.10803223 .021987915-.15907288 .068984989-.20007324 .1289978-.20007324 .20599365-.20007324 .2639923-.13804627 .29100038-.08100891L.5059967 .37631227C.5130005 .39031983 .5159912 .3973236 .5799866 .3973236Z"/>
<path id="font_2_23" d="M.7279968 .44877626 .70799258 .67578127H.057998659L.037994386 .44877626H.068984989C.08299255 .61776736 .10598755 .6427765 .25898744 .6427765 .27799989 .6427765 .30899049 .6427765 .31698609 .6407776 .33599855 .6367798 .33699037 .6267853 .33699037 .6017914V.081970218C.33699037 .04698181 .33699037 .032989503 .23298645 .032989503H.19499207V0C.23199463 .0029907227 .33999635 .0029907227 .3829956 .0029907227 .42599488 .0029907227 .5339966 .0029907227 .57099917 0V.032989503H.5329895C.42900086 .032989503 .42900086 .04698181 .42900086 .081970218V.6017914C.42900086 .6247864 .42900086 .6367798 .44999696 .6407776 .45899964 .6427765 .48799134 .6427765 .5069885 .6427765 .6599884 .6427765 .68299868 .61776736 .69699099 .44877626H.7279968Z"/>
<path id="font_2_10" d="M.56199648 0V.032989503C.49798585 .032989503 .48599244 .032989503 .48599244 .07814026V.30371095C.48599244 .38746644 .44799806 .44140626 .34298707 .44140626 .25498963 .44140626 .20899964 .3854828 .19099427 .3535614H.18998719V.69433596L.040985109 .6826172V.6496124C.10899353 .6496124 .116989139 .64263918 .116989139 .5938263V.07814026C.116989139 .032989503 .10499573 .032989503 .040985109 .032989503V0C.083999637 .0029907227 .12799073 .0029907227 .15499878 .0029907227 .18399048 .0029907227 .22599793 .0029907227 .2689972 0V.032989503C.20498657 .032989503 .19299317 .032989503 .19299317 .07814026V.2597046C.19299317 .36453248 .272995 .4133911 .33399964 .4133911 .394989 .4133911 .4099884 .37051393 .4099884 .30769349V.07814026C.4099884 .032989503 .397995 .032989503 .33399964 .032989503V0C.3769989 .0029907227 .42099 .0029907227 .44799806 .0029907227 .47698976 .0029907227 .5189972 .0029907227 .56199648 0Z"/>
<path id="font_2_6" d="M.44099427 .12036133C.44099427 .12435913 .43798829 .13438416 .4249878 .13438416 .4139862 .13438416 .4119873 .12736511 .4099884 .12136841 .37399293 .024230957 .28799439 .021224976 .269989 .021224976 .22499085 .021224976 .1789856 .042251588 .14898682 .08831787 .11898804 .13438416 .11898804 .19847107 .11898804 .22851563H.41299439C.43499757 .22851563 .44099427 .22851563 .44099427 .25151063 .44099427 .34039308 .3919983 .44628907 .25099183 .44628907 .1269989 .44628907 .02999878 .3433838 .02999878 .21949768 .02999878 .09031677 .13798523-.009765625 .2639923-.009765625 .3909912-.009765625 .44099427 .097335819 .44099427 .12036133M.37298585 .25450135H.11999512C.1289978 .39431764 .21398926 .41827394 .25099183 .41827394 .36799623 .41827394 .37199403 .27748109 .37298585 .25450135Z"/>
<path id="font_2_7" d="M.3769989 .63201907C.3769989 .6750946 .33499146 .70410159 .28199769 .70410159 .20698548 .70410159 .117996219 .65005496 .117996219 .54286196V.43066407H.035995485V.3976593H.117996219V.07795715C.117996219 .032989503 .10598755 .032989503 .041992189 .032989503V0C.08099365 .0029907227 .13598633 .0029907227 .1599884 .0029907227 .21899414 .0029907227 .22099304 .0029907227 .28599549 0V.032989503H.2659912C.19299317 .032989503 .19099427 .04397583 .19099427 .079956058V.3976593H.31098939V.43066407H.18798828V.54385378C.18798828 .63108828 .23699951 .6760864 .2809906 .6760864 .29699708 .6760864 .30599977 .6720886 .30999757 .6710968 .2919922 .6620941 .2869873 .6450958 .2869873 .63209536 .2869873 .60609439 .30599977 .58709719 .33198548 .58709719 .35899354 .58709719 .3769989 .60609439 .3769989 .63209536V.63201907Z"/>
<path id="font_2_16" d="M.5 .21325684C.5 .3382721 .39698792 .44628907 .2649994 .44628907 .1329956 .44628907 .02999878 .3382721 .02999878 .21325684 .02999878 .08824158 .13699341-.009765625 .2649994-.009765625 .3939972-.009765625 .5 .08824158 .5 .21325684M.41099549 .22225952C.41099549 .17625427 .40899659 .12124634 .3809967 .07923889 .35398866 .039230348 .30899049 .021224976 .2649994 .021224976 .21099854 .021224976 .16899109 .047225954 .14698792 .082229617 .12199402 .12324524 .11898804 .17224121 .11898804 .22225952 .11898804 .2602539 .11898804 .32026673 .1499939 .363266 .17599488 .3982849 .21798706 .41827394 .2649994 .41827394 .31698609 .41827394 .3600006 .39328004 .3829956 .35827638 .4099884 .31626893 .41099549 .2622528 .41099549 .22225952Z"/>
<path id="font_2_25" d="M.56199648 .00022888184V.033233644C.49398805 .033233644 .48599244 .040237428 .48599244 .08924866V.44140626L.33399964 .43040467V.3973999C.4019928 .3973999 .4099884 .39039613 .4099884 .34136964V.16726685C.4099884 .08125305 .35798646 .018234253 .2829895 .018234253 .19699097 .018234253 .19299317 .06123352 .19299317 .11126709V.44140626L.040985109 .43040467V.3973999C.116989139 .3973999 .116989139 .39439393 .116989139 .30534364V.15527344C.116989139 .08325195 .116989139-.009765625 .2769928-.009765625 .37098695-.009765625 .40699769 .0622406 .4119873 .071243289H.41299439V-.009765625L.56199648 .00022888184Z"/>
<path id="font_2_20" d="M.38398744 .3784027C.38398744 .4133911 .35198976 .44140626 .30799867 .44140626 .24299622 .44140626 .19898987 .39239503 .17799378 .33639527H.1769867V.44140626L.034988405 .43045045V.39746095C.102996829 .39746095 .11099243 .3904419 .11099243 .3413849V.078048709C.11099243 .032989503 .09899902 .032989503 .034988405 .032989503V0C.07398987 .0029907227 .1289978 .0029907227 .15299988 .0029907227 .21199036 .0029907227 .21398926 .0029907227 .2789917 0V.032989503H.25898744C.18598938 .032989503 .18399048 .044006349 .18399048 .08004761V.22824097C.18399048 .30332948 .21499634 .41145326 .31098939 .41345216 .30499269 .40899659 .29499818 .40098573 .29499818 .37799073 .29499818 .34700013 .31900025 .33299256 .33898927 .33299256 .36299134 .33299256 .38398744 .34899903 .38398744 .37799073V.3784027Z"/>
<path id="font_2_11" d="M.2939911 .18304444V.24804688H.011993408V.18304444H.2939911Z"/>
<path id="font_2_22" d="M.3829956 .12924195C.3829956 .1772461 .35398866 .24725342 .23498535 .2692566 .22698975 .2712555 .17098999 .28126527 .16699219 .28126527 .13598633 .28826905 .08898926 .30926515 .08898926 .34927369 .08898926 .37927247 .11099243 .4212799 .20599365 .4212799 .31799317 .4212799 .32299806 .33926393 .32499696 .31126405 .32598878 .30326844 .33299256 .30026246 .33999635 .30026246 .35598756 .30026246 .35598756 .30726625 .35598756 .32626344V.4202881C.35598756 .4362793 .35598756 .44628907 .34298707 .44628907 .33799745 .44628907 .33499146 .44628907 .31900025 .4302826 .31698609 .4292755 .30799867 .4202881 .30499269 .4202881 .30499269 .4202881 .3019867 .4202881 .29599 .4242859 .27999879 .43528749 .25099183 .44628907 .20599365 .44628907 .06599426 .44628907 .034988405 .37026979 .034988405 .32226563 .034988405 .27226258 .07199097 .24325562 .07499695 .24024964 .114990238 .21025086 .13798523 .20625305 .20498657 .19424439 .2519989 .18525696 .32899476 .17124939 .32899476 .10324097 .32899476 .0642395 .30299378 .018234253 .21099854 .018234253 .10998535 .018234253 .08099365 .09623718 .067993167 .14924622 .06399536 .1622467 .06298828 .16725159 .050994874 .16725159 .034988405 .16725159 .034988405 .15924073 .034988405 .14024353V.016220093C.034988405 .00022888184 .034988405-.009765625 .04798889-.009765625 .053985597-.009765625 .054992677-.008773804 .07299805 .010223389 .07798767 .0152282719 .08898926 .02822876 .09399414 .033233644 .13899231-.0077667238 .18598938-.009765625 .21199036-.009765625 .33898927-.009765625 .3829956 .06323242 .3829956 .12924195Z"/>
<path id="font_2_24" d="M.35299684 .1250763V.1809845H.32199098V.12705994C.32199098 .058166505 .29100038 .021224976 .25299073 .021224976 .18598938 .021224976 .18598938 .10710144 .18598938 .12307739V.3976593H.33499146V.43066407H.18598938V.6142578H.15499878C.1539917 .52345278 .11299133 .4286499 .019989014 .42565919V.3976593H.10998535V.1250763C.10998535 .008224487 .19999695-.009765625 .24598694-.009765625 .31298829-.010009766 .35299684 .049987794 .35299684 .125V.1250763Z"/>
<path id="font_2_17" d="M.55400088 .21640015C.55400088 .34140016 .45298768 .44140626 .33198548 .44140626 .29299928 .44140626 .23498535 .43139649 .18399048 .37939454V.44140626L.034988405 .43045045V.39746095C.10598755 .39746095 .11099243 .39144898 .11099243 .34947206V-.1159668C.11099243-.16113281 .09899902-.16113281 .034988405-.16113281V-.19413758C.07798767-.19114685 .12199402-.19114685 .14898682-.19114685 .17799378-.19114685 .21998596-.19114685 .2630005-.19413758V-.16113281C.19898987-.16113281 .18699646-.16113281 .18699646-.1159668V.049545289C.23399353-.0017700195 .2849884-.009765625 .31698609-.009765625 .44400025-.009765625 .55400088 .088256839 .55400088 .2163086V.21640015M.46499635 .2163086C.46499635 .101257327 .3929901 .018234253 .31199647 .018234253 .2769928 .018234253 .23098755 .033233644 .19898987 .08325195 .18699646 .1002655 .18699646 .101257327 .18699646 .120269779V.33335877C.20999146 .37338258 .2599945 .4104004 .32299806 .4104004 .3999939 .4104004 .46499635 .32536317 .46499635 .2163086Z"/>
<path id="font_2_1" d="M.5139923 .09020996V.14530945H.48298646V.09020996C.48298646 .0491333 .46798707 .033111574 .44699098 .033111574 .4099884 .033111574 .4099884 .079193118 .4099884 .09020996V.29856874C.4099884 .39653016 .31498719 .44628907 .22399903 .44628907 .14099121 .44628907 .066986087 .4143219 .066986087 .34857179 .066986087 .318573 .08799744 .30056764 .11399841 .30056764 .14199829 .30056764 .16099549 .3205719 .16099549 .3475647 .16099549 .37156678 .1459961 .38856507 .12399292 .3935547 .16099549 .41827394 .21499634 .41827394 .22200012 .41827394 .27799989 .41827394 .33399964 .37957765 .33399964 .29756166V.26651C.27598573 .26350404 .20899964 .26049806 .13899231 .23144531 .050994874 .1933899 .033996583 .13528443 .033996583 .10223389 .033996583 .016220093 .1349945-.009765625 .20399475-.009765625 .2769928-.009765625 .32199098 .031219483 .34399415 .07122803 .34899903 .033111574 .375-.0048828127 .4189911-.0048828127 .42900086-.0048828127 .5139923-.00088500979 .5139923 .09010315V.09020996M.33399964 .14111328C.33399964 .04421997 .2519989 .018234253 .21199036 .018234253 .1599884 .018234253 .115997318 .053222658 .115997318 .10122681 .115997318 .16722107 .17799378 .23522949 .33399964 .24023438V.14111328Z"/>
<path id="font_2_26" d="M.5379944 .3976593V.43066407C.5029907 .42765809 .5009918 .42765809 .45999146 .42765809 .45098878 .42765809 .4039917 .42765809 .37298585 .43066407V.3976593C.4079895 .3956604 .4169922 .37368775 .4169922 .35671998 .4169922 .34672547 .4149933 .34173585 .41099549 .3327484L.30299378 .081100467 .18499756 .3517151C.1789856 .36470033 .1789856 .37269593 .1789856 .37269593 .1789856 .3976593 .21499634 .3976593 .23199463 .3976593V.43066407C.18899536 .42765809 .14199829 .42765809 .12298584 .42765809 .101989749 .42765809 .053985597 .42765809 .021987915 .43066407V.3976593C.08299255 .3976593 .08799744 .3916626 .102996829 .3577118L.25299073 .012191772C.2599945-.0027770997 .2659912-.009765625 .27999879-.009765625 .2939911-.009765625 .30099488-.0017852783 .30599977 .010192871L.44299317 .3277588C.46699525 .38368226 .5009918 .39665223 .5379944 .3976593Z"/>
<path id="font_2_13" d="M.2669983 0V.032989503C.20298767 .032989503 .19099427 .032989503 .19099427 .07801819V.69433596L.041992189 .6826172V.6496124C.10998535 .6496124 .117996219 .64260867 .117996219 .5936432V.07795715C.117996219 .032989503 .10598755 .032989503 .041992189 .032989503V0C.08099365 .0029907227 .13699341 .0029907227 .1539917 .0029907227 .17399597 .0029907227 .22799683 .0029907227 .2669983 0Z"/>
<path id="font_2_5" d="M.55400088 0V.032989503C.48599244 .032989503 .47799684 .039993287 .47799684 .089019779V.69433596L.32899476 .6826172V.6496124C.39698792 .6496124 .40499879 .64263918 .40499879 .5938263V.38339234C.36999513 .42140199 .32299806 .44140626 .2709961 .44140626 .1459961 .44140626 .034988405 .3443756 .034988405 .21531677 .034988405 .09225464 .1349945-.009765625 .26098634-.009765625 .31999208-.009765625 .36898805 .018234253 .4019928 .053237916V-.009765625L.55400088 0M.4019928 .12399292C.4019928 .10598755 .4019928 .101989749 .3869934 .08198547 .35899354 .042236329 .31298829 .018234253 .2659912 .018234253 .21998596 .018234253 .17999268 .042236329 .1559906 .07925415 .1289978 .118270877 .12399292 .16729737 .12399292 .21430969 .12399292 .27233888 .1329956 .3133545 .1559906 .3483734 .17999268 .38539125 .22499085 .4133911 .27598573 .4133911 .32398988 .4133911 .37199403 .38938905 .4019928 .33737184V.12399292Z"/>
<path id="font_2_14" d="M.8569946 0V.032989503C.79299929 .032989503 .7809906 .032989503 .7809906 .07803345V.3032837C.7809906 .3843689 .74598696 .44140626 .6369934 .44140626 .54499819 .44140626 .49899293 .37835694 .48298646 .34933473 .46499635 .42140199 .4079895 .44140626 .34298707 .44140626 .24598694 .44140626 .19999695 .37236024 .18699646 .34532167H.18598938V.44140626L.040985109 .43045045V.39746095C.10899353 .39746095 .116989139 .3904419 .116989139 .3413849V.078048709C.116989139 .032989503 .10499573 .032989503 .040985109 .032989503V0C.083999637 .0029907227 .12799073 .0029907227 .15499878 .0029907227 .18399048 .0029907227 .22599793 .0029907227 .2689972 0V.032989503C.20498657 .032989503 .19299317 .032989503 .19299317 .078048709V.25927735C.19299317 .36434938 .27198792 .4133911 .33499146 .4133911 .3999939 .4133911 .41099549 .36235047 .41099549 .3072815V.07803345C.41099549 .032989503 .39898683 .032989503 .33499146 .032989503V0C.37799073 .0029907227 .42199708 .0029907227 .44898988 .0029907227 .47799684 .0029907227 .519989 .0029907227 .5629883 0V.032989503C.49899293 .032989503 .4869995 .032989503 .4869995 .07803345V.25923158C.4869995 .36434938 .56599429 .4133911 .6289978 .4133911 .69400027 .4133911 .7049866 .36235047 .7049866 .3072815V.07803345C.7049866 .032989503 .69299319 .032989503 .6289978 .032989503V0C.6719971 .0029907227 .71598818 .0029907227 .7429962 .0029907227 .7719879 .0029907227 .81399539 .0029907227 .8569946 0Z"/>
<path id="font_2_15" d="M.56199648 0V.032989503C.49798585 .032989503 .48599244 .032989503 .48599244 .07803345V.3032837C.48599244 .38737489 .44799806 .44140626 .34298707 .44140626 .24398804 .44140626 .19898987 .36935426 .18699646 .34532167H.18598938V.44140626L.040985109 .43045045V.39746095C.10899353 .39746095 .116989139 .3904419 .116989139 .3413849V.078048709C.116989139 .032989503 .10499573 .032989503 .040985109 .032989503V0C.083999637 .0029907227 .12799073 .0029907227 .15499878 .0029907227 .18399048 .0029907227 .22599793 .0029907227 .2689972 0V.032989503C.20498657 .032989503 .19299317 .032989503 .19299317 .078048709V.25927735C.19299317 .36434938 .272995 .4133911 .33399964 .4133911 .394989 .4133911 .4099884 .37036134 .4099884 .3072815V.07803345C.4099884 .032989503 .397995 .032989503 .33399964 .032989503V0C.3769989 .0029907227 .42099 .0029907227 .44799806 .0029907227 .47698976 .0029907227 .5189972 .0029907227 .56199648 0Z"/>
<path id="font_2_18" d="M.20298767 .054992677C.20298767 .08898926 .17599488 .11099243 .147995 .11099243 .11399841 .11099243 .09199524 .083999637 .09199524 .055999757 .09199524 .021987915 .11898804 0 .14698792 0 .18099976 0 .20298767 .026992798 .20298767 .054992677Z"/>
<path id="font_2_19" d="M.7659912 .25042726C.7659912 .2734375 .74398806 .2734375 .7299957 .2734375H.43598939V.5676117C.43598939 .5815735 .43598939 .6035156 .41299439 .6035156 .3899994 .6035156 .3899994 .5815735 .3899994 .5676117V.2734375H.09498596C.08099365 .2734375 .05899048 .2734375 .05899048 .25042726 .05899048 .22743225 .08099365 .22743225 .09498596 .22743225H.3899994V-.0675354C.3899994-.08152771 .3899994-.103515628 .41299439-.103515628 .43598939-.103515628 .43598939-.08152771 .43598939-.0675354V.22743225H.7299957C.74398806 .22743225 .7659912 .22743225 .7659912 .25042726Z"/>
<path id="font_2_29" d="M.2599945 .0001373291V.03314209C.19499207 .03314209 .19099427 .038146974 .19099427 .07714844V.44140626L.04499817 .43045045V.39746095C.10899353 .39746095 .117996219 .39144898 .117996219 .34239198V.07814026C.117996219 .03314209 .10598755 .03314209 .041992189 .03314209V0C.08099365 .0029907227 .13699341 .0029907227 .1519928 .0029907227 .16499329 .0029907227 .22499085 .0029907227 .2599945 0V.0001373291M.20298767 .6021881C.20298767 .6351929 .1769867 .6582031 .147995 .6582031 .11898804 .6582031 .09298706 .6351929 .09298706 .6021881 .09298706 .5731964 .115997318 .54719546 .147995 .54719546 .1789856 .54719546 .20298767 .5731964 .20298767 .6021881Z"/>
<path id="font_2_2" d="M.55400088 .21650696C.55400088 .3425293 .45098878 .44140626 .32899476 .44140626 .25 .44140626 .20098877 .39845277 .18399048 .38053895V.69433596L.034988405 .68333438V.6503296C.102996829 .6503296 .11099243 .6433258 .11099243 .5943451V.00048828127H.14199829L.17799378 .0625C.20199585 .02822876 .24899292-.009765625 .31698609-.009765625 .44400025-.009765625 .55400088 .08828735 .55400088 .21640015V.21650696M.46499635 .21740723C.46499635 .19438172 .46499635 .12332153 .42900086 .07627869 .3929901 .031234742 .34599305 .018234253 .31298829 .018234253 .2649994 .018234253 .22499085 .04324341 .19898987 .08229065 .18699646 .1013031 .18699646 .10231018 .18699646 .12132263V.3164978C.18699646 .33551026 .18699646 .3375244 .20199585 .3555298 .23098755 .39248658 .27799989 .4133911 .32299806 .4133911 .375 .4133911 .4139862 .38252259 .43399049 .35253907 .45098878 .3255005 .46499635 .29048158 .46499635 .21740723Z"/>
<path id="font_2_4" d="M.21499634 .0039978029C.21499634 .05899048 .19499207 .11099243 .14698792 .11099243 .11399841 .11099243 .09199524 .084991458 .09199524 .055999757 .09199524 .025985718 .11299133 0 .147995 0 .16999817 0 .18399048 .011993408 .18699646 .01499939 .18699646-.015029907 .18699646-.09718323 .11099243-.16830445 .10798645-.17131043 .10499573-.17330933 .10499573-.17932129 .10499573-.18833924 .11399841-.19433594 .11898804-.19433594 .13198853-.19433594 .21499634-.11621094 .21499634 .0039978029Z"/>
<path id="font_2_28" d="M.5379944 .3976593V.43066407C.5029907 .42765809 .5009918 .42765809 .45899964 .42765809 .45498658 .42765809 .4019928 .42765809 .37298585 .43066407V.3976593C.4019928 .39564515 .41600038 .37954713 .41600038 .3564148 .41600038 .3504181 .4149933 .3434143 .4099884 .3314209L.30299378 .089645389 .18699646 .3514099C.17999268 .36647035 .17999268 .3684845 .17999268 .37249757 .17999268 .39665223 .21099854 .3976593 .23298645 .3976593V.43066407C.18798828 .42765809 .14498902 .42765809 .12298584 .42765809 .101989749 .42765809 .053985597 .42765809 .021987915 .43066407V.3976593C.07398987 .3976593 .08799744 .39564515 .10499573 .35742188L.2630005-.0002746582C.21798706-.106170658 .18798828-.17610169 .117996219-.17610169 .09298706-.17610169 .07699585-.16412354 .07699585-.16412354 .083999637-.16212464 .10699463-.1511383 .10699463-.122161868 .10699463-.094192508 .085998538-.079193118 .06399536-.079193118 .04399109-.079193118 .020996094-.0921936 .020996094-.12315369 .020996094-.16711426 .06399536-.20410156 .117996219-.20410156 .20698548-.20410156 .25498963-.09718323 .25898744-.08718872L.44299317 .32940675C.46798707 .38659669 .5049896 .39665223 .5379944 .3976593Z"/>
<path id="font_2_9" d="M.5149994 .40124513C.5149994 .418396 .5019989 .45239259 .45799256 .45239259 .44099427 .45239259 .3929901 .44839479 .34700013 .40625 .32199098 .4243927 .2829895 .44140626 .23599243 .44140626 .13699341 .44140626 .06399536 .37223817 .06399536 .294281 .06399536 .2472992 .08999634 .21231079 .11099243 .19232178 .08898926 .16732788 .08099365 .13531494 .08099365 .111328128 .08099365 .07032776 .100997928 .0393219 .12298584 .022323609 .070999149 .007904053 .02999878-.031097413 .02999878-.0770874 .02999878-.14909363 .1329956-.20507813 .2649994-.20507813 .3899994-.20507813 .5-.15408325 .5-.0750885 .5-.021102906 .46798707 .020904541 .43499757 .037902833 .37599183 .06889343 .32699586 .06889343 .22898865 .06889343H.17298889C.14199829 .07191467 .116989139 .099105838 .116989139 .13536072 .116989139 .15945435 .12298584 .16845703 .12998963 .17745972 .17199707 .15245056 .21099854 .14746094 .23498535 .14746094 .33399964 .14746094 .40699769 .21644593 .40699769 .29444886 .40699769 .3324585 .3899994 .36445619 .3659973 .39045716 .37998963 .40245057 .41299439 .42344667 .46199037 .42445375 .45799256 .42144776 .45298768 .41645814 .45298768 .40045167 .45298768 .3824463 .46598817 .36946107 .48399354 .36946107 .49798585 .36946107 .5149994 .3784485 .5149994 .40145875V.40124513M.32798768 .29444886C.32798768 .2574463 .32299806 .23146057 .30799867 .2114563 .28599549 .18345642 .2539978 .17645264 .23599243 .17645264 .14299011 .1761322 .14299011 .27218629 .14299011 .29418946 .14299011 .33122254 .147995 .35723878 .16299439 .37724305 .17999268 .40023805 .20799256 .4123993 .23498535 .4123993 .32798768 .4123993 .32798768 .3162079 .32798768 .29418946V.29444886M.44099427-.07601929C.44099427-.13005066 .3639984-.17608643 .2649994-.17608643 .16499329-.17610169 .08898926-.13009644 .08898926-.07609558 .08898926-.055099489 .10499573 .00390625 .18699646 .00390625H.2829895C.30999757 .00390625 .44099427 .00390625 .44099427-.07609558V-.07601929Z"/>
<path id="font_3_1" d="M.73599246 .25042726C.73599246 .2734375 .71398928 .2734375 .69999697 .2734375H.125C.11099243 .2734375 .08898926 .2734375 .08898926 .25042726 .08898926 .22743225 .11099243 .22743225 .125 .22743225H.69999697C.71398928 .22743225 .73599246 .22743225 .73599246 .25042726Z"/>
<path id="font_2_3" d="M.44099427 .12031555C.44099427 .13232422 .42799378 .13232422 .4249878 .13232422 .41799928 .13232422 .41299439 .13131714 .4099884 .12130737 .40299989 .10029602 .375 .021224976 .2749939 .021224976 .21299744 .021224976 .12399292 .0692749 .12399292 .21739197 .12399292 .3614807 .19799805 .4152832 .2709961 .4152832 .27999879 .4152832 .33299256 .4152832 .36799623 .39746095 .33999635 .3884735 .33599855 .36547853 .33599855 .35346986 .33599855 .32647706 .35499574 .30647279 .3829956 .30647279 .40899659 .30625917 .42999269 .32426454 .42999269 .35427857 .42999269 .41627503 .3619995 .44628907 .2679901 .44628907 .1289978 .44628907 .034988405 .3352661 .034988405 .21624756 .034988405 .0892334 .13899231-.009765625 .2649994-.009765625 .4059906-.009765625 .44099427 .10824585 .44099427 .12023926V.12031555Z"/>
<path id="font_1_4" d="M.81700137 .33676148C.81700137 .55659487 .6669922 .6855469 .46899415 .6855469H.038986207V.63853457H.14698792V.04699707H.038986207V0H.46998597C.6669922 0 .81700137 .12294006 .81700137 .33676148M.66999819 .33776856C.66999819 .22885132 .6579895 .17588806 .6259918 .13092041 .5779877 .06297302 .48999024 .04699707 .42900086 .04699707H.2829895V.63853457H.42900086C.49499513 .63853457 .5779877 .6195526 .6269989 .5496063 .6619873 .49864198 .66999819 .43069459 .66999819 .33776856Z"/>
<path id="font_1_11" d="M.59999087 .22319031C.59999087 .3561859 .5089874 .4501953 .36499024 .4501953 .2899933 .4501953 .23699951 .41918946 .21398926 .40118409V.4501953L.036987306 .4423828V.39537049C.09899902 .39537049 .10598755 .39537049 .10598755 .3573761V-.14648438H.036987306V-.1934967L.16299439-.19049073 .2889862-.1934967V-.14648438H.21998596V.03945923C.2630005 .004135132 .30699159-.005859375 .34799195-.005859375 .49798585-.005859375 .59999087 .08413696 .59999087 .22312927V.22319031M.47200013 .22312927C.47200013 .08213806 .4019928 .030136109 .33699037 .030136109 .32299806 .030136109 .27598573 .030136109 .23098755 .08413696 .21998596 .09713745 .21998596 .09812927 .21998596 .117126468V.32913209C.21998596 .34814454 .22099304 .3491516 .23498535 .36314393 .2749939 .4041443 .32699586 .41015626 .34899903 .41015626 .41600038 .41015626 .47200013 .3491516 .47200013 .22314453V.22312927Z"/>
<path id="font_1_9" d="M.61499026 0V.04699707H.54599V.30613709C.54599 .41119386 .49198915 .4501953 .3919983 .4501953 .29599 .4501953 .24299622 .39318849 .21699524 .3421631V.4501953L.04499817 .4423828V.39537049C.10699463 .39537049 .11399841 .39537049 .11399841 .3563385V.04699707H.04499817V0L.17098999 .0029907227 .29699708 0V.04699707H.22799683V.2562256C.22799683 .3653412 .31399537 .41436769 .3769989 .41436769 .41099549 .41436769 .43199159 .39337159 .43199159 .31729127V.04699707H.36299134V0L.4889984 .0029907227 .61499026 0Z"/>
<path id="font_1_6" d="M.55799868 .3970642C.55799868 .42007447 .54100039 .45507813 .49499513 .45507813 .47999574 .45507813 .43299867 .45207215 .3889923 .41706849 .37098695 .42918397 .32899476 .4501953 .25498963 .4501953 .11099243 .4501953 .055999757 .37243653 .055999757 .3024292 .055999757 .26127626 .07598877 .22012329 .10798645 .19703675 .07998657 .16191101 .07398987 .12878418 .07398987 .10771179 .07398987 .0927124 .07798767 .04371643 .117996219 .01171875 .10499573 .008712769 .03199768-.012252808 .03199768-.075164798 .03199768-.12609864 .08699036-.2010498 .2869873-.2010498 .46398927-.2010498 .5419922-.14207459 .5419922-.07217407 .5419922-.04222107 .5339966 .020706177 .46699525 .054718019 .41099549 .08300781 .35099793 .08300781 .25498963 .08300781 .22898865 .08300781 .18299866 .08300781 .17799378 .083984378 .13398743 .0909729 .12298584 .12898255 .12298584 .14697266 .12298584 .15698242 .1269989 .17198181 .1329956 .17997742 .1789856 .15629578 .22999573 .15429688 .25498963 .15429688 .39898683 .15429688 .45399476 .23234558 .45399476 .3024292 .45399476 .34942628 .42900086 .38243104 .4139862 .3984375 .44400025 .4144287 .46499635 .4164276 .47599793 .4174347 .47399903 .4124298 .47200013 .40342713 .47200013 .39743043 .47200013 .37219239 .4889984 .354187 .5149994 .354187 .54100039 .354187 .55799868 .3731842 .55799868 .39718629V.3970642M.34298707 .30221559C.34298707 .25724793 .34298707 .19029236 .25498963 .19029236 .16699219 .19021607 .16699219 .25733949 .16699219 .3024292 .16699219 .34742738 .16699219 .41418458 .25498963 .41418458 .34298707 .41418458 .34298707 .34742738 .34298707 .3024292V.30221559M.45599366-.07501221C.45599366-.11102295 .4169922-.16503906 .2869873-.16503906 .16699219-.16503906 .117996219-.11903381 .117996219-.073013309 .117996219-.013000488 .18099976-.013000488 .19499207-.013000488H.31199647C.34298707-.013000488 .45599366-.013000488 .45599366-.07501221Z"/>
<path id="font_2_21" d="M.5299988 .18458557C.5299988 .2716217 .47299195 .36065675 .37098695 .38467408L.23298645 .416687C.16899109 .4316864 .12199402 .4827118 .12199402 .5437927 .12199402 .61094668 .17999268 .6740875 .2669983 .6740875 .43998719 .6740875 .46299745 .51171877 .46798707 .4737091 .46998597 .46270753 .47099305 .45570375 .48399354 .45570375 .5 .45570375 .5 .46270753 .5 .4817047V.6781006C.5 .6940918 .5 .70410159 .4869995 .70410159 .47898866 .70410159 .47698976 .7010956 .46998597 .690094L.43499757 .6340027C.3849945 .6890869 .32099916 .70410159 .2659912 .70410159 .14698792 .70410159 .05899048 .61395266 .05899048 .51171877 .05899048 .43569947 .101989749 .39367677 .12098694 .3746643 .15699768 .33865357 .18998719 .3306427 .2979889 .30563355 .38398744 .28562928 .39898683 .2826233 .43199159 .24760437 .44198609 .23660279 .46699525 .20259094 .46699525 .15356446 .46699525 .08453369 .4139862 .011505127 .31999208 .011505127 .20999146 .011505127 .09599304 .06452942 .08999634 .20359802 .08898926 .21960449 .08898926 .22660828 .07499695 .22660828 .05899048 .22660828 .05899048 .21859741 .05899048 .19958496V.004501343C.05899048-.011489868 .05899048-.021484375 .07199097-.021484375 .07998657-.021484375 .08099365-.019485474 .08799744-.009490967 .09199524-.0034942628 .09599304 .005508423 .12399292 .047531129 .18699646-.0084991459 .26098634-.021484375 .32099916-.021484375 .44599916-.021484375 .5299988 .07752991 .5299988 .18458557Z"/>
<path id="font_2_8" d="M.848999 0V.032989503C.7849884 .032989503 .772995 .032989503 .772995 .07795715V.44302369L.6419983 .43374635C.6309967 .432724 .6259918 .432724 .6239929 .4316864 .621994 .43066407 .6199951 .43066407 .60598757 .43066407H.47599793V.54003909C.47599793 .6387329 .56900027 .6760864 .6309967 .6760864 .6609955 .6760864 .69099429 .6689911 .71598818 .6497345 .71598818 .6497345 .6749878 .64172366 .6749878 .60072329 .6749878 .5687256 .70098879 .5527344 .72299197 .5527344 .7369995 .5527344 .7709961 .5617218 .7709961 .60272219 .7709961 .6558075 .71899417 .70410159 .6339874 .70410159 .58999636 .70410159 .5209961 .6950989 .45999146 .6487274 .44198609 .67507937 .40299989 .70410159 .33699037 .70410159 .23999024 .70410159 .11099243 .6548004 .11099243 .5410156V.43066407H.0289917V.3976593H.11099243V.07795715C.11099243 .032989503 .09899902 .032989503 .034988405 .032989503V0C.07398987 .0029907227 .12998963 .0029907227 .14698792 .0029907227 .16699219 .0029907227 .22099304 .0029907227 .2599945 0V.032989503C.19599915 .032989503 .18399048 .032989503 .18399048 .07795715V.3976593H.4059906V.07795715C.4059906 .032989503 .3939972 .032989503 .32998658 .032989503V0C.36898805 .0029907227 .4249878 .0029907227 .44198609 .0029907227 .46199037 .0029907227 .5159912 .0029907227 .5549927 0V.032989503C.4909973 .032989503 .47898866 .032989503 .47898866 .07795715V.3976593H.651001C.69299319 .3976593 .69999697 .3856659 .69999697 .34370423V.07795715C.69999697 .032989503 .6879883 .032989503 .6239929 .032989503V0C.6629944 .0029907227 .71899417 .0029907227 .73599246 .0029907227 .7559967 .0029907227 .80999758 .0029907227 .848999 0M.4189911 .6497345C.4189911 .6497345 .37799073 .6427307 .37799073 .60072329 .37799073 .5777283 .3899994 .5637207 .4059906 .5567322V.43066407H.18099976V.54003909C.18099976 .6387329 .27198792 .6760864 .33499146 .6760864 .36499024 .6760864 .394989 .667984 .4189911 .6497345Z"/>
<path id="font_2_27" d="M.5439911 0V.032989503C.48199464 .032989503 .47200013 .037994386 .44599916 .06895447L.30799867 .23381043C.33599855 .2687683 .36499024 .30274964 .394989 .33570863 .42799378 .37068177 .46299745 .39665223 .526001 .3976593V.43066407C.4869995 .42765809 .4850006 .42765809 .43998719 .42765809 .43499757 .42765809 .37599183 .42765809 .34498597 .43066407V.3976593C.3639984 .3956604 .36799623 .383667 .36799623 .37068177 .36799623 .35769654 .36299134 .34570313 .35099793 .33171083L.28799439 .25778199 .20899964 .35169984C.19699097 .36569215 .19699097 .37467958 .19699097 .37467958 .19699097 .3816681 .20298767 .39665223 .22799683 .3976593V.43066407C.18798828 .42765809 .13198853 .42765809 .12098694 .42765809 .102996829 .42765809 .051986696 .42765809 .021987915 .43066407V.3976593C.08999634 .3976593 .09098816 .39665223 .14299011 .33570863L.24598694 .21083069 .15499878 .10392761C.12998963 .07595825 .09298706 .034988405 .016998291 .032989503V0C.053985597 .0029907227 .06098938 .0029907227 .102996829 .0029907227 .102996829 .0029907227 .1659851 .0029907227 .19799805 0V.032989503C.18499756 .034988405 .17399597 .04197693 .17399597 .05996704 .17399597 .07795715 .18598938 .091934207 .18899536 .09693909L.2669983 .18585205 .34899903 .0879364C.36898805 .064956668 .36898805 .06295776 .36898805 .05596924 .36898805 .047973634 .3619995 .033996583 .33799745 .032989503V0C.3809967 .0029907227 .42599488 .0029907227 .44499208 .0029907227 .46299745 .0029907227 .5139923 .0029907227 .5439911 0Z"/>
<path id="font_2_12" d="M.5419922 0V.032989503C.5 .032989503 .48199464 .036987306 .44599916 .083984378L.30099488 .27194215 .38598634 .33992005C.45199586 .3917389 .49398805 .39666749 .5189972 .3976593V.43066407C.49499513 .42765809 .48098756 .42765809 .43998719 .42765809 .3909912 .42765809 .3769989 .4286499 .33299256 .43066407V.3976593C.35198976 .39666749 .35598756 .38383485 .35598756 .3779297 .35598756 .35691834 .33599855 .33992005 .32798768 .33392335L.18399048 .21794129V.69433596L.034988405 .6826172V.6496124C.102996829 .6496124 .11099243 .64260867 .11099243 .5936432V.07795715C.11099243 .032989503 .09899902 .032989503 .034988405 .032989503V0C.07398987 .0029907227 .12799073 .0029907227 .14498902 .0029907227 .16499329 .0029907227 .21699524 .0029907227 .2559967 0V.032989503C.19198609 .032989503 .17999268 .032989503 .17999268 .07795715V.17489624L.24798584 .22886658C.25099183 .22886658 .2769928 .19389344 .29299928 .17489624 .30799867 .1539154 .32398988 .13392639 .33999635 .11393738 .35398866 .093948367 .375 .067977908 .375 .052978517 .375 .035995485 .35598756 .032989503 .34399415 .032989503V0C.3869934 .0029907227 .43199159 .0029907227 .44898988 .0029907227 .4869995 .0029907227 .5069885 .0029907227 .5419922 0Z"/>
<path id="font_4_7" d="M.8069916 .42988587 .7839966 .67285159H.066986087L.04399109 .42988587H.099990848C.10998535 .54685977 .125 .6208496 .2689972 .6208496H.35099793V.051986696H.19898987V0C.23699951 .0029907227 .37799073 .0029907227 .4249878 .0029907227 .47299195 .0029907227 .6139984 .0029907227 .6519928 0V.051986696H.5V.6208496H.58200076C.7259979 .6208496 .7409973 .54685977 .7509918 .42988587H.8069916Z"/>
<path id="font_4_3" d="M.6499939 0V.051986696H.58399966V.30311585C.58399966 .4251709 .5079956 .45117188 .4189911 .45117188 .31399537 .45117188 .25898744 .39015199 .23799134 .35914613V.69433596L.055999757 .6855469V.6335449C.114990238 .6335449 .12199402 .6335449 .12199402 .5946808V.051986696H.055999757V0C.10998535 .0029907227 .14498902 .0029907227 .18299866 .0029907227 .22200012 .0029907227 .2559967 .0029907227 .30999757 0V.051986696H.24398804V.25308229C.24398804 .36413575 .33999635 .40916444 .4039917 .40916444 .43899537 .40916444 .46199037 .39215089 .46199037 .31411744V.051986696H.3959961V0C.44999696 .0029907227 .4850006 .0029907227 .522995 .0029907227 .56199648 .0029907227 .59599307 .0029907227 .6499939 0Z"/>
<path id="font_4_2" d="M.526001 .11508179C.526001 .13604737 .5049896 .13604737 .49798585 .13604737 .48098756 .13604737 .47698976 .13404846 .46899415 .11706543 .43699647 .04714966 .35198976 .040161134 .32398988 .040161134 .17599488 .040161134 .17098999 .15603638 .16899109 .2119751H.49198915C.5130005 .2119751 .526001 .2119751 .526001 .2409668 .526001 .28399659 .5159912 .35003663 .46598817 .3990631 .4099884 .45507813 .31999208 .45507813 .29699708 .45507813 .11898804 .45507813 .033996583 .34402467 .033996583 .2259674 .033996583 .09609985 .13398743-.0068359377 .31199647-.0068359377 .48799134-.0068359377 .526001 .10108948 .526001 .11508179M.42799378 .25097657H.16899109C.16999817 .29100038 .17399597 .41307069 .2979889 .41307069 .42199708 .41307069 .4269867 .2899933 .42799378 .25097657Z"/>
<path id="font_4_5" d="M.98999026 0V.051986696H.923996V.3034973C.923996 .42315675 .8509979 .45117188 .7589874 .45117188 .6539917 .45117188 .598999 .39059449 .5779877 .35958863 .55400088 .4371643 .4869995 .45117188 .4189911 .45117188 .2979889 .45117188 .24398804 .3715973 .23199463 .34959413H.23098755V.45117188L.055999757 .44335938V.39135743C.114990238 .39135743 .12199402 .39135743 .12199402 .35231019V.051986696H.055999757V0C.10998535 .0029907227 .14498902 .0029907227 .18299866 .0029907227 .22200012 .0029907227 .2559967 .0029907227 .30999757 0V.051986696H.24398804V.25320436C.24398804 .36413575 .33999635 .40916444 .4039917 .40916444 .43899537 .40916444 .46199037 .39215089 .46199037 .31411744V.051986696H.3959961V0C.44999696 .0029907227 .4850006 .0029907227 .522995 .0029907227 .56199648 .0029907227 .59599307 .0029907227 .6499939 0V.051986696H.58399966V.25308229C.58399966 .36413575 .6799927 .40916444 .74398806 .40916444 .7789917 .40916444 .8019867 .39215089 .8019867 .31411744V.051986696H.73599246V0C.7899933 .0029907227 .82499697 .0029907227 .86299136 .0029907227 .9019928 .0029907227 .9359894 .0029907227 .98999026 0Z"/>
<path id="font_4_6" d="M.6389923 .22315979C.6389923 .3481598 .5499878 .45117188 .3889923 .45117188 .33198548 .45117188 .27598573 .43615724 .22799683 .40415956V.45117188L.04598999 .44335938V.39135743C.06498718 .39135743 .08299255 .39135743 .09498596 .38835145 .11199951 .38534547 .11199951 .37434388 .11199951 .35533143V-.14160156H.04598999V-.19360352C.099990848-.1906128 .1349945-.1906128 .17298889-.1906128 .21199036-.1906128 .24598694-.1906128 .2999878-.19360352V-.14160156H.23399353V.03715515C.28599549-.0008392334 .33499146-.0068359377 .36999513-.0068359377 .5339966-.0068359377 .6389923 .08818054 .6389923 .2232666V.22315979M.5039978 .2232666C.5039978 .08918762 .43299867 .03515625 .3600006 .03515625 .31498719 .03515625 .2669983 .057174684 .23399353 .10620117V.34233094C.25099183 .36315919 .30099488 .40415956 .37199403 .40415956 .45098878 .40415956 .5039978 .3371582 .5039978 .22315979V.2232666Z"/>
<path id="font_4_8" d="M.40699769 .12319946V.17422486H.35099793V.12519837C.35099793 .056167604 .31298829 .040161134 .2899933 .040161134 .23199463 .040161134 .23098755 .093185428 .23098755 .12019348V.39233399H.3869934V.44433595H.23098755V.6357422H.1749878C.17399597 .53652957 .12298584 .43632508 .022994996 .43432618V.39233399H.10899353V.12319946C.10899353 .02015686 .18998719-.0068359377 .2749939-.0068359377 .35099793-.0068359377 .40699769 .044158937 .40699769 .12319946Z"/>
<path id="font_4_9" d="M.6159973 .39233399V.44433595C.5779877 .44132997 .57598879 .44132997 .5329895 .44132997 .526001 .44132997 .47299195 .44132997 .44299317 .44433595V.39233399C.44299317 .39233399 .48399354 .39233399 .48399354 .38232423 .48399354 .37931825 .48098756 .37330628 .47898866 .36930848L.35699464 .12808228 .22299195 .39233399H.269989V.44433595C.21199036 .44132997 .19099427 .44132997 .14698792 .44132997 .12399292 .44132997 .069992069 .44132997 .02999878 .44433595V.39233399H.09298706L.29100038-.000030517579C.25-.085113529 .24198914-.09512329 .23498535-.10513306 .19699097-.1541748 .1539917-.15917969 .13798523-.15917969 .1289978-.15917969 .125-.1581726 .11999512-.1561737 .13999939-.14416504 .14898682-.12414551 .14898682-.102127078 .14898682-.062088014 .11898804-.04006958 .08699036-.04006958 .053985597-.04006958 .023986817-.062088014 .023986817-.103134158 .023986817-.1561737 .07299805-.20117188 .13699341-.20117188 .23399353-.20117188 .2939911-.11714172 .30799867-.09011841L.54299929 .37130738C.5519867 .38832093 .55400088 .39233399 .6159973 .39233399Z"/>
<path id="font_4_1" d="M.5089874 .11520386C.5089874 .13320923 .49299623 .13320923 .48098756 .13320923 .46199037 .13320923 .45899964 .13320923 .45199586 .11520386 .42399598 .04916382 .35699464 .040161134 .32499696 .040161134 .17599488 .040161134 .17599488 .1832428 .17599488 .22625733 .17599488 .28630067 .1789856 .4080658 .31298829 .4080658 .31999208 .4080658 .37599183 .40615846 .37599183 .40234376 .37599183 .40234376 .375 .39933778 .37199403 .3963318 .3639984 .38433839 .3600006 .369339 .3600006 .35533143 .3600006 .31530763 .3909912 .28829957 .4269867 .28829957 .46499635 .28829957 .49499513 .3143158 .49499513 .3563385 .49499513 .45507813 .34999085 .45507813 .30899049 .45507813 .116989139 .45507813 .040985109 .33532716 .040985109 .22225952 .040985109 .09819031 .1309967-.0068359377 .30499269-.0068359377 .34999085-.0068359377 .3999939 .001159668 .44099427 .026153565 .49398805 .059173585 .5089874 .109191898 .5089874 .11520386Z"/>
<path id="font_4_4" d="M.30699159 0V.051986696H.24099732V.69433596L.05899048 .6855469V.6335449C.117996219 .6335449 .125 .6335449 .125 .594574V.051986696H.05899048V0C.116989139 .0029907227 .1269989 .0029907227 .18299866 .0029907227 .23899842 .0029907227 .24899292 .0029907227 .30699159 0Z"/>
<path id="font_5_1" d="M.5649872 .14328003C.5649872 .15628052 .5509949 .15628052 .54599 .15628052 .5289917 .15628052 .5289917 .1532898 .522995 .12828064 .5039978 .051239015 .48298646 .018234253 .45599366 .018234253 .42799378 .018234253 .42799378 .050247194 .42799378 .0622406 .42799378 .069244388 .42799378 .07925415 .43099977 .09126282L.5009918 .37338258C.5019989 .37838746 .5049896 .38938905 .5049896 .39439393 .5049896 .4104004 .49198915 .4223938 .47499085 .4223938 .46099855 .4223938 .43899537 .4133911 .43399049 .38539125 .41299439 .4203949 .38398744 .44140626 .34199525 .44140626 .22399903 .44140626 .102996829 .29335023 .102996829 .15028382 .102996829 .054244996 .1599884-.009765625 .23498535-.009765625 .2939911-.009765625 .34298707 .034240724 .3639984 .058242799 .37298585 .021224976 .4059906-.009765625 .45399476-.009765625 .48999024-.009765625 .5139923 .01222229 .5309906 .04324341 .5519867 .08325195 .5649872 .14328003 .5649872 .14328003M.37098695 .13327027C.36299134 .0982666 .29699708 .018234253 .23799134 .018234253 .19099427 .018234253 .17599488 .069244388 .17599488 .10926819 .17599488 .15628052 .20498657 .27433778 .22999573 .32035829 .269989 .39338685 .31399537 .4133911 .34199525 .4133911 .40499879 .4133911 .41600038 .32835389 .41600038 .31835938L.41299439 .3043518 .37098695 .13327027Z"/>
<path id="font_5_3" d="M.6289978 .14328003C.6289978 .15628052 .61499026 .15628052 .6100006 .15628052 .59399417 .15628052 .59298709 .15228272 .58799746 .13528443 .56999209 .071243289 .5369873 .018234253 .49398805 .018234253 .47499085 .018234253 .47200013 .032226564 .47200013 .050247194 .47200013 .07325745 .47999574 .09425354 .4869995 .11427307 .5069885 .16729737 .5479889 .27534486 .5479889 .33335877 .5479889 .41940309 .4889984 .44140626 .43399049 .44140626 .34899903 .44140626 .3019867 .38438417 .2829895 .3613739 .2769928 .4073944 .23999024 .44140626 .19099427 .44140626 .15699768 .44140626 .1329956 .4223938 .11299133 .38739015 .09498596 .3533783 .07998657 .29335023 .07998657 .28834535 .07998657 .27534486 .09298706 .27534486 .09899902 .27534486 .114990238 .27534486 .115997318 .27833558 .12199402 .3023529 .13699341 .3613739 .15499878 .4133911 .18899536 .4133911 .21699524 .4133911 .21699524 .37838746 .21699524 .36938478 .21699524 .3553772 .21499634 .33937074 .21099854 .32536317L.13798523 .033233644C.13598633 .024230957 .1349945 .021224976 .1349945 .018234253 .1349945 .0022277833 .147995-.009765625 .16499329-.009765625 .19699097-.009765625 .20298767 .014221191 .21199036 .052246095L.23399353 .13827515C.23899842 .1592865 .23899842 .1612854 .25 .2033081L.2659912 .26834107C.2709961 .28434754 .3019867 .34336854 .33299256 .3723755 .3639984 .3993988 .3959961 .4133911 .43099977 .4133911 .46998597 .4133911 .48199464 .38539125 .48199464 .34736634 .48199464 .28933717 .43998719 .17529297 .42099 .12527466 .4139862 .10726929 .4079895 .09126282 .4079895 .07325745 .4079895 .027236939 .44099427-.009765625 .49198915-.009765625 .58699038-.009765625 .6289978 .12927246 .6289978 .14328003Z"/>
<path id="font_5_2" d="M.57499697 .14328003C.57499697 .15628052 .5609894 .15628052 .55599978 .15628052 .5389862 .15628052 .5389862 .1532898 .5329895 .12828064 .5139923 .051239015 .49299623 .018234253 .46598817 .018234253 .43798829 .018234253 .43798829 .050247194 .43798829 .0622406 .43798829 .06825256 .43798829 .07925415 .44099427 .09126282L.58399966 .66529849C.58499148 .6693115 .58699038 .67630007 .58699038 .68029788 .58699038 .6953125 .57099917 .6943054 .55999758 .69329836L.45599366 .6843109C.44198609 .68330386 .43099977 .682312 .43099977 .66430667 .43099977 .6502991 .44299317 .6502991 .45700074 .6502991 .5049896 .6502991 .5049896 .64430239 .5049896 .63531497 .5049896 .63031008 .5019989 .61932376 .5009918 .613327L.44400025 .38539125C.4229889 .4203949 .3939972 .44140626 .35198976 .44140626 .23399353 .44140626 .11299133 .29335023 .11299133 .15028382 .11299133 .054244996 .16999817-.009765625 .24499512-.009765625 .3039856-.009765625 .35299684 .034240724 .37399293 .058242799 .3829956 .021224976 .41600038-.009765625 .46398927-.009765625 .5-.009765625 .5239868 .01222229 .54100039 .04324341 .56199648 .08325195 .57499697 .14328003 .57499697 .14328003M.3809967 .13327027C.37298585 .0982666 .30699159 .018234253 .24798584 .018234253 .20098877 .018234253 .18598938 .069244388 .18598938 .10926819 .18598938 .15628052 .21499634 .27433778 .23999024 .32035829 .27999879 .39338685 .32398988 .4133911 .35198976 .4133911 .4149933 .4133911 .42599488 .32835389 .42599488 .31835938L.4229889 .3043518 .3809967 .13327027Z"/>
</defs>
<path transform="matrix(1,0,0,-1,167.417,64.663)" d="M-20.68495 56.2951H-155.0656C-157.26654 56.2951-159.0507 54.51094-159.0507 52.31V-58.7763C-159.0507-60.97725-157.26654-62.76141-155.0656-62.76141H-20.68495C-18.48401-62.76141-16.69984-60.97725-16.69984-58.7763V52.31C-16.69984 54.51094-18.48401 56.2951-20.68495 56.2951ZM-159.0507-62.76141" fill="#f0f3f7"/>
<path transform="matrix(1,0,0,-1,167.417,64.663)" stroke-width=".79701" stroke-linecap="butt" stroke-miterlimit="10" stroke-linejoin="miter" fill="none" stroke="#003e74" d="M-20.68495 56.2951H-155.0656C-157.26654 56.2951-159.0507 54.51094-159.0507 52.31V-58.7763C-159.0507-60.97725-157.26654-62.76141-155.0656-62.76141H-20.68495C-18.48401-62.76141-16.69984-60.97725-16.69984-58.7763V52.31C-16.69984 54.51094-18.48401 56.2951-20.68495 56.2951ZM-159.0507-62.76141"/>
<use data-text="C" xlink:href="#font_1_2" transform="matrix(9.9626,0,0,-9.9626,39.805009,18.322007)" fill="#003e74"/>
<use data-text="l" xlink:href="#font_1_8" transform="matrix(9.9626,0,0,-9.9626,48.08393,18.322007)" fill="#003e74"/>
<use data-text="a" xlink:href="#font_1_1" transform="matrix(9.9626,0,0,-9.9626,51.271966,18.322007)" fill="#003e74"/>
<use data-text="s" xlink:href="#font_1_13" transform="matrix(9.9626,0,0,-9.9626,56.841058,18.322007)" fill="#003e74"/>
<use data-text="s" xlink:href="#font_1_13" transform="matrix(9.9626,0,0,-9.9626,61.36408,18.322007)" fill="#003e74"/>
<use data-text="i" xlink:href="#font_1_16" transform="matrix(9.9626,0,0,-9.9626,65.8871,18.322007)" fill="#003e74"/>
<use data-text="c" xlink:href="#font_1_3" transform="matrix(9.9626,0,0,-9.9626,69.075138,18.322007)" fill="#003e74"/>
<use data-text="a" xlink:href="#font_1_1" transform="matrix(9.9626,0,0,-9.9626,74.16602,18.322007)" fill="#003e74"/>
<use data-text="l" xlink:href="#font_1_8" transform="matrix(9.9626,0,0,-9.9626,79.735118,18.322007)" fill="#003e74"/>
<use data-text="t" xlink:href="#font_1_14" transform="matrix(9.9626,0,0,-9.9626,86.73882,18.322007)" fill="#003e74"/>
<use data-text="h" xlink:href="#font_1_7" transform="matrix(9.9626,0,0,-9.9626,91.19211,18.322007)" fill="#003e74"/>
<use data-text="e" xlink:href="#font_1_5" transform="matrix(9.9626,0,0,-9.9626,97.55821,18.322007)" fill="#003e74"/>
<use data-text="o" xlink:href="#font_1_10" transform="matrix(9.9626,0,0,-9.9626,102.8085,18.322007)" fill="#003e74"/>
<use data-text="r" xlink:href="#font_1_12" transform="matrix(9.9626,0,0,-9.9626,108.536998,18.322007)" fill="#003e74"/>
<use data-text="y" xlink:href="#font_1_15" transform="matrix(9.9626,0,0,-9.9626,113.25927,18.322007)" fill="#003e74"/>
<use data-text="T" xlink:href="#font_2_23" transform="matrix(7.9701,0,0,-7.9701,18.598008,32.571)"/>
<use data-text="h" xlink:href="#font_2_10" transform="matrix(7.9701,0,0,-7.9701,24.711075,32.571)"/>
<use data-text="e" xlink:href="#font_2_6" transform="matrix(7.9701,0,0,-7.9701,29.413434,32.571)"/>
<use data-text="f" xlink:href="#font_2_7" transform="matrix(7.9701,0,0,-7.9701,35.996736,32.571)"/>
<use data-text="o" xlink:href="#font_2_16" transform="matrix(7.9701,0,0,-7.9701,38.587018,32.571)"/>
<use data-text="u" xlink:href="#font_2_25" transform="matrix(7.9701,0,0,-7.9701,42.81914,32.571)"/>
<use data-text="r" xlink:href="#font_2_20" transform="matrix(7.9701,0,0,-7.9701,47.5215,32.571)"/>
<use data-text="-" xlink:href="#font_2_11" transform="matrix(7.9701,0,0,-7.9701,50.82112,32.571)"/>
<use data-text="s" xlink:href="#font_2_22" transform="matrix(7.9701,0,0,-7.9701,53.642538,32.571)"/>
<use data-text="t" xlink:href="#font_2_24" transform="matrix(7.9701,0,0,-7.9701,56.98201,32.571)"/>
<use data-text="e" xlink:href="#font_2_6" transform="matrix(7.9701,0,0,-7.9701,60.273664,32.571)"/>
<use data-text="p" xlink:href="#font_2_17" transform="matrix(7.9701,0,0,-7.9701,64.03555,32.571)"/>
<use data-text="t" xlink:href="#font_2_24" transform="matrix(7.9701,0,0,-7.9701,71.55933,32.571)"/>
<use data-text="r" xlink:href="#font_2_20" transform="matrix(7.9701,0,0,-7.9701,74.85098,32.571)"/>
<use data-text="a" xlink:href="#font_2_1" transform="matrix(7.9701,0,0,-7.9701,78.150608,32.571)"/>
<use data-text="v" xlink:href="#font_2_26" transform="matrix(7.9701,0,0,-7.9701,82.151599,32.571)"/>
<use data-text="e" xlink:href="#font_2_6" transform="matrix(7.9701,0,0,-7.9701,86.38372,32.571)"/>
<use data-text="l" xlink:href="#font_2_13" transform="matrix(7.9701,0,0,-7.9701,90.14561,32.571)"/>
<use data-text="d" xlink:href="#font_2_5" transform="matrix(7.9701,0,0,-7.9701,95.31821,32.571)"/>
<use data-text="e" xlink:href="#font_2_6" transform="matrix(7.9701,0,0,-7.9701,100.02057,32.571)"/>
<use data-text="m" xlink:href="#font_2_14" transform="matrix(7.9701,0,0,-7.9701,103.782459,32.571)"/>
<use data-text="a" xlink:href="#font_2_1" transform="matrix(7.9701,0,0,-7.9701,110.83599,32.571)"/>
<use data-text="n" xlink:href="#font_2_15" transform="matrix(7.9701,0,0,-7.9701,115.068119,32.571)"/>
<use data-text="d" xlink:href="#font_2_5" transform="matrix(7.9701,0,0,-7.9701,119.77048,32.571)"/>
<use data-text="m" xlink:href="#font_2_14" transform="matrix(7.9701,0,0,-7.9701,18.598008,42.035997)"/>
<use data-text="o" xlink:href="#font_2_16" transform="matrix(7.9701,0,0,-7.9701,25.651547,42.035997)"/>
<use data-text="d" xlink:href="#font_2_5" transform="matrix(7.9701,0,0,-7.9701,30.122775,42.035997)"/>
<use data-text="e" xlink:href="#font_2_6" transform="matrix(7.9701,0,0,-7.9701,34.825136,42.035997)"/>
<use data-text="l" xlink:href="#font_2_13" transform="matrix(7.9701,0,0,-7.9701,38.58702,42.035997)"/>
<use data-text="." xlink:href="#font_2_18" transform="matrix(7.9701,0,0,-7.9701,40.9382,42.035997)"/>
<use data-text="+" xlink:href="#font_2_19" transform="matrix(7.9701,0,0,-7.9701,18.598008,55.484994)" fill="#007850"/>
<use data-text="i" xlink:href="#font_2_29" transform="matrix(7.9701,0,0,-7.9701,28.002726,55.484994)"/>
<use data-text="n" xlink:href="#font_2_15" transform="matrix(7.9701,0,0,-7.9701,30.353905,55.484994)"/>
<use data-text="t" xlink:href="#font_2_24" transform="matrix(7.9701,0,0,-7.9701,34.82513,55.484994)"/>
<use data-text="e" xlink:href="#font_2_6" transform="matrix(7.9701,0,0,-7.9701,38.116785,55.484994)"/>
<use data-text="r" xlink:href="#font_2_20" transform="matrix(7.9701,0,0,-7.9701,41.87867,55.484994)"/>
<use data-text="p" xlink:href="#font_2_17" transform="matrix(7.9701,0,0,-7.9701,45.17829,55.484994)"/>
<use data-text="r" xlink:href="#font_2_20" transform="matrix(7.9701,0,0,-7.9701,49.88065,55.484994)"/>
<use data-text="e" xlink:href="#font_2_6" transform="matrix(7.9701,0,0,-7.9701,53.18027,55.484994)"/>
<use data-text="t" xlink:href="#font_2_24" transform="matrix(7.9701,0,0,-7.9701,56.942159,55.484994)"/>
<use data-text="a" xlink:href="#font_2_1" transform="matrix(7.9701,0,0,-7.9701,60.23381,55.484994)"/>
<use data-text="b" xlink:href="#font_2_2" transform="matrix(7.9701,0,0,-7.9701,64.465938,55.484994)"/>
<use data-text="l" xlink:href="#font_2_13" transform="matrix(7.9701,0,0,-7.9701,69.1683,55.484994)"/>
<use data-text="e" xlink:href="#font_2_6" transform="matrix(7.9701,0,0,-7.9701,71.51948,55.484994)"/>
<use data-text="," xlink:href="#font_2_4" transform="matrix(7.9701,0,0,-7.9701,75.281368,55.484994)"/>
<use data-text="b" xlink:href="#font_2_2" transform="matrix(7.9701,0,0,-7.9701,80.453968,55.484994)"/>
<use data-text="e" xlink:href="#font_2_6" transform="matrix(7.9701,0,0,-7.9701,85.38746,55.484994)"/>
<use data-text="h" xlink:href="#font_2_10" transform="matrix(7.9701,0,0,-7.9701,89.149349,55.484994)"/>
<use data-text="a" xlink:href="#font_2_1" transform="matrix(7.9701,0,0,-7.9701,93.85171,55.484994)"/>
<use data-text="v" xlink:href="#font_2_26" transform="matrix(7.9701,0,0,-7.9701,97.8527,55.484994)"/>
<use data-text="i" xlink:href="#font_2_29" transform="matrix(7.9701,0,0,-7.9701,102.32393,55.484994)"/>
<use data-text="o" xlink:href="#font_2_16" transform="matrix(7.9701,0,0,-7.9701,104.67511,55.484994)"/>
<use data-text="u" xlink:href="#font_2_25" transform="matrix(7.9701,0,0,-7.9701,108.907238,55.484994)"/>
<use data-text="r" xlink:href="#font_2_20" transform="matrix(7.9701,0,0,-7.9701,113.6096,55.484994)"/>
<use data-text="a" xlink:href="#font_2_1" transform="matrix(7.9701,0,0,-7.9701,116.90922,55.484994)"/>
<use data-text="l" xlink:href="#font_2_13" transform="matrix(7.9701,0,0,-7.9701,121.14134,55.484994)"/>
<use data-text="l" xlink:href="#font_2_13" transform="matrix(7.9701,0,0,-7.9701,123.49252,55.484994)"/>
<use data-text="y" xlink:href="#font_2_28" transform="matrix(7.9701,0,0,-7.9701,125.843708,55.484994)"/>
<use data-text="g" xlink:href="#font_2_9" transform="matrix(7.9701,0,0,-7.9701,18.598008,64.95)"/>
<use data-text="r" xlink:href="#font_2_20" transform="matrix(7.9701,0,0,-7.9701,22.830132,64.95)"/>
<use data-text="o" xlink:href="#font_2_16" transform="matrix(7.9701,0,0,-7.9701,26.129754,64.95)"/>
<use data-text="u" xlink:href="#font_2_25" transform="matrix(7.9701,0,0,-7.9701,30.361878,64.95)"/>
<use data-text="n" xlink:href="#font_2_15" transform="matrix(7.9701,0,0,-7.9701,35.064237,64.95)"/>
<use data-text="d" xlink:href="#font_2_5" transform="matrix(7.9701,0,0,-7.9701,39.766595,64.95)"/>
<use data-text="e" xlink:href="#font_2_6" transform="matrix(7.9701,0,0,-7.9701,44.468954,64.95)"/>
<use data-text="d" xlink:href="#font_2_5" transform="matrix(7.9701,0,0,-7.9701,48.23084,64.95)"/>
<use data-text="&#x2212;" xlink:href="#font_3_1" transform="matrix(7.9701,0,0,-7.9701,18.598008,76.407)" fill="#b23232"/>
<use data-text="r" xlink:href="#font_2_20" transform="matrix(7.9701,0,0,-7.9701,28.002726,76.407)"/>
<use data-text="e" xlink:href="#font_2_6" transform="matrix(7.9701,0,0,-7.9701,31.302348,76.407)"/>
<use data-text="s" xlink:href="#font_2_22" transform="matrix(7.9701,0,0,-7.9701,35.064237,76.407)"/>
<use data-text="t" xlink:href="#font_2_24" transform="matrix(7.9701,0,0,-7.9701,38.40371,76.407)"/>
<use data-text="r" xlink:href="#font_2_20" transform="matrix(7.9701,0,0,-7.9701,41.695363,76.407)"/>
<use data-text="i" xlink:href="#font_2_29" transform="matrix(7.9701,0,0,-7.9701,44.994985,76.407)"/>
<use data-text="c" xlink:href="#font_2_3" transform="matrix(7.9701,0,0,-7.9701,47.346166,76.407)"/>
<use data-text="t" xlink:href="#font_2_24" transform="matrix(7.9701,0,0,-7.9701,51.10805,76.407)"/>
<use data-text="i" xlink:href="#font_2_29" transform="matrix(7.9701,0,0,-7.9701,54.399705,76.407)"/>
<use data-text="v" xlink:href="#font_2_26" transform="matrix(7.9701,0,0,-7.9701,56.750886,76.407)"/>
<use data-text="e" xlink:href="#font_2_6" transform="matrix(7.9701,0,0,-7.9701,60.99098,76.407)"/>
<use data-text="a" xlink:href="#font_2_1" transform="matrix(7.9701,0,0,-7.9701,67.57429,76.407)"/>
<use data-text="s" xlink:href="#font_2_22" transform="matrix(7.9701,0,0,-7.9701,71.80641,76.407)"/>
<use data-text="s" xlink:href="#font_2_22" transform="matrix(7.9701,0,0,-7.9701,75.14588,76.407)"/>
<use data-text="u" xlink:href="#font_2_25" transform="matrix(7.9701,0,0,-7.9701,78.48535,76.407)"/>
<use data-text="m" xlink:href="#font_2_14" transform="matrix(7.9701,0,0,-7.9701,83.18771,76.407)"/>
<use data-text="p" xlink:href="#font_2_17" transform="matrix(7.9701,0,0,-7.9701,90.24125,76.407)"/>
<use data-text="t" xlink:href="#font_2_24" transform="matrix(7.9701,0,0,-7.9701,94.94361,76.407)"/>
<use data-text="i" xlink:href="#font_2_29" transform="matrix(7.9701,0,0,-7.9701,98.23526,76.407)"/>
<use data-text="o" xlink:href="#font_2_16" transform="matrix(7.9701,0,0,-7.9701,100.58644,76.407)"/>
<use data-text="n" xlink:href="#font_2_15" transform="matrix(7.9701,0,0,-7.9701,104.818569,76.407)"/>
<use data-text="s" xlink:href="#font_2_22" transform="matrix(7.9701,0,0,-7.9701,109.52093,76.407)"/>
<use data-text="&#x2212;" xlink:href="#font_3_1" transform="matrix(7.9701,0,0,-7.9701,18.598008,87.864)" fill="#b23232"/>
<use data-text="h" xlink:href="#font_2_10" transform="matrix(7.9701,0,0,-7.9701,28.002726,87.864)"/>
<use data-text="a" xlink:href="#font_2_1" transform="matrix(7.9701,0,0,-7.9701,32.705087,87.864)"/>
<use data-text="n" xlink:href="#font_2_15" transform="matrix(7.9701,0,0,-7.9701,36.93721,87.864)"/>
<use data-text="d" xlink:href="#font_2_5" transform="matrix(7.9701,0,0,-7.9701,41.63957,87.864)"/>
<use data-text="-" xlink:href="#font_2_11" transform="matrix(7.9701,0,0,-7.9701,46.341928,87.864)"/>
<use data-text="c" xlink:href="#font_2_3" transform="matrix(7.9701,0,0,-7.9701,49.16334,87.864)"/>
<use data-text="a" xlink:href="#font_2_1" transform="matrix(7.9701,0,0,-7.9701,52.92523,87.864)"/>
<use data-text="l" xlink:href="#font_2_13" transform="matrix(7.9701,0,0,-7.9701,57.157354,87.864)"/>
<use data-text="i" xlink:href="#font_2_29" transform="matrix(7.9701,0,0,-7.9701,59.508535,87.864)"/>
<use data-text="b" xlink:href="#font_2_2" transform="matrix(7.9701,0,0,-7.9701,61.859716,87.864)"/>
<use data-text="r" xlink:href="#font_2_20" transform="matrix(7.9701,0,0,-7.9701,66.56207,87.864)"/>
<use data-text="a" xlink:href="#font_2_1" transform="matrix(7.9701,0,0,-7.9701,69.861698,87.864)"/>
<use data-text="t" xlink:href="#font_2_24" transform="matrix(7.9701,0,0,-7.9701,74.09382,87.864)"/>
<use data-text="e" xlink:href="#font_2_6" transform="matrix(7.9701,0,0,-7.9701,77.38547,87.864)"/>
<use data-text="d" xlink:href="#font_2_5" transform="matrix(7.9701,0,0,-7.9701,81.147357,87.864)"/>
<use data-text="," xlink:href="#font_2_4" transform="matrix(7.9701,0,0,-7.9701,85.84972,87.864)"/>
<use data-text="l" xlink:href="#font_2_13" transform="matrix(7.9701,0,0,-7.9701,91.022319,87.864)"/>
<use data-text="a" xlink:href="#font_2_1" transform="matrix(7.9701,0,0,-7.9701,93.3735,87.864)"/>
<use data-text="b" xlink:href="#font_2_2" transform="matrix(7.9701,0,0,-7.9701,97.60562,87.864)"/>
<use data-text="o" xlink:href="#font_2_16" transform="matrix(7.9701,0,0,-7.9701,102.54709,87.864)"/>
<use data-text="u" xlink:href="#font_2_25" transform="matrix(7.9701,0,0,-7.9701,106.77921,87.864)"/>
<use data-text="r" xlink:href="#font_2_20" transform="matrix(7.9701,0,0,-7.9701,111.481578,87.864)"/>
<use data-text="-" xlink:href="#font_2_11" transform="matrix(7.9701,0,0,-7.9701,114.7812,87.864)"/>
<use data-text="i" xlink:href="#font_2_29" transform="matrix(7.9701,0,0,-7.9701,18.598008,97.328)"/>
<use data-text="n" xlink:href="#font_2_15" transform="matrix(7.9701,0,0,-7.9701,20.949187,97.328)"/>
<use data-text="t" xlink:href="#font_2_24" transform="matrix(7.9701,0,0,-7.9701,25.420414,97.328)"/>
<use data-text="e" xlink:href="#font_2_6" transform="matrix(7.9701,0,0,-7.9701,28.712065,97.328)"/>
<use data-text="n" xlink:href="#font_2_15" transform="matrix(7.9701,0,0,-7.9701,32.473955,97.328)"/>
<use data-text="s" xlink:href="#font_2_22" transform="matrix(7.9701,0,0,-7.9701,37.17631,97.328)"/>
<use data-text="i" xlink:href="#font_2_29" transform="matrix(7.9701,0,0,-7.9701,40.515787,97.328)"/>
<use data-text="v" xlink:href="#font_2_26" transform="matrix(7.9701,0,0,-7.9701,42.866968,97.328)"/>
<use data-text="e" xlink:href="#font_2_6" transform="matrix(7.9701,0,0,-7.9701,47.09909,97.328)"/>
<use data-text="&#x2212;" xlink:href="#font_3_1" transform="matrix(7.9701,0,0,-7.9701,18.598008,108.785999)" fill="#b23232"/>
<use data-text="c" xlink:href="#font_2_3" transform="matrix(7.9701,0,0,-7.9701,28.002726,108.785999)"/>
<use data-text="o" xlink:href="#font_2_16" transform="matrix(7.9701,0,0,-7.9701,31.764613,108.785999)"/>
<use data-text="a" xlink:href="#font_2_1" transform="matrix(7.9701,0,0,-7.9701,35.996736,108.785999)"/>
<use data-text="r" xlink:href="#font_2_20" transform="matrix(7.9701,0,0,-7.9701,40.22886,108.785999)"/>
<use data-text="s" xlink:href="#font_2_22" transform="matrix(7.9701,0,0,-7.9701,43.52848,108.785999)"/>
<use data-text="e" xlink:href="#font_2_6" transform="matrix(7.9701,0,0,-7.9701,46.867956,108.785999)"/>
<use data-text="s" xlink:href="#font_2_22" transform="matrix(7.9701,0,0,-7.9701,53.451257,108.785999)"/>
<use data-text="p" xlink:href="#font_2_17" transform="matrix(7.9701,0,0,-7.9701,56.79073,108.785999)"/>
<use data-text="a" xlink:href="#font_2_1" transform="matrix(7.9701,0,0,-7.9701,61.493089,108.785999)"/>
<use data-text="t" xlink:href="#font_2_24" transform="matrix(7.9701,0,0,-7.9701,65.72521,108.785999)"/>
<use data-text="i" xlink:href="#font_2_29" transform="matrix(7.9701,0,0,-7.9701,69.01686,108.785999)"/>
<use data-text="a" xlink:href="#font_2_1" transform="matrix(7.9701,0,0,-7.9701,71.36804,108.785999)"/>
<use data-text="l" xlink:href="#font_2_13" transform="matrix(7.9701,0,0,-7.9701,75.60017,108.785999)"/>
<use data-text="r" xlink:href="#font_2_20" transform="matrix(7.9701,0,0,-7.9701,80.772769,108.785999)"/>
<use data-text="e" xlink:href="#font_2_6" transform="matrix(7.9701,0,0,-7.9701,84.07239,108.785999)"/>
<use data-text="s" xlink:href="#font_2_22" transform="matrix(7.9701,0,0,-7.9701,87.834278,108.785999)"/>
<use data-text="o" xlink:href="#font_2_16" transform="matrix(7.9701,0,0,-7.9701,91.173748,108.785999)"/>
<use data-text="l" xlink:href="#font_2_13" transform="matrix(7.9701,0,0,-7.9701,95.40587,108.785999)"/>
<use data-text="u" xlink:href="#font_2_25" transform="matrix(7.9701,0,0,-7.9701,97.75705,108.785999)"/>
<use data-text="t" xlink:href="#font_2_24" transform="matrix(7.9701,0,0,-7.9701,102.45941,108.785999)"/>
<use data-text="i" xlink:href="#font_2_29" transform="matrix(7.9701,0,0,-7.9701,105.75106,108.785999)"/>
<use data-text="o" xlink:href="#font_2_16" transform="matrix(7.9701,0,0,-7.9701,108.10224,108.785999)"/>
<use data-text="n" xlink:href="#font_2_15" transform="matrix(7.9701,0,0,-7.9701,112.334369,108.785999)"/>
<path transform="matrix(1,0,0,-1,167.417,64.663)" d="M155.0656 56.2951H20.68495C18.48401 56.2951 16.69984 54.51094 16.69984 52.31V-58.7763C16.69984-60.97725 18.48401-62.76141 20.68495-62.76141H155.0656C157.26654-62.76141 159.0507-60.97725 159.0507-58.7763V52.31C159.0507 54.51094 157.26654 56.2951 155.0656 56.2951ZM16.69984-62.76141" fill="#ebf3f2"/>
<path transform="matrix(1,0,0,-1,167.417,64.663)" stroke-width=".79701" stroke-linecap="butt" stroke-miterlimit="10" stroke-linejoin="miter" fill="none" stroke="#006e5a" d="M155.0656 56.2951H20.68495C18.48401 56.2951 16.69984 54.51094 16.69984 52.31V-58.7763C16.69984-60.97725 18.48401-62.76141 20.68495-62.76141H155.0656C157.26654-62.76141 159.0507-60.97725 159.0507-58.7763V52.31C159.0507 54.51094 157.26654 56.2951 155.0656 56.2951ZM16.69984-62.76141"/>
<use data-text="D" xlink:href="#font_1_4" transform="matrix(9.9626,0,0,-9.9626,220.37401,18.322007)" fill="#006e5a"/>
<use data-text="e" xlink:href="#font_1_5" transform="matrix(9.9626,0,0,-9.9626,229.16103,18.322007)" fill="#006e5a"/>
<use data-text="e" xlink:href="#font_1_5" transform="matrix(9.9626,0,0,-9.9626,234.41132,18.322007)" fill="#006e5a"/>
<use data-text="p" xlink:href="#font_1_11" transform="matrix(9.9626,0,0,-9.9626,239.6616,18.322007)" fill="#006e5a"/>
<use data-text="l" xlink:href="#font_1_8" transform="matrix(9.9626,0,0,-9.9626,249.84339,18.322007)" fill="#006e5a"/>
<use data-text="e" xlink:href="#font_1_5" transform="matrix(9.9626,0,0,-9.9626,253.03142,18.322007)" fill="#006e5a"/>
<use data-text="a" xlink:href="#font_1_1" transform="matrix(9.9626,0,0,-9.9626,258.28175,18.322007)" fill="#006e5a"/>
<use data-text="r" xlink:href="#font_1_12" transform="matrix(9.9626,0,0,-9.9626,263.85084,18.322007)" fill="#006e5a"/>
<use data-text="n" xlink:href="#font_1_9" transform="matrix(9.9626,0,0,-9.9626,268.57307,18.322007)" fill="#006e5a"/>
<use data-text="i" xlink:href="#font_1_16" transform="matrix(9.9626,0,0,-9.9626,274.93916,18.322007)" fill="#006e5a"/>
<use data-text="n" xlink:href="#font_1_9" transform="matrix(9.9626,0,0,-9.9626,278.1272,18.322007)" fill="#006e5a"/>
<use data-text="g" xlink:href="#font_1_6" transform="matrix(9.9626,0,0,-9.9626,284.4933,18.322007)" fill="#006e5a"/>
<use data-text="S" xlink:href="#font_2_21" transform="matrix(7.9701,0,0,-7.9701,194.34601,32.571)"/>
<use data-text="h" xlink:href="#font_2_10" transform="matrix(7.9701,0,0,-7.9701,199.04837,32.571)"/>
<use data-text="o" xlink:href="#font_2_16" transform="matrix(7.9701,0,0,-7.9701,203.75074,32.571)"/>
<use data-text="r" xlink:href="#font_2_20" transform="matrix(7.9701,0,0,-7.9701,207.98285,32.571)"/>
<use data-text="t" xlink:href="#font_2_24" transform="matrix(7.9701,0,0,-7.9701,211.28247,32.571)"/>
<use data-text="-" xlink:href="#font_2_11" transform="matrix(7.9701,0,0,-7.9701,214.57413,32.571)"/>
<use data-text="t" xlink:href="#font_2_24" transform="matrix(7.9701,0,0,-7.9701,217.39554,32.571)"/>
<use data-text="e" xlink:href="#font_2_6" transform="matrix(7.9701,0,0,-7.9701,220.6872,32.571)"/>
<use data-text="r" xlink:href="#font_2_20" transform="matrix(7.9701,0,0,-7.9701,224.44908,32.571)"/>
<use data-text="m" xlink:href="#font_2_14" transform="matrix(7.9701,0,0,-7.9701,227.7487,32.571)"/>
<use data-text="t" xlink:href="#font_2_24" transform="matrix(7.9701,0,0,-7.9701,237.62366,32.571)"/>
<use data-text="r" xlink:href="#font_2_20" transform="matrix(7.9701,0,0,-7.9701,240.91532,32.571)"/>
<use data-text="a" xlink:href="#font_2_1" transform="matrix(7.9701,0,0,-7.9701,244.21494,32.571)"/>
<use data-text="f" xlink:href="#font_2_8" transform="matrix(7.9701,0,0,-7.9701,248.44705,32.571)"/>
<use data-text="c" xlink:href="#font_2_3" transform="matrix(7.9701,0,0,-7.9701,255.5006,32.571)"/>
<use data-text="f" xlink:href="#font_2_7" transform="matrix(7.9701,0,0,-7.9701,262.08393,32.571)"/>
<use data-text="o" xlink:href="#font_2_16" transform="matrix(7.9701,0,0,-7.9701,264.6742,32.571)"/>
<use data-text="r" xlink:href="#font_2_20" transform="matrix(7.9701,0,0,-7.9701,268.9063,32.571)"/>
<use data-text="e" xlink:href="#font_2_6" transform="matrix(7.9701,0,0,-7.9701,272.20594,32.571)"/>
<use data-text="c" xlink:href="#font_2_3" transform="matrix(7.9701,0,0,-7.9701,275.96784,32.571)"/>
<use data-text="a" xlink:href="#font_2_1" transform="matrix(7.9701,0,0,-7.9701,279.72975,32.571)"/>
<use data-text="s" xlink:href="#font_2_22" transform="matrix(7.9701,0,0,-7.9701,283.96186,32.571)"/>
<use data-text="t" xlink:href="#font_2_24" transform="matrix(7.9701,0,0,-7.9701,287.30134,32.571)"/>
<use data-text="i" xlink:href="#font_2_29" transform="matrix(7.9701,0,0,-7.9701,290.59297,32.571)"/>
<use data-text="n" xlink:href="#font_2_15" transform="matrix(7.9701,0,0,-7.9701,292.94416,32.571)"/>
<use data-text="g" xlink:href="#font_2_9" transform="matrix(7.9701,0,0,-7.9701,297.64649,32.571)"/>
<use data-text="." xlink:href="#font_2_18" transform="matrix(7.9701,0,0,-7.9701,301.8786,32.571)"/>
<use data-text="+" xlink:href="#font_2_19" transform="matrix(7.9701,0,0,-7.9701,194.34601,46.020998)" fill="#007850"/>
<use data-text="v" xlink:href="#font_2_26" transform="matrix(7.9701,0,0,-7.9701,203.75072,46.020998)"/>
<use data-text="e" xlink:href="#font_2_6" transform="matrix(7.9701,0,0,-7.9701,207.9908,46.020998)"/>
<use data-text="r" xlink:href="#font_2_20" transform="matrix(7.9701,0,0,-7.9701,211.75269,46.020998)"/>
<use data-text="y" xlink:href="#font_2_28" transform="matrix(7.9701,0,0,-7.9701,215.0523,46.020998)"/>
<use data-text="a" xlink:href="#font_2_1" transform="matrix(7.9701,0,0,-7.9701,222.34494,46.020998)"/>
<use data-text="c" xlink:href="#font_2_3" transform="matrix(7.9701,0,0,-7.9701,226.57706,46.020998)"/>
<use data-text="c" xlink:href="#font_2_3" transform="matrix(7.9701,0,0,-7.9701,230.33895,46.020998)"/>
<use data-text="u" xlink:href="#font_2_25" transform="matrix(7.9701,0,0,-7.9701,234.10083,46.020998)"/>
<use data-text="r" xlink:href="#font_2_20" transform="matrix(7.9701,0,0,-7.9701,238.80319,46.020998)"/>
<use data-text="a" xlink:href="#font_2_1" transform="matrix(7.9701,0,0,-7.9701,242.10282,46.020998)"/>
<use data-text="t" xlink:href="#font_2_24" transform="matrix(7.9701,0,0,-7.9701,246.33493,46.020998)"/>
<use data-text="e" xlink:href="#font_2_6" transform="matrix(7.9701,0,0,-7.9701,249.62659,46.020998)"/>
<use data-text="f" xlink:href="#font_2_7" transform="matrix(7.9701,0,0,-7.9701,256.2099,46.020998)"/>
<use data-text="o" xlink:href="#font_2_16" transform="matrix(7.9701,0,0,-7.9701,258.80018,46.020998)"/>
<use data-text="r" xlink:href="#font_2_20" transform="matrix(7.9701,0,0,-7.9701,263.0323,46.020998)"/>
<use data-text="t" xlink:href="#font_2_24" transform="matrix(7.9701,0,0,-7.9701,269.15333,46.020998)"/>
<use data-text="h" xlink:href="#font_2_10" transform="matrix(7.9701,0,0,-7.9701,272.44496,46.020998)"/>
<use data-text="e" xlink:href="#font_2_6" transform="matrix(7.9701,0,0,-7.9701,277.14735,46.020998)"/>
<use data-text="n" xlink:href="#font_2_15" transform="matrix(7.9701,0,0,-7.9701,283.73066,46.020998)"/>
<use data-text="e" xlink:href="#font_2_6" transform="matrix(7.9701,0,0,-7.9701,288.43299,46.020998)"/>
<use data-text="x" xlink:href="#font_2_27" transform="matrix(7.9701,0,0,-7.9701,292.1949,46.020998)"/>
<use data-text="t" xlink:href="#font_2_24" transform="matrix(7.9701,0,0,-7.9701,296.66615,46.020998)"/>
<use data-text="m" xlink:href="#font_2_14" transform="matrix(7.9701,0,0,-7.9701,194.34601,55.484994)"/>
<use data-text="i" xlink:href="#font_2_29" transform="matrix(7.9701,0,0,-7.9701,201.39955,55.484994)"/>
<use data-text="n" xlink:href="#font_2_15" transform="matrix(7.9701,0,0,-7.9701,203.75074,55.484994)"/>
<use data-text="u" xlink:href="#font_2_25" transform="matrix(7.9701,0,0,-7.9701,208.22196,55.484994)"/>
<use data-text="t" xlink:href="#font_2_24" transform="matrix(7.9701,0,0,-7.9701,212.92432,55.484994)"/>
<use data-text="e" xlink:href="#font_2_6" transform="matrix(7.9701,0,0,-7.9701,216.21598,55.484994)"/>
<use data-text="s" xlink:href="#font_2_22" transform="matrix(7.9701,0,0,-7.9701,219.97786,55.484994)"/>
<use data-text="&#x2212;" xlink:href="#font_3_1" transform="matrix(7.9701,0,0,-7.9701,194.34601,66.94199)" fill="#b23232"/>
<use data-text="a" xlink:href="#font_2_1" transform="matrix(7.9701,0,0,-7.9701,203.75072,66.94199)"/>
<use data-text="b" xlink:href="#font_2_2" transform="matrix(7.9701,0,0,-7.9701,210.80425,66.94199)"/>
<use data-text="l" xlink:href="#font_2_13" transform="matrix(7.9701,0,0,-7.9701,215.5066,66.94199)"/>
<use data-text="a" xlink:href="#font_2_1" transform="matrix(7.9701,0,0,-7.9701,217.85779,66.94199)"/>
<use data-text="c" xlink:href="#font_2_3" transform="matrix(7.9701,0,0,-7.9701,222.0899,66.94199)"/>
<use data-text="k" xlink:href="#font_2_12" transform="matrix(7.9701,0,0,-7.9701,225.62065,66.94199)"/>
<use data-text="b" xlink:href="#font_2_2" transform="matrix(7.9701,0,0,-7.9701,232.91329,66.94199)"/>
<use data-text="o" xlink:href="#font_2_16" transform="matrix(7.9701,0,0,-7.9701,237.84679,66.94199)"/>
<use data-text="x" xlink:href="#font_2_27" transform="matrix(7.9701,0,0,-7.9701,241.84777,66.94199)"/>
<use data-text="&#x2212;" xlink:href="#font_3_1" transform="matrix(7.9701,0,0,-7.9701,194.34601,78.398998)" fill="#b23232"/>
<use data-text="n" xlink:href="#font_2_15" transform="matrix(7.9701,0,0,-7.9701,203.75072,78.398998)"/>
<use data-text="e" xlink:href="#font_2_6" transform="matrix(7.9701,0,0,-7.9701,208.45308,78.398998)"/>
<use data-text="e" xlink:href="#font_2_6" transform="matrix(7.9701,0,0,-7.9701,212.21497,78.398998)"/>
<use data-text="d" xlink:href="#font_2_5" transform="matrix(7.9701,0,0,-7.9701,215.97686,78.398998)"/>
<use data-text="s" xlink:href="#font_2_22" transform="matrix(7.9701,0,0,-7.9701,220.67922,78.398998)"/>
<use data-text="d" xlink:href="#font_2_5" transform="matrix(7.9701,0,0,-7.9701,226.8401,78.398998)"/>
<use data-text="e" xlink:href="#font_2_6" transform="matrix(7.9701,0,0,-7.9701,231.54247,78.398998)"/>
<use data-text="n" xlink:href="#font_2_15" transform="matrix(7.9701,0,0,-7.9701,235.30435,78.398998)"/>
<use data-text="s" xlink:href="#font_2_22" transform="matrix(7.9701,0,0,-7.9701,240.00672,78.398998)"/>
<use data-text="e" xlink:href="#font_2_6" transform="matrix(7.9701,0,0,-7.9701,243.34619,78.398998)"/>
<use data-text="s" xlink:href="#font_2_22" transform="matrix(7.9701,0,0,-7.9701,249.93747,78.398998)"/>
<use data-text="e" xlink:href="#font_2_6" transform="matrix(7.9701,0,0,-7.9701,253.27695,78.398998)"/>
<use data-text="n" xlink:href="#font_2_15" transform="matrix(7.9701,0,0,-7.9701,257.03883,78.398998)"/>
<use data-text="s" xlink:href="#font_2_22" transform="matrix(7.9701,0,0,-7.9701,261.7412,78.398998)"/>
<use data-text="o" xlink:href="#font_2_16" transform="matrix(7.9701,0,0,-7.9701,265.0807,78.398998)"/>
<use data-text="r" xlink:href="#font_2_20" transform="matrix(7.9701,0,0,-7.9701,269.3128,78.398998)"/>
<use data-text="h" xlink:href="#font_2_10" transform="matrix(7.9701,0,0,-7.9701,275.43385,78.398998)"/>
<use data-text="i" xlink:href="#font_2_29" transform="matrix(7.9701,0,0,-7.9701,280.13618,78.398998)"/>
<use data-text="s" xlink:href="#font_2_22" transform="matrix(7.9701,0,0,-7.9701,282.48738,78.398998)"/>
<use data-text="t" xlink:href="#font_2_24" transform="matrix(7.9701,0,0,-7.9701,285.82685,78.398998)"/>
<use data-text="o" xlink:href="#font_2_16" transform="matrix(7.9701,0,0,-7.9701,289.11848,78.398998)"/>
<use data-text="r" xlink:href="#font_2_20" transform="matrix(7.9701,0,0,-7.9701,293.3506,78.398998)"/>
<use data-text="y" xlink:href="#font_2_28" transform="matrix(7.9701,0,0,-7.9701,296.6502,78.398998)"/>
<use data-text="&#x2212;" xlink:href="#font_3_1" transform="matrix(7.9701,0,0,-7.9701,194.34601,89.855998)" fill="#b23232"/>
<use data-text="d" xlink:href="#font_2_5" transform="matrix(7.9701,0,0,-7.9701,203.75072,89.855998)"/>
<use data-text="o" xlink:href="#font_2_16" transform="matrix(7.9701,0,0,-7.9701,208.45308,89.855998)"/>
<use data-text="e" xlink:href="#font_2_6" transform="matrix(7.9701,0,0,-7.9701,212.9243,89.855998)"/>
<use data-text="s" xlink:href="#font_2_22" transform="matrix(7.9701,0,0,-7.9701,216.68619,89.855998)"/>
<use data-text="n" xlink:href="#font_2_15" transform="matrix(7.9701,0,0,-7.9701,222.84708,89.855998)"/>
<use data-text="o" xlink:href="#font_2_16" transform="matrix(7.9701,0,0,-7.9701,227.54944,89.855998)"/>
<use data-text="t" xlink:href="#font_2_24" transform="matrix(7.9701,0,0,-7.9701,231.78156,89.855998)"/>
<use data-text="t" xlink:href="#font_2_24" transform="matrix(7.9701,0,0,-7.9701,237.89463,89.855998)"/>
<use data-text="r" xlink:href="#font_2_20" transform="matrix(7.9701,0,0,-7.9701,241.18628,89.855998)"/>
<use data-text="a" xlink:href="#font_2_1" transform="matrix(7.9701,0,0,-7.9701,244.4859,89.855998)"/>
<use data-text="n" xlink:href="#font_2_15" transform="matrix(7.9701,0,0,-7.9701,248.71802,89.855998)"/>
<use data-text="s" xlink:href="#font_2_22" transform="matrix(7.9701,0,0,-7.9701,253.42038,89.855998)"/>
<use data-text="f" xlink:href="#font_2_7" transform="matrix(7.9701,0,0,-7.9701,256.75984,89.855998)"/>
<use data-text="e" xlink:href="#font_2_6" transform="matrix(7.9701,0,0,-7.9701,259.3501,89.855998)"/>
<use data-text="r" xlink:href="#font_2_20" transform="matrix(7.9701,0,0,-7.9701,263.112,89.855998)"/>
<use data-text="i" xlink:href="#font_2_29" transform="matrix(7.9701,0,0,-7.9701,269.23304,89.855998)"/>
<use data-text="n" xlink:href="#font_2_15" transform="matrix(7.9701,0,0,-7.9701,271.58424,89.855998)"/>
<use data-text="s" xlink:href="#font_2_22" transform="matrix(7.9701,0,0,-7.9701,279.10798,89.855998)"/>
<use data-text="p" xlink:href="#font_2_17" transform="matrix(7.9701,0,0,-7.9701,282.44746,89.855998)"/>
<use data-text="a" xlink:href="#font_2_1" transform="matrix(7.9701,0,0,-7.9701,287.14985,89.855998)"/>
<use data-text="c" xlink:href="#font_2_3" transform="matrix(7.9701,0,0,-7.9701,291.38197,89.855998)"/>
<use data-text="e" xlink:href="#font_2_6" transform="matrix(7.9701,0,0,-7.9701,295.14387,89.855998)"/>
<path transform="matrix(1,0,0,-1,167.417,64.663)" d="M41.85568-31.82104H-41.85568C-44.05663-31.82104-45.84079-33.60521-45.84079-35.80615V-60.5728C-45.84079-62.77373-44.05663-64.5579-41.85568-64.5579H41.85568C44.05663-64.5579 45.84079-62.77373 45.84079-60.5728V-35.80615C45.84079-33.60521 44.05663-31.82104 41.85568-31.82104ZM-45.84079-64.5579" fill="#f6f1e8"/>
<path transform="matrix(1,0,0,-1,167.417,64.663)" stroke-width=".99628" stroke-linecap="butt" stroke-miterlimit="10" stroke-linejoin="miter" fill="none" stroke="#b48c3c" d="M41.85568-31.82104H-41.85568C-44.05663-31.82104-45.84079-33.60521-45.84079-35.80615V-60.5728C-45.84079-62.77373-44.05663-64.5579-41.85568-64.5579H41.85568C44.05663-64.5579 45.84079-62.77373 45.84079-60.5728V-35.80615C45.84079-33.60521 44.05663-31.82104 41.85568-31.82104ZM-45.84079-64.5579"/>
<use data-text="T" xlink:href="#font_4_7" transform="matrix(7.9701,0,0,-7.9701,135.77701,105.421009)"/>
<use data-text="h" xlink:href="#font_4_3" transform="matrix(7.9701,0,0,-7.9701,142.56754,105.421009)"/>
<use data-text="e" xlink:href="#font_4_2" transform="matrix(7.9701,0,0,-7.9701,147.99518,105.421009)"/>
<use data-text="e" xlink:href="#font_4_2" transform="matrix(7.9701,0,0,-7.9701,155.28781,105.421009)"/>
<use data-text="m" xlink:href="#font_4_5" transform="matrix(7.9701,0,0,-7.9701,159.75904,105.421009)"/>
<use data-text="p" xlink:href="#font_4_6" transform="matrix(7.9701,0,0,-7.9701,167.89649,105.421009)"/>
<use data-text="t" xlink:href="#font_4_8" transform="matrix(7.9701,0,0,-7.9701,173.32413,105.421009)"/>
<use data-text="y" xlink:href="#font_4_9" transform="matrix(7.9701,0,0,-7.9701,176.84693,105.421009)"/>
<use data-text="c" xlink:href="#font_4_1" transform="matrix(7.9701,0,0,-7.9701,184.82498,105.421009)"/>
<use data-text="e" xlink:href="#font_4_2" transform="matrix(7.9701,0,0,-7.9701,189.16074,105.421009)"/>
<use data-text="l" xlink:href="#font_4_4" transform="matrix(7.9701,0,0,-7.9701,193.63196,105.421009)"/>
<use data-text="l" xlink:href="#font_4_4" transform="matrix(7.9701,0,0,-7.9701,196.3418,105.421009)"/>
<use data-text="a" xlink:href="#font_2_1" transform="matrix(7.9701,0,0,-7.9701,126.35,114.886)"/>
<use data-text="c" xlink:href="#font_2_3" transform="matrix(7.9701,0,0,-7.9701,130.58213,114.886)"/>
<use data-text="c" xlink:href="#font_2_3" transform="matrix(7.9701,0,0,-7.9701,134.344,114.886)"/>
<use data-text="u" xlink:href="#font_2_25" transform="matrix(7.9701,0,0,-7.9701,138.1059,114.886)"/>
<use data-text="r" xlink:href="#font_2_20" transform="matrix(7.9701,0,0,-7.9701,142.80826,114.886)"/>
<use data-text="a" xlink:href="#font_2_1" transform="matrix(7.9701,0,0,-7.9701,146.10788,114.886)"/>
<use data-text="t" xlink:href="#font_2_24" transform="matrix(7.9701,0,0,-7.9701,150.34,114.886)"/>
<use data-text="e" xlink:href="#font_2_6" transform="matrix(7.9701,0,0,-7.9701,153.63166,114.886)"/>
<use data-text="a" xlink:href="#font_5_1" transform="matrix(7.9701,0,0,-7.9701,160.21494,114.886)"/>
<use data-text="n" xlink:href="#font_5_3" transform="matrix(7.9701,0,0,-7.9701,164.59052,114.886)"/>
<use data-text="d" xlink:href="#font_5_2" transform="matrix(7.9701,0,0,-7.9701,169.40445,114.886)"/>
<use data-text="t" xlink:href="#font_2_24" transform="matrix(7.9701,0,0,-7.9701,177.13544,114.886)"/>
<use data-text="r" xlink:href="#font_2_20" transform="matrix(7.9701,0,0,-7.9701,180.4271,114.886)"/>
<use data-text="a" xlink:href="#font_2_1" transform="matrix(7.9701,0,0,-7.9701,183.72672,114.886)"/>
<use data-text="n" xlink:href="#font_2_15" transform="matrix(7.9701,0,0,-7.9701,187.95883,114.886)"/>
<use data-text="s" xlink:href="#font_2_22" transform="matrix(7.9701,0,0,-7.9701,192.6612,114.886)"/>
<use data-text="f" xlink:href="#font_2_7" transform="matrix(7.9701,0,0,-7.9701,196.00067,114.886)"/>
<use data-text="e" xlink:href="#font_2_6" transform="matrix(7.9701,0,0,-7.9701,198.59098,114.886)"/>
<use data-text="r" xlink:href="#font_2_20" transform="matrix(7.9701,0,0,-7.9701,202.35285,114.886)"/>
<use data-text="-" xlink:href="#font_2_11" transform="matrix(7.9701,0,0,-7.9701,205.65247,114.886)"/>
<use data-text="a" xlink:href="#font_2_1" transform="matrix(7.9701,0,0,-7.9701,126.377,124.350009)"/>
<use data-text="b" xlink:href="#font_2_2" transform="matrix(7.9701,0,0,-7.9701,130.60913,124.350009)"/>
<use data-text="l" xlink:href="#font_2_13" transform="matrix(7.9701,0,0,-7.9701,135.3115,124.350009)"/>
<use data-text="e" xlink:href="#font_2_6" transform="matrix(7.9701,0,0,-7.9701,137.66266,124.350009)"/>
<use data-text="a" xlink:href="#font_5_1" transform="matrix(7.9701,0,0,-7.9701,144.24597,124.350009)"/>
<use data-text="n" xlink:href="#font_5_3" transform="matrix(7.9701,0,0,-7.9701,148.62155,124.350009)"/>
<use data-text="d" xlink:href="#font_5_2" transform="matrix(7.9701,0,0,-7.9701,153.43549,124.350009)"/>
<use data-text="i" xlink:href="#font_2_29" transform="matrix(7.9701,0,0,-7.9701,161.16648,124.350009)"/>
<use data-text="n" xlink:href="#font_2_15" transform="matrix(7.9701,0,0,-7.9701,163.51764,124.350009)"/>
<use data-text="t" xlink:href="#font_2_24" transform="matrix(7.9701,0,0,-7.9701,167.9809,124.350009)"/>
<use data-text="e" xlink:href="#font_2_6" transform="matrix(7.9701,0,0,-7.9701,171.27256,124.350009)"/>
<use data-text="r" xlink:href="#font_2_20" transform="matrix(7.9701,0,0,-7.9701,175.03446,124.350009)"/>
<use data-text="p" xlink:href="#font_2_17" transform="matrix(7.9701,0,0,-7.9701,178.33408,124.350009)"/>
<use data-text="r" xlink:href="#font_2_20" transform="matrix(7.9701,0,0,-7.9701,183.03644,124.350009)"/>
<use data-text="e" xlink:href="#font_2_6" transform="matrix(7.9701,0,0,-7.9701,186.33606,124.350009)"/>
<use data-text="t" xlink:href="#font_2_24" transform="matrix(7.9701,0,0,-7.9701,190.09793,124.350009)"/>
<use data-text="a" xlink:href="#font_2_1" transform="matrix(7.9701,0,0,-7.9701,193.38959,124.350009)"/>
<use data-text="b" xlink:href="#font_2_2" transform="matrix(7.9701,0,0,-7.9701,197.6217,124.350009)"/>
<use data-text="l" xlink:href="#font_2_13" transform="matrix(7.9701,0,0,-7.9701,202.32407,124.350009)"/>
<use data-text="e" xlink:href="#font_2_6" transform="matrix(7.9701,0,0,-7.9701,204.67527,124.350009)"/>
<path transform="matrix(1,0,0,-1,167.417,64.663)" stroke-width=".99628" stroke-linecap="butt" stroke-miterlimit="10" stroke-linejoin="miter" fill="none" stroke="#b48c3c" d="M-87.87527-63.15993C-87.87527-85.83745-69.01645-48.18947-50.90372-48.18947"/>
<path transform="matrix(1,0,0,-1,113.70791,112.85247)" d="M5.95149 0 1.60866 1.6449 3.05444 0 1.60866-1.6449Z" fill="#b48c3c"/>
<path transform="matrix(1,0,0,-1,113.70791,112.85247)" stroke-width=".99628" stroke-linecap="butt" stroke-miterlimit="10" stroke-linejoin="miter" fill="none" stroke="#b48c3c" d="M5.95149 0 1.60866 1.6449 3.05444 0 1.60866-1.6449Z"/>
<path transform="matrix(1,0,0,-1,167.417,64.663)" stroke-width=".99628" stroke-linecap="butt" stroke-miterlimit="10" stroke-linejoin="miter" fill="none" stroke="#b48c3c" d="M87.87527-63.15993C87.87527-85.83745 69.01645-48.18947 50.90372-48.18947"/>
<path transform="matrix(-1,-0,0,1,221.1261,112.85247)" d="M5.95149 0 1.60866 1.6449 3.05444 0 1.60866-1.6449Z" fill="#b48c3c"/>
<path transform="matrix(-1,-0,0,1,221.1261,112.85247)" stroke-width=".99628" stroke-linecap="butt" stroke-miterlimit="10" stroke-linejoin="miter" fill="none" stroke="#b48c3c" d="M5.95149 0 1.60866 1.6449 3.05444 0 1.60866-1.6449Z"/>
</svg>
