<svg xmlns="http://www.w3.org/2000/svg" xmlns:xlink="http://www.w3.org/1999/xlink" xmlns:inkscape="http://www.inkscape.org/namespaces/inkscape" version="1.1" width="122.236" height="125.43" viewBox="0 0 122.236 125.43">
<defs>
<path id="font_1_14" d="M.36999513 .12831116C.36999513 .17330933 .34999085 .20030213 .32798768 .22329712 .2939911 .25628663 .2579956 .26327516 .18399048 .2772827 .1579895 .28227235 .084991458 .29527284 .084991458 .35224916 .084991458 .38424684 .10798645 .426239 .19898987 .426239 .30699159 .426239 .31399537 .34326173 .31599427 .31826783 .31698609 .3062744 .31698609 .3002777 .32998658 .3002777 .34399415 .3002777 .34399415 .30726625 .34399415 .32626344V.4222412C.34399415 .4392395 .34399415 .4482422 .33198548 .4482422 .32699586 .4482422 .32499696 .4482422 .31199647 .43623353 .30999757 .43423463 .30099488 .42523194 .29499818 .4202423 .2639923 .44223023 .23298645 .4482422 .19898987 .4482422 .066986087 .4482422 .033996583 .37524415 .033996583 .32426454 .033996583 .29226686 .04798889 .26628114 .070999149 .24429322 .10499573 .21330261 .14299011 .20629883 .19400025 .19729615 .24499512 .18730164 .2619934 .18431092 .28399659 .16731262 .2939911 .15931702 .31900025 .14031983 .31900025 .10229492 .31900025 .014251709 .21798706 .014251709 .20399475 .014251709 .101989749 .014251709 .07598877 .0993042 .06399536 .15332031 .06098938 .16331482 .05999756 .16931153 .04798889 .16931153 .033996583 .16931153 .033996583 .16131592 .033996583 .14331055V.01524353C.033996583-.0017547608 .033996583-.0107421879 .04598999-.0107421879 .051986696-.0107421879 .052993776-.009750366 .070999149 .009246826 .07499695 .01524353 .085998538 .028259278 .09098816 .03326416 .1329956-.007751465 .1789856-.0107421879 .20399475-.0107421879 .32699586-.0107421879 .36999513 .061279298 .36999513 .12831116Z"/>
<path id="font_1_10" d="M.48399354 .21324158C.48399354 .34423829 .37998963 .4482422 .25698854 .4482422 .12998963 .4482422 .0289917 .3412323 .0289917 .21324158 .0289917 .08824158 .1329956-.0107421879 .2559967-.0107421879 .3829956-.0107421879 .48399354 .09024048 .48399354 .21324158M.397995 .22224427C.397995 .1852417 .397995 .12724304 .37298585 .08325195 .34498597 .037246705 .29899598 .01725769 .25698854 .01725769 .20698548 .01725769 .16499329 .042251588 .14199829 .08125305 .115997318 .12324524 .114990238 .17623902 .114990238 .22224427 .114990238 .25924684 .114990238 .3162384 .13999939 .35723878 .16999817 .40823365 .21998596 .42323304 .2559967 .42323304 .31298829 .42323304 .35398866 .39123536 .37399293 .35723878 .39698792 .31523133 .397995 .26423646 .397995 .22224427Z"/>
<path id="font_1_2" d="M.4269867 .11936951C.4269867 .13139344 .41600038 .13139344 .41299439 .13139344 .4019928 .13139344 .4019928 .12937927 .3959961 .11236572 .37298585 .043289186 .31698609 .01725769 .2659912 .01725769 .20199585 .01725769 .11999512 .06932068 .11999512 .21749878 .11999512 .3735962 .19999695 .42022706 .2599945 .42022706 .272995 .42022706 .32699586 .41825868 .3639984 .39356996 .34298707 .3895874 .32299806 .3755951 .32299806 .34658814 .32299806 .32058717 .34298707 .30059815 .36898805 .30059815 .394989 .30059815 .41600038 .31759645 .41600038 .34858705 .41600038 .4103546 .34599305 .4482422 .2579956 .4482422 .12998963 .4482422 .033996583 .3415985 .033996583 .2164917 .033996583 .08734131 .13798523-.0107421879 .2559967-.0107421879 .394989-.0107421879 .4269867 .11036682 .4269867 .11936951Z"/>
<path id="font_1_18" d="M.25299073 0V.0309906C.18798828 .0309906 .18399048 .035995485 .18399048 .075042728V.4423828L.039993287 .43066407V.3996582C.10398865 .3996582 .11299133 .3936615 .11299133 .3447113V.07695007C.11299133 .0309906 .101989749 .0309906 .035995485 .0309906V0C.08099365 .0019989014 .101989749 .0029907227 .1459961 .0029907227 .1619873 .0029907227 .20399475 .0029907227 .25299073 0M.19699097 .6032257C.19699097 .6332245 .17298889 .65722659 .14299011 .65722659 .11299133 .65722659 .08898926 .6332245 .08898926 .6032257 .08898926 .57321169 .11299133 .54922488 .14299011 .54922488 .17298889 .54922488 .19699097 .57321169 .19699097 .6032257Z"/>
<path id="font_1_4" d="M.4269867 .11936951C.4269867 .12637329 .42199708 .13237 .41299439 .13237 .40299989 .13237 .3999939 .12536621 .39898683 .12136841 .36499024 .019256592 .27598573 .01725769 .26098634 .01725769 .21299744 .01725769 .17199707 .044281007 .14898682 .078323367 .115997318 .12736511 .114990238 .18743897 .114990238 .22949219H.3999939C.42199708 .22949219 .4269867 .22949219 .4269867 .25048829 .4269867 .35333253 .37098695 .4482422 .24299622 .4482422 .12298584 .4482422 .0289917 .3443451 .0289917 .22047425 .0289917 .08932495 .13398743-.0107421879 .2559967-.0107421879 .37799073-.0107421879 .4269867 .096343997 .4269867 .11936951M.35899354 .253479H.115997318C.125 .40725709 .21499634 .42323304 .24299622 .42323304 .2979889 .42323304 .35798646 .38130189 .35899354 .253479Z"/>
<path id="font_1_9" d="M.5469971 0V.0309906C.49598695 .03125 .47099305 .03125 .46998597 .0622406V.25431825C.46998597 .3373413 .46998597 .36636354 .44198609 .4013672 .4189911 .42938233 .3809967 .4423828 .33099366 .4423828 .23799134 .4423828 .19499207 .37335206 .18099976 .34535218H.17999268V.4423828L.034988405 .43066407V.3996582C.102996829 .3996582 .11199951 .39266969 .11199951 .34370423V.07695007C.11199951 .0309906 .100997928 .0309906 .034988405 .0309906V0C.08198547 .0019989014 .100997928 .0029907227 .14898682 .0029907227 .19699097 .0029907227 .20999146 .0019989014 .2630005 0V.0309906C.19699097 .0309906 .18598938 .0309906 .18598938 .07695007V.25878907C.18598938 .36532594 .26098634 .41737367 .32398988 .41737367 .3829956 .41737367 .3959961 .3683319 .3959961 .30825807V.077041629C.3959961 .0309906 .3849945 .0309906 .31900025 .0309906V0C.3659973 .0019989014 .3849945 .0029907227 .43299867 .0029907227 .48098756 .0029907227 .49398805 .0019989014 .5469971 0Z"/>
<path id="font_1_8" d="M.83299258 0V.0309906C.7819977 .03125 .7569885 .03125 .7559967 .0622406V.2539215C.7559967 .34077455 .7559967 .36872865 .72299197 .4056549 .70199587 .43037416 .6619873 .4423828 .6159973 .4423828 .5439911 .4423828 .49499513 .40037538 .46699525 .3473816 .45498658 .40637208 .4149933 .4423828 .33099366 .4423828 .25099183 .4423828 .20199585 .39038087 .18099976 .3443756H.17999268V.4423828L.034988405 .43066407V.3996582C.102996829 .3996582 .11199951 .39266969 .11199951 .34370423V.07695007C.11199951 .0309906 .100997928 .0309906 .034988405 .0309906V0C.08198547 .0019989014 .100997928 .0029907227 .14898682 .0029907227 .19699097 .0029907227 .20999146 .0019989014 .2630005 0V.0309906C.19699097 .0309906 .18598938 .0309906 .18598938 .07695007V.25878907C.18598938 .36732484 .2639923 .41737367 .32398988 .41737367 .3789978 .41737367 .39698792 .37834168 .39698792 .30825807V.077041629C.39698792 .0309906 .38598634 .0309906 .31999208 .0309906V0C.36698915 .0019989014 .38598634 .0029907227 .43399049 .0029907227 .48199464 .0029907227 .49499513 .0019989014 .5479889 0V.0309906C.48199464 .0309906 .47099305 .0309906 .47099305 .077041629V.2592163C.47099305 .36732484 .548996 .41737367 .60899356 .41737367 .6639862 .41737367 .6819916 .37834168 .6819916 .30825807V.077041629C.6819916 .0309906 .67099 .0309906 .6049957 .0309906V0C.6519928 .0019989014 .67099 .0029907227 .71899417 .0029907227 .7669983 .0029907227 .7799988 .0019989014 .83299258 0Z"/>
<path id="font_1_6" d="M.49899293 .40338136C.49899293 .42237855 .4850006 .45336915 .44499208 .45336915 .41600038 .45336915 .37098695 .4423828 .33599855 .40637208 .30899049 .42837525 .269989 .4423828 .22799683 .4423828 .1329956 .4423828 .06098938 .3743744 .06098938 .29537965 .06098938 .2443695 .09098816 .20837403 .10699463 .19337464 .10499573 .19137573 .07699585 .15637207 .07699585 .11038208 .07699585 .07637024 .09298706 .040374757 .11999512 .022369385 .068984989 .005874634 .0289917-.03111267 .0289917-.07809448 .0289917-.14907837 .12799073-.20605469 .2559967-.20605469 .3789978-.20605469 .48399354-.15307617 .48399354-.07609558 .48399354-.035110475 .46499635 .008880615 .42799378 .03288269 .37199403 .067871097 .31399537 .067871097 .21899414 .067871097 .19898987 .067871097 .16699219 .067871097 .15899658 .069885257 .12998963 .075927738 .11099243 .1031189 .11099243 .13534546 .11099243 .15142823 .115997318 .16642761 .125 .1794281 .1499939 .16343689 .18099976 .1484375 .22698975 .1484375 .32199098 .1484375 .3939972 .21643067 .3939972 .29542542 .3939972 .34443666 .3659973 .37843324 .35299684 .39242555 .3929901 .42843629 .43998719 .42843629 .45199586 .42843629 .44699098 .4254303 .43899537 .42042542 .43899537 .4024353 .43899537 .39143373 .44599916 .37243653 .46899415 .37243653 .48298646 .37243653 .49899293 .38243104 .49899293 .40342713V.40338136M.31698609 .29542542C.31698609 .27243043 .31698609 .1754303 .22698975 .1754303 .13798523 .17520142 .13798523 .27326966 .13798523 .2952881 .13798523 .3223114 .13999939 .35632325 .15699768 .38034059 .17199707 .4003601 .19898987 .41537477 .22698975 .41537477 .31698609 .41537477 .31698609 .31829835 .31698609 .2952881V.29542542M.42799378-.07698059C.42799378-.1340332 .35099793-.17906189 .25698854-.17906189 .15899658-.17912293 .084991458-.13212586 .084991458-.07711792 .084991458-.06112671 .09498596 .0048828127 .18099976 .0048828127H.272995C.30499269 .0048828127 .42799378 .0038757325 .42799378-.07711792V-.07698059Z"/>
<path id="font_1_13" d="M.37298585 .3798828C.37298585 .41236878 .34298707 .4423828 .2979889 .4423828 .23799134 .4423828 .19599915 .40037538 .17298889 .33789063H.17199707V.4423828L.02999878 .43066407V.3996582C.09799194 .3996582 .10699463 .3927307 .10699463 .34388734V.07698059C.10699463 .0309906 .09599304 .0309906 .02999878 .0309906V0C.08299255 .0019989014 .09599304 .0029907227 .14698792 .0029907227L.27398683 0V.0309906H.2539978C.18099976 .0309906 .17799378 .041992189 .17799378 .07897949V.22892761C.17799378 .26991273 .18899536 .4166565 .30299378 .4166565V.4156494C.30099488 .4146576 .2849884 .40264894 .2849884 .37887574 .2849884 .35188294 .30599977 .33488465 .32899476 .33488465 .34999085 .33488465 .37298585 .34988404 .37298585 .3798828Z"/>
<path id="font_1_3" d="M.5399933 0V.0309906C.47200013 .0309906 .46299745 .037994386 .46299745 .087020877V.69433596L.31498719 .6826172V.6516113C.3829956 .6516113 .3919983 .64463809 .3919983 .59580996V.38339234C.3869934 .38938905 .34199525 .4423828 .2639923 .4423828 .14099121 .4423828 .033996583 .3443756 .033996583 .21525574 .033996583 .09013367 .13398743-.0107421879 .25299073-.0107421879 .32598878-.0107421879 .37098695 .03224182 .3889923 .053115846V-.0107421879L.5399933 0M.3889923 .12011719C.3889923 .10211182 .3889923 .099105838 .37399293 .07810974 .34298707 .033203126 .29699708 .014251709 .25698854 .014251709 .21398926 .014251709 .17399597 .03819275 .147995 .08010864 .12199402 .12310791 .11999512 .18218994 .11999512 .21421814 .11999512 .26127626 .12599182 .31433106 .1519928 .35438539 .17399597 .38638307 .21499634 .41737367 .2679901 .41737367 .30999757 .41737367 .34999085 .39637757 .3769989 .35839845 .3889923 .3423767 .3889923 .34136964 .3889923 .32234193V.12011719Z"/>
<path id="font_1_12" d="M.7409973 .25045777C.7409973 .27246095 .7220001 .27246095 .70599368 .27246095H.42099V.55784609C.42099 .57380679 .42099 .59277346 .39898683 .59277346 .37799073 .59277346 .37799073 .57180789 .37799073 .55784609V.27246095H.09199524C.07798767 .27246095 .056991579 .27246095 .056991579 .25144959 .056991579 .22944641 .07598877 .22944641 .09199524 .22944641H.37799073V-.056777955C.37799073-.072784427 .37799073-.091796878 .3999939-.091796878 .42099-.091796878 .42099-.07078552 .42099-.056777955V.22944641H.70599368C.7200012 .22944641 .7409973 .22944641 .7409973 .25045777Z"/>
<path id="font_1_1" d="M.49699403 .089141849V.14515686H.46899415V.090148929C.46899415 .07914734 .46899415 .029129029 .43299867 .029129029 .39698792 .029129029 .39698792 .07714844 .39698792 .09315491V.26818849C.39698792 .32521058 .39698792 .3592224 .35198976 .40022279 .31498719 .43322755 .2669983 .4482422 .21699524 .4482422 .1329956 .4482422 .06298828 .40623475 .06298828 .34220887 .06298828 .311203 .083999637 .2942047 .10998535 .2942047 .13699341 .2942047 .1559906 .31420899 .1559906 .34020997 .1559906 .3832245 .11099243 .38822938 .11099243 .38822938 .13798523 .41423036 .18598938 .42323304 .21499634 .42323304 .2659912 .42323304 .32299806 .3852234 .32299806 .29719544V.26419068C.2689972 .26219178 .19400025 .2571869 .1269989 .22518921 .054992677 .19017029 .032989503 .13816834 .032989503 .09814453 .032989503 .01625061 .12998963-.0107421879 .19699097-.0107421879 .27999879-.0107421879 .31799317 .04425049 .33198548 .072250369 .33699037 .030136109 .3659973-.005859375 .40899659-.005859375 .43399049-.005859375 .49699403 .009140015 .49699403 .08912659V.089141849M.32299806 .14112854C.32299806 .04425049 .24798584 .014251709 .20399475 .014251709 .15699768 .014251709 .11299133 .04824829 .11299133 .098236087 .11299133 .16423035 .16999817 .23422241 .32299806 .24023438V.14112854Z"/>
<path id="font_1_11" d="M.5359955 .21655274C.5359955 .3425598 .43798829 .4423828 .31999208 .4423828 .2659912 .4423828 .21598816 .42037965 .17799378 .37956239V.4423828L.02999878 .43066407V.3996582C.100997928 .3996582 .10699463 .39390565 .10699463 .3515625V-.116989139C.10699463-.16308594 .09599304-.16308594 .02999878-.16308594V-.1940918C.07699585-.1920929 .09599304-.19110108 .14399719-.19110108 .19198609-.19110108 .20498657-.1920929 .2579956-.1940918V-.16308594C.19198609-.16308594 .18099976-.16308594 .18099976-.116989139V.04827881C.20698548 .022262574 .24099732-.0107421879 .30699159-.0107421879 .42599488-.0107421879 .5359955 .08531189 .5359955 .21643067V.21655274M.44999696 .21643067C.44999696 .10232544 .38198854 .014251709 .30099488 .014251709 .2559967 .014251709 .21798706 .040267946 .19400025 .075302127 .18099976 .095321658 .18099976 .09732056 .18099976 .11634827V.33654786C.21499634 .39437867 .269989 .41436769 .31199647 .41436769 .3899994 .41436769 .44999696 .32437135 .44999696 .21636963V.21643067Z"/>
<path id="font_1_7" d="M.5469971 0V.0309906C.49598695 .03125 .47099305 .03125 .46998597 .0622406V.25431825C.46998597 .3373413 .46998597 .36636354 .44198609 .4013672 .4189911 .42938233 .3809967 .4423828 .33099366 .4423828 .2639923 .4423828 .21499634 .40737916 .18399048 .35134889H.18299866V.69433596L.034988405 .6826172V.6516113C.102996829 .6516113 .11199951 .64463809 .11199951 .59580996V.077041629C.11199951 .0309906 .100997928 .0309906 .034988405 .0309906V0C.08198547 .0019989014 .100997928 .0029907227 .14898682 .0029907227 .19699097 .0029907227 .20999146 .0019989014 .2630005 0V.0309906C.19699097 .0309906 .18598938 .0309906 .18598938 .077041629V.2592163C.18598938 .36532594 .26098634 .41737367 .32398988 .41737367 .3829956 .41737367 .3959961 .3683319 .3959961 .30825807V.077041629C.3959961 .0309906 .3849945 .0309906 .31900025 .0309906V0C.3659973 .0019989014 .3849945 .0029907227 .43299867 .0029907227 .48098756 .0029907227 .49398805 .0019989014 .5469971 0Z"/>
<path id="font_2_4" d="M1.0759888 0V.04899597H.96798709V.63653567H1.0759888V.6855469H.8529968C.83200076 .6855469 .81900027 .6855469 .8069916 .6605377L.5609894 .13093567 .31599427 .6595459C.3039856 .6855469 .2899933 .6855469 .2689972 .6855469H.04499817V.63653567H.15299988V.07797241C.15299988 .055923463 .1519928 .05491638 .12399292 .05192566 .099990848 .04899597 .09799194 .04899597 .070999149 .04899597H.04499817V0C.10998535 .0029296876 .13798523 .0029296876 .18099976 .0029296876 .22499085 .0029907227 .2519989 .0029907227 .31799317 0V.04899597H.2919922C.2649994 .048919679 .2630005 .048919679 .23899842 .05192566 .21099854 .05491638 .20999146 .055923463 .20999146 .077926639V.6229248H.21099854L.48799134 .025924683C.49198915 .016998291 .5 0 .5219879 0 .54499819 0 .5519867 .015991211 .5569916 .025985718L.83999636 .6359863H.84098818V.04899597H.73298647V0C.7679901 .0029296876 .8639984 .0029296876 .9039917 .0029296876 .94400027 .0029907227 1.0410004 .0029907227 1.0759888 0Z"/>
<path id="font_2_9" d="M.6299896 0V.04899597C.56999209 .04899597 .56199648 .04899597 .56199648 .088012699V.4501953L.3769989 .4423828V.39337159C.43699647 .39337159 .44499208 .39337159 .44499208 .35437013V.16433716C.44499208 .08433533 .3929901 .03413391 .31599427 .03413391 .23899842 .03413391 .23498535 .056259157 .23498535 .10932922V.4501953L.049987794 .4423828V.39337159C.10998535 .39337159 .117996219 .39337159 .117996219 .35437013V.12333679C.117996219 .014129639 .20399475-.005859375 .30099488-.005859375 .33198548-.005859375 .3999939-.005859375 .45098878 .06933594V-.005859375L.6299896 0Z"/>
<path id="font_2_3" d="M.6049957 0V.04899597C.58898928 .04899597 .56900027 .04899597 .55799868 .049987794 .54299929 .052993776 .5389862 .057006837 .5299988 .06800842L.35398866 .2762146 .48999024 .37831117C.5029907 .38731385 .5130005 .3953247 .5779877 .3953247V.44433595C.54599 .44140626 .5169983 .44140626 .49598695 .44140626L.38398744 .44433595V.3953247C.40299989 .395401 .4059906 .39239503 .4119873 .3843994L.21998596 .23840332V.69433596L.040985109 .6855469V.63653567C.100997928 .63653567 .10899353 .63653567 .10899353 .5975647V.04899597H.040985109V0L.16099549 .0029907227C.20399475 .0029907227 .21499634 .0029907227 .28199769 0V.04899597H.21398926V.16989136L.2749939 .21485901C.27799989 .2108612 .4059906 .06298828 .4059906 .0579834 .4059906 .04899597 .3899994 .04899597 .3789978 .04899597V0L.49899293 .0029907227C.5379944 .0029907227 .5649872 .0029907227 .6049957 0Z"/>
<path id="font_2_1" d="M.56900027 .025131226C.56900027 .0491333 .5529938 .0491333 .54299929 .0491333 .47898866 .050125123 .47898866 .060134889 .47898866 .08413696V.29812623C.47898866 .38612367 .40699769 .453125 .25299073 .453125 .19599915 .453125 .067993167 .45111085 .067993167 .3591156 .067993167 .31411744 .101989749 .29312135 .1329956 .29312135 .16699219 .29312135 .19799805 .3171234 .19799805 .35812379 .19799805 .38711549 .18099976 .40411378 .17799378 .40711976 .18798828 .40911866 .21199036 .41311646 .24899292 .41311646 .32099916 .41311646 .3619995 .37712098 .3619995 .29812623V.26612855C.19599915 .26612855 .027999878 .22312927 .027999878 .11213684 .027999878 .013137817 .15299988-.005859375 .22499085-.005859375 .30099488-.005859375 .35299684 .027130127 .37998963 .0741272 .37998963 .04798889 .37998963 0 .4869995 0H.5359955C.5549927 0 .56900027 0 .56900027 .024993897V.025131226M.3619995 .13899231C.3619995 .033996583 .24598694 .033996583 .24198914 .033996583 .19099427 .033996583 .14898682 .066986087 .14898682 .11199951 .14898682 .14498902 .16699219 .22299195 .3619995 .23199463V.13899231Z"/>
<path id="font_2_7" d="M.45498658 .36618043C.45498658 .41719056 .40299989 .4501953 .34399415 .4501953 .27398683 .4501953 .23098755 .39918519 .20899964 .34118653H.20799256V.4501953L.040985109 .4423828V.39337159C.100997928 .39337159 .10899353 .39337159 .10899353 .3543396V.04899597H.040985109V0L.16899109 .0029907227C.19400025 .0029907227 .2519989 .0029907227 .30499269 0V.04899597H.21998596V.21818543C.21998596 .29125978 .24699402 .40737916 .34399415 .41036988 .33299256 .39898683 .32798768 .38198854 .32798768 .3659973 .32798768 .32199098 .36299134 .3019867 .3909912 .3019867 .4229889 .3019867 .45498658 .32398988 .45498658 .3659973V.36618043Z"/>
<path id="font_2_5" d="M.6299896-.0002746582V.048721315H.56199648V.30471803C.56199648 .4237213 .48999024 .4497223 .40299989 .4497223 .27999879 .4497223 .23098755 .35972596 .22399903 .34472657H.22299195V.4497223L.049987794 .44172669V.39271546C.10998535 .39271546 .117996219 .39271546 .117996219 .353714V.048721315H.049987794V-.0002746582L.17599488 .0027160645 .30299378-.0002746582V.048721315H.23498535V.25372315C.23498535 .36572267 .32699586 .40971376 .3869934 .40971376 .4249878 .40971376 .44499208 .38871766 .44499208 .3137207V.048721315H.3769989V-.0002746582L.5029907 .0027160645 .6299896-.0002746582Z"/>
<path id="font_2_2" d="M.5089874 .11605835C.5089874 .13604737 .4889984 .13604737 .48298646 .13604737 .46499635 .13604737 .46299745 .13005066 .45700074 .11605835 .43399049 .06410217 .37298585 .037139894 .30999757 .037139894 .16799927 .037139894 .1659851 .16601563 .1659851 .21496582H.47599793C.49699403 .21496582 .5089874 .21496582 .5089874 .2429657 .5089874 .26498414 .5069885 .35305787 .44198609 .4071045 .39698792 .4441223 .33699037 .453125 .28799439 .453125 .116989139 .453125 .032989503 .345047 .032989503 .22497559 .032989503 .09408569 .13198853-.005859375 .3019867-.005859375 .46699525-.005859375 .5089874 .1000824 .5089874 .11605835M.41099549 .25097657H.1659851C.16799927 .29701234 .17298889 .41311646 .28799439 .41311646 .40499879 .41311646 .40899659 .29100038 .41099549 .25097657Z"/>
<path id="font_2_8" d="M.3929901 .123184207V.1762085H.34199525V.12617493C.34199525 .055145265 .30599977 .037139894 .2809906 .037139894 .22299195 .037139894 .22299195 .09716797 .22299195 .1211853V.3953247H.37399293V.44433595H.22299195V.6357422H.17199707C.17098999 .5415344 .12399292 .43832398 .021987915 .43533326V.3953247H.10598755V.123184207C.10598755 .009140015 .20498657-.005859375 .2669983-.005859375 .34498597-.005859375 .3929901 .05014038 .3929901 .123184207Z"/>
<path id="font_2_10" d="M.8279877 .3953247V.44433595C.7999878 .44132997 .7749939 .44132997 .7480011 .44132997 .71598818 .44132997 .68499758 .44232179 .6529999 .44433595V.3953247C.66600039 .3953247 .68899539 .3953247 .70899966 .38632203 .70700076 .37832643 .70700076 .37731935 .70399478 .37031556L.59799197 .11618042 .48199464 .3953247H.5359955V.44433595L.42399598 .44132997C.4139862 .44132997 .36499024 .44132997 .32199098 .44433595V.3953247H.37998963C.3929901 .36631776 .3929901 .36431886 .39898683 .3493042L.31199647 .13919068 .20498657 .3953247H.25898744V.44433595L.13699341 .44132997C.11399841 .44132997 .07699585 .44132997 .025985718 .44433595V.3953247H.083999637L.23999024 .021118164C.25099183-.0048828127 .2669983-.0048828127 .2789917-.0048828127 .30599977-.0048828127 .31098939 .0061187746 .31799317 .023132325L.4269867 .28326417 .5359955 .021118164C.5469971-.0048828127 .56199648-.0048828127 .57499697-.0048828127 .58699038-.0048828127 .6029968-.0048828127 .6139984 .021118164L.7609863 .37332154C.7679901 .389328 .769989 .3953247 .8279877 .3953247Z"/>
<path id="font_2_6" d="M.55799868 .21812439C.55799868 .3491211 .46598817 .453125 .29599 .453125 .11999512 .453125 .032989503 .3441162 .032989503 .21812439 .032989503 .09413147 .12298584-.005859375 .29499818-.005859375 .47399903-.005859375 .55799868 .09913635 .55799868 .21812439M.4249878 .22912598C.4249878 .14312744 .4249878 .037139894 .29599 .037139894 .1659851 .037139894 .1659851 .14213562 .1659851 .22912598 .1659851 .3131256 .1659851 .41311646 .29499818 .41311646 .4249878 .41311646 .4249878 .3131256 .4249878 .22912598Z"/>
<path id="font_1_15" d="M.34199525 .12408447V.18099976H.31399537V.1270752C.31399537 .05319214 .2829895 .01725769 .24699402 .01725769 .17999268 .01725769 .17999268 .1051178 .17999268 .12309265V.3996582H.32499696V.43066407H.17999268V.6142578H.1519928C.15098572 .5304413 .115997318 .42765809 .018997193 .4246521V.3996582H.10598755V.12408447C.10598755 .012252808 .18699646-.0107421879 .23999024-.0107421879 .30699159-.011001587 .34199525 .052993776 .34199525 .12399292V.12408447Z"/>
<path id="font_1_5" d="M.82499697 0V.0309906C.7589874 .0309906 .7480011 .0309906 .7480011 .07695007V.44265748L.6179962 .4336548C.60198977 .43266297 .59999087 .43165589 .59999087 .43165589 .59799197 .43066407 .59599307 .43066407 .58200076 .43066407H.45999146V.5406494C.45999146 .6446533 .55400088 .68006899 .61099246 .68006899 .6339874 .68006899 .6719971 .6739807 .69699099 .6496582 .6579895 .6456604 .6519928 .61465457 .6519928 .60266116 .6519928 .57266238 .6759949 .55566409 .69898989 .55566409 .7259979 .55566409 .746994 .57466128 .746994 .60266116 .746994 .65979006 .69200137 .7050781 .6119995 .7050781 .5519867 .7050781 .49299623 .6880646 .44400025 .65065 .42399598 .68107607 .38398744 .7050781 .32499696 .7050781 .22399903 .7050781 .10699463 .6496582 .10699463 .5436554V.43066407H.027999878V.3996582H.10699463V.07695007C.10699463 .0309906 .09599304 .0309906 .02999878 .0309906V0C.07699585 .0019989014 .09599304 .0029907227 .14199829 .0029907227 .18899536 .0029907227 .20599365 .0019989014 .25498963 0V.0309906C.18899536 .0309906 .17799378 .0309906 .17799378 .07695007V.3996582H.3919983V.07695007C.3919983 .0309906 .3809967 .0309906 .31498719 .0309906V0C.3619995 .0019989014 .3809967 .0029907227 .4269867 .0029907227 .47399903 .0029907227 .4909973 .0019989014 .5399933 0V.0309906C.47399903 .0309906 .46299745 .0309906 .46299745 .07695007V.3996582H.6239929C.67099 .3996582 .6769867 .38667298 .6769867 .34570313V.07695007C.6769867 .0309906 .66600039 .0309906 .59999087 .0309906V0C.6469879 .0019989014 .66600039 .0029907227 .71199038 .0029907227 .7589874 .0029907227 .776001 .0019989014 .82499697 0M.40899659 .6496582C.3639984 .6446533 .3639984 .60665896 .3639984 .60266116 .3639984 .58665469 .37298585 .5676575 .3919983 .55966189V.43066407H.1749878V.5406494C.1749878 .6466522 .2689972 .68006899 .32398988 .68006899 .33599855 .68006899 .37799073 .6790619 .40899659 .6496582Z"/>
<path id="font_1_16" d="M.5209961 .3996582V.43066407C.4909973 .42765809 .44400025 .42765809 .44400025 .42765809 .41600038 .42765809 .3849945 .4286499 .35699464 .43066407V.3996582C.38598634 .3976593 .40299989 .38267518 .40299989 .35671998 .40299989 .34674073 .4019928 .34474183 .397995 .3337555L.2939911 .0821228 .17999268 .35472108C.1769867 .36071778 .1749878 .36669923 .1749878 .37368775 .1749878 .3996582 .21099854 .3996582 .22999573 .3996582V.43066407C.18699646 .4286499 .1639862 .42765809 .11999512 .42765809 .084991458 .42765809 .055999757 .42765809 .019989014 .43066407V.3996582C.066986087 .3996582 .085998538 .3996582 .100997928 .36271668L.24699402 .008224487C.25299073-.007751465 .26098634-.0107421879 .269989-.0107421879 .2789917-.0107421879 .2869873-.008758545 .2939911 .008224487L.42999269 .3357544C.45098878 .38667298 .48599244 .39865113 .5209961 .3996582Z"/>
<path id="font_1_17" d="M.519989 .3996582V.43066407C.48799134 .42765809 .45700074 .42765809 .44400025 .42765809 .41600038 .42765809 .3849945 .4286499 .35699464 .43066407V.3996582C.40299989 .3976593 .40299989 .36167909 .40299989 .35768128 .40299989 .3466797 .39898683 .33668519 .394989 .32868959L.2939911 .090789798 .18199158 .3526764C.17599488 .3666687 .17599488 .3736725 .17599488 .3736725 .17599488 .3996582 .20999146 .3996582 .23098755 .3996582V.43066407L.11999512 .42765809C.116989139 .42765809 .05999756 .42765809 .020996094 .43066407V.3996582C.06599426 .3996582 .084991458 .3976593 .09700012 .3706665L.25498963-.00016784668 .22999573-.059143068C.20799256-.11212158 .1789856-.18008423 .11399841-.18008423 .08898926-.18008423 .07199097-.167099 .068984989-.16508484 .07699585-.16407776 .10499573-.1560669 .10499573-.12205505 .10499573-.09605408 .085998538-.080062869 .06298828-.080062869 .037994386-.080062869 .019989014-.09605408 .019989014-.123046878 .019989014-.16807556 .06199646-.20507813 .11399841-.20507813 .1789856-.20507813 .22200012-.14706421 .24598694-.092056278L.4269867 .33068849C.43798829 .3566742 .45599366 .3976593 .519989 .3996582Z"/>
</defs>
<path transform="matrix(1,0,0,-1,61.118,23.533997)" d="M48.76483 15.16556H-48.76483C-50.96577 15.16556-52.74994 13.3814-52.74994 11.18045V-11.18045C-52.74994-13.3814-50.96577-15.16556-48.76483-15.16556H48.76483C50.96577-15.16556 52.74994-13.3814 52.74994-11.18045V11.18045C52.74994 13.3814 50.96577 15.16556 48.76483 15.16556ZM-52.74994-15.16556" fill="#ecf2f8"/>
<path transform="matrix(1,0,0,-1,61.118,23.533997)" stroke-width=".79701" stroke-linecap="butt" stroke-miterlimit="10" stroke-linejoin="miter" fill="none" stroke="#4682b4" d="M48.76483 15.16556H-48.76483C-50.96577 15.16556-52.74994 13.3814-52.74994 11.18045V-11.18045C-52.74994-13.3814-50.96577-15.16556-48.76483-15.16556H48.76483C50.96577-15.16556 52.74994-13.3814 52.74994-11.18045V11.18045C52.74994 13.3814 50.96577 15.16556 48.76483 15.16556ZM-52.74994-15.16556"/>
<use data-text="s" xlink:href="#font_1_14" transform="matrix(8.9664,0,0,-8.9664,32.677,20.019997)"/>
<use data-text="o" xlink:href="#font_1_10" transform="matrix(8.9664,0,0,-8.9664,36.30839,20.019997)"/>
<use data-text="c" xlink:href="#font_1_2" transform="matrix(8.9664,0,0,-8.9664,41.168184,20.019997)"/>
<use data-text="i" xlink:href="#font_1_18" transform="matrix(8.9664,0,0,-8.9664,45.265829,20.019997)"/>
<use data-text="o" xlink:href="#font_1_10" transform="matrix(8.9664,0,0,-8.9664,47.83022,20.019997)"/>
<use data-text="e" xlink:href="#font_1_4" transform="matrix(8.9664,0,0,-8.9664,52.698976,20.019997)"/>
<use data-text="c" xlink:href="#font_1_2" transform="matrix(8.9664,0,0,-8.9664,56.79662,20.019997)"/>
<use data-text="o" xlink:href="#font_1_10" transform="matrix(8.9664,0,0,-8.9664,60.894266,20.019997)"/>
<use data-text="n" xlink:href="#font_1_9" transform="matrix(8.9664,0,0,-8.9664,65.50299,20.019997)"/>
<use data-text="o" xlink:href="#font_1_10" transform="matrix(8.9664,0,0,-8.9664,70.6228,20.019997)"/>
<use data-text="m" xlink:href="#font_1_8" transform="matrix(8.9664,0,0,-8.9664,75.23153,20.019997)"/>
<use data-text="i" xlink:href="#font_1_18" transform="matrix(8.9664,0,0,-8.9664,82.90677,20.019997)"/>
<use data-text="c" xlink:href="#font_1_2" transform="matrix(8.9664,0,0,-8.9664,85.47116,20.019997)"/>
<use data-text="g" xlink:href="#font_1_6" transform="matrix(8.9664,0,0,-8.9664,24.480999,30.978997)"/>
<use data-text="r" xlink:href="#font_1_13" transform="matrix(8.9664,0,0,-8.9664,29.08973,30.978997)"/>
<use data-text="i" xlink:href="#font_1_18" transform="matrix(8.9664,0,0,-8.9664,32.69422,30.978997)"/>
<use data-text="d" xlink:href="#font_1_3" transform="matrix(8.9664,0,0,-8.9664,35.258615,30.978997)"/>
<use data-text="+" xlink:href="#font_1_12" transform="matrix(8.9664,0,0,-8.9664,43.453905,30.978997)"/>
<use data-text="r" xlink:href="#font_1_13" transform="matrix(8.9664,0,0,-8.9664,53.684568,30.978997)"/>
<use data-text="o" xlink:href="#font_1_10" transform="matrix(8.9664,0,0,-8.9664,57.28906,30.978997)"/>
<use data-text="a" xlink:href="#font_1_1" transform="matrix(8.9664,0,0,-8.9664,61.89779,30.978997)"/>
<use data-text="d" xlink:href="#font_1_3" transform="matrix(8.9664,0,0,-8.9664,66.506519,30.978997)"/>
<use data-text="g" xlink:href="#font_1_6" transform="matrix(8.9664,0,0,-8.9664,74.701808,30.978997)"/>
<use data-text="r" xlink:href="#font_1_13" transform="matrix(8.9664,0,0,-8.9664,79.31053,30.978997)"/>
<use data-text="a" xlink:href="#font_1_1" transform="matrix(8.9664,0,0,-8.9664,82.91502,30.978997)"/>
<use data-text="p" xlink:href="#font_1_11" transform="matrix(8.9664,0,0,-8.9664,87.52375,30.978997)"/>
<use data-text="h" xlink:href="#font_1_7" transform="matrix(8.9664,0,0,-8.9664,92.64356,30.978997)"/>
<path transform="matrix(1,0,0,-1,61.118,23.533997)" d="M47.10402-31.65303H-47.10402C-48.75473-31.65303-50.09285-32.99117-50.09285-34.64186V-54.17616C-50.09285-55.82687-48.75473-57.165-47.10402-57.165H47.10402C48.75473-57.165 50.09285-55.82687 50.09285-54.17616V-34.64186C50.09285-32.99117 48.75473-31.65303 47.10402-31.65303ZM-50.09285-57.165" fill="#e6ecf1"/>
<path transform="matrix(1,0,0,-1,61.118,23.533997)" stroke-width=".99628" stroke-linecap="butt" stroke-miterlimit="10" stroke-linejoin="miter" fill="none" stroke="#003e74" d="M47.10402-31.65303H-47.10402C-48.75473-31.65303-50.09285-32.99117-50.09285-34.64186V-54.17616C-50.09285-55.82687-48.75473-57.165-47.10402-57.165H47.10402C48.75473-57.165 50.09285-55.82687 50.09285-54.17616V-34.64186C50.09285-32.99117 48.75473-31.65303 47.10402-31.65303ZM-50.09285-57.165"/>
<use data-text="M" xlink:href="#font_2_4" transform="matrix(8.9664,0,0,-8.9664,22.606003,71.015)" fill="#003e74"/>
<use data-text="u" xlink:href="#font_2_9" transform="matrix(8.9664,0,0,-8.9664,32.6663,71.015)" fill="#003e74"/>
<use data-text="k" xlink:href="#font_2_3" transform="matrix(8.9664,0,0,-8.9664,38.557229,71.015)" fill="#003e74"/>
<use data-text="a" xlink:href="#font_2_1" transform="matrix(8.9664,0,0,-8.9664,44.16123,71.015)" fill="#003e74"/>
<use data-text="r" xlink:href="#font_2_7" transform="matrix(8.9664,0,0,-8.9664,49.31691,71.015)" fill="#003e74"/>
<use data-text="a" xlink:href="#font_2_1" transform="matrix(8.9664,0,0,-8.9664,53.692514,71.015)" fill="#003e74"/>
<use data-text="n" xlink:href="#font_2_5" transform="matrix(8.9664,0,0,-8.9664,62.380956,71.015)" fill="#003e74"/>
<use data-text="e" xlink:href="#font_2_2" transform="matrix(8.9664,0,0,-8.9664,68.27188,71.015)" fill="#003e74"/>
<use data-text="t" xlink:href="#font_2_8" transform="matrix(8.9664,0,0,-8.9664,73.14064,71.015)" fill="#003e74"/>
<use data-text="w" xlink:href="#font_2_10" transform="matrix(8.9664,0,0,-8.9664,76.96929,71.015)" fill="#003e74"/>
<use data-text="o" xlink:href="#font_2_6" transform="matrix(8.9664,0,0,-8.9664,84.34864,71.015)" fill="#003e74"/>
<use data-text="r" xlink:href="#font_2_7" transform="matrix(8.9664,0,0,-8.9664,89.656749,71.015)" fill="#003e74"/>
<use data-text="k" xlink:href="#font_2_3" transform="matrix(8.9664,0,0,-8.9664,94.03235,71.015)" fill="#003e74"/>
<path transform="matrix(1,0,0,-1,61.118,23.533997)" d="M48.76483-73.65247H-48.76483C-50.96577-73.65247-52.74994-75.43663-52.74994-77.63757V-89.54306C-52.74994-91.744-50.96577-93.52817-48.76483-93.52817H48.76483C50.96577-93.52817 52.74994-91.744 52.74994-89.54306V-77.63757C52.74994-75.43663 50.96577-73.65247 48.76483-73.65247ZM-52.74994-93.52817" fill="#ebf3f2"/>
<path transform="matrix(1,0,0,-1,61.118,23.533997)" stroke-width=".79701" stroke-linecap="butt" stroke-miterlimit="10" stroke-linejoin="miter" fill="none" stroke="#006e5a" d="M48.76483-73.65247H-48.76483C-50.96577-73.65247-52.74994-75.43663-52.74994-77.63757V-89.54306C-52.74994-91.744-50.96577-93.52817-48.76483-93.52817H48.76483C50.96577-93.52817 52.74994-91.744 52.74994-89.54306V-77.63757C52.74994-75.43663 50.96577-73.65247 48.76483-73.65247ZM-52.74994-93.52817"/>
<use data-text="t" xlink:href="#font_1_15" transform="matrix(8.9664,0,0,-8.9664,20.262001,109.34)"/>
<use data-text="r" xlink:href="#font_1_13" transform="matrix(8.9664,0,0,-8.9664,23.84856,109.34)"/>
<use data-text="a" xlink:href="#font_1_1" transform="matrix(8.9664,0,0,-8.9664,27.453053,109.34)"/>
<use data-text="f" xlink:href="#font_1_5" transform="matrix(8.9664,0,0,-8.9664,32.06178,109.34)"/>
<use data-text="c" xlink:href="#font_1_2" transform="matrix(8.9664,0,0,-8.9664,39.73702,109.34)"/>
<use data-text="o" xlink:href="#font_1_10" transform="matrix(8.9664,0,0,-8.9664,46.901174,109.34)"/>
<use data-text="n" xlink:href="#font_1_9" transform="matrix(8.9664,0,0,-8.9664,51.509904,109.34)"/>
<use data-text="e" xlink:href="#font_1_4" transform="matrix(8.9664,0,0,-8.9664,59.705194,109.34)"/>
<use data-text="v" xlink:href="#font_1_16" transform="matrix(8.9664,0,0,-8.9664,63.802839,109.34)"/>
<use data-text="e" xlink:href="#font_1_4" transform="matrix(8.9664,0,0,-8.9664,68.4026,109.34)"/>
<use data-text="r" xlink:href="#font_1_13" transform="matrix(8.9664,0,0,-8.9664,72.500247,109.34)"/>
<use data-text="y" xlink:href="#font_1_17" transform="matrix(8.9664,0,0,-8.9664,76.10474,109.34)"/>
<use data-text="e" xlink:href="#font_1_4" transform="matrix(8.9664,0,0,-8.9664,84.04,109.34)"/>
<use data-text="d" xlink:href="#font_1_3" transform="matrix(8.9664,0,0,-8.9664,88.13765,109.34)"/>
<use data-text="g" xlink:href="#font_1_6" transform="matrix(8.9664,0,0,-8.9664,93.25746,109.34)"/>
<use data-text="e" xlink:href="#font_1_4" transform="matrix(8.9664,0,0,-8.9664,97.86619,109.34)"/>
<path transform="matrix(1,0,0,-1,61.118,23.533997)" stroke-width=".99628" stroke-linecap="butt" stroke-miterlimit="10" stroke-linejoin="miter" fill="none" stroke="#003e74" d="M0-15.56407V-26.5901"/>
<path transform="matrix(0,1,1,0,61.118,47.318708)" d="M5.95149 0 1.60866 1.6449 3.05444 0 1.60866-1.6449Z" fill="#003e74"/>
<path transform="matrix(0,1,1,0,61.118,47.318708)" stroke-width=".99628" stroke-linecap="butt" stroke-miterlimit="10" stroke-linejoin="miter" fill="none" stroke="#003e74" d="M5.95149 0 1.60866 1.6449 3.05444 0 1.60866-1.6449Z"/>
<path transform="matrix(1,0,0,-1,61.118,23.533997)" stroke-width=".99628" stroke-linecap="butt" stroke-miterlimit="10" stroke-linejoin="miter" fill="none" stroke="#003e74" d="M0-57.66313V-68.68918"/>
<path transform="matrix(0,1,1,0,61.118,89.417789)" d="M5.95149 0 1.60866 1.6449 3.05444 0 1.60866-1.6449Z" fill="#003e74"/>
<path transform="matrix(0,1,1,0,61.118,89.417789)" stroke-width=".99628" stroke-linecap="butt" stroke-miterlimit="10" stroke-linejoin="miter" fill="none" stroke="#003e74" d="M5.95149 0 1.60866 1.6449 3.05444 0 1.60866-1.6449Z"/>
</svg>
