<svg xmlns="http://www.w3.org/2000/svg" xmlns:xlink="http://www.w3.org/1999/xlink" xmlns:inkscape="http://www.inkscape.org/namespaces/inkscape" version="1.1" width="198.403" height="108.208" viewBox="0 0 198.403 108.208">
<defs>
<path id="font_1_4" d="M.375 .12606812V.1809845H.34098817V.12705994C.34098817 .059173585 .30899049 .022232056 .269989 .022232056 .20098877 .022232056 .20098877 .10609436 .20098877 .124069217V.39465333H.35699464V.43066407H.20098877V.6142578H.16699219C.1659851 .5244446 .125 .42565919 .0289917 .4226532V.39465333H.12199402V.1250763C.12199402 .01322937 .20599365-.009765625 .2619934-.009765625 .32899476-.010009766 .375 .04699707 .375 .12599182V.12606812Z"/>
<path id="font_1_3" d="M.40699769 .37739564C.40699769 .4113922 .375 .44140626 .32798768 .44140626 .27799989 .44140626 .22299195 .4104004 .19299317 .33439637H.19198609V.44140626L.04899597 .43052674V.39453126C.115997318 .39453126 .12399292 .3875122 .12399292 .33843995V.079055789C.12399292 .035995485 .11399841 .035995485 .04899597 .035995485V0C.053985597 0 .12199402 .0039978029 .16299439 .0039978029L.29299928 0V.035995485H.272995C.19898987 .036071779 .19898987 .047073366 .19898987 .081085208V.22807312C.19898987 .31207276 .23799134 .41308595 .33299256 .41308595 .32398988 .40608216 .31599427 .39308167 .31599427 .3770752 .31599427 .3440857 .34199525 .3310852 .36099244 .3310852 .3849945 .3310852 .40699769 .34707643 .40699769 .3770752V.37739564Z"/>
<path id="font_1_1" d="M.46798707 .12036133C.46798707 .12435913 .46598817 .13438416 .45098878 .13438416 .43798829 .13438416 .43598939 .12837219 .43299867 .11836243 .4019928 .037246705 .32598878 .022232056 .2899933 .022232056 .24299622 .022232056 .19799805 .043258668 .16799927 .08131409 .1309967 .12837219 .12998963 .18945313 .12998963 .22851563H.43998719C.46099855 .22851563 .46798707 .22851563 .46798707 .25050355 .46798707 .33839417 .4189911 .44628907 .269989 .44628907 .13899231 .44628907 .038986207 .34239198 .038986207 .21949768 .038986207 .092315677 .1499939-.009765625 .2829895-.009765625 .41799928-.009765625 .46798707 .09832764 .46798707 .12036133M.397995 .25450135H.1309967C.14199829 .39530946 .23199463 .41827394 .269989 .41827394 .3929901 .41827394 .39698792 .27947999 .397995 .25450135Z"/>
<path id="font_1_2" d="M.47299195 0V.035995485H.43499757C.33499146 .035995485 .33499146 .048980714 .33499146 .081970218V.6357422C.33499146 .66304019 .33299256 .6640625 .30499269 .6640625 .24099732 .6007385 .1499939 .59973147 .10899353 .59973147V.5644531C.1329956 .5644531 .19898987 .5644531 .2539978 .592453V.08203125C.2539978 .04899597 .2539978 .035995485 .1539917 .035995485H.115997318V0L.2939911 .0039978029 .47299195 0Z"/>
<path id="font_1_6" d="M.5049896 .18203736H.47099305C.46798707 .16001892 .45799256 .100997928 .44499208 .09098816 .43699647 .084991458 .3600006 .084991458 .34599305 .084991458H.1619873C.2669983 .17803955 .3019867 .20603943 .3619995 .25306703 .43598939 .312088 .5049896 .374115 .5049896 .46914674 .5049896 .5900879 .39898683 .6640625 .2709961 .6640625 .14698792 .6640625 .06298828 .57710269 .06298828 .4851532 .06298828 .43414308 .10598755 .42915345 .115997318 .42915345 .13999939 .42915345 .16899109 .44615174 .16899109 .48214723 .16899109 .5001526 .1619873 .53515627 .10998535 .53515627 .14099121 .6060791 .20899964 .62805178 .2559967 .62805178 .35598756 .62805178 .4079895 .5501404 .4079895 .46914674 .4079895 .38212586 .34599305 .3130951 .31399537 .27708436L.07299805 .038986207C.06298828 .02999878 .06298828 .027999878 .06298828 0H.47499085L.5049896 .18203736Z"/>
<path id="font_1_5" d="M.5139923 .1733551C.5139923 .2513275 .44999696 .32929994 .33999635 .35229493 .44499208 .39024354 .48298646 .4650879 .48298646 .5260773 .48298646 .60505679 .3919983 .6640625 .2809906 .6640625 .16999817 .6640625 .084991458 .61006167 .084991458 .5300751 .084991458 .49606324 .10699463 .47706605 .13699341 .47706605 .16799927 .47706605 .18798828 .5000763 .18798828 .5280762 .18798828 .5570679 .16799927 .57806399 .13699341 .5800781 .17199707 .62405398 .24099732 .63505557 .27799989 .63505557 .32299806 .63505557 .38598634 .6130676 .38598634 .5260773 .38598634 .48406983 .37199403 .43814088 .34599305 .4072113 .31298829 .36927796 .2849884 .3672943 .23498535 .36428834 .20999146 .3623047 .20799256 .3623047 .20298767 .3612976 .20298767 .3612976 .19299317 .3592987 .19299317 .34829713 .19299317 .33428956 .20199585 .33428956 .21899414 .33428956H.272995C.35099793 .33428956 .40699769 .2803192 .40699769 .1733551 .40699769 .04940796 .33499146 .012466431 .2769928 .012466431 .23699951 .012466431 .14898682 .0234375 .10699463 .082351688 .1539917 .084350589 .16499329 .11735535 .16499329 .13835144 .16499329 .17034912 .14099121 .19335938 .10998535 .19335938 .08198547 .19335938 .053985597 .17634583 .053985597 .13534546 .053985597 .041412355 .1579895-.01953125 .2789917-.01953125 .41799928-.01953125 .5139923 .07336426 .5139923 .1733551Z"/>
<path id="font_2_1" d="M.22698975 .25035096C.22698975 .2853546 .19898987 .3083496 .16999817 .3083496 .1349945 .3083496 .11199951 .28034974 .11199951 .25135804 .11199951 .21635437 .13999939 .19335938 .16899109 .19335938 .20399475 .19335938 .22698975 .22135926 .22698975 .25035096Z"/>
<path id="font_3_1" d="M.56900027 .025131226C.56900027 .0491333 .5529938 .0491333 .54299929 .0491333 .47898866 .050125123 .47898866 .060134889 .47898866 .08413696V.29812623C.47898866 .38612367 .40699769 .453125 .25299073 .453125 .19599915 .453125 .067993167 .45111085 .067993167 .3591156 .067993167 .31411744 .101989749 .29312135 .1329956 .29312135 .16699219 .29312135 .19799805 .3171234 .19799805 .35812379 .19799805 .38711549 .18099976 .40411378 .17799378 .40711976 .18798828 .40911866 .21199036 .41311646 .24899292 .41311646 .32099916 .41311646 .3619995 .37712098 .3619995 .29812623V.26612855C.19599915 .26612855 .027999878 .22312927 .027999878 .11213684 .027999878 .013137817 .15299988-.005859375 .22499085-.005859375 .30099488-.005859375 .35299684 .027130127 .37998963 .0741272 .37998963 .04798889 .37998963 0 .4869995 0H.5359955C.5549927 0 .56900027 0 .56900027 .024993897V.025131226M.3619995 .13899231C.3619995 .033996583 .24598694 .033996583 .24198914 .033996583 .19099427 .033996583 .14898682 .066986087 .14898682 .11199951 .14898682 .14498902 .16699219 .22299195 .3619995 .23199463V.13899231Z"/>
<path id="font_3_11" d="M.59599307 .3953247V.44433595C.56799319 .44132997 .54299929 .44132997 .5149994 .44132997 .48599244 .44132997 .45399476 .44132997 .4249878 .44433595V.3953247C.45298768 .3953247 .46199037 .39033509 .47099305 .38632203 .46998597 .38232423 .46998597 .38032533 .46499635 .37231446L.34498597 .123184207 .21398926 .3953247H.2659912V.44433595L.14299011 .44132997C.10699463 .44132997 .08699036 .44132997 .027999878 .44433595V.3953247H.09098816L.269989 .023132325C.2789917 .004119873 .2869873-.0048828127 .31199647-.0048828127 .33699037-.0048828127 .34498597 .004119873 .35398866 .023132325L.522995 .37431336C.5299988 .38832093 .5329895 .3953247 .59599307 .3953247Z"/>
<path id="font_3_4" d="M.5089874 .11605835C.5089874 .13604737 .4889984 .13604737 .48298646 .13604737 .46499635 .13604737 .46299745 .13005066 .45700074 .11605835 .43399049 .06410217 .37298585 .037139894 .30999757 .037139894 .16799927 .037139894 .1659851 .16601563 .1659851 .21496582H.47599793C.49699403 .21496582 .5089874 .21496582 .5089874 .2429657 .5089874 .26498414 .5069885 .35305787 .44198609 .4071045 .39698792 .4441223 .33699037 .453125 .28799439 .453125 .116989139 .453125 .032989503 .345047 .032989503 .22497559 .032989503 .09408569 .13198853-.005859375 .3019867-.005859375 .46699525-.005859375 .5089874 .1000824 .5089874 .11605835M.41099549 .25097657H.1659851C.16799927 .29701234 .17298889 .41311646 .28799439 .41311646 .40499879 .41311646 .40899659 .29100038 .41099549 .25097657Z"/>
<path id="font_3_9" d="M.45498658 .36618043C.45498658 .41719056 .40299989 .4501953 .34399415 .4501953 .27398683 .4501953 .23098755 .39918519 .20899964 .34118653H.20799256V.4501953L.040985109 .4423828V.39337159C.100997928 .39337159 .10899353 .39337159 .10899353 .3543396V.04899597H.040985109V0L.16899109 .0029907227C.19400025 .0029907227 .2519989 .0029907227 .30499269 0V.04899597H.21998596V.21818543C.21998596 .29125978 .24699402 .40737916 .34399415 .41036988 .33299256 .39898683 .32798768 .38198854 .32798768 .3659973 .32798768 .32199098 .36299134 .3019867 .3909912 .3019867 .4229889 .3019867 .45498658 .32398988 .45498658 .3659973V.36618043Z"/>
<path id="font_3_5" d="M.57499697 .39517213C.57499697 .42118836 .5549927 .45619203 .5089874 .45619203 .45999146 .45619203 .41799928 .43218995 .39898683 .41818238 .35699464 .44319154 .31098939 .4501953 .2630005 .4501953 .10998535 .4501953 .057998659 .36715699 .057998659 .30212403 .057998659 .24708557 .09199524 .21107483 .10998535 .19606018 .08898926 .17304993 .07699585 .13902283 .07699585 .10900879 .07699585 .06599426 .09799194 .031967164 .11898804 .012954712 .042999269-.008056641 .032989503-.051071168 .032989503-.0730896 .032989503-.13311768 .101989749-.20114136 .29499818-.20114136 .46998597-.2010498 .55799868-.14604187 .55799868-.0700531 .55799868-.03504944 .54499819 .026947022 .47599793 .05895996 .41799928 .08496094 .36499024 .08496094 .2659912 .08496094H.21598816C.18399048 .08496094 .16999817 .08496094 .15299988 .09802246 .13798523 .111083988 .12998963 .12817383 .12998963 .14828491 .12998963 .1683197 .13798523 .17930603 .13798523 .17930603 .1749878 .16030884 .21899414 .15332031 .2630005 .15332031 .41600038 .15332031 .46798707 .23631287 .46798707 .3013153 .46798707 .34231568 .44898988 .37532044 .42799378 .39631654 .45498658 .41018678 .47499085 .41218568 .48799134 .41418458 .4869995 .41018678 .4850006 .40419007 .4850006 .39419557 .4850006 .36721803 .5059967 .3492279 .5299988 .3492279 .5519867 .3492279 .57499697 .36521913 .57499697 .39520265V.39517213M.35299684 .3022461C.35299684 .25727845 .35299684 .1933136 .2630005 .1933136 .17298889 .1933136 .17298889 .25727845 .17298889 .30125428 .17298889 .34622193 .17298889 .41018678 .2630005 .41018678 .35299684 .41018678 .35299684 .34622193 .35299684 .3022461M.46899415-.07408142C.46899415-.10610962 .43199159-.16113281 .29599-.16113281 .1639862-.16113281 .12199402-.1111145 .12199402-.07208252 .12199402-.014053345 .18598938-.014053345 .20098877-.014053345H.32199098C.35299684-.014007568 .46899415-.014007568 .46899415-.07400513V-.07408142Z"/>
<path id="font_3_8" d="M.61698916 .22218323C.61698916 .354187 .526001 .4501953 .375 .4501953 .2939911 .45033265 .23899842 .41633607 .21998596 .40234376V.4501953L.040985109 .4423828V.39337159C.06098938 .39337159 .07699585 .39337159 .08999634 .39038087 .10899353 .38737489 .10899353 .3763733 .10899353 .3553772V-.14453125H.040985109V-.19354248L.16699219-.1905365 .2939911-.19354248V-.14453125H.22599793V.03942871C.2849884-.005859375 .33999635-.005859375 .35899354-.005859375 .5159912-.005859375 .61698916 .089141849 .61698916 .22216797V.22218323M.48399354 .22315979C.48399354 .08413696 .41299439 .03413391 .34700013 .03413391 .29599 .03413391 .25299073 .06314087 .22599793 .104141239V.34518434C.24398804 .3671875 .29100038 .4071808 .35899354 .4071808 .42900086 .4071808 .48399354 .34518434 .48399354 .22315979Z"/>
<path id="font_3_3" d="M.61499026 0V.04899597C.5549927 .04899597 .5469971 .04899597 .5469971 .088012699V.69433596L.36799623 .6855469V.63653567C.42799378 .63653567 .43598939 .63653567 .43598939 .5976715V.40518189C.3919983 .43719483 .34498597 .4501953 .29699708 .4501953 .13398743 .4501953 .038986207 .35118104 .038986207 .22216797 .038986207 .089141849 .1329956-.005859375 .2849884-.005859375 .34799195-.005859375 .397995 .018127442 .42999269 .044128419V-.005859375L.61499026 0M.42999269 .10899353C.4079895 .074142459 .3600006 .03413391 .29599 .03413391 .17199707 .03413391 .17199707 .15414429 .17199707 .22015381 .17199707 .27816773 .17298889 .32118226 .19898987 .3581848 .22499085 .39819337 .272995 .41018678 .30799867 .41018678 .35798646 .41018678 .39898683 .3881836 .42999269 .34918214V.10899353Z"/>
<path id="font_3_12" d="M.2919922 0V.04899597H.23098755V.4501953L.054992677 .4423828V.39337159C.11299133 .39337159 .11999512 .39337159 .11999512 .3543396V.04899597H.051986696V0C.11898804 .0019989014 .13198853 .0029907227 .17399597 .0029907227 .22299195 .0029907227 .23599243 .0019989014 .2919922 0M.24198914 .6053314C.24198914 .65234377 .20399475 .68434146 .1639862 .68434146 .12199402 .68434146 .085998538 .6503296 .085998538 .6063385 .085998538 .55934146 .12399292 .52734377 .1639862 .52734377 .20599365 .52734377 .24198914 .56134036 .24198914 .6053314Z"/>
<path id="font_3_2" d="M.49198915 .11613464C.49198915 .13212586 .47698976 .13212586 .46598817 .13212586 .44599916 .13212586 .44599916 .13113404 .43798829 .11312866 .41799928 .06512451 .37298585 .037139894 .31399537 .037139894 .17199707 .037139894 .17199707 .18112183 .17199707 .22612 .17199707 .28611756 .17298889 .41011048 .3039856 .41011048 .31098939 .41011048 .36499024 .40911866 .36499024 .40411378L.3619995 .39912416C.35299684 .38812257 .34899903 .3721161 .34899903 .35812379 .34899903 .3171234 .37998963 .29312135 .4139862 .29312135 .44499208 .29312135 .47898866 .31411744 .47898866 .3591156 .47898866 .453125 .33898927 .453125 .2999878 .453125 .10798645 .453125 .038986207 .33111573 .038986207 .22212219 .038986207 .09613037 .1289978-.005859375 .29499818-.005859375 .33198548-.005859375 .3809967 .0001373291 .4229889 .026138306 .47999574 .06098938 .49198915 .11299133 .49198915 .115997318V.11613464Z"/>
<path id="font_3_10" d="M.3929901 .123184207V.1762085H.34199525V.12617493C.34199525 .055145265 .30599977 .037139894 .2809906 .037139894 .22299195 .037139894 .22299195 .09716797 .22299195 .1211853V.3953247H.37399293V.44433595H.22299195V.6357422H.17199707C.17098999 .5415344 .12399292 .43832398 .021987915 .43533326V.3953247H.10598755V.123184207C.10598755 .009140015 .20498657-.005859375 .2669983-.005859375 .34498597-.005859375 .3929901 .05014038 .3929901 .123184207Z"/>
<path id="font_3_7" d="M.55799868 .21812439C.55799868 .3491211 .46598817 .453125 .29599 .453125 .11999512 .453125 .032989503 .3441162 .032989503 .21812439 .032989503 .09413147 .12298584-.005859375 .29499818-.005859375 .47399903-.005859375 .55799868 .09913635 .55799868 .21812439M.4249878 .22912598C.4249878 .14312744 .4249878 .037139894 .29599 .037139894 .1659851 .037139894 .1659851 .14213562 .1659851 .22912598 .1659851 .3131256 .1659851 .41311646 .29499818 .41311646 .4249878 .41311646 .4249878 .3131256 .4249878 .22912598Z"/>
<path id="font_3_6" d="M.6299896-.0002746582V.048721315H.56199648V.30471803C.56199648 .4237213 .48999024 .4497223 .40299989 .4497223 .27999879 .4497223 .23098755 .35972596 .22399903 .34472657H.22299195V.4497223L.049987794 .44172669V.39271546C.10998535 .39271546 .117996219 .39271546 .117996219 .353714V.048721315H.049987794V-.0002746582L.17599488 .0027160645 .30299378-.0002746582V.048721315H.23498535V.25372315C.23498535 .36572267 .32699586 .40971376 .3869934 .40971376 .4249878 .40971376 .44499208 .38871766 .44499208 .3137207V.048721315H.3769989V-.0002746582L.5029907 .0027160645 .6299896-.0002746582Z"/>
</defs>
<path transform="matrix(1,0,0,-1,25.327,76.454)" d="M0 68.13554-17.00804 27.0729H17.00804Z" fill="#e9f0f6"/>
<path transform="matrix(1,0,0,-1,25.327,76.454)" stroke-width=".69739" stroke-linecap="butt" stroke-miterlimit="10" stroke-linejoin="miter" fill="none" stroke="#4682b4" d="M0 68.13554-17.00804 27.0729H17.00804Z"/>
<use data-text="t" xlink:href="#font_1_4" transform="matrix(6.9738,0,0,-6.9738,15.342999,58.504)"/>
<use data-text="r" xlink:href="#font_1_3" transform="matrix(6.9738,0,0,-6.9738,18.453316,58.504)"/>
<use data-text="e" xlink:href="#font_1_1" transform="matrix(6.9738,0,0,-6.9738,21.56363,58.504)"/>
<use data-text="e" xlink:href="#font_1_1" transform="matrix(6.9738,0,0,-6.9738,25.10632,58.504)"/>
<use data-text="1" xlink:href="#font_1_2" transform="matrix(6.9738,0,0,-6.9738,31.333924,58.504)"/>
<path transform="matrix(1,0,0,-1,25.327,76.454)" d="M43.08716 68.13554 26.0791 27.0729H60.0952Z" fill="#e9f0f6"/>
<path transform="matrix(1,0,0,-1,25.327,76.454)" stroke-width=".69739" stroke-linecap="butt" stroke-miterlimit="10" stroke-linejoin="miter" fill="none" stroke="#4682b4" d="M43.08716 68.13554 26.0791 27.0729H60.0952Z"/>
<use data-text="t" xlink:href="#font_1_4" transform="matrix(6.9738,0,0,-6.9738,58.43,58.504)"/>
<use data-text="r" xlink:href="#font_1_3" transform="matrix(6.9738,0,0,-6.9738,61.540315,58.504)"/>
<use data-text="e" xlink:href="#font_1_1" transform="matrix(6.9738,0,0,-6.9738,64.65063,58.504)"/>
<use data-text="e" xlink:href="#font_1_1" transform="matrix(6.9738,0,0,-6.9738,68.19332,58.504)"/>
<use data-text="2" xlink:href="#font_1_6" transform="matrix(6.9738,0,0,-6.9738,74.42093,58.504)"/>
<path transform="matrix(1,0,0,-1,25.327,76.454)" d="M86.17433 68.13554 69.16629 27.0729H103.18239Z" fill="#e9f0f6"/>
<path transform="matrix(1,0,0,-1,25.327,76.454)" stroke-width=".69739" stroke-linecap="butt" stroke-miterlimit="10" stroke-linejoin="miter" fill="none" stroke="#4682b4" d="M86.17433 68.13554 69.16629 27.0729H103.18239Z"/>
<use data-text="t" xlink:href="#font_1_4" transform="matrix(6.9738,0,0,-6.9738,101.517,58.504)"/>
<use data-text="r" xlink:href="#font_1_3" transform="matrix(6.9738,0,0,-6.9738,104.62731,58.504)"/>
<use data-text="e" xlink:href="#font_1_1" transform="matrix(6.9738,0,0,-6.9738,107.737628,58.504)"/>
<use data-text="e" xlink:href="#font_1_1" transform="matrix(6.9738,0,0,-6.9738,111.28032,58.504)"/>
<use data-text="3" xlink:href="#font_1_5" transform="matrix(6.9738,0,0,-6.9738,117.50793,58.504)"/>
<use data-text="&#x00b7;" xlink:href="#font_2_1" transform="matrix(6.9738,0,0,-6.9738,148.996,40.376008)"/>
<use data-text="&#x00b7;" xlink:href="#font_2_1" transform="matrix(6.9738,0,0,-6.9738,152.72002,40.376008)"/>
<use data-text="&#x00b7;" xlink:href="#font_2_1" transform="matrix(6.9738,0,0,-6.9738,156.44403,40.376008)"/>
<path transform="matrix(1,0,0,-1,25.327,76.454)" d="M83.99557-4.67303H45.2651C43.06416-4.67303 41.28-6.4572 41.28-8.65814V-18.27121C41.28-20.47215 43.06416-22.25632 45.2651-22.25632H83.99557C86.19652-22.25632 87.98068-20.47215 87.98068-18.27121V-8.65814C87.98068-6.4572 86.19652-4.67303 83.99557-4.67303ZM41.28-22.25632" fill="#f2eadc"/>
<path transform="matrix(1,0,0,-1,25.327,76.454)" stroke-width=".79701" stroke-linecap="butt" stroke-miterlimit="10" stroke-linejoin="miter" fill="none" stroke="#b48c3c" d="M83.99557-4.67303H45.2651C43.06416-4.67303 41.28-6.4572 41.28-8.65814V-18.27121C41.28-20.47215 43.06416-22.25632 45.2651-22.25632H83.99557C86.19652-22.25632 87.98068-20.47215 87.98068-18.27121V-8.65814C87.98068-6.4572 86.19652-4.67303 83.99557-4.67303ZM41.28-22.25632"/>
<use data-text="a" xlink:href="#font_3_1" transform="matrix(8.9664,0,0,-8.9664,72.584,90.989)"/>
<use data-text="v" xlink:href="#font_3_11" transform="matrix(8.9664,0,0,-8.9664,77.44379,90.989)"/>
<use data-text="e" xlink:href="#font_3_4" transform="matrix(8.9664,0,0,-8.9664,82.7519,90.989)"/>
<use data-text="r" xlink:href="#font_3_9" transform="matrix(8.9664,0,0,-8.9664,87.62066,90.989)"/>
<use data-text="a" xlink:href="#font_3_1" transform="matrix(8.9664,0,0,-8.9664,91.99626,90.989)"/>
<use data-text="g" xlink:href="#font_3_5" transform="matrix(8.9664,0,0,-8.9664,97.15194,90.989)"/>
<use data-text="e" xlink:href="#font_3_4" transform="matrix(8.9664,0,0,-8.9664,102.460048,90.989)"/>
<path transform="matrix(1,0,0,-1,25.327,76.454)" stroke-width=".99628" stroke-linecap="butt" stroke-miterlimit="10" stroke-linejoin="miter" fill="none" stroke="#b2b3b2" d="M0 26.72194V-4.27443H60.06415"/>
<path transform="matrix(1,0,0,-1,82.585758,80.72843)" d="M5.95149 0 1.60866 1.6449 3.05444 0 1.60866-1.6449Z" fill="#b2b3b2"/>
<path transform="matrix(1,0,0,-1,82.585758,80.72843)" stroke-width=".99628" stroke-linecap="butt" stroke-miterlimit="10" stroke-linejoin="miter" fill="none" stroke="#b2b3b2" d="M5.95149 0 1.60866 1.6449 3.05444 0 1.60866-1.6449Z"/>
<path transform="matrix(1,0,0,-1,25.327,76.454)" stroke-width=".99628" stroke-linecap="butt" stroke-miterlimit="10" stroke-linejoin="miter" fill="none" stroke="#b2b3b2" d="M43.08621 26.72194V-4.27443H60.06415"/>
<path transform="matrix(1,0,0,-1,82.585758,80.72843)" d="M5.95149 0 1.60866 1.6449 3.05444 0 1.60866-1.6449Z" fill="#b2b3b2"/>
<path transform="matrix(1,0,0,-1,82.585758,80.72843)" stroke-width=".99628" stroke-linecap="butt" stroke-miterlimit="10" stroke-linejoin="miter" fill="none" stroke="#b2b3b2" d="M5.95149 0 1.60866 1.6449 3.05444 0 1.60866-1.6449Z"/>
<path transform="matrix(1,0,0,-1,25.327,76.454)" stroke-width=".99628" stroke-linecap="butt" stroke-miterlimit="10" stroke-linejoin="miter" fill="none" stroke="#b2b3b2" d="M86.17247 26.72194V-4.27443H69.19373"/>
<path transform="matrix(-1,-0,0,1,97.32611,80.72843)" d="M5.95149 0 1.60866 1.6449 3.05444 0 1.60866-1.6449Z" fill="#b2b3b2"/>
<path transform="matrix(-1,-0,0,1,97.32611,80.72843)" stroke-width=".99628" stroke-linecap="butt" stroke-miterlimit="10" stroke-linejoin="miter" fill="none" stroke="#b2b3b2" d="M5.95149 0 1.60866 1.6449 3.05444 0 1.60866-1.6449Z"/>
<path transform="matrix(1,0,0,-1,25.327,76.454)" d="M160.72481-3.54295H109.76915C107.5682-3.54295 105.78404-5.32712 105.78404-7.52806V-19.40068C105.78404-21.60162 107.5682-23.38579 109.76915-23.38579H160.72481C162.92575-23.38579 164.70992-21.60162 164.70992-19.40068V-7.52806C164.70992-5.32712 162.92575-3.54295 160.72481-3.54295ZM105.78404-23.38579" fill="#ebf3f2"/>
<path transform="matrix(1,0,0,-1,25.327,76.454)" stroke-width=".79701" stroke-linecap="butt" stroke-miterlimit="10" stroke-linejoin="miter" fill="none" stroke="#006e5a" d="M160.72481-3.54295H109.76915C107.5682-3.54295 105.78404-5.32712 105.78404-7.52806V-19.40068C105.78404-21.60162 107.5682-23.38579 109.76915-23.38579H160.72481C162.92575-23.38579 164.70992-21.60162 164.70992-19.40068V-7.52806C164.70992-5.32712 162.92575-3.54295 160.72481-3.54295ZM105.78404-23.38579"/>
<use data-text="p" xlink:href="#font_3_8" transform="matrix(8.9664,0,0,-8.9664,137.087,92.11801)"/>
<use data-text="r" xlink:href="#font_3_9" transform="matrix(8.9664,0,0,-8.9664,142.97794,92.11801)"/>
<use data-text="e" xlink:href="#font_3_4" transform="matrix(8.9664,0,0,-8.9664,147.35355,92.11801)"/>
<use data-text="d" xlink:href="#font_3_3" transform="matrix(8.9664,0,0,-8.9664,152.2223,92.11801)"/>
<use data-text="i" xlink:href="#font_3_12" transform="matrix(8.9664,0,0,-8.9664,158.11324,92.11801)"/>
<use data-text="c" xlink:href="#font_3_2" transform="matrix(8.9664,0,0,-8.9664,161.06319,92.11801)"/>
<use data-text="t" xlink:href="#font_3_10" transform="matrix(8.9664,0,0,-8.9664,165.77951,92.11801)"/>
<use data-text="i" xlink:href="#font_3_12" transform="matrix(8.9664,0,0,-8.9664,169.90406,92.11801)"/>
<use data-text="o" xlink:href="#font_3_7" transform="matrix(8.9664,0,0,-8.9664,172.854,92.11801)"/>
<use data-text="n" xlink:href="#font_3_6" transform="matrix(8.9664,0,0,-8.9664,178.16211,92.11801)"/>
<path transform="matrix(1,0,0,-1,25.327,76.454)" stroke-width=".99628" stroke-linecap="butt" stroke-miterlimit="10" stroke-linejoin="miter" fill="none" stroke="#003e74" d="M88.37727-13.46437 100.81847-13.46407"/>
<path transform="matrix(1,0,0,-1,123.34007,89.918079)" d="M5.95149 0 1.60866 1.6449 3.05444 0 1.60866-1.6449Z" fill="#003e74"/>
<path transform="matrix(1,0,0,-1,123.34007,89.918079)" stroke-width=".99628" stroke-linecap="butt" stroke-miterlimit="10" stroke-linejoin="miter" fill="none" stroke="#003e74" d="M5.95149 0 1.60866 1.6449 3.05444 0 1.60866-1.6449Z"/>
</svg>
