<svg xmlns="http://www.w3.org/2000/svg" xmlns:xlink="http://www.w3.org/1999/xlink" xmlns:inkscape="http://www.inkscape.org/namespaces/inkscape" version="1.1" width="119.401" height="97.33" viewBox="0 0 119.401 97.33">
<defs>
<path id="font_1_6" d="M1.1080017 0V.051986696H1V.6335449H1.1080017V.6855469H.8799896C.8569946 .6855469 .8450012 .6845398 .83099368 .6565399L.57899478 .12992859 .32798768 .65553286C.31399537 .6855469 .2999878 .6855469 .27799989 .6855469H.049987794V.6335449H.1579895V.07896423C.1579895 .0579834 .15699768 .056991579 .1289978 .053985597 .115997318 .052993776 .08699036 .051986696 .07798767 .051986696H.049987794V0L.18899536 .0029296876 .32798768 0V.051986696H.2999878C.27398683 .05192566 .269989 .05192566 .24699402 .05491638 .22099304 .057922365 .21998596 .058929445 .21998596 .07891846V.618927H.22099304L.5019989 .029922486C.5109863 .011993408 .5209961 0 .5419922 0 .5669861 0 .57499697 .016998291 .58099368 .0289917L.86898806 .6319885H.8699951V.051986696H.7619934V0C.8029938 .0029296876 .8899994 .0029296876 .93499758 .0029296876 .9799957 .0029907227 1.0670014 .0029907227 1.1080017 0Z"/>
<path id="font_1_10" d="M.6499939 .00015258789V.05215454C.59098818 .05215454 .58399966 .05215454 .58399966 .091033939V.45117188L.3959961 .443161V.39115907C.45498658 .39115907 .46199037 .39115907 .46199037 .35214234V.1620636C.46199037 .08604431 .40899659 .03515625 .32798768 .03515625 .24699402 .03515625 .24398804 .05809021 .24398804 .10903931V.45117188L.055999757 .443161V.39115907C.114990238 .39115907 .12199402 .39115907 .12199402 .35214234V.123046878C.12199402 .011154175 .21598816-.0068359377 .31399537-.0068359377 .34700013-.0068359377 .4139862-.0068359377 .46798707 .06303406V-.0068359377L.6499939 .00015258789Z"/>
<path id="font_1_5" d="M.6259918 0V.051986696H.6069946C.56799319 .051986696 .56199648 .054992677 .5499878 .0690155L.36999513 .2742157 .5099945 .37631227C.5239868 .38632203 .5319977 .39233399 .598999 .39233399V.44433595C.56399539 .44132997 .56199648 .44132997 .5119934 .44132997 .47299195 .44132997 .45599366 .44132997 .40098573 .44433595V.39233399C.41600038 .39233399 .4189911 .389328 .4229889 .3833313L.22799683 .24032593V.69433596L.04598999 .6855469V.6335449C.10499573 .6335449 .11199951 .6335449 .11199951 .594574V.051986696H.04598999V0C.09700012 .0029907227 .12799073 .0029907227 .1659851 .0029907227 .20799256 .0029907227 .23599243 .0029907227 .2869873 0V.051986696H.22099304V.16490174L.28599549 .21287537C.3019867 .19587708 .41999818 .0639801 .41999818 .05899048 .41999818 .051986696 .40499879 .051986696 .39698792 .051986696V0C.45498658 .0029907227 .47200013 .0029907227 .5169983 .0029907227 .5309906 .0029907227 .59399417 .0029907227 .6259918 0Z"/>
<path id="font_1_1" d="M.58898928 .025985718C.58898928 .051986696 .57299807 .051986696 .5589905 .051986696 .49699403 .051986696 .49699403 .06199646 .49699403 .085006717V.29605104C.49699403 .38606263 .4249878 .45507813 .2619934 .45507813 .21299744 .45507813 .069992069 .45507813 .069992069 .35606385 .069992069 .31204225 .10398865 .28804017 .13699341 .28804017 .1769867 .28804017 .20498657 .31704713 .20498657 .35505677 .20498657 .3870697 .18399048 .4060669 .18399048 .4060669 .19198609 .4080658 .22099304 .41307069 .2599945 .41307069 .33999635 .41307069 .375 .36906434 .375 .29704286V.2680359C.22499085 .26704408 .02999878 .23402405 .02999878 .11199951 .02999878 .027160645 .12599182-.0068359377 .23498535-.0068359377 .33799745-.0068359377 .3809967 .04815674 .3939972 .06816101 .3939972 .037994386 .40499879 0 .5019989 0H.5549927C.57398989 0 .58898928 0 .58898928 .025985718M.375 .13699341C.375 .03515625 .25498963 .03515625 .25099183 .03515625 .19898987 .03515625 .1519928 .066207889 .1519928 .11427307 .1519928 .1843872 .24499512 .22746277 .375 .23046875V.13699341Z"/>
<path id="font_1_8" d="M.47099305 .36416627C.47099305 .41915895 .4149933 .45117188 .35699464 .45117188 .27198792 .45117188 .23098755 .38116456 .21598816 .34317018L.21499634 .344162V.45117188L.04598999 .44335938V.39135743C.10499573 .39135743 .11199951 .39135743 .11199951 .35231019V.051986696H.04598999V0C.10398865 .0029907227 .11399841 .0029907227 .17399597 .0029907227L.30999757 0V.051986696H.22799683V.2141571C.22799683 .2932434 .25898744 .4063568 .35499574 .40934754 .35499574 .40916444 .33898927 .39216615 .33898927 .36416627 .33898927 .3241577 .36799623 .29815675 .40499879 .29815675 .44198609 .29815675 .47099305 .3251648 .47099305 .36416627Z"/>
<path id="font_1_3" d="M.25 .3643341C.25 .4083252 .21398926 .44433595 .16999817 .44433595 .12599182 .44433595 .08999634 .4083252 .08999634 .3643341 .08999634 .32032777 .12599182 .28433229 .16999817 .28433229 .21398926 .28433229 .25 .32032777 .25 .3643341M.25 .07998657C.25 .12399292 .21398926 .1599884 .16999817 .1599884 .12599182 .1599884 .08999634 .12399292 .08999634 .07998657 .08999634 .035995485 .12599182 0 .16999817 0 .21398926 0 .25 .035995485 .25 .07998657Z"/>
<path id="font_1_2" d="M.5089874 .11520386C.5089874 .13320923 .49299623 .13320923 .48098756 .13320923 .46199037 .13320923 .45899964 .13320923 .45199586 .11520386 .42399598 .04916382 .35699464 .040161134 .32499696 .040161134 .17599488 .040161134 .17599488 .1832428 .17599488 .22625733 .17599488 .28630067 .1789856 .4080658 .31298829 .4080658 .31999208 .4080658 .37599183 .40615846 .37599183 .40234376 .37599183 .40234376 .375 .39933778 .37199403 .3963318 .3639984 .38433839 .3600006 .369339 .3600006 .35533143 .3600006 .31530763 .3909912 .28829957 .4269867 .28829957 .46499635 .28829957 .49499513 .3143158 .49499513 .3563385 .49499513 .45507813 .34999085 .45507813 .30899049 .45507813 .116989139 .45507813 .040985109 .33532716 .040985109 .22225952 .040985109 .09819031 .1309967-.0068359377 .30499269-.0068359377 .34999085-.0068359377 .3999939 .001159668 .44099427 .026153565 .49398805 .059173585 .5089874 .109191898 .5089874 .11520386Z"/>
<path id="font_1_9" d="M.40699769 .12319946V.17422486H.35099793V.12519837C.35099793 .056167604 .31298829 .040161134 .2899933 .040161134 .23199463 .040161134 .23098755 .093185428 .23098755 .12019348V.39233399H.3869934V.44433595H.23098755V.6357422H.1749878C.17399597 .53652957 .12298584 .43632508 .022994996 .43432618V.39233399H.10899353V.12319946C.10899353 .02015686 .18998719-.0068359377 .2749939-.0068359377 .35099793-.0068359377 .40699769 .044158937 .40699769 .12319946Z"/>
<path id="font_1_4" d="M.526001 .11508179C.526001 .13604737 .5049896 .13604737 .49798585 .13604737 .48098756 .13604737 .47698976 .13404846 .46899415 .11706543 .43699647 .04714966 .35198976 .040161134 .32398988 .040161134 .17599488 .040161134 .17098999 .15603638 .16899109 .2119751H.49198915C.5130005 .2119751 .526001 .2119751 .526001 .2409668 .526001 .28399659 .5159912 .35003663 .46598817 .3990631 .4099884 .45507813 .31999208 .45507813 .29699708 .45507813 .11898804 .45507813 .033996583 .34402467 .033996583 .2259674 .033996583 .09609985 .13398743-.0068359377 .31199647-.0068359377 .48799134-.0068359377 .526001 .10108948 .526001 .11508179M.42799378 .25097657H.16899109C.16999817 .29100038 .17399597 .41307069 .2979889 .41307069 .42199708 .41307069 .4269867 .2899933 .42799378 .25097657Z"/>
<path id="font_1_7" d="M.25 .07998657C.25 .12399292 .21398926 .1599884 .16999817 .1599884 .12599182 .1599884 .08999634 .12399292 .08999634 .07998657 .08999634 .035995485 .12599182 0 .16999817 0 .21398926 0 .25 .035995485 .25 .07998657Z"/>
<path id="font_2_1" d="M.46798707 .5699158C.46798707 .6999817 .2919922 .6999817 .2559967 .6999817 .12599182 .6999817 .06199646 .63793948 .06199646 .57092288 .06199646 .5299225 .09199524 .5109253 .12098694 .5109253 .15299988 .5109253 .17999268 .53292849 .17999268 .5699158 .17999268 .5869293 .17298889 .6199188 .1309967 .6279297 .17199707 .664978 .22898865 .6669922 .25099183 .6669922 .34498597 .6669922 .34799195 .6269226 .34799195 .57691958 .34799195 .5219269 .33599855 .5089264 .31799317 .4919281 .22799683 .39898683 .22799683 .29699708 .22799683 .25898744V.22698975C.22999573 .21679688 .24099732 .21679688 .24899292 .21679688 .269989 .21699524 .269989 .22200012 .269989 .24299622V.2689972C.269989 .35699464 .32699586 .42099 .4019928 .46598817 .4229889 .47898866 .46798707 .5059967 .46798707 .56999209V.5699158M.32099916 .07199097C.32099916 .11199951 .2889862 .14399719 .24899292 .14399719 .20899964 .14399719 .1769867 .11199951 .1769867 .07199097 .1769867 .03199768 .20899964 0 .24899292 0 .2889862 0 .32099916 .03199768 .32099916 .07199097Z"/>
<path id="font_3_6" d="M.25698854 .067993167C.25698854 .09298706 .23899842 .114990238 .20899964 .114990238 .17298889 .114990238 .13899231 .08198547 .13899231 .04699707 .13899231 .021987915 .15699768 0 .18699646 0 .22399903 0 .25698854 .034988405 .25698854 .067993167Z"/>
<path id="font_3_1" d="M.5209961 .27833558C.5209961 .37838746 .45799256 .44140626 .3789978 .44140626 .32499696 .44140626 .2829895 .4084015 .2599945 .39038087L.32899476 .66529849C.32998658 .6693115 .33198548 .67630007 .33198548 .68029788 .33198548 .6953125 .31599427 .6943054 .30499269 .69329836L.19699097 .6843109C.18399048 .68330386 .17098999 .682312 .17098999 .66130068 .17098999 .64730837 .18399048 .64730837 .19699097 .64730837 .24499512 .64730837 .24499512 .64030459 .24499512 .63131716 .24499512 .62532046 .24499512 .62332156 .24099732 .60931399L.14399719 .22331238C.1349945 .18730164 .1349945 .16429138 .1349945 .1512909 .1349945 .04524231 .19999695-.009765625 .27198792-.009765625 .394989-.009765625 .5209961 .13327027 .5209961 .27833558M.44499208 .3193512C.44499208 .2733307 .4169922 .1612854 .3919983 .11427307 .35499574 .04423523 .30499269 .018234253 .272995 .018234253 .23098755 .018234253 .20098877 .054244996 .20098877 .119277957 .20098877 .17228699 .23799134 .3063507 .24398804 .31636048 .27398683 .36437989 .32699586 .4133911 .3769989 .4133911 .42399598 .4133911 .44499208 .36738587 .44499208 .3193512Z"/>
<path id="font_3_9" d="M.651001 .14328003C.651001 .15628052 .6380005 .15628052 .6299896 .15628052 .6119995 .15628052 .61099246 .15428162 .6049957 .12927246 .59098818 .07725525 .57398989 .018234253 .5369873 .018234253 .5089874 .018234253 .5049896 .048233034 .5049896 .06524658 .5049896 .08226013 .5049896 .08425903 .5109863 .10726929L.58099368 .38938905C.58299258 .39839173 .58399966 .4013977 .58399966 .4013977 .58399966 .4163971 .57299807 .43139649 .5519867 .43139649 .519989 .43139649 .5099945 .40238954 .5069885 .38838197L.44198609 .12626648C.43499757 .09725952 .3880005 .018234253 .31799317 .018234253 .27198792 .018234253 .2519989 .052246095 .2519989 .09925842 .2519989 .15628052 .28399659 .23931885 .31098939 .3083496 .31799317 .32736207 .32199098 .33836366 .32199098 .3573761 .32199098 .4073944 .28199769 .44140626 .23298645 .44140626 .13398743 .44140626 .08799744 .3053589 .08799744 .28834535 .08799744 .27534486 .100997928 .27534486 .10899353 .27534486 .12098694 .27534486 .1269989 .27534486 .12998963 .28834535 .16099549 .39738465 .20599365 .4133911 .22999573 .4133911 .24699402 .4133911 .25498963 .40238954 .25498963 .38038636 .25498963 .3573761 .24798584 .34136964 .22999573 .29335023 .19400025 .19923401 .18199158 .15322876 .18199158 .114227298 .18199158 .014221191 .2579956-.009765625 .31399537-.009765625 .37599183-.009765625 .41099549 .024230957 .43998719 .053222658 .45599366 .0042266848 .5039978-.009765625 .5339966-.009765625 .5649872-.009765625 .59098818 .0052337648 .61299136 .041229249 .6369934 .08023071 .651001 .14022827 .651001 .14323426V.14328003Z"/>
<path id="font_3_8" d="M.4149933 .14404297C.4149933 .15602112 .4019928 .15602112 .394989 .15602112 .3789978 .15602112 .37799073 .15402222 .37199403 .14004517 .32499696 .034194948 .272995 .018234253 .24598694 .018234253 .21199036 .018234253 .21199036 .05517578 .21199036 .06515503 .21199036 .0821228 .21699524 .10310364 .21798706 .10609436L.2899933 .39465333H.3889923C.40699769 .39465333 .4189911 .39465333 .4189911 .4166565 .4189911 .43066407 .40699769 .43066407 .3909912 .43066407H.29899598L.33499146 .5749054C.33898927 .5889282 .33898927 .5909271 .33898927 .5949402 .33898927 .6129761 .32499696 .625 .30699159 .625 .272995 .625 .2649994 .5919342 .2630005 .58291628L.22499085 .43066407H.12599182C.10798645 .43066407 .09599304 .43066407 .09599304 .4086609 .09599304 .39465333 .10798645 .39465333 .12399292 .39465333H.21598816L.14698792 .11807251C.14199829 .098098758 .14199829 .09111023 .14199829 .084121707 .14199829 .022216797 .19099427-.009765625 .24299622-.009765625 .35099793-.009765625 .4149933 .12806702 .4149933 .14404297Z"/>
<path id="font_3_7" d="M.45399476 .15612793C.45399476 .18611145 .44099427 .21409607 .4169922 .2350769 .3880005 .25906373 .36299134 .2640686 .30899049 .2740631 .2789917 .28004457 .23498535 .28804017 .23498535 .32904054 .23498535 .3470459 .2519989 .4133911 .34700013 .4133911 .36999513 .4133911 .41299439 .4083557 .42900086 .3720398 .42399598 .3700409 .397995 .35603334 .397995 .33003236 .397995 .31703187 .40499879 .30003358 .42999269 .30003358 .44198609 .30003358 .47399903 .30604554 .47399903 .35403443 .47399903 .418396 .4059906 .44140626 .34799195 .44140626 .20498657 .44140626 .17199707 .33303834 .17199707 .29403688 .17199707 .21308899 .25099183 .19810486 .28799439 .19111634 .33499146 .18211365 .3909912 .17211914 .3909912 .121154788 .3909912 .094177249 .3659973 .018234253 .24598694 .018234253 .21499634 .018234253 .15699768 .024215699 .13598633 .06719971 .17098999 .076187137 .1769867 .105163577 .1769867 .11616516 .1769867 .1351471 .16299439 .1491394 .14199829 .1491394 .114990238 .1491394 .08999634 .12915039 .08999634 .08717346 .08999634 .02722168 .1519928-.009765625 .24398804-.009765625 .4149933-.009765625 .45399476 .11116028 .45399476 .15612793Z"/>
<path id="font_3_10" d="M.38598634 .14328003C.38598634 .15628052 .37298585 .15628052 .36499024 .15628052 .34700013 .15628052 .34599305 .1532898 .34098817 .13528443 .32798768 .087249759 .29499818 .018234253 .24398804 .018234253 .21998596 .018234253 .21998596 .042236329 .21998596 .052246095 .21998596 .07624817 .23699951 .119277957 .25 .1512909L.31599427 .32435609C.32199098 .34136964 .32199098 .3443756 .32199098 .3573761 .32199098 .40238954 .2869873 .44140626 .23199463 .44140626 .13398743 .44140626 .08799744 .3063507 .08799744 .28834535 .08799744 .27534486 .100997928 .27534486 .10899353 .27534486 .12098694 .27534486 .1269989 .27534486 .12998963 .28834535 .16299439 .40438844 .21099854 .4133911 .22898865 .4133911 .24099732 .4133911 .2539978 .4104004 .2539978 .37937928 .2539978 .3573761 .24598694 .33737184 .23799134 .31636048L.21099854 .24732971 .17599488 .15428162C.1659851 .12828064 .1519928 .09225464 .1519928 .07424927 .1519928 .02822876 .18798828-.009765625 .24099732-.009765625 .34098817-.009765625 .38598634 .12727356 .38598634 .14328003M.3919983 .6092377C.3919983 .63723757 .37098695 .65625 .34399415 .65625 .30599977 .65625 .27398683 .62124636 .27398683 .5882416 .27398683 .5632477 .29299928 .5412445 .32199098 .5412445 .35798646 .5412445 .3919983 .57424929 .3919983 .6092377Z"/>
<path id="font_3_3" d="M.32798768 .14324951C.32798768 .15625 .31498719 .15625 .30699159 .15625 .2889862 .15625 .28799439 .15324402 .28399659 .13624573 .269989 .083236698 .25299073 .018234253 .21499634 .018234253 .18699646 .018234253 .18299866 .048233034 .18299866 .06523132 .18299866 .082229617 .18798828 .10324097 .18899536 .10623169L.32899476 .66529849C.32998658 .6693115 .33198548 .67630007 .33198548 .68029788 .33198548 .6953125 .31599427 .6943054 .30499269 .69329836L.19699097 .6843109C.18399048 .68330386 .17098999 .682312 .17098999 .66130068 .17098999 .64730837 .18399048 .64730837 .19699097 .64730837 .24499512 .64730837 .24499512 .64030459 .24499512 .6313019 .24499512 .6242981 .24299622 .6163025 .24099732 .6092987L.117996219 .11824036C.11299133 .098236087 .11299133 .0912323 .11299133 .084228519 .11299133 .018234253 .16799927-.009765625 .21199036-.009765625 .23498535-.009765625 .2659912-.0017700195 .29299928 .04423523 .31498719 .083236698 .32798768 .13923645 .32798768 .14324951Z"/>
<path id="font_3_2" d="M.54100039 .097335819C.54100039 .10534668 .5269928 .12136841 .5179901 .12136841 .5130005 .12136841 .5099945 .11836243 .5029907 .11035156 .44198609 .037246705 .35499574 .018234253 .30499269 .018234253 .23999024 .018234253 .21199036 .07330322 .21199036 .13638306 .21199036 .16741944 .21798706 .19847107 .22499085 .22851563H.2869873C.32998658 .22851563 .5269928 .22851563 .5269928 .35343934 .5269928 .40740968 .47599793 .44140626 .4059906 .44140626 .2939911 .44140626 .1349945 .35144044 .1349945 .1754303 .1349945 .07029724 .19699097-.009765625 .30499269-.009765625 .46398927-.009765625 .54100039 .08432007 .54100039 .097335819M.47898866 .3544464C.47898866 .2565155 .31900025 .2565155 .27999879 .2565155H.23298645C.27799989 .4113922 .3939972 .4133911 .4059906 .4133911 .44799806 .4133911 .47898866 .39041139 .47898866 .3544464Z"/>
<path id="font_3_4" d="M.6799927 .14328003C.6799927 .15628052 .6669922 .15628052 .6589966 .15628052 .6409912 .15628052 .6399994 .1532898 .6349945 .13528443 .6179962 .07325745 .58200076 .018234253 .5379944 .018234253 .5239868 .018234253 .5130005 .025222779 .5130005 .052246095 .5130005 .07424927 .5219879 .0962677 .5299988 .119277957 .5479889 .16629029 .58999636 .27534486 .58999636 .33036805 .58999636 .4084015 .5359955 .44140626 .46699525 .44140626 .3880005 .44140626 .33399964 .39439393 .3039856 .35636903 .29699708 .41740418 .24499512 .44140626 .20498657 .44140626 .1619873 .44140626 .13999939 .4133911 .125 .38838197 .10398865 .3553772 .08799744 .29434205 .08799744 .28834535 .08799744 .27534486 .100997928 .27534486 .10899353 .27534486 .1269989 .27534486 .12799073 .27633668 .1349945 .3043518 .1519928 .37338258 .17098999 .4133911 .20199585 .4133911 .23298645 .4133911 .23298645 .37738038 .23298645 .3653717 .23298645 .3463745 .21998596 .29534913 .21199036 .2603302L.18399048 .15228272C.18099976 .13728333 .17098999 .09925842 .16699219 .08425903 .1619873 .0622406 .15299988 .027236939 .15299988 .020233155 .15299988-.0017700195 .16899109-.009765625 .18399048-.009765625 .21798706-.009765625 .22499085 .020233155 .22898865 .035232545L.2519989 .12426758C.25498963 .13928223 .2649994 .17729187 .2679901 .19230652 .2709961 .20230103 .28399659 .2523346 .2849884 .25933839 .2869873 .26533509 .31698609 .33135987 .35798646 .36938478 .3880005 .39639283 .4229889 .4133911 .46299745 .4133911 .5089874 .4133911 .519989 .37838746 .519989 .34536744 .519989 .28634645 .47299195 .1652832 .45599366 .119277957 .44599916 .09425354 .44599916 .087249759 .44599916 .07424927 .44599916 .020233155 .4889984-.009765625 .5349884-.009765625 .6349945-.009765625 .6799927 .12727356 .6799927 .14328003Z"/>
<path id="font_3_5" d="M.57899478 .2693329C.57899478 .36637879 .5109863 .44140626 .4079895 .44140626 .2649994 .44140626 .12998963 .3023529 .12998963 .16229248 .12998963 .0602417 .20199585-.009765625 .30099488-.009765625 .44400025-.009765625 .57899478 .13027954 .57899478 .2693329M.5 .30334474C.5 .2693329 .4850006 .17329407 .44198609 .105270389 .41099549 .057250978 .35499574 .018234253 .3019867 .018234253 .27398683 .018234253 .20899964 .032226564 .20899964 .12828064 .20899964 .17228699 .22898865 .27734376 .2769928 .33937074 .31199647 .38638307 .36299134 .4133911 .40699769 .4133911 .44198609 .4133911 .5 .39239503 .5 .30334474Z"/>
<path id="font_4_2" d="M.7839966 .39465333V.43066407C.7569885 .42765809 .7409973 .426651 .71199038 .426651 .6819916 .426651 .6439972 .42765809 .6139984 .43066407V.39465333C.6489868 .3936615 .66600039 .37471009 .66600039 .350708 .66600039 .3427124 .66600039 .3407135 .6599884 .32670594L.5629883 .07771301 .45498658 .350708C.45298768 .3559723 .44999696 .36398316 .44999696 .36997987 .44999696 .39169313 .47599793 .39465333 .5039978 .39465333V.43066407C.46798707 .42765809 .43199159 .426651 .3959961 .426651 .36698915 .426651 .33699037 .4286499 .30799867 .43066407V.39465333C.33099366 .39471437 .35198976 .39471437 .36499024 .38671876 .3789978 .37670899 .3880005 .3427124 .3880005 .3427124 .3880005 .3427124 .38598634 .3347168 .38398744 .33070375L.2899933 .0927124 .18899536 .350708C.18299866 .36497499 .18299866 .36598207 .18299866 .36997987 .18299866 .39465333 .21899414 .39465333 .23699951 .39465333V.43066407C.23699951 .43066407 .1639862 .426651 .12399292 .426651 .09298706 .426651 .06098938 .42765809 .02999878 .43066407V.39465333C.068984989 .39465333 .09098816 .39465333 .101989749 .36598207L.24099732 .013214111C.24699402-.0017852783 .25-.009765625 .2679901-.009765625 .28599549-.009765625 .2889862-.0017852783 .2939911 .01121521L.40699769 .29699708 .5179901 .014205933C.5239868-.00077819827 .5279999-.009765625 .54599-.009765625 .56399539-.009765625 .5669861-.0027770997 .57299807 .013214111L.69999697 .33398438C.7200012 .38380433 .7529907 .39367677 .7839966 .39465333Z"/>
<path id="font_4_1" d="M.58999636 0V.035995485C.5249939 .035995485 .5149994 .035995485 .5149994 .0790863V.3035736C.5149994 .39045716 .47200013 .44140626 .36499024 .44140626 .27598573 .44140626 .22698975 .3884735 .20498657 .35058595H.20399475V.69433596L.053985597 .6826172V.64660647C.12098694 .64660647 .1289978 .6396179 .1289978 .59065249V.07896423C.1289978 .035995485 .11898804 .035995485 .053985597 .035995485V0C.053985597 0 .12599182 .0039978029 .16799927 .0039978029 .20498657 .0039978029 .27398683 .0009918213 .2829895 0V.035995485C.21798706 .035995485 .20799256 .035995485 .20799256 .07904053V.25923158C.20799256 .36434938 .29100038 .4133911 .35699464 .4133911 .4269867 .4133911 .43598939 .3583374 .43598939 .3072815V.07904053C.43598939 .035995485 .42599488 .035995485 .36099244 .035995485V0C.36099244 0 .43299867 .0039978029 .47499085 .0039978029 .5119934 .0039978029 .58099368 .0009918213 .58999636 0Z"/>
<path id="font_4_3" d="M.56799319 .39465333V.43066407C.5399933 .4286499 .5209961 .426651 .49198915 .426651 .46499635 .426651 .42799378 .42765809 .40098573 .43066407V.39465333C.43399049 .39265443 .44198609 .3726654 .44198609 .3566742 .44198609 .3446808 .43699647 .33569337 .43299867 .32569886L.32199098 .08883667 .19898987 .3526764C.19599915 .3586731 .19299317 .3646698 .19299317 .37167359 .19299317 .39465333 .22698975 .39465333 .24398804 .39465333V.43066407L.1289978 .426651C.09899902 .426651 .05999756 .42765809 .0309906 .43066407V.39465333C.08699036 .39465333 .09799194 .3916626 .11299133 .35968019L.2809906-.00012207031C.27198792-.020111084 .2619934-.039093019 .25299073-.05908203 .23098755-.10707092 .19898987-.17610169 .1309967-.17610169 .10598755-.17610169 .09799194-.1710968 .08799744-.1640625 .08799744-.16397095 .116989139-.15396118 .116989139-.12097168 .116989139-.096069339 .09899902-.078063968 .07398987-.078063968 .04798889-.078063968 .02999878-.096069339 .02999878-.12207031 .02999878-.16908264 .07699585-.20410156 .1309967-.20410156 .21598816-.20396424 .2649994-.114974979 .2789917-.08496094L.47299195 .33270265C.5009918 .3936615 .5519867 .39465333 .56799319 .39465333Z"/>
</defs>
<path transform="matrix(1,0,0,-1,59.7,48.513)" d="M47.34741 34.0161H-47.34741C-49.54836 34.0161-51.33252 32.23193-51.33252 30.03099V-30.03099C-51.33252-32.23193-49.54836-34.0161-47.34741-34.0161H47.34741C49.54836-34.0161 51.33252-32.23193 51.33252-30.03099V30.03099C51.33252 32.23193 49.54836 34.0161 47.34741 34.0161ZM-51.33252-34.0161" fill="#ecf2f8"/>
<path transform="matrix(1,0,0,-1,59.7,48.513)" stroke-width=".79701" stroke-linecap="butt" stroke-miterlimit="10" stroke-linejoin="miter" fill="none" stroke="#4682b4" d="M47.34741 34.0161H-47.34741C-49.54836 34.0161-51.33252 32.23193-51.33252 30.03099V-30.03099C-51.33252-32.23193-49.54836-34.0161-47.34741-34.0161H47.34741C49.54836-34.0161 51.33252-32.23193 51.33252-30.03099V30.03099C51.33252 32.23193 49.54836 34.0161 47.34741 34.0161ZM-51.33252-34.0161"/>
<use data-text="M" xlink:href="#font_1_6" transform="matrix(7.9701,0,0,-7.9701,15.045002,16.906998)"/>
<use data-text="u" xlink:href="#font_1_10" transform="matrix(7.9701,0,0,-7.9701,24.282347,16.906998)"/>
<use data-text="k" xlink:href="#font_1_5" transform="matrix(7.9701,0,0,-7.9701,29.709986,16.906998)"/>
<use data-text="a" xlink:href="#font_1_1" transform="matrix(7.9701,0,0,-7.9701,34.86664,16.906998)"/>
<use data-text="r" xlink:href="#font_1_8" transform="matrix(7.9701,0,0,-7.9701,39.61682,16.906998)"/>
<use data-text="a" xlink:href="#font_1_1" transform="matrix(7.9701,0,0,-7.9701,43.64969,16.906998)"/>
<use data-text=":" xlink:href="#font_1_3" transform="matrix(7.9701,0,0,-7.9701,48.39987,16.906998)"/>
<use data-text="a" xlink:href="#font_1_1" transform="matrix(7.9701,0,0,-7.9701,55.445444,16.906998)"/>
<use data-text="c" xlink:href="#font_1_2" transform="matrix(7.9701,0,0,-7.9701,60.195619,16.906998)"/>
<use data-text="c" xlink:href="#font_1_2" transform="matrix(7.9701,0,0,-7.9701,64.53135,16.906998)"/>
<use data-text="u" xlink:href="#font_1_10" transform="matrix(7.9701,0,0,-7.9701,68.87505,16.906998)"/>
<use data-text="r" xlink:href="#font_1_8" transform="matrix(7.9701,0,0,-7.9701,74.294719,16.906998)"/>
<use data-text="a" xlink:href="#font_1_1" transform="matrix(7.9701,0,0,-7.9701,78.32758,16.906998)"/>
<use data-text="t" xlink:href="#font_1_9" transform="matrix(7.9701,0,0,-7.9701,83.07777,16.906998)"/>
<use data-text="e" xlink:href="#font_1_4" transform="matrix(7.9701,0,0,-7.9701,86.87154,16.906998)"/>
<use data-text="." xlink:href="#font_1_7" transform="matrix(7.9701,0,0,-7.9701,91.342769,16.906998)"/>
<use data-text="." xlink:href="#font_1_7" transform="matrix(7.9701,0,0,-7.9701,95.68647,16.906998)"/>
<use data-text="." xlink:href="#font_1_7" transform="matrix(7.9701,0,0,-7.9701,100.0222,16.906998)"/>
<use data-text="?" xlink:href="#font_2_1" transform="matrix(14.3462,0,0,-14.3462,55.89,53.561)" fill="#4682b4"/>
<use data-text="." xlink:href="#font_3_6" transform="matrix(6.9738,0,0,-6.9738,22.798,84.683)" fill="#555555"/>
<use data-text="." xlink:href="#font_3_6" transform="matrix(6.9738,0,0,-6.9738,26.591748,84.683)" fill="#555555"/>
<use data-text="." xlink:href="#font_3_6" transform="matrix(6.9738,0,0,-6.9738,30.385495,84.683)" fill="#555555"/>
<use data-text="b" xlink:href="#font_3_1" transform="matrix(6.9738,0,0,-6.9738,34.17924,84.683)" fill="#555555"/>
<use data-text="u" xlink:href="#font_3_9" transform="matrix(6.9738,0,0,-6.9738,37.97299,84.683)" fill="#555555"/>
<use data-text="t" xlink:href="#font_3_8" transform="matrix(6.9738,0,0,-6.9738,42.387407,84.683)" fill="#555555"/>
<use data-text="s" xlink:href="#font_3_7" transform="matrix(6.9738,0,0,-6.9738,48.140794,84.683)" fill="#555555"/>
<use data-text="i" xlink:href="#font_3_10" transform="matrix(6.9738,0,0,-6.9738,51.53006,84.683)" fill="#555555"/>
<use data-text="l" xlink:href="#font_3_3" transform="matrix(6.9738,0,0,-6.9738,54.09642,84.683)" fill="#555555"/>
<use data-text="e" xlink:href="#font_3_2" transform="matrix(6.9738,0,0,-6.9738,56.258298,84.683)" fill="#555555"/>
<use data-text="n" xlink:href="#font_3_4" transform="matrix(6.9738,0,0,-6.9738,60.059019,84.683)" fill="#555555"/>
<use data-text="t" xlink:href="#font_3_8" transform="matrix(6.9738,0,0,-6.9738,64.675678,84.683)" fill="#555555"/>
<use data-text="o" xlink:href="#font_3_5" transform="matrix(6.9738,0,0,-6.9738,70.42906,84.683)" fill="#555555"/>
<use data-text="n" xlink:href="#font_3_4" transform="matrix(6.9738,0,0,-6.9738,74.63426,84.683)" fill="#555555"/>
<use data-text="w" xlink:href="#font_4_2" transform="matrix(6.9738,0,0,-6.9738,82.54255,84.683)" fill="#555555"/>
<use data-text="h" xlink:href="#font_4_1" transform="matrix(6.9738,0,0,-6.9738,88.23317,84.683)" fill="#555555"/>
<use data-text="y" xlink:href="#font_4_3" transform="matrix(6.9738,0,0,-6.9738,92.41745,84.683)" fill="#555555"/>
</svg>
