<svg xmlns="http://www.w3.org/2000/svg" xmlns:xlink="http://www.w3.org/1999/xlink" xmlns:inkscape="http://www.inkscape.org/namespaces/inkscape" version="1.1" width="371.477" height="79.177" viewBox="0 0 371.477 79.177">
<defs>
<path id="font_1_14" d="M.5089874 0V.04899597H.3639984V.62309268C.3639984 .6451874 .3639984 .65625 .33499146 .65625 .32299806 .65625 .32099916 .65625 .31199647 .6492157 .23498535 .5919647 .12799073 .5919647 .10798645 .5919647H.08799744V.54296877H.10798645C.13198853 .54296877 .18598938 .5459595 .24198914 .56295779V.04899597H.09899902V0C.13699341 .0029907227 .2579956 .0029907227 .30299378 .0029907227 .34999085 .0029907227 .46798707 .0029907227 .5089874 0Z"/>
<path id="font_1_16" d="M.24299622 .07798767C.24299622 .12399292 .20599365 .15699768 .16499329 .15699768 .11898804 .15699768 .085998538 .11999512 .085998538 .07899475 .085998538 .032989503 .12298584 0 .1639862 0 .20999146 0 .24299622 .036987306 .24299622 .07798767Z"/>
<path id="font_1_19" d="M.7789917 .4308777 .7569885 .6738281H.06498718L.042999269 .4308777H.09399414C.10398865 .5418396 .11299133 .6248169 .2599945 .6248169H.33898927V.04899597H.18598938V0C.22999573 .0029907227 .3600006 .0029907227 .4119873 .0029907227 .46398927 .0029907227 .59298709 .0029907227 .6369934 0V.04899597H.48399354V.6248169H.5629883C.70999148 .6248169 .71798709 .5398407 .7279968 .4308777H.7789917Z"/>
<path id="font_1_17" d="M.45498658 .36618043C.45498658 .41719056 .40299989 .4501953 .34399415 .4501953 .27398683 .4501953 .23098755 .39918519 .20899964 .34118653H.20799256V.4501953L.040985109 .4423828V.39337159C.100997928 .39337159 .10899353 .39337159 .10899353 .3543396V.04899597H.040985109V0L.16899109 .0029907227C.19400025 .0029907227 .2519989 .0029907227 .30499269 0V.04899597H.21998596V.21818543C.21998596 .29125978 .24699402 .40737916 .34399415 .41036988 .33299256 .39898683 .32798768 .38198854 .32798768 .3659973 .32798768 .32199098 .36299134 .3019867 .3909912 .3019867 .4229889 .3019867 .45498658 .32398988 .45498658 .3659973V.36618043Z"/>
<path id="font_1_24" d="M.2919922 0V.04899597H.23098755V.4501953L.054992677 .4423828V.39337159C.11299133 .39337159 .11999512 .39337159 .11999512 .3543396V.04899597H.051986696V0C.11898804 .0019989014 .13198853 .0029907227 .17399597 .0029907227 .22299195 .0029907227 .23599243 .0019989014 .2919922 0M.24198914 .6053314C.24198914 .65234377 .20399475 .68434146 .1639862 .68434146 .12199402 .68434146 .085998538 .6503296 .085998538 .6063385 .085998538 .55934146 .12399292 .52734377 .1639862 .52734377 .20599365 .52734377 .24198914 .56134036 .24198914 .6053314Z"/>
<path id="font_1_15" d="M.61698916 .22218323C.61698916 .354187 .526001 .4501953 .375 .4501953 .2939911 .45033265 .23899842 .41633607 .21998596 .40234376V.4501953L.040985109 .4423828V.39337159C.06098938 .39337159 .07699585 .39337159 .08999634 .39038087 .10899353 .38737489 .10899353 .3763733 .10899353 .3553772V-.14453125H.040985109V-.19354248L.16699219-.1905365 .2939911-.19354248V-.14453125H.22599793V.03942871C.2849884-.005859375 .33999635-.005859375 .35899354-.005859375 .5159912-.005859375 .61698916 .089141849 .61698916 .22216797V.22218323M.48399354 .22315979C.48399354 .08413696 .41299439 .03413391 .34700013 .03413391 .29599 .03413391 .25299073 .06314087 .22599793 .104141239V.34518434C.24398804 .3671875 .29100038 .4071808 .35899354 .4071808 .42900086 .4071808 .48399354 .34518434 .48399354 .22315979Z"/>
<path id="font_1_8" d="M.57499697 .39517213C.57499697 .42118836 .5549927 .45619203 .5089874 .45619203 .45999146 .45619203 .41799928 .43218995 .39898683 .41818238 .35699464 .44319154 .31098939 .4501953 .2630005 .4501953 .10998535 .4501953 .057998659 .36715699 .057998659 .30212403 .057998659 .24708557 .09199524 .21107483 .10998535 .19606018 .08898926 .17304993 .07699585 .13902283 .07699585 .10900879 .07699585 .06599426 .09799194 .031967164 .11898804 .012954712 .042999269-.008056641 .032989503-.051071168 .032989503-.0730896 .032989503-.13311768 .101989749-.20114136 .29499818-.20114136 .46998597-.2010498 .55799868-.14604187 .55799868-.0700531 .55799868-.03504944 .54499819 .026947022 .47599793 .05895996 .41799928 .08496094 .36499024 .08496094 .2659912 .08496094H.21598816C.18399048 .08496094 .16999817 .08496094 .15299988 .09802246 .13798523 .111083988 .12998963 .12817383 .12998963 .14828491 .12998963 .1683197 .13798523 .17930603 .13798523 .17930603 .1749878 .16030884 .21899414 .15332031 .2630005 .15332031 .41600038 .15332031 .46798707 .23631287 .46798707 .3013153 .46798707 .34231568 .44898988 .37532044 .42799378 .39631654 .45498658 .41018678 .47499085 .41218568 .48799134 .41418458 .4869995 .41018678 .4850006 .40419007 .4850006 .39419557 .4850006 .36721803 .5059967 .3492279 .5299988 .3492279 .5519867 .3492279 .57499697 .36521913 .57499697 .39520265V.39517213M.35299684 .3022461C.35299684 .25727845 .35299684 .1933136 .2630005 .1933136 .17298889 .1933136 .17298889 .25727845 .17298889 .30125428 .17298889 .34622193 .17298889 .41018678 .2630005 .41018678 .35299684 .41018678 .35299684 .34622193 .35299684 .3022461M.46899415-.07408142C.46899415-.10610962 .43199159-.16113281 .29599-.16113281 .1639862-.16113281 .12199402-.1111145 .12199402-.07208252 .12199402-.014053345 .18598938-.014053345 .20098877-.014053345H.32199098C.35299684-.014007568 .46899415-.014007568 .46899415-.07400513V-.07408142Z"/>
<path id="font_1_5" d="M.5089874 .11605835C.5089874 .13604737 .4889984 .13604737 .48298646 .13604737 .46499635 .13604737 .46299745 .13005066 .45700074 .11605835 .43399049 .06410217 .37298585 .037139894 .30999757 .037139894 .16799927 .037139894 .1659851 .16601563 .1659851 .21496582H.47599793C.49699403 .21496582 .5089874 .21496582 .5089874 .2429657 .5089874 .26498414 .5069885 .35305787 .44198609 .4071045 .39698792 .4441223 .33699037 .453125 .28799439 .453125 .116989139 .453125 .032989503 .345047 .032989503 .22497559 .032989503 .09408569 .13198853-.005859375 .3019867-.005859375 .46699525-.005859375 .5089874 .1000824 .5089874 .11605835M.41099549 .25097657H.1659851C.16799927 .29701234 .17298889 .41311646 .28799439 .41311646 .40499879 .41311646 .40899659 .29100038 .41099549 .25097657Z"/>
<path id="font_1_12" d="M.6299896-.0002746582V.048721315H.56199648V.30471803C.56199648 .4237213 .48999024 .4497223 .40299989 .4497223 .27999879 .4497223 .23098755 .35972596 .22399903 .34472657H.22299195V.4497223L.049987794 .44172669V.39271546C.10998535 .39271546 .117996219 .39271546 .117996219 .353714V.048721315H.049987794V-.0002746582L.17599488 .0027160645 .30299378-.0002746582V.048721315H.23498535V.25372315C.23498535 .36572267 .32699586 .40971376 .3869934 .40971376 .4249878 .40971376 .44499208 .38871766 .44499208 .3137207V.048721315H.3769989V-.0002746582L.5029907 .0027160645 .6299896-.0002746582Z"/>
<path id="font_1_1" d="M.56900027 .025131226C.56900027 .0491333 .5529938 .0491333 .54299929 .0491333 .47898866 .050125123 .47898866 .060134889 .47898866 .08413696V.29812623C.47898866 .38612367 .40699769 .453125 .25299073 .453125 .19599915 .453125 .067993167 .45111085 .067993167 .3591156 .067993167 .31411744 .101989749 .29312135 .1329956 .29312135 .16699219 .29312135 .19799805 .3171234 .19799805 .35812379 .19799805 .38711549 .18099976 .40411378 .17799378 .40711976 .18798828 .40911866 .21199036 .41311646 .24899292 .41311646 .32099916 .41311646 .3619995 .37712098 .3619995 .29812623V.26612855C.19599915 .26612855 .027999878 .22312927 .027999878 .11213684 .027999878 .013137817 .15299988-.005859375 .22499085-.005859375 .30099488-.005859375 .35299684 .027130127 .37998963 .0741272 .37998963 .04798889 .37998963 0 .4869995 0H.5359955C.5549927 0 .56900027 0 .56900027 .024993897V.025131226M.3619995 .13899231C.3619995 .033996583 .24598694 .033996583 .24198914 .033996583 .19099427 .033996583 .14898682 .066986087 .14898682 .11199951 .14898682 .14498902 .16699219 .22299195 .3619995 .23199463V.13899231Z"/>
<path id="font_1_20" d="M.3929901 .123184207V.1762085H.34199525V.12617493C.34199525 .055145265 .30599977 .037139894 .2809906 .037139894 .22299195 .037139894 .22299195 .09716797 .22299195 .1211853V.3953247H.37399293V.44433595H.22299195V.6357422H.17199707C.17098999 .5415344 .12399292 .43832398 .021987915 .43533326V.3953247H.10598755V.123184207C.10598755 .009140015 .20498657-.005859375 .2669983-.005859375 .34498597-.005859375 .3929901 .05014038 .3929901 .123184207Z"/>
<path id="font_1_13" d="M.55799868 .21812439C.55799868 .3491211 .46598817 .453125 .29599 .453125 .11999512 .453125 .032989503 .3441162 .032989503 .21812439 .032989503 .09413147 .12298584-.005859375 .29499818-.005859375 .47399903-.005859375 .55799868 .09913635 .55799868 .21812439M.4249878 .22912598C.4249878 .14312744 .4249878 .037139894 .29599 .037139894 .1659851 .037139894 .1659851 .14213562 .1659851 .22912598 .1659851 .3131256 .1659851 .41311646 .29499818 .41311646 .4249878 .41311646 .4249878 .3131256 .4249878 .22912598Z"/>
<path id="font_1_22" d="M.5319977 .22503662H.48098756C.47898866 .21102906 .46998597 .13999939 .45498658 .1329956 .44198609 .12799073 .36799623 .12799073 .35099793 .12799073H.20799256C.26098634 .17102051 .32099916 .21803284 .37098695 .25305177 .45498658 .312088 .5319977 .36611939 .5319977 .46417237 .5319977 .58122256 .4249878 .65625 .27999879 .65625 .1559906 .65625 .05899048 .597229 .05899048 .505188 .05899048 .45318605 .09899902 .42918397 .13398743 .42918397 .1659851 .42918397 .20799256 .4521942 .20799256 .5041809 .20799256 .5261841 .19898987 .56318667 .15499878 .5751953 .18998719 .60324099 .23498535 .60723879 .25498963 .60723879 .33699037 .60723879 .3889923 .54618838 .3889923 .46318055 .3889923 .39115907 .34599305 .32511903 .29299928 .27108766L.069992069 .050994874C.05899048 .039993287 .05899048 .038986207 .05899048 .018997193V0H.5009918L.5319977 .22503662Z"/>
<path id="font_1_4" d="M.61499026 0V.04899597C.5549927 .04899597 .5469971 .04899597 .5469971 .088012699V.69433596L.36799623 .6855469V.63653567C.42799378 .63653567 .43598939 .63653567 .43598939 .5976715V.40518189C.3919983 .43719483 .34498597 .4501953 .29699708 .4501953 .13398743 .4501953 .038986207 .35118104 .038986207 .22216797 .038986207 .089141849 .1329956-.005859375 .2849884-.005859375 .34799195-.005859375 .397995 .018127442 .42999269 .044128419V-.005859375L.61499026 0M.42999269 .10899353C.4079895 .074142459 .3600006 .03413391 .29599 .03413391 .17199707 .03413391 .17199707 .15414429 .17199707 .22015381 .17199707 .27816773 .17298889 .32118226 .19898987 .3581848 .22499085 .39819337 .272995 .41018678 .30799867 .41018678 .35798646 .41018678 .39898683 .3881836 .42999269 .34918214V.10899353Z"/>
<path id="font_1_18" d="M.4269867 .14027405C.4269867 .19128418 .397995 .22328186 .37998963 .23828125 .33499146 .27627564 .30299378 .28128053 .22399903 .294281 .17599488 .3022766 .11299133 .31228639 .11299133 .35728456 .11299133 .41711427 .20599365 .41711427 .22799683 .41711427 .33999635 .41711427 .34399415 .35827638 .34599305 .33128358 .34700013 .3173828 .36099244 .3173828 .37098695 .3173828 .3959961 .3173828 .39698792 .32237245 .39698792 .3463745V.42411805C.39698792 .4421234 .39698792 .453125 .3769989 .453125 .36698915 .453125 .35099793 .44511415 .33299256 .43511964 .30099488 .44911195 .2619934 .453125 .22898865 .453125 .19799805 .4532776 .038986207 .4532776 .038986207 .32128907 .038986207 .2162323 .16999817 .19421387 .20498657 .18821717 .2869873 .1742096 .35299684 .16320801 .35299684 .106170658 .35299684 .03413391 .25898744 .03413391 .23699951 .03413391 .18598938 .03413391 .12098694 .0471344 .09199524 .13919068 .08699036 .15620423 .085998538 .15919495 .06498718 .15919495 .038986207 .15919495 .038986207 .15319824 .038986207 .12918091V.023132325C.038986207 .005126953 .038986207-.005859375 .05899048-.005859375 .06599426-.005859375 .067993167-.005859375 .08999634 .008132935L.116989139 .025131226C.1639862-.005859375 .21699524-.005859375 .23699951-.005859375 .2669983-.005859375 .4269867-.005859375 .4269867 .1401825V.14027405Z"/>
<path id="font_1_2" d="M.61698916 .22207642C.61698916 .35716249 .519989 .4501953 .37199403 .4501953 .2919922 .4501953 .23899842 .41618348 .21998596 .4021759V.69433596L.040985109 .6863251V.6373291C.100997928 .6373291 .10899353 .6373291 .10899353 .5982971V0H.1599884L.20698548 .056991579C.23899842 .025131226 .28799439-.005859375 .35899354-.005859375 .5149994-.005859375 .61698916 .088134769 .61698916 .22216797V.22207642M.48399354 .22416687C.48399354 .18215943 .48399354 .13014221 .46299745 .09414673 .42999269 .038131715 .36898805 .03413391 .34899903 .03413391 .2869873 .03413391 .24699402 .072143558 .22599793 .104141239V.34617616C.25099183 .3781891 .29899598 .41018678 .3600006 .41018678 .48399354 .41018678 .48399354 .2901764 .48399354 .22416687Z"/>
<path id="font_1_23" d="M.6299896 0V.04899597C.56999209 .04899597 .56199648 .04899597 .56199648 .088012699V.4501953L.3769989 .4423828V.39337159C.43699647 .39337159 .44499208 .39337159 .44499208 .35437013V.16433716C.44499208 .08433533 .3929901 .03413391 .31599427 .03413391 .23899842 .03413391 .23498535 .056259157 .23498535 .10932922V.4501953L.049987794 .4423828V.39337159C.10998535 .39337159 .117996219 .39337159 .117996219 .35437013V.12333679C.117996219 .014129639 .20399475-.005859375 .30099488-.005859375 .33198548-.005859375 .3999939-.005859375 .45098878 .06933594V-.005859375L.6299896 0Z"/>
<path id="font_1_21" d="M.5419922 .18023682C.5419922 .25924684 .48199464 .32824708 .36898805 .35224916 .46998597 .38723756 .5089874 .4562378 .5089874 .51724246 .5089874 .5922394 .43399049 .65625 .2849884 .65625 .1619873 .65625 .08198547 .59013369 .08198547 .50909426 .08198547 .46409608 .11399841 .4360962 .1539917 .4360962 .19699097 .4360962 .22599793 .4670868 .22599793 .50808718 .22599793 .5410919 .20698548 .5700989 .16699219 .57910159 .1749878 .5861206 .21598816 .61624148 .27999879 .61624148 .36698915 .61624148 .36698915 .5510864 .36698915 .51908877 .36698915 .463089 .34599305 .3761139 .2599945 .37112428L.21299744 .36816407C.19699097 .3661499 .19699097 .35516358 .19699097 .3481598 .19699097 .32815553 .20799256 .32815553 .22599793 .32815553H.272995C.3849945 .32815553 .3849945 .23019409 .3849945 .18022156 .3849945 .13523865 .3849945 .03327942 .27799989 .03327942 .2659912 .03327942 .19699097 .03527832 .15098572 .06825256 .19699097 .08125305 .20698548 .12023926 .20698548 .14323426 .20698548 .19036865 .17399597 .22238159 .12799073 .22238159 .084991458 .22238159 .04899597 .19337464 .04899597 .14237976 .04899597 .048324586 .14898682-.01171875 .2829895-.01171875 .46598817-.01171875 .5419922 .088378909 .5419922 .18037415V.18023682Z"/>
<path id="font_1_10" d="M1.0759888 0V.04899597H.96798709V.63653567H1.0759888V.6855469H.8529968C.83200076 .6855469 .81900027 .6855469 .8069916 .6605377L.5609894 .13093567 .31599427 .6595459C.3039856 .6855469 .2899933 .6855469 .2689972 .6855469H.04499817V.63653567H.15299988V.07797241C.15299988 .055923463 .1519928 .05491638 .12399292 .05192566 .099990848 .04899597 .09799194 .04899597 .070999149 .04899597H.04499817V0C.10998535 .0029296876 .13798523 .0029296876 .18099976 .0029296876 .22499085 .0029907227 .2519989 .0029907227 .31799317 0V.04899597H.2919922C.2649994 .048919679 .2630005 .048919679 .23899842 .05192566 .21099854 .05491638 .20999146 .055923463 .20999146 .077926639V.6229248H.21099854L.48799134 .025924683C.49198915 .016998291 .5 0 .5219879 0 .54499819 0 .5519867 .015991211 .5569916 .025985718L.83999636 .6359863H.84098818V.04899597H.73298647V0C.7679901 .0029296876 .8639984 .0029296876 .9039917 .0029296876 .94400027 .0029907227 1.0410004 .0029907227 1.0759888 0Z"/>
<path id="font_1_9" d="M.29899598 0V.04899597H.23098755V.69433596L.051986696 .6855469V.63653567C.11199951 .63653567 .11999512 .63653567 .11999512 .5975647V.04899597H.051986696V0L.1749878 .0029907227 .29899598 0Z"/>
<path id="font_1_7" d="M.55799868 0V.04899597H.45799256V.15509033H.55799868V.20410156H.45799256V.6241913C.45799256 .65319827 .45498658 .6582031 .4249878 .6582031 .40098573 .6582031 .39898683 .65618899 .3889923 .6431885L.032989503 .20410156V.15509033H.32998658V.04899597H.21499634V0C.25 .0029907227 .34999085 .0029907227 .3909912 .0029907227 .43199159 .0029907227 .5209961 .0029907227 .55799868 0M.34199525 .20410156H.08999634L.34199525 .51516726V.20410156Z"/>
<path id="font_1_6" d="M.94400027 0V.04899597H.8759918V.45436097L.69699099 .44934083V.44433595H.5419922V.54052737C.5419922 .6285248 .62098696 .66018679 .70599368 .66018679 .71899417 .66018679 .746994 .66018679 .7769928 .64453127 .7589874 .6365204 .7369995 .6175232 .7369995 .5815277 .7369995 .54252627 .7649994 .51452639 .80400088 .51452639 .84098818 .5141144 .87098696 .5400238 .87098696 .58203127 .87098696 .63513186 .82598879 .7001953 .71398928 .7001953 .59298709 .7001953 .5359955 .6701813 .5069885 .6551819 .46199037 .7001953 .40499879 .7001953 .38198854 .7001953 .2599945 .7001953 .10899353 .66319277 .10899353 .5420227V.44433595H.03199768V.3953247H.10899353V.04899597H.040985109V0L.1639862 .0029907227 .28799439 0V.04899597H.21998596V.3953247H.43699647V.04899597H.36898805V0L.49198915 .0029907227 .6159973 0V.04899597H.5479889V.3953247H.7369995C.7599945 .3953247 .7649994 .3953247 .7649994 .36029054V.04899597H.69699099V0L.81999209 .0029907227 .94400027 0M.44400025 .6441498C.42900086 .6381378 .40299989 .621109 .40299989 .58102419 .40299989 .5510254 .4169922 .53305056 .43699647 .52207949V.44433595H.21398926V.5400238C.21398926 .6291199 .29299928 .66018679 .37399293 .66018679 .38598634 .66052249 .4149933 .66052249 .44400025 .64453127V.6441498Z"/>
<path id="font_1_3" d="M.49198915 .11613464C.49198915 .13212586 .47698976 .13212586 .46598817 .13212586 .44599916 .13212586 .44599916 .13113404 .43798829 .11312866 .41799928 .06512451 .37298585 .037139894 .31399537 .037139894 .17199707 .037139894 .17199707 .18112183 .17199707 .22612 .17199707 .28611756 .17298889 .41011048 .3039856 .41011048 .31098939 .41011048 .36499024 .40911866 .36499024 .40411378L.3619995 .39912416C.35299684 .38812257 .34899903 .3721161 .34899903 .35812379 .34899903 .3171234 .37998963 .29312135 .4139862 .29312135 .44499208 .29312135 .47898866 .31411744 .47898866 .3591156 .47898866 .453125 .33898927 .453125 .2999878 .453125 .10798645 .453125 .038986207 .33111573 .038986207 .22212219 .038986207 .09613037 .1289978-.005859375 .29499818-.005859375 .33198548-.005859375 .3809967 .0001373291 .4229889 .026138306 .47999574 .06098938 .49198915 .11299133 .49198915 .115997318V.11613464Z"/>
<path id="font_1_11" d="M.95899966-.0002746582V.048721315H.8909912V.30471803C.8909912 .42271424 .81999209 .4497223 .7319946 .4497223 .6279907 .4497223 .57699587 .38671876 .55799868 .3557129 .5359955 .4457245 .44799806 .4497223 .4039917 .4497223 .27999879 .4497223 .23098755 .35972596 .22399903 .34472657H.22299195V.4497223L.049987794 .44172669V.39271546C.10998535 .39271546 .117996219 .39271546 .117996219 .353714V.048721315H.049987794V-.0002746582L.17599488 .0027160645 .30299378-.0002746582V.048721315H.23498535V.25372315C.23498535 .36471559 .32699586 .40971376 .3869934 .40971376 .4249878 .40971376 .44599916 .38972474 .44599916 .3137207V.048721315H.37799073V-.0002746582L.5039978 .0027160645 .6309967-.0002746582V.048721315H.5629883V.25372315C.5629883 .36471559 .6549988 .40971376 .71499636 .40971376 .7529907 .40971376 .7739868 .38972474 .7739868 .3137207V.048721315H.70599368V-.0002746582L.83200076 .0027160645 .95899966-.0002746582Z"/>
<path id="font_2_8" d="M.62098696 .14328003C.62098696 .15628052 .60798647 .15628052 .59999087 .15628052 .58200076 .15628052 .58099368 .1532898 .57598879 .13528443 .5589905 .07325745 .522995 .018234253 .47898866 .018234253 .46499635 .018234253 .45399476 .025222779 .45399476 .052246095 .45399476 .07424927 .46299745 .0962677 .47099305 .119277957 .4889984 .16629029 .5309906 .27534486 .5309906 .33036805 .5309906 .4133911 .47099305 .44140626 .4079895 .44140626 .31698609 .44140626 .2619934 .37538148 .2539978 .36637879L.32899476 .66529849C.32998658 .6693115 .33198548 .67630007 .33198548 .68029788 .33198548 .6953125 .31599427 .6943054 .30499269 .69329836L.19699097 .6843109C.18399048 .68330386 .17098999 .682312 .17098999 .66130068 .17098999 .64730837 .18399048 .64730837 .19699097 .64730837 .24499512 .64730837 .24499512 .64030459 .24499512 .63131716 .24499512 .62731936 .24198914 .613327 .24099732 .60832217L.09899902 .041229249C.09498596 .027236939 .09498596 .025222779 .09498596 .020233155 .09498596 .0012207031 .10899353-.009765625 .1269989-.009765625 .1599884-.009765625 .16799927 .021224976 .16999817 .030227662L.19198609 .120269779 .22599793 .2543335C.22898865 .264328 .25498963 .32835389 .30299378 .37338258 .32998658 .39738465 .36698915 .4133911 .40499879 .4133911 .44898988 .4133911 .46099855 .37838746 .46099855 .34536744 .46099855 .28634645 .4139862 .16429138 .39698792 .119277957 .3869934 .09425354 .3869934 .087249759 .3869934 .07424927 .3869934 .020233155 .42999269-.009765625 .47599793-.009765625 .57598879-.009765625 .62098696 .12727356 .62098696 .14328003Z"/>
<path id="font_2_13" d="M.57899478 .2693329C.57899478 .36637879 .5109863 .44140626 .4079895 .44140626 .2649994 .44140626 .12998963 .3023529 .12998963 .16229248 .12998963 .0602417 .20199585-.009765625 .30099488-.009765625 .44400025-.009765625 .57899478 .13027954 .57899478 .2693329M.5 .30334474C.5 .2693329 .4850006 .17329407 .44198609 .105270389 .41099549 .057250978 .35499574 .018234253 .3019867 .018234253 .27398683 .018234253 .20899964 .032226564 .20899964 .12828064 .20899964 .17228699 .22898865 .27734376 .2769928 .33937074 .31199647 .38638307 .36299134 .4133911 .40699769 .4133911 .44198609 .4133911 .5 .39239503 .5 .30334474Z"/>
<path id="font_2_21" d="M.79299929 .36437989C.79299929 .4393921 .7529907 .44239808 .74598696 .44239808 .7200012 .44239808 .69400027 .4163971 .69400027 .39138795 .69400027 .37738038 .70199587 .3703766 .70700076 .36437989 .72698977 .3443756 .73599246 .31835938 .73599246 .28933717 .73599246 .2513275 .70700076 .15628052 .68899539 .11427307 .6609955 .050247194 .625 .018234253 .57899478 .018234253 .548996 .018234253 .5019989 .030227662 .5019989 .104263309 .5019989 .13027954 .5069885 .1512909 .5189972 .20030213 .5479889 .3123474 .5479889 .31436158 .5499878 .32336427 .5569916 .34936524 .56900027 .39738465 .56900027 .4013977 .56900027 .4163971 .55799868 .43139649 .5369873 .43139649 .5049896 .43139649 .49598695 .40238954 .49198915 .38838197L.43899537 .17329407C.43299867 .14727783 .43199159 .13227844 .43199159 .121276859 .43099977 .09925842 .4119873 .06724548 .39898683 .051239015 .37399293 .018234253 .34799195 .018234253 .33799745 .018234253 .27799989 .018234253 .2539978 .056243898 .2539978 .10826111 .2539978 .15829468 .2769928 .22232056 .31199647 .3123474 .31799317 .32736207 .32199098 .33836366 .32199098 .3573761 .32199098 .4073944 .28199769 .44140626 .23298645 .44140626 .13398743 .44140626 .08799744 .3053589 .08799744 .28834535 .08799744 .27534486 .100997928 .27534486 .10899353 .27534486 .12098694 .27534486 .1269989 .27534486 .12998963 .28834535 .16099549 .39738465 .20599365 .4133911 .22999573 .4133911 .24699402 .4133911 .25498963 .40238954 .25498963 .38038636 .25498963 .3573761 .24798584 .34136964 .22999573 .29335023 .19499207 .2013092 .18299866 .15628052 .18299866 .121276859 .18299866 .017227173 .2669983-.009765625 .33599855-.009765625 .35598756-.009765625 .4039917-.008773804 .44499208 .054244996 .47698976-.003768921 .5439911-.009765625 .57598879-.009765625 .6499939-.009765625 .69599917 .04524231 .7279968 .11227417 .7589874 .17829895 .79299929 .3083496 .79299929 .36437989Z"/>
<path id="font_2_11" d="M.973999 .14328003C.973999 .15628052 .96099856 .15628052 .9529877 .15628052 .93499758 .15628052 .9339905 .1532898 .92900088 .13528443 .9119873 .07325745 .8759918 .018234253 .83200076 .018234253 .81799319 .018234253 .8069916 .025222779 .8069916 .052246095 .8069916 .07424927 .81599429 .0962677 .82398989 .119277957 .84199526 .16629029 .8839874 .27534486 .8839874 .33036805 .8839874 .4084015 .8299866 .44140626 .7609863 .44140626 .6839905 .44140626 .6309967 .39839173 .58999636 .34536744 .58099368 .42840577 .5130005 .44140626 .46699525 .44140626 .37799073 .44140626 .32699586 .38137818 .3039856 .3553772 .2979889 .418396 .24398804 .44140626 .20498657 .44140626 .1619873 .44140626 .13999939 .4133911 .125 .38838197 .10398865 .3553772 .08799744 .29434205 .08799744 .28834535 .08799744 .27534486 .100997928 .27534486 .10899353 .27534486 .1269989 .27534486 .12799073 .27633668 .1349945 .3043518 .1519928 .37338258 .17098999 .4133911 .20199585 .4133911 .23298645 .4133911 .23298645 .37738038 .23298645 .3653717 .23298645 .3463745 .21998596 .29534913 .21199036 .2603302L.18399048 .15228272C.18099976 .13728333 .17098999 .09925842 .16699219 .08425903 .1619873 .0622406 .15299988 .027236939 .15299988 .020233155 .15299988-.0017700195 .16899109-.009765625 .18399048-.009765625 .21798706-.009765625 .22499085 .020233155 .22898865 .035232545L.2519989 .12426758 .2849884 .25933839C.2849884 .25933839 .31799317 .33636476 .36299134 .3743744 .3769989 .38539125 .41099549 .4133911 .46398927 .4133911 .5109863 .4133911 .5209961 .37638856 .5209961 .3443756 .5209961 .32136537 .5139923 .29434205 .5079956 .26834107L.48399354 .17228699 .46299745 .088256839C.45700074 .06625366 .44699098 .026229859 .44699098 .020233155 .44699098-.0017700195 .46299745-.009765625 .47799684-.009765625 .5119934-.009765625 .5189972 .020233155 .522995 .035232545L.54599 .12426758C.548996 .13928223 .5589905 .17729187 .56199648 .19230652 .5649872 .20230103 .5779877 .2523346 .57899478 .25933839 .58099368 .26533509 .61099246 .33135987 .6519928 .36938478 .6819916 .39639283 .71699526 .4133911 .7569885 .4133911 .8029938 .4133911 .81399539 .37838746 .81399539 .34536744 .81399539 .28634645 .7669983 .1652832 .75 .119277957 .73999026 .09425354 .73999026 .087249759 .73999026 .07424927 .73999026 .020233155 .7829895-.009765625 .82899478-.009765625 .92900088-.009765625 .973999 .12727356 .973999 .14328003Z"/>
<path id="font_2_1" d="M.61099246 .14328003C.61099246 .15628052 .59799197 .15628052 .58999636 .15628052 .57199099 .15628052 .57099917 .15428162 .5649872 .12927246 .5509949 .07725525 .5339966 .018234253 .49699403 .018234253 .46899415 .018234253 .46499635 .048233034 .46499635 .06524658 .46499635 .08226013 .46499635 .08425903 .47099305 .10726929L.5369873 .37138368C.54100039 .38638307 .54100039 .38838197 .54100039 .39239503 .54100039 .4143982 .5249939 .4223938 .5099945 .4223938 .47698976 .4223938 .46699525 .38838197 .46598817 .38539125 .44099427 .4263916 .4039917 .44140626 .36799623 .44140626 .24598694 .44140626 .11898804 .300354 .11898804 .15428162 .11898804 .04724121 .18699646-.009765625 .26098634-.009765625 .32499696-.009765625 .37799073 .037231447 .397995 .058242799 .41099549 .010223389 .45799256-.009765625 .49398805-.009765625 .5249939-.009765625 .5509949 .0052337648 .57299807 .041229249 .5970001 .08026123 .61099246 .14027405 .61099246 .14328003M.44599916 .3023529 .4039917 .13627625C.3959961 .105270389 .37399293 .08125305 .35099793 .059249879 .30999757 .023223877 .2789917 .018234253 .2639923 .018234253 .21798706 .018234253 .19499207 .06124878 .19499207 .11326599 .19499207 .1552887 .21998596 .26533509 .24798584 .3193512 .27999879 .37838746 .32798768 .4133911 .36799623 .4133911 .43598939 .4133911 .44898988 .32635499 .44898988 .31636048 .44898988 .3133545 .44799806 .3093567 .44599916 .3023529Z"/>
<path id="font_2_12" d="M.6799927 .14328003C.6799927 .15628052 .6669922 .15628052 .6589966 .15628052 .6409912 .15628052 .6399994 .1532898 .6349945 .13528443 .6179962 .07325745 .58200076 .018234253 .5379944 .018234253 .5239868 .018234253 .5130005 .025222779 .5130005 .052246095 .5130005 .07424927 .5219879 .0962677 .5299988 .119277957 .5479889 .16629029 .58999636 .27534486 .58999636 .33036805 .58999636 .4084015 .5359955 .44140626 .46699525 .44140626 .3880005 .44140626 .33399964 .39439393 .3039856 .35636903 .29699708 .41740418 .24499512 .44140626 .20498657 .44140626 .1619873 .44140626 .13999939 .4133911 .125 .38838197 .10398865 .3553772 .08799744 .29434205 .08799744 .28834535 .08799744 .27534486 .100997928 .27534486 .10899353 .27534486 .1269989 .27534486 .12799073 .27633668 .1349945 .3043518 .1519928 .37338258 .17098999 .4133911 .20199585 .4133911 .23298645 .4133911 .23298645 .37738038 .23298645 .3653717 .23298645 .3463745 .21998596 .29534913 .21199036 .2603302L.18399048 .15228272C.18099976 .13728333 .17098999 .09925842 .16699219 .08425903 .1619873 .0622406 .15299988 .027236939 .15299988 .020233155 .15299988-.0017700195 .16899109-.009765625 .18399048-.009765625 .21798706-.009765625 .22499085 .020233155 .22898865 .035232545L.2519989 .12426758C.25498963 .13928223 .2649994 .17729187 .2679901 .19230652 .2709961 .20230103 .28399659 .2523346 .2849884 .25933839 .2869873 .26533509 .31698609 .33135987 .35798646 .36938478 .3880005 .39639283 .4229889 .4133911 .46299745 .4133911 .5089874 .4133911 .519989 .37838746 .519989 .34536744 .519989 .28634645 .47299195 .1652832 .45599366 .119277957 .44599916 .09425354 .44599916 .087249759 .44599916 .07424927 .44599916 .020233155 .4889984-.009765625 .5349884-.009765625 .6349945-.009765625 .6799927 .12727356 .6799927 .14328003Z"/>
<path id="font_2_22" d="M.48199464-.0067749025 .5799866 .38938905C.58200076 .39839173 .58299258 .4013977 .58299258 .4013977 .58299258 .4163971 .57199099 .43139649 .5509949 .43139649 .519989 .43139649 .5099945 .4033966 .5059967 .38838197L.44099427 .12426758C.43699647 .10626221 .3919983 .018234253 .31698609 .018234253 .2679901 .018234253 .2519989 .056243898 .2519989 .09925842 .2519989 .15428162 .2809906 .23332215 .31098939 .3093567 .31698609 .32635499 .32199098 .33836366 .32199098 .3573761 .32199098 .4073944 .28199769 .44140626 .23298645 .44140626 .13398743 .44140626 .08799744 .3053589 .08799744 .28834535 .08799744 .27534486 .100997928 .27534486 .10899353 .27534486 .12098694 .27534486 .1269989 .27534486 .12998963 .28834535 .16099549 .39738465 .20599365 .4133911 .22999573 .4133911 .24699402 .4133911 .25498963 .40238954 .25498963 .38038636 .25498963 .3573761 .24798584 .34136964 .22999573 .29335023 .19299317 .19822693 .18199158 .15222168 .18199158 .114227298 .18199158 .0152282719 .25498963-.009765625 .31399537-.009765625 .34899903-.009765625 .38198854 .0012207031 .4169922 .031219483 .40499879-.01675415 .3929901-.06668091 .34899903-.11767578 .31599427-.1557312 .27598573-.17578125 .23999024-.17578125 .21199036-.17578125 .18598938-.16474915 .17599488-.13768006 .20599365-.13067627 .21699524-.10467529 .21699524-.08868408 .21699524-.07067871 .20399475-.05567932 .18099976-.05567932 .16499329-.05567932 .12998963-.06668091 .12998963-.11668396 .12998963-.1667633 .17399597-.20379639 .23899842-.20379639 .35699464-.20379639 .45899964-.09867859 .48199464-.0067749025Z"/>
<path id="font_2_19" d="M.4149933 .14404297C.4149933 .15602112 .4019928 .15602112 .394989 .15602112 .3789978 .15602112 .37799073 .15402222 .37199403 .14004517 .32499696 .034194948 .272995 .018234253 .24598694 .018234253 .21199036 .018234253 .21199036 .05517578 .21199036 .06515503 .21199036 .0821228 .21699524 .10310364 .21798706 .10609436L.2899933 .39465333H.3889923C.40699769 .39465333 .4189911 .39465333 .4189911 .4166565 .4189911 .43066407 .40699769 .43066407 .3909912 .43066407H.29899598L.33499146 .5749054C.33898927 .5889282 .33898927 .5909271 .33898927 .5949402 .33898927 .6129761 .32499696 .625 .30699159 .625 .272995 .625 .2649994 .5919342 .2630005 .58291628L.22499085 .43066407H.12599182C.10798645 .43066407 .09599304 .43066407 .09599304 .4086609 .09599304 .39465333 .10798645 .39465333 .12399292 .39465333H.21598816L.14698792 .11807251C.14199829 .098098758 .14199829 .09111023 .14199829 .084121707 .14199829 .022216797 .19099427-.009765625 .24299622-.009765625 .35099793-.009765625 .4149933 .12806702 .4149933 .14404297Z"/>
<path id="font_2_17" d="M.55999758 .3723755C.55999758 .42340089 .49798585 .44140626 .43899537 .44140626 .4119873 .44140626 .35798646 .4393921 .30099488 .37338258 .2849884 .42840577 .23298645 .44140626 .20498657 .44140626 .1619873 .44140626 .13999939 .4133911 .125 .38838197 .10398865 .3553772 .08799744 .2943573 .08799744 .28834535 .08799744 .27534486 .100997928 .27534486 .10899353 .27534486 .1269989 .27534486 .12799073 .27633668 .1349945 .3043518 .1519928 .37338258 .17098999 .4133911 .20199585 .4133911 .23298645 .4133911 .23298645 .37738038 .23298645 .3653717 .23298645 .3463745 .21998596 .29534913 .21199036 .2603302L.18399048 .15229798C.18099976 .13728333 .17098999 .09927368 .16699219 .08425903 .1619873 .06225586 .15299988 .027236939 .15299988 .020233155 .15299988-.0017700195 .16899109-.009765625 .18399048-.009765625 .20599365-.009765625 .21899414 .0062408449 .22299195 .01423645 .22599793 .021240235 .23498535 .057250978 .23999024 .07826233L.2669983 .18630982C.27198792 .20831299 .27799989 .22932434 .2829895 .2513275 .2889862 .27534486 .2999878 .31835938 .34399415 .3683777 .3639984 .39138795 .3929901 .4133911 .43699647 .4133911 .44799806 .4133911 .48199464 .4123993 .5049896 .39639283 .48399354 .38638307 .47499085 .3683777 .47499085 .3513794 .47499085 .32336427 .49699403 .3173523 .5099945 .3173523 .5289917 .3173523 .55999758 .33135987 .55999758 .3723755Z"/>
<path id="font_2_24" d="M.38598634 .14328003C.38598634 .15628052 .37298585 .15628052 .36499024 .15628052 .34700013 .15628052 .34599305 .1532898 .34098817 .13528443 .32798768 .087249759 .29499818 .018234253 .24398804 .018234253 .21998596 .018234253 .21998596 .042236329 .21998596 .052246095 .21998596 .07624817 .23699951 .119277957 .25 .1512909L.31599427 .32435609C.32199098 .34136964 .32199098 .3443756 .32199098 .3573761 .32199098 .40238954 .2869873 .44140626 .23199463 .44140626 .13398743 .44140626 .08799744 .3063507 .08799744 .28834535 .08799744 .27534486 .100997928 .27534486 .10899353 .27534486 .12098694 .27534486 .1269989 .27534486 .12998963 .28834535 .16299439 .40438844 .21099854 .4133911 .22898865 .4133911 .24099732 .4133911 .2539978 .4104004 .2539978 .37937928 .2539978 .3573761 .24598694 .33737184 .23799134 .31636048L.21099854 .24732971 .17599488 .15428162C.1659851 .12828064 .1519928 .09225464 .1519928 .07424927 .1519928 .02822876 .18798828-.009765625 .24099732-.009765625 .34098817-.009765625 .38598634 .12727356 .38598634 .14328003M.3919983 .6092377C.3919983 .63723757 .37098695 .65625 .34399415 .65625 .30599977 .65625 .27398683 .62124636 .27398683 .5882416 .27398683 .5632477 .29299928 .5412445 .32199098 .5412445 .35798646 .5412445 .3919983 .57424929 .3919983 .6092377Z"/>
<path id="font_2_14" d="M.5799866 .27734376C.5799866 .37838746 .5159912 .44140626 .43798829 .44140626 .37298585 .44140626 .31999208 .39439393 .30099488 .37338258 .2849884 .42840577 .23298645 .44140626 .20498657 .44140626 .1619873 .44140626 .13999939 .4133911 .125 .38838197 .10398865 .3553772 .08799744 .29434205 .08799744 .28834535 .08799744 .27534486 .100997928 .27534486 .10899353 .27534486 .1269989 .27534486 .12799073 .27633668 .1349945 .3043518 .1519928 .37338258 .17098999 .4133911 .20199585 .4133911 .23298645 .4133911 .23298645 .37738038 .23298645 .3653717 .23298645 .35437013 .23298645 .34736634 .22898865 .33135987L.115997318-.12246704C.10899353-.15138245 .102996829-.15736389 .06599426-.15736389 .051986696-.15736389 .039993287-.15736389 .039993287-.17936707 .039993287-.18836975 .04598999-.19335938 .053985597-.19335938 .07998657-.19335938 .11099243-.18936157 .13798523-.18936157 .17098999-.18936157 .20799256-.19335938 .23999024-.19335938 .24499512-.19335938 .2599945-.19335938 .2599945-.17236328 .2599945-.15736389 .25-.15736389 .23098755-.15736389 .21299744-.15736389 .18598938-.15736389 .18598938-.145401 .18598938-.13941956 .19099427-.116485599 .19499207-.10151672L.23199463 .04623413C.24598694 .024230957 .2769928-.009765625 .33099366-.009765625 .45399476-.009765625 .5799866 .13327027 .5799866 .27734376M.5039978 .3193512C.5039978 .2693329 .47599793 .16029358 .45199586 .11526489 .40899659 .036239625 .35798646 .018234253 .33099366 .018234253 .2639923 .018234253 .25 .101257327 .25 .11526489 .25 .119277957 .25099183 .121276859 .25299073 .13027954L.2939911 .29534913C.30299378 .33236695 .37199403 .4133911 .43499757 .4133911 .47999574 .4133911 .5039978 .37138368 .5039978 .3193512Z"/>
<path id="font_2_18" d="M.45399476 .15612793C.45399476 .18611145 .44099427 .21409607 .4169922 .2350769 .3880005 .25906373 .36299134 .2640686 .30899049 .2740631 .2789917 .28004457 .23498535 .28804017 .23498535 .32904054 .23498535 .3470459 .2519989 .4133911 .34700013 .4133911 .36999513 .4133911 .41299439 .4083557 .42900086 .3720398 .42399598 .3700409 .397995 .35603334 .397995 .33003236 .397995 .31703187 .40499879 .30003358 .42999269 .30003358 .44198609 .30003358 .47399903 .30604554 .47399903 .35403443 .47399903 .418396 .4059906 .44140626 .34799195 .44140626 .20498657 .44140626 .17199707 .33303834 .17199707 .29403688 .17199707 .21308899 .25099183 .19810486 .28799439 .19111634 .33499146 .18211365 .3909912 .17211914 .3909912 .121154788 .3909912 .094177249 .3659973 .018234253 .24598694 .018234253 .21499634 .018234253 .15699768 .024215699 .13598633 .06719971 .17098999 .076187137 .1769867 .105163577 .1769867 .11616516 .1769867 .1351471 .16299439 .1491394 .14199829 .1491394 .114990238 .1491394 .08999634 .12915039 .08999634 .08717346 .08999634 .02722168 .1519928-.009765625 .24398804-.009765625 .4149933-.009765625 .45399476 .11116028 .45399476 .15612793Z"/>
<path id="font_2_5" d="M.62098696 .14328003C.62098696 .15628052 .60798647 .15628052 .59999087 .15628052 .58200076 .15628052 .58099368 .15428162 .57499697 .12927246 .5609894 .07725525 .5439911 .018234253 .5069885 .018234253 .47898866 .018234253 .47499085 .048233034 .47499085 .06524658 .47499085 .08226013 .47999574 .103256229 .48098756 .10626221L.62098696 .66529849C.621994 .6693115 .6239929 .67630007 .6239929 .68029788 .6239929 .6953125 .60798647 .6943054 .5970001 .69329836L.4889984 .6843109C.47599793 .68330386 .46299745 .682312 .46299745 .66130068 .46299745 .64730837 .47599793 .64730837 .4889984 .64730837 .5369873 .64730837 .5369873 .64030459 .5369873 .63131716 .5369873 .62831118 .5369873 .62631228 .5329895 .61231997L.47698976 .38539125C.45399476 .4203949 .41999818 .44140626 .37799073 .44140626 .2559967 .44140626 .1289978 .300354 .1289978 .15428162 .1289978 .04724121 .19699097-.009765625 .2709961-.009765625 .33499146-.009765625 .3880005 .037231447 .4079895 .058242799 .42099 .010223389 .46798707-.009765625 .5039978-.009765625 .5349884-.009765625 .5609894 .0052337648 .58299258 .041229249 .6069946 .08026123 .62098696 .14027405 .62098696 .14328003M.45599366 .3023529 .4139862 .13627625C.4059906 .105270389 .38398744 .08125305 .36099244 .059249879 .31999208 .023223877 .2889862 .018234253 .27398683 .018234253 .22799683 .018234253 .20498657 .06124878 .20498657 .11326599 .20498657 .1552887 .22999573 .26533509 .2579956 .3193512 .2899933 .37838746 .33799745 .4133911 .37799073 .4133911 .44599916 .4133911 .45899964 .32635499 .45899964 .31636048 .45899964 .3133545 .45799256 .3093567 .45599366 .3023529Z"/>
<path id="font_2_6" d="M.54100039 .097335819C.54100039 .10534668 .5269928 .12136841 .5179901 .12136841 .5130005 .12136841 .5099945 .11836243 .5029907 .11035156 .44198609 .037246705 .35499574 .018234253 .30499269 .018234253 .23999024 .018234253 .21199036 .07330322 .21199036 .13638306 .21199036 .16741944 .21798706 .19847107 .22499085 .22851563H.2869873C.32998658 .22851563 .5269928 .22851563 .5269928 .35343934 .5269928 .40740968 .47599793 .44140626 .4059906 .44140626 .2939911 .44140626 .1349945 .35144044 .1349945 .1754303 .1349945 .07029724 .19699097-.009765625 .30499269-.009765625 .46398927-.009765625 .54100039 .08432007 .54100039 .097335819M.47898866 .3544464C.47898866 .2565155 .31900025 .2565155 .27999879 .2565155H.23298645C.27799989 .4113922 .3939972 .4133911 .4059906 .4133911 .44799806 .4133911 .47898866 .39041139 .47898866 .3544464Z"/>
<path id="font_2_3" d="M.54100039 .09715271C.54100039 .105148319 .5269928 .12113953 .5179901 .12113953 .5130005 .12113953 .5099945 .1181488 .5029907 .1101532 .44198609 .037216188 .35499574 .018234253 .30499269 .018234253 .25498963 .018234253 .20899964 .047195436 .20899964 .12812805 .20899964 .1750946 .23098755 .28100587 .2769928 .33898927 .31698609 .39015199 .36499024 .4133911 .4079895 .4133911 .4249878 .4133911 .46798707 .40834046 .4850006 .37701417 .45599366 .36898805 .44599916 .34498597 .44599916 .32798768 .44599916 .31199647 .45700074 .29499818 .48199464 .29499818 .49899293 .29499818 .5319977 .30599977 .5319977 .35398866 .5319977 .41940309 .46199037 .44140626 .40699769 .44140626 .2669983 .44140626 .12998963 .3039856 .12998963 .16210938 .12998963 .06819153 .19299317-.009765625 .3039856-.009765625 .46499635-.009765625 .54100039 .08416748 .54100039 .09715271Z"/>
<path id="font_2_23" d="M.5039978 .14527893C.5039978 .15827942 .49198915 .15827942 .48298646 .15827942 .46598817 .15827942 .46499635 .15527344 .46099855 .14326477 .44198609 .08924866 .3849945 .06323242 .34199525 .06323242 .31900025 .06323242 .29699708 .070236209 .27198792 .07723999 .23199463 .08924866 .22200012 .08924866 .18899536 .08924866 .21798706 .1232605 .2789917 .17428589 .32199098 .21031189 .5109863 .37039186 .5249939 .4263916 .5249939 .42939759 .5249939 .44140626 .5139923 .44140626 .5039978 .44140626 .4889984 .44140626 .48799134 .44140626 .47999574 .42739869 .44898988 .3784027 .43598939 .37039186 .4169922 .37039186 .394989 .37039186 .3809967 .3843994 .3639984 .4013977 .34298707 .42340089 .32398988 .44140626 .2899933 .44140626 .20899964 .44140626 .1559906 .35339356 .1559906 .32437135 .1559906 .31236268 .16899109 .31236268 .1769867 .31236268 .18998719 .31236268 .19400025 .31336976 .19799805 .32337953 .21598816 .36740113 .269989 .36839295 .27999879 .36839295 .30099488 .36839295 .32398988 .36239625 .34999085 .35438539 .38398744 .34439088 .394989 .3433838 .4119873 .34239198 .37199403 .30136109 .36299134 .29135133 .27398683 .21731568 .25299073 .19830323 .20298767 .1572876 .16499329 .118255618 .11999512 .07322693 .07598877 .01322937 .07598877 .0022277833 .07598877-.009765625 .08699036-.009765625 .09700012-.009765625 .11199951-.009765625 .11199951-.008773804 .11898804 .0022277833 .13398743 .024230957 .16499329 .06123352 .20199585 .06123352 .22200012 .06123352 .23298645 .054229738 .25299073 .033233644 .2809906 .006225586 .2979889-.009765625 .33198548-.009765625 .43699647-.009765625 .5039978 .11125183 .5039978 .14527893Z"/>
<path id="font_2_9" d="M.56199648 .14329529C.56199648 .15629578 .548996 .15629578 .54100039 .15629578 .522995 .15629578 .5219879 .1532898 .5169983 .1362915 .5049896 .087265018 .48199464 .018234253 .43699647 .018234253 .41600038 .018234253 .40299989 .031234742 .40299989 .06825256 .40299989 .072250369 .40299989 .089263919 .40899659 .11328125 .4119873 .12828064 .4139862 .1402893 .4139862 .14628601 .4139862 .22232056 .32598878 .24433899 .2639923 .25234986 .2669983 .25434876 .29699708 .27334596 .34899903 .32537843 .394989 .3703766 .44198609 .4133911 .49198915 .4133911 .5089874 .4133911 .5169983 .40538026 .519989 .39938355 .49899293 .39337159 .48199464 .37538148 .48199464 .3513794 .48199464 .32337953 .5039978 .3173828 .5169983 .3173828 .54299929 .3173828 .56799319 .3383789 .56799319 .3743744 .56799319 .4093933 .5419922 .44140626 .49398805 .44140626 .44499208 .44140626 .39898683 .4113922 .34098817 .3533783 .2829895 .29637147 .25698854 .277359 .22898865 .26535035L.32899476 .66529849C.32998658 .6693115 .33198548 .67630007 .33198548 .68029788 .33198548 .6953125 .31599427 .6943054 .30499269 .69329836L.19699097 .6843109C.18399048 .68330386 .17098999 .682312 .17098999 .66130068 .17098999 .64730837 .18399048 .64730837 .19699097 .64730837 .24499512 .64730837 .24499512 .64030459 .24499512 .63131716 .24499512 .62731936 .24198914 .613327 .24099732 .60832217L.09899902 .041244508C.09498596 .027236939 .09498596 .025222779 .09498596 .020233155 .09498596 .0012207031 .10899353-.009765625 .1269989-.009765625 .1599884-.009765625 .16699219 .019226075 .17199707 .038238527L.21899414 .22633362C.27198792 .22132874 .33999635 .20132447 .33999635 .14428711 .33999635 .1382904 .33999635 .13427735 .33699037 .119277957 .33299256 .104263309 .33299256 .10127258 .33299256 .09126282 .33299256 .037231447 .37199403-.009765625 .43399049-.009765625 .5299988-.009765625 .56199648 .1402893 .56199648 .14329529Z"/>
<path id="font_2_16" d="M.6179962 .5838623C.6179962 .65885928 .55999758 .7138672 .47599793 .7138672 .30899049 .7138672 .21299744 .51486209 .21299744 .464859 .21299744 .44485475 .22698975 .43086244 .24899292 .43086244 .2749939 .43086244 .2979889 .45385743 .2979889 .4798584 .2979889 .5078583 .27398683 .51286318 .269989 .513855 .32199098 .6328583 .40499879 .68585208 .47499085 .68585208 .5309906 .68585208 .57598879 .65286257 .57598879 .5988617 .57598879 .53585818 .5189972 .49386598 .5099945 .487854L.33898927 .37086488C.32398988 .360672 .2829895 .3226776 .2829895 .26766969 .2829895 .2336731 .30099488 .19366455 .35398866 .19366455 .43399049 .19366455 .48098756 .26367188 .48098756 .28967286 .48098756 .30166627 .46998597 .30166627 .45999146 .30166627 .44299317 .30166627 .44299317 .30067445 .43798829 .28567506 .42599488 .2506714 .3889923 .22167969 .35499574 .22167969 .33499146 .22167969 .32398988 .23266602 .32398988 .25367738 .32398988 .27467347 .33999635 .29867555 .35699464 .31066896L.5279999 .42767335C.5529938 .44467164 .6179962 .50367739 .6179962 .5836792V.5838623M.37399293 .067993167C.37399293 .09199524 .35598756 .114990238 .32598878 .114990238 .2899933 .114990238 .2559967 .08198547 .2559967 .04699707 .2559967 .018997193 .2769928 0 .3039856 0 .34199525 0 .37399293 .034988405 .37399293 .067993167Z"/>
<path id="font_2_7" d="M.43798829-.06404114 .54599 .37135316C.5499878 .3863678 .5499878 .3883667 .5499878 .39237977 .5499878 .4143982 .5339966 .4223938 .5189972 .4223938 .49798585 .4223938 .48098756 .4073944 .47499085 .38737489 .45098878 .4243927 .41600038 .44140626 .3769989 .44140626 .25498963 .44140626 .12998963 .3012848 .12998963 .16113281 .12998963 .06903076 .18899536 0 .272995 0 .32299806 0 .36499024 .026992798 .3919983 .05001831L.36099244-.07304382C.35299684-.094055179 .31599427-.17610169 .21299744-.17610169 .19898987-.17610169 .1639862-.17610169 .13999939-.167099 .1639862-.15309143 .1639862-.12608338 .1639862-.12608338 .1639862-.10606384 .1499939-.092056278 .12799073-.092056278 .102996829-.092056278 .07798767-.11306763 .07798767-.14608765 .07798767-.19911194 .14199829-.20410156 .20999146-.20410156 .35398866-.20410156 .42199708-.1270752 .43798829-.06404114M.4149933 .14111328C.40699769 .110076908 .33999635 .027999878 .27598573 .027999878 .22999573 .027999878 .20698548 .06903076 .20698548 .12109375 .20698548 .16313172 .23199463 .2752533 .2630005 .3283081 .2979889 .3883667 .34399415 .4133911 .3769989 .4133911 .44599916 .4133911 .45799256 .32731629 .45799256 .31829835L.45498658 .30429078 .4149933 .14111328Z"/>
<path id="font_2_4" d="M.26098634 .04899597C.26098634 .08699036 .24398804 .114990238 .20899964 .114990238 .16799927 .114990238 .13899231 .07899475 .13899231 .04598999 .13899231 .01499939 .1599884 0 .18699646 0 .21099854 0 .21998596 .0069885256 .22799683 .0129852299 .21099854-.056106569 .16999817-.11520386 .10998535-.1632843 .09700012-.17330933 .09599304-.1743164 .09599304-.17932129 .09599304-.18632508 .102996829-.19433594 .10998535-.19433594 .12998963-.19433594 .26098634-.074142459 .26098634 .04899597Z"/>
<path id="font_2_2" d="M.5209961 .27833558C.5209961 .37838746 .45799256 .44140626 .3789978 .44140626 .32499696 .44140626 .2829895 .4084015 .2599945 .39038087L.32899476 .66529849C.32998658 .6693115 .33198548 .67630007 .33198548 .68029788 .33198548 .6953125 .31599427 .6943054 .30499269 .69329836L.19699097 .6843109C.18399048 .68330386 .17098999 .682312 .17098999 .66130068 .17098999 .64730837 .18399048 .64730837 .19699097 .64730837 .24499512 .64730837 .24499512 .64030459 .24499512 .63131716 .24499512 .62532046 .24499512 .62332156 .24099732 .60931399L.14399719 .22331238C.1349945 .18730164 .1349945 .16429138 .1349945 .1512909 .1349945 .04524231 .19999695-.009765625 .27198792-.009765625 .394989-.009765625 .5209961 .13327027 .5209961 .27833558M.44499208 .3193512C.44499208 .2733307 .4169922 .1612854 .3919983 .11427307 .35499574 .04423523 .30499269 .018234253 .272995 .018234253 .23098755 .018234253 .20098877 .054244996 .20098877 .119277957 .20098877 .17228699 .23799134 .3063507 .24398804 .31636048 .27398683 .36437989 .32699586 .4133911 .3769989 .4133911 .42399598 .4133911 .44499208 .36738587 .44499208 .3193512Z"/>
<path id="font_2_20" d="M.651001 .14328003C.651001 .15628052 .6380005 .15628052 .6299896 .15628052 .6119995 .15628052 .61099246 .15428162 .6049957 .12927246 .59098818 .07725525 .57398989 .018234253 .5369873 .018234253 .5089874 .018234253 .5049896 .048233034 .5049896 .06524658 .5049896 .08226013 .5049896 .08425903 .5109863 .10726929L.58099368 .38938905C.58299258 .39839173 .58399966 .4013977 .58399966 .4013977 .58399966 .4163971 .57299807 .43139649 .5519867 .43139649 .519989 .43139649 .5099945 .40238954 .5069885 .38838197L.44198609 .12626648C.43499757 .09725952 .3880005 .018234253 .31799317 .018234253 .27198792 .018234253 .2519989 .052246095 .2519989 .09925842 .2519989 .15628052 .28399659 .23931885 .31098939 .3083496 .31799317 .32736207 .32199098 .33836366 .32199098 .3573761 .32199098 .4073944 .28199769 .44140626 .23298645 .44140626 .13398743 .44140626 .08799744 .3053589 .08799744 .28834535 .08799744 .27534486 .100997928 .27534486 .10899353 .27534486 .12098694 .27534486 .1269989 .27534486 .12998963 .28834535 .16099549 .39738465 .20599365 .4133911 .22999573 .4133911 .24699402 .4133911 .25498963 .40238954 .25498963 .38038636 .25498963 .3573761 .24798584 .34136964 .22999573 .29335023 .19400025 .19923401 .18199158 .15322876 .18199158 .114227298 .18199158 .014221191 .2579956-.009765625 .31399537-.009765625 .37599183-.009765625 .41099549 .024230957 .43998719 .053222658 .45599366 .0042266848 .5039978-.009765625 .5339966-.009765625 .5649872-.009765625 .59098818 .0052337648 .61299136 .041229249 .6369934 .08023071 .651001 .14022827 .651001 .14323426V.14328003Z"/>
<path id="font_2_10" d="M.32798768 .14324951C.32798768 .15625 .31498719 .15625 .30699159 .15625 .2889862 .15625 .28799439 .15324402 .28399659 .13624573 .269989 .083236698 .25299073 .018234253 .21499634 .018234253 .18699646 .018234253 .18299866 .048233034 .18299866 .06523132 .18299866 .082229617 .18798828 .10324097 .18899536 .10623169L.32899476 .66529849C.32998658 .6693115 .33198548 .67630007 .33198548 .68029788 .33198548 .6953125 .31599427 .6943054 .30499269 .69329836L.19699097 .6843109C.18399048 .68330386 .17098999 .682312 .17098999 .66130068 .17098999 .64730837 .18399048 .64730837 .19699097 .64730837 .24499512 .64730837 .24499512 .64030459 .24499512 .6313019 .24499512 .6242981 .24299622 .6163025 .24099732 .6092987L.117996219 .11824036C.11299133 .098236087 .11299133 .0912323 .11299133 .084228519 .11299133 .018234253 .16799927-.009765625 .21199036-.009765625 .23498535-.009765625 .2659912-.0017700195 .29299928 .04423523 .31498719 .083236698 .32798768 .13923645 .32798768 .14324951Z"/>
<path id="font_2_15" d="M.25698854 .067993167C.25698854 .09298706 .23899842 .114990238 .20899964 .114990238 .17298889 .114990238 .13899231 .08198547 .13899231 .04699707 .13899231 .021987915 .15699768 0 .18699646 0 .22399903 0 .25698854 .034988405 .25698854 .067993167Z"/>
</defs>
<path transform="matrix(1,0,0,-1,46.724,24.768002)" d="M35.05653 16.29933H-35.05653C-36.70723 16.29933-38.04536 14.9612-38.04536 13.3105V-13.3105C-38.04536-14.9612-36.70723-16.29933-35.05653-16.29933H35.05653C36.70723-16.29933 38.04536-14.9612 38.04536-13.3105V13.3105C38.04536 14.9612 36.70723 16.29933 35.05653 16.29933ZM-38.04536-16.29933" fill="#e6ecf1"/>
<path transform="matrix(1,0,0,-1,46.724,24.768002)" stroke-width=".99628" stroke-linecap="butt" stroke-miterlimit="10" stroke-linejoin="miter" fill="none" stroke="#003e74" d="M35.05653 16.29933H-35.05653C-36.70723 16.29933-38.04536 14.9612-38.04536 13.3105V-13.3105C-38.04536-14.9612-36.70723-16.29933-35.05653-16.29933H35.05653C36.70723-16.29933 38.04536-14.9612 38.04536-13.3105V13.3105C38.04536 14.9612 36.70723 16.29933 35.05653 16.29933ZM-38.04536-16.29933"/>
<use data-text="1" xlink:href="#font_1_14" transform="matrix(8.9664,0,0,-8.9664,30.088002,21.488003)" fill="#003e74"/>
<use data-text="." xlink:href="#font_1_16" transform="matrix(8.9664,0,0,-8.9664,35.396108,21.488003)" fill="#003e74"/>
<use data-text="T" xlink:href="#font_1_19" transform="matrix(8.9664,0,0,-8.9664,43.654165,21.488003)" fill="#003e74"/>
<use data-text="r" xlink:href="#font_1_17" transform="matrix(8.9664,0,0,-8.9664,50.14584,21.488003)" fill="#003e74"/>
<use data-text="i" xlink:href="#font_1_24" transform="matrix(8.9664,0,0,-8.9664,54.521444,21.488003)" fill="#003e74"/>
<use data-text="p" xlink:href="#font_1_15" transform="matrix(8.9664,0,0,-8.9664,57.47139,21.488003)" fill="#003e74"/>
<use data-text="g" xlink:href="#font_1_8" transform="matrix(8.9664,0,0,-8.9664,22.352002,32.447004)" fill="#003e74"/>
<use data-text="e" xlink:href="#font_1_5" transform="matrix(8.9664,0,0,-8.9664,27.66011,32.447004)" fill="#003e74"/>
<use data-text="n" xlink:href="#font_1_12" transform="matrix(8.9664,0,0,-8.9664,32.528867,32.447004)" fill="#003e74"/>
<use data-text="e" xlink:href="#font_1_5" transform="matrix(8.9664,0,0,-8.9664,38.419794,32.447004)" fill="#003e74"/>
<use data-text="r" xlink:href="#font_1_17" transform="matrix(8.9664,0,0,-8.9664,43.288549,32.447004)" fill="#003e74"/>
<use data-text="a" xlink:href="#font_1_1" transform="matrix(8.9664,0,0,-8.9664,47.66415,32.447004)" fill="#003e74"/>
<use data-text="t" xlink:href="#font_1_20" transform="matrix(8.9664,0,0,-8.9664,52.81983,32.447004)" fill="#003e74"/>
<use data-text="i" xlink:href="#font_1_24" transform="matrix(8.9664,0,0,-8.9664,56.944375,32.447004)" fill="#003e74"/>
<use data-text="o" xlink:href="#font_1_13" transform="matrix(8.9664,0,0,-8.9664,59.89432,32.447004)" fill="#003e74"/>
<use data-text="n" xlink:href="#font_1_12" transform="matrix(8.9664,0,0,-8.9664,65.20243,32.447004)" fill="#003e74"/>
<path transform="matrix(1,0,0,-1,46.724,24.768002)" d="M127.73438 16.29933H57.62129C55.9706 16.29933 54.63246 14.9612 54.63246 13.3105V-13.3105C54.63246-14.9612 55.9706-16.29933 57.62129-16.29933H127.73438C129.38509-16.29933 130.7232-14.9612 130.7232-13.3105V13.3105C130.7232 14.9612 129.38509 16.29933 127.73438 16.29933ZM54.63246-16.29933" fill="#e6ecf1"/>
<path transform="matrix(1,0,0,-1,46.724,24.768002)" stroke-width=".99628" stroke-linecap="butt" stroke-miterlimit="10" stroke-linejoin="miter" fill="none" stroke="#003e74" d="M127.73438 16.29933H57.62129C55.9706 16.29933 54.63246 14.9612 54.63246 13.3105V-13.3105C54.63246-14.9612 55.9706-16.29933 57.62129-16.29933H127.73438C129.38509-16.29933 130.7232-14.9612 130.7232-13.3105V13.3105C130.7232 14.9612 129.38509 16.29933 127.73438 16.29933ZM54.63246-16.29933"/>
<use data-text="2" xlink:href="#font_1_22" transform="matrix(8.9664,0,0,-8.9664,122.76399,22.36)" fill="#003e74"/>
<use data-text="." xlink:href="#font_1_16" transform="matrix(8.9664,0,0,-8.9664,128.07212,22.36)" fill="#003e74"/>
<use data-text="T" xlink:href="#font_1_19" transform="matrix(8.9664,0,0,-8.9664,136.33017,22.36)" fill="#003e74"/>
<use data-text="r" xlink:href="#font_1_17" transform="matrix(8.9664,0,0,-8.9664,142.82184,22.36)" fill="#003e74"/>
<use data-text="i" xlink:href="#font_1_24" transform="matrix(8.9664,0,0,-8.9664,147.19745,22.36)" fill="#003e74"/>
<use data-text="p" xlink:href="#font_1_15" transform="matrix(8.9664,0,0,-8.9664,150.1474,22.36)" fill="#003e74"/>
<use data-text="d" xlink:href="#font_1_4" transform="matrix(8.9664,0,0,-8.9664,112.13099,33.319)" fill="#003e74"/>
<use data-text="i" xlink:href="#font_1_24" transform="matrix(8.9664,0,0,-8.9664,118.02191,33.319)" fill="#003e74"/>
<use data-text="s" xlink:href="#font_1_18" transform="matrix(8.9664,0,0,-8.9664,120.971858,33.319)" fill="#003e74"/>
<use data-text="t" xlink:href="#font_1_20" transform="matrix(8.9664,0,0,-8.9664,125.159168,33.319)" fill="#003e74"/>
<use data-text="r" xlink:href="#font_1_17" transform="matrix(8.9664,0,0,-8.9664,129.28372,33.319)" fill="#003e74"/>
<use data-text="i" xlink:href="#font_1_24" transform="matrix(8.9664,0,0,-8.9664,133.65933,33.319)" fill="#003e74"/>
<use data-text="b" xlink:href="#font_1_2" transform="matrix(8.9664,0,0,-8.9664,136.60929,33.319)" fill="#003e74"/>
<use data-text="u" xlink:href="#font_1_23" transform="matrix(8.9664,0,0,-8.9664,142.50022,33.319)" fill="#003e74"/>
<use data-text="t" xlink:href="#font_1_20" transform="matrix(8.9664,0,0,-8.9664,148.39115,33.319)" fill="#003e74"/>
<use data-text="i" xlink:href="#font_1_24" transform="matrix(8.9664,0,0,-8.9664,152.51569,33.319)" fill="#003e74"/>
<use data-text="o" xlink:href="#font_1_13" transform="matrix(8.9664,0,0,-8.9664,155.46564,33.319)" fill="#003e74"/>
<use data-text="n" xlink:href="#font_1_12" transform="matrix(8.9664,0,0,-8.9664,160.77375,33.319)" fill="#003e74"/>
<path transform="matrix(1,0,0,-1,46.724,24.768002)" d="M220.41222 16.29933H150.29914C148.64844 16.29933 147.3103 14.9612 147.3103 13.3105V-13.3105C147.3103-14.9612 148.64844-16.29933 150.29914-16.29933H220.41222C222.06293-16.29933 223.40105-14.9612 223.40105-13.3105V13.3105C223.40105 14.9612 222.06293 16.29933 220.41222 16.29933ZM147.3103-16.29933" fill="#e6ecf1"/>
<path transform="matrix(1,0,0,-1,46.724,24.768002)" stroke-width=".99628" stroke-linecap="butt" stroke-miterlimit="10" stroke-linejoin="miter" fill="none" stroke="#003e74" d="M220.41222 16.29933H150.29914C148.64844 16.29933 147.3103 14.9612 147.3103 13.3105V-13.3105C147.3103-14.9612 148.64844-16.29933 150.29914-16.29933H220.41222C222.06293-16.29933 223.40105-14.9612 223.40105-13.3105V13.3105C223.40105 14.9612 222.06293 16.29933 220.41222 16.29933ZM147.3103-16.29933"/>
<use data-text="3" xlink:href="#font_1_21" transform="matrix(8.9664,0,0,-8.9664,210.471,21.488003)" fill="#003e74"/>
<use data-text="." xlink:href="#font_1_16" transform="matrix(8.9664,0,0,-8.9664,215.7791,21.488003)" fill="#003e74"/>
<use data-text="M" xlink:href="#font_1_10" transform="matrix(8.9664,0,0,-8.9664,224.03716,21.488003)" fill="#003e74"/>
<use data-text="o" xlink:href="#font_1_13" transform="matrix(8.9664,0,0,-8.9664,234.09746,21.488003)" fill="#003e74"/>
<use data-text="d" xlink:href="#font_1_4" transform="matrix(8.9664,0,0,-8.9664,239.69249,21.488003)" fill="#003e74"/>
<use data-text="a" xlink:href="#font_1_1" transform="matrix(8.9664,0,0,-8.9664,245.58342,21.488003)" fill="#003e74"/>
<use data-text="l" xlink:href="#font_1_9" transform="matrix(8.9664,0,0,-8.9664,250.7391,21.488003)" fill="#003e74"/>
<use data-text="s" xlink:href="#font_1_18" transform="matrix(8.9664,0,0,-8.9664,222.027,32.447004)" fill="#003e74"/>
<use data-text="p" xlink:href="#font_1_15" transform="matrix(8.9664,0,0,-8.9664,226.2143,32.447004)" fill="#003e74"/>
<use data-text="l" xlink:href="#font_1_9" transform="matrix(8.9664,0,0,-8.9664,232.10523,32.447004)" fill="#003e74"/>
<use data-text="i" xlink:href="#font_1_24" transform="matrix(8.9664,0,0,-8.9664,235.05518,32.447004)" fill="#003e74"/>
<use data-text="t" xlink:href="#font_1_20" transform="matrix(8.9664,0,0,-8.9664,238.00513,32.447004)" fill="#003e74"/>
<path transform="matrix(1,0,0,-1,46.724,24.768002)" d="M313.09007 16.29933H242.97699C241.32628 16.29933 239.98816 14.9612 239.98816 13.3105V-13.3105C239.98816-14.9612 241.32628-16.29933 242.97699-16.29933H313.09007C314.74079-16.29933 316.0789-14.9612 316.0789-13.3105V13.3105C316.0789 14.9612 314.74079 16.29933 313.09007 16.29933ZM239.98816-16.29933" fill="#e6ecf1"/>
<path transform="matrix(1,0,0,-1,46.724,24.768002)" stroke-width=".99628" stroke-linecap="butt" stroke-miterlimit="10" stroke-linejoin="miter" fill="none" stroke="#003e74" d="M313.09007 16.29933H242.97699C241.32628 16.29933 239.98816 14.9612 239.98816 13.3105V-13.3105C239.98816-14.9612 241.32628-16.29933 242.97699-16.29933H313.09007C314.74079-16.29933 316.0789-14.9612 316.0789-13.3105V13.3105C316.0789 14.9612 314.74079 16.29933 313.09007 16.29933ZM239.98816-16.29933"/>
<use data-text="4" xlink:href="#font_1_7" transform="matrix(8.9664,0,0,-8.9664,303.181,21.488003)" fill="#003e74"/>
<use data-text="." xlink:href="#font_1_16" transform="matrix(8.9664,0,0,-8.9664,308.4891,21.488003)" fill="#003e74"/>
<use data-text="T" xlink:href="#font_1_19" transform="matrix(8.9664,0,0,-8.9664,316.74717,21.488003)" fill="#003e74"/>
<use data-text="r" xlink:href="#font_1_17" transform="matrix(8.9664,0,0,-8.9664,323.23884,21.488003)" fill="#003e74"/>
<use data-text="a" xlink:href="#font_1_1" transform="matrix(8.9664,0,0,-8.9664,327.61445,21.488003)" fill="#003e74"/>
<use data-text="f" xlink:href="#font_1_6" transform="matrix(8.9664,0,0,-8.9664,332.7701,21.488003)" fill="#003e74"/>
<use data-text="c" xlink:href="#font_1_3" transform="matrix(8.9664,0,0,-8.9664,341.611,21.488003)" fill="#003e74"/>
<use data-text="a" xlink:href="#font_1_1" transform="matrix(8.9664,0,0,-8.9664,299.198,32.447004)" fill="#003e74"/>
<use data-text="s" xlink:href="#font_1_18" transform="matrix(8.9664,0,0,-8.9664,304.35368,32.447004)" fill="#003e74"/>
<use data-text="s" xlink:href="#font_1_18" transform="matrix(8.9664,0,0,-8.9664,308.541,32.447004)" fill="#003e74"/>
<use data-text="i" xlink:href="#font_1_24" transform="matrix(8.9664,0,0,-8.9664,312.7283,32.447004)" fill="#003e74"/>
<use data-text="g" xlink:href="#font_1_8" transform="matrix(8.9664,0,0,-8.9664,315.67826,32.447004)" fill="#003e74"/>
<use data-text="n" xlink:href="#font_1_12" transform="matrix(8.9664,0,0,-8.9664,320.98637,32.447004)" fill="#003e74"/>
<use data-text="m" xlink:href="#font_1_11" transform="matrix(8.9664,0,0,-8.9664,326.8773,32.447004)" fill="#003e74"/>
<use data-text="e" xlink:href="#font_1_5" transform="matrix(8.9664,0,0,-8.9664,335.71818,32.447004)" fill="#003e74"/>
<use data-text="n" xlink:href="#font_1_12" transform="matrix(8.9664,0,0,-8.9664,340.5869,32.447004)" fill="#003e74"/>
<use data-text="t" xlink:href="#font_1_20" transform="matrix(8.9664,0,0,-8.9664,346.18196,32.447004)" fill="#003e74"/>
<path transform="matrix(1,0,0,-1,46.724,24.768002)" stroke-width=".99628" stroke-linecap="butt" stroke-miterlimit="10" stroke-linejoin="miter" fill="none" stroke="#003e74" d="M38.5435 0H49.56953"/>
<path transform="matrix(1,0,0,-1,93.488147,24.768002)" d="M5.95149 0 1.60866 1.6449 3.05444 0 1.60866-1.6449Z" fill="#003e74"/>
<path transform="matrix(1,0,0,-1,93.488147,24.768002)" stroke-width=".99628" stroke-linecap="butt" stroke-miterlimit="10" stroke-linejoin="miter" fill="none" stroke="#003e74" d="M5.95149 0 1.60866 1.6449 3.05444 0 1.60866-1.6449Z"/>
<path transform="matrix(1,0,0,-1,46.724,24.768002)" stroke-width=".99628" stroke-linecap="butt" stroke-miterlimit="10" stroke-linejoin="miter" fill="none" stroke="#003e74" d="M131.22135 0H142.24738"/>
<path transform="matrix(1,0,0,-1,186.166,24.768002)" d="M5.95149 0 1.60866 1.6449 3.05444 0 1.60866-1.6449Z" fill="#003e74"/>
<path transform="matrix(1,0,0,-1,186.166,24.768002)" stroke-width=".99628" stroke-linecap="butt" stroke-miterlimit="10" stroke-linejoin="miter" fill="none" stroke="#003e74" d="M5.95149 0 1.60866 1.6449 3.05444 0 1.60866-1.6449Z"/>
<path transform="matrix(1,0,0,-1,46.724,24.768002)" stroke-width=".99628" stroke-linecap="butt" stroke-miterlimit="10" stroke-linejoin="miter" fill="none" stroke="#003e74" d="M223.89919 0H234.92523"/>
<path transform="matrix(1,0,0,-1,278.84385,24.768002)" d="M5.95149 0 1.60866 1.6449 3.05444 0 1.60866-1.6449Z" fill="#003e74"/>
<path transform="matrix(1,0,0,-1,278.84385,24.768002)" stroke-width=".99628" stroke-linecap="butt" stroke-miterlimit="10" stroke-linejoin="miter" fill="none" stroke="#003e74" d="M5.95149 0 1.60866 1.6449 3.05444 0 1.60866-1.6449Z"/>
<use data-text="h" xlink:href="#font_2_8" transform="matrix(6.9738,0,0,-6.9738,11.291,51.946)" fill="#555555"/>
<use data-text="o" xlink:href="#font_2_13" transform="matrix(6.9738,0,0,-6.9738,15.496202,51.946)" fill="#555555"/>
<use data-text="w" xlink:href="#font_2_21" transform="matrix(6.9738,0,0,-6.9738,19.701405,51.946)" fill="#555555"/>
<use data-text="m" xlink:href="#font_2_11" transform="matrix(6.9738,0,0,-6.9738,27.937464,51.946)" fill="#555555"/>
<use data-text="a" xlink:href="#font_2_1" transform="matrix(6.9738,0,0,-6.9738,34.604417,51.946)" fill="#555555"/>
<use data-text="n" xlink:href="#font_2_12" transform="matrix(6.9738,0,0,-6.9738,38.809617,51.946)" fill="#555555"/>
<use data-text="y" xlink:href="#font_2_22" transform="matrix(6.9738,0,0,-6.9738,43.426275,51.946)" fill="#555555"/>
<use data-text="t" xlink:href="#font_2_19" transform="matrix(6.9738,0,0,-6.9738,50.2327,51.946)" fill="#555555"/>
<use data-text="r" xlink:href="#font_2_17" transform="matrix(6.9738,0,0,-6.9738,53.008275,51.946)" fill="#555555"/>
<use data-text="i" xlink:href="#font_2_24" transform="matrix(6.9738,0,0,-6.9738,56.495176,51.946)" fill="#555555"/>
<use data-text="p" xlink:href="#font_2_14" transform="matrix(6.9738,0,0,-6.9738,59.06153,51.946)" fill="#555555"/>
<use data-text="s" xlink:href="#font_2_18" transform="matrix(6.9738,0,0,-6.9738,63.26673,51.946)" fill="#555555"/>
<use data-text="d" xlink:href="#font_2_5" transform="matrix(6.9738,0,0,-6.9738,11.291,59.916)" fill="#555555"/>
<use data-text="o" xlink:href="#font_2_13" transform="matrix(6.9738,0,0,-6.9738,15.496202,59.916)" fill="#555555"/>
<use data-text="e" xlink:href="#font_2_6" transform="matrix(6.9738,0,0,-6.9738,19.28995,59.916)" fill="#555555"/>
<use data-text="s" xlink:href="#font_2_18" transform="matrix(6.9738,0,0,-6.9738,23.083697,59.916)" fill="#555555"/>
<use data-text="e" xlink:href="#font_2_6" transform="matrix(6.9738,0,0,-6.9738,29.276432,59.916)" fill="#555555"/>
<use data-text="a" xlink:href="#font_2_1" transform="matrix(6.9738,0,0,-6.9738,32.6657,59.916)" fill="#555555"/>
<use data-text="c" xlink:href="#font_2_3" transform="matrix(6.9738,0,0,-6.9738,36.8709,59.916)" fill="#555555"/>
<use data-text="h" xlink:href="#font_2_8" transform="matrix(6.9738,0,0,-6.9738,40.664648,59.916)" fill="#555555"/>
<use data-text="z" xlink:href="#font_2_23" transform="matrix(6.9738,0,0,-6.9738,47.673315,59.916)" fill="#555555"/>
<use data-text="o" xlink:href="#font_2_13" transform="matrix(6.9738,0,0,-6.9738,51.06258,59.916)" fill="#555555"/>
<use data-text="n" xlink:href="#font_2_12" transform="matrix(6.9738,0,0,-6.9738,55.26778,59.916)" fill="#555555"/>
<use data-text="e" xlink:href="#font_2_6" transform="matrix(6.9738,0,0,-6.9738,59.884439,59.916)" fill="#555555"/>
<use data-text="m" xlink:href="#font_2_11" transform="matrix(6.9738,0,0,-6.9738,11.291,67.886)" fill="#555555"/>
<use data-text="a" xlink:href="#font_2_1" transform="matrix(6.9738,0,0,-6.9738,17.957955,67.886)" fill="#555555"/>
<use data-text="k" xlink:href="#font_2_9" transform="matrix(6.9738,0,0,-6.9738,22.163157,67.886)" fill="#555555"/>
<use data-text="e" xlink:href="#font_2_6" transform="matrix(6.9738,0,0,-6.9738,25.956904,67.886)" fill="#555555"/>
<use data-text="?" xlink:href="#font_2_16" transform="matrix(6.9738,0,0,-6.9738,29.75065,67.886)" fill="#555555"/>
<use data-text="w" xlink:href="#font_2_21" transform="matrix(6.9738,0,0,-6.9738,103.966999,51.946)" fill="#555555"/>
<use data-text="h" xlink:href="#font_2_8" transform="matrix(6.9738,0,0,-6.9738,109.39959,51.946)" fill="#555555"/>
<use data-text="e" xlink:href="#font_2_6" transform="matrix(6.9738,0,0,-6.9738,113.60479,51.946)" fill="#555555"/>
<use data-text="r" xlink:href="#font_2_17" transform="matrix(6.9738,0,0,-6.9738,117.39854,51.946)" fill="#555555"/>
<use data-text="e" xlink:href="#font_2_6" transform="matrix(6.9738,0,0,-6.9738,120.47398,51.946)" fill="#555555"/>
<use data-text="d" xlink:href="#font_2_5" transform="matrix(6.9738,0,0,-6.9738,127.0712,51.946)" fill="#555555"/>
<use data-text="o" xlink:href="#font_2_13" transform="matrix(6.9738,0,0,-6.9738,131.2764,51.946)" fill="#555555"/>
<use data-text="t" xlink:href="#font_2_19" transform="matrix(6.9738,0,0,-6.9738,138.28507,51.946)" fill="#555555"/>
<use data-text="h" xlink:href="#font_2_8" transform="matrix(6.9738,0,0,-6.9738,141.06763,51.946)" fill="#555555"/>
<use data-text="o" xlink:href="#font_2_13" transform="matrix(6.9738,0,0,-6.9738,145.27283,51.946)" fill="#555555"/>
<use data-text="s" xlink:href="#font_2_18" transform="matrix(6.9738,0,0,-6.9738,149.47104,51.946)" fill="#555555"/>
<use data-text="e" xlink:href="#font_2_6" transform="matrix(6.9738,0,0,-6.9738,152.86728,51.946)" fill="#555555"/>
<use data-text="t" xlink:href="#font_2_19" transform="matrix(6.9738,0,0,-6.9738,103.966999,59.916)" fill="#555555"/>
<use data-text="r" xlink:href="#font_2_17" transform="matrix(6.9738,0,0,-6.9738,106.74257,59.916)" fill="#555555"/>
<use data-text="i" xlink:href="#font_2_24" transform="matrix(6.9738,0,0,-6.9738,110.22947,59.916)" fill="#555555"/>
<use data-text="p" xlink:href="#font_2_14" transform="matrix(6.9738,0,0,-6.9738,112.79583,59.916)" fill="#555555"/>
<use data-text="s" xlink:href="#font_2_18" transform="matrix(6.9738,0,0,-6.9738,117.00103,59.916)" fill="#555555"/>
<use data-text="g" xlink:href="#font_2_7" transform="matrix(6.9738,0,0,-6.9738,123.19376,59.916)" fill="#555555"/>
<use data-text="o" xlink:href="#font_2_13" transform="matrix(6.9738,0,0,-6.9738,126.98751,59.916)" fill="#555555"/>
<use data-text="?" xlink:href="#font_2_16" transform="matrix(6.9738,0,0,-6.9738,131.19272,59.916)" fill="#555555"/>
<use data-text="c" xlink:href="#font_2_3" transform="matrix(6.9738,0,0,-6.9738,196.644,51.946)" fill="#555555"/>
<use data-text="a" xlink:href="#font_2_1" transform="matrix(6.9738,0,0,-6.9738,200.02629,51.946)" fill="#555555"/>
<use data-text="r" xlink:href="#font_2_17" transform="matrix(6.9738,0,0,-6.9738,204.23149,51.946)" fill="#555555"/>
<use data-text="," xlink:href="#font_2_4" transform="matrix(6.9738,0,0,-6.9738,207.71839,51.946)" fill="#555555"/>
<use data-text="b" xlink:href="#font_2_2" transform="matrix(6.9738,0,0,-6.9738,213.08821,51.946)" fill="#555555"/>
<use data-text="u" xlink:href="#font_2_20" transform="matrix(6.9738,0,0,-6.9738,216.88196,51.946)" fill="#555555"/>
<use data-text="s" xlink:href="#font_2_18" transform="matrix(6.9738,0,0,-6.9738,221.29637,51.946)" fill="#555555"/>
<use data-text="," xlink:href="#font_2_4" transform="matrix(6.9738,0,0,-6.9738,224.68564,51.946)" fill="#555555"/>
<use data-text="r" xlink:href="#font_2_17" transform="matrix(6.9738,0,0,-6.9738,230.05547,51.946)" fill="#555555"/>
<use data-text="a" xlink:href="#font_2_1" transform="matrix(6.9738,0,0,-6.9738,233.13788,51.946)" fill="#555555"/>
<use data-text="i" xlink:href="#font_2_24" transform="matrix(6.9738,0,0,-6.9738,237.34308,51.946)" fill="#555555"/>
<use data-text="l" xlink:href="#font_2_10" transform="matrix(6.9738,0,0,-6.9738,239.90944,51.946)" fill="#555555"/>
<use data-text="." xlink:href="#font_2_15" transform="matrix(6.9738,0,0,-6.9738,242.07132,51.946)" fill="#555555"/>
<use data-text="." xlink:href="#font_2_15" transform="matrix(6.9738,0,0,-6.9738,245.86507,51.946)" fill="#555555"/>
<use data-text="." xlink:href="#font_2_15" transform="matrix(6.9738,0,0,-6.9738,249.65882,51.946)" fill="#555555"/>
<use data-text="?" xlink:href="#font_2_16" transform="matrix(6.9738,0,0,-6.9738,253.45256,51.946)" fill="#555555"/>
<use data-text="w" xlink:href="#font_2_21" transform="matrix(6.9738,0,0,-6.9738,289.32099,51.946)" fill="#555555"/>
<use data-text="h" xlink:href="#font_2_8" transform="matrix(6.9738,0,0,-6.9738,294.75358,51.946)" fill="#555555"/>
<use data-text="i" xlink:href="#font_2_24" transform="matrix(6.9738,0,0,-6.9738,298.95878,51.946)" fill="#555555"/>
<use data-text="c" xlink:href="#font_2_3" transform="matrix(6.9738,0,0,-6.9738,301.52513,51.946)" fill="#555555"/>
<use data-text="h" xlink:href="#font_2_8" transform="matrix(6.9738,0,0,-6.9738,305.31889,51.946)" fill="#555555"/>
<use data-text="r" xlink:href="#font_2_17" transform="matrix(6.9738,0,0,-6.9738,312.32756,51.946)" fill="#555555"/>
<use data-text="o" xlink:href="#font_2_13" transform="matrix(6.9738,0,0,-6.9738,315.40299,51.946)" fill="#555555"/>
<use data-text="a" xlink:href="#font_2_1" transform="matrix(6.9738,0,0,-6.9738,319.2037,51.946)" fill="#555555"/>
<use data-text="d" xlink:href="#font_2_5" transform="matrix(6.9738,0,0,-6.9738,323.4089,51.946)" fill="#555555"/>
<use data-text="s" xlink:href="#font_2_18" transform="matrix(6.9738,0,0,-6.9738,327.60713,51.946)" fill="#555555"/>
<use data-text="d" xlink:href="#font_2_5" transform="matrix(6.9738,0,0,-6.9738,333.80686,51.946)" fill="#555555"/>
<use data-text="o" xlink:href="#font_2_13" transform="matrix(6.9738,0,0,-6.9738,338.01206,51.946)" fill="#555555"/>
<use data-text="t" xlink:href="#font_2_19" transform="matrix(6.9738,0,0,-6.9738,345.02073,51.946)" fill="#555555"/>
<use data-text="h" xlink:href="#font_2_8" transform="matrix(6.9738,0,0,-6.9738,347.7963,51.946)" fill="#555555"/>
<use data-text="e" xlink:href="#font_2_6" transform="matrix(6.9738,0,0,-6.9738,352.0015,51.946)" fill="#555555"/>
<use data-text="y" xlink:href="#font_2_22" transform="matrix(6.9738,0,0,-6.9738,355.79527,51.946)" fill="#555555"/>
<use data-text="u" xlink:href="#font_2_20" transform="matrix(6.9738,0,0,-6.9738,289.32099,59.916)" fill="#555555"/>
<use data-text="s" xlink:href="#font_2_18" transform="matrix(6.9738,0,0,-6.9738,293.7354,59.916)" fill="#555555"/>
<use data-text="e" xlink:href="#font_2_6" transform="matrix(6.9738,0,0,-6.9738,297.1247,59.916)" fill="#555555"/>
<use data-text="?" xlink:href="#font_2_16" transform="matrix(6.9738,0,0,-6.9738,300.91847,59.916)" fill="#555555"/>
</svg>
