<svg xmlns="http://www.w3.org/2000/svg" xmlns:xlink="http://www.w3.org/1999/xlink" xmlns:inkscape="http://www.inkscape.org/namespaces/inkscape" version="1.1" width="189.32" height="99.672" viewBox="0 0 189.32 99.672">
<defs>
<path id="font_1_4" d="M.55999758 .14305115C.55999758 .15608216 .5469971 .15608216 .5439911 .15608216 .5299988 .15608216 .5289917 .15107727 .5249939 .13905335 .5039978 .07002258 .44400025 .018234253 .3880005 .018234253 .34799195 .018234253 .32699586 .04508972 .32699586 .08302307 .32699586 .10900879 .35099793 .20018006 .3789978 .31140138 .39898683 .38841249 .44400025 .4133911 .47698976 .4133911 .47698976 .4133911 .5099945 .4133911 .5309906 .39941407 .49899293 .39041139 .4869995 .3624115 .4869995 .34440614 .4869995 .32240296 .5039978 .30740357 .5269928 .30740357 .5499878 .30740357 .58299258 .32640077 .58299258 .3684082 .58299258 .4243927 .5189972 .44140626 .47898866 .44140626 .42900086 .44140626 .3889923 .4084015 .36698915 .3704071 .34899903 .4113922 .30299378 .44140626 .24699402 .44140626 .1349945 .44140626 .070999149 .31840516 .070999149 .2883606 .070999149 .27534486 .084991458 .27534486 .08799744 .27534486 .100997928 .27534486 .101989749 .27934266 .10699463 .29237367 .13198853 .3704071 .19499207 .4133911 .24398804 .4133911 .2769928 .4133911 .3039856 .395401 .3039856 .3474121 .3039856 .32740785 .2919922 .27734376 .2829895 .24327088L.24899292 .10601807C.23899842 .072021488 .20599365 .018234253 .15499878 .018234253 .1519928 .018234253 .12199402 .018234253 .100997928 .03215027 .14199829 .04508972 .14498902 .08100891 .14498902 .087020877 .14498902 .10900879 .12799073 .12402344 .10499573 .12402344 .07699585 .12402344 .04798889 .10002136 .04798889 .0630188 .04798889 .01322937 .10398865-.009765625 .15299988-.009765625 .19898987-.009765625 .23999024 .019226075 .2649994 .061019899 .2889862 .008224487 .34399415-.009765625 .38398744-.009765625 .49899293-.009765625 .55999758 .11502075 .55999758 .14305115Z"/>
<path id="font_1_2" d="M.6199951 .14328003C.6199951 .15628052 .6069946 .15628052 .60398867 .15628052 .58999636 .15628052 .58898928 .15028382 .58499148 .13928223 .56199648 .059249879 .5179901 .018234253 .47898866 .018234253 .45799256 .018234253 .45399476 .032226564 .45399476 .053237916 .45399476 .07624817 .45899964 .089263919 .47698976 .13427735 .4889984 .1652832 .5299988 .2713318 .5299988 .32736207 .5299988 .34336854 .5299988 .38539125 .49299623 .4143982 .47599793 .42739869 .44699098 .44140626 .3999939 .44140626 .32699586 .44140626 .27398683 .4013977 .23699951 .35836793L.31298829 .66430667C.31399537 .66630557 .31698609 .68029788 .31698609 .68029788 .31698609 .68530276 .31298829 .6943054 .30099488 .6943054 .2809906 .6943054 .19799805 .6863098 .17298889 .6843109 .16499329 .68330386 .15098572 .682312 .15098572 .66130068 .15098572 .64730837 .16499329 .64730837 .1769867 .64730837 .22499085 .64730837 .22499085 .64030459 .22499085 .63230898 .22499085 .62532046 .22299195 .61932376 .22099304 .61032107L.07998657 .04423523C.07499695 .026229859 .07499695 .022232056 .07499695 .022232056 .07499695 .007232666 .08699036-.009765625 .10899353-.009765625 .11999512-.009765625 .13899231-.004776001 .1499939 .016220093 .15299988 .022232056 .1619873 .058242799 .16699219 .07925415L.18998719 .16828919C.19299317 .18330384 .20298767 .22131348 .20599365 .23632813 .21598816 .27433778 .21598816 .27534486 .23599243 .3073578 .2679901 .35636903 .31799317 .4133911 .3959961 .4133911 .45199586 .4133911 .45498658 .36738587 .45498658 .34336854 .45498658 .28334046 .4119873 .17228699 .3959961 .13027954 .3849945 .102264408 .3809967 .09326172 .3809967 .07624817 .3809967 .023223877 .4249878-.009765625 .47599793-.009765625 .57598879-.009765625 .6199951 .12828064 .6199951 .14328003Z"/>
<path id="font_2_1" d="M.43699647 .5286255 .2849884 .6904297 .1329956 .5286255 .1459961 .51464846 .2849884 .6225128 .42399598 .51464846 .43699647 .5286255Z"/>
<path id="font_1_5" d="M.55599978 .37738038C.55999758 .39138795 .55999758 .39338685 .55999758 .3993988 .55999758 .41940309 .5439911 .43139649 .5269928 .43139649 .5159912 .43139649 .49699403 .4263916 .48599244 .4073944 .48298646 .4013977 .47499085 .36938478 .46998597 .34936524L.44898988 .2663269 .40899659 .105270389C.40899659 .105270389 .3639984 .018234253 .28599549 .018234253 .21798706 .018234253 .21798706 .08325195 .21798706 .101257327 .21798706 .1552887 .24099732 .2183075 .2709961 .29534913 .2829895 .32736207 .28799439 .33937074 .28799439 .35636903 .28799439 .40438844 .24699402 .44140626 .19299317 .44140626 .09199524 .44140626 .04699707 .3053589 .04699707 .28834535 .04699707 .27534486 .06098938 .27534486 .06399536 .27534486 .07798767 .27534486 .07899475 .28033448 .08198547 .29135133 .10699463 .3743744 .1499939 .4133911 .18998719 .4133911 .20698548 .4133911 .21499634 .40238954 .21499634 .37838746 .21499634 .3553772 .20599365 .33335877 .20098877 .32035829 .15299988 .19830323 .14299011 .1612854 .14299011 .117263797 .14299011 .1002655 .14299011 .053237916 .18199158 .021224976 .21299744-.004776001 .25498963-.009765625 .28199769-.009765625 .32199098-.009765625 .35798646 .0052337648 .3909912 .035232545 .37799073-.01977539 .36698915-.061782838 .32499696-.11178589 .2979889-.14279175 .2579956-.17578125 .20498657-.17578125 .19799805-.17578125 .15098572-.17578125 .12998963-.14279175 .18399048-.13679505 .18399048-.08778381 .18399048-.08778381 .18399048-.055786134 .15499878-.04978943 .14498902-.04978943 .11999512-.04978943 .08699036-.0697937 .08699036-.11578369 .08699036-.16679383 .1349945-.20379639 .20599365-.20379639 .30699159-.20379639 .42999269-.12579346 .46099855-.00077819827L.55599978 .37738038Z"/>
<path id="font_1_1" d="M.72099307 .24888611C.72099307 .25187684 .71899417 .26287843 .70399478 .26287843 .69200137 .26287843 .6899872 .25787355 .6839905 .24188233 .6459961 .14694214 .60198977 .035995485 .4189911 .035995485H.30599977C.2749939 .035995485 .27398683 .036987306 .27398683 .04598999 .27398683 .04598999 .27398683 .051986696 .27799989 .066970828L.4119873 .600708C.42099 .63668826 .42399598 .64668276 .5159912 .64668276 .5469971 .64668276 .5569916 .64668276 .5569916 .6686859 .5569916 .6686859 .55599978 .6826782 .5399933 .6826782 .5169983 .6826782 .48999024 .6806793 .46598817 .6796875L.38598634 .6786804 .31698609 .6796875C.29599 .6796875 .27198792 .6826782 .2519989 .6826782 .24598694 .6826782 .23098755 .6826782 .23098755 .66067507 .23098755 .64668276 .24299622 .64668276 .2630005 .64668276 .2630005 .64668276 .2829895 .64668276 .30099488 .64468386 .32199098 .64268496 .32398988 .64068606 .32398988 .6306915 .32398988 .6306915 .32398988 .623703 .31999208 .6087036L.18699646 .07797241C.17799378 .04399109 .17599488 .035995485 .09899902 .035995485 .08198547 .035995485 .068984989 .035995485 .068984989 .01499939 .068984989 0 .08099365 0 .09899902 0H.60198977C.6269989 0 .6279907 .0009918213 .6359863 .019989014 .6459961 .04698181 .72099307 .2408905 .72099307 .24888611Z"/>
<path id="font_1_3" d="M.7799988 .3633728C.7799988 .43840028 .7369995 .44239808 .7299957 .44239808 .70399478 .44239808 .6759949 .41540528 .6759949 .38938905 .6759949 .3723755 .6859894 .36437989 .69299319 .35836793 .71699526 .33836366 .7299957 .3103485 .7299957 .27833558 .7299957 .26533509 .6879883 .018234253 .5609894 .018234253 .47999574 .018234253 .47999574 .09025574 .47999574 .10726929 .47999574 .13427735 .48399354 .15028382 .49798585 .20730591L.526001 .3193512C.5329895 .3463745 .54499819 .39439393 .54499819 .3993988 .54499819 .41940309 .5289917 .43139649 .5119934 .43139649 .49299623 .43139649 .47499085 .41940309 .46899415 .40238954 .46598817 .39439393 .45599366 .35237123 .44898988 .32736207 .43499757 .27033998 .43499757 .26834107 .41999818 .21231079 .40699769 .1572876 .40499879 .14927674 .4039917 .120269779 .4079895 .1002655 .3999939 .08125305 .37599183 .051239015 .36299134 .035232545 .34298707 .018234253 .30899049 .018234253 .269989 .018234253 .21899414 .032226564 .21899414 .11026001 .21899414 .1612854 .24699402 .23532105 .2669983 .28634645 .28399659 .33036805 .28799439 .33937074 .28799439 .35636903 .28799439 .40438844 .24699402 .44140626 .19299317 .44140626 .09199524 .44140626 .04699707 .3053589 .04699707 .28834535 .04699707 .27534486 .06098938 .27534486 .06399536 .27534486 .07798767 .27534486 .07899475 .28033448 .08198547 .29135133 .10699463 .3743744 .1499939 .4133911 .18998719 .4133911 .20698548 .4133911 .21499634 .40238954 .21499634 .37838746 .21499634 .3553772 .20599365 .33335877 .20098877 .32035829 .14399719 .17430115 .14399719 .15428162 .14399719 .12327576 .14399719 .0052337648 .25099183-.009765625 .30499269-.009765625 .32398988-.009765625 .37298585-.009765625 .41799928 .057250978 .44099427 .01222229 .49598695-.009765625 .5569916-.009765625 .6459961-.009765625 .6899872 .06724548 .70999148 .10826111 .7529907 .19230652 .7799988 .3173523 .7799988 .3633728Z"/>
<path id="font_3_7" d="M.5019989 .6370239C.5019989 .67977908 .45599366 .7037811 .4039917 .7037811 .29499818 .7037811 .27198792 .58602908 .2659912 .55496218L.24198914 .43066407H.1659851C.147995 .43066407 .13598633 .43066407 .13598633 .4086609 .13598633 .39465333 .147995 .39465333 .1639862 .39465333H.23498535L.16999817 .039886476C.12998963-.17610169 .100997928-.17610169 .07899475-.17610169 .07499695-.17610169 .053985597-.17610169 .036987306-.16105652 .068984989-.14804077 .068984989-.12004089 .068984989-.11604309 .068984989-.08703613 .04499817-.08203125 .033996583-.08203125 .004989624-.08203125-.01701355-.106033328-.01701355-.13703919-.01701355-.18211365 .03199768-.20410156 .07798767-.20410156 .17399597-.20410156 .21299744-.076049808 .22599793-.028076172 .23498535 .0059051516 .24398804 .039886476 .25 .0738678L.30899049 .39465333H.40299989C.42099 .39465333 .43399049 .39465333 .43399049 .4166565 .43399049 .43066407 .41999818 .43066407 .40499879 .43066407H.31599427C.32699586 .4968109 .33898927 .55796816 .34399415 .57901 .35398866 .62802127 .3639984 .67578127 .4039917 .67578127 .41999818 .67578127 .43598939 .6718292 .44799806 .66197207 .42900086 .6540222 .41600038 .63601687 .41600038 .61602786 .41600038 .5870209 .43998719 .58203127 .45098878 .58203127 .47999574 .58203127 .5019989 .60601809 .5019989 .6370239Z"/>
<path id="font_3_11" d="M.57899478 .2693329C.57899478 .36637879 .5109863 .44140626 .4079895 .44140626 .2649994 .44140626 .12998963 .3023529 .12998963 .16229248 .12998963 .0602417 .20199585-.009765625 .30099488-.009765625 .44400025-.009765625 .57899478 .13027954 .57899478 .2693329M.5 .30334474C.5 .2693329 .4850006 .17329407 .44198609 .105270389 .41099549 .057250978 .35499574 .018234253 .3019867 .018234253 .27398683 .018234253 .20899964 .032226564 .20899964 .12828064 .20899964 .17228699 .22898865 .27734376 .2769928 .33937074 .31199647 .38638307 .36299134 .4133911 .40699769 .4133911 .44198609 .4133911 .5 .39239503 .5 .30334474Z"/>
<path id="font_3_13" d="M.55999758 .3723755C.55999758 .42340089 .49798585 .44140626 .43899537 .44140626 .4119873 .44140626 .35798646 .4393921 .30099488 .37338258 .2849884 .42840577 .23298645 .44140626 .20498657 .44140626 .1619873 .44140626 .13999939 .4133911 .125 .38838197 .10398865 .3553772 .08799744 .2943573 .08799744 .28834535 .08799744 .27534486 .100997928 .27534486 .10899353 .27534486 .1269989 .27534486 .12799073 .27633668 .1349945 .3043518 .1519928 .37338258 .17098999 .4133911 .20199585 .4133911 .23298645 .4133911 .23298645 .37738038 .23298645 .3653717 .23298645 .3463745 .21998596 .29534913 .21199036 .2603302L.18399048 .15229798C.18099976 .13728333 .17098999 .09927368 .16699219 .08425903 .1619873 .06225586 .15299988 .027236939 .15299988 .020233155 .15299988-.0017700195 .16899109-.009765625 .18399048-.009765625 .20599365-.009765625 .21899414 .0062408449 .22299195 .01423645 .22599793 .021240235 .23498535 .057250978 .23999024 .07826233L.2669983 .18630982C.27198792 .20831299 .27799989 .22932434 .2829895 .2513275 .2889862 .27534486 .2999878 .31835938 .34399415 .3683777 .3639984 .39138795 .3929901 .4133911 .43699647 .4133911 .44799806 .4133911 .48199464 .4123993 .5049896 .39639283 .48399354 .38638307 .47499085 .3683777 .47499085 .3513794 .47499085 .32336427 .49699403 .3173523 .5099945 .3173523 .5289917 .3173523 .55999758 .33135987 .55999758 .3723755Z"/>
<path id="font_3_16" d="M.79299929 .36437989C.79299929 .4393921 .7529907 .44239808 .74598696 .44239808 .7200012 .44239808 .69400027 .4163971 .69400027 .39138795 .69400027 .37738038 .70199587 .3703766 .70700076 .36437989 .72698977 .3443756 .73599246 .31835938 .73599246 .28933717 .73599246 .2513275 .70700076 .15628052 .68899539 .11427307 .6609955 .050247194 .625 .018234253 .57899478 .018234253 .548996 .018234253 .5019989 .030227662 .5019989 .104263309 .5019989 .13027954 .5069885 .1512909 .5189972 .20030213 .5479889 .3123474 .5479889 .31436158 .5499878 .32336427 .5569916 .34936524 .56900027 .39738465 .56900027 .4013977 .56900027 .4163971 .55799868 .43139649 .5369873 .43139649 .5049896 .43139649 .49598695 .40238954 .49198915 .38838197L.43899537 .17329407C.43299867 .14727783 .43199159 .13227844 .43199159 .121276859 .43099977 .09925842 .4119873 .06724548 .39898683 .051239015 .37399293 .018234253 .34799195 .018234253 .33799745 .018234253 .27799989 .018234253 .2539978 .056243898 .2539978 .10826111 .2539978 .15829468 .2769928 .22232056 .31199647 .3123474 .31799317 .32736207 .32199098 .33836366 .32199098 .3573761 .32199098 .4073944 .28199769 .44140626 .23298645 .44140626 .13398743 .44140626 .08799744 .3053589 .08799744 .28834535 .08799744 .27534486 .100997928 .27534486 .10899353 .27534486 .12098694 .27534486 .1269989 .27534486 .12998963 .28834535 .16099549 .39738465 .20599365 .4133911 .22999573 .4133911 .24699402 .4133911 .25498963 .40238954 .25498963 .38038636 .25498963 .3573761 .24798584 .34136964 .22999573 .29335023 .19499207 .2013092 .18299866 .15628052 .18299866 .121276859 .18299866 .017227173 .2669983-.009765625 .33599855-.009765625 .35598756-.009765625 .4039917-.008773804 .44499208 .054244996 .47698976-.003768921 .5439911-.009765625 .57598879-.009765625 .6499939-.009765625 .69599917 .04524231 .7279968 .11227417 .7589874 .17829895 .79299929 .3083496 .79299929 .36437989Z"/>
<path id="font_3_1" d="M.61099246 .14328003C.61099246 .15628052 .59799197 .15628052 .58999636 .15628052 .57199099 .15628052 .57099917 .15428162 .5649872 .12927246 .5509949 .07725525 .5339966 .018234253 .49699403 .018234253 .46899415 .018234253 .46499635 .048233034 .46499635 .06524658 .46499635 .08226013 .46499635 .08425903 .47099305 .10726929L.5369873 .37138368C.54100039 .38638307 .54100039 .38838197 .54100039 .39239503 .54100039 .4143982 .5249939 .4223938 .5099945 .4223938 .47698976 .4223938 .46699525 .38838197 .46598817 .38539125 .44099427 .4263916 .4039917 .44140626 .36799623 .44140626 .24598694 .44140626 .11898804 .300354 .11898804 .15428162 .11898804 .04724121 .18699646-.009765625 .26098634-.009765625 .32499696-.009765625 .37799073 .037231447 .397995 .058242799 .41099549 .010223389 .45799256-.009765625 .49398805-.009765625 .5249939-.009765625 .5509949 .0052337648 .57299807 .041229249 .5970001 .08026123 .61099246 .14027405 .61099246 .14328003M.44599916 .3023529 .4039917 .13627625C.3959961 .105270389 .37399293 .08125305 .35099793 .059249879 .30999757 .023223877 .2789917 .018234253 .2639923 .018234253 .21798706 .018234253 .19499207 .06124878 .19499207 .11326599 .19499207 .1552887 .21998596 .26533509 .24798584 .3193512 .27999879 .37838746 .32798768 .4133911 .36799623 .4133911 .43598939 .4133911 .44898988 .32635499 .44898988 .31636048 .44898988 .3133545 .44799806 .3093567 .44599916 .3023529Z"/>
<path id="font_3_5" d="M.62098696 .14328003C.62098696 .15628052 .60798647 .15628052 .59999087 .15628052 .58200076 .15628052 .58099368 .15428162 .57499697 .12927246 .5609894 .07725525 .5439911 .018234253 .5069885 .018234253 .47898866 .018234253 .47499085 .048233034 .47499085 .06524658 .47499085 .08226013 .47999574 .103256229 .48098756 .10626221L.62098696 .66529849C.621994 .6693115 .6239929 .67630007 .6239929 .68029788 .6239929 .6953125 .60798647 .6943054 .5970001 .69329836L.4889984 .6843109C.47599793 .68330386 .46299745 .682312 .46299745 .66130068 .46299745 .64730837 .47599793 .64730837 .4889984 .64730837 .5369873 .64730837 .5369873 .64030459 .5369873 .63131716 .5369873 .62831118 .5369873 .62631228 .5329895 .61231997L.47698976 .38539125C.45399476 .4203949 .41999818 .44140626 .37799073 .44140626 .2559967 .44140626 .1289978 .300354 .1289978 .15428162 .1289978 .04724121 .19699097-.009765625 .2709961-.009765625 .33499146-.009765625 .3880005 .037231447 .4079895 .058242799 .42099 .010223389 .46798707-.009765625 .5039978-.009765625 .5349884-.009765625 .5609894 .0052337648 .58299258 .041229249 .6069946 .08026123 .62098696 .14027405 .62098696 .14328003M.45599366 .3023529 .4139862 .13627625C.4059906 .105270389 .38398744 .08125305 .36099244 .059249879 .31999208 .023223877 .2889862 .018234253 .27398683 .018234253 .22799683 .018234253 .20498657 .06124878 .20498657 .11326599 .20498657 .1552887 .22999573 .26533509 .2579956 .3193512 .2899933 .37838746 .33799745 .4133911 .37799073 .4133911 .44599916 .4133911 .45899964 .32635499 .45899964 .31636048 .45899964 .3133545 .45799256 .3093567 .45599366 .3023529Z"/>
<path id="font_3_4" d="M.33599855 .38365174C.33599855 .4086609 .31799317 .43066407 .28799439 .43066407 .2519989 .43066407 .21798706 .3976593 .21798706 .36265565 .21798706 .33766175 .23599243 .31565858 .2659912 .31565858 .30299378 .31565858 .33599855 .35066224 .33599855 .38365174M.25698854 .067993167C.25698854 .09298706 .23899842 .114990238 .20899964 .114990238 .17298889 .114990238 .13899231 .08198547 .13899231 .04699707 .13899231 .021987915 .15699768 0 .18699646 0 .22399903 0 .25698854 .034988405 .25698854 .067993167Z"/>
<path id="font_3_12" d="M.5799866 .27734376C.5799866 .37838746 .5159912 .44140626 .43798829 .44140626 .37298585 .44140626 .31999208 .39439393 .30099488 .37338258 .2849884 .42840577 .23298645 .44140626 .20498657 .44140626 .1619873 .44140626 .13999939 .4133911 .125 .38838197 .10398865 .3553772 .08799744 .29434205 .08799744 .28834535 .08799744 .27534486 .100997928 .27534486 .10899353 .27534486 .1269989 .27534486 .12799073 .27633668 .1349945 .3043518 .1519928 .37338258 .17098999 .4133911 .20199585 .4133911 .23298645 .4133911 .23298645 .37738038 .23298645 .3653717 .23298645 .35437013 .23298645 .34736634 .22898865 .33135987L.115997318-.12246704C.10899353-.15138245 .102996829-.15736389 .06599426-.15736389 .051986696-.15736389 .039993287-.15736389 .039993287-.17936707 .039993287-.18836975 .04598999-.19335938 .053985597-.19335938 .07998657-.19335938 .11099243-.18936157 .13798523-.18936157 .17098999-.18936157 .20799256-.19335938 .23999024-.19335938 .24499512-.19335938 .2599945-.19335938 .2599945-.17236328 .2599945-.15736389 .25-.15736389 .23098755-.15736389 .21299744-.15736389 .18598938-.15736389 .18598938-.145401 .18598938-.13941956 .19099427-.116485599 .19499207-.10151672L.23199463 .04623413C.24598694 .024230957 .2769928-.009765625 .33099366-.009765625 .45399476-.009765625 .5799866 .13327027 .5799866 .27734376M.5039978 .3193512C.5039978 .2693329 .47599793 .16029358 .45199586 .11526489 .40899659 .036239625 .35798646 .018234253 .33099366 .018234253 .2639923 .018234253 .25 .101257327 .25 .11526489 .25 .119277957 .25099183 .121276859 .25299073 .13027954L.2939911 .29534913C.30299378 .33236695 .37199403 .4133911 .43499757 .4133911 .47999574 .4133911 .5039978 .37138368 .5039978 .3193512Z"/>
<path id="font_3_6" d="M.54100039 .097335819C.54100039 .10534668 .5269928 .12136841 .5179901 .12136841 .5130005 .12136841 .5099945 .11836243 .5029907 .11035156 .44198609 .037246705 .35499574 .018234253 .30499269 .018234253 .23999024 .018234253 .21199036 .07330322 .21199036 .13638306 .21199036 .16741944 .21798706 .19847107 .22499085 .22851563H.2869873C.32998658 .22851563 .5269928 .22851563 .5269928 .35343934 .5269928 .40740968 .47599793 .44140626 .4059906 .44140626 .2939911 .44140626 .1349945 .35144044 .1349945 .1754303 .1349945 .07029724 .19699097-.009765625 .30499269-.009765625 .46398927-.009765625 .54100039 .08432007 .54100039 .097335819M.47898866 .3544464C.47898866 .2565155 .31900025 .2565155 .27999879 .2565155H.23298645C.27799989 .4113922 .3939972 .4133911 .4059906 .4133911 .44799806 .4133911 .47898866 .39041139 .47898866 .3544464Z"/>
<path id="font_3_17" d="M.38598634 .14328003C.38598634 .15628052 .37298585 .15628052 .36499024 .15628052 .34700013 .15628052 .34599305 .1532898 .34098817 .13528443 .32798768 .087249759 .29499818 .018234253 .24398804 .018234253 .21998596 .018234253 .21998596 .042236329 .21998596 .052246095 .21998596 .07624817 .23699951 .119277957 .25 .1512909L.31599427 .32435609C.32199098 .34136964 .32199098 .3443756 .32199098 .3573761 .32199098 .40238954 .2869873 .44140626 .23199463 .44140626 .13398743 .44140626 .08799744 .3063507 .08799744 .28834535 .08799744 .27534486 .100997928 .27534486 .10899353 .27534486 .12098694 .27534486 .1269989 .27534486 .12998963 .28834535 .16299439 .40438844 .21099854 .4133911 .22898865 .4133911 .24099732 .4133911 .2539978 .4104004 .2539978 .37937928 .2539978 .3573761 .24598694 .33737184 .23799134 .31636048L.21099854 .24732971 .17599488 .15428162C.1659851 .12828064 .1519928 .09225464 .1519928 .07424927 .1519928 .02822876 .18798828-.009765625 .24099732-.009765625 .34098817-.009765625 .38598634 .12727356 .38598634 .14328003M.3919983 .6092377C.3919983 .63723757 .37098695 .65625 .34399415 .65625 .30599977 .65625 .27398683 .62124636 .27398683 .5882416 .27398683 .5632477 .29299928 .5412445 .32199098 .5412445 .35798646 .5412445 .3919983 .57424929 .3919983 .6092377Z"/>
<path id="font_3_3" d="M.54100039 .09715271C.54100039 .105148319 .5269928 .12113953 .5179901 .12113953 .5130005 .12113953 .5099945 .1181488 .5029907 .1101532 .44198609 .037216188 .35499574 .018234253 .30499269 .018234253 .25498963 .018234253 .20899964 .047195436 .20899964 .12812805 .20899964 .1750946 .23098755 .28100587 .2769928 .33898927 .31698609 .39015199 .36499024 .4133911 .4079895 .4133911 .4249878 .4133911 .46798707 .40834046 .4850006 .37701417 .45599366 .36898805 .44599916 .34498597 .44599916 .32798768 .44599916 .31199647 .45700074 .29499818 .48199464 .29499818 .49899293 .29499818 .5319977 .30599977 .5319977 .35398866 .5319977 .41940309 .46199037 .44140626 .40699769 .44140626 .2669983 .44140626 .12998963 .3039856 .12998963 .16210938 .12998963 .06819153 .19299317-.009765625 .3039856-.009765625 .46499635-.009765625 .54100039 .08416748 .54100039 .09715271Z"/>
<path id="font_3_15" d="M.4149933 .14404297C.4149933 .15602112 .4019928 .15602112 .394989 .15602112 .3789978 .15602112 .37799073 .15402222 .37199403 .14004517 .32499696 .034194948 .272995 .018234253 .24598694 .018234253 .21199036 .018234253 .21199036 .05517578 .21199036 .06515503 .21199036 .0821228 .21699524 .10310364 .21798706 .10609436L.2899933 .39465333H.3889923C.40699769 .39465333 .4189911 .39465333 .4189911 .4166565 .4189911 .43066407 .40699769 .43066407 .3909912 .43066407H.29899598L.33499146 .5749054C.33898927 .5889282 .33898927 .5909271 .33898927 .5949402 .33898927 .6129761 .32499696 .625 .30699159 .625 .272995 .625 .2649994 .5919342 .2630005 .58291628L.22499085 .43066407H.12599182C.10798645 .43066407 .09599304 .43066407 .09599304 .4086609 .09599304 .39465333 .10798645 .39465333 .12399292 .39465333H.21598816L.14698792 .11807251C.14199829 .098098758 .14199829 .09111023 .14199829 .084121707 .14199829 .022216797 .19099427-.009765625 .24299622-.009765625 .35099793-.009765625 .4149933 .12806702 .4149933 .14404297Z"/>
<path id="font_3_2" d="M.5209961 .27833558C.5209961 .37838746 .45799256 .44140626 .3789978 .44140626 .32499696 .44140626 .2829895 .4084015 .2599945 .39038087L.32899476 .66529849C.32998658 .6693115 .33198548 .67630007 .33198548 .68029788 .33198548 .6953125 .31599427 .6943054 .30499269 .69329836L.19699097 .6843109C.18399048 .68330386 .17098999 .682312 .17098999 .66130068 .17098999 .64730837 .18399048 .64730837 .19699097 .64730837 .24499512 .64730837 .24499512 .64030459 .24499512 .63131716 .24499512 .62532046 .24499512 .62332156 .24099732 .60931399L.14399719 .22331238C.1349945 .18730164 .1349945 .16429138 .1349945 .1512909 .1349945 .04524231 .19999695-.009765625 .27198792-.009765625 .394989-.009765625 .5209961 .13327027 .5209961 .27833558M.44499208 .3193512C.44499208 .2733307 .4169922 .1612854 .3919983 .11427307 .35499574 .04423523 .30499269 .018234253 .272995 .018234253 .23098755 .018234253 .20098877 .054244996 .20098877 .119277957 .20098877 .17228699 .23799134 .3063507 .24398804 .31636048 .27398683 .36437989 .32699586 .4133911 .3769989 .4133911 .42399598 .4133911 .44499208 .36738587 .44499208 .3193512Z"/>
<path id="font_3_9" d="M.56199648 .14329529C.56199648 .15629578 .548996 .15629578 .54100039 .15629578 .522995 .15629578 .5219879 .1532898 .5169983 .1362915 .5049896 .087265018 .48199464 .018234253 .43699647 .018234253 .41600038 .018234253 .40299989 .031234742 .40299989 .06825256 .40299989 .072250369 .40299989 .089263919 .40899659 .11328125 .4119873 .12828064 .4139862 .1402893 .4139862 .14628601 .4139862 .22232056 .32598878 .24433899 .2639923 .25234986 .2669983 .25434876 .29699708 .27334596 .34899903 .32537843 .394989 .3703766 .44198609 .4133911 .49198915 .4133911 .5089874 .4133911 .5169983 .40538026 .519989 .39938355 .49899293 .39337159 .48199464 .37538148 .48199464 .3513794 .48199464 .32337953 .5039978 .3173828 .5169983 .3173828 .54299929 .3173828 .56799319 .3383789 .56799319 .3743744 .56799319 .4093933 .5419922 .44140626 .49398805 .44140626 .44499208 .44140626 .39898683 .4113922 .34098817 .3533783 .2829895 .29637147 .25698854 .277359 .22898865 .26535035L.32899476 .66529849C.32998658 .6693115 .33198548 .67630007 .33198548 .68029788 .33198548 .6953125 .31599427 .6943054 .30499269 .69329836L.19699097 .6843109C.18399048 .68330386 .17098999 .682312 .17098999 .66130068 .17098999 .64730837 .18399048 .64730837 .19699097 .64730837 .24499512 .64730837 .24499512 .64030459 .24499512 .63131716 .24499512 .62731936 .24198914 .613327 .24099732 .60832217L.09899902 .041244508C.09498596 .027236939 .09498596 .025222779 .09498596 .020233155 .09498596 .0012207031 .10899353-.009765625 .1269989-.009765625 .1599884-.009765625 .16699219 .019226075 .17199707 .038238527L.21899414 .22633362C.27198792 .22132874 .33999635 .20132447 .33999635 .14428711 .33999635 .1382904 .33999635 .13427735 .33699037 .119277957 .33299256 .104263309 .33299256 .10127258 .33299256 .09126282 .33299256 .037231447 .37199403-.009765625 .43399049-.009765625 .5299988-.009765625 .56199648 .1402893 .56199648 .14329529Z"/>
<path id="font_3_8" d="M.43798829-.06404114 .54599 .37135316C.5499878 .3863678 .5499878 .3883667 .5499878 .39237977 .5499878 .4143982 .5339966 .4223938 .5189972 .4223938 .49798585 .4223938 .48098756 .4073944 .47499085 .38737489 .45098878 .4243927 .41600038 .44140626 .3769989 .44140626 .25498963 .44140626 .12998963 .3012848 .12998963 .16113281 .12998963 .06903076 .18899536 0 .272995 0 .32299806 0 .36499024 .026992798 .3919983 .05001831L.36099244-.07304382C.35299684-.094055179 .31599427-.17610169 .21299744-.17610169 .19898987-.17610169 .1639862-.17610169 .13999939-.167099 .1639862-.15309143 .1639862-.12608338 .1639862-.12608338 .1639862-.10606384 .1499939-.092056278 .12799073-.092056278 .102996829-.092056278 .07798767-.11306763 .07798767-.14608765 .07798767-.19911194 .14199829-.20410156 .20999146-.20410156 .35398866-.20410156 .42199708-.1270752 .43798829-.06404114M.4149933 .14111328C.40699769 .110076908 .33999635 .027999878 .27598573 .027999878 .22999573 .027999878 .20698548 .06903076 .20698548 .12109375 .20698548 .16313172 .23199463 .2752533 .2630005 .3283081 .2979889 .3883667 .34399415 .4133911 .3769989 .4133911 .44599916 .4133911 .45799256 .32731629 .45799256 .31829835L.45498658 .30429078 .4149933 .14111328Z"/>
<path id="font_3_10" d="M.6799927 .14328003C.6799927 .15628052 .6669922 .15628052 .6589966 .15628052 .6409912 .15628052 .6399994 .1532898 .6349945 .13528443 .6179962 .07325745 .58200076 .018234253 .5379944 .018234253 .5239868 .018234253 .5130005 .025222779 .5130005 .052246095 .5130005 .07424927 .5219879 .0962677 .5299988 .119277957 .5479889 .16629029 .58999636 .27534486 .58999636 .33036805 .58999636 .4084015 .5359955 .44140626 .46699525 .44140626 .3880005 .44140626 .33399964 .39439393 .3039856 .35636903 .29699708 .41740418 .24499512 .44140626 .20498657 .44140626 .1619873 .44140626 .13999939 .4133911 .125 .38838197 .10398865 .3553772 .08799744 .29434205 .08799744 .28834535 .08799744 .27534486 .100997928 .27534486 .10899353 .27534486 .1269989 .27534486 .12799073 .27633668 .1349945 .3043518 .1519928 .37338258 .17098999 .4133911 .20199585 .4133911 .23298645 .4133911 .23298645 .37738038 .23298645 .3653717 .23298645 .3463745 .21998596 .29534913 .21199036 .2603302L.18399048 .15228272C.18099976 .13728333 .17098999 .09925842 .16699219 .08425903 .1619873 .0622406 .15299988 .027236939 .15299988 .020233155 .15299988-.0017700195 .16899109-.009765625 .18399048-.009765625 .21798706-.009765625 .22499085 .020233155 .22898865 .035232545L.2519989 .12426758C.25498963 .13928223 .2649994 .17729187 .2679901 .19230652 .2709961 .20230103 .28399659 .2523346 .2849884 .25933839 .2869873 .26533509 .31698609 .33135987 .35798646 .36938478 .3880005 .39639283 .4229889 .4133911 .46299745 .4133911 .5089874 .4133911 .519989 .37838746 .519989 .34536744 .519989 .28634645 .47299195 .1652832 .45599366 .119277957 .44599916 .09425354 .44599916 .087249759 .44599916 .07424927 .44599916 .020233155 .4889984-.009765625 .5349884-.009765625 .6349945-.009765625 .6799927 .12727356 .6799927 .14328003Z"/>
<path id="font_3_14" d="M.45399476 .15612793C.45399476 .18611145 .44099427 .21409607 .4169922 .2350769 .3880005 .25906373 .36299134 .2640686 .30899049 .2740631 .2789917 .28004457 .23498535 .28804017 .23498535 .32904054 .23498535 .3470459 .2519989 .4133911 .34700013 .4133911 .36999513 .4133911 .41299439 .4083557 .42900086 .3720398 .42399598 .3700409 .397995 .35603334 .397995 .33003236 .397995 .31703187 .40499879 .30003358 .42999269 .30003358 .44198609 .30003358 .47399903 .30604554 .47399903 .35403443 .47399903 .418396 .4059906 .44140626 .34799195 .44140626 .20498657 .44140626 .17199707 .33303834 .17199707 .29403688 .17199707 .21308899 .25099183 .19810486 .28799439 .19111634 .33499146 .18211365 .3909912 .17211914 .3909912 .121154788 .3909912 .094177249 .3659973 .018234253 .24598694 .018234253 .21499634 .018234253 .15699768 .024215699 .13598633 .06719971 .17098999 .076187137 .1769867 .105163577 .1769867 .11616516 .1769867 .1351471 .16299439 .1491394 .14199829 .1491394 .114990238 .1491394 .08999634 .12915039 .08999634 .08717346 .08999634 .02722168 .1519928-.009765625 .24398804-.009765625 .4149933-.009765625 .45399476 .11116028 .45399476 .15612793Z"/>
</defs>
<path transform="matrix(1,0,0,-1,17.531,47.000997)" d="M9.21269 0C9.21269 5.08807 5.08807 9.21269 0 9.21269-5.08807 9.21269-9.21269 5.08807-9.21269 0-9.21269-5.08807-5.08807-9.21269 0-9.21269 5.08807-9.21269 9.21269-5.08807 9.21269 0ZM0 0" fill="#dee8f2"/>
<path transform="matrix(1,0,0,-1,17.531,47.000997)" stroke-width=".69739" stroke-linecap="butt" stroke-miterlimit="10" stroke-linejoin="miter" fill="none" stroke="#555555" d="M9.21269 0C9.21269 5.08807 5.08807 9.21269 0 9.21269-5.08807 9.21269-9.21269 5.08807-9.21269 0-9.21269-5.08807-5.08807-9.21269 0-9.21269 5.08807-9.21269 9.21269-5.08807 9.21269 0ZM0 0"/>
<use data-text="x" xlink:href="#font_1_4" transform="matrix(6.9738,0,0,-6.9738,15.272,48.502)"/>
<path transform="matrix(1,0,0,-1,17.531,47.000997)" d="M60.93414 0C60.93414 5.08807 56.80952 9.21269 51.72144 9.21269 46.63335 9.21269 42.50874 5.08807 42.50874 0 42.50874-5.08807 46.63335-9.21269 51.72144-9.21269 56.80952-9.21269 60.93414-5.08807 60.93414 0ZM51.72144 0" fill="#eee6d4"/>
<path transform="matrix(1,0,0,-1,17.531,47.000997)" stroke-width=".69739" stroke-linecap="butt" stroke-miterlimit="10" stroke-linejoin="miter" fill="none" stroke="#555555" d="M60.93414 0C60.93414 5.08807 56.80952 9.21269 51.72144 9.21269 46.63335 9.21269 42.50874 5.08807 42.50874 0 42.50874-5.08807 46.63335-9.21269 51.72144-9.21269 56.80952-9.21269 60.93414-5.08807 60.93414 0ZM51.72144 0"/>
<use data-text="h" xlink:href="#font_1_2" transform="matrix(6.9738,0,0,-6.9738,66.92,49.421998)"/>
<path transform="matrix(1,0,0,-1,17.531,47.000997)" d="M112.6556 0C112.6556 5.08807 108.53098 9.21269 103.44289 9.21269 98.3548 9.21269 94.23018 5.08807 94.23018 0 94.23018-5.08807 98.3548-9.21269 103.44289-9.21269 108.53098-9.21269 112.6556-5.08807 112.6556 0ZM103.44289 0" fill="#c7dfdb"/>
<path transform="matrix(1,0,0,-1,17.531,47.000997)" stroke-width=".69739" stroke-linecap="butt" stroke-miterlimit="10" stroke-linejoin="miter" fill="none" stroke="#555555" d="M112.6556 0C112.6556 5.08807 108.53098 9.21269 103.44289 9.21269 98.3548 9.21269 94.23018 5.08807 94.23018 0 94.23018-5.08807 98.3548-9.21269 103.44289-9.21269 108.53098-9.21269 112.6556-5.08807 112.6556 0ZM103.44289 0"/>
<use data-text="&#x02c6;" xlink:href="#font_2_1" transform="matrix(6.9738,0,0,-6.9738,119.41599,48.725)"/>
<use data-text="y" xlink:href="#font_1_5" transform="matrix(6.9738,0,0,-6.9738,118.82322,48.725)"/>
<path transform="matrix(1,0,0,-1,17.531,47.000997)" d="M159.43738 8.36041H149.98656C147.78562 8.36041 146.00145 6.57625 146.00145 4.3753V-4.3753C146.00145-6.57625 147.78562-8.36041 149.98656-8.36041H159.43738C161.63832-8.36041 163.42249-6.57625 163.42249-4.3753V4.3753C163.42249 6.57625 161.63832 8.36041 159.43738 8.36041ZM146.00145-8.36041" fill="#f7eaea"/>
<path transform="matrix(1,0,0,-1,17.531,47.000997)" stroke-width=".79701" stroke-linecap="butt" stroke-miterlimit="10" stroke-linejoin="miter" fill="none" stroke="#b23232" d="M159.43738 8.36041H149.98656C147.78562 8.36041 146.00145 6.57625 146.00145 4.3753V-4.3753C146.00145-6.57625 147.78562-8.36041 149.98656-8.36041H159.43738C161.63832-8.36041 163.42249-6.57625 163.42249-4.3753V4.3753C163.42249 6.57625 161.63832 8.36041 159.43738 8.36041ZM146.00145-8.36041"/>
<use data-text="L" xlink:href="#font_1_1" transform="matrix(6.9738,0,0,-6.9738,169.509,49.384)"/>
<path transform="matrix(1,0,0,-1,17.531,47.000997)" stroke-width=".99628" stroke-linecap="butt" stroke-miterlimit="10" stroke-linejoin="miter" fill="none" stroke="#003e74" d="M9.56139 0H37.59526"/>
<path transform="matrix(1,0,0,-1,52.32087,47.000997)" d="M5.95149 0 1.60866 1.6449 3.05444 0 1.60866-1.6449Z" fill="#003e74"/>
<path transform="matrix(1,0,0,-1,52.32087,47.000997)" stroke-width=".99628" stroke-linecap="butt" stroke-miterlimit="10" stroke-linejoin="miter" fill="none" stroke="#003e74" d="M5.95149 0 1.60866 1.6449 3.05444 0 1.60866-1.6449Z"/>
<use data-text="w" xlink:href="#font_1_3" transform="matrix(6.9738,0,0,-6.9738,40.416,43.181997)" fill="#555555"/>
<path transform="matrix(1,0,0,-1,17.531,47.000997)" stroke-width=".99628" stroke-linecap="butt" stroke-miterlimit="10" stroke-linejoin="miter" fill="none" stroke="#003e74" d="M61.28284 0H89.31671"/>
<path transform="matrix(1,0,0,-1,104.04232,47.000997)" d="M5.95149 0 1.60866 1.6449 3.05444 0 1.60866-1.6449Z" fill="#003e74"/>
<path transform="matrix(1,0,0,-1,104.04232,47.000997)" stroke-width=".99628" stroke-linecap="butt" stroke-miterlimit="10" stroke-linejoin="miter" fill="none" stroke="#003e74" d="M5.95149 0 1.60866 1.6449 3.05444 0 1.60866-1.6449Z"/>
<path transform="matrix(1,0,0,-1,17.531,47.000997)" stroke-width=".99628" stroke-linecap="butt" stroke-miterlimit="10" stroke-linejoin="miter" fill="none" stroke="#003e74" d="M113.00427 0H141.03816"/>
<path transform="matrix(1,0,0,-1,155.76378,47.000997)" d="M5.95149 0 1.60866 1.6449 3.05444 0 1.60866-1.6449Z" fill="#003e74"/>
<path transform="matrix(1,0,0,-1,155.76378,47.000997)" stroke-width=".99628" stroke-linecap="butt" stroke-miterlimit="10" stroke-linejoin="miter" fill="none" stroke="#003e74" d="M5.95149 0 1.60866 1.6449 3.05444 0 1.60866-1.6449Z"/>
<use data-text="f" xlink:href="#font_3_7" transform="matrix(6.9738,0,0,-6.9738,36.932,16.158997)" fill="#003e74"/>
<use data-text="o" xlink:href="#font_3_11" transform="matrix(6.9738,0,0,-6.9738,39.49836,16.158997)" fill="#003e74"/>
<use data-text="r" xlink:href="#font_3_13" transform="matrix(6.9738,0,0,-6.9738,43.70356,16.158997)" fill="#003e74"/>
<use data-text="w" xlink:href="#font_3_16" transform="matrix(6.9738,0,0,-6.9738,47.19046,16.158997)" fill="#003e74"/>
<use data-text="a" xlink:href="#font_3_1" transform="matrix(6.9738,0,0,-6.9738,52.62305,16.158997)" fill="#003e74"/>
<use data-text="r" xlink:href="#font_3_13" transform="matrix(6.9738,0,0,-6.9738,56.82825,16.158997)" fill="#003e74"/>
<use data-text="d" xlink:href="#font_3_5" transform="matrix(6.9738,0,0,-6.9738,59.903699,16.158997)" fill="#003e74"/>
<use data-text=":" xlink:href="#font_3_4" transform="matrix(6.9738,0,0,-6.9738,64.1089,16.158997)" fill="#003e74"/>
<use data-text="p" xlink:href="#font_3_12" transform="matrix(6.9738,0,0,-6.9738,70.47598,16.158997)" fill="#003e74"/>
<use data-text="r" xlink:href="#font_3_13" transform="matrix(6.9738,0,0,-6.9738,74.68118,16.158997)" fill="#003e74"/>
<use data-text="e" xlink:href="#font_3_6" transform="matrix(6.9738,0,0,-6.9738,77.75663,16.158997)" fill="#003e74"/>
<use data-text="d" xlink:href="#font_3_5" transform="matrix(6.9738,0,0,-6.9738,81.13892,16.158997)" fill="#003e74"/>
<use data-text="i" xlink:href="#font_3_17" transform="matrix(6.9738,0,0,-6.9738,85.344127,16.158997)" fill="#003e74"/>
<use data-text="c" xlink:href="#font_3_3" transform="matrix(6.9738,0,0,-6.9738,87.910488,16.158997)" fill="#003e74"/>
<use data-text="t" xlink:href="#font_3_15" transform="matrix(6.9738,0,0,-6.9738,91.70423,16.158997)" fill="#003e74"/>
<path transform="matrix(1,0,0,-1,17.531,47.000997)" stroke-width=".99628" stroke-linecap="butt" stroke-dasharray="2.98883,2.98883" stroke-miterlimit="10" stroke-linejoin="miter" fill="none" stroke="#b23232" d="M2.38396-13.53453C17.00824-37.90819 137.70372-37.10573 154.71198-8.75891"/>
<path transform="matrix(-.5145,-.85747,-.85747,.5145,21.37535,62.969438)" d="M6.05339 0 1.60873 1.68304 3.08754 0 1.60873-1.68304Z" fill="#b23232"/>
<path transform="matrix(-.5145,-.85747,-.85747,.5145,21.37535,62.969438)" stroke-width=".99628" stroke-linecap="butt" stroke-miterlimit="10" stroke-linejoin="miter" fill="none" stroke="#b23232" d="M6.05339 0 1.60873 1.68304 3.08754 0 1.60873-1.68304Z"/>
<use data-text="b" xlink:href="#font_3_2" transform="matrix(6.9738,0,0,-6.9738,35.933,87.024997)" fill="#b23232"/>
<use data-text="a" xlink:href="#font_3_1" transform="matrix(6.9738,0,0,-6.9738,39.315294,87.024997)" fill="#b23232"/>
<use data-text="c" xlink:href="#font_3_3" transform="matrix(6.9738,0,0,-6.9738,43.520494,87.024997)" fill="#b23232"/>
<use data-text="k" xlink:href="#font_3_9" transform="matrix(6.9738,0,0,-6.9738,47.31424,87.024997)" fill="#b23232"/>
<use data-text="w" xlink:href="#font_3_16" transform="matrix(6.9738,0,0,-6.9738,51.107988,87.024997)" fill="#b23232"/>
<use data-text="a" xlink:href="#font_3_1" transform="matrix(6.9738,0,0,-6.9738,56.540578,87.024997)" fill="#b23232"/>
<use data-text="r" xlink:href="#font_3_13" transform="matrix(6.9738,0,0,-6.9738,60.745779,87.024997)" fill="#b23232"/>
<use data-text="d" xlink:href="#font_3_5" transform="matrix(6.9738,0,0,-6.9738,63.828195,87.024997)" fill="#b23232"/>
<use data-text=":" xlink:href="#font_3_4" transform="matrix(6.9738,0,0,-6.9738,68.033397,87.024997)" fill="#b23232"/>
<use data-text="g" xlink:href="#font_3_8" transform="matrix(6.9738,0,0,-6.9738,74.3935,87.024997)" fill="#b23232"/>
<use data-text="r" xlink:href="#font_3_13" transform="matrix(6.9738,0,0,-6.9738,78.18725,87.024997)" fill="#b23232"/>
<use data-text="a" xlink:href="#font_3_1" transform="matrix(6.9738,0,0,-6.9738,81.262699,87.024997)" fill="#b23232"/>
<use data-text="d" xlink:href="#font_3_5" transform="matrix(6.9738,0,0,-6.9738,85.467899,87.024997)" fill="#b23232"/>
<use data-text="i" xlink:href="#font_3_17" transform="matrix(6.9738,0,0,-6.9738,89.673099,87.024997)" fill="#b23232"/>
<use data-text="e" xlink:href="#font_3_6" transform="matrix(6.9738,0,0,-6.9738,92.239459,87.024997)" fill="#b23232"/>
<use data-text="n" xlink:href="#font_3_10" transform="matrix(6.9738,0,0,-6.9738,96.0332,87.024997)" fill="#b23232"/>
<use data-text="t" xlink:href="#font_3_15" transform="matrix(6.9738,0,0,-6.9738,100.64986,87.024997)" fill="#b23232"/>
<use data-text="s" xlink:href="#font_3_14" transform="matrix(6.9738,0,0,-6.9738,103.42543,87.024997)" fill="#b23232"/>
</svg>
