<svg xmlns="http://www.w3.org/2000/svg" xmlns:xlink="http://www.w3.org/1999/xlink" xmlns:inkscape="http://www.inkscape.org/namespaces/inkscape" version="1.1" width="209.759" height="97.359" viewBox="0 0 209.759 97.359">
<defs>
<path id="font_1_4" d="M.375 .12606812V.1809845H.34098817V.12705994C.34098817 .059173585 .30899049 .022232056 .269989 .022232056 .20098877 .022232056 .20098877 .10609436 .20098877 .124069217V.39465333H.35699464V.43066407H.20098877V.6142578H.16699219C.1659851 .5244446 .125 .42565919 .0289917 .4226532V.39465333H.12199402V.1250763C.12199402 .01322937 .20599365-.009765625 .2619934-.009765625 .32899476-.010009766 .375 .04699707 .375 .12599182V.12606812Z"/>
<path id="font_1_3" d="M.40699769 .37739564C.40699769 .4113922 .375 .44140626 .32798768 .44140626 .27799989 .44140626 .22299195 .4104004 .19299317 .33439637H.19198609V.44140626L.04899597 .43052674V.39453126C.115997318 .39453126 .12399292 .3875122 .12399292 .33843995V.079055789C.12399292 .035995485 .11399841 .035995485 .04899597 .035995485V0C.053985597 0 .12199402 .0039978029 .16299439 .0039978029L.29299928 0V.035995485H.272995C.19898987 .036071779 .19898987 .047073366 .19898987 .081085208V.22807312C.19898987 .31207276 .23799134 .41308595 .33299256 .41308595 .32398988 .40608216 .31599427 .39308167 .31599427 .3770752 .31599427 .3440857 .34199525 .3310852 .36099244 .3310852 .3849945 .3310852 .40699769 .34707643 .40699769 .3770752V.37739564Z"/>
<path id="font_1_1" d="M.46798707 .12036133C.46798707 .12435913 .46598817 .13438416 .45098878 .13438416 .43798829 .13438416 .43598939 .12837219 .43299867 .11836243 .4019928 .037246705 .32598878 .022232056 .2899933 .022232056 .24299622 .022232056 .19799805 .043258668 .16799927 .08131409 .1309967 .12837219 .12998963 .18945313 .12998963 .22851563H.43998719C.46099855 .22851563 .46798707 .22851563 .46798707 .25050355 .46798707 .33839417 .4189911 .44628907 .269989 .44628907 .13899231 .44628907 .038986207 .34239198 .038986207 .21949768 .038986207 .092315677 .1499939-.009765625 .2829895-.009765625 .41799928-.009765625 .46798707 .09832764 .46798707 .12036133M.397995 .25450135H.1309967C.14199829 .39530946 .23199463 .41827394 .269989 .41827394 .3929901 .41827394 .39698792 .27947999 .397995 .25450135Z"/>
<path id="font_1_2" d="M.47299195 0V.035995485H.43499757C.33499146 .035995485 .33499146 .048980714 .33499146 .081970218V.6357422C.33499146 .66304019 .33299256 .6640625 .30499269 .6640625 .24099732 .6007385 .1499939 .59973147 .10899353 .59973147V.5644531C.1329956 .5644531 .19898987 .5644531 .2539978 .592453V.08203125C.2539978 .04899597 .2539978 .035995485 .1539917 .035995485H.115997318V0L.2939911 .0039978029 .47299195 0Z"/>
<path id="font_1_6" d="M.5049896 .18203736H.47099305C.46798707 .16001892 .45799256 .100997928 .44499208 .09098816 .43699647 .084991458 .3600006 .084991458 .34599305 .084991458H.1619873C.2669983 .17803955 .3019867 .20603943 .3619995 .25306703 .43598939 .312088 .5049896 .374115 .5049896 .46914674 .5049896 .5900879 .39898683 .6640625 .2709961 .6640625 .14698792 .6640625 .06298828 .57710269 .06298828 .4851532 .06298828 .43414308 .10598755 .42915345 .115997318 .42915345 .13999939 .42915345 .16899109 .44615174 .16899109 .48214723 .16899109 .5001526 .1619873 .53515627 .10998535 .53515627 .14099121 .6060791 .20899964 .62805178 .2559967 .62805178 .35598756 .62805178 .4079895 .5501404 .4079895 .46914674 .4079895 .38212586 .34599305 .3130951 .31399537 .27708436L.07299805 .038986207C.06298828 .02999878 .06298828 .027999878 .06298828 0H.47499085L.5049896 .18203736Z"/>
<path id="font_1_5" d="M.5139923 .1733551C.5139923 .2513275 .44999696 .32929994 .33999635 .35229493 .44499208 .39024354 .48298646 .4650879 .48298646 .5260773 .48298646 .60505679 .3919983 .6640625 .2809906 .6640625 .16999817 .6640625 .084991458 .61006167 .084991458 .5300751 .084991458 .49606324 .10699463 .47706605 .13699341 .47706605 .16799927 .47706605 .18798828 .5000763 .18798828 .5280762 .18798828 .5570679 .16799927 .57806399 .13699341 .5800781 .17199707 .62405398 .24099732 .63505557 .27799989 .63505557 .32299806 .63505557 .38598634 .6130676 .38598634 .5260773 .38598634 .48406983 .37199403 .43814088 .34599305 .4072113 .31298829 .36927796 .2849884 .3672943 .23498535 .36428834 .20999146 .3623047 .20799256 .3623047 .20298767 .3612976 .20298767 .3612976 .19299317 .3592987 .19299317 .34829713 .19299317 .33428956 .20199585 .33428956 .21899414 .33428956H.272995C.35099793 .33428956 .40699769 .2803192 .40699769 .1733551 .40699769 .04940796 .33499146 .012466431 .2769928 .012466431 .23699951 .012466431 .14898682 .0234375 .10699463 .082351688 .1539917 .084350589 .16499329 .11735535 .16499329 .13835144 .16499329 .17034912 .14099121 .19335938 .10998535 .19335938 .08198547 .19335938 .053985597 .17634583 .053985597 .13534546 .053985597 .041412355 .1579895-.01953125 .2789917-.01953125 .41799928-.01953125 .5139923 .07336426 .5139923 .1733551Z"/>
<path id="font_2_1" d="M.19599915 .25125123C.19599915 .28025819 .17199707 .30525209 .14199829 .30525209 .11199951 .30525209 .08799744 .28025819 .08799744 .25125123 .08799744 .22225952 .11199951 .19726563 .14199829 .19726563 .17199707 .19726563 .19599915 .22225952 .19599915 .25125123Z"/>
<path id="font_3_5" d="M.55999758 .3723755C.55999758 .42340089 .49798585 .44140626 .43899537 .44140626 .4119873 .44140626 .35798646 .4393921 .30099488 .37338258 .2849884 .42840577 .23298645 .44140626 .20498657 .44140626 .1619873 .44140626 .13999939 .4133911 .125 .38838197 .10398865 .3553772 .08799744 .2943573 .08799744 .28834535 .08799744 .27534486 .100997928 .27534486 .10899353 .27534486 .1269989 .27534486 .12799073 .27633668 .1349945 .3043518 .1519928 .37338258 .17098999 .4133911 .20199585 .4133911 .23298645 .4133911 .23298645 .37738038 .23298645 .3653717 .23298645 .3463745 .21998596 .29534913 .21199036 .2603302L.18399048 .15229798C.18099976 .13728333 .17098999 .09927368 .16699219 .08425903 .1619873 .06225586 .15299988 .027236939 .15299988 .020233155 .15299988-.0017700195 .16899109-.009765625 .18399048-.009765625 .20599365-.009765625 .21899414 .0062408449 .22299195 .01423645 .22599793 .021240235 .23498535 .057250978 .23999024 .07826233L.2669983 .18630982C.27198792 .20831299 .27799989 .22932434 .2829895 .2513275 .2889862 .27534486 .2999878 .31835938 .34399415 .3683777 .3639984 .39138795 .3929901 .4133911 .43699647 .4133911 .44799806 .4133911 .48199464 .4123993 .5049896 .39639283 .48399354 .38638307 .47499085 .3683777 .47499085 .3513794 .47499085 .32336427 .49699403 .3173523 .5099945 .3173523 .5289917 .3173523 .55999758 .33135987 .55999758 .3723755Z"/>
<path id="font_3_3" d="M.54100039 .097335819C.54100039 .10534668 .5269928 .12136841 .5179901 .12136841 .5130005 .12136841 .5099945 .11836243 .5029907 .11035156 .44198609 .037246705 .35499574 .018234253 .30499269 .018234253 .23999024 .018234253 .21199036 .07330322 .21199036 .13638306 .21199036 .16741944 .21798706 .19847107 .22499085 .22851563H.2869873C.32998658 .22851563 .5269928 .22851563 .5269928 .35343934 .5269928 .40740968 .47599793 .44140626 .4059906 .44140626 .2939911 .44140626 .1349945 .35144044 .1349945 .1754303 .1349945 .07029724 .19699097-.009765625 .30499269-.009765625 .46398927-.009765625 .54100039 .08432007 .54100039 .097335819M.47898866 .3544464C.47898866 .2565155 .31900025 .2565155 .27999879 .2565155H.23298645C.27799989 .4113922 .3939972 .4133911 .4059906 .4133911 .44799806 .4133911 .47898866 .39041139 .47898866 .3544464Z"/>
<path id="font_3_6" d="M.45399476 .15612793C.45399476 .18611145 .44099427 .21409607 .4169922 .2350769 .3880005 .25906373 .36299134 .2640686 .30899049 .2740631 .2789917 .28004457 .23498535 .28804017 .23498535 .32904054 .23498535 .3470459 .2519989 .4133911 .34700013 .4133911 .36999513 .4133911 .41299439 .4083557 .42900086 .3720398 .42399598 .3700409 .397995 .35603334 .397995 .33003236 .397995 .31703187 .40499879 .30003358 .42999269 .30003358 .44198609 .30003358 .47399903 .30604554 .47399903 .35403443 .47399903 .418396 .4059906 .44140626 .34799195 .44140626 .20498657 .44140626 .17199707 .33303834 .17199707 .29403688 .17199707 .21308899 .25099183 .19810486 .28799439 .19111634 .33499146 .18211365 .3909912 .17211914 .3909912 .121154788 .3909912 .094177249 .3659973 .018234253 .24598694 .018234253 .21499634 .018234253 .15699768 .024215699 .13598633 .06719971 .17098999 .076187137 .1769867 .105163577 .1769867 .11616516 .1769867 .1351471 .16299439 .1491394 .14199829 .1491394 .114990238 .1491394 .08999634 .12915039 .08999634 .08717346 .08999634 .02722168 .1519928-.009765625 .24398804-.009765625 .4149933-.009765625 .45399476 .11116028 .45399476 .15612793Z"/>
<path id="font_3_8" d="M.38598634 .14328003C.38598634 .15628052 .37298585 .15628052 .36499024 .15628052 .34700013 .15628052 .34599305 .1532898 .34098817 .13528443 .32798768 .087249759 .29499818 .018234253 .24398804 .018234253 .21998596 .018234253 .21998596 .042236329 .21998596 .052246095 .21998596 .07624817 .23699951 .119277957 .25 .1512909L.31599427 .32435609C.32199098 .34136964 .32199098 .3443756 .32199098 .3573761 .32199098 .40238954 .2869873 .44140626 .23199463 .44140626 .13398743 .44140626 .08799744 .3063507 .08799744 .28834535 .08799744 .27534486 .100997928 .27534486 .10899353 .27534486 .12098694 .27534486 .1269989 .27534486 .12998963 .28834535 .16299439 .40438844 .21099854 .4133911 .22898865 .4133911 .24099732 .4133911 .2539978 .4104004 .2539978 .37937928 .2539978 .3573761 .24598694 .33737184 .23799134 .31636048L.21099854 .24732971 .17599488 .15428162C.1659851 .12828064 .1519928 .09225464 .1519928 .07424927 .1519928 .02822876 .18798828-.009765625 .24099732-.009765625 .34098817-.009765625 .38598634 .12727356 .38598634 .14328003M.3919983 .6092377C.3919983 .63723757 .37098695 .65625 .34399415 .65625 .30599977 .65625 .27398683 .62124636 .27398683 .5882416 .27398683 .5632477 .29299928 .5412445 .32199098 .5412445 .35798646 .5412445 .3919983 .57424929 .3919983 .6092377Z"/>
<path id="font_3_2" d="M.62098696 .14328003C.62098696 .15628052 .60798647 .15628052 .59999087 .15628052 .58200076 .15628052 .58099368 .15428162 .57499697 .12927246 .5609894 .07725525 .5439911 .018234253 .5069885 .018234253 .47898866 .018234253 .47499085 .048233034 .47499085 .06524658 .47499085 .08226013 .47999574 .103256229 .48098756 .10626221L.62098696 .66529849C.621994 .6693115 .6239929 .67630007 .6239929 .68029788 .6239929 .6953125 .60798647 .6943054 .5970001 .69329836L.4889984 .6843109C.47599793 .68330386 .46299745 .682312 .46299745 .66130068 .46299745 .64730837 .47599793 .64730837 .4889984 .64730837 .5369873 .64730837 .5369873 .64030459 .5369873 .63131716 .5369873 .62831118 .5369873 .62631228 .5329895 .61231997L.47698976 .38539125C.45399476 .4203949 .41999818 .44140626 .37799073 .44140626 .2559967 .44140626 .1289978 .300354 .1289978 .15428162 .1289978 .04724121 .19699097-.009765625 .2709961-.009765625 .33499146-.009765625 .3880005 .037231447 .4079895 .058242799 .42099 .010223389 .46798707-.009765625 .5039978-.009765625 .5349884-.009765625 .5609894 .0052337648 .58299258 .041229249 .6069946 .08026123 .62098696 .14027405 .62098696 .14328003M.45599366 .3023529 .4139862 .13627625C.4059906 .105270389 .38398744 .08125305 .36099244 .059249879 .31999208 .023223877 .2889862 .018234253 .27398683 .018234253 .22799683 .018234253 .20498657 .06124878 .20498657 .11326599 .20498657 .1552887 .22999573 .26533509 .2579956 .3193512 .2899933 .37838746 .33799745 .4133911 .37799073 .4133911 .44599916 .4133911 .45899964 .32635499 .45899964 .31636048 .45899964 .3133545 .45799256 .3093567 .45599366 .3023529Z"/>
<path id="font_3_7" d="M.651001 .14328003C.651001 .15628052 .6380005 .15628052 .6299896 .15628052 .6119995 .15628052 .61099246 .15428162 .6049957 .12927246 .59098818 .07725525 .57398989 .018234253 .5369873 .018234253 .5089874 .018234253 .5049896 .048233034 .5049896 .06524658 .5049896 .08226013 .5049896 .08425903 .5109863 .10726929L.58099368 .38938905C.58299258 .39839173 .58399966 .4013977 .58399966 .4013977 .58399966 .4163971 .57299807 .43139649 .5519867 .43139649 .519989 .43139649 .5099945 .40238954 .5069885 .38838197L.44198609 .12626648C.43499757 .09725952 .3880005 .018234253 .31799317 .018234253 .27198792 .018234253 .2519989 .052246095 .2519989 .09925842 .2519989 .15628052 .28399659 .23931885 .31098939 .3083496 .31799317 .32736207 .32199098 .33836366 .32199098 .3573761 .32199098 .4073944 .28199769 .44140626 .23298645 .44140626 .13398743 .44140626 .08799744 .3053589 .08799744 .28834535 .08799744 .27534486 .100997928 .27534486 .10899353 .27534486 .12098694 .27534486 .1269989 .27534486 .12998963 .28834535 .16099549 .39738465 .20599365 .4133911 .22999573 .4133911 .24699402 .4133911 .25498963 .40238954 .25498963 .38038636 .25498963 .3573761 .24798584 .34136964 .22999573 .29335023 .19400025 .19923401 .18199158 .15322876 .18199158 .114227298 .18199158 .014221191 .2579956-.009765625 .31399537-.009765625 .37599183-.009765625 .41099549 .024230957 .43998719 .053222658 .45599366 .0042266848 .5039978-.009765625 .5339966-.009765625 .5649872-.009765625 .59098818 .0052337648 .61299136 .041229249 .6369934 .08023071 .651001 .14022827 .651001 .14323426V.14328003Z"/>
<path id="font_3_1" d="M.61099246 .14328003C.61099246 .15628052 .59799197 .15628052 .58999636 .15628052 .57199099 .15628052 .57099917 .15428162 .5649872 .12927246 .5509949 .07725525 .5339966 .018234253 .49699403 .018234253 .46899415 .018234253 .46499635 .048233034 .46499635 .06524658 .46499635 .08226013 .46499635 .08425903 .47099305 .10726929L.5369873 .37138368C.54100039 .38638307 .54100039 .38838197 .54100039 .39239503 .54100039 .4143982 .5249939 .4223938 .5099945 .4223938 .47698976 .4223938 .46699525 .38838197 .46598817 .38539125 .44099427 .4263916 .4039917 .44140626 .36799623 .44140626 .24598694 .44140626 .11898804 .300354 .11898804 .15428162 .11898804 .04724121 .18699646-.009765625 .26098634-.009765625 .32499696-.009765625 .37799073 .037231447 .397995 .058242799 .41099549 .010223389 .45799256-.009765625 .49398805-.009765625 .5249939-.009765625 .5509949 .0052337648 .57299807 .041229249 .5970001 .08026123 .61099246 .14027405 .61099246 .14328003M.44599916 .3023529 .4039917 .13627625C.3959961 .105270389 .37399293 .08125305 .35099793 .059249879 .30999757 .023223877 .2789917 .018234253 .2639923 .018234253 .21798706 .018234253 .19499207 .06124878 .19499207 .11326599 .19499207 .1552887 .21998596 .26533509 .24798584 .3193512 .27999879 .37838746 .32798768 .4133911 .36799623 .4133911 .43598939 .4133911 .44898988 .32635499 .44898988 .31636048 .44898988 .3133545 .44799806 .3093567 .44599916 .3023529Z"/>
<path id="font_3_4" d="M.32798768 .14324951C.32798768 .15625 .31498719 .15625 .30699159 .15625 .2889862 .15625 .28799439 .15324402 .28399659 .13624573 .269989 .083236698 .25299073 .018234253 .21499634 .018234253 .18699646 .018234253 .18299866 .048233034 .18299866 .06523132 .18299866 .082229617 .18798828 .10324097 .18899536 .10623169L.32899476 .66529849C.32998658 .6693115 .33198548 .67630007 .33198548 .68029788 .33198548 .6953125 .31599427 .6943054 .30499269 .69329836L.19699097 .6843109C.18399048 .68330386 .17098999 .682312 .17098999 .66130068 .17098999 .64730837 .18399048 .64730837 .19699097 .64730837 .24499512 .64730837 .24499512 .64030459 .24499512 .6313019 .24499512 .6242981 .24299622 .6163025 .24099732 .6092987L.117996219 .11824036C.11299133 .098236087 .11299133 .0912323 .11299133 .084228519 .11299133 .018234253 .16799927-.009765625 .21199036-.009765625 .23498535-.009765625 .2659912-.0017700195 .29299928 .04423523 .31498719 .083236698 .32798768 .13923645 .32798768 .14324951Z"/>
<path id="font_4_12" d="M.4269867 .14027405C.4269867 .19128418 .397995 .22328186 .37998963 .23828125 .33499146 .27627564 .30299378 .28128053 .22399903 .294281 .17599488 .3022766 .11299133 .31228639 .11299133 .35728456 .11299133 .41711427 .20599365 .41711427 .22799683 .41711427 .33999635 .41711427 .34399415 .35827638 .34599305 .33128358 .34700013 .3173828 .36099244 .3173828 .37098695 .3173828 .3959961 .3173828 .39698792 .32237245 .39698792 .3463745V.42411805C.39698792 .4421234 .39698792 .453125 .3769989 .453125 .36698915 .453125 .35099793 .44511415 .33299256 .43511964 .30099488 .44911195 .2619934 .453125 .22898865 .453125 .19799805 .4532776 .038986207 .4532776 .038986207 .32128907 .038986207 .2162323 .16999817 .19421387 .20498657 .18821717 .2869873 .1742096 .35299684 .16320801 .35299684 .106170658 .35299684 .03413391 .25898744 .03413391 .23699951 .03413391 .18598938 .03413391 .12098694 .0471344 .09199524 .13919068 .08699036 .15620423 .085998538 .15919495 .06498718 .15919495 .038986207 .15919495 .038986207 .15319824 .038986207 .12918091V.023132325C.038986207 .005126953 .038986207-.005859375 .05899048-.005859375 .06599426-.005859375 .067993167-.005859375 .08999634 .008132935L.116989139 .025131226C.1639862-.005859375 .21699524-.005859375 .23699951-.005859375 .2669983-.005859375 .4269867-.005859375 .4269867 .1401825V.14027405Z"/>
<path id="font_4_14" d="M.6299896 0V.04899597C.56999209 .04899597 .56199648 .04899597 .56199648 .088012699V.4501953L.3769989 .4423828V.39337159C.43699647 .39337159 .44499208 .39337159 .44499208 .35437013V.16433716C.44499208 .08433533 .3929901 .03413391 .31599427 .03413391 .23899842 .03413391 .23498535 .056259157 .23498535 .10932922V.4501953L.049987794 .4423828V.39337159C.10998535 .39337159 .117996219 .39337159 .117996219 .35437013V.12333679C.117996219 .014129639 .20399475-.005859375 .30099488-.005859375 .33198548-.005859375 .3999939-.005859375 .45098878 .06933594V-.005859375L.6299896 0Z"/>
<path id="font_4_7" d="M.95899966-.0002746582V.048721315H.8909912V.30471803C.8909912 .42271424 .81999209 .4497223 .7319946 .4497223 .6279907 .4497223 .57699587 .38671876 .55799868 .3557129 .5359955 .4457245 .44799806 .4497223 .4039917 .4497223 .27999879 .4497223 .23098755 .35972596 .22399903 .34472657H.22299195V.4497223L.049987794 .44172669V.39271546C.10998535 .39271546 .117996219 .39271546 .117996219 .353714V.048721315H.049987794V-.0002746582L.17599488 .0027160645 .30299378-.0002746582V.048721315H.23498535V.25372315C.23498535 .36471559 .32699586 .40971376 .3869934 .40971376 .4249878 .40971376 .44599916 .38972474 .44599916 .3137207V.048721315H.37799073V-.0002746582L.5039978 .0027160645 .6309967-.0002746582V.048721315H.5629883V.25372315C.5629883 .36471559 .6549988 .40971376 .71499636 .40971376 .7529907 .40971376 .7739868 .38972474 .7739868 .3137207V.048721315H.70599368V-.0002746582L.83200076 .0027160645 .95899966-.0002746582Z"/>
<path id="font_4_9" d="M.55799868 .21812439C.55799868 .3491211 .46598817 .453125 .29599 .453125 .11999512 .453125 .032989503 .3441162 .032989503 .21812439 .032989503 .09413147 .12298584-.005859375 .29499818-.005859375 .47399903-.005859375 .55799868 .09913635 .55799868 .21812439M.4249878 .22912598C.4249878 .14312744 .4249878 .037139894 .29599 .037139894 .1659851 .037139894 .1659851 .14213562 .1659851 .22912598 .1659851 .3131256 .1659851 .41311646 .29499818 .41311646 .4249878 .41311646 .4249878 .3131256 .4249878 .22912598Z"/>
<path id="font_4_5" d="M.45098878 .6111908C.45098878 .65615847 .4119873 .70014956 .33399964 .70014956 .22898865 .70014956 .12098694 .65515139 .12098694 .5432434V.44433595H.04399109V.3953247H.12098694V.04899597H.052993776V0L.18099976 .0029907227C.20599365 .0029907227 .2639923 .0029907227 .31698609 0V.04899597H.23199463V.3953247H.35099793V.44433595H.22599793V.5432434C.22599793 .65216067 .3039856 .66015627 .32899476 .66015627 .33198548 .66015627 .34199525 .65815737 .34199525 .65815737 .34199525 .65815737 .34199525 .65615847 .33999635 .65415957 .32899476 .6411438 .32398988 .6271515 .32398988 .611145 .32398988 .56915286 .35798646 .54714968 .3869934 .54714968 .41999818 .54714968 .45098878 .57115176 .45098878 .611145V.6111908Z"/>
<path id="font_4_1" d="M.56900027 .025131226C.56900027 .0491333 .5529938 .0491333 .54299929 .0491333 .47898866 .050125123 .47898866 .060134889 .47898866 .08413696V.29812623C.47898866 .38612367 .40699769 .453125 .25299073 .453125 .19599915 .453125 .067993167 .45111085 .067993167 .3591156 .067993167 .31411744 .101989749 .29312135 .1329956 .29312135 .16699219 .29312135 .19799805 .3171234 .19799805 .35812379 .19799805 .38711549 .18099976 .40411378 .17799378 .40711976 .18798828 .40911866 .21199036 .41311646 .24899292 .41311646 .32099916 .41311646 .3619995 .37712098 .3619995 .29812623V.26612855C.19599915 .26612855 .027999878 .22312927 .027999878 .11213684 .027999878 .013137817 .15299988-.005859375 .22499085-.005859375 .30099488-.005859375 .35299684 .027130127 .37998963 .0741272 .37998963 .04798889 .37998963 0 .4869995 0H.5359955C.5549927 0 .56900027 0 .56900027 .024993897V.025131226M.3619995 .13899231C.3619995 .033996583 .24598694 .033996583 .24198914 .033996583 .19099427 .033996583 .14898682 .066986087 .14898682 .11199951 .14898682 .14498902 .16699219 .22299195 .3619995 .23199463V.13899231Z"/>
<path id="font_4_6" d="M.29899598 0V.04899597H.23098755V.69433596L.051986696 .6855469V.63653567C.11199951 .63653567 .11999512 .63653567 .11999512 .5975647V.04899597H.051986696V0L.1749878 .0029907227 .29899598 0Z"/>
<path id="font_4_13" d="M.3929901 .123184207V.1762085H.34199525V.12617493C.34199525 .055145265 .30599977 .037139894 .2809906 .037139894 .22299195 .037139894 .22299195 .09716797 .22299195 .1211853V.3953247H.37399293V.44433595H.22299195V.6357422H.17199707C.17098999 .5415344 .12399292 .43832398 .021987915 .43533326V.3953247H.10598755V.123184207C.10598755 .009140015 .20498657-.005859375 .2669983-.005859375 .34498597-.005859375 .3929901 .05014038 .3929901 .123184207Z"/>
<path id="font_4_11" d="M.45498658 .36618043C.45498658 .41719056 .40299989 .4501953 .34399415 .4501953 .27398683 .4501953 .23098755 .39918519 .20899964 .34118653H.20799256V.4501953L.040985109 .4423828V.39337159C.100997928 .39337159 .10899353 .39337159 .10899353 .3543396V.04899597H.040985109V0L.16899109 .0029907227C.19400025 .0029907227 .2519989 .0029907227 .30499269 0V.04899597H.21998596V.21818543C.21998596 .29125978 .24699402 .40737916 .34399415 .41036988 .33299256 .39898683 .32798768 .38198854 .32798768 .3659973 .32798768 .32199098 .36299134 .3019867 .3909912 .3019867 .4229889 .3019867 .45498658 .32398988 .45498658 .3659973V.36618043Z"/>
<path id="font_4_4" d="M.5089874 .11605835C.5089874 .13604737 .4889984 .13604737 .48298646 .13604737 .46499635 .13604737 .46299745 .13005066 .45700074 .11605835 .43399049 .06410217 .37298585 .037139894 .30999757 .037139894 .16799927 .037139894 .1659851 .16601563 .1659851 .21496582H.47599793C.49699403 .21496582 .5089874 .21496582 .5089874 .2429657 .5089874 .26498414 .5069885 .35305787 .44198609 .4071045 .39698792 .4441223 .33699037 .453125 .28799439 .453125 .116989139 .453125 .032989503 .345047 .032989503 .22497559 .032989503 .09408569 .13198853-.005859375 .3019867-.005859375 .46699525-.005859375 .5089874 .1000824 .5089874 .11605835M.41099549 .25097657H.1659851C.16799927 .29701234 .17298889 .41311646 .28799439 .41311646 .40499879 .41311646 .40899659 .29100038 .41099549 .25097657Z"/>
<path id="font_5_1" d="M.7409973 .35202027C.7409973 .37402345 .71899417 .37402345 .70399478 .37402345H.09399414C.07899475 .37402345 .056991579 .37402345 .056991579 .35202027 .056991579 .3310089 .07699585 .3310089 .08999634 .3310089H.70799258C.7220001 .3310089 .7409973 .3310089 .7409973 .35202027M.7409973 .14894104C.7409973 .1699524 .7220001 .1699524 .70799258 .1699524H.08999634C.07699585 .1699524 .056991579 .1699524 .056991579 .14894104 .056991579 .12695313 .07899475 .12695313 .09399414 .12695313H.70399478C.71899417 .12695313 .7409973 .12695313 .7409973 .14894104Z"/>
<path id="font_4_10" d="M.61698916 .22218323C.61698916 .354187 .526001 .4501953 .375 .4501953 .2939911 .45033265 .23899842 .41633607 .21998596 .40234376V.4501953L.040985109 .4423828V.39337159C.06098938 .39337159 .07699585 .39337159 .08999634 .39038087 .10899353 .38737489 .10899353 .3763733 .10899353 .3553772V-.14453125H.040985109V-.19354248L.16699219-.1905365 .2939911-.19354248V-.14453125H.22599793V.03942871C.2849884-.005859375 .33999635-.005859375 .35899354-.005859375 .5159912-.005859375 .61698916 .089141849 .61698916 .22216797V.22218323M.48399354 .22315979C.48399354 .08413696 .41299439 .03413391 .34700013 .03413391 .29599 .03413391 .25299073 .06314087 .22599793 .104141239V.34518434C.24398804 .3671875 .29100038 .4071808 .35899354 .4071808 .42900086 .4071808 .48399354 .34518434 .48399354 .22315979Z"/>
<path id="font_4_3" d="M.61499026 0V.04899597C.5549927 .04899597 .5469971 .04899597 .5469971 .088012699V.69433596L.36799623 .6855469V.63653567C.42799378 .63653567 .43598939 .63653567 .43598939 .5976715V.40518189C.3919983 .43719483 .34498597 .4501953 .29699708 .4501953 .13398743 .4501953 .038986207 .35118104 .038986207 .22216797 .038986207 .089141849 .1329956-.005859375 .2849884-.005859375 .34799195-.005859375 .397995 .018127442 .42999269 .044128419V-.005859375L.61499026 0M.42999269 .10899353C.4079895 .074142459 .3600006 .03413391 .29599 .03413391 .17199707 .03413391 .17199707 .15414429 .17199707 .22015381 .17199707 .27816773 .17298889 .32118226 .19898987 .3581848 .22499085 .39819337 .272995 .41018678 .30799867 .41018678 .35798646 .41018678 .39898683 .3881836 .42999269 .34918214V.10899353Z"/>
<path id="font_4_15" d="M.2919922 0V.04899597H.23098755V.4501953L.054992677 .4423828V.39337159C.11299133 .39337159 .11999512 .39337159 .11999512 .3543396V.04899597H.051986696V0C.11898804 .0019989014 .13198853 .0029907227 .17399597 .0029907227 .22299195 .0029907227 .23599243 .0019989014 .2919922 0M.24198914 .6053314C.24198914 .65234377 .20399475 .68434146 .1639862 .68434146 .12199402 .68434146 .085998538 .6503296 .085998538 .6063385 .085998538 .55934146 .12399292 .52734377 .1639862 .52734377 .20599365 .52734377 .24198914 .56134036 .24198914 .6053314Z"/>
<path id="font_4_2" d="M.49198915 .11613464C.49198915 .13212586 .47698976 .13212586 .46598817 .13212586 .44599916 .13212586 .44599916 .13113404 .43798829 .11312866 .41799928 .06512451 .37298585 .037139894 .31399537 .037139894 .17199707 .037139894 .17199707 .18112183 .17199707 .22612 .17199707 .28611756 .17298889 .41011048 .3039856 .41011048 .31098939 .41011048 .36499024 .40911866 .36499024 .40411378L.3619995 .39912416C.35299684 .38812257 .34899903 .3721161 .34899903 .35812379 .34899903 .3171234 .37998963 .29312135 .4139862 .29312135 .44499208 .29312135 .47898866 .31411744 .47898866 .3591156 .47898866 .453125 .33898927 .453125 .2999878 .453125 .10798645 .453125 .038986207 .33111573 .038986207 .22212219 .038986207 .09613037 .1289978-.005859375 .29499818-.005859375 .33198548-.005859375 .3809967 .0001373291 .4229889 .026138306 .47999574 .06098938 .49198915 .11299133 .49198915 .115997318V.11613464Z"/>
<path id="font_4_8" d="M.6299896-.0002746582V.048721315H.56199648V.30471803C.56199648 .4237213 .48999024 .4497223 .40299989 .4497223 .27999879 .4497223 .23098755 .35972596 .22399903 .34472657H.22299195V.4497223L.049987794 .44172669V.39271546C.10998535 .39271546 .117996219 .39271546 .117996219 .353714V.048721315H.049987794V-.0002746582L.17599488 .0027160645 .30299378-.0002746582V.048721315H.23498535V.25372315C.23498535 .36572267 .32699586 .40971376 .3869934 .40971376 .4249878 .40971376 .44499208 .38871766 .44499208 .3137207V.048721315H.3769989V-.0002746582L.5029907 .0027160645 .6299896-.0002746582Z"/>
</defs>
<path transform="matrix(1,0,0,-1,24.329,28.945)" d="M11.97592 8.22475H-11.97592C-14.17686 8.22475-15.96103 6.44058-15.96103 4.23964V-4.23964C-15.96103-6.44058-14.17686-8.22475-11.97592-8.22475H11.97592C14.17686-8.22475 15.96103-6.44058 15.96103-4.23964V4.23964C15.96103 6.44058 14.17686 8.22475 11.97592 8.22475ZM-15.96103-8.22475" fill="#ecf2f8"/>
<path transform="matrix(1,0,0,-1,24.329,28.945)" stroke-width=".79701" stroke-linecap="butt" stroke-miterlimit="10" stroke-linejoin="miter" fill="none" stroke="#4682b4" d="M11.97592 8.22475H-11.97592C-14.17686 8.22475-15.96103 6.44058-15.96103 4.23964V-4.23964C-15.96103-6.44058-14.17686-8.22475-11.97592-8.22475H11.97592C14.17686-8.22475 15.96103-6.44058 15.96103-4.23964V4.23964C15.96103 6.44058 14.17686 8.22475 11.97592 8.22475ZM-15.96103-8.22475"/>
<use data-text="t" xlink:href="#font_1_4" transform="matrix(6.9738,0,0,-6.9738,14.346001,31.192002)"/>
<use data-text="r" xlink:href="#font_1_3" transform="matrix(6.9738,0,0,-6.9738,17.456315,31.192002)"/>
<use data-text="e" xlink:href="#font_1_1" transform="matrix(6.9738,0,0,-6.9738,20.566632,31.192002)"/>
<use data-text="e" xlink:href="#font_1_1" transform="matrix(6.9738,0,0,-6.9738,24.109322,31.192002)"/>
<use data-text="1" xlink:href="#font_1_2" transform="matrix(6.9738,0,0,-6.9738,30.336926,31.192002)"/>
<path transform="matrix(1,0,0,-1,24.329,28.945)" d="M77.29369 8.22475H53.34181C51.14087 8.22475 49.3567 6.44058 49.3567 4.23964V-4.23964C49.3567-6.44058 51.14087-8.22475 53.34181-8.22475H77.29369C79.49463-8.22475 81.2788-6.44058 81.2788-4.23964V4.23964C81.2788 6.44058 79.49463 8.22475 77.29369 8.22475ZM49.3567-8.22475" fill="#ecf2f8"/>
<path transform="matrix(1,0,0,-1,24.329,28.945)" stroke-width=".79701" stroke-linecap="butt" stroke-miterlimit="10" stroke-linejoin="miter" fill="none" stroke="#4682b4" d="M77.29369 8.22475H53.34181C51.14087 8.22475 49.3567 6.44058 49.3567 4.23964V-4.23964C49.3567-6.44058 51.14087-8.22475 53.34181-8.22475H77.29369C79.49463-8.22475 81.2788-6.44058 81.2788-4.23964V4.23964C81.2788 6.44058 79.49463 8.22475 77.29369 8.22475ZM49.3567-8.22475"/>
<use data-text="t" xlink:href="#font_1_4" transform="matrix(6.9738,0,0,-6.9738,79.663,31.192002)"/>
<use data-text="r" xlink:href="#font_1_3" transform="matrix(6.9738,0,0,-6.9738,82.773319,31.192002)"/>
<use data-text="e" xlink:href="#font_1_1" transform="matrix(6.9738,0,0,-6.9738,85.88363,31.192002)"/>
<use data-text="e" xlink:href="#font_1_1" transform="matrix(6.9738,0,0,-6.9738,89.42632,31.192002)"/>
<use data-text="2" xlink:href="#font_1_6" transform="matrix(6.9738,0,0,-6.9738,95.65393,31.192002)"/>
<path transform="matrix(1,0,0,-1,24.329,28.945)" d="M142.61145 8.22475H118.65958C116.45863 8.22475 114.67447 6.44058 114.67447 4.23964V-4.23964C114.67447-6.44058 116.45863-8.22475 118.65958-8.22475H142.61145C144.8124-8.22475 146.59656-6.44058 146.59656-4.23964V4.23964C146.59656 6.44058 144.8124 8.22475 142.61145 8.22475ZM114.67447-8.22475" fill="#ecf2f8"/>
<path transform="matrix(1,0,0,-1,24.329,28.945)" stroke-width=".79701" stroke-linecap="butt" stroke-miterlimit="10" stroke-linejoin="miter" fill="none" stroke="#4682b4" d="M142.61145 8.22475H118.65958C116.45863 8.22475 114.67447 6.44058 114.67447 4.23964V-4.23964C114.67447-6.44058 116.45863-8.22475 118.65958-8.22475H142.61145C144.8124-8.22475 146.59656-6.44058 146.59656-4.23964V4.23964C146.59656 6.44058 144.8124 8.22475 142.61145 8.22475ZM114.67447-8.22475"/>
<use data-text="t" xlink:href="#font_1_4" transform="matrix(6.9738,0,0,-6.9738,144.98,31.192002)"/>
<use data-text="r" xlink:href="#font_1_3" transform="matrix(6.9738,0,0,-6.9738,148.09032,31.192002)"/>
<use data-text="e" xlink:href="#font_1_1" transform="matrix(6.9738,0,0,-6.9738,151.20064,31.192002)"/>
<use data-text="e" xlink:href="#font_1_1" transform="matrix(6.9738,0,0,-6.9738,154.74333,31.192002)"/>
<use data-text="3" xlink:href="#font_1_5" transform="matrix(6.9738,0,0,-6.9738,160.97093,31.192002)"/>
<use data-text="&#x00b7;" xlink:href="#font_2_1" transform="matrix(8.9664,0,0,-8.9664,186.181,30.961998)"/>
<use data-text="&#x00b7;" xlink:href="#font_2_1" transform="matrix(8.9664,0,0,-8.9664,190.27864,30.961998)"/>
<use data-text="&#x00b7;" xlink:href="#font_2_1" transform="matrix(8.9664,0,0,-8.9664,194.38526,30.961998)"/>
<path transform="matrix(1,0,0,-1,24.329,28.945)" stroke-width=".99628" stroke-linecap="butt" stroke-miterlimit="10" stroke-linejoin="miter" fill="none" stroke="#003e74" d="M16.35954 0H44.39342"/>
<path transform="matrix(1,0,0,-1,65.91703,28.945)" d="M5.95149 0 1.60866 1.6449 3.05444 0 1.60866-1.6449Z" fill="#003e74"/>
<path transform="matrix(1,0,0,-1,65.91703,28.945)" stroke-width=".99628" stroke-linecap="butt" stroke-miterlimit="10" stroke-linejoin="miter" fill="none" stroke="#003e74" d="M5.95149 0 1.60866 1.6449 3.05444 0 1.60866-1.6449Z"/>
<use data-text="r" xlink:href="#font_3_5" transform="matrix(6.9738,0,0,-6.9738,43.08,16.159996)" fill="#555555"/>
<use data-text="e" xlink:href="#font_3_3" transform="matrix(6.9738,0,0,-6.9738,46.15545,16.159996)" fill="#555555"/>
<use data-text="s" xlink:href="#font_3_6" transform="matrix(6.9738,0,0,-6.9738,49.949197,16.159996)" fill="#555555"/>
<use data-text="i" xlink:href="#font_3_8" transform="matrix(6.9738,0,0,-6.9738,53.338464,16.159996)" fill="#555555"/>
<use data-text="d" xlink:href="#font_3_2" transform="matrix(6.9738,0,0,-6.9738,55.904825,16.159996)" fill="#555555"/>
<use data-text="u" xlink:href="#font_3_7" transform="matrix(6.9738,0,0,-6.9738,60.110025,16.159996)" fill="#555555"/>
<use data-text="a" xlink:href="#font_3_1" transform="matrix(6.9738,0,0,-6.9738,64.52444,16.159996)" fill="#555555"/>
<use data-text="l" xlink:href="#font_3_4" transform="matrix(6.9738,0,0,-6.9738,68.72964,16.159996)" fill="#555555"/>
<path transform="matrix(1,0,0,-1,24.329,28.945)" stroke-width=".99628" stroke-linecap="butt" stroke-miterlimit="10" stroke-linejoin="miter" fill="none" stroke="#003e74" d="M81.6773 0H109.71118"/>
<path transform="matrix(1,0,0,-1,131.23479,28.945)" d="M5.95149 0 1.60866 1.6449 3.05444 0 1.60866-1.6449Z" fill="#003e74"/>
<path transform="matrix(1,0,0,-1,131.23479,28.945)" stroke-width=".99628" stroke-linecap="butt" stroke-miterlimit="10" stroke-linejoin="miter" fill="none" stroke="#003e74" d="M5.95149 0 1.60866 1.6449 3.05444 0 1.60866-1.6449Z"/>
<use data-text="r" xlink:href="#font_3_5" transform="matrix(6.9738,0,0,-6.9738,108.397,16.159996)" fill="#555555"/>
<use data-text="e" xlink:href="#font_3_3" transform="matrix(6.9738,0,0,-6.9738,111.47245,16.159996)" fill="#555555"/>
<use data-text="s" xlink:href="#font_3_6" transform="matrix(6.9738,0,0,-6.9738,115.2662,16.159996)" fill="#555555"/>
<use data-text="i" xlink:href="#font_3_8" transform="matrix(6.9738,0,0,-6.9738,118.655467,16.159996)" fill="#555555"/>
<use data-text="d" xlink:href="#font_3_2" transform="matrix(6.9738,0,0,-6.9738,121.221828,16.159996)" fill="#555555"/>
<use data-text="u" xlink:href="#font_3_7" transform="matrix(6.9738,0,0,-6.9738,125.427028,16.159996)" fill="#555555"/>
<use data-text="a" xlink:href="#font_3_1" transform="matrix(6.9738,0,0,-6.9738,129.84145,16.159996)" fill="#555555"/>
<use data-text="l" xlink:href="#font_3_4" transform="matrix(6.9738,0,0,-6.9738,134.04665,16.159996)" fill="#555555"/>
<path transform="matrix(1,0,0,-1,24.329,28.945)" stroke-width=".99628" stroke-linecap="butt" stroke-miterlimit="10" stroke-linejoin="miter" fill="none" stroke="#003e74" d="M146.99507 0H153.76883"/>
<path transform="matrix(1,0,0,-1,175.29244,28.945)" d="M5.95149 0 1.60866 1.6449 3.05444 0 1.60866-1.6449Z" fill="#003e74"/>
<path transform="matrix(1,0,0,-1,175.29244,28.945)" stroke-width=".99628" stroke-linecap="butt" stroke-miterlimit="10" stroke-linejoin="miter" fill="none" stroke="#003e74" d="M5.95149 0 1.60866 1.6449 3.05444 0 1.60866-1.6449Z"/>
<path transform="matrix(1,0,0,-1,24.329,28.945)" d="M149.28525-40.20343H12.53192C10.33098-40.20343 8.54681-41.9876 8.54681-44.18854V-56.06116C8.54681-58.2621 10.33098-60.04626 12.53192-60.04626H149.28525C151.48619-60.04626 153.27036-58.2621 153.27036-56.06116V-44.18854C153.27036-41.9876 151.48619-40.20343 149.28525-40.20343ZM8.54681-60.04626" fill="#ebf3f2"/>
<path transform="matrix(1,0,0,-1,24.329,28.945)" stroke-width=".79701" stroke-linecap="butt" stroke-miterlimit="10" stroke-linejoin="miter" fill="none" stroke="#006e5a" d="M149.28525-40.20343H12.53192C10.33098-40.20343 8.54681-41.9876 8.54681-44.18854V-56.06116C8.54681-58.2621 10.33098-60.04626 12.53192-60.04626H149.28525C151.48619-60.04626 153.27036-58.2621 153.27036-56.06116V-44.18854C153.27036-41.9876 151.48619-40.20343 149.28525-40.20343ZM8.54681-60.04626"/>
<use data-text="s" xlink:href="#font_4_12" transform="matrix(8.9664,0,0,-8.9664,38.854,81.269)"/>
<use data-text="u" xlink:href="#font_4_14" transform="matrix(8.9664,0,0,-8.9664,43.04131,81.269)"/>
<use data-text="m" xlink:href="#font_4_7" transform="matrix(8.9664,0,0,-8.9664,48.932237,81.269)"/>
<use data-text="o" xlink:href="#font_4_9" transform="matrix(8.9664,0,0,-8.9664,61.305868,81.269)"/>
<use data-text="f" xlink:href="#font_4_5" transform="matrix(8.9664,0,0,-8.9664,66.613979,81.269)"/>
<use data-text="a" xlink:href="#font_4_1" transform="matrix(8.9664,0,0,-8.9664,73.401538,81.269)"/>
<use data-text="l" xlink:href="#font_4_6" transform="matrix(8.9664,0,0,-8.9664,78.55721,81.269)"/>
<use data-text="l" xlink:href="#font_4_6" transform="matrix(8.9664,0,0,-8.9664,81.50716,81.269)"/>
<use data-text="t" xlink:href="#font_4_13" transform="matrix(8.9664,0,0,-8.9664,87.98986,81.269)"/>
<use data-text="r" xlink:href="#font_4_11" transform="matrix(8.9664,0,0,-8.9664,92.1144,81.269)"/>
<use data-text="e" xlink:href="#font_4_4" transform="matrix(8.9664,0,0,-8.9664,96.490009,81.269)"/>
<use data-text="e" xlink:href="#font_4_4" transform="matrix(8.9664,0,0,-8.9664,101.358768,81.269)"/>
<use data-text="s" xlink:href="#font_4_12" transform="matrix(8.9664,0,0,-8.9664,106.22752,81.269)"/>
<use data-text="=" xlink:href="#font_5_1" transform="matrix(8.9664,0,0,-8.9664,113.95656,81.269)"/>
<use data-text="p" xlink:href="#font_4_10" transform="matrix(8.9664,0,0,-8.9664,124.65347,81.269)"/>
<use data-text="r" xlink:href="#font_4_11" transform="matrix(8.9664,0,0,-8.9664,130.5444,81.269)"/>
<use data-text="e" xlink:href="#font_4_4" transform="matrix(8.9664,0,0,-8.9664,134.92002,81.269)"/>
<use data-text="d" xlink:href="#font_4_3" transform="matrix(8.9664,0,0,-8.9664,139.78878,81.269)"/>
<use data-text="i" xlink:href="#font_4_15" transform="matrix(8.9664,0,0,-8.9664,145.6797,81.269)"/>
<use data-text="c" xlink:href="#font_4_2" transform="matrix(8.9664,0,0,-8.9664,148.62966,81.269)"/>
<use data-text="t" xlink:href="#font_4_13" transform="matrix(8.9664,0,0,-8.9664,153.34598,81.269)"/>
<use data-text="i" xlink:href="#font_4_15" transform="matrix(8.9664,0,0,-8.9664,157.47052,81.269)"/>
<use data-text="o" xlink:href="#font_4_9" transform="matrix(8.9664,0,0,-8.9664,160.42047,81.269)"/>
<use data-text="n" xlink:href="#font_4_8" transform="matrix(8.9664,0,0,-8.9664,165.72858,81.269)"/>
<path transform="matrix(1,0,0,-1,24.329,28.945)" stroke-width=".99628" stroke-linecap="butt" stroke-miterlimit="10" stroke-linejoin="miter" fill="none" stroke="#b9b9b9" d="M0-8.62326 76.64929-38.1635"/>
<path transform="matrix(.93307,.35959,.35959,-.93307,98.360668,66.09971)" d="M5.95149 0 1.60866 1.6449 3.05444 0 1.60866-1.6449Z" fill="#b9b9b9"/>
<path transform="matrix(.93307,.35959,.35959,-.93307,98.360668,66.09971)" stroke-width=".99628" stroke-linecap="butt" stroke-miterlimit="10" stroke-linejoin="miter" fill="none" stroke="#b9b9b9" d="M5.95149 0 1.60866 1.6449 3.05444 0 1.60866-1.6449Z"/>
<path transform="matrix(1,0,0,-1,24.329,28.945)" stroke-width=".99628" stroke-linecap="butt" stroke-miterlimit="10" stroke-linejoin="miter" fill="none" stroke="#b9b9b9" d="M65.31775-8.62326 78.86734-35.72237"/>
<path transform="matrix(.44717,.89436,.89436,-.44717,101.94184,62.15832)" d="M5.95149 0 1.60866 1.6449 3.05444 0 1.60866-1.6449Z" fill="#b9b9b9"/>
<path transform="matrix(.44717,.89436,.89436,-.44717,101.94184,62.15832)" stroke-width=".99628" stroke-linecap="butt" stroke-miterlimit="10" stroke-linejoin="miter" fill="none" stroke="#b9b9b9" d="M5.95149 0 1.60866 1.6449 3.05444 0 1.60866-1.6449Z"/>
<path transform="matrix(1,0,0,-1,24.329,28.945)" stroke-width=".99628" stroke-linecap="butt" stroke-miterlimit="10" stroke-linejoin="miter" fill="none" stroke="#b9b9b9" d="M130.63552-8.62326 84.77579-37.37996"/>
<path transform="matrix(-.84718,.53123,.53123,.84718,111.481479,64.83465)" d="M5.95149 0 1.60866 1.6449 3.05444 0 1.60866-1.6449Z" fill="#b9b9b9"/>
<path transform="matrix(-.84718,.53123,.53123,.84718,111.481479,64.83465)" stroke-width=".99628" stroke-linecap="butt" stroke-miterlimit="10" stroke-linejoin="miter" fill="none" stroke="#b9b9b9" d="M5.95149 0 1.60866 1.6449 3.05444 0 1.60866-1.6449Z"/>
</svg>
