<svg xmlns="http://www.w3.org/2000/svg" xmlns:xlink="http://www.w3.org/1999/xlink" xmlns:inkscape="http://www.inkscape.org/namespaces/inkscape" version="1.1" width="186.457" height="118.52" viewBox="0 0 186.457 118.52">
<defs>
<path id="font_1_11" d="M.48399354 .21324158C.48399354 .34423829 .37998963 .4482422 .25698854 .4482422 .12998963 .4482422 .0289917 .3412323 .0289917 .21324158 .0289917 .08824158 .1329956-.0107421879 .2559967-.0107421879 .3829956-.0107421879 .48399354 .09024048 .48399354 .21324158M.397995 .22224427C.397995 .1852417 .397995 .12724304 .37298585 .08325195 .34498597 .037246705 .29899598 .01725769 .25698854 .01725769 .20698548 .01725769 .16499329 .042251588 .14199829 .08125305 .115997318 .12324524 .114990238 .17623902 .114990238 .22224427 .114990238 .25924684 .114990238 .3162384 .13999939 .35723878 .16999817 .40823365 .21998596 .42323304 .2559967 .42323304 .31298829 .42323304 .35398866 .39123536 .37399293 .35723878 .39698792 .31523133 .397995 .26423646 .397995 .22224427Z"/>
<path id="font_1_2" d="M.5359955 .21636963C.5359955 .34144593 .43699647 .4423828 .31698609 .4423828 .24899292 .4423828 .20199585 .4073944 .17799378 .38046266V.69433596L.02999878 .68333438V.6523285C.09799194 .6523285 .10699463 .6453247 .10699463 .596344V.00024414063H.1349945L.17199707 .061279298C.20298767 .01725769 .25299073-.0107421879 .30699159-.0107421879 .42599488-.0107421879 .5359955 .08529663 .5359955 .21636963M.44999696 .21737671C.44999696 .17034912 .44400025 .11730957 .41799928 .07728577 .3959961 .045272829 .35499574 .014251709 .3019867 .014251709 .25698854 .014251709 .21899414 .038269044 .19499207 .075286868 .18099976 .09629822 .18099976 .0973053 .18099976 .11631775V.31944276C.18099976 .3384552 .18099976 .33944703 .19198609 .35546876 .22599793 .40141297 .2749939 .41737367 .31298829 .41737367 .35598756 .41737367 .3959961 .39343263 .42199708 .3514557 .44799806 .3084259 .44999696 .24938965 .44999696 .21737671Z"/>
<path id="font_1_13" d="M.36999513 .12831116C.36999513 .17330933 .34999085 .20030213 .32798768 .22329712 .2939911 .25628663 .2579956 .26327516 .18399048 .2772827 .1579895 .28227235 .084991458 .29527284 .084991458 .35224916 .084991458 .38424684 .10798645 .426239 .19898987 .426239 .30699159 .426239 .31399537 .34326173 .31599427 .31826783 .31698609 .3062744 .31698609 .3002777 .32998658 .3002777 .34399415 .3002777 .34399415 .30726625 .34399415 .32626344V.4222412C.34399415 .4392395 .34399415 .4482422 .33198548 .4482422 .32699586 .4482422 .32499696 .4482422 .31199647 .43623353 .30999757 .43423463 .30099488 .42523194 .29499818 .4202423 .2639923 .44223023 .23298645 .4482422 .19898987 .4482422 .066986087 .4482422 .033996583 .37524415 .033996583 .32426454 .033996583 .29226686 .04798889 .26628114 .070999149 .24429322 .10499573 .21330261 .14299011 .20629883 .19400025 .19729615 .24499512 .18730164 .2619934 .18431092 .28399659 .16731262 .2939911 .15931702 .31900025 .14031983 .31900025 .10229492 .31900025 .014251709 .21798706 .014251709 .20399475 .014251709 .101989749 .014251709 .07598877 .0993042 .06399536 .15332031 .06098938 .16331482 .05999756 .16931153 .04798889 .16931153 .033996583 .16931153 .033996583 .16131592 .033996583 .14331055V.01524353C.033996583-.0017547608 .033996583-.0107421879 .04598999-.0107421879 .051986696-.0107421879 .052993776-.009750366 .070999149 .009246826 .07499695 .01524353 .085998538 .028259278 .09098816 .03326416 .1329956-.007751465 .1789856-.0107421879 .20399475-.0107421879 .32699586-.0107421879 .36999513 .061279298 .36999513 .12831116Z"/>
<path id="font_1_6" d="M.4269867 .11936951C.4269867 .12637329 .42199708 .13237 .41299439 .13237 .40299989 .13237 .3999939 .12536621 .39898683 .12136841 .36499024 .019256592 .27598573 .01725769 .26098634 .01725769 .21299744 .01725769 .17199707 .044281007 .14898682 .078323367 .115997318 .12736511 .114990238 .18743897 .114990238 .22949219H.3999939C.42199708 .22949219 .4269867 .22949219 .4269867 .25048829 .4269867 .35333253 .37098695 .4482422 .24299622 .4482422 .12298584 .4482422 .0289917 .3443451 .0289917 .22047425 .0289917 .08932495 .13398743-.0107421879 .2559967-.0107421879 .37799073-.0107421879 .4269867 .096343997 .4269867 .11936951M.35899354 .253479H.115997318C.125 .40725709 .21499634 .42323304 .24299622 .42323304 .2979889 .42323304 .35798646 .38130189 .35899354 .253479Z"/>
<path id="font_1_12" d="M.37298585 .3798828C.37298585 .41236878 .34298707 .4423828 .2979889 .4423828 .23799134 .4423828 .19599915 .40037538 .17298889 .33789063H.17199707V.4423828L.02999878 .43066407V.3996582C.09799194 .3996582 .10699463 .3927307 .10699463 .34388734V.07698059C.10699463 .0309906 .09599304 .0309906 .02999878 .0309906V0C.08299255 .0019989014 .09599304 .0029907227 .14698792 .0029907227L.27398683 0V.0309906H.2539978C.18099976 .0309906 .17799378 .041992189 .17799378 .07897949V.22892761C.17799378 .26991273 .18899536 .4166565 .30299378 .4166565V.4156494C.30099488 .4146576 .2849884 .40264894 .2849884 .37887574 .2849884 .35188294 .30599977 .33488465 .32899476 .33488465 .34999085 .33488465 .37298585 .34988404 .37298585 .3798828Z"/>
<path id="font_1_16" d="M.5209961 .3996582V.43066407C.4909973 .42765809 .44400025 .42765809 .44400025 .42765809 .41600038 .42765809 .3849945 .4286499 .35699464 .43066407V.3996582C.38598634 .3976593 .40299989 .38267518 .40299989 .35671998 .40299989 .34674073 .4019928 .34474183 .397995 .3337555L.2939911 .0821228 .17999268 .35472108C.1769867 .36071778 .1749878 .36669923 .1749878 .37368775 .1749878 .3996582 .21099854 .3996582 .22999573 .3996582V.43066407C.18699646 .4286499 .1639862 .42765809 .11999512 .42765809 .084991458 .42765809 .055999757 .42765809 .019989014 .43066407V.3996582C.066986087 .3996582 .085998538 .3996582 .100997928 .36271668L.24699402 .008224487C.25299073-.007751465 .26098634-.0107421879 .269989-.0107421879 .2789917-.0107421879 .2869873-.008758545 .2939911 .008224487L.42999269 .3357544C.45098878 .38667298 .48599244 .39865113 .5209961 .3996582Z"/>
<path id="font_1_5" d="M.5399933 0V.0309906C.47200013 .0309906 .46299745 .037994386 .46299745 .087020877V.69433596L.31498719 .6826172V.6516113C.3829956 .6516113 .3919983 .64463809 .3919983 .59580996V.38339234C.3869934 .38938905 .34199525 .4423828 .2639923 .4423828 .14099121 .4423828 .033996583 .3443756 .033996583 .21525574 .033996583 .09013367 .13398743-.0107421879 .25299073-.0107421879 .32598878-.0107421879 .37098695 .03224182 .3889923 .053115846V-.0107421879L.5399933 0M.3889923 .12011719C.3889923 .10211182 .3889923 .099105838 .37399293 .07810974 .34298707 .033203126 .29699708 .014251709 .25698854 .014251709 .21398926 .014251709 .17399597 .03819275 .147995 .08010864 .12199402 .12310791 .11999512 .18218994 .11999512 .21421814 .11999512 .26127626 .12599182 .31433106 .1519928 .35438539 .17399597 .38638307 .21499634 .41737367 .2679901 .41737367 .30999757 .41737367 .34999085 .39637757 .3769989 .35839845 .3889923 .3423767 .3889923 .34136964 .3889923 .32234193V.12011719Z"/>
<path id="font_1_1" d="M.49699403 .089141849V.14515686H.46899415V.090148929C.46899415 .07914734 .46899415 .029129029 .43299867 .029129029 .39698792 .029129029 .39698792 .07714844 .39698792 .09315491V.26818849C.39698792 .32521058 .39698792 .3592224 .35198976 .40022279 .31498719 .43322755 .2669983 .4482422 .21699524 .4482422 .1329956 .4482422 .06298828 .40623475 .06298828 .34220887 .06298828 .311203 .083999637 .2942047 .10998535 .2942047 .13699341 .2942047 .1559906 .31420899 .1559906 .34020997 .1559906 .3832245 .11099243 .38822938 .11099243 .38822938 .13798523 .41423036 .18598938 .42323304 .21499634 .42323304 .2659912 .42323304 .32299806 .3852234 .32299806 .29719544V.26419068C.2689972 .26219178 .19400025 .2571869 .1269989 .22518921 .054992677 .19017029 .032989503 .13816834 .032989503 .09814453 .032989503 .01625061 .12998963-.0107421879 .19699097-.0107421879 .27999879-.0107421879 .31799317 .04425049 .33198548 .072250369 .33699037 .030136109 .3659973-.005859375 .40899659-.005859375 .43399049-.005859375 .49699403 .009140015 .49699403 .08912659V.089141849M.32299806 .14112854C.32299806 .04425049 .24798584 .014251709 .20399475 .014251709 .15699768 .014251709 .11299133 .04824829 .11299133 .098236087 .11299133 .16423035 .16999817 .23422241 .32299806 .24023438V.14112854Z"/>
<path id="font_1_3" d="M.4269867 .11936951C.4269867 .13139344 .41600038 .13139344 .41299439 .13139344 .4019928 .13139344 .4019928 .12937927 .3959961 .11236572 .37298585 .043289186 .31698609 .01725769 .2659912 .01725769 .20199585 .01725769 .11999512 .06932068 .11999512 .21749878 .11999512 .3735962 .19999695 .42022706 .2599945 .42022706 .272995 .42022706 .32699586 .41825868 .3639984 .39356996 .34298707 .3895874 .32299806 .3755951 .32299806 .34658814 .32299806 .32058717 .34298707 .30059815 .36898805 .30059815 .394989 .30059815 .41600038 .31759645 .41600038 .34858705 .41600038 .4103546 .34599305 .4482422 .2579956 .4482422 .12998963 .4482422 .033996583 .3415985 .033996583 .2164917 .033996583 .08734131 .13798523-.0107421879 .2559967-.0107421879 .394989-.0107421879 .4269867 .11036682 .4269867 .11936951Z"/>
<path id="font_1_15" d="M.5469971 .00024414063V.03125C.47898866 .03125 .46998597 .038253786 .46998597 .087265018V.4423828L.31900025 .43138124V.40037538C.3869934 .40037538 .3959961 .39337159 .3959961 .34436036V.16729737C.3959961 .07826233 .34599305 .014251709 .27398683 .014251709 .19099427 .014251709 .18598938 .057266237 .18598938 .11128235V.4423828L.034988405 .43138124V.40037538C.11199951 .40037538 .11199951 .39736939 .11199951 .3083496V.15829468C.11199951 .09327698 .11199951 .051254274 .1579895 .01625061 .18699646-.003753662 .22799683-.0107421879 .2679901-.0107421879 .31999208-.0107421879 .36898805 .012252808 .397995 .072265628H.39898683V-.0107421879L.5469971 .00024414063Z"/>
<path id="font_1_10" d="M.5469971 0V.0309906C.49598695 .03125 .47099305 .03125 .46998597 .0622406V.25431825C.46998597 .3373413 .46998597 .36636354 .44198609 .4013672 .4189911 .42938233 .3809967 .4423828 .33099366 .4423828 .23799134 .4423828 .19499207 .37335206 .18099976 .34535218H.17999268V.4423828L.034988405 .43066407V.3996582C.102996829 .3996582 .11199951 .39266969 .11199951 .34370423V.07695007C.11199951 .0309906 .100997928 .0309906 .034988405 .0309906V0C.08198547 .0019989014 .100997928 .0029907227 .14898682 .0029907227 .19699097 .0029907227 .20999146 .0019989014 .2630005 0V.0309906C.19699097 .0309906 .18598938 .0309906 .18598938 .07695007V.25878907C.18598938 .36532594 .26098634 .41737367 .32398988 .41737367 .3829956 .41737367 .3959961 .3683319 .3959961 .30825807V.077041629C.3959961 .0309906 .3849945 .0309906 .31900025 .0309906V0C.3659973 .0019989014 .3849945 .0029907227 .43299867 .0029907227 .48098756 .0029907227 .49398805 .0019989014 .5469971 0Z"/>
<path id="font_1_14" d="M.34199525 .12408447V.18099976H.31399537V.1270752C.31399537 .05319214 .2829895 .01725769 .24699402 .01725769 .17999268 .01725769 .17999268 .1051178 .17999268 .12309265V.3996582H.32499696V.43066407H.17999268V.6142578H.1519928C.15098572 .5304413 .115997318 .42765809 .018997193 .4246521V.3996582H.10598755V.12408447C.10598755 .012252808 .18699646-.0107421879 .23999024-.0107421879 .30699159-.011001587 .34199525 .052993776 .34199525 .12399292V.12408447Z"/>
<path id="font_2_5" d="M.29899598 0V.04899597H.23098755V.69433596L.051986696 .6855469V.63653567C.11199951 .63653567 .11999512 .63653567 .11999512 .5975647V.04899597H.051986696V0L.1749878 .0029907227 .29899598 0Z"/>
<path id="font_2_1" d="M.56900027 .025131226C.56900027 .0491333 .5529938 .0491333 .54299929 .0491333 .47898866 .050125123 .47898866 .060134889 .47898866 .08413696V.29812623C.47898866 .38612367 .40699769 .453125 .25299073 .453125 .19599915 .453125 .067993167 .45111085 .067993167 .3591156 .067993167 .31411744 .101989749 .29312135 .1329956 .29312135 .16699219 .29312135 .19799805 .3171234 .19799805 .35812379 .19799805 .38711549 .18099976 .40411378 .17799378 .40711976 .18798828 .40911866 .21199036 .41311646 .24899292 .41311646 .32099916 .41311646 .3619995 .37712098 .3619995 .29812623V.26612855C.19599915 .26612855 .027999878 .22312927 .027999878 .11213684 .027999878 .013137817 .15299988-.005859375 .22499085-.005859375 .30099488-.005859375 .35299684 .027130127 .37998963 .0741272 .37998963 .04798889 .37998963 0 .4869995 0H.5359955C.5549927 0 .56900027 0 .56900027 .024993897V.025131226M.3619995 .13899231C.3619995 .033996583 .24598694 .033996583 .24198914 .033996583 .19099427 .033996583 .14898682 .066986087 .14898682 .11199951 .14898682 .14498902 .16699219 .22299195 .3619995 .23199463V.13899231Z"/>
<path id="font_2_10" d="M.3929901 .123184207V.1762085H.34199525V.12617493C.34199525 .055145265 .30599977 .037139894 .2809906 .037139894 .22299195 .037139894 .22299195 .09716797 .22299195 .1211853V.3953247H.37399293V.44433595H.22299195V.6357422H.17199707C.17098999 .5415344 .12399292 .43832398 .021987915 .43533326V.3953247H.10598755V.123184207C.10598755 .009140015 .20498657-.005859375 .2669983-.005859375 .34498597-.005859375 .3929901 .05014038 .3929901 .123184207Z"/>
<path id="font_2_4" d="M.5089874 .11605835C.5089874 .13604737 .4889984 .13604737 .48298646 .13604737 .46499635 .13604737 .46299745 .13005066 .45700074 .11605835 .43399049 .06410217 .37298585 .037139894 .30999757 .037139894 .16799927 .037139894 .1659851 .16601563 .1659851 .21496582H.47599793C.49699403 .21496582 .5089874 .21496582 .5089874 .2429657 .5089874 .26498414 .5069885 .35305787 .44198609 .4071045 .39698792 .4441223 .33699037 .453125 .28799439 .453125 .116989139 .453125 .032989503 .345047 .032989503 .22497559 .032989503 .09408569 .13198853-.005859375 .3019867-.005859375 .46699525-.005859375 .5089874 .1000824 .5089874 .11605835M.41099549 .25097657H.1659851C.16799927 .29701234 .17298889 .41311646 .28799439 .41311646 .40499879 .41311646 .40899659 .29100038 .41099549 .25097657Z"/>
<path id="font_2_7" d="M.6299896-.0002746582V.048721315H.56199648V.30471803C.56199648 .4237213 .48999024 .4497223 .40299989 .4497223 .27999879 .4497223 .23098755 .35972596 .22399903 .34472657H.22299195V.4497223L.049987794 .44172669V.39271546C.10998535 .39271546 .117996219 .39271546 .117996219 .353714V.048721315H.049987794V-.0002746582L.17599488 .0027160645 .30299378-.0002746582V.048721315H.23498535V.25372315C.23498535 .36572267 .32699586 .40971376 .3869934 .40971376 .4249878 .40971376 .44499208 .38871766 .44499208 .3137207V.048721315H.3769989V-.0002746582L.5029907 .0027160645 .6299896-.0002746582Z"/>
<path id="font_2_8" d="M.82199099 .33924867C.82199099 .5482483 .68099978 .6982422 .44400025 .6982422 .20599365 .6982422 .06599426 .5472412 .06599426 .33924867 .06599426 .13726807 .20498657-.01171875 .44400025-.01171875 .68299868-.01171875 .82199099 .13626099 .82199099 .33924867M.6649933 .35424806C.6649933 .2652588 .6559906 .20126343 .625 .14027405 .58799746 .0712738 .5169983 .03427124 .44400025 .03427124 .38198854 .03427124 .31098939 .061279298 .2679901 .13226319 .22698975 .2002716 .22299195 .28825379 .22299195 .35424806 .22299195 .44325257 .23199463 .5182495 .2809906 .5822449 .30699159 .6152344 .3639984 .65522769 .44400025 .65522769 .5099945 .65522769 .57299807 .62823489 .6119995 .5752411 .6609955 .5102539 .6649933 .42425538 .6649933 .35424806Z"/>
<path id="font_2_2" d="M.83999636 .33776856C.83999636 .5496063 .69299319 .6855469 .48298646 .6855469H.041992189V.63653567H.1499939V.04899597H.041992189V0H.48399354C.68299868 0 .83999636 .12094116 .83999636 .33776856M.68899539 .33776856C.68899539 .24084473 .68899539 .04899597 .44198609 .04899597H.2889862V.63653567H.44099427C.519989 .63653567 .59399417 .611557 .6380005 .55659487 .6819916 .50064089 .68899539 .42970277 .68899539 .33776856Z"/>
<path id="font_2_6" d="M.95899966-.0002746582V.048721315H.8909912V.30471803C.8909912 .42271424 .81999209 .4497223 .7319946 .4497223 .6279907 .4497223 .57699587 .38671876 .55799868 .3557129 .5359955 .4457245 .44799806 .4497223 .4039917 .4497223 .27999879 .4497223 .23098755 .35972596 .22399903 .34472657H.22299195V.4497223L.049987794 .44172669V.39271546C.10998535 .39271546 .117996219 .39271546 .117996219 .353714V.048721315H.049987794V-.0002746582L.17599488 .0027160645 .30299378-.0002746582V.048721315H.23498535V.25372315C.23498535 .36471559 .32699586 .40971376 .3869934 .40971376 .4249878 .40971376 .44599916 .38972474 .44599916 .3137207V.048721315H.37799073V-.0002746582L.5039978 .0027160645 .6309967-.0002746582V.048721315H.5629883V.25372315C.5629883 .36471559 .6549988 .40971376 .71499636 .40971376 .7529907 .40971376 .7739868 .38972474 .7739868 .3137207V.048721315H.70599368V-.0002746582L.83200076 .0027160645 .95899966-.0002746582Z"/>
<path id="font_2_9" d="M.55799868 .21812439C.55799868 .3491211 .46598817 .453125 .29599 .453125 .11999512 .453125 .032989503 .3441162 .032989503 .21812439 .032989503 .09413147 .12298584-.005859375 .29499818-.005859375 .47399903-.005859375 .55799868 .09913635 .55799868 .21812439M.4249878 .22912598C.4249878 .14312744 .4249878 .037139894 .29599 .037139894 .1659851 .037139894 .1659851 .14213562 .1659851 .22912598 .1659851 .3131256 .1659851 .41311646 .29499818 .41311646 .4249878 .41311646 .4249878 .3131256 .4249878 .22912598Z"/>
<path id="font_2_3" d="M.61499026 0V.04899597C.5549927 .04899597 .5469971 .04899597 .5469971 .088012699V.69433596L.36799623 .6855469V.63653567C.42799378 .63653567 .43598939 .63653567 .43598939 .5976715V.40518189C.3919983 .43719483 .34498597 .4501953 .29699708 .4501953 .13398743 .4501953 .038986207 .35118104 .038986207 .22216797 .038986207 .089141849 .1329956-.005859375 .2849884-.005859375 .34799195-.005859375 .397995 .018127442 .42999269 .044128419V-.005859375L.61499026 0M.42999269 .10899353C.4079895 .074142459 .3600006 .03413391 .29599 .03413391 .17199707 .03413391 .17199707 .15414429 .17199707 .22015381 .17199707 .27816773 .17298889 .32118226 .19898987 .3581848 .22499085 .39819337 .272995 .41018678 .30799867 .41018678 .35798646 .41018678 .39898683 .3881836 .42999269 .34918214V.10899353Z"/>
<path id="font_1_18" d="M.25299073 0V.0309906C.18798828 .0309906 .18399048 .035995485 .18399048 .075042728V.4423828L.039993287 .43066407V.3996582C.10398865 .3996582 .11299133 .3936615 .11299133 .3447113V.07695007C.11299133 .0309906 .101989749 .0309906 .035995485 .0309906V0C.08099365 .0019989014 .101989749 .0029907227 .1459961 .0029907227 .1619873 .0029907227 .20399475 .0029907227 .25299073 0M.19699097 .6032257C.19699097 .6332245 .17298889 .65722659 .14299011 .65722659 .11299133 .65722659 .08898926 .6332245 .08898926 .6032257 .08898926 .57321169 .11299133 .54922488 .14299011 .54922488 .17298889 .54922488 .19699097 .57321169 .19699097 .6032257Z"/>
<path id="font_1_7" d="M.3659973 .6340637C.3659973 .67207339 .32798768 .7050781 .272995 .7050781 .19499207 .7046509 .11299133 .6456604 .11299133 .5456543V.43066407H.033996583V.3996582H.11299133V.07695007C.11299133 .0309906 .101989749 .0309906 .035995485 .0309906V0C.08898926 .0019989014 .101989749 .0029907227 .15299988 .0029907227L.27999879 0V.0309906H.2599945C.18699646 .0309906 .18399048 .04197693 .18399048 .078948978V.3996582H.2999878V.43066407H.18099976V.5436554C.18099976 .6350708 .22999573 .68006899 .272995 .68006899 .2829895 .68006899 .29299928 .67807009 .30299378 .67407229 .29299928 .67007449 .2769928 .6580658 .2769928 .6330719 .2769928 .6070709 .29599 .58906558 .32099916 .58906558 .34799195 .58906558 .3659973 .60806277 .3659973 .6340637Z"/>
<path id="font_1_8" d="M.5399933 0V.0309906C.47399903 .0309906 .46299745 .0309906 .46299745 .07695007V.69407656L.42599488 .6880646C.4229889 .6880646 .42199708 .68907168 .4139862 .69207766 .3829956 .70407107 .34498597 .7050781 .32899476 .7050781 .21499634 .7050781 .10699463 .6450043 .10699463 .5438385V.43066407H.027999878V.3996582H.10699463V.07695007C.10699463 .0309906 .09599304 .0309906 .02999878 .0309906V0C.07699585 .0019989014 .09599304 .0029907227 .14199829 .0029907227 .18899536 .0029907227 .20599365 .0019989014 .25498963 0V.0309906C.18899536 .0309906 .17799378 .0309906 .17799378 .07695007V.3996582H.3919983V.07695007C.3919983 .0309906 .3809967 .0309906 .31498719 .0309906V0C.3619995 .0019989014 .3809967 .0029907227 .4269867 .0029907227 .47399903 .0029907227 .4909973 .0019989014 .5399933 0M.3919983 .43066407H.1749878V.5408325C.1749878 .63900759 .2579956 .68006899 .32798768 .68006899 .34899903 .68006899 .36999513 .67807009 .3919983 .6720581 .37799073 .66503909 .36898805 .64901736 .36898805 .6329956 .36898805 .6189728 .37599183 .6029358 .3919983 .5939331V.43066407Z"/>
<path id="font_1_17" d="M.72099307 .3996582V.43066407C.68099978 .42765809 .67900088 .42765809 .6459961 .42765809 .60798647 .42765809 .59399417 .42765809 .55400088 .43066407V.3996582C.5970001 .39865113 .61099246 .3717041 .61099246 .35173036 .61099246 .34173585 .60899356 .3357544 .60598757 .32876588L.5139923 .07911682 .41299439 .35272218C.4079895 .3657074 .4079895 .36869813 .4079895 .3717041 .4079895 .3976593 .43899537 .3996582 .46499635 .3996582V.43066407C.4189911 .42765809 .37799073 .42765809 .3619995 .42765809 .33099366 .42765809 .3019867 .42765809 .269989 .43066407V.3996582C.3019867 .3996582 .32199098 .39865113 .33299256 .38467408 .34199525 .37368775 .35499574 .3337555 .35499574 .3307495L.34999085 .31677247 .2679901 .09210205 .17298889 .35173036C.16699219 .36669923 .16699219 .36869813 .16699219 .37269593 .16699219 .3996582 .20599365 .3996582 .22499085 .3996582V.43066407L.115997318 .42765809C.08299255 .42765809 .053985597 .42765809 .019989014 .43066407V.3996582C.067993167 .3996582 .08099365 .3976593 .09298706 .3637085L.22200012 .01121521C.22698975-.00076293948 .22999573-.0107421879 .24499512-.0107421879 .2599945-.0107421879 .2639923 .00022888184 .2679901 .010223389L.36999513 .28981019 .47299195 .010223389C.47698976 .00022888184 .48098756-.0107421879 .49598695-.0107421879 .5109863-.0107421879 .5139923-.00076293948 .5179901 .009216309L.6369934 .3337555C.6589966 .39466859 .69999697 .39865113 .72099307 .3996582Z"/>
<path id="font_1_4" d="M.20698548 .0019989014C.20698548 .070999149 .18099976 .10798645 .14199829 .10798645 .10699463 .10798645 .08799744 .08099365 .08799744 .053985597 .08799744 .026992798 .10699463 0 .14199829 0 .16699219 0 .18199158 .015991211 .18199158 .015991211 .18199158-.017044068 .18199158-.09919739 .10598755-.17132569 .101989749-.17633057 .101989749-.18135071 .101989749-.18135071 .101989749-.18635559 .10798645-.19335938 .114990238-.19335938 .12599182-.19335938 .20698548-.1162262 .20698548 .0019989014Z"/>
<path id="font_1_9" d="M.83299258 0V.0309906C.7819977 .03125 .7569885 .03125 .7559967 .0622406V.2539215C.7559967 .34077455 .7559967 .36872865 .72299197 .4056549 .70199587 .43037416 .6619873 .4423828 .6159973 .4423828 .5439911 .4423828 .49499513 .40037538 .46699525 .3473816 .45498658 .40637208 .4149933 .4423828 .33099366 .4423828 .25099183 .4423828 .20199585 .39038087 .18099976 .3443756H.17999268V.4423828L.034988405 .43066407V.3996582C.102996829 .3996582 .11199951 .39266969 .11199951 .34370423V.07695007C.11199951 .0309906 .100997928 .0309906 .034988405 .0309906V0C.08198547 .0019989014 .100997928 .0029907227 .14898682 .0029907227 .19699097 .0029907227 .20999146 .0019989014 .2630005 0V.0309906C.19699097 .0309906 .18598938 .0309906 .18598938 .07695007V.25878907C.18598938 .36732484 .2639923 .41737367 .32398988 .41737367 .3789978 .41737367 .39698792 .37834168 .39698792 .30825807V.077041629C.39698792 .0309906 .38598634 .0309906 .31999208 .0309906V0C.36698915 .0019989014 .38598634 .0029907227 .43399049 .0029907227 .48199464 .0029907227 .49499513 .0019989014 .5479889 0V.0309906C.48199464 .0309906 .47099305 .0309906 .47099305 .077041629V.2592163C.47099305 .36732484 .548996 .41737367 .60899356 .41737367 .6639862 .41737367 .6819916 .37834168 .6819916 .30825807V.077041629C.6819916 .0309906 .67099 .0309906 .6049957 .0309906V0C.6519928 .0019989014 .67099 .0029907227 .71899417 .0029907227 .7669983 .0029907227 .7799988 .0019989014 .83299258 0Z"/>
<path id="font_3_6" d="M.5019989 .6370239C.5019989 .67977908 .45599366 .7037811 .4039917 .7037811 .29499818 .7037811 .27198792 .58602908 .2659912 .55496218L.24198914 .43066407H.1659851C.147995 .43066407 .13598633 .43066407 .13598633 .4086609 .13598633 .39465333 .147995 .39465333 .1639862 .39465333H.23498535L.16999817 .039886476C.12998963-.17610169 .100997928-.17610169 .07899475-.17610169 .07499695-.17610169 .053985597-.17610169 .036987306-.16105652 .068984989-.14804077 .068984989-.12004089 .068984989-.11604309 .068984989-.08703613 .04499817-.08203125 .033996583-.08203125 .004989624-.08203125-.01701355-.106033328-.01701355-.13703919-.01701355-.18211365 .03199768-.20410156 .07798767-.20410156 .17399597-.20410156 .21299744-.076049808 .22599793-.028076172 .23498535 .0059051516 .24398804 .039886476 .25 .0738678L.30899049 .39465333H.40299989C.42099 .39465333 .43399049 .39465333 .43399049 .4166565 .43399049 .43066407 .41999818 .43066407 .40499879 .43066407H.31599427C.32699586 .4968109 .33898927 .55796816 .34399415 .57901 .35398866 .62802127 .3639984 .67578127 .4039917 .67578127 .41999818 .67578127 .43598939 .6718292 .44799806 .66197207 .42900086 .6540222 .41600038 .63601687 .41600038 .61602786 .41600038 .5870209 .43998719 .58203127 .45098878 .58203127 .47999574 .58203127 .5019989 .60601809 .5019989 .6370239Z"/>
<path id="font_3_5" d="M.54100039 .097335819C.54100039 .10534668 .5269928 .12136841 .5179901 .12136841 .5130005 .12136841 .5099945 .11836243 .5029907 .11035156 .44198609 .037246705 .35499574 .018234253 .30499269 .018234253 .23999024 .018234253 .21199036 .07330322 .21199036 .13638306 .21199036 .16741944 .21798706 .19847107 .22499085 .22851563H.2869873C.32998658 .22851563 .5269928 .22851563 .5269928 .35343934 .5269928 .40740968 .47599793 .44140626 .4059906 .44140626 .2939911 .44140626 .1349945 .35144044 .1349945 .1754303 .1349945 .07029724 .19699097-.009765625 .30499269-.009765625 .46398927-.009765625 .54100039 .08432007 .54100039 .097335819M.47898866 .3544464C.47898866 .2565155 .31900025 .2565155 .27999879 .2565155H.23298645C.27799989 .4113922 .3939972 .4133911 .4059906 .4133911 .44799806 .4133911 .47898866 .39041139 .47898866 .3544464Z"/>
<path id="font_3_4" d="M.62098696 .14328003C.62098696 .15628052 .60798647 .15628052 .59999087 .15628052 .58200076 .15628052 .58099368 .15428162 .57499697 .12927246 .5609894 .07725525 .5439911 .018234253 .5069885 .018234253 .47898866 .018234253 .47499085 .048233034 .47499085 .06524658 .47499085 .08226013 .47999574 .103256229 .48098756 .10626221L.62098696 .66529849C.621994 .6693115 .6239929 .67630007 .6239929 .68029788 .6239929 .6953125 .60798647 .6943054 .5970001 .69329836L.4889984 .6843109C.47599793 .68330386 .46299745 .682312 .46299745 .66130068 .46299745 .64730837 .47599793 .64730837 .4889984 .64730837 .5369873 .64730837 .5369873 .64030459 .5369873 .63131716 .5369873 .62831118 .5369873 .62631228 .5329895 .61231997L.47698976 .38539125C.45399476 .4203949 .41999818 .44140626 .37799073 .44140626 .2559967 .44140626 .1289978 .300354 .1289978 .15428162 .1289978 .04724121 .19699097-.009765625 .2709961-.009765625 .33499146-.009765625 .3880005 .037231447 .4079895 .058242799 .42099 .010223389 .46798707-.009765625 .5039978-.009765625 .5349884-.009765625 .5609894 .0052337648 .58299258 .041229249 .6069946 .08026123 .62098696 .14027405 .62098696 .14328003M.45599366 .3023529 .4139862 .13627625C.4059906 .105270389 .38398744 .08125305 .36099244 .059249879 .31999208 .023223877 .2889862 .018234253 .27398683 .018234253 .22799683 .018234253 .20498657 .06124878 .20498657 .11326599 .20498657 .1552887 .22999573 .26533509 .2579956 .3193512 .2899933 .37838746 .33799745 .4133911 .37799073 .4133911 .44599916 .4133911 .45899964 .32635499 .45899964 .31636048 .45899964 .3133545 .45799256 .3093567 .45599366 .3023529Z"/>
<path id="font_3_2" d="M.5209961 .27833558C.5209961 .37838746 .45799256 .44140626 .3789978 .44140626 .32499696 .44140626 .2829895 .4084015 .2599945 .39038087L.32899476 .66529849C.32998658 .6693115 .33198548 .67630007 .33198548 .68029788 .33198548 .6953125 .31599427 .6943054 .30499269 .69329836L.19699097 .6843109C.18399048 .68330386 .17098999 .682312 .17098999 .66130068 .17098999 .64730837 .18399048 .64730837 .19699097 .64730837 .24499512 .64730837 .24499512 .64030459 .24499512 .63131716 .24499512 .62532046 .24499512 .62332156 .24099732 .60931399L.14399719 .22331238C.1349945 .18730164 .1349945 .16429138 .1349945 .1512909 .1349945 .04524231 .19999695-.009765625 .27198792-.009765625 .394989-.009765625 .5209961 .13327027 .5209961 .27833558M.44499208 .3193512C.44499208 .2733307 .4169922 .1612854 .3919983 .11427307 .35499574 .04423523 .30499269 .018234253 .272995 .018234253 .23098755 .018234253 .20098877 .054244996 .20098877 .119277957 .20098877 .17228699 .23799134 .3063507 .24398804 .31636048 .27398683 .36437989 .32699586 .4133911 .3769989 .4133911 .42399598 .4133911 .44499208 .36738587 .44499208 .3193512Z"/>
<path id="font_3_1" d="M.61099246 .14328003C.61099246 .15628052 .59799197 .15628052 .58999636 .15628052 .57199099 .15628052 .57099917 .15428162 .5649872 .12927246 .5509949 .07725525 .5339966 .018234253 .49699403 .018234253 .46899415 .018234253 .46499635 .048233034 .46499635 .06524658 .46499635 .08226013 .46499635 .08425903 .47099305 .10726929L.5369873 .37138368C.54100039 .38638307 .54100039 .38838197 .54100039 .39239503 .54100039 .4143982 .5249939 .4223938 .5099945 .4223938 .47698976 .4223938 .46699525 .38838197 .46598817 .38539125 .44099427 .4263916 .4039917 .44140626 .36799623 .44140626 .24598694 .44140626 .11898804 .300354 .11898804 .15428162 .11898804 .04724121 .18699646-.009765625 .26098634-.009765625 .32499696-.009765625 .37799073 .037231447 .397995 .058242799 .41099549 .010223389 .45799256-.009765625 .49398805-.009765625 .5249939-.009765625 .5509949 .0052337648 .57299807 .041229249 .5970001 .08026123 .61099246 .14027405 .61099246 .14328003M.44599916 .3023529 .4039917 .13627625C.3959961 .105270389 .37399293 .08125305 .35099793 .059249879 .30999757 .023223877 .2789917 .018234253 .2639923 .018234253 .21798706 .018234253 .19499207 .06124878 .19499207 .11326599 .19499207 .1552887 .21998596 .26533509 .24798584 .3193512 .27999879 .37838746 .32798768 .4133911 .36799623 .4133911 .43598939 .4133911 .44898988 .32635499 .44898988 .31636048 .44898988 .3133545 .44799806 .3093567 .44599916 .3023529Z"/>
<path id="font_3_3" d="M.54100039 .09715271C.54100039 .105148319 .5269928 .12113953 .5179901 .12113953 .5130005 .12113953 .5099945 .1181488 .5029907 .1101532 .44198609 .037216188 .35499574 .018234253 .30499269 .018234253 .25498963 .018234253 .20899964 .047195436 .20899964 .12812805 .20899964 .1750946 .23098755 .28100587 .2769928 .33898927 .31698609 .39015199 .36499024 .4133911 .4079895 .4133911 .4249878 .4133911 .46798707 .40834046 .4850006 .37701417 .45599366 .36898805 .44599916 .34498597 .44599916 .32798768 .44599916 .31199647 .45700074 .29499818 .48199464 .29499818 .49899293 .29499818 .5319977 .30599977 .5319977 .35398866 .5319977 .41940309 .46199037 .44140626 .40699769 .44140626 .2669983 .44140626 .12998963 .3039856 .12998963 .16210938 .12998963 .06819153 .19299317-.009765625 .3039856-.009765625 .46499635-.009765625 .54100039 .08416748 .54100039 .09715271Z"/>
<path id="font_3_7" d="M.56199648 .14329529C.56199648 .15629578 .548996 .15629578 .54100039 .15629578 .522995 .15629578 .5219879 .1532898 .5169983 .1362915 .5049896 .087265018 .48199464 .018234253 .43699647 .018234253 .41600038 .018234253 .40299989 .031234742 .40299989 .06825256 .40299989 .072250369 .40299989 .089263919 .40899659 .11328125 .4119873 .12828064 .4139862 .1402893 .4139862 .14628601 .4139862 .22232056 .32598878 .24433899 .2639923 .25234986 .2669983 .25434876 .29699708 .27334596 .34899903 .32537843 .394989 .3703766 .44198609 .4133911 .49198915 .4133911 .5089874 .4133911 .5169983 .40538026 .519989 .39938355 .49899293 .39337159 .48199464 .37538148 .48199464 .3513794 .48199464 .32337953 .5039978 .3173828 .5169983 .3173828 .54299929 .3173828 .56799319 .3383789 .56799319 .3743744 .56799319 .4093933 .5419922 .44140626 .49398805 .44140626 .44499208 .44140626 .39898683 .4113922 .34098817 .3533783 .2829895 .29637147 .25698854 .277359 .22898865 .26535035L.32899476 .66529849C.32998658 .6693115 .33198548 .67630007 .33198548 .68029788 .33198548 .6953125 .31599427 .6943054 .30499269 .69329836L.19699097 .6843109C.18399048 .68330386 .17098999 .682312 .17098999 .66130068 .17098999 .64730837 .18399048 .64730837 .19699097 .64730837 .24499512 .64730837 .24499512 .64030459 .24499512 .63131716 .24499512 .62731936 .24198914 .613327 .24099732 .60832217L.09899902 .041244508C.09498596 .027236939 .09498596 .025222779 .09498596 .020233155 .09498596 .0012207031 .10899353-.009765625 .1269989-.009765625 .1599884-.009765625 .16699219 .019226075 .17199707 .038238527L.21899414 .22633362C.27198792 .22132874 .33999635 .20132447 .33999635 .14428711 .33999635 .1382904 .33999635 .13427735 .33699037 .119277957 .33299256 .104263309 .33299256 .10127258 .33299256 .09126282 .33299256 .037231447 .37199403-.009765625 .43399049-.009765625 .5299988-.009765625 .56199648 .1402893 .56199648 .14329529Z"/>
</defs>
<path transform="matrix(1,0,0,-1,62.535,17.434998)" d="M50.18204 9.0661H-50.18204C-52.38298 9.0661-54.16714 7.28194-54.16714 5.081V-5.081C-54.16714-7.28194-52.38298-9.0661-50.18204-9.0661H50.18204C52.38298-9.0661 54.16714-7.28194 54.16714-5.081V5.081C54.16714 7.28194 52.38298 9.0661 50.18204 9.0661ZM-54.16714-9.0661" fill="#ebf3f2"/>
<path transform="matrix(1,0,0,-1,62.535,17.434998)" stroke-width=".79701" stroke-linecap="butt" stroke-miterlimit="10" stroke-linejoin="miter" fill="none" stroke="#006e5a" d="M50.18204 9.0661H-50.18204C-52.38298 9.0661-54.16714 7.28194-54.16714 5.081V-5.081C-54.16714-7.28194-52.38298-9.0661-50.18204-9.0661H50.18204C52.38298-9.0661 54.16714-7.28194 54.16714-5.081V5.081C54.16714 7.28194 52.38298 9.0661 50.18204 9.0661ZM-54.16714-9.0661"/>
<use data-text="o" xlink:href="#font_1_11" transform="matrix(8.9664,0,0,-8.9664,20.095002,20.522995)"/>
<use data-text="b" xlink:href="#font_1_2" transform="matrix(8.9664,0,0,-8.9664,24.703732,20.522995)"/>
<use data-text="s" xlink:href="#font_1_13" transform="matrix(8.9664,0,0,-8.9664,29.823544,20.522995)"/>
<use data-text="e" xlink:href="#font_1_6" transform="matrix(8.9664,0,0,-8.9664,33.454938,20.522995)"/>
<use data-text="r" xlink:href="#font_1_12" transform="matrix(8.9664,0,0,-8.9664,37.55258,20.522995)"/>
<use data-text="v" xlink:href="#font_1_16" transform="matrix(8.9664,0,0,-8.9664,41.157075,20.522995)"/>
<use data-text="e" xlink:href="#font_1_6" transform="matrix(8.9664,0,0,-8.9664,45.75684,20.522995)"/>
<use data-text="d" xlink:href="#font_1_5" transform="matrix(8.9664,0,0,-8.9664,49.854486,20.522995)"/>
<use data-text="r" xlink:href="#font_1_12" transform="matrix(8.9664,0,0,-8.9664,58.049776,20.522995)"/>
<use data-text="o" xlink:href="#font_1_11" transform="matrix(8.9664,0,0,-8.9664,61.654268,20.522995)"/>
<use data-text="a" xlink:href="#font_1_1" transform="matrix(8.9664,0,0,-8.9664,66.26299,20.522995)"/>
<use data-text="d" xlink:href="#font_1_5" transform="matrix(8.9664,0,0,-8.9664,70.87172,20.522995)"/>
<use data-text="c" xlink:href="#font_1_3" transform="matrix(8.9664,0,0,-8.9664,79.05804,20.522995)"/>
<use data-text="o" xlink:href="#font_1_11" transform="matrix(8.9664,0,0,-8.9664,83.155689,20.522995)"/>
<use data-text="u" xlink:href="#font_1_15" transform="matrix(8.9664,0,0,-8.9664,87.76441,20.522995)"/>
<use data-text="n" xlink:href="#font_1_10" transform="matrix(8.9664,0,0,-8.9664,92.884227,20.522995)"/>
<use data-text="t" xlink:href="#font_1_14" transform="matrix(8.9664,0,0,-8.9664,97.752979,20.522995)"/>
<use data-text="s" xlink:href="#font_1_13" transform="matrix(8.9664,0,0,-8.9664,101.33954,20.522995)"/>
<path transform="matrix(1,0,0,-1,62.535,17.434998)" d="M48.52122-22.71872H-48.52122C-50.17194-22.71872-51.51006-24.05685-51.51006-25.70755V-45.24185C-51.51006-46.89256-50.17194-48.23068-48.52122-48.23068H48.52122C50.17194-48.23068 51.51006-46.89256 51.51006-45.24185V-25.70755C51.51006-24.05685 50.17194-22.71872 48.52122-22.71872ZM-51.51006-48.23068" fill="#e6ecf1"/>
<path transform="matrix(1,0,0,-1,62.535,17.434998)" stroke-width=".99628" stroke-linecap="butt" stroke-miterlimit="10" stroke-linejoin="miter" fill="none" stroke="#003e74" d="M48.52122-22.71872H-48.52122C-50.17194-22.71872-51.51006-24.05685-51.51006-25.70755V-45.24185C-51.51006-46.89256-50.17194-48.23068-48.52122-48.23068H48.52122C50.17194-48.23068 51.51006-46.89256 51.51006-45.24185V-25.70755C51.51006-24.05685 50.17194-22.71872 48.52122-22.71872ZM-51.51006-48.23068"/>
<use data-text="l" xlink:href="#font_2_5" transform="matrix(8.9664,0,0,-8.9664,23.46,55.981004)" fill="#003e74"/>
<use data-text="a" xlink:href="#font_2_1" transform="matrix(8.9664,0,0,-8.9664,26.409947,55.981004)" fill="#003e74"/>
<use data-text="t" xlink:href="#font_2_10" transform="matrix(8.9664,0,0,-8.9664,31.565625,55.981004)" fill="#003e74"/>
<use data-text="e" xlink:href="#font_2_4" transform="matrix(8.9664,0,0,-8.9664,35.69017,55.981004)" fill="#003e74"/>
<use data-text="n" xlink:href="#font_2_7" transform="matrix(8.9664,0,0,-8.9664,40.558927,55.981004)" fill="#003e74"/>
<use data-text="t" xlink:href="#font_2_10" transform="matrix(8.9664,0,0,-8.9664,46.15396,55.981004)" fill="#003e74"/>
<use data-text="O" xlink:href="#font_2_8" transform="matrix(8.9664,0,0,-8.9664,53.820234,55.981004)" fill="#003e74"/>
<use data-text="D" xlink:href="#font_2_2" transform="matrix(8.9664,0,0,-8.9664,61.791364,55.981004)" fill="#003e74"/>
<use data-text="m" xlink:href="#font_2_6" transform="matrix(8.9664,0,0,-8.9664,73.45665,55.981004)" fill="#003e74"/>
<use data-text="o" xlink:href="#font_2_9" transform="matrix(8.9664,0,0,-8.9664,82.29752,55.981004)" fill="#003e74"/>
<use data-text="d" xlink:href="#font_2_3" transform="matrix(8.9664,0,0,-8.9664,87.90152,55.981004)" fill="#003e74"/>
<use data-text="e" xlink:href="#font_2_4" transform="matrix(8.9664,0,0,-8.9664,93.79244,55.981004)" fill="#003e74"/>
<use data-text="l" xlink:href="#font_2_5" transform="matrix(8.9664,0,0,-8.9664,98.6612,55.981004)" fill="#003e74"/>
<path transform="matrix(1,0,0,-1,62.535,17.434998)" d="M50.18204-61.88332H-50.18204C-52.38298-61.88332-54.16714-63.66748-54.16714-65.86842V-88.73296C-54.16714-90.9339-52.38298-92.71806-50.18204-92.71806H50.18204C52.38298-92.71806 54.16714-90.9339 54.16714-88.73296V-65.86842C54.16714-63.66748 52.38298-61.88332 50.18204-61.88332ZM-54.16714-92.71806" fill="#ecf2f8"/>
<path transform="matrix(1,0,0,-1,62.535,17.434998)" stroke-width=".79701" stroke-linecap="butt" stroke-miterlimit="10" stroke-linejoin="miter" fill="none" stroke="#4682b4" d="M50.18204-61.88332H-50.18204C-52.38298-61.88332-54.16714-63.66748-54.16714-65.86842V-88.73296C-54.16714-90.9339-52.38298-92.71806-50.18204-92.71806H50.18204C52.38298-92.71806 54.16714-90.9339 54.16714-88.73296V-65.86842C54.16714-63.66748 52.38298-61.88332 50.18204-61.88332ZM-54.16714-92.71806"/>
<use data-text="i" xlink:href="#font_1_18" transform="matrix(8.9664,0,0,-8.9664,34.327,91.47101)"/>
<use data-text="n" xlink:href="#font_1_10" transform="matrix(8.9664,0,0,-8.9664,36.89139,91.47101)"/>
<use data-text="f" xlink:href="#font_1_7" transform="matrix(8.9664,0,0,-8.9664,42.011209,91.47101)"/>
<use data-text="e" xlink:href="#font_1_6" transform="matrix(8.9664,0,0,-8.9664,44.826658,91.47101)"/>
<use data-text="r" xlink:href="#font_1_12" transform="matrix(8.9664,0,0,-8.9664,48.9243,91.47101)"/>
<use data-text="r" xlink:href="#font_1_12" transform="matrix(8.9664,0,0,-8.9664,52.528795,91.47101)"/>
<use data-text="e" xlink:href="#font_1_6" transform="matrix(8.9664,0,0,-8.9664,56.133287,91.47101)"/>
<use data-text="d" xlink:href="#font_1_5" transform="matrix(8.9664,0,0,-8.9664,60.23093,91.47101)"/>
<use data-text="f" xlink:href="#font_1_8" transform="matrix(8.9664,0,0,-8.9664,68.42622,91.47101)"/>
<use data-text="o" xlink:href="#font_1_11" transform="matrix(8.9664,0,0,-8.9664,73.546039,91.47101)"/>
<use data-text="w" xlink:href="#font_1_17" transform="matrix(8.9664,0,0,-8.9664,77.89474,91.47101)"/>
<use data-text="s" xlink:href="#font_1_13" transform="matrix(8.9664,0,0,-8.9664,84.547809,91.47101)"/>
<use data-text="," xlink:href="#font_1_4" transform="matrix(8.9664,0,0,-8.9664,88.1792,91.47101)"/>
<use data-text="m" xlink:href="#font_1_9" transform="matrix(8.9664,0,0,-8.9664,34.696,102.43001)"/>
<use data-text="o" xlink:href="#font_1_11" transform="matrix(8.9664,0,0,-8.9664,42.37124,102.43001)"/>
<use data-text="d" xlink:href="#font_1_5" transform="matrix(8.9664,0,0,-8.9664,47.239995,102.43001)"/>
<use data-text="e" xlink:href="#font_1_6" transform="matrix(8.9664,0,0,-8.9664,52.35981,102.43001)"/>
<use data-text="s" xlink:href="#font_1_13" transform="matrix(8.9664,0,0,-8.9664,56.457456,102.43001)"/>
<use data-text="," xlink:href="#font_1_4" transform="matrix(8.9664,0,0,-8.9664,60.08885,102.43001)"/>
<use data-text="r" xlink:href="#font_1_12" transform="matrix(8.9664,0,0,-8.9664,65.71975,102.43001)"/>
<use data-text="o" xlink:href="#font_1_11" transform="matrix(8.9664,0,0,-8.9664,69.32424,102.43001)"/>
<use data-text="u" xlink:href="#font_1_15" transform="matrix(8.9664,0,0,-8.9664,73.93297,102.43001)"/>
<use data-text="t" xlink:href="#font_1_14" transform="matrix(8.9664,0,0,-8.9664,79.05278,102.43001)"/>
<use data-text="e" xlink:href="#font_1_6" transform="matrix(8.9664,0,0,-8.9664,82.63934,102.43001)"/>
<use data-text="s" xlink:href="#font_1_13" transform="matrix(8.9664,0,0,-8.9664,86.736988,102.43001)"/>
<path transform="matrix(1,0,0,-1,62.535,17.434998)" stroke-width=".99628" stroke-linecap="butt" stroke-miterlimit="10" stroke-linejoin="miter" fill="none" stroke="#003e74" d="M0-9.46461V-17.65579"/>
<path transform="matrix(0,1,1,0,62.535,32.285398)" d="M5.95149 0 1.60866 1.6449 3.05444 0 1.60866-1.6449Z" fill="#003e74"/>
<path transform="matrix(0,1,1,0,62.535,32.285398)" stroke-width=".99628" stroke-linecap="butt" stroke-miterlimit="10" stroke-linejoin="miter" fill="none" stroke="#003e74" d="M5.95149 0 1.60866 1.6449 3.05444 0 1.60866-1.6449Z"/>
<path transform="matrix(1,0,0,-1,62.535,17.434998)" stroke-width=".99628" stroke-linecap="butt" stroke-miterlimit="10" stroke-linejoin="miter" fill="none" stroke="#003e74" d="M0-48.72882V-56.92001"/>
<path transform="matrix(0,1,1,0,62.535,71.54962)" d="M5.95149 0 1.60866 1.6449 3.05444 0 1.60866-1.6449Z" fill="#003e74"/>
<path transform="matrix(0,1,1,0,62.535,71.54962)" stroke-width=".99628" stroke-linecap="butt" stroke-miterlimit="10" stroke-linejoin="miter" fill="none" stroke="#003e74" d="M5.95149 0 1.60866 1.6449 3.05444 0 1.60866-1.6449Z"/>
<path transform="matrix(1,0,0,-1,62.535,17.434998)" stroke-width=".99628" stroke-linecap="butt" stroke-miterlimit="10" stroke-linejoin="miter" fill="none" stroke="#a03c64" d="M54.56566-77.30069C88.58174-77.30069 88.58174 0 59.13045 0"/>
<path transform="matrix(-1,-0,0,1,124.47084,17.434998)" d="M5.95149 0 1.60866 1.6449 3.05444 0 1.60866-1.6449Z" fill="#a03c64"/>
<path transform="matrix(-1,-0,0,1,124.47084,17.434998)" stroke-width=".99628" stroke-linecap="butt" stroke-miterlimit="10" stroke-linejoin="miter" fill="none" stroke="#a03c64" d="M5.95149 0 1.60866 1.6449 3.05444 0 1.60866-1.6449Z"/>
<use data-text="f" xlink:href="#font_3_6" transform="matrix(6.9738,0,0,-6.9738,146.43,57.840997)" fill="#a03c64"/>
<use data-text="e" xlink:href="#font_3_5" transform="matrix(6.9738,0,0,-6.9738,148.99636,57.840997)" fill="#a03c64"/>
<use data-text="e" xlink:href="#font_3_5" transform="matrix(6.9738,0,0,-6.9738,152.37865,57.840997)" fill="#a03c64"/>
<use data-text="d" xlink:href="#font_3_4" transform="matrix(6.9738,0,0,-6.9738,155.76792,57.840997)" fill="#a03c64"/>
<use data-text="b" xlink:href="#font_3_2" transform="matrix(6.9738,0,0,-6.9738,159.97312,57.840997)" fill="#a03c64"/>
<use data-text="a" xlink:href="#font_3_1" transform="matrix(6.9738,0,0,-6.9738,163.35541,57.840997)" fill="#a03c64"/>
<use data-text="c" xlink:href="#font_3_3" transform="matrix(6.9738,0,0,-6.9738,167.56061,57.840997)" fill="#a03c64"/>
<use data-text="k" xlink:href="#font_3_7" transform="matrix(6.9738,0,0,-6.9738,171.35436,57.840997)" fill="#a03c64"/>
</svg>
