<svg xmlns="http://www.w3.org/2000/svg" xmlns:xlink="http://www.w3.org/1999/xlink" xmlns:inkscape="http://www.inkscape.org/namespaces/inkscape" version="1.1" width="357.511" height="157.674" viewBox="0 0 357.511 157.674">
<defs>
<path id="font_1_6" d="M.71899417 .24150086V.2705078C.69299319 .26849366 .6239929 .26849366 .59399417 .26849366 .56199648 .26849366 .47499085 .26849366 .44799806 .2705078V.24150086H.47898866C.5669861 .24150086 .56999209 .22950745 .56999209 .1934967V.12950135C.56999209 .01550293 .43899537 .007507324 .41299439 .007507324 .33399964 .007507324 .14698792 .055511476 .14698792 .3415985 .14698792 .6310272 .33599855 .6750946 .4059906 .6750946 .49299623 .6750946 .5970001 .6119995 .6230011 .43473817 .625 .4237213 .625 .42071534 .6369934 .42071534 .651001 .42071534 .651001 .4237213 .651001 .4437561V.6810913C.651001 .6990967 .651001 .70410159 .6409912 .70410159 .6349945 .70410159 .6339874 .7020874 .6279907 .6920929L.57899478 .6130066C.5499878 .64904788 .4889984 .70410159 .3939972 .70410159 .21299744 .70410159 .053985597 .5469055 .053985597 .3415985 .053985597 .13450623 .21299744-.021484375 .394989-.021484375 .46598817-.021484375 .5469971 .0015106201 .58399966 .06550598 .60198977 .0335083 .6349945 .00050354006 .6429901 .00050354006 .651001 .00050354006 .651001 .006515503 .651001 .022506714V.19750977C.651001 .23649597 .6549988 .24150086 .71899417 .24150086Z"/>
<path id="font_1_15" d="M.24099732 0V.0289917C.17599488 .0289917 .17199707 .033996583 .17199707 .07304382V.44140626L.035995485 .4303589V.4013672C.099990848 .4013672 .10899353 .39535523 .10899353 .34629823V.074035648C.10899353 .0289917 .09799194 .0289917 .032989503 .0289917V0C.06098938 .0019989014 .10899353 .0019989014 .13798523 .0019989014 .14898682 .0019989014 .20698548 .0019989014 .24099732 0M.18499756 .6043091C.18499756 .63430789 .16099549 .6533203 .13699341 .6533203 .10899353 .6533203 .08799744 .63131716 .08799744 .6043091 .08799744 .5783081 .10998535 .55630496 .13598633 .55630496 .1659851 .55630496 .18499756 .580307 .18499756 .6043091Z"/>
<path id="font_1_13" d="M.49798585 .4016571V.43066407C.46899415 .4286499 .45498658 .4286499 .42399598 .4286499L.34199525 .43066407V.4016571C.38398744 .3996582 .3889923 .3697052 .3889923 .35871888 .3889923 .34973146 .3869934 .34474183 .38198854 .3327484L.27999879 .07510376 .16799927 .35671998C.16299439 .37069703 .1619873 .37069703 .1619873 .37568666 .1619873 .4016571 .19999695 .4016571 .21798706 .4016571V.43066407C.19299317 .4286499 .14099121 .4286499 .11399841 .4286499L.017990113 .43066407V.4016571C.07398987 .4016571 .083999637 .3976593 .09599304 .36669923L.23899842 .00920105C.24398804-.004776001 .24598694-.009765625 .2579956-.009765625 .2649994-.009765625 .2709961-.0077819826 .27799989 .00920105L.4079895 .3357544C.4169922 .3577118 .43399049 .40066529 .49798585 .4016571Z"/>
<path id="font_1_5" d="M.40699769 .11932373C.40699769 .1253357 .4019928 .1293335 .3959961 .1293335 .3880005 .1293335 .38598634 .12432861 .38398744 .11932373 .35798646 .035247804 .29100038 .01222229 .24899292 .01222229 .20698548 .01222229 .10598755 .040252687 .10598755 .21340943V.23242188H.3829956C.40499879 .23242188 .40699769 .23242188 .40699769 .25141908 .40699769 .3523407 .35299684 .44628907 .23199463 .44628907 .117996219 .44628907 .02999878 .34335328 .02999878 .21940613 .02999878 .08729553 .13198853-.009765625 .24299622-.009765625 .3619995-.009765625 .40699769 .09829712 .40699769 .11932373M.34498597 .25141908H.10699463C.114990238 .40830995 .20298767 .42630006 .23098755 .42630006 .33799745 .42630006 .34399415 .28538514 .34498597 .25141908Z"/>
<path id="font_1_8" d="M.5209961 0V.0289917C.47099305 .0289917 .44599916 .0289917 .44499208 .059051515V.24342346C.44499208 .3365631 .44499208 .36450196 .42199708 .39640809 .3929901 .4353943 .34599305 .44140626 .31199647 .44140626 .21499634 .44140626 .1769867 .35850526 .16899109 .338562H.16799927V.44140626L.03199768 .4303589V.4013672C.099990848 .4013672 .10798645 .39437867 .10798645 .34553529V.07408142C.10798645 .0289917 .09700012 .0289917 .03199768 .0289917V0C.057998659 .0019989014 .11199951 .0019989014 .13999939 .0019989014 .16899109 .0019989014 .22299195 .0019989014 .24899292 0V.0289917C.18499756 .0289917 .17298889 .0289917 .17298889 .07408142V.26046754C.17298889 .36547853 .24198914 .4213562 .3039856 .4213562 .3659973 .4213562 .37998963 .37045289 .37998963 .3095703V.07408142C.37998963 .0289917 .36898805 .0289917 .3039856 .0289917V0C.32998658 .0019989014 .38398744 .0019989014 .4119873 .0019989014 .44099427 .0019989014 .49499513 .0019989014 .5209961 0Z"/>
<path id="font_2_19" d="M.7879944 .4013214V.44433595C.7589874 .44232179 .74598696 .44232179 .70999148 .44232179 .6689911 .44232179 .6559906 .44232179 .6199951 .44433595V.4013214C.6289978 .4013214 .6779938 .4013214 .6779938 .38832093 .6779938 .38832093 .6779938 .38632203 .673996 .37631227L.56900027 .11618042 .45399476 .4013214H.5109863V.44433595C.4869995 .44232179 .42799378 .44232179 .40098573 .44232179L.2979889 .44433595V.4013214H.35699464C.3600006 .3933258 .36499024 .38031007 .36898805 .37130738 .37199403 .36531068 .38198854 .34129334 .38198854 .33628846L.37799073 .3242798 .3019867 .13517761 .19400025 .4013214H.25099183V.44433595C.22799683 .44232179 .1599884 .44232179 .1329956 .44232179 .100997928 .44232179 .052993776 .44232179 .022994996 .44433595V.4013214H.08198547L.23498535 .020126343C.24198914 .002105713 .24598694-.0048828127 .2679901-.0048828127 .2789917-.0048828127 .29100038-.0048828127 .29899598 .01512146L.40499879 .28025819 .5109863 .017120362C.519989-.0048828127 .5309906-.0048828127 .54299929-.0048828127 .5649872-.0048828127 .56799319 .0011138916 .57499697 .019119263L.7200012 .37731935C.72698977 .39431764 .7299957 .4013214 .7879944 .4013214Z"/>
<path id="font_2_7" d="M.59999087 0V.042999269H.5309906V.30659486C.5309906 .4012909 .48999024 .4501953 .37998963 .4501953 .2789917 .4501953 .22999573 .37942506 .21598816 .34960938H.21499634V.69433596L.041992189 .6855469V.64253237C.10398865 .64253237 .11099243 .64253237 .11099243 .6036682V.042999269H.041992189V0C.06498718 .0019989014 .13699341 .0019989014 .16499329 .0019989014 .19299317 .0019989014 .2659912 .0019989014 .2889862 0V.042999269H.21998596V.25610353C.21998596 .36416627 .2999878 .41719056 .3639984 .41719056 .40098573 .41719056 .42199708 .39317323 .42199708 .31713868V.042999269H.35299684V0C.37599183 .0019989014 .44799806 .0019989014 .47599793 .0019989014 .5039978 .0019989014 .57699587 .0019989014 .59999087 0Z"/>
<path id="font_2_13" d="M.5299988 .21913147C.5299988 .35412599 .43798829 .453125 .2809906 .453125 .117996219 .453125 .0309906 .3491211 .0309906 .21913147 .0309906 .088134769 .12298584-.005859375 .27999879-.005859375 .44299317-.005859375 .5299988 .09312439 .5299988 .21913147M.4099884 .22912598C.4099884 .14613343 .4099884 .030136109 .2809906 .030136109 .15098572 .030136109 .15098572 .14712525 .15098572 .22912598 .15098572 .27612306 .15098572 .3261261 .16999817 .36212159 .19198609 .40211488 .23699951 .42012025 .27999879 .42012025 .33699037 .42012025 .37298585 .39311219 .3899994 .3651123 .4099884 .32911683 .4099884 .27713014 .4099884 .22912598Z"/>
<path id="font_2_10" d="M.28599549 0V.042999269H.21699524V.69433596L.04399109 .6855469V.64253237C.10598755 .64253237 .11299133 .64253237 .11299133 .6035614V.042999269H.04399109V0C.066986087 .0019989014 .13798523 .0019989014 .16499329 .0019989014 .19198609 .0019989014 .2630005 .0019989014 .28599549 0Z"/>
<path id="font_2_21" d="M.2789917 0V.042999269H.21699524V.4501953L.04699707 .4423828V.3993683C.10598755 .3993683 .11299133 .3993683 .11299133 .3603363V.042999269H.04399109V0C.066986087 .0019989014 .13598633 .0019989014 .16299439 .0019989014 .19099427 .0019989014 .25498963 .0019989014 .2789917 0M.22898865 .6081238C.22898865 .64912417 .19499207 .68013 .15699768 .68013 .115997318 .68013 .083999637 .64712527 .083999637 .6081238 .083999637 .5671234 .117996219 .5361328 .1559906 .5361328 .19699097 .5361328 .22898865 .5691223 .22898865 .6081238Z"/>
<path id="font_2_18" d="M.56900027 .4013214V.44433595C.5329895 .44232179 .5309906 .44232179 .48999024 .44232179L.4039917 .44433595V.4013214C.43099977 .4013214 .45298768 .3963318 .45298768 .389328 .45298768 .389328 .45298768 .38731385 .44799806 .37731935L.33099366 .12017822 .20199585 .4013214H.25698854V.44433595C.23399353 .44232179 .1639862 .44232179 .13699341 .44232179 .10798645 .44232179 .049987794 .44232179 .023986817 .44433595V.4013214H.08699036L.2630005 .019119263C.27198792 .00010681152 .27398683-.0048828127 .29699708-.0048828127 .31298829-.0048828127 .32099916-.0028839112 .32998658 .017120362L.49499513 .37831117C.5019989 .3933258 .5059967 .4013214 .56900027 .4013214Z"/>
<path id="font_2_4" d="M.48098756 .11706543C.48098756 .13206482 .46598817 .13206482 .45999146 .13206482 .44400025 .13206482 .44299317 .12905884 .43699647 .11607361 .41099549 .051116945 .34498597 .030136109 .29699708 .030136109 .1519928 .030136109 .15098572 .16503906 .15098572 .22099304H.45199586C.47499085 .22099304 .48098756 .22099304 .48098756 .24598694 .48098756 .27601625 .47399903 .35105897 .42799378 .3981018 .38598634 .4401245 .32998658 .453125 .27198792 .453125 .115997318 .453125 .0309906 .35105897 .0309906 .22499085 .0309906 .08509827 .13398743-.005859375 .2849884-.005859375 .43598939-.005859375 .48098756 .1000824 .48098756 .11706543M.3889923 .25H.15098572C.15299988 .29101563 .1539917 .3300476 .1749878 .3660736 .19400025 .3981018 .22898865 .42012025 .27198792 .42012025 .3789978 .42012025 .3880005 .30003358 .3889923 .25Z"/>
<path id="font_2_15" d="M.40499879 .13912964C.40499879 .18711853 .3789978 .22012329 .35899354 .23812866 .31799317 .27212525 .28399659 .27812196 .22999573 .28811646 .1659851 .29911805 .10598755 .31011964 .10598755 .35812379 .10598755 .42311097 .19499207 .42311097 .21598816 .42311097 .32699586 .42311097 .33299256 .3531189 .33499146 .328125 .33599855 .3151245 .34399415 .3151245 .35598756 .3151245 .3769989 .3151245 .3769989 .31811524 .3769989 .34111024V.42712403C.3769989 .44612123 .3769989 .453125 .3619995 .453125 .35598756 .453125 .35398866 .453125 .33898927 .4441223 .33499146 .44111634 .32398988 .43411256 .31900025 .43112184 .29100038 .44711305 .2539978 .453125 .21798706 .453125 .18798828 .453125 .037994386 .453125 .037994386 .32312013 .037994386 .21812439 .1619873 .19612122 .19299317 .19113159 .21998596 .18612671 .25299073 .18013 .25698854 .18013 .29699708 .17112732 .33699037 .14613343 .33699037 .10412598 .33699037 .027130127 .24598694 .027130127 .22499085 .027130127 .17399597 .027130127 .11099243 .043136598 .08299255 .14012146 .07699585 .16012573 .07598877 .16113281 .05899048 .16113281 .037994386 .16113281 .037994386 .15812683 .037994386 .13513184V.020126343C.037994386 .0011291504 .037994386-.005859375 .052993776-.005859375 .05999756-.005859375 .06199646-.005859375 .08198547 .010131836L.10798645 .029129029C.15299988-.005859375 .20698548-.005859375 .22499085-.005859375 .27999879-.005859375 .40499879 .006134033 .40499879 .13912964Z"/>
<path id="font_2_1" d="M.54100039 .022140503C.54100039 .043136598 .5319977 .043136598 .5179901 .043136598 .45498658 .044128419 .45498658 .060134889 .45498658 .08312988V.29911805C.45498658 .39111329 .38198854 .453125 .24099732 .453125 .18499756 .453125 .066986087 .44812013 .066986087 .36412049 .066986087 .32211305 .09899902 .30412293 .12599182 .30412293 .1559906 .30412293 .18499756 .32511903 .18499756 .3631134 .18499756 .3821106 .17799378 .40011598 .16099549 .41111756 .19400025 .42012025 .21798706 .42012025 .23699951 .42012025 .30499269 .42012025 .34599305 .3821106 .34599305 .30012513V.26011659C.18798828 .26011659 .0289917 .21612549 .0289917 .10513306 .0289917 .014129639 .14498902-.005859375 .21398926-.005859375 .29100038-.005859375 .33999635 .036132814 .3600006 .0801239 .3600006 .042999269 .3600006 0 .46099855 0H.5119934C.5329895 0 .54100039 0 .54100039 .021987915V.022140503M.34599305 .13899231C.34599305 .04499817 .2619934 .026992798 .22999573 .026992798 .18099976 .026992798 .13999939 .05999756 .13999939 .10598755 .13999939 .19699097 .24798584 .22799683 .34599305 .23298645V.13899231Z"/>
<path id="font_2_12" d="M.59999087 0V.042999269H.5309906V.30613709C.5309906 .40118409 .48999024 .4501953 .37998963 .4501953 .30799867 .4501953 .24598694 .41519166 .21199036 .34014894H.21099854V.4501953L.041992189 .4423828V.3993683C.10398865 .3993683 .11099243 .3993683 .11099243 .36035157V.042999269H.041992189V0C.06498718 .0019989014 .13699341 .0019989014 .16499329 .0019989014 .19299317 .0019989014 .2659912 .0019989014 .2889862 0V.042999269H.21998596V.25627137C.21998596 .3643341 .2999878 .41719056 .3639984 .41719056 .40098573 .41719056 .42199708 .3932495 .42199708 .31733705V.042999269H.35299684V0C.37599183 .0019989014 .44799806 .0019989014 .47599793 .0019989014 .5039978 .0019989014 .57699587 .0019989014 .59999087 0Z"/>
<path id="font_2_3" d="M.58898928 0V.042999269C.5269928 .042999269 .519989 .042999269 .519989 .08201599V.69433596L.34700013 .6855469V.64253237C.40899659 .64253237 .41600038 .64253237 .41600038 .6036682V.40219117C.3939972 .42118836 .34999085 .4501953 .2809906 .4501953 .13899231 .4501953 .037994386 .36218263 .037994386 .22215271 .037994386 .07914734 .13699341-.005859375 .269989-.005859375 .32499696-.005859375 .37199403 .013137817 .41099549 .046142579V-.005859375L.58898928 0M.41099549 .100997928C.36898805 .040130617 .31799317 .027130127 .28199769 .027130127 .1579895 .027130127 .1579895 .15414429 .1579895 .22015381 .1579895 .26716615 .1579895 .3171692 .17999268 .35517884 .21099854 .4111786 .269989 .41719056 .29299928 .41719056 .33399964 .41719056 .37799073 .39918519 .41099549 .35517884V.100997928Z"/>
<path id="font_2_14" d="M.4269867 .3711853C.4269867 .42218019 .375 .4501953 .32699586 .4501953 .24798584 .4501953 .21398926 .38119508 .19999695 .33918763H.19898987V.4501953L.034988405 .4423828V.3993683C.09700012 .3993683 .10398865 .3993683 .10398865 .3603363V.042999269H.034988405V0C.057998659 .0019989014 .1329956 .0019989014 .16099549 .0019989014 .18998719 .0019989014 .2709961 .0019989014 .29499818 0V.042999269H.20799256V.22518921C.20799256 .25819398 .21499634 .41719056 .33198548 .41719056 .31799317 .40618897 .31098939 .38919068 .31098939 .3711853 .31098939 .33018495 .34399415 .31318666 .36898805 .31318666 .3939972 .31318666 .4269867 .33018495 .4269867 .3711853Z"/>
<path id="font_2_9" d="M.57499697 0V.042999269C.5589905 .042999269 .5389862 .042999269 .5279999 .04399109 .5139923 .04699707 .5099945 .05000305 .49899293 .06401062L.33198548 .2802124 .45799256 .38230897C.46998597 .39231874 .48098756 .4013214 .5499878 .4013214V.44433595C.5239868 .44232179 .5039978 .44232179 .46699525 .44232179 .44099427 .44232179 .3849945 .44232179 .3619995 .44433595V.4013214C.37399293 .4013214 .397995 .3983307 .397995 .39031983 .397995 .38632203 .3919983 .38230897 .3899994 .38031007L.20799256 .23417664V.69433596L.034988405 .6855469V.64253237C.09700012 .64253237 .10398865 .64253237 .10398865 .6035614V.042999269H.034988405V0C.057998659 .001953125 .1269989 .001953125 .1539917 .001953125 .18099976 .0019989014 .25 .0019989014 .272995 0V.042999269H.20399475V.17675781C.21998596 .18875122 .23498535 .20175171 .25698854 .21975708L.37799073 .063949588C.3849945 .05593872 .3849945 .052947999 .3849945 .052947999 .3849945 .042999269 .36499024 .042999269 .35099793 .042999269V0C.375 .001953125 .44099427 .001953125 .46798707 .001953125 .5189972 .0019989014 .5329895 .0019989014 .57499697 0Z"/>
<path id="font_1_1" d="M.47399903 .08912659V.14515686H.45199586V.08912659C.45199586 .03211975 .42799378 .024108887 .4139862 .024108887 .37599183 .024108887 .37599183 .07713318 .37599183 .09213257V.26719667C.37599183 .3211975 .37599183 .36120606 .33198548 .40023805 .29699708 .43226625 .2519989 .44628907 .20799256 .44628907 .12599182 .44628907 .06298828 .39222718 .06298828 .32720948 .06298828 .2982025 .08198547 .2842102 .10499573 .2842102 .1289978 .2842102 .1459961 .3012085 .1459961 .32521058 .1459961 .36621095 .10998535 .36621095 .09498596 .36621095 .117996219 .4082489 .1659851 .42625428 .20599365 .42625428 .2519989 .42625428 .31098939 .38822938 .31098939 .2982025V.25819398C.10998535 .255188 .033996583 .17115784 .033996583 .09413147 .033996583 .0152282719 .12599182-.009765625 .18699646-.009765625 .25299073-.009765625 .2979889 .030227662 .31698609 .07823181 .32099916 .03111267 .35198976-.0048828127 .394989-.0048828127 .41600038-.0048828127 .47399903 .009109497 .47399903 .089141849V.08912659M.31098939 .14117432C.31098939 .043121339 .23799134 .010116577 .19499207 .010116577 .1459961 .010116577 .10499573 .04612732 .10499573 .09414673 .10499573 .22621155 .2749939 .23822022 .31098939 .24023438V.14117432Z"/>
<path id="font_1_4" d="M.5149994 .00022888184V.029220581C.44699098 .029220581 .43899537 .036224367 .43899537 .085250858V.69433596L.2999878 .68333438V.6543274C.36799623 .6543274 .37599183 .64733889 .37599183 .5983429V.37738038C.35499574 .40638734 .31199647 .44140626 .25099183 .44140626 .1349945 .44140626 .034988405 .34336854 .034988405 .21530152 .034988405 .088256839 .12998963-.009765625 .23999024-.009765625 .31599427-.009765625 .3600006 .040237428 .37399293 .05923462V-.009765625L.5149994 .00022888184M.37399293 .117263797C.37399293 .09925842 .37399293 .09625244 .3600006 .07424927 .33599855 .039245607 .29499818 .010223389 .24499512 .010223389 .21899414 .010223389 .11099243 .020233155 .11099243 .21430969 .11099243 .28634645 .12298584 .32635499 .14498902 .359375 .16499329 .39038087 .20498657 .42140199 .25498963 .42140199 .31698609 .42140199 .35198976 .3763733 .3619995 .36036683 .37399293 .34336854 .37399293 .34136964 .37399293 .32336427V.117263797Z"/>
<path id="font_2_16" d="M.37399293 .124176029V.17721558H.33198548V.1251831C.33198548 .059143068 .3019867 .030136109 .2709961 .030136109 .21099854 .030136109 .21099854 .09716797 .21099854 .12017822V.4013214H.35499574V.44433595H.21099854V.6357422H.16899109C.16799927 .53652957 .11999512 .43733216 .020996094 .43432618V.4013214H.101989749V.123184207C.101989749 .01713562 .18399048-.005859375 .2559967-.005859375 .32998658-.005859375 .37399293 .05014038 .37399293 .124176029Z"/>
<path id="font_2_17" d="M.59999087 0V.042999269C.5379944 .042999269 .5309906 .042999269 .5309906 .08201599V.4501953L.35299684 .4423828V.3993683C.4149933 .3993683 .42199708 .3993683 .42199708 .36035157V.16423035C.42199708 .08818054 .3769989 .027130127 .29899598 .027130127 .22399903 .027130127 .21998596 .05215454 .21998596 .10719299V.4501953L.041992189 .4423828V.3993683C.10398865 .3993683 .11099243 .3993683 .11099243 .36035157V.12319946C.11099243 .023132325 .17799378-.005859375 .2849884-.005859375 .30899049-.005859375 .3829956-.005859375 .42599488 .075164798H.4269867V-.005859375L.59999087 0Z"/>
<path id="font_1_3" d="M.19499207-.0040130617C.19499207 .057998659 .17399597 .09700012 .1349945 .09700012 .10598755 .09700012 .08699036 .07499695 .08699036 .04899597 .08699036 .021987915 .10598755 0 .13598633 0 .15098572 0 .1619873 .0069885256 .16799927 .011993408 .17098999 .01499939 .17298889 .01499939 .17298889 .01499939 .17298889 .01499939 .1749878 .0009918213 .1749878-.0040130617 .1749878-.06813049 .14898682-.12825012 .10499573-.17433167 .100997928-.17733765 .099990848-.17933655 .099990848-.18334961 .099990848-.18835449 .10499573-.19335938 .10998535-.19335938 .11898804-.19335938 .19499207-.11923218 .19499207-.0040130617Z"/>
<path id="font_1_2" d="M.4059906 .1191864C.4059906 .12817383 .39898683 .12817383 .3959961 .12817383 .3869934 .12817383 .38598634 .1251831 .3829956 .1131897 .36099244 .04222107 .30699159 .01222229 .25299073 .01222229 .19198609 .01222229 .11099243 .065200809 .11099243 .21713257 .11099243 .3831482 .19599915 .4242859 .24598694 .4242859 .28399659 .4242859 .33898927 .40924073 .3619995 .3701172 .34999085 .3701172 .31298829 .3701172 .31298829 .32911683 .31298829 .30511476 .32998658 .28811646 .35398866 .28811646 .3769989 .28811646 .3959961 .30210877 .3959961 .33111573 .3959961 .39819337 .32598878 .44628907 .24499512 .44628907 .12799073 .44628907 .034988405 .34210206 .034988405 .21614075 .034988405 .0881958 .1309967-.009765625 .24398804-.009765625 .37599183-.009765625 .4059906 .110183719 .4059906 .1191864Z"/>
<path id="font_1_14" d="M.6879883 .4016571V.43066407C.6629944 .4286499 .644989 .4286499 .6139984 .4286499L.5289917 .43066407V.4016571C.57398989 .39964295 .58599856 .37251283 .58599856 .35343934 .58599856 .35343934 .58599856 .34544374 .58200076 .33543397L.48999024 .074035648 .3899994 .3564453C.3849945 .36849977 .3849945 .37049867 .3849945 .3735199 .3849945 .4016571 .42199708 .4016571 .44299317 .4016571V.43066407C.4149933 .4286499 .37399293 .4286499 .34498597 .4286499L.25498963 .43066407V.4016571C.29299928 .4016571 .30599977 .39964295 .31698609 .38658143 .32199098 .3805542 .33399964 .34744264 .34098817 .32743836L.2559967 .083999637 .1599884 .35543824C.15499878 .36849977 .15499878 .37049867 .15499878 .37452699 .15499878 .4016571 .19400025 .4016571 .21299744 .4016571V.43066407C.18798828 .4286499 .13798523 .4286499 .11099243 .4286499L.017990113 .43066407V.4016571C.068984989 .4016571 .07899475 .39764405 .08999634 .36547853L.21598816 .008178711C.21998596-.0027923585 .22299195-.009765625 .23399353-.009765625 .24299622-.009765625 .24798584-.0067749025 .25299073 .009185791L.35299684 .29351808 .45298768 .009185791C.45799256-.0067749025 .46299745-.009765625 .47200013-.009765625 .48298646-.009765625 .48599244-.0027923585 .48999024 .008178711L.6049957 .33543397C.6269989 .39863587 .67099 .40065003 .6879883 .4016571Z"/>
<path id="font_1_9" d="M.5079956 .21640015C.5079956 .34339906 .4139862 .44140626 .30499269 .44140626 .21699524 .44140626 .16999817 .3784027 .16699219 .3744049V.44140626L.027999878 .4303589V.4013672C.09799194 .4013672 .10398865 .3943634 .10398865 .3503418V-.1199646C.10398865-.16503906 .09298706-.16503906 .027999878-.16503906V-.19404602C.053985597-.19204712 .10798645-.19204712 .13598633-.19204712 .16499329-.19204712 .21899414-.19204712 .24499512-.19404602V-.16503906C.18099976-.16503906 .16899109-.16503906 .16899109-.1199646V.054244996C.18699646 .02923584 .22799683-.009765625 .2919922-.009765625 .40699769-.009765625 .5079956 .087249759 .5079956 .21629334V.21640015M.43199159 .21629334C.43199159 .09725952 .3639984 .010223389 .2869873 .010223389 .2559967 .010223389 .22698975 .023223877 .20698548 .042236329 .18399048 .06524658 .16899109 .085250858 .16899109 .11326599V.31933595C.16899109 .33833314 .16899109 .3393402 .17999268 .35534669 .20999146 .40040589 .25898744 .41940309 .29699708 .41940309 .37199403 .41940309 .43199159 .32839967 .43199159 .21640015V.21629334Z"/>
<path id="font_1_11" d="M.35299684 .38339234C.35299684 .4133911 .32598878 .44140626 .2829895 .44140626 .19799805 .44140626 .16899109 .34939576 .16299439 .33039857H.1619873V.44140626L.027999878 .4303589V.4013672C.09599304 .4013672 .10398865 .39434815 .10398865 .3453064V.074035648C.10398865 .0289917 .09298706 .0289917 .027999878 .0289917V0C.055999757 .0019989014 .11099243 .0019989014 .14099121 .0019989014 .16799927 .0019989014 .23899842 .0019989014 .2619934 0V.0289917H.24198914C.16899109 .02973938 .16699219 .040740968 .16699219 .07673645V.23374939C.16699219 .3307495 .20698548 .42173768 .28399659 .42173768 .2919922 .42173768 .2939911 .42173768 .2979889 .42074586 .2899933 .41674806 .27398683 .41073609 .27398683 .3837433 .27398683 .35473634 .29699708 .34375 .31298829 .34375 .33299256 .34375 .35299684 .35673524 .35299684 .3837433V.38339234Z"/>
<path id="font_1_12" d="M.32598878 .124069217V.1809845H.3039856V.12606812C.3039856 .0541687 .2749939 .01222229 .23599243 .01222229 .16799927 .01222229 .16799927 .10508728 .16799927 .12207031V.4016571H.30899049V.43066407H.16799927V.6142578H.1459961C.14498902 .52046206 .10899353 .4246521 .017990113 .42166139V.4016571H.102996829V.124069217C.102996829 .01322937 .1769867-.009765625 .22999573-.009765625 .29299928-.009765625 .32598878 .0521698 .32598878 .124069217Z"/>
<path id="font_1_7" d="M.5209961 0V.0289917C.47099305 .0289917 .44599916 .0289917 .44499208 .059020997V.24320984C.44499208 .3363037 .44499208 .3643341 .42199708 .39637757 .3929901 .4353943 .34599305 .44140626 .31199647 .44140626 .22599793 .44140626 .18598938 .37634278 .17199707 .34532167H.17098999V.69433596L.03199768 .6826172V.6536102C.099990848 .6536102 .10798645 .64663699 .10798645 .59780886V.074035648C.10798645 .0289917 .09700012 .0289917 .03199768 .0289917V0C.057998659 .0019989014 .11199951 .0019989014 .13999939 .0019989014 .16899109 .0019989014 .22299195 .0019989014 .24899292 0V.0289917C.18499756 .0289917 .17298889 .0289917 .17298889 .074035648V.2602234C.17298889 .3653412 .24198914 .42140199 .3039856 .42140199 .3659973 .42140199 .37998963 .37034608 .37998963 .3092804V.074035648C.37998963 .0289917 .36898805 .0289917 .3039856 .0289917V0C.32998658 .0019989014 .38398744 .0019989014 .4119873 .0019989014 .44099427 .0019989014 .49499513 .0019989014 .5209961 0Z"/>
<path id="font_2_5" d="M.901001 0V.042999269H.83200076V.453125L.6589966 .44812013V.44433595H.5149994V.5439453C.5149994 .65715029 .6329956 .66719058 .6729889 .66719058 .6839905 .66719058 .7200012 .66719058 .75 .64712527 .71899417 .6371002 .70599368 .61302188 .70599368 .5869446 .70599368 .550354 .73298647 .5263672 .7669983 .5263672 .7999878 .526001 .8279877 .54893496 .8279877 .5869446 .8279877 .6421051 .7829895 .7001953 .6819916 .7001953 .60198977 .7001953 .5389862 .6871948 .4850006 .65615847 .44299317 .7001953 .3849945 .7001953 .36698915 .7001953 .2539978 .7001953 .10398865 .6661835 .10398865 .54493716V.44433595H.02999878V.4013214H.10398865V.042999269H.034988405V0C.057998659 .0019989014 .1289978 .0019989014 .1559906 .0019989014 .18299866 .0019989014 .2539978 .0019989014 .2769928 0V.042999269H.20799256V.4013214H.41600038V.042999269H.34700013V0C.36999513 .0019989014 .44099427 .0019989014 .46798707 .0019989014 .49499513 .0019989014 .56599429 .0019989014 .58898928 0V.042999269H.519989V.4013214H.69699099C.7220001 .4013214 .7279968 .4003296 .7279968 .3652954V.042999269H.6589966V0C.6819916 .0019989014 .7529907 .0019989014 .7799988 .0019989014 .8069916 .0019989014 .8779907 .0019989014 .901001 0M.43399049 .64712527C.4039917 .63809207 .3889923 .6170349 .3889923 .5869446 .3889923 .5659332 .39698792 .54693606 .41600038 .53596499V.44433595H.20298767V.5439453C.20298767 .63308718 .27799989 .66719058 .35798646 .66719058 .375 .66719058 .40699769 .6651764 .43399049 .64712527Z"/>
<path id="font_2_2" d="M.46798707 .117126468C.46798707 .12913513 .45700074 .12913513 .44699098 .12913513 .43099977 .12913513 .42999269 .12812805 .4249878 .11613464 .41799928 .09713745 .3909912 .030136109 .29899598 .030136109 .1579895 .030136109 .1579895 .1821289 .1579895 .22712708 .1579895 .28611756 .15899658 .41711427 .2899933 .41711427 .29699708 .41711427 .35598756 .41511537 .35598756 .41011048 .35598756 .41011048 .35499574 .40811158 .35299684 .40711976 .34999085 .40411378 .33699037 .38911439 .33699037 .36412049 .33699037 .32211305 .37098695 .30511476 .3959961 .30511476 .4169922 .30511476 .45498658 .31811524 .45498658 .3651123 .45498658 .44711305 .33999635 .453125 .28599549 .453125 .10798645 .453125 .037994386 .33711244 .037994386 .22212219 .037994386 .086135867 .1329956-.005859375 .27999879-.005859375 .43699647-.005859375 .46798707 .11012268 .46798707 .117126468Z"/>
<path id="font_2_8" d="M.31199647 .17578125V.2677765H.011993408V.17578125H.31199647Z"/>
<path id="font_2_11" d="M.9129944 0V.042999269H.84399417V.30636598C.84399417 .39823915 .8049927 .4501953 .69299319 .4501953 .59199526 .4501953 .54499819 .38227845 .5289917 .3503723 .5130005 .43518067 .44499208 .4501953 .3809967 .4501953 .2849884 .4501953 .23298645 .38827516 .21199036 .3403778H.21099854V.4501953L.041992189 .4423828V.3993683C.10398865 .3993683 .11099243 .3993683 .11099243 .36035157V.042999269H.041992189V0C.06498718 .0019989014 .13699341 .0019989014 .16499329 .0019989014 .19299317 .0019989014 .2659912 .0019989014 .2889862 0V.042999269H.21998596V.25627137C.21998596 .36532594 .30099488 .41719056 .3639984 .41719056 .40098573 .41719056 .4229889 .3952484 .4229889 .3173828V.042999269H.35398866V0C.3769989 .0019989014 .44898988 .0019989014 .47698976 .0019989014 .5049896 .0019989014 .5779877 .0019989014 .6009979 0V.042999269H.5319977V.25628663C.5319977 .36532594 .61299136 .41719056 .6759949 .41719056 .71299746 .41719056 .7350006 .3952484 .7350006 .3173828V.042999269H.66600039V0C.68899539 .0019989014 .7609863 .0019989014 .78900149 .0019989014 .81700137 .0019989014 .8899994 .0019989014 .9129944 0Z"/>
<path id="font_2_20" d="M.56900027 .4013214V.44433595C.5349884 .44232179 .5309906 .44232179 .48999024 .44232179L.4039917 .44433595V.4013214C.4039917 .4013214 .45199586 .4013214 .45199586 .38832093 .45199586 .38531495 .44898988 .37931825 .44799806 .37631227L.33099366 .124176029 .20298767 .4013214H.2579956V.44433595C.23399353 .44232179 .1659851 .44232179 .13798523 .44232179 .10899353 .44232179 .049987794 .44232179 .023986817 .44433595V.4013214H.08799744L.272995 .000091552738C.2679901-.0119018559 .2539978-.040924074 .24899292-.05293274 .22799683-.097961429 .19599915-.16699219 .12599182-.16699219 .12199402-.16699219 .10998535-.16699219 .09899902-.16099549 .100997928-.1599884 .1309967-.147995 .1309967-.10997009 .1309967-.07695007 .10699463-.05593872 .07699585-.05593872 .04598999-.05593872 .021987915-.07695007 .021987915-.110961917 .021987915-.1579895 .06599426-.19999695 .12599182-.19999695 .20799256-.19999695 .2619934-.12597656 .28199769-.081954959L.49499513 .37931825C.5009918 .3933258 .5049896 .4013214 .56900027 .4013214Z"/>
<path id="font_2_6" d="M.54499819 .40003968C.54499819 .42404176 .5269928 .4560547 .4850006 .4560547 .44198609 .4560547 .40098573 .43504334 .37998963 .41705323 .33898927 .44119264 .2999878 .4501953 .24899292 .4501953 .11099243 .4501953 .055999757 .3731842 .055999757 .30319215 .055999757 .27218629 .06599426 .23118592 .10798645 .19718933 .09098816 .17819214 .07299805 .14318848 .07299805 .10719299 .07299805 .064193729 .09599304 .027191163 .116989139 .011184692 .09298706 .0052490236 .0309906-.01776123 .0309906-.0748291 .0309906-.13391114 .09599304-.20095825 .27999879-.20095825 .44599916-.20095825 .5299988-.14692688 .5299988-.07182312 .5299988 .01625061 .47200013 .04525757 .44699098 .057250978 .39898683 .08125305 .33499146 .08125305 .24699402 .08125305 .22200012 .08125305 .17799378 .08125305 .17298889 .08224487 .12998963 .08924866 .117996219 .12724304 .117996219 .14624024 .117996219 .15423584 .11898804 .16923523 .12998963 .18223572 .17799378 .15625 .23399353 .15625 .24899292 .15625 .3869934 .15625 .44198609 .23320008 .44198609 .30314637 .44198609 .35411073 .41299439 .39007569 .40098573 .4000702 .42999269 .41604615 .45399476 .42004396 .47099305 .42204286 .46798707 .41705323 .46499635 .41305543 .46499635 .4000702 .46499635 .37908937 .47898866 .36009217 .5049896 .36009217 .5309906 .36009217 .54499819 .37908937 .54499819 .4000702V.40003968M.33599855 .30314637C.33599855 .2571869 .33599855 .18824768 .24899292 .18824768 .1619873 .18812561 .1619873 .25715638 .1619873 .30316163 .1619873 .34916688 .1619873 .41818238 .24899292 .41818238 .33599855 .41818238 .33599855 .34916688 .33599855 .30316163V.30314637M.44799806-.075927738C.44799806-.1109314 .41299439-.16894531 .2809906-.16894531 .14898682-.16874695 .11299133-.11274719 .11299133-.07475281 .11299133-.0107421879 .17599488-.0107421879 .19099427-.0107421879H.30499269C.37799073-.0107421879 .44799806-.023742676 .44799806-.07574463V-.075927738Z"/>
<path id="font_1_10" d="M.40699769 .5683594C.40699769 .629303 .36499024 .70410159 .22099304 .70410159 .11299133 .70410159 .053985597 .6342926 .053985597 .5703583 .053985597 .5343628 .08099365 .5263672 .09599304 .5263672 .11299133 .5263672 .13699341 .5383606 .13699341 .5683594 .13699341 .59135439 .11999512 .60935977 .09498596 .60935977 .08898926 .60868838 .08699036 .60868838 .084991458 .6076813 .10699463 .6596832 .16499329 .6836853 .21798706 .6836853 .33099366 .6836853 .33099366 .61068728 .33099366 .5726776 .33099366 .51368716 .31298829 .49467469 .29599 .47668458 .22799683 .40368653 .20599365 .3106842 .20599365 .24967957V.20167542C.20599365 .1836853 .20599365 .1796875 .21699524 .1796875 .22799683 .1796875 .22799683 .18667603 .22799683 .2046814V.24168396C.22799683 .30099488 .2519989 .3889923 .35299684 .46398927 .3809967 .48468019 .40699769 .51568606 .40699769 .567688V.5683594M.2649994 .048675538C.2649994 .07467651 .24299622 .09667969 .21699524 .09667969 .18699646 .09667969 .16799927 .07267761 .16799927 .048675538 .16799927 .018997193 .19198609 0 .21598816 0 .24398804 0 .2649994 .021987915 .2649994 .04899597V.048675538Z"/>
<path id="font_3_16" d="M.8659973 .63653567V.6855469C.80400088 .6826172 .7749939 .6826172 .72898867 .6826172 .68899539 .6825409 .6579895 .6825409 .59098818 .6855469V.63653567H.61698916C.6439972 .63661196 .6459961 .63661196 .66999819 .63360598 .69799807 .6305542 .69898989 .6295471 .69898989 .60757449V.2320404C.69898989 .095199588 .598999 .03727722 .47698976 .03727722 .29699708 .03727722 .29499818 .17010498 .29499818 .2240448V.63653567H.40299989V.6855469C.36799623 .6826172 .2639923 .6826172 .22299195 .6826172 .18199158 .6825409 .07699585 .6825409 .041992189 .6855469V.63653567H.1499939V.23103333C.1499939 .09919739 .2599945-.01171875 .47299195-.01171875 .6689911-.01171875 .7579956 .10418701 .7579956 .2300415V.60757449C.7579956 .62960818 .7589874 .63061526 .7869873 .63360598 .8109894 .63653567 .8129883 .63653567 .83999636 .63653567H.8659973Z"/>
<path id="font_3_9" d="M.6299896-.0002746582V.048721315H.56199648V.30471803C.56199648 .4237213 .48999024 .4497223 .40299989 .4497223 .27999879 .4497223 .23098755 .35972596 .22399903 .34472657H.22299195V.4497223L.049987794 .44172669V.39271546C.10998535 .39271546 .117996219 .39271546 .117996219 .353714V.048721315H.049987794V-.0002746582L.17599488 .0027160645 .30299378-.0002746582V.048721315H.23498535V.25372315C.23498535 .36572267 .32699586 .40971376 .3869934 .40971376 .4249878 .40971376 .44499208 .38871766 .44499208 .3137207V.048721315H.3769989V-.0002746582L.5029907 .0027160645 .6299896-.0002746582Z"/>
<path id="font_3_13" d="M.4269867 .14027405C.4269867 .19128418 .397995 .22328186 .37998963 .23828125 .33499146 .27627564 .30299378 .28128053 .22399903 .294281 .17599488 .3022766 .11299133 .31228639 .11299133 .35728456 .11299133 .41711427 .20599365 .41711427 .22799683 .41711427 .33999635 .41711427 .34399415 .35827638 .34599305 .33128358 .34700013 .3173828 .36099244 .3173828 .37098695 .3173828 .3959961 .3173828 .39698792 .32237245 .39698792 .3463745V.42411805C.39698792 .4421234 .39698792 .453125 .3769989 .453125 .36698915 .453125 .35099793 .44511415 .33299256 .43511964 .30099488 .44911195 .2619934 .453125 .22898865 .453125 .19799805 .4532776 .038986207 .4532776 .038986207 .32128907 .038986207 .2162323 .16999817 .19421387 .20498657 .18821717 .2869873 .1742096 .35299684 .16320801 .35299684 .106170658 .35299684 .03413391 .25898744 .03413391 .23699951 .03413391 .18598938 .03413391 .12098694 .0471344 .09199524 .13919068 .08699036 .15620423 .085998538 .15919495 .06498718 .15919495 .038986207 .15919495 .038986207 .15319824 .038986207 .12918091V.023132325C.038986207 .005126953 .038986207-.005859375 .05899048-.005859375 .06599426-.005859375 .067993167-.005859375 .08999634 .008132935L.116989139 .025131226C.1639862-.005859375 .21699524-.005859375 .23699951-.005859375 .2669983-.005859375 .4269867-.005859375 .4269867 .1401825V.14027405Z"/>
<path id="font_3_4" d="M.5089874 .11605835C.5089874 .13604737 .4889984 .13604737 .48298646 .13604737 .46499635 .13604737 .46299745 .13005066 .45700074 .11605835 .43399049 .06410217 .37298585 .037139894 .30999757 .037139894 .16799927 .037139894 .1659851 .16601563 .1659851 .21496582H.47599793C.49699403 .21496582 .5089874 .21496582 .5089874 .2429657 .5089874 .26498414 .5069885 .35305787 .44198609 .4071045 .39698792 .4441223 .33699037 .453125 .28799439 .453125 .116989139 .453125 .032989503 .345047 .032989503 .22497559 .032989503 .09408569 .13198853-.005859375 .3019867-.005859375 .46699525-.005859375 .5089874 .1000824 .5089874 .11605835M.41099549 .25097657H.1659851C.16799927 .29701234 .17298889 .41311646 .28799439 .41311646 .40499879 .41311646 .40899659 .29100038 .41099549 .25097657Z"/>
<path id="font_3_10" d="M.55799868 .21812439C.55799868 .3491211 .46598817 .453125 .29599 .453125 .11999512 .453125 .032989503 .3441162 .032989503 .21812439 .032989503 .09413147 .12298584-.005859375 .29499818-.005859375 .47399903-.005859375 .55799868 .09913635 .55799868 .21812439M.4249878 .22912598C.4249878 .14312744 .4249878 .037139894 .29599 .037139894 .1659851 .037139894 .1659851 .14213562 .1659851 .22912598 .1659851 .3131256 .1659851 .41311646 .29499818 .41311646 .4249878 .41311646 .4249878 .3131256 .4249878 .22912598Z"/>
<path id="font_3_12" d="M.45498658 .36618043C.45498658 .41719056 .40299989 .4501953 .34399415 .4501953 .27398683 .4501953 .23098755 .39918519 .20899964 .34118653H.20799256V.4501953L.040985109 .4423828V.39337159C.100997928 .39337159 .10899353 .39337159 .10899353 .3543396V.04899597H.040985109V0L.16899109 .0029907227C.19400025 .0029907227 .2519989 .0029907227 .30499269 0V.04899597H.21998596V.21818543C.21998596 .29125978 .24699402 .40737916 .34399415 .41036988 .33299256 .39898683 .32798768 .38198854 .32798768 .3659973 .32798768 .32199098 .36299134 .3019867 .3909912 .3019867 .4229889 .3019867 .45498658 .32398988 .45498658 .3659973V.36618043Z"/>
<path id="font_3_3" d="M.61499026 0V.04899597C.5549927 .04899597 .5469971 .04899597 .5469971 .088012699V.69433596L.36799623 .6855469V.63653567C.42799378 .63653567 .43598939 .63653567 .43598939 .5976715V.40518189C.3919983 .43719483 .34498597 .4501953 .29699708 .4501953 .13398743 .4501953 .038986207 .35118104 .038986207 .22216797 .038986207 .089141849 .1329956-.005859375 .2849884-.005859375 .34799195-.005859375 .397995 .018127442 .42999269 .044128419V-.005859375L.61499026 0M.42999269 .10899353C.4079895 .074142459 .3600006 .03413391 .29599 .03413391 .17199707 .03413391 .17199707 .15414429 .17199707 .22015381 .17199707 .27816773 .17298889 .32118226 .19898987 .3581848 .22499085 .39819337 .272995 .41018678 .30799867 .41018678 .35798646 .41018678 .39898683 .3881836 .42999269 .34918214V.10899353Z"/>
<path id="font_3_1" d="M.56900027 .025131226C.56900027 .0491333 .5529938 .0491333 .54299929 .0491333 .47898866 .050125123 .47898866 .060134889 .47898866 .08413696V.29812623C.47898866 .38612367 .40699769 .453125 .25299073 .453125 .19599915 .453125 .067993167 .45111085 .067993167 .3591156 .067993167 .31411744 .101989749 .29312135 .1329956 .29312135 .16699219 .29312135 .19799805 .3171234 .19799805 .35812379 .19799805 .38711549 .18099976 .40411378 .17799378 .40711976 .18798828 .40911866 .21199036 .41311646 .24899292 .41311646 .32099916 .41311646 .3619995 .37712098 .3619995 .29812623V.26612855C.19599915 .26612855 .027999878 .22312927 .027999878 .11213684 .027999878 .013137817 .15299988-.005859375 .22499085-.005859375 .30099488-.005859375 .35299684 .027130127 .37998963 .0741272 .37998963 .04798889 .37998963 0 .4869995 0H.5359955C.5549927 0 .56900027 0 .56900027 .024993897V.025131226M.3619995 .13899231C.3619995 .033996583 .24598694 .033996583 .24198914 .033996583 .19099427 .033996583 .14898682 .066986087 .14898682 .11199951 .14898682 .14498902 .16699219 .22299195 .3619995 .23199463V.13899231Z"/>
<path id="font_4_19" d="M.72099307 .3996582V.43066407C.68099978 .42765809 .67900088 .42765809 .6459961 .42765809 .60798647 .42765809 .59399417 .42765809 .55400088 .43066407V.3996582C.5970001 .39865113 .61099246 .3717041 .61099246 .35173036 .61099246 .34173585 .60899356 .3357544 .60598757 .32876588L.5139923 .07911682 .41299439 .35272218C.4079895 .3657074 .4079895 .36869813 .4079895 .3717041 .4079895 .3976593 .43899537 .3996582 .46499635 .3996582V.43066407C.4189911 .42765809 .37799073 .42765809 .3619995 .42765809 .33099366 .42765809 .3019867 .42765809 .269989 .43066407V.3996582C.3019867 .3996582 .32199098 .39865113 .33299256 .38467408 .34199525 .37368775 .35499574 .3337555 .35499574 .3307495L.34999085 .31677247 .2679901 .09210205 .17298889 .35173036C.16699219 .36669923 .16699219 .36869813 .16699219 .37269593 .16699219 .3996582 .20599365 .3996582 .22499085 .3996582V.43066407L.115997318 .42765809C.08299255 .42765809 .053985597 .42765809 .019989014 .43066407V.3996582C.067993167 .3996582 .08099365 .3976593 .09298706 .3637085L.22200012 .01121521C.22698975-.00076293948 .22999573-.0107421879 .24499512-.0107421879 .2599945-.0107421879 .2639923 .00022888184 .2679901 .010223389L.36999513 .28981019 .47299195 .010223389C.47698976 .00022888184 .48098756-.0107421879 .49598695-.0107421879 .5109863-.0107421879 .5139923-.00076293948 .5179901 .009216309L.6369934 .3337555C.6589966 .39466859 .69999697 .39865113 .72099307 .3996582Z"/>
<path id="font_4_7" d="M.5469971 0V.0309906C.49598695 .03125 .47099305 .03125 .46998597 .0622406V.25431825C.46998597 .3373413 .46998597 .36636354 .44198609 .4013672 .4189911 .42938233 .3809967 .4423828 .33099366 .4423828 .2639923 .4423828 .21499634 .40737916 .18399048 .35134889H.18299866V.69433596L.034988405 .6826172V.6516113C.102996829 .6516113 .11199951 .64463809 .11199951 .59580996V.077041629C.11199951 .0309906 .100997928 .0309906 .034988405 .0309906V0C.08198547 .0019989014 .100997928 .0029907227 .14898682 .0029907227 .19699097 .0029907227 .20999146 .0019989014 .2630005 0V.0309906C.19699097 .0309906 .18598938 .0309906 .18598938 .077041629V.2592163C.18598938 .36532594 .26098634 .41737367 .32398988 .41737367 .3829956 .41737367 .3959961 .3683319 .3959961 .30825807V.077041629C.3959961 .0309906 .3849945 .0309906 .31900025 .0309906V0C.3659973 .0019989014 .3849945 .0029907227 .43299867 .0029907227 .48098756 .0029907227 .49398805 .0019989014 .5469971 0Z"/>
<path id="font_4_5" d="M.4269867 .11936951C.4269867 .12637329 .42199708 .13237 .41299439 .13237 .40299989 .13237 .3999939 .12536621 .39898683 .12136841 .36499024 .019256592 .27598573 .01725769 .26098634 .01725769 .21299744 .01725769 .17199707 .044281007 .14898682 .078323367 .115997318 .12736511 .114990238 .18743897 .114990238 .22949219H.3999939C.42199708 .22949219 .4269867 .22949219 .4269867 .25048829 .4269867 .35333253 .37098695 .4482422 .24299622 .4482422 .12298584 .4482422 .0289917 .3443451 .0289917 .22047425 .0289917 .08932495 .13398743-.0107421879 .2559967-.0107421879 .37799073-.0107421879 .4269867 .096343997 .4269867 .11936951M.35899354 .253479H.115997318C.125 .40725709 .21499634 .42323304 .24299622 .42323304 .2979889 .42323304 .35798646 .38130189 .35899354 .253479Z"/>
<path id="font_4_13" d="M.37298585 .3798828C.37298585 .41236878 .34298707 .4423828 .2979889 .4423828 .23799134 .4423828 .19599915 .40037538 .17298889 .33789063H.17199707V.4423828L.02999878 .43066407V.3996582C.09799194 .3996582 .10699463 .3927307 .10699463 .34388734V.07698059C.10699463 .0309906 .09599304 .0309906 .02999878 .0309906V0C.08299255 .0019989014 .09599304 .0029907227 .14698792 .0029907227L.27398683 0V.0309906H.2539978C.18099976 .0309906 .17799378 .041992189 .17799378 .07897949V.22892761C.17799378 .26991273 .18899536 .4166565 .30299378 .4166565V.4156494C.30099488 .4146576 .2849884 .40264894 .2849884 .37887574 .2849884 .35188294 .30599977 .33488465 .32899476 .33488465 .34999085 .33488465 .37298585 .34988404 .37298585 .3798828Z"/>
<path id="font_4_10" d="M.5469971 0V.0309906C.49598695 .03125 .47099305 .03125 .46998597 .0622406V.25431825C.46998597 .3373413 .46998597 .36636354 .44198609 .4013672 .4189911 .42938233 .3809967 .4423828 .33099366 .4423828 .23799134 .4423828 .19499207 .37335206 .18099976 .34535218H.17999268V.4423828L.034988405 .43066407V.3996582C.102996829 .3996582 .11199951 .39266969 .11199951 .34370423V.07695007C.11199951 .0309906 .100997928 .0309906 .034988405 .0309906V0C.08198547 .0019989014 .100997928 .0029907227 .14898682 .0029907227 .19699097 .0029907227 .20999146 .0019989014 .2630005 0V.0309906C.19699097 .0309906 .18598938 .0309906 .18598938 .07695007V.25878907C.18598938 .36532594 .26098634 .41737367 .32398988 .41737367 .3829956 .41737367 .3959961 .3683319 .3959961 .30825807V.077041629C.3959961 .0309906 .3849945 .0309906 .31900025 .0309906V0C.3659973 .0019989014 .3849945 .0029907227 .43299867 .0029907227 .48098756 .0029907227 .49398805 .0019989014 .5469971 0Z"/>
<path id="font_4_18" d="M.5209961 .3996582V.43066407C.4909973 .42765809 .44400025 .42765809 .44400025 .42765809 .41600038 .42765809 .3849945 .4286499 .35699464 .43066407V.3996582C.38598634 .3976593 .40299989 .38267518 .40299989 .35671998 .40299989 .34674073 .4019928 .34474183 .397995 .3337555L.2939911 .0821228 .17999268 .35472108C.1769867 .36071778 .1749878 .36669923 .1749878 .37368775 .1749878 .3996582 .21099854 .3996582 .22999573 .3996582V.43066407C.18699646 .4286499 .1639862 .42765809 .11999512 .42765809 .084991458 .42765809 .055999757 .42765809 .019989014 .43066407V.3996582C.066986087 .3996582 .085998538 .3996582 .100997928 .36271668L.24699402 .008224487C.25299073-.007751465 .26098634-.0107421879 .269989-.0107421879 .2789917-.0107421879 .2869873-.008758545 .2939911 .008224487L.42999269 .3357544C.45098878 .38667298 .48599244 .39865113 .5209961 .3996582Z"/>
<path id="font_4_9" d="M.83299258 0V.0309906C.7819977 .03125 .7569885 .03125 .7559967 .0622406V.2539215C.7559967 .34077455 .7559967 .36872865 .72299197 .4056549 .70199587 .43037416 .6619873 .4423828 .6159973 .4423828 .5439911 .4423828 .49499513 .40037538 .46699525 .3473816 .45498658 .40637208 .4149933 .4423828 .33099366 .4423828 .25099183 .4423828 .20199585 .39038087 .18099976 .3443756H.17999268V.4423828L.034988405 .43066407V.3996582C.102996829 .3996582 .11199951 .39266969 .11199951 .34370423V.07695007C.11199951 .0309906 .100997928 .0309906 .034988405 .0309906V0C.08198547 .0019989014 .100997928 .0029907227 .14898682 .0029907227 .19699097 .0029907227 .20999146 .0019989014 .2630005 0V.0309906C.19699097 .0309906 .18598938 .0309906 .18598938 .07695007V.25878907C.18598938 .36732484 .2639923 .41737367 .32398988 .41737367 .3789978 .41737367 .39698792 .37834168 .39698792 .30825807V.077041629C.39698792 .0309906 .38598634 .0309906 .31999208 .0309906V0C.36698915 .0019989014 .38598634 .0029907227 .43399049 .0029907227 .48199464 .0029907227 .49499513 .0019989014 .5479889 0V.0309906C.48199464 .0309906 .47099305 .0309906 .47099305 .077041629V.2592163C.47099305 .36732484 .548996 .41737367 .60899356 .41737367 .6639862 .41737367 .6819916 .37834168 .6819916 .30825807V.077041629C.6819916 .0309906 .67099 .0309906 .6049957 .0309906V0C.6519928 .0019989014 .67099 .0029907227 .71899417 .0029907227 .7669983 .0029907227 .7799988 .0019989014 .83299258 0Z"/>
<path id="font_4_1" d="M.49699403 .089141849V.14515686H.46899415V.090148929C.46899415 .07914734 .46899415 .029129029 .43299867 .029129029 .39698792 .029129029 .39698792 .07714844 .39698792 .09315491V.26818849C.39698792 .32521058 .39698792 .3592224 .35198976 .40022279 .31498719 .43322755 .2669983 .4482422 .21699524 .4482422 .1329956 .4482422 .06298828 .40623475 .06298828 .34220887 .06298828 .311203 .083999637 .2942047 .10998535 .2942047 .13699341 .2942047 .1559906 .31420899 .1559906 .34020997 .1559906 .3832245 .11099243 .38822938 .11099243 .38822938 .13798523 .41423036 .18598938 .42323304 .21499634 .42323304 .2659912 .42323304 .32299806 .3852234 .32299806 .29719544V.26419068C.2689972 .26219178 .19400025 .2571869 .1269989 .22518921 .054992677 .19017029 .032989503 .13816834 .032989503 .09814453 .032989503 .01625061 .12998963-.0107421879 .19699097-.0107421879 .27999879-.0107421879 .31799317 .04425049 .33198548 .072250369 .33699037 .030136109 .3659973-.005859375 .40899659-.005859375 .43399049-.005859375 .49699403 .009140015 .49699403 .08912659V.089141849M.32299806 .14112854C.32299806 .04425049 .24798584 .014251709 .20399475 .014251709 .15699768 .014251709 .11299133 .04824829 .11299133 .098236087 .11299133 .16423035 .16999817 .23422241 .32299806 .24023438V.14112854Z"/>
<path id="font_4_14" d="M.36999513 .12831116C.36999513 .17330933 .34999085 .20030213 .32798768 .22329712 .2939911 .25628663 .2579956 .26327516 .18399048 .2772827 .1579895 .28227235 .084991458 .29527284 .084991458 .35224916 .084991458 .38424684 .10798645 .426239 .19898987 .426239 .30699159 .426239 .31399537 .34326173 .31599427 .31826783 .31698609 .3062744 .31698609 .3002777 .32998658 .3002777 .34399415 .3002777 .34399415 .30726625 .34399415 .32626344V.4222412C.34399415 .4392395 .34399415 .4482422 .33198548 .4482422 .32699586 .4482422 .32499696 .4482422 .31199647 .43623353 .30999757 .43423463 .30099488 .42523194 .29499818 .4202423 .2639923 .44223023 .23298645 .4482422 .19898987 .4482422 .066986087 .4482422 .033996583 .37524415 .033996583 .32426454 .033996583 .29226686 .04798889 .26628114 .070999149 .24429322 .10499573 .21330261 .14299011 .20629883 .19400025 .19729615 .24499512 .18730164 .2619934 .18431092 .28399659 .16731262 .2939911 .15931702 .31900025 .14031983 .31900025 .10229492 .31900025 .014251709 .21798706 .014251709 .20399475 .014251709 .101989749 .014251709 .07598877 .0993042 .06399536 .15332031 .06098938 .16331482 .05999756 .16931153 .04798889 .16931153 .033996583 .16931153 .033996583 .16131592 .033996583 .14331055V.01524353C.033996583-.0017547608 .033996583-.0107421879 .04598999-.0107421879 .051986696-.0107421879 .052993776-.009750366 .070999149 .009246826 .07499695 .01524353 .085998538 .028259278 .09098816 .03326416 .1329956-.007751465 .1789856-.0107421879 .20399475-.0107421879 .32699586-.0107421879 .36999513 .061279298 .36999513 .12831116Z"/>
<path id="font_4_17" d="M.5469971 .00024414063V.03125C.47898866 .03125 .46998597 .038253786 .46998597 .087265018V.4423828L.31900025 .43138124V.40037538C.3869934 .40037538 .3959961 .39337159 .3959961 .34436036V.16729737C.3959961 .07826233 .34599305 .014251709 .27398683 .014251709 .19099427 .014251709 .18598938 .057266237 .18598938 .11128235V.4423828L.034988405 .43138124V.40037538C.11199951 .40037538 .11199951 .39736939 .11199951 .3083496V.15829468C.11199951 .09327698 .11199951 .051254274 .1579895 .01625061 .18699646-.003753662 .22799683-.0107421879 .2679901-.0107421879 .31999208-.0107421879 .36898805 .012252808 .397995 .072265628H.39898683V-.0107421879L.5469971 .00024414063Z"/>
<path id="font_4_4" d="M.5399933 0V.0309906C.47200013 .0309906 .46299745 .037994386 .46299745 .087020877V.69433596L.31498719 .6826172V.6516113C.3829956 .6516113 .3919983 .64463809 .3919983 .59580996V.38339234C.3869934 .38938905 .34199525 .4423828 .2639923 .4423828 .14099121 .4423828 .033996583 .3443756 .033996583 .21525574 .033996583 .09013367 .13398743-.0107421879 .25299073-.0107421879 .32598878-.0107421879 .37098695 .03224182 .3889923 .053115846V-.0107421879L.5399933 0M.3889923 .12011719C.3889923 .10211182 .3889923 .099105838 .37399293 .07810974 .34298707 .033203126 .29699708 .014251709 .25698854 .014251709 .21398926 .014251709 .17399597 .03819275 .147995 .08010864 .12199402 .12310791 .11999512 .18218994 .11999512 .21421814 .11999512 .26127626 .12599182 .31433106 .1519928 .35438539 .17399597 .38638307 .21499634 .41737367 .2679901 .41737367 .30999757 .41737367 .34999085 .39637757 .3769989 .35839845 .3889923 .3423767 .3889923 .34136964 .3889923 .32234193V.12011719Z"/>
<path id="font_3_14" d="M.7789917 .4308777 .7569885 .6738281H.06498718L.042999269 .4308777H.09399414C.10398865 .5418396 .11299133 .6248169 .2599945 .6248169H.33898927V.04899597H.18598938V0C.22999573 .0029907227 .3600006 .0029907227 .4119873 .0029907227 .46398927 .0029907227 .59298709 .0029907227 .6369934 0V.04899597H.48399354V.6248169H.5629883C.70999148 .6248169 .71798709 .5398407 .7279968 .4308777H.7789917Z"/>
<path id="font_3_6" d="M.6299896 0V.04899597H.56199648V.30513C.56199648 .42419435 .48999024 .4501953 .40299989 .4501953 .30799867 .4501953 .25498963 .3961792 .22898865 .35516358V.69433596L.049987794 .6855469V.63653567C.10998535 .63653567 .117996219 .63653567 .117996219 .5976715V.04899597H.049987794V0L.17599488 .0029907227 .30299378 0V.04899597H.23498535V.2541046C.23498535 .36616517 .32699586 .41018678 .3869934 .41018678 .4249878 .41018678 .44499208 .38917542 .44499208 .3141327V.04899597H.3769989V0L.5029907 .0029907227 .6299896 0Z"/>
<path id="font_3_5" d="M.45098878 .6111908C.45098878 .65615847 .4119873 .70014956 .33399964 .70014956 .22898865 .70014956 .12098694 .65515139 .12098694 .5432434V.44433595H.04399109V.3953247H.12098694V.04899597H.052993776V0L.18099976 .0029907227C.20599365 .0029907227 .2639923 .0029907227 .31698609 0V.04899597H.23199463V.3953247H.35099793V.44433595H.22599793V.5432434C.22599793 .65216067 .3039856 .66015627 .32899476 .66015627 .33198548 .66015627 .34199525 .65815737 .34199525 .65815737 .34199525 .65815737 .34199525 .65615847 .33999635 .65415957 .32899476 .6411438 .32398988 .6271515 .32398988 .611145 .32398988 .56915286 .35798646 .54714968 .3869934 .54714968 .41999818 .54714968 .45098878 .57115176 .45098878 .611145V.6111908Z"/>
<path id="font_3_17" d="M.6299896 0V.04899597C.56999209 .04899597 .56199648 .04899597 .56199648 .088012699V.4501953L.3769989 .4423828V.39337159C.43699647 .39337159 .44499208 .39337159 .44499208 .35437013V.16433716C.44499208 .08433533 .3929901 .03413391 .31599427 .03413391 .23899842 .03413391 .23498535 .056259157 .23498535 .10932922V.4501953L.049987794 .4423828V.39337159C.10998535 .39337159 .117996219 .39337159 .117996219 .35437013V.12333679C.117996219 .014129639 .20399475-.005859375 .30099488-.005859375 .33198548-.005859375 .3999939-.005859375 .45098878 .06933594V-.005859375L.6299896 0Z"/>
<path id="font_3_15" d="M.3929901 .123184207V.1762085H.34199525V.12617493C.34199525 .055145265 .30599977 .037139894 .2809906 .037139894 .22299195 .037139894 .22299195 .09716797 .22299195 .1211853V.3953247H.37399293V.44433595H.22299195V.6357422H.17199707C.17098999 .5415344 .12399292 .43832398 .021987915 .43533326V.3953247H.10598755V.123184207C.10598755 .009140015 .20498657-.005859375 .2669983-.005859375 .34498597-.005859375 .3929901 .05014038 .3929901 .123184207Z"/>
<path id="font_4_6" d="M.46199037 .19992066C.46199037 .3209076 .37599183 .41992188 .2669983 .41992188 .21899414 .41992188 .16999817 .4039154 .1349945 .36791993V.5647888C.16499329 .55578616 .19599915 .55078127 .22698975 .55078127 .34999085 .55078127 .42199708 .63983157 .42199708 .6529236 .42199708 .6619873 .41600038 .6660156 .41099549 .6660156 .41099549 .6660156 .40699769 .6660156 .397995 .6609802 .35099793 .6418457 .30499269 .63378909 .2630005 .63378909 .21998596 .63378909 .1749878 .6418457 .1289978 .6609802 .11898804 .6660156 .115997318 .6660156 .115997318 .6660156 .10398865 .6660156 .10398865 .6559448 .10398865 .63882449V.34490968C.10398865 .32699586 .10398865 .31599427 .117996219 .31599427 .12599182 .31562806 .1289978 .3196411 .1349945 .32867433 .16499329 .37083436 .21299744 .39491273 .2649994 .39491273 .37199403 .39491273 .37199403 .24035645 .37199403 .20422364 .37199403 .17321778 .37199403 .11122131 .34399415 .06636047 .31698609 .024475098 .2749939 .0055389406 .23599243 .0055389406 .1769867 .0055389406 .10998535 .042419435 .085998538 .11621094 .085998538 .116882327 .09298706 .11488342 .099990848 .11488342 .11999512 .11488342 .14898682 .12788391 .14898682 .1638794 .14898682 .19488526 .1269989 .21289063 .099990848 .21289063 .07899475 .21289063 .050994874 .20088196 .050994874 .16088867 .050994874 .069732669 .1269989-.022460938 .23799134-.022460938 .35899354-.02279663 .46199037 .07521057 .46199037 .19921875V.19992066Z"/>
<path id="font_4_3" d="M.20698548 .0019989014C.20698548 .070999149 .18099976 .10798645 .14199829 .10798645 .10699463 .10798645 .08799744 .08099365 .08799744 .053985597 .08799744 .026992798 .10699463 0 .14199829 0 .16699219 0 .18199158 .015991211 .18199158 .015991211 .18199158-.017044068 .18199158-.09919739 .10598755-.17132569 .101989749-.17633057 .101989749-.18135071 .101989749-.18135071 .101989749-.18635559 .10798645-.19335938 .114990238-.19335938 .12599182-.19335938 .20698548-.1162262 .20698548 .0019989014Z"/>
<path id="font_4_12" d="M.43199159 0V.0309906H.3999939C.30699159 .0309906 .3039856 .042999269 .3039856 .08001709V.63912966C.3039856 .6640167 .30299378 .6660156 .27799989 .6660156 .21598816 .60227969 .12399292 .60227969 .09298706 .60227969V.57128909C.11199951 .57128909 .17298889 .57128909 .22698975 .5972748V.08001709C.22698975 .042999269 .22399903 .0309906 .1309967 .0309906H.09899902V0C.1349945 .0029907227 .22399903 .0029907227 .2649994 .0029907227 .30599977 .0029907227 .3959961 .0029907227 .43199159 0Z"/>
<path id="font_4_21" d="M.47299195 .31976319C.47299195 .38682557 .46998597 .47288514 .43499757 .5479431 .3909912 .64201357 .31498719 .6660156 .25698854 .6660156 .19699097 .6660156 .12098694 .64201357 .07699585 .5459442 .04499817 .47688294 .039993287 .39582826 .039993287 .31976319 .039993287 .25471498 .041992189 .15765381 .084991458 .07858276 .13198853-.0064697267 .20999146-.022460938 .2559967-.022460938 .32099916-.022460938 .394989 .0055389406 .43699647 .097595218 .46699525 .1646576 .47299195 .23971558 .47299195 .31976319M.3869934 .33177186C.3869934 .2697296 .3869934 .18566895 .3769989 .12661743 .35598756 .012542725 .28199769 .002532959 .25698854 .002532959 .22698975 .002532959 .15499878 .016540528 .13598633 .12962342 .12599182 .18867493 .12599182 .2747345 .12599182 .33177186 .12599182 .39982606 .12599182 .47888185 .13798523 .53393557 .1579895 .6230011 .22200012 .64100649 .2559967 .64100649 .2939911 .64100649 .35699464 .62098696 .37599183 .5279236 .3869934 .47288514 .3869934 .39482118 .3869934 .33177186Z"/>
<path id="font_4_16" d="M.46199037 .17704773H.43399049C.43199159 .16404724 .42399598 .10501099 .41099549 .08900452 .40499879 .07998657 .33599855 .07998657 .31599427 .07998657H.13798523L.23699951 .17404175C.40098573 .3161316 .46199037 .36915589 .46199037 .4711914 .46199037 .5860901 .36698915 .6660156 .24398804 .6660156 .1289978 .6660156 .050994874 .575119 .050994874 .4841919 .050994874 .43418885 .09399414 .42919923 .102996829 .42919923 .125 .42919923 .15499878 .44519044 .15499878 .48120118 .15499878 .51119998 .13398743 .5332031 .102996829 .5332031 .09799194 .5332031 .09498596 .5332031 .09098816 .53219607 .114990238 .6030731 .1789856 .63500979 .23298645 .63500979 .33499146 .63500979 .36999513 .5401764 .36999513 .4711914 .36999513 .36915589 .29299928 .28611756 .24499512 .23408509L.06199646 .035995485C.050994874 .024993897 .050994874 .022994996 .050994874 0H.43399049L.46199037 .17704773Z"/>
<path id="font_4_20" d="M.519989 .3996582V.43066407C.48799134 .42765809 .45700074 .42765809 .44400025 .42765809 .41600038 .42765809 .3849945 .4286499 .35699464 .43066407V.3996582C.40299989 .3976593 .40299989 .36167909 .40299989 .35768128 .40299989 .3466797 .39898683 .33668519 .394989 .32868959L.2939911 .090789798 .18199158 .3526764C.17599488 .3666687 .17599488 .3736725 .17599488 .3736725 .17599488 .3996582 .20999146 .3996582 .23098755 .3996582V.43066407L.11999512 .42765809C.116989139 .42765809 .05999756 .42765809 .020996094 .43066407V.3996582C.06599426 .3996582 .084991458 .3976593 .09700012 .3706665L.25498963-.00016784668 .22999573-.059143068C.20799256-.11212158 .1789856-.18008423 .11399841-.18008423 .08898926-.18008423 .07199097-.167099 .068984989-.16508484 .07699585-.16407776 .10499573-.1560669 .10499573-.12205505 .10499573-.09605408 .085998538-.080062869 .06298828-.080062869 .037994386-.080062869 .019989014-.09605408 .019989014-.123046878 .019989014-.16807556 .06199646-.20507813 .11399841-.20507813 .1789856-.20507813 .22200012-.14706421 .24598694-.092056278L.4269867 .33068849C.43798829 .3566742 .45599366 .3976593 .519989 .3996582Z"/>
<path id="font_3_8" d="M.8809967 .63653567V.6855469C.81599429 .6826172 .7879944 .6826172 .7449951 .6826172 .70098879 .6825409 .673996 .6825409 .60798647 .6855469V.63653567H.6339874C.6609955 .63661196 .6629944 .63661196 .68699648 .63360598 .71499636 .63061526 .71598818 .62960818 .71598818 .607605V.20561219L.30699159 .6726074C.29599 .6855469 .2939911 .6855469 .272995 .6855469H.041992189V.63653567H.1499939V.07791138C.1499939 .055923463 .14898682 .05491638 .12098694 .05192566 .09700012 .04899597 .09498596 .04899597 .067993167 .04899597H.041992189V0C.10699463 .0029296876 .1349945 .0029296876 .17799378 .0029296876 .22200012 .0029907227 .24899292 .0029907227 .31498719 0V.04899597H.2889862C.2619934 .048919679 .2599945 .048919679 .23599243 .05192566 .20799256 .05491638 .20698548 .055923463 .20698548 .077926639V.592926L.71499636 .012924194C.7259979 0 .7299957 0 .74398806 0 .772995 0 .772995 .010986328 .772995 .032989503V.60762026C.772995 .62960818 .7739868 .63061526 .8019867 .63360598 .82598879 .63653567 .8279877 .63653567 .8549957 .63653567H.8809967Z"/>
<path id="font_3_18" d="M.8279877 .3953247V.44433595C.7999878 .44132997 .7749939 .44132997 .7480011 .44132997 .71598818 .44132997 .68499758 .44232179 .6529999 .44433595V.3953247C.66600039 .3953247 .68899539 .3953247 .70899966 .38632203 .70700076 .37832643 .70700076 .37731935 .70399478 .37031556L.59799197 .11618042 .48199464 .3953247H.5359955V.44433595L.42399598 .44132997C.4139862 .44132997 .36499024 .44132997 .32199098 .44433595V.3953247H.37998963C.3929901 .36631776 .3929901 .36431886 .39898683 .3493042L.31199647 .13919068 .20498657 .3953247H.25898744V.44433595L.13699341 .44132997C.11399841 .44132997 .07699585 .44132997 .025985718 .44433595V.3953247H.083999637L.23999024 .021118164C.25099183-.0048828127 .2669983-.0048828127 .2789917-.0048828127 .30599977-.0048828127 .31098939 .0061187746 .31799317 .023132325L.4269867 .28326417 .5359955 .021118164C.5469971-.0048828127 .56199648-.0048828127 .57499697-.0048828127 .58699038-.0048828127 .6029968-.0048828127 .6139984 .021118164L.7609863 .37332154C.7679901 .389328 .769989 .3953247 .8279877 .3953247Z"/>
<path id="font_3_11" d="M.61698916 .22218323C.61698916 .354187 .526001 .4501953 .375 .4501953 .2939911 .45033265 .23899842 .41633607 .21998596 .40234376V.4501953L.040985109 .4423828V.39337159C.06098938 .39337159 .07699585 .39337159 .08999634 .39038087 .10899353 .38737489 .10899353 .3763733 .10899353 .3553772V-.14453125H.040985109V-.19354248L.16699219-.1905365 .2939911-.19354248V-.14453125H.22599793V.03942871C.2849884-.005859375 .33999635-.005859375 .35899354-.005859375 .5159912-.005859375 .61698916 .089141849 .61698916 .22216797V.22218323M.48399354 .22315979C.48399354 .08413696 .41299439 .03413391 .34700013 .03413391 .29599 .03413391 .25299073 .06314087 .22599793 .104141239V.34518434C.24398804 .3671875 .29100038 .4071808 .35899354 .4071808 .42900086 .4071808 .48399354 .34518434 .48399354 .22315979Z"/>
<path id="font_3_7" d="M.29899598 0V.04899597H.23098755V.69433596L.051986696 .6855469V.63653567C.11199951 .63653567 .11999512 .63653567 .11999512 .5975647V.04899597H.051986696V0L.1749878 .0029907227 .29899598 0Z"/>
<path id="font_3_2" d="M.49198915 .11613464C.49198915 .13212586 .47698976 .13212586 .46598817 .13212586 .44599916 .13212586 .44599916 .13113404 .43798829 .11312866 .41799928 .06512451 .37298585 .037139894 .31399537 .037139894 .17199707 .037139894 .17199707 .18112183 .17199707 .22612 .17199707 .28611756 .17298889 .41011048 .3039856 .41011048 .31098939 .41011048 .36499024 .40911866 .36499024 .40411378L.3619995 .39912416C.35299684 .38812257 .34899903 .3721161 .34899903 .35812379 .34899903 .3171234 .37998963 .29312135 .4139862 .29312135 .44499208 .29312135 .47898866 .31411744 .47898866 .3591156 .47898866 .453125 .33898927 .453125 .2999878 .453125 .10798645 .453125 .038986207 .33111573 .038986207 .22212219 .038986207 .09613037 .1289978-.005859375 .29499818-.005859375 .33198548-.005859375 .3809967 .0001373291 .4229889 .026138306 .47999574 .06098938 .49198915 .11299133 .49198915 .115997318V.11613464Z"/>
<path id="font_4_2" d="M.4269867 .11936951C.4269867 .13139344 .41600038 .13139344 .41299439 .13139344 .4019928 .13139344 .4019928 .12937927 .3959961 .11236572 .37298585 .043289186 .31698609 .01725769 .2659912 .01725769 .20199585 .01725769 .11999512 .06932068 .11999512 .21749878 .11999512 .3735962 .19999695 .42022706 .2599945 .42022706 .272995 .42022706 .32699586 .41825868 .3639984 .39356996 .34298707 .3895874 .32299806 .3755951 .32299806 .34658814 .32299806 .32058717 .34298707 .30059815 .36898805 .30059815 .394989 .30059815 .41600038 .31759645 .41600038 .34858705 .41600038 .4103546 .34599305 .4482422 .2579956 .4482422 .12998963 .4482422 .033996583 .3415985 .033996583 .2164917 .033996583 .08734131 .13798523-.0107421879 .2559967-.0107421879 .394989-.0107421879 .4269867 .11036682 .4269867 .11936951Z"/>
<path id="font_4_22" d="M.25299073 0V.0309906C.18798828 .0309906 .18399048 .035995485 .18399048 .075042728V.4423828L.039993287 .43066407V.3996582C.10398865 .3996582 .11299133 .3936615 .11299133 .3447113V.07695007C.11299133 .0309906 .101989749 .0309906 .035995485 .0309906V0C.08099365 .0019989014 .101989749 .0029907227 .1459961 .0029907227 .1619873 .0029907227 .20399475 .0029907227 .25299073 0M.19699097 .6032257C.19699097 .6332245 .17298889 .65722659 .14299011 .65722659 .11299133 .65722659 .08898926 .6332245 .08898926 .6032257 .08898926 .57321169 .11299133 .54922488 .14299011 .54922488 .17298889 .54922488 .19699097 .57321169 .19699097 .6032257Z"/>
<path id="font_4_15" d="M.34199525 .12408447V.18099976H.31399537V.1270752C.31399537 .05319214 .2829895 .01725769 .24699402 .01725769 .17999268 .01725769 .17999268 .1051178 .17999268 .12309265V.3996582H.32499696V.43066407H.17999268V.6142578H.1519928C.15098572 .5304413 .115997318 .42765809 .018997193 .4246521V.3996582H.10598755V.12408447C.10598755 .012252808 .18699646-.0107421879 .23999024-.0107421879 .30699159-.011001587 .34199525 .052993776 .34199525 .12399292V.12408447Z"/>
<path id="font_4_11" d="M.48399354 .21324158C.48399354 .34423829 .37998963 .4482422 .25698854 .4482422 .12998963 .4482422 .0289917 .3412323 .0289917 .21324158 .0289917 .08824158 .1329956-.0107421879 .2559967-.0107421879 .3829956-.0107421879 .48399354 .09024048 .48399354 .21324158M.397995 .22224427C.397995 .1852417 .397995 .12724304 .37298585 .08325195 .34498597 .037246705 .29899598 .01725769 .25698854 .01725769 .20698548 .01725769 .16499329 .042251588 .14199829 .08125305 .115997318 .12324524 .114990238 .17623902 .114990238 .22224427 .114990238 .25924684 .114990238 .3162384 .13999939 .35723878 .16999817 .40823365 .21998596 .42323304 .2559967 .42323304 .31298829 .42323304 .35398866 .39123536 .37399293 .35723878 .39698792 .31523133 .397995 .26423646 .397995 .22224427Z"/>
<path id="font_4_8" d="M.26098634 0V.0309906C.19499207 .0309906 .18399048 .0309906 .18399048 .07701111V.69433596L.035995485 .6826172V.6516113C.10398865 .6516113 .11299133 .64460757 .11299133 .5956421V.07696533C.11299133 .0309906 .101989749 .0309906 .035995485 .0309906V0C.08299255 .0019989014 .101989749 .0029907227 .147995 .0029907227 .19499207 .0029907227 .21199036 .0019989014 .26098634 0Z"/>
</defs>
<path transform="matrix(1,0,0,-1,178.756,42.130998)" d="M150.81337 33.76273H-150.81337C-153.0143 33.76273-154.79848 31.97856-154.79848 29.77762V-29.77762C-154.79848-31.97856-153.0143-33.76273-150.81337-33.76273H150.81337C153.0143-33.76273 154.79848-31.97856 154.79848-29.77762V29.77762C154.79848 31.97856 153.0143 33.76273 150.81337 33.76273ZM-154.79848-33.76273" fill="#e6ecf1"/>
<path transform="matrix(1,0,0,-1,178.756,42.130998)" stroke-width=".79701" stroke-linecap="butt" stroke-miterlimit="10" stroke-linejoin="miter" fill="none" stroke="#003e74" d="M150.81337 33.76273H-150.81337C-153.0143 33.76273-154.79848 31.97856-154.79848 29.77762V-29.77762C-154.79848-31.97856-153.0143-33.76273-150.81337-33.76273H150.81337C153.0143-33.76273 154.79848-31.97856 154.79848-29.77762V29.77762C154.79848 31.97856 153.0143 33.76273 150.81337 33.76273ZM-154.79848-33.76273"/>
<use data-text="G" xlink:href="#font_1_6" transform="matrix(11.9552,0,0,-11.9552,72.621997,22.759003)"/>
<use data-text="i" xlink:href="#font_1_15" transform="matrix(11.9552,0,0,-11.9552,81.80359,22.759003)"/>
<use data-text="v" xlink:href="#font_1_13" transform="matrix(11.9552,0,0,-11.9552,85.055408,22.759003)"/>
<use data-text="e" xlink:href="#font_1_5" transform="matrix(11.9552,0,0,-11.9552,90.91345,22.759003)"/>
<use data-text="n" xlink:href="#font_1_8" transform="matrix(11.9552,0,0,-11.9552,96.11397,22.759003)"/>
<use data-text="w" xlink:href="#font_2_19" transform="matrix(11.9552,0,0,-11.9552,106.57477,22.759003)"/>
<use data-text="h" xlink:href="#font_2_7" transform="matrix(11.9552,0,0,-11.9552,116.29436,22.759003)"/>
<use data-text="o" xlink:href="#font_2_13" transform="matrix(11.9552,0,0,-11.9552,123.76636,22.759003)"/>
<use data-text="l" xlink:href="#font_2_10" transform="matrix(11.9552,0,0,-11.9552,134.39453,22.759003)"/>
<use data-text="i" xlink:href="#font_2_21" transform="matrix(11.9552,0,0,-11.9552,138.1365,22.759003)"/>
<use data-text="v" xlink:href="#font_2_18" transform="matrix(11.9552,0,0,-11.9552,141.87848,22.759003)"/>
<use data-text="e" xlink:href="#font_2_4" transform="matrix(11.9552,0,0,-11.9552,148.60927,22.759003)"/>
<use data-text="s" xlink:href="#font_2_15" transform="matrix(11.9552,0,0,-11.9552,154.74228,22.759003)"/>
<use data-text="a" xlink:href="#font_2_1" transform="matrix(11.9552,0,0,-11.9552,163.94779,22.759003)"/>
<use data-text="n" xlink:href="#font_2_12" transform="matrix(11.9552,0,0,-11.9552,170.48728,22.759003)"/>
<use data-text="d" xlink:href="#font_2_3" transform="matrix(11.9552,0,0,-11.9552,177.95928,22.759003)"/>
<use data-text="w" xlink:href="#font_2_19" transform="matrix(11.9552,0,0,-11.9552,189.34062,22.759003)"/>
<use data-text="o" xlink:href="#font_2_13" transform="matrix(11.9552,0,0,-11.9552,198.68959,22.759003)"/>
<use data-text="r" xlink:href="#font_2_14" transform="matrix(11.9552,0,0,-11.9552,205.42037,22.759003)"/>
<use data-text="k" xlink:href="#font_2_9" transform="matrix(11.9552,0,0,-11.9552,210.91976,22.759003)"/>
<use data-text="s" xlink:href="#font_2_15" transform="matrix(11.9552,0,0,-11.9552,218.02115,22.759003)"/>
<use data-text="w" xlink:href="#font_2_19" transform="matrix(11.9552,0,0,-11.9552,227.22666,22.759003)"/>
<use data-text="h" xlink:href="#font_2_7" transform="matrix(11.9552,0,0,-11.9552,236.94623,22.759003)"/>
<use data-text="e" xlink:href="#font_2_4" transform="matrix(11.9552,0,0,-11.9552,244.41823,22.759003)"/>
<use data-text="r" xlink:href="#font_2_14" transform="matrix(11.9552,0,0,-11.9552,250.55124,22.759003)"/>
<use data-text="e" xlink:href="#font_2_4" transform="matrix(11.9552,0,0,-11.9552,256.05064,22.759003)"/>
<use data-text="a" xlink:href="#font_1_1" transform="matrix(11.9552,0,0,-11.9552,266.08106,22.759003)"/>
<use data-text="n" xlink:href="#font_1_8" transform="matrix(11.9552,0,0,-11.9552,271.93913,22.759003)"/>
<use data-text="d" xlink:href="#font_1_4" transform="matrix(11.9552,0,0,-11.9552,278.44276,22.759003)"/>
<use data-text="h" xlink:href="#font_2_7" transform="matrix(11.9552,0,0,-11.9552,82.587009,36.707)"/>
<use data-text="o" xlink:href="#font_2_13" transform="matrix(11.9552,0,0,-11.9552,90.059009,36.707)"/>
<use data-text="w" xlink:href="#font_2_19" transform="matrix(11.9552,0,0,-11.9552,96.419178,36.707)"/>
<use data-text="t" xlink:href="#font_2_16" transform="matrix(11.9552,0,0,-11.9552,110.03613,36.707)"/>
<use data-text="h" xlink:href="#font_2_7" transform="matrix(11.9552,0,0,-11.9552,115.27252,36.707)"/>
<use data-text="e" xlink:href="#font_2_4" transform="matrix(11.9552,0,0,-11.9552,122.74452,36.707)"/>
<use data-text="r" xlink:href="#font_2_14" transform="matrix(11.9552,0,0,-11.9552,132.77494,36.707)"/>
<use data-text="o" xlink:href="#font_2_13" transform="matrix(11.9552,0,0,-11.9552,138.27433,36.707)"/>
<use data-text="a" xlink:href="#font_2_1" transform="matrix(11.9552,0,0,-11.9552,145.0051,36.707)"/>
<use data-text="d" xlink:href="#font_2_3" transform="matrix(11.9552,0,0,-11.9552,151.54459,36.707)"/>
<use data-text="n" xlink:href="#font_2_12" transform="matrix(11.9552,0,0,-11.9552,162.92594,36.707)"/>
<use data-text="e" xlink:href="#font_2_4" transform="matrix(11.9552,0,0,-11.9552,170.39794,36.707)"/>
<use data-text="t" xlink:href="#font_2_16" transform="matrix(11.9552,0,0,-11.9552,176.53095,36.707)"/>
<use data-text="w" xlink:href="#font_2_19" transform="matrix(11.9552,0,0,-11.9552,181.39672,36.707)"/>
<use data-text="o" xlink:href="#font_2_13" transform="matrix(11.9552,0,0,-11.9552,190.73372,36.707)"/>
<use data-text="r" xlink:href="#font_2_14" transform="matrix(11.9552,0,0,-11.9552,197.4645,36.707)"/>
<use data-text="k" xlink:href="#font_2_9" transform="matrix(11.9552,0,0,-11.9552,202.96389,36.707)"/>
<use data-text="i" xlink:href="#font_2_21" transform="matrix(11.9552,0,0,-11.9552,213.97463,36.707)"/>
<use data-text="s" xlink:href="#font_2_15" transform="matrix(11.9552,0,0,-11.9552,217.7166,36.707)"/>
<use data-text="l" xlink:href="#font_2_10" transform="matrix(11.9552,0,0,-11.9552,226.9221,36.707)"/>
<use data-text="a" xlink:href="#font_2_1" transform="matrix(11.9552,0,0,-11.9552,230.66408,36.707)"/>
<use data-text="i" xlink:href="#font_2_21" transform="matrix(11.9552,0,0,-11.9552,237.20357,36.707)"/>
<use data-text="d" xlink:href="#font_2_3" transform="matrix(11.9552,0,0,-11.9552,240.94554,36.707)"/>
<use data-text="o" xlink:href="#font_2_13" transform="matrix(11.9552,0,0,-11.9552,252.31494,36.707)"/>
<use data-text="u" xlink:href="#font_2_17" transform="matrix(11.9552,0,0,-11.9552,259.04573,36.707)"/>
<use data-text="t" xlink:href="#font_2_16" transform="matrix(11.9552,0,0,-11.9552,266.5177,36.707)"/>
<use data-text="," xlink:href="#font_1_3" transform="matrix(11.9552,0,0,-11.9552,271.7541,36.707)"/>
<use data-text="c" xlink:href="#font_1_2" transform="matrix(11.9552,0,0,-11.9552,99.485,53.643007)"/>
<use data-text="a" xlink:href="#font_1_1" transform="matrix(11.9552,0,0,-11.9552,104.68552,53.643007)"/>
<use data-text="n" xlink:href="#font_1_8" transform="matrix(11.9552,0,0,-11.9552,110.543567,53.643007)"/>
<use data-text="w" xlink:href="#font_1_14" transform="matrix(11.9552,0,0,-11.9552,120.944599,53.643007)"/>
<use data-text="e" xlink:href="#font_1_5" transform="matrix(11.9552,0,0,-11.9552,129.07415,53.643007)"/>
<use data-text="p" xlink:href="#font_1_9" transform="matrix(11.9552,0,0,-11.9552,138.17206,53.643007)"/>
<use data-text="r" xlink:href="#font_1_11" transform="matrix(11.9552,0,0,-11.9552,144.67569,53.643007)"/>
<use data-text="e" xlink:href="#font_1_5" transform="matrix(11.9552,0,0,-11.9552,149.23062,53.643007)"/>
<use data-text="d" xlink:href="#font_1_4" transform="matrix(11.9552,0,0,-11.9552,154.43114,53.643007)"/>
<use data-text="i" xlink:href="#font_1_15" transform="matrix(11.9552,0,0,-11.9552,160.93477,53.643007)"/>
<use data-text="c" xlink:href="#font_1_2" transform="matrix(11.9552,0,0,-11.9552,164.18659,53.643007)"/>
<use data-text="t" xlink:href="#font_1_12" transform="matrix(11.9552,0,0,-11.9552,169.3871,53.643007)"/>
<use data-text="t" xlink:href="#font_1_12" transform="matrix(11.9552,0,0,-11.9552,177.85138,53.643007)"/>
<use data-text="h" xlink:href="#font_1_7" transform="matrix(11.9552,0,0,-11.9552,182.40631,53.643007)"/>
<use data-text="e" xlink:href="#font_1_5" transform="matrix(11.9552,0,0,-11.9552,188.90995,53.643007)"/>
<use data-text="t" xlink:href="#font_2_16" transform="matrix(11.9552,0,0,-11.9552,198.00786,53.643007)"/>
<use data-text="r" xlink:href="#font_2_14" transform="matrix(11.9552,0,0,-11.9552,203.24423,53.643007)"/>
<use data-text="a" xlink:href="#font_2_1" transform="matrix(11.9552,0,0,-11.9552,208.74362,53.643007)"/>
<use data-text="f" xlink:href="#font_2_5" transform="matrix(11.9552,0,0,-11.9552,215.28311,53.643007)"/>
<use data-text="c" xlink:href="#font_2_2" transform="matrix(11.9552,0,0,-11.9552,226.49709,53.643007)"/>
<use data-text="v" xlink:href="#font_2_18" transform="matrix(11.9552,0,0,-11.9552,236.37209,53.643007)"/>
<use data-text="o" xlink:href="#font_2_13" transform="matrix(11.9552,0,0,-11.9552,243.10288,53.643007)"/>
<use data-text="l" xlink:href="#font_2_10" transform="matrix(11.9552,0,0,-11.9552,249.83365,53.643007)"/>
<use data-text="-" xlink:href="#font_2_8" transform="matrix(11.9552,0,0,-11.9552,253.57563,53.643007)"/>
<use data-text="u" xlink:href="#font_2_17" transform="matrix(11.9552,0,0,-11.9552,95.852008,67.591)"/>
<use data-text="m" xlink:href="#font_2_11" transform="matrix(11.9552,0,0,-11.9552,103.324008,67.591)"/>
<use data-text="e" xlink:href="#font_2_4" transform="matrix(11.9552,0,0,-11.9552,114.53798,67.591)"/>
<use data-text="o" xlink:href="#font_2_13" transform="matrix(11.9552,0,0,-11.9552,124.56839,67.591)"/>
<use data-text="n" xlink:href="#font_2_12" transform="matrix(11.9552,0,0,-11.9552,131.29917,67.591)"/>
<use data-text="e" xlink:href="#font_2_4" transform="matrix(11.9552,0,0,-11.9552,142.68051,67.591)"/>
<use data-text="v" xlink:href="#font_2_18" transform="matrix(11.9552,0,0,-11.9552,148.81352,67.591)"/>
<use data-text="e" xlink:href="#font_2_4" transform="matrix(11.9552,0,0,-11.9552,155.54431,67.591)"/>
<use data-text="r" xlink:href="#font_2_14" transform="matrix(11.9552,0,0,-11.9552,161.67733,67.591)"/>
<use data-text="y" xlink:href="#font_2_20" transform="matrix(11.9552,0,0,-11.9552,167.17671,67.591)"/>
<use data-text="r" xlink:href="#font_2_14" transform="matrix(11.9552,0,0,-11.9552,178.1755,67.591)"/>
<use data-text="o" xlink:href="#font_2_13" transform="matrix(11.9552,0,0,-11.9552,183.6749,67.591)"/>
<use data-text="a" xlink:href="#font_2_1" transform="matrix(11.9552,0,0,-11.9552,190.40567,67.591)"/>
<use data-text="d" xlink:href="#font_2_3" transform="matrix(11.9552,0,0,-11.9552,196.94516,67.591)"/>
<use data-text="s" xlink:href="#font_2_15" transform="matrix(11.9552,0,0,-11.9552,208.31456,67.591)"/>
<use data-text="e" xlink:href="#font_2_4" transform="matrix(11.9552,0,0,-11.9552,213.62267,67.591)"/>
<use data-text="g" xlink:href="#font_2_6" transform="matrix(11.9552,0,0,-11.9552,219.75568,67.591)"/>
<use data-text="m" xlink:href="#font_2_11" transform="matrix(11.9552,0,0,-11.9552,226.48645,67.591)"/>
<use data-text="e" xlink:href="#font_2_4" transform="matrix(11.9552,0,0,-11.9552,237.70043,67.591)"/>
<use data-text="n" xlink:href="#font_2_12" transform="matrix(11.9552,0,0,-11.9552,243.83344,67.591)"/>
<use data-text="t" xlink:href="#font_2_16" transform="matrix(11.9552,0,0,-11.9552,250.93483,67.591)"/>
<use data-text="?" xlink:href="#font_1_10" transform="matrix(11.9552,0,0,-11.9552,256.1712,67.591)"/>
<path transform="matrix(1,0,0,-1,178.756,42.130998)" d="M-77.37863-67.1584H-166.40418C-168.60512-67.1584-170.38928-68.94257-170.38928-71.14351V-103.19073C-170.38928-105.39168-168.60512-107.17584-166.40418-107.17584H-77.37863C-75.17769-107.17584-73.39352-105.39168-73.39352-103.19073V-71.14351C-73.39352-68.94257-75.17769-67.1584-77.37863-67.1584ZM-170.38928-107.17584" fill="#ecf2f8"/>
<path transform="matrix(1,0,0,-1,178.756,42.130998)" stroke-width=".79701" stroke-linecap="butt" stroke-miterlimit="10" stroke-linejoin="miter" fill="none" stroke="#4682b4" d="M-77.37863-67.1584H-166.40418C-168.60512-67.1584-170.38928-68.94257-170.38928-71.14351V-103.19073C-170.38928-105.39168-168.60512-107.17584-166.40418-107.17584H-77.37863C-75.17769-107.17584-73.39352-105.39168-73.39352-103.19073V-71.14351C-73.39352-68.94257-75.17769-67.1584-77.37863-67.1584ZM-170.38928-107.17584"/>
<use data-text="U" xlink:href="#font_3_16" transform="matrix(8.9664,0,0,-8.9664,16.060994,121.409999)"/>
<use data-text="n" xlink:href="#font_3_9" transform="matrix(8.9664,0,0,-8.9664,24.211453,121.409999)"/>
<use data-text="s" xlink:href="#font_3_13" transform="matrix(8.9664,0,0,-8.9664,30.102379,121.409999)"/>
<use data-text="e" xlink:href="#font_3_4" transform="matrix(8.9664,0,0,-8.9664,34.289686,121.409999)"/>
<use data-text="n" xlink:href="#font_3_9" transform="matrix(8.9664,0,0,-8.9664,39.15844,121.409999)"/>
<use data-text="s" xlink:href="#font_3_13" transform="matrix(8.9664,0,0,-8.9664,45.049367,121.409999)"/>
<use data-text="o" xlink:href="#font_3_10" transform="matrix(8.9664,0,0,-8.9664,49.236677,121.409999)"/>
<use data-text="r" xlink:href="#font_3_12" transform="matrix(8.9664,0,0,-8.9664,54.544786,121.409999)"/>
<use data-text="e" xlink:href="#font_3_4" transform="matrix(8.9664,0,0,-8.9664,58.920389,121.409999)"/>
<use data-text="d" xlink:href="#font_3_3" transform="matrix(8.9664,0,0,-8.9664,63.789144,121.409999)"/>
<use data-text="r" xlink:href="#font_3_12" transform="matrix(8.9664,0,0,-8.9664,72.75555,121.409999)"/>
<use data-text="o" xlink:href="#font_3_10" transform="matrix(8.9664,0,0,-8.9664,77.13115,121.409999)"/>
<use data-text="a" xlink:href="#font_3_1" transform="matrix(8.9664,0,0,-8.9664,82.439258,121.409999)"/>
<use data-text="d" xlink:href="#font_3_3" transform="matrix(8.9664,0,0,-8.9664,87.59493,121.409999)"/>
<use data-text="s" xlink:href="#font_3_13" transform="matrix(8.9664,0,0,-8.9664,93.485858,121.409999)"/>
<use data-text="w" xlink:href="#font_4_19" transform="matrix(8.9664,0,0,-8.9664,25.990994,132.36899)"/>
<use data-text="h" xlink:href="#font_4_7" transform="matrix(8.9664,0,0,-8.9664,32.644063,132.36899)"/>
<use data-text="e" xlink:href="#font_4_5" transform="matrix(8.9664,0,0,-8.9664,37.763879,132.36899)"/>
<use data-text="r" xlink:href="#font_4_13" transform="matrix(8.9664,0,0,-8.9664,41.861524,132.36899)"/>
<use data-text="e" xlink:href="#font_4_5" transform="matrix(8.9664,0,0,-8.9664,45.466016,132.36899)"/>
<use data-text="w" xlink:href="#font_4_19" transform="matrix(8.9664,0,0,-8.9664,52.63017,132.36899)"/>
<use data-text="e" xlink:href="#font_4_5" transform="matrix(8.9664,0,0,-8.9664,59.032178,132.36899)"/>
<use data-text="n" xlink:href="#font_4_10" transform="matrix(8.9664,0,0,-8.9664,66.19633,132.36899)"/>
<use data-text="e" xlink:href="#font_4_5" transform="matrix(8.9664,0,0,-8.9664,71.31614,132.36899)"/>
<use data-text="v" xlink:href="#font_4_18" transform="matrix(8.9664,0,0,-8.9664,75.41378,132.36899)"/>
<use data-text="e" xlink:href="#font_4_5" transform="matrix(8.9664,0,0,-8.9664,80.02251,132.36899)"/>
<use data-text="r" xlink:href="#font_4_13" transform="matrix(8.9664,0,0,-8.9664,84.120159,132.36899)"/>
<use data-text="m" xlink:href="#font_4_9" transform="matrix(8.9664,0,0,-8.9664,37.883996,143.328)"/>
<use data-text="e" xlink:href="#font_4_5" transform="matrix(8.9664,0,0,-8.9664,45.559236,143.328)"/>
<use data-text="a" xlink:href="#font_4_1" transform="matrix(8.9664,0,0,-8.9664,49.65688,143.328)"/>
<use data-text="s" xlink:href="#font_4_14" transform="matrix(8.9664,0,0,-8.9664,54.26561,143.328)"/>
<use data-text="u" xlink:href="#font_4_17" transform="matrix(8.9664,0,0,-8.9664,57.897005,143.328)"/>
<use data-text="r" xlink:href="#font_4_13" transform="matrix(8.9664,0,0,-8.9664,63.01682,143.328)"/>
<use data-text="e" xlink:href="#font_4_5" transform="matrix(8.9664,0,0,-8.9664,66.621318,143.328)"/>
<use data-text="d" xlink:href="#font_4_4" transform="matrix(8.9664,0,0,-8.9664,70.718959,143.328)"/>
<path transform="matrix(1,0,0,-1,178.756,42.130998)" d="M44.51277-67.1584H-44.51277C-46.71371-67.1584-48.49788-68.94257-48.49788-71.14351V-93.97517C-48.49788-96.17612-46.71371-97.96028-44.51277-97.96028H44.51277C46.71371-97.96028 48.49788-96.17612 48.49788-93.97517V-71.14351C48.49788-68.94257 46.71371-67.1584 44.51277-67.1584ZM-48.49788-97.96028" fill="#ecf2f8"/>
<path transform="matrix(1,0,0,-1,178.756,42.130998)" stroke-width=".79701" stroke-linecap="butt" stroke-miterlimit="10" stroke-linejoin="miter" fill="none" stroke="#4682b4" d="M44.51277-67.1584H-44.51277C-46.71371-67.1584-48.49788-68.94257-48.49788-71.14351V-93.97517C-48.49788-96.17612-46.71371-97.96028-44.51277-97.96028H44.51277C46.71371-97.96028 48.49788-96.17612 48.49788-93.97517V-71.14351C48.49788-68.94257 46.71371-67.1584 44.51277-67.1584ZM-48.49788-97.96028"/>
<use data-text="T" xlink:href="#font_3_14" transform="matrix(8.9664,0,0,-8.9664,153.947,121.409999)"/>
<use data-text="h" xlink:href="#font_3_6" transform="matrix(8.9664,0,0,-8.9664,161.32636,121.409999)"/>
<use data-text="e" xlink:href="#font_3_4" transform="matrix(8.9664,0,0,-8.9664,167.21729,121.409999)"/>
<use data-text="f" xlink:href="#font_3_5" transform="matrix(8.9664,0,0,-8.9664,175.16152,121.409999)"/>
<use data-text="u" xlink:href="#font_3_17" transform="matrix(8.9664,0,0,-8.9664,178.40735,121.409999)"/>
<use data-text="t" xlink:href="#font_3_15" transform="matrix(8.9664,0,0,-8.9664,184.29828,121.409999)"/>
<use data-text="u" xlink:href="#font_3_17" transform="matrix(8.9664,0,0,-8.9664,188.41385,121.409999)"/>
<use data-text="r" xlink:href="#font_3_12" transform="matrix(8.9664,0,0,-8.9664,194.30478,121.409999)"/>
<use data-text="e" xlink:href="#font_3_4" transform="matrix(8.9664,0,0,-8.9664,198.68039,121.409999)"/>
<use data-text="5" xlink:href="#font_4_6" transform="matrix(8.9664,0,0,-8.9664,136.479,132.36899)"/>
<use data-text="," xlink:href="#font_4_3" transform="matrix(8.9664,0,0,-8.9664,141.08774,132.36899)"/>
<use data-text="1" xlink:href="#font_4_12" transform="matrix(8.9664,0,0,-8.9664,146.7276,132.36899)"/>
<use data-text="0" xlink:href="#font_4_21" transform="matrix(8.9664,0,0,-8.9664,151.33634,132.36899)"/>
<use data-text="," xlink:href="#font_4_3" transform="matrix(8.9664,0,0,-8.9664,155.94507,132.36899)"/>
<use data-text="2" xlink:href="#font_4_16" transform="matrix(8.9664,0,0,-8.9664,161.57598,132.36899)"/>
<use data-text="0" xlink:href="#font_4_21" transform="matrix(8.9664,0,0,-8.9664,166.18471,132.36899)"/>
<use data-text="y" xlink:href="#font_4_20" transform="matrix(8.9664,0,0,-8.9664,173.86891,132.36899)"/>
<use data-text="e" xlink:href="#font_4_5" transform="matrix(8.9664,0,0,-8.9664,178.46868,132.36899)"/>
<use data-text="a" xlink:href="#font_4_1" transform="matrix(8.9664,0,0,-8.9664,182.56632,132.36899)"/>
<use data-text="r" xlink:href="#font_4_13" transform="matrix(8.9664,0,0,-8.9664,187.17505,132.36899)"/>
<use data-text="s" xlink:href="#font_4_14" transform="matrix(8.9664,0,0,-8.9664,190.77954,132.36899)"/>
<use data-text="a" xlink:href="#font_4_1" transform="matrix(8.9664,0,0,-8.9664,197.4864,132.36899)"/>
<use data-text="h" xlink:href="#font_4_7" transform="matrix(8.9664,0,0,-8.9664,202.09514,132.36899)"/>
<use data-text="e" xlink:href="#font_4_5" transform="matrix(8.9664,0,0,-8.9664,207.21495,132.36899)"/>
<use data-text="a" xlink:href="#font_4_1" transform="matrix(8.9664,0,0,-8.9664,211.31259,132.36899)"/>
<use data-text="d" xlink:href="#font_4_4" transform="matrix(8.9664,0,0,-8.9664,215.92133,132.36899)"/>
<path transform="matrix(1,0,0,-1,178.756,42.130998)" d="M166.40418-67.1584H77.37863C75.17769-67.1584 73.39352-68.94257 73.39352-71.14351V-103.19073C73.39352-105.39168 75.17769-107.17584 77.37863-107.17584H166.40418C168.60512-107.17584 170.38928-105.39168 170.38928-103.19073V-71.14351C170.38928-68.94257 168.60512-67.1584 166.40418-67.1584ZM73.39352-107.17584" fill="#ecf2f8"/>
<path transform="matrix(1,0,0,-1,178.756,42.130998)" stroke-width=".79701" stroke-linecap="butt" stroke-miterlimit="10" stroke-linejoin="miter" fill="none" stroke="#4682b4" d="M166.40418-67.1584H77.37863C75.17769-67.1584 73.39352-68.94257 73.39352-71.14351V-103.19073C73.39352-105.39168 75.17769-107.17584 77.37863-107.17584H166.40418C168.60512-107.17584 170.38928-105.39168 170.38928-103.19073V-71.14351C170.38928-68.94257 168.60512-67.1584 166.40418-67.1584ZM73.39352-107.17584"/>
<use data-text="N" xlink:href="#font_3_8" transform="matrix(8.9664,0,0,-8.9664,274.816,121.409999)"/>
<use data-text="e" xlink:href="#font_3_4" transform="matrix(8.9664,0,0,-8.9664,283.10096,121.409999)"/>
<use data-text="w" xlink:href="#font_3_18" transform="matrix(8.9664,0,0,-8.9664,287.9697,121.409999)"/>
<use data-text="p" xlink:href="#font_3_11" transform="matrix(8.9664,0,0,-8.9664,298.71144,121.409999)"/>
<use data-text="l" xlink:href="#font_3_7" transform="matrix(8.9664,0,0,-8.9664,304.60237,121.409999)"/>
<use data-text="a" xlink:href="#font_3_1" transform="matrix(8.9664,0,0,-8.9664,307.5523,121.409999)"/>
<use data-text="c" xlink:href="#font_3_2" transform="matrix(8.9664,0,0,-8.9664,312.70799,121.409999)"/>
<use data-text="e" xlink:href="#font_3_4" transform="matrix(8.9664,0,0,-8.9664,317.42433,121.409999)"/>
<use data-text="s" xlink:href="#font_3_13" transform="matrix(8.9664,0,0,-8.9664,322.29307,121.409999)"/>
<use data-text="a" xlink:href="#font_4_1" transform="matrix(8.9664,0,0,-8.9664,267.74903,132.36899)"/>
<use data-text="c" xlink:href="#font_4_2" transform="matrix(8.9664,0,0,-8.9664,275.43324,132.36899)"/>
<use data-text="i" xlink:href="#font_4_22" transform="matrix(8.9664,0,0,-8.9664,279.53089,132.36899)"/>
<use data-text="t" xlink:href="#font_4_15" transform="matrix(8.9664,0,0,-8.9664,282.09529,132.36899)"/>
<use data-text="y" xlink:href="#font_4_20" transform="matrix(8.9664,0,0,-8.9664,285.42179,132.36899)"/>
<use data-text="t" xlink:href="#font_4_15" transform="matrix(8.9664,0,0,-8.9664,293.35707,132.36899)"/>
<use data-text="h" xlink:href="#font_4_7" transform="matrix(8.9664,0,0,-8.9664,296.93464,132.36899)"/>
<use data-text="e" xlink:href="#font_4_5" transform="matrix(8.9664,0,0,-8.9664,302.05445,132.36899)"/>
<use data-text="m" xlink:href="#font_4_9" transform="matrix(8.9664,0,0,-8.9664,309.22758,132.36899)"/>
<use data-text="o" xlink:href="#font_4_11" transform="matrix(8.9664,0,0,-8.9664,316.9028,132.36899)"/>
<use data-text="d" xlink:href="#font_4_4" transform="matrix(8.9664,0,0,-8.9664,321.77159,132.36899)"/>
<use data-text="e" xlink:href="#font_4_5" transform="matrix(8.9664,0,0,-8.9664,326.8914,132.36899)"/>
<use data-text="l" xlink:href="#font_4_8" transform="matrix(8.9664,0,0,-8.9664,330.98905,132.36899)"/>
<use data-text="n" xlink:href="#font_4_10" transform="matrix(8.9664,0,0,-8.9664,281.02403,143.328)"/>
<use data-text="e" xlink:href="#font_4_5" transform="matrix(8.9664,0,0,-8.9664,286.14384,143.328)"/>
<use data-text="v" xlink:href="#font_4_18" transform="matrix(8.9664,0,0,-8.9664,290.2415,143.328)"/>
<use data-text="e" xlink:href="#font_4_5" transform="matrix(8.9664,0,0,-8.9664,294.84126,143.328)"/>
<use data-text="r" xlink:href="#font_4_13" transform="matrix(8.9664,0,0,-8.9664,298.9389,143.328)"/>
<use data-text="s" xlink:href="#font_4_14" transform="matrix(8.9664,0,0,-8.9664,305.61888,143.328)"/>
<use data-text="a" xlink:href="#font_4_1" transform="matrix(8.9664,0,0,-8.9664,309.25025,143.328)"/>
<use data-text="w" xlink:href="#font_4_19" transform="matrix(8.9664,0,0,-8.9664,313.59895,143.328)"/>
<path transform="matrix(1,0,0,-1,178.756,42.130998)" stroke-width=".99628" stroke-linecap="butt" stroke-miterlimit="10" stroke-linejoin="miter" fill="none" stroke="#003e74" d="M0-34.16122-117.48174-65.5806"/>
<path transform="matrix(-.96602,.25835,.25835,.96602,63.984315,106.98685)" d="M5.95149 0 1.60866 1.6449 3.05444 0 1.60866-1.6449Z" fill="#003e74"/>
<path transform="matrix(-.96602,.25835,.25835,.96602,63.984315,106.98685)" stroke-width=".99628" stroke-linecap="butt" stroke-miterlimit="10" stroke-linejoin="miter" fill="none" stroke="#003e74" d="M5.95149 0 1.60866 1.6449 3.05444 0 1.60866-1.6449Z"/>
<path transform="matrix(1,0,0,-1,178.756,42.130998)" stroke-width=".99628" stroke-linecap="butt" stroke-miterlimit="10" stroke-linejoin="miter" fill="none" stroke="#003e74" d="M0-34.16122V-62.1951"/>
<path transform="matrix(0,1,1,0,178.756,101.520709)" d="M5.95149 0 1.60866 1.6449 3.05444 0 1.60866-1.6449Z" fill="#003e74"/>
<path transform="matrix(0,1,1,0,178.756,101.520709)" stroke-width=".99628" stroke-linecap="butt" stroke-miterlimit="10" stroke-linejoin="miter" fill="none" stroke="#003e74" d="M5.95149 0 1.60866 1.6449 3.05444 0 1.60866-1.6449Z"/>
<path transform="matrix(1,0,0,-1,178.756,42.130998)" stroke-width=".99628" stroke-linecap="butt" stroke-miterlimit="10" stroke-linejoin="miter" fill="none" stroke="#003e74" d="M0-34.16122 117.48174-65.5806"/>
<path transform="matrix(.96602,.25835,.25835,-.96602,293.52769,106.98685)" d="M5.95149 0 1.60866 1.6449 3.05444 0 1.60866-1.6449Z" fill="#003e74"/>
<path transform="matrix(.96602,.25835,.25835,-.96602,293.52769,106.98685)" stroke-width=".99628" stroke-linecap="butt" stroke-miterlimit="10" stroke-linejoin="miter" fill="none" stroke="#003e74" d="M5.95149 0 1.60866 1.6449 3.05444 0 1.60866-1.6449Z"/>
</svg>
