<svg xmlns="http://www.w3.org/2000/svg" xmlns:xlink="http://www.w3.org/1999/xlink" xmlns:inkscape="http://www.inkscape.org/namespaces/inkscape" version="1.1" width="89.488" height="62.276" viewBox="0 0 89.488 62.276">
<defs>
<path id="font_1_2" d="M.47099305 .21424866C.47099305 .34223939 .37098695 .4482422 .25 .4482422 .125 .4482422 .027999878 .3392334 .027999878 .21424866 .027999878 .085250858 .13198853-.0107421879 .24899292-.0107421879 .36999513-.0107421879 .47099305 .087249759 .47099305 .21424866M.3880005 .22224427C.3880005 .18624878 .3880005 .13224793 .3659973 .08824158 .34399415 .04324341 .2999878 .014251709 .25 .014251709 .20698548 .014251709 .16299439 .035247804 .13598633 .08125305 .11099243 .12524414 .11099243 .18624878 .11099243 .22224427 .11099243 .26124574 .11099243 .31523133 .1349945 .35923768 .1619873 .40522767 .20899964 .426239 .24899292 .426239 .29299928 .426239 .33599855 .40423585 .3619995 .36123658 .3880005 .3182373 .3880005 .26023866 .3880005 .22224427Z"/>
<path id="font_1_1" d="M.5269928 0V.0309906C.45700074 .0309906 .44898988 .038009645 .44898988 .0871582V.69433596L.30499269 .6826172V.6516113C.375 .6516113 .3829956 .64463809 .3829956 .59580996V.38035584C.35398866 .41636659 .31098939 .4423828 .25698854 .4423828 .13899231 .4423828 .033996583 .3443451 .033996583 .21531677 .033996583 .088272098 .13198853-.0107421879 .24598694-.0107421879 .30999757-.0107421879 .35499574 .023254395 .37998963 .055267335V-.0107421879L.5269928 0M.37998963 .117996219C.37998963 .099990848 .37998963 .09799194 .36898805 .08099365 .33898927 .033218385 .2939911 .011245728 .25099183 .011245728 .20599365 .011245728 .16999817 .037216188 .1459961 .075164798 .11999512 .1161499 .116989139 .17320252 .116989139 .21421814 .116989139 .25125123 .11898804 .31129457 .147995 .35632325 .16899109 .38734437 .20698548 .42037965 .26098634 .42037965 .29599 .42037965 .33799745 .405365 .36898805 .3603363 .37998963 .34332276 .37998963 .34132386 .37998963 .32330323V.117996219Z"/>
</defs>
<path transform="matrix(1,0,0,-1,17.531,31.138)" d="M9.21269 0C9.21269 5.08807 5.08807 9.21269 0 9.21269-5.08807 9.21269-9.21269 5.08807-9.21269 0-9.21269-5.08807-5.08807-9.21269 0-9.21269 5.08807-9.21269 9.21269-5.08807 9.21269 0ZM0 0" fill="#dae6f0"/>
<path transform="matrix(1,0,0,-1,17.531,31.138)" stroke-width=".69739" stroke-linecap="butt" stroke-miterlimit="10" stroke-linejoin="miter" fill="none" stroke="#555555" d="M9.21269 0C9.21269 5.08807 5.08807 9.21269 0 9.21269-5.08807 9.21269-9.21269 5.08807-9.21269 0-9.21269-5.08807-5.08807-9.21269 0-9.21269 5.08807-9.21269 9.21269-5.08807 9.21269 0ZM0 0"/>
<use data-text="o" xlink:href="#font_1_2" transform="matrix(9.9626,0,0,-9.9626,15.041,33.283)"/>
<path transform="matrix(1,0,0,-1,17.531,31.138)" stroke-width=".69739" stroke-linecap="butt" stroke-miterlimit="10" stroke-linejoin="miter" fill="none" stroke="#555555" d="M36.42566 13.60663C36.42566 18.69472 32.30106 22.81934 27.21297 22.81934 22.12488 22.81934 18.00026 18.69472 18.00026 13.60663 18.00026 8.51854 22.12488 4.39392 27.21297 4.39392 32.30106 4.39392 36.42566 8.51854 36.42566 13.60663ZM27.21297 13.60663"/>
<path transform="matrix(1,0,0,-1,17.531,31.138)" stroke-width=".69739" stroke-linecap="butt" stroke-miterlimit="10" stroke-linejoin="miter" fill="none" stroke="#555555" d="M36.42566-13.60663C36.42566-8.51854 32.30106-4.39392 27.21297-4.39392 22.12488-4.39392 18.00026-8.51854 18.00026-13.60663 18.00026-18.69472 22.12488-22.81934 27.21297-22.81934 32.30106-22.81934 36.42566-18.69472 36.42566-13.60663ZM27.21297-13.60663"/>
<path transform="matrix(1,0,0,-1,17.531,31.138)" d="M63.63864 0C63.63864 5.08807 59.51402 9.21269 54.42593 9.21269 49.33784 9.21269 45.21323 5.08807 45.21323 0 45.21323-5.08807 49.33784-9.21269 54.42593-9.21269 59.51402-9.21269 63.63864-5.08807 63.63864 0ZM54.42593 0" fill="#cce2de"/>
<path transform="matrix(1,0,0,-1,17.531,31.138)" stroke-width=".69739" stroke-linecap="butt" stroke-miterlimit="10" stroke-linejoin="miter" fill="none" stroke="#555555" d="M63.63864 0C63.63864 5.08807 59.51402 9.21269 54.42593 9.21269 49.33784 9.21269 45.21323 5.08807 45.21323 0 45.21323-5.08807 49.33784-9.21269 54.42593-9.21269 59.51402-9.21269 63.63864-5.08807 63.63864 0ZM54.42593 0"/>
<use data-text="d" xlink:href="#font_1_1" transform="matrix(9.9626,0,0,-9.9626,69.189,34.57)"/>
<path transform="matrix(1,0,0,-1,17.531,31.138)" stroke-width=".99628" stroke-linecap="butt" stroke-miterlimit="10" stroke-linejoin="miter" fill="none" stroke="#003e74" d="M8.55193 4.2761 14.58002 7.29025"/>
<path transform="matrix(.89436,-.44717,-.44717,-.89436,29.60197,25.102252)" d="M5.95149 0 1.60866 1.6449 3.05444 0 1.60866-1.6449Z" fill="#003e74"/>
<path transform="matrix(.89436,-.44717,-.44717,-.89436,29.60197,25.102252)" stroke-width=".99628" stroke-linecap="butt" stroke-miterlimit="10" stroke-linejoin="miter" fill="none" stroke="#003e74" d="M5.95149 0 1.60866 1.6449 3.05444 0 1.60866-1.6449Z"/>
<path transform="matrix(1,0,0,-1,17.531,31.138)" stroke-width=".99628" stroke-linecap="butt" stroke-miterlimit="10" stroke-linejoin="miter" fill="none" stroke="#003e74" d="M35.76662 9.3321 41.79442 6.3177"/>
<path transform="matrix(.89436,.44722,.44722,-.89436,56.81637,23.56567)" d="M5.95149 0 1.60866 1.6449 3.05444 0 1.60866-1.6449Z" fill="#003e74"/>
<path transform="matrix(.89436,.44722,.44722,-.89436,56.81637,23.56567)" stroke-width=".99628" stroke-linecap="butt" stroke-miterlimit="10" stroke-linejoin="miter" fill="none" stroke="#003e74" d="M5.95149 0 1.60866 1.6449 3.05444 0 1.60866-1.6449Z"/>
<path transform="matrix(1,0,0,-1,17.531,31.138)" stroke-width=".3985" stroke-linecap="butt" stroke-miterlimit="10" stroke-linejoin="miter" fill="none" stroke="#bfbfbf" d="M8.55193-4.2761 18.66258-9.3315"/>
<path transform="matrix(1,0,0,-1,17.531,31.138)" stroke-width=".3985" stroke-linecap="butt" stroke-miterlimit="10" stroke-linejoin="miter" fill="none" stroke="#bfbfbf" d="M35.76662-9.3321 45.87698-4.27625"/>
</svg>
