<svg xmlns="http://www.w3.org/2000/svg" xmlns:xlink="http://www.w3.org/1999/xlink" xmlns:inkscape="http://www.inkscape.org/namespaces/inkscape" version="1.1" width="158.669" height="93.775" viewBox="0 0 158.669 93.775">
<defs>
<path id="font_1_2" d="M.7579956 .4328766C.7579956 .5910034 .6519928 .7050781 .49499513 .7050781 .2709961 .7050781 .049987794 .47491456 .049987794 .24671936 .049987794 .082595828 .16299439-.022460938 .31399537-.022460938 .5369873-.022460938 .7579956 .2006836 .7579956 .4328766M.6669922 .4709015C.6669922 .40585328 .6409912 .2597351 .5569916 .14663697 .48199464 .046569826 .3899994 .007537842 .32099916 .007537842 .22499085 .007537842 .1459961 .080596927 .1459961 .2217102 .1459961 .27374269 .16299439 .42185975 .24598694 .53596499 .31799317 .6340332 .4139862 .677063 .48799134 .677063 .58599856 .677063 .6669922 .60601809 .6669922 .4709015Z"/>
<path id="font_2_1" d="M.34799195 .624176C.34799195 .6481018 .32998658 .6640625 .30699159 .6640625 .27999879 .6640625 .25099183 .63812258 .25099183 .60920718 .25099183 .58428958 .2689972 .56933596 .29100038 .56933596 .32299806 .56933596 .34799195 .59924319 .34799195 .624176M.38398744 .14428711C.38398744 .14428711 .3829956 .15829468 .36499024 .15829468 .35099793 .15829468 .34999085 .1532898 .34399415 .13427735 .32798768 .08325195 .2869873 .023223877 .23599243 .023223877 .21798706 .023223877 .20899964 .035232545 .20899964 .059249879 .20899964 .07925415 .21499634 .09425354 .22799683 .12527466L.28799439 .27534486C.2919922 .28533937 .30099488 .3093567 .30499269 .31835938 .30799867 .32736207 .31199647 .33737184 .31199647 .35437013 .31199647 .4104004 .2619934 .44140626 .21199036 .44140626 .10998535 .44140626 .06098938 .3093567 .06098938 .28733827 .06098938 .28234864 .06498718 .27334596 .07899475 .27334596 .09298706 .27334596 .09599304 .27934266 .09899902 .28834535 .1269989 .38539125 .17999268 .4084015 .20799256 .4084015 .22799683 .4084015 .23498535 .395401 .23498535 .37239076 .23498535 .35237123 .22898865 .33737184 .22698975 .33036805L.1749878 .20230103C.16299439 .17329407 .16299439 .17129517 .1499939 .13728333 .13699341 .10726929 .13198853 .09425354 .13198853 .07725525 .13198853 .026229859 .17799378-.009765625 .23298645-.009765625 .33399964-.009765625 .38398744 .12226868 .38398744 .14428711Z"/>
<path id="font_1_1" d="M.82299807 .42774964C.82299807 .56466677 .7369995 .6826172 .58099368 .6826172H.23799134C.21998596 .6826172 .20799256 .6826172 .20799256 .6646118 .20799256 .6516113 .21699524 .6516113 .23799134 .6516113 .24198914 .6516113 .2599945 .6516113 .27598573 .6496124 .29299928 .6476135 .2999878 .6456146 .2999878 .63461306 .2999878 .6296234 .29899598 .6256256 .29599 .614624L.16099549 .07595825C.1519928 .039993287 .1499939 .0309906 .07499695 .0309906 .055999757 .0309906 .04499817 .0309906 .04499817 .0129852299 .04499817 0 .054992677 0 .07299805 0H.4099884C.6239929 0 .82299807 .21188355 .82299807 .42774964M.73399356 .46472169C.73399356 .40675355 .70899966 .24685669 .6309967 .1479187 .58499148 .09095764 .5019989 .0309906 .3919983 .0309906H.27198792C.2579956 .0309906 .2559967 .0309906 .2519989 .03199768 .24198914 .032989503 .23899842 .033996583 .23899842 .040985109 .23899842 .04399109 .23899842 .04598999 .24398804 .063964847L.3809967 .6126251C.3899994 .64860537 .3919983 .6516113 .43399049 .6516113H.5469971C.651001 .6516113 .73399356 .5936432 .73399356 .46472169Z"/>
<path id="font_2_2" d="M.46398927 .624176C.46398927 .65408328 .43998719 .6640625 .42399598 .6640625 .3919983 .6640625 .36698915 .6331482 .36698915 .60920718 .36698915 .5882721 .3829956 .56933596 .4079895 .56933596 .43399049 .56933596 .46398927 .59425356 .46398927 .624176M.4229889 .3123169C.4249878 .32232667 .42799378 .33132936 .42799378 .34535218 .42799378 .4013977 .37799073 .44140626 .31399537 .44140626 .20098877 .44140626 .1309967 .30630494 .1309967 .28729249 .1309967 .28129579 .1349945 .2732849 .14898682 .2732849 .16299439 .2732849 .1639862 .2772827 .17098999 .29130555 .19999695 .35635377 .2559967 .4084015 .31098939 .4084015 .34098817 .4084015 .34799195 .38337709 .34799195 .35835267 .34799195 .34535218 .34599305 .33132936 .34498597 .32833863L.25099183-.04499817C.23199463-.12005615 .17298889-.17111206 .114990238-.17111206 .11199951-.17111206 .083999637-.17010498 .083999637-.16610718L.08699036-.16209412C.101989749-.15008545 .10899353-.13407898 .10899353-.11906433 .10899353-.08703613 .08299255-.08003235 .068984989-.08003235 .041992189-.08003235 .011993408-.10205078 .011993408-.13908386 .011993408-.19210816 .07499695-.20410156 .115997318-.20410156 .18299866-.20410156 .30299378-.16610718 .33299256-.04600525L.4229889 .3123169Z"/>
<path id="font_3_4" d="M.49499513 .10316467C.49499513 .10916138 .48599244 .120147708 .47799684 .120147708 .47200013 .120147708 .46998597 .1181488 .46199037 .11016846 .38398744 .018234253 .2669983 .018234253 .24899292 .018234253 .1769867 .018234253 .14498902 .06718445 .14498902 .12915039 .14498902 .15812683 .15899658 .26704408 .21099854 .33602906 .24899292 .3850708 .30099488 .4133911 .35099793 .4133911 .36499024 .4133911 .41299439 .41137696 .43798829 .38304139 .4019928 .37702943 .3869934 .34902955 .3869934 .32702638 .3869934 .30003358 .4079895 .29003907 .42599488 .29003907 .44799806 .29003907 .48298646 .30603028 .48298646 .35403443 .48298646 .4223938 .40499879 .44140626 .35099793 .44140626 .20098877 .44140626 .06199646 .3030243 .06199646 .16412354 .06199646 .078186038 .12199402-.009765625 .24699402-.009765625 .41600038-.009765625 .49499513 .08917236 .49499513 .10316467Z"/>
<path id="font_4_1" d="M.3959961 .6244507C.3959961 .64845278 .37799073 .66744998 .35198976 .66744998 .32398988 .66744998 .29100038 .6404419 .29100038 .6074524 .29100038 .5794525 .31298829 .5644531 .33399964 .5644531 .36698915 .5644531 .3959961 .5944519 .3959961 .6244507M.44299317 .14428711C.44299317 .15829468 .42599488 .15829468 .42199708 .15829468 .40499879 .15829468 .4039917 .15429688 .397995 .13528443 .3809967 .08027649 .33599855 .023254395 .28599549 .023254395 .2630005 .023254395 .2559967 .039260866 .2559967 .061264039 .2559967 .08227539 .26098634 .09327698 .2689972 .11227417L.2899933 .16629029 .34700013 .30433656C.35499574 .32435609 .36099244 .33735658 .36099244 .35435487 .36099244 .40237428 .31498719 .4423828 .2519989 .4423828 .14698792 .4423828 .09098816 .3143463 .09098816 .28733827 .09098816 .2733307 .10699463 .2733307 .11199951 .2733307 .1289978 .2733307 .12998963 .27833558 .1349945 .29333497 .15699768 .36436463 .20498657 .40837098 .24798584 .40837098 .2669983 .40837098 .27799989 .39736939 .27799989 .37036134 .27799989 .36636354 .27799989 .35336305 .27198792 .3343506L.20599365 .17530823C.19898987 .15829468 .19898987 .15629578 .18399048 .122283939 .1789856 .10827637 .17298889 .0942688 .17298889 .07727051 .17298889 .025253296 .22200012-.0107421879 .28199769-.0107421879 .3869934-.0107421879 .44299317 .119277957 .44299317 .14428711Z"/>
<path id="font_4_2" d="M.5099945 .6244507C.5099945 .6474457 .49299623 .66744998 .46598817 .66744998 .43499757 .66744998 .4039917 .6374512 .4039917 .6074524 .4039917 .5834503 .4229889 .5644531 .44799806 .5644531 .48199464 .5644531 .5099945 .5964508 .5099945 .6244507M.46899415 .31230165C.47099305 .3223114 .47399903 .3313141 .47399903 .34532167 .47399903 .40237428 .42099 .4423828 .35099793 .4423828 .22999573 .4423828 .1559906 .30729676 .1559906 .28729249 .1559906 .27326966 .17199707 .27326966 .1769867 .27326966 .19198609 .27326966 .19400025 .2772827 .19898987 .28729249 .24499512 .38536073 .31298829 .40837098 .34700013 .40837098 .3869934 .40837098 .3889923 .37234498 .3889923 .35533143 .3889923 .34132386 .3880005 .33732606 .38598634 .3293152L.2919922-.044952394C.272995-.12097168 .20999146-.17105103 .14898682-.17105103 .13198853-.17105103 .12098694-.16796875 .11299133-.16596985 .13699341-.15197754 .14399719-.12597656 .14399719-.112976077 .14399719-.09597778 .13198853-.07197571 .09899902-.07197571 .06498718-.07197571 .036987306-.10298157 .036987306-.13597107 .036987306-.1790924 .08198547-.20507813 .1499939-.20507813 .21798706-.20507813 .34799195-.17002869 .3789978-.045959474L.46899415 .31230165Z"/>
<path id="font_5_11" d="M.57199099 .73799136C.57199099 .74697878 .5649872 .75 .55799868 .75 .5439911 .75 .40098573 .6579895 .30599977 .49998475 .22599793 .36798097 .1789856 .2199707 .1789856 .07498169 .1789856 .038970949 .17999268-.03703308 .21798706-.12602234 .24299622-.18302918 .29699708-.24902344 .31498719-.24902344 .32798768-.24902344 .32798768-.23703003 .32798768-.23703003 .32798768-.23402405 .32798768-.23202515 .31599427-.21702576 .24198914-.12503052 .23799134-.0040283205 .23799134 .039978029 .23799134 .15097046 .27198792 .31497193 .34199525 .4559784 .40899659 .58898928 .4869995 .6669769 .5629883 .72499087 .56900027 .72898867 .57199099 .73197939 .57199099 .73799136Z"/>
<path id="font_5_3" d="M.54100039 .09715271C.54100039 .105148319 .5269928 .12113953 .5179901 .12113953 .5130005 .12113953 .5099945 .1181488 .5029907 .1101532 .44198609 .037216188 .35499574 .018234253 .30499269 .018234253 .25498963 .018234253 .20899964 .047195436 .20899964 .12812805 .20899964 .1750946 .23098755 .28100587 .2769928 .33898927 .31698609 .39015199 .36499024 .4133911 .4079895 .4133911 .4249878 .4133911 .46798707 .40834046 .4850006 .37701417 .45599366 .36898805 .44599916 .34498597 .44599916 .32798768 .44599916 .31199647 .45700074 .29499818 .48199464 .29499818 .49899293 .29499818 .5319977 .30599977 .5319977 .35398866 .5319977 .41940309 .46199037 .44140626 .40699769 .44140626 .2669983 .44140626 .12998963 .3039856 .12998963 .16210938 .12998963 .06819153 .19299317-.009765625 .3039856-.009765625 .46499635-.009765625 .54100039 .08416748 .54100039 .09715271Z"/>
<path id="font_5_9" d="M.57899478 .2693329C.57899478 .36637879 .5109863 .44140626 .4079895 .44140626 .2649994 .44140626 .12998963 .3023529 .12998963 .16229248 .12998963 .0602417 .20199585-.009765625 .30099488-.009765625 .44400025-.009765625 .57899478 .13027954 .57899478 .2693329M.5 .30334474C.5 .2693329 .4850006 .17329407 .44198609 .105270389 .41099549 .057250978 .35499574 .018234253 .3019867 .018234253 .27398683 .018234253 .20899964 .032226564 .20899964 .12828064 .20899964 .17228699 .22898865 .27734376 .2769928 .33937074 .31199647 .38638307 .36299134 .4133911 .40699769 .4133911 .44198609 .4133911 .5 .39239503 .5 .30334474Z"/>
<path id="font_5_14" d="M.45399476 .15612793C.45399476 .18611145 .44099427 .21409607 .4169922 .2350769 .3880005 .25906373 .36299134 .2640686 .30899049 .2740631 .2789917 .28004457 .23498535 .28804017 .23498535 .32904054 .23498535 .3470459 .2519989 .4133911 .34700013 .4133911 .36999513 .4133911 .41299439 .4083557 .42900086 .3720398 .42399598 .3700409 .397995 .35603334 .397995 .33003236 .397995 .31703187 .40499879 .30003358 .42999269 .30003358 .44198609 .30003358 .47399903 .30604554 .47399903 .35403443 .47399903 .418396 .4059906 .44140626 .34799195 .44140626 .20498657 .44140626 .17199707 .33303834 .17199707 .29403688 .17199707 .21308899 .25099183 .19810486 .28799439 .19111634 .33499146 .18211365 .3909912 .17211914 .3909912 .121154788 .3909912 .094177249 .3659973 .018234253 .24598694 .018234253 .21499634 .018234253 .15699768 .024215699 .13598633 .06719971 .17098999 .076187137 .1769867 .105163577 .1769867 .11616516 .1769867 .1351471 .16299439 .1491394 .14199829 .1491394 .114990238 .1491394 .08999634 .12915039 .08999634 .08717346 .08999634 .02722168 .1519928-.009765625 .24398804-.009765625 .4149933-.009765625 .45399476 .11116028 .45399476 .15612793Z"/>
<path id="font_5_15" d="M.4149933 .14404297C.4149933 .15602112 .4019928 .15602112 .394989 .15602112 .3789978 .15602112 .37799073 .15402222 .37199403 .14004517 .32499696 .034194948 .272995 .018234253 .24598694 .018234253 .21199036 .018234253 .21199036 .05517578 .21199036 .06515503 .21199036 .0821228 .21699524 .10310364 .21798706 .10609436L.2899933 .39465333H.3889923C.40699769 .39465333 .4189911 .39465333 .4189911 .4166565 .4189911 .43066407 .40699769 .43066407 .3909912 .43066407H.29899598L.33499146 .5749054C.33898927 .5889282 .33898927 .5909271 .33898927 .5949402 .33898927 .6129761 .32499696 .625 .30699159 .625 .272995 .625 .2649994 .5919342 .2630005 .58291628L.22499085 .43066407H.12599182C.10798645 .43066407 .09599304 .43066407 .09599304 .4086609 .09599304 .39465333 .10798645 .39465333 .12399292 .39465333H.21598816L.14698792 .11807251C.14199829 .098098758 .14199829 .09111023 .14199829 .084121707 .14199829 .022216797 .19099427-.009765625 .24299622-.009765625 .35099793-.009765625 .4149933 .12806702 .4149933 .14404297Z"/>
<path id="font_5_12" d="M.43099977 .4259796C.43099977 .46298219 .42799378 .5379791 .3959961 .61698916 .36698915 .6859894 .31098939 .75 .29499818 .75 .28599549 .75 .2809906 .74598696 .2809906 .73799136 .2809906 .7339783 .2809906 .73197939 .2919922 .7189789 .35099793 .64598086 .37098695 .5529785 .37098695 .46098329 .37098695 .34797669 .32598878-.0110321049 .04899597-.22203064 .038986207-.23002625 .036987306-.23103333 .036987306-.23703003 .036987306-.24302674 .039993287-.24902344 .050994874-.24902344 .06199646-.24902344 .20399475-.1650238 .30999757 .010971069 .394989 .15296936 .43099977 .30897523 .43099977 .4259796Z"/>
<path id="font_3_3" d="M.7630005 .47071839 .7899933 .66160586C.7899933 .6756134 .7779999 .6756134 .7599945 .6756134H.14498902C.11999512 .6756134 .117996219 .6756134 .11099243 .65460208L.04798889 .4777069C.04699707 .4737091 .042999269 .46472169 .042999269 .4597168 .042999269 .455719 .04499817 .4457245 .05999756 .4457245 .07299805 .4457245 .07499695 .45072938 .08099365 .4697113 .13899231 .62960818 .17199707 .63960269 .32398988 .63960269H.3659973C.3959961 .63960269 .39698792 .63861086 .39698792 .62960818 .39698792 .62960818 .39698792 .62361147 .3929901 .6086273L.26098634 .082962039C.2519989 .04598999 .24899292 .035995485 .14399719 .035995485 .10798645 .035995485 .09899902 .035995485 .09899902 .01399231 .09899902 .010986328 .100997928 0 .115997318 0 .14399719 0 .17399597 .0029907227 .20199585 .0029907227L.28799439 .0039978029 .37799073 .0029907227C.40499879 .0019989014 .43499757 0 .46199037 0 .46998597 0 .4850006 0 .4850006 .021987915 .4850006 .035995485 .47499085 .035995485 .44400025 .035995485 .4249878 .035995485 .40499879 .036987306 .38598634 .037994386 .35198976 .040985109 .34999085 .04498291 .34999085 .05697632 .34999085 .0639801 .34999085 .065979007 .35398866 .07997131L.48599244 .6046295C.49299623 .63360598 .49499513 .63661196 .5169983 .63861086 .5219879 .63960269 .5569916 .63960269 .57699587 .63960269 .6380005 .63960269 .6639862 .63960269 .68899539 .63160708 .73399356 .61761477 .73599246 .5886383 .73599246 .5526581 .73599246 .53666689 .73599246 .52368167 .72898867 .4717102L.72698977 .46072389C.72698977 .45072938 .73399356 .4457245 .74398806 .4457245 .7589874 .4457245 .7609863 .45472718 .7630005 .47071839Z"/>
<path id="font_5_13" d="M.55999758 .3723755C.55999758 .42340089 .49798585 .44140626 .43899537 .44140626 .4119873 .44140626 .35798646 .4393921 .30099488 .37338258 .2849884 .42840577 .23298645 .44140626 .20498657 .44140626 .1619873 .44140626 .13999939 .4133911 .125 .38838197 .10398865 .3553772 .08799744 .2943573 .08799744 .28834535 .08799744 .27534486 .100997928 .27534486 .10899353 .27534486 .1269989 .27534486 .12799073 .27633668 .1349945 .3043518 .1519928 .37338258 .17098999 .4133911 .20199585 .4133911 .23298645 .4133911 .23298645 .37738038 .23298645 .3653717 .23298645 .3463745 .21998596 .29534913 .21199036 .2603302L.18399048 .15229798C.18099976 .13728333 .17098999 .09927368 .16699219 .08425903 .1619873 .06225586 .15299988 .027236939 .15299988 .020233155 .15299988-.0017700195 .16899109-.009765625 .18399048-.009765625 .20599365-.009765625 .21899414 .0062408449 .22299195 .01423645 .22599793 .021240235 .23498535 .057250978 .23999024 .07826233L.2669983 .18630982C.27198792 .20831299 .27799989 .22932434 .2829895 .2513275 .2889862 .27534486 .2999878 .31835938 .34399415 .3683777 .3639984 .39138795 .3929901 .4133911 .43699647 .4133911 .44799806 .4133911 .48199464 .4123993 .5049896 .39639283 .48399354 .38638307 .47499085 .3683777 .47499085 .3513794 .47499085 .32336427 .49699403 .3173523 .5099945 .3173523 .5289917 .3173523 .55999758 .33135987 .55999758 .3723755Z"/>
<path id="font_5_17" d="M.38598634 .14328003C.38598634 .15628052 .37298585 .15628052 .36499024 .15628052 .34700013 .15628052 .34599305 .1532898 .34098817 .13528443 .32798768 .087249759 .29499818 .018234253 .24398804 .018234253 .21998596 .018234253 .21998596 .042236329 .21998596 .052246095 .21998596 .07624817 .23699951 .119277957 .25 .1512909L.31599427 .32435609C.32199098 .34136964 .32199098 .3443756 .32199098 .3573761 .32199098 .40238954 .2869873 .44140626 .23199463 .44140626 .13398743 .44140626 .08799744 .3063507 .08799744 .28834535 .08799744 .27534486 .100997928 .27534486 .10899353 .27534486 .12098694 .27534486 .1269989 .27534486 .12998963 .28834535 .16299439 .40438844 .21099854 .4133911 .22898865 .4133911 .24099732 .4133911 .2539978 .4104004 .2539978 .37937928 .2539978 .3573761 .24598694 .33737184 .23799134 .31636048L.21099854 .24732971 .17599488 .15428162C.1659851 .12828064 .1519928 .09225464 .1519928 .07424927 .1519928 .02822876 .18798828-.009765625 .24099732-.009765625 .34098817-.009765625 .38598634 .12727356 .38598634 .14328003M.3919983 .6092377C.3919983 .63723757 .37098695 .65625 .34399415 .65625 .30599977 .65625 .27398683 .62124636 .27398683 .5882416 .27398683 .5632477 .29299928 .5412445 .32199098 .5412445 .35798646 .5412445 .3919983 .57424929 .3919983 .6092377Z"/>
<path id="font_5_10" d="M.5799866 .27734376C.5799866 .37838746 .5159912 .44140626 .43798829 .44140626 .37298585 .44140626 .31999208 .39439393 .30099488 .37338258 .2849884 .42840577 .23298645 .44140626 .20498657 .44140626 .1619873 .44140626 .13999939 .4133911 .125 .38838197 .10398865 .3553772 .08799744 .29434205 .08799744 .28834535 .08799744 .27534486 .100997928 .27534486 .10899353 .27534486 .1269989 .27534486 .12799073 .27633668 .1349945 .3043518 .1519928 .37338258 .17098999 .4133911 .20199585 .4133911 .23298645 .4133911 .23298645 .37738038 .23298645 .3653717 .23298645 .35437013 .23298645 .34736634 .22898865 .33135987L.115997318-.12246704C.10899353-.15138245 .102996829-.15736389 .06599426-.15736389 .051986696-.15736389 .039993287-.15736389 .039993287-.17936707 .039993287-.18836975 .04598999-.19335938 .053985597-.19335938 .07998657-.19335938 .11099243-.18936157 .13798523-.18936157 .17098999-.18936157 .20799256-.19335938 .23999024-.19335938 .24499512-.19335938 .2599945-.19335938 .2599945-.17236328 .2599945-.15736389 .25-.15736389 .23098755-.15736389 .21299744-.15736389 .18598938-.15736389 .18598938-.145401 .18598938-.13941956 .19099427-.116485599 .19499207-.10151672L.23199463 .04623413C.24598694 .024230957 .2769928-.009765625 .33099366-.009765625 .45399476-.009765625 .5799866 .13327027 .5799866 .27734376M.5039978 .3193512C.5039978 .2693329 .47599793 .16029358 .45199586 .11526489 .40899659 .036239625 .35798646 .018234253 .33099366 .018234253 .2639923 .018234253 .25 .101257327 .25 .11526489 .25 .119277957 .25099183 .121276859 .25299073 .13027954L.2939911 .29534913C.30299378 .33236695 .37199403 .4133911 .43499757 .4133911 .47999574 .4133911 .5039978 .37138368 .5039978 .3193512Z"/>
<path id="font_5_2" d="M.5209961 .27833558C.5209961 .37838746 .45799256 .44140626 .3789978 .44140626 .32499696 .44140626 .2829895 .4084015 .2599945 .39038087L.32899476 .66529849C.32998658 .6693115 .33198548 .67630007 .33198548 .68029788 .33198548 .6953125 .31599427 .6943054 .30499269 .69329836L.19699097 .6843109C.18399048 .68330386 .17098999 .682312 .17098999 .66130068 .17098999 .64730837 .18399048 .64730837 .19699097 .64730837 .24499512 .64730837 .24499512 .64030459 .24499512 .63131716 .24499512 .62532046 .24499512 .62332156 .24099732 .60931399L.14399719 .22331238C.1349945 .18730164 .1349945 .16429138 .1349945 .1512909 .1349945 .04524231 .19999695-.009765625 .27198792-.009765625 .394989-.009765625 .5209961 .13327027 .5209961 .27833558M.44499208 .3193512C.44499208 .2733307 .4169922 .1612854 .3919983 .11427307 .35499574 .04423523 .30499269 .018234253 .272995 .018234253 .23098755 .018234253 .20098877 .054244996 .20098877 .119277957 .20098877 .17228699 .23799134 .3063507 .24398804 .31636048 .27398683 .36437989 .32699586 .4133911 .3769989 .4133911 .42399598 .4133911 .44499208 .36738587 .44499208 .3193512Z"/>
<path id="font_5_5" d="M.43798829-.06404114 .54599 .37135316C.5499878 .3863678 .5499878 .3883667 .5499878 .39237977 .5499878 .4143982 .5339966 .4223938 .5189972 .4223938 .49798585 .4223938 .48098756 .4073944 .47499085 .38737489 .45098878 .4243927 .41600038 .44140626 .3769989 .44140626 .25498963 .44140626 .12998963 .3012848 .12998963 .16113281 .12998963 .06903076 .18899536 0 .272995 0 .32299806 0 .36499024 .026992798 .3919983 .05001831L.36099244-.07304382C.35299684-.094055179 .31599427-.17610169 .21299744-.17610169 .19898987-.17610169 .1639862-.17610169 .13999939-.167099 .1639862-.15309143 .1639862-.12608338 .1639862-.12608338 .1639862-.10606384 .1499939-.092056278 .12799073-.092056278 .102996829-.092056278 .07798767-.11306763 .07798767-.14608765 .07798767-.19911194 .14199829-.20410156 .20999146-.20410156 .35398866-.20410156 .42199708-.1270752 .43798829-.06404114M.4149933 .14111328C.40699769 .110076908 .33999635 .027999878 .27598573 .027999878 .22999573 .027999878 .20698548 .06903076 .20698548 .12109375 .20698548 .16313172 .23199463 .2752533 .2630005 .3283081 .2979889 .3883667 .34399415 .4133911 .3769989 .4133911 .44599916 .4133911 .45799256 .32731629 .45799256 .31829835L.45498658 .30429078 .4149933 .14111328Z"/>
<path id="font_3_2" d="M.82899478 .4252472C.82899478 .5821686 .71598818 .703125 .5389862 .703125 .2999878 .703125 .068984989 .47921754 .068984989 .2543335 .068984989 .09341431 .18798828-.01953125 .3600006-.01953125 .59799197-.01953125 .82899478 .19836426 .82899478 .4252472M.73098757 .4602356C.73098757 .38726808 .69999697 .24134827 .6069946 .13439942 .5369873 .05444336 .44599916 .013458252 .36799623 .013458252 .2619934 .013458252 .17199707 .0854187 .17199707 .23335266 .17199707 .28431703 .18598938 .426239 .27799989 .54019168 .34498597 .6221466 .44198609 .67111209 .5309906 .67111209 .6349945 .67111209 .73098757 .6051483 .73098757 .4602356Z"/>
<path id="font_5_4" d="M.26098634 .04899597C.26098634 .08699036 .24398804 .114990238 .20899964 .114990238 .16799927 .114990238 .13899231 .07899475 .13899231 .04598999 .13899231 .01499939 .1599884 0 .18699646 0 .21099854 0 .21998596 .0069885256 .22799683 .0129852299 .21099854-.056106569 .16999817-.11520386 .10998535-.1632843 .09700012-.17330933 .09599304-.1743164 .09599304-.17932129 .09599304-.18632508 .102996829-.19433594 .10998535-.19433594 .12998963-.19433594 .26098634-.074142459 .26098634 .04899597Z"/>
<path id="font_3_1" d="M.8929901 .42175294C.8929901 .5676575 .7919922 .6826172 .6289978 .6826172H.2649994C.24499512 .6826172 .23298645 .6826172 .23298645 .660614 .23298645 .64660647 .24398804 .64660647 .2659912 .64660647 .28199769 .64660647 .28599549 .64660647 .3039856 .64460757 .32398988 .64260867 .32598878 .64060977 .32598878 .63061526 .32598878 .63061526 .32598878 .6236267 .32199098 .6086426L.18899536 .07797241C.18099976 .04399109 .1789856 .035995485 .100997928 .035995485 .08299255 .035995485 .070999149 .035995485 .070999149 .01399231 .070999149 0 .08299255 0 .100997928 0H.45799256C.6799927 0 .8929901 .20388794 .8929901 .42175294M.7979889 .45472718C.7979889 .43174745 .7879944 .2588501 .6879883 .14492798 .6489868 .09994507 .5629883 .035995485 .43998719 .035995485H.3039856C.272995 .035995485 .27198792 .036987306 .27198792 .04598999 .27198792 .04598999 .27198792 .051986696 .27598573 .066970828L.41299439 .6126251C.42099 .6436157 .42199708 .64660647 .46398927 .64660647H.59199526C.70399478 .64660647 .7979889 .59065249 .7979889 .45472718Z"/>
<path id="font_5_7" d="M.973999 .14328003C.973999 .15628052 .96099856 .15628052 .9529877 .15628052 .93499758 .15628052 .9339905 .1532898 .92900088 .13528443 .9119873 .07325745 .8759918 .018234253 .83200076 .018234253 .81799319 .018234253 .8069916 .025222779 .8069916 .052246095 .8069916 .07424927 .81599429 .0962677 .82398989 .119277957 .84199526 .16629029 .8839874 .27534486 .8839874 .33036805 .8839874 .4084015 .8299866 .44140626 .7609863 .44140626 .6839905 .44140626 .6309967 .39839173 .58999636 .34536744 .58099368 .42840577 .5130005 .44140626 .46699525 .44140626 .37799073 .44140626 .32699586 .38137818 .3039856 .3553772 .2979889 .418396 .24398804 .44140626 .20498657 .44140626 .1619873 .44140626 .13999939 .4133911 .125 .38838197 .10398865 .3553772 .08799744 .29434205 .08799744 .28834535 .08799744 .27534486 .100997928 .27534486 .10899353 .27534486 .1269989 .27534486 .12799073 .27633668 .1349945 .3043518 .1519928 .37338258 .17098999 .4133911 .20199585 .4133911 .23298645 .4133911 .23298645 .37738038 .23298645 .3653717 .23298645 .3463745 .21998596 .29534913 .21199036 .2603302L.18399048 .15228272C.18099976 .13728333 .17098999 .09925842 .16699219 .08425903 .1619873 .0622406 .15299988 .027236939 .15299988 .020233155 .15299988-.0017700195 .16899109-.009765625 .18399048-.009765625 .21798706-.009765625 .22499085 .020233155 .22898865 .035232545L.2519989 .12426758 .2849884 .25933839C.2849884 .25933839 .31799317 .33636476 .36299134 .3743744 .3769989 .38539125 .41099549 .4133911 .46398927 .4133911 .5109863 .4133911 .5209961 .37638856 .5209961 .3443756 .5209961 .32136537 .5139923 .29434205 .5079956 .26834107L.48399354 .17228699 .46299745 .088256839C.45700074 .06625366 .44699098 .026229859 .44699098 .020233155 .44699098-.0017700195 .46299745-.009765625 .47799684-.009765625 .5119934-.009765625 .5189972 .020233155 .522995 .035232545L.54599 .12426758C.548996 .13928223 .5589905 .17729187 .56199648 .19230652 .5649872 .20230103 .5779877 .2523346 .57899478 .25933839 .58099368 .26533509 .61099246 .33135987 .6519928 .36938478 .6819916 .39639283 .71699526 .4133911 .7569885 .4133911 .8029938 .4133911 .81399539 .37838746 .81399539 .34536744 .81399539 .28634645 .7669983 .1652832 .75 .119277957 .73999026 .09425354 .73999026 .087249759 .73999026 .07424927 .73999026 .020233155 .7829895-.009765625 .82899478-.009765625 .92900088-.009765625 .973999 .12727356 .973999 .14328003Z"/>
<path id="font_5_1" d="M.61099246 .14328003C.61099246 .15628052 .59799197 .15628052 .58999636 .15628052 .57199099 .15628052 .57099917 .15428162 .5649872 .12927246 .5509949 .07725525 .5339966 .018234253 .49699403 .018234253 .46899415 .018234253 .46499635 .048233034 .46499635 .06524658 .46499635 .08226013 .46499635 .08425903 .47099305 .10726929L.5369873 .37138368C.54100039 .38638307 .54100039 .38838197 .54100039 .39239503 .54100039 .4143982 .5249939 .4223938 .5099945 .4223938 .47698976 .4223938 .46699525 .38838197 .46598817 .38539125 .44099427 .4263916 .4039917 .44140626 .36799623 .44140626 .24598694 .44140626 .11898804 .300354 .11898804 .15428162 .11898804 .04724121 .18699646-.009765625 .26098634-.009765625 .32499696-.009765625 .37799073 .037231447 .397995 .058242799 .41099549 .010223389 .45799256-.009765625 .49398805-.009765625 .5249939-.009765625 .5509949 .0052337648 .57299807 .041229249 .5970001 .08026123 .61099246 .14027405 .61099246 .14328003M.44599916 .3023529 .4039917 .13627625C.3959961 .105270389 .37399293 .08125305 .35099793 .059249879 .30999757 .023223877 .2789917 .018234253 .2639923 .018234253 .21798706 .018234253 .19499207 .06124878 .19499207 .11326599 .19499207 .1552887 .21998596 .26533509 .24798584 .3193512 .27999879 .37838746 .32798768 .4133911 .36799623 .4133911 .43598939 .4133911 .44898988 .32635499 .44898988 .31636048 .44898988 .3133545 .44799806 .3093567 .44599916 .3023529Z"/>
<path id="font_5_6" d="M.32798768 .14324951C.32798768 .15625 .31498719 .15625 .30699159 .15625 .2889862 .15625 .28799439 .15324402 .28399659 .13624573 .269989 .083236698 .25299073 .018234253 .21499634 .018234253 .18699646 .018234253 .18299866 .048233034 .18299866 .06523132 .18299866 .082229617 .18798828 .10324097 .18899536 .10623169L.32899476 .66529849C.32998658 .6693115 .33198548 .67630007 .33198548 .68029788 .33198548 .6953125 .31599427 .6943054 .30499269 .69329836L.19699097 .6843109C.18399048 .68330386 .17098999 .682312 .17098999 .66130068 .17098999 .64730837 .18399048 .64730837 .19699097 .64730837 .24499512 .64730837 .24499512 .64030459 .24499512 .6313019 .24499512 .6242981 .24299622 .6163025 .24099732 .6092987L.117996219 .11824036C.11299133 .098236087 .11299133 .0912323 .11299133 .084228519 .11299133 .018234253 .16799927-.009765625 .21199036-.009765625 .23498535-.009765625 .2659912-.0017700195 .29299928 .04423523 .31498719 .083236698 .32798768 .13923645 .32798768 .14324951Z"/>
<path id="font_6_1" d="M1.0599976 .25097657C1.0599976 .25798036 1.0549927 .26296998 1.048996 .26496888 1.0029907 .27597047 .92099 .2969513 .83299258 .368927 .7809906 .41093446 .7389984 .4629364 .70599368 .52093508 .69499209 .53993228 .69400027 .5409241 .6769867 .5409241 .6669922 .5409241 .6529999 .5409241 .6529999 .52693179 .6529999 .5159302 .7029877 .43092347 .75 .38493348H.114990238C.101989749 .38493348 .07798767 .38493348 .07798767 .3609314 .07798767 .3359375 .100997928 .3359375 .115997318 .3359375H.80400088C.8600006 .2889557 .9229889 .25997926 .94499209 .25097657 .9079895 .23498535 .84799197 .20401001 .80400088 .16503906H.115997318C.100997928 .16503906 .07798767 .16503906 .07798767 .1400299 .07798767 .11602783 .101989749 .11602783 .114990238 .11602783H.7489929C.69898989 .06402588 .6529999-.014968872 .6529999-.025970459 .6529999-.03996277 .6669922-.03996277 .6769867-.03996277 .69200137-.03996277 .69599917-.03996277 .70199587-.029968262 .81399539 .17602539 .97698977 .21899414 1.048996 .23799134 1.0549927 .23898316 1.0599976 .24497986 1.0599976 .25097657Z"/>
<path id="font_5_8" d="M.6799927 .14328003C.6799927 .15628052 .6669922 .15628052 .6589966 .15628052 .6409912 .15628052 .6399994 .1532898 .6349945 .13528443 .6179962 .07325745 .58200076 .018234253 .5379944 .018234253 .5239868 .018234253 .5130005 .025222779 .5130005 .052246095 .5130005 .07424927 .5219879 .0962677 .5299988 .119277957 .5479889 .16629029 .58999636 .27534486 .58999636 .33036805 .58999636 .4084015 .5359955 .44140626 .46699525 .44140626 .3880005 .44140626 .33399964 .39439393 .3039856 .35636903 .29699708 .41740418 .24499512 .44140626 .20498657 .44140626 .1619873 .44140626 .13999939 .4133911 .125 .38838197 .10398865 .3553772 .08799744 .29434205 .08799744 .28834535 .08799744 .27534486 .100997928 .27534486 .10899353 .27534486 .1269989 .27534486 .12799073 .27633668 .1349945 .3043518 .1519928 .37338258 .17098999 .4133911 .20199585 .4133911 .23298645 .4133911 .23298645 .37738038 .23298645 .3653717 .23298645 .3463745 .21998596 .29534913 .21199036 .2603302L.18399048 .15228272C.18099976 .13728333 .17098999 .09925842 .16699219 .08425903 .1619873 .0622406 .15299988 .027236939 .15299988 .020233155 .15299988-.0017700195 .16899109-.009765625 .18399048-.009765625 .21798706-.009765625 .22499085 .020233155 .22898865 .035232545L.2519989 .12426758C.25498963 .13928223 .2649994 .17729187 .2679901 .19230652 .2709961 .20230103 .28399659 .2523346 .2849884 .25933839 .2869873 .26533509 .31698609 .33135987 .35798646 .36938478 .3880005 .39639283 .4229889 .4133911 .46299745 .4133911 .5089874 .4133911 .519989 .37838746 .519989 .34536744 .519989 .28634645 .47299195 .1652832 .45599366 .119277957 .44599916 .09425354 .44599916 .087249759 .44599916 .07424927 .44599916 .020233155 .4889984-.009765625 .5349884-.009765625 .6349945-.009765625 .6799927 .12727356 .6799927 .14328003Z"/>
<path id="font_5_16" d="M.48199464-.0067749025 .5799866 .38938905C.58200076 .39839173 .58299258 .4013977 .58299258 .4013977 .58299258 .4163971 .57199099 .43139649 .5509949 .43139649 .519989 .43139649 .5099945 .4033966 .5059967 .38838197L.44099427 .12426758C.43699647 .10626221 .3919983 .018234253 .31698609 .018234253 .2679901 .018234253 .2519989 .056243898 .2519989 .09925842 .2519989 .15428162 .2809906 .23332215 .31098939 .3093567 .31698609 .32635499 .32199098 .33836366 .32199098 .3573761 .32199098 .4073944 .28199769 .44140626 .23298645 .44140626 .13398743 .44140626 .08799744 .3053589 .08799744 .28834535 .08799744 .27534486 .100997928 .27534486 .10899353 .27534486 .12098694 .27534486 .1269989 .27534486 .12998963 .28834535 .16099549 .39738465 .20599365 .4133911 .22999573 .4133911 .24699402 .4133911 .25498963 .40238954 .25498963 .38038636 .25498963 .3573761 .24798584 .34136964 .22999573 .29335023 .19299317 .19822693 .18199158 .15222168 .18199158 .114227298 .18199158 .0152282719 .25498963-.009765625 .31399537-.009765625 .34899903-.009765625 .38198854 .0012207031 .4169922 .031219483 .40499879-.01675415 .3929901-.06668091 .34899903-.11767578 .31599427-.1557312 .27598573-.17578125 .23999024-.17578125 .21199036-.17578125 .18598938-.16474915 .17599488-.13768006 .20599365-.13067627 .21699524-.10467529 .21699524-.08868408 .21699524-.07067871 .20399475-.05567932 .18099976-.05567932 .16499329-.05567932 .12998963-.06668091 .12998963-.11668396 .12998963-.1667633 .17399597-.20379639 .23899842-.20379639 .35699464-.20379639 .45899964-.09867859 .48199464-.0067749025Z"/>
</defs>
<path transform="matrix(1,0,0,-1,80.752,29.728005)" d="M-29.76422 0C-29.76422 11.74178-39.28255 21.2601-51.02432 21.2601-62.7661 21.2601-72.28442 11.74178-72.28442 0-72.28442-11.74178-62.7661-21.2601-51.02432-21.2601-39.28255-21.2601-29.76422-11.74178-29.76422 0ZM-51.02432 0" fill="#c7d9e8"/>
<path transform="matrix(1,0,0,-1,80.752,29.728005)" stroke-width=".99628" stroke-linecap="butt" stroke-miterlimit="10" stroke-linejoin="miter" fill="none" stroke="#4682b4" d="M-29.76422 0C-29.76422 11.74178-39.28255 21.2601-51.02432 21.2601-62.7661 21.2601-72.28442 11.74178-72.28442 0-72.28442-11.74178-62.7661-21.2601-51.02432-21.2601-39.28255-21.2601-29.76422-11.74178-29.76422 0ZM-51.02432 0"/>
<use data-text="O" xlink:href="#font_1_2" transform="matrix(8.9664,0,0,-8.9664,24.640999,32.293004)"/>
<use data-text="i" xlink:href="#font_2_1" transform="matrix(5.9776,0,0,-5.9776,31.652998,33.290006)"/>
<path transform="matrix(1,0,0,-1,80.752,29.728005)" d="M69.44957 0C69.44957 8.61067 62.46942 15.59082 53.85875 15.59082 45.24808 15.59082 38.26791 8.61067 38.26791 0 38.26791-8.61067 45.24808-15.59082 53.85875-15.59082 62.46942-15.59082 69.44957-8.61067 69.44957 0ZM53.85875 0" fill="#bfdbd6"/>
<path transform="matrix(1,0,0,-1,80.752,29.728005)" stroke-width=".99628" stroke-linecap="butt" stroke-miterlimit="10" stroke-linejoin="miter" fill="none" stroke="#006e5a" d="M69.44957 0C69.44957 8.61067 62.46942 15.59082 53.85875 15.59082 45.24808 15.59082 38.26791 8.61067 38.26791 0 38.26791-8.61067 45.24808-15.59082 53.85875-15.59082 62.46942-15.59082 69.44957-8.61067 69.44957 0ZM53.85875 0"/>
<use data-text="D" xlink:href="#font_1_1" transform="matrix(8.9664,0,0,-8.9664,128.859,31.712002)"/>
<use data-text="j" xlink:href="#font_2_2" transform="matrix(5.9776,0,0,-5.9776,136.458,32.708)"/>
<path transform="matrix(1,0,0,-1,80.752,29.728005)" stroke-width="1.19553" stroke-linecap="butt" stroke-miterlimit="10" stroke-linejoin="miter" fill="none" stroke="#b48c3c" d="M-24.01796 0H32.52167"/>
<path transform="matrix(-1,-0,0,1,59.98995,29.728005)" d="M6.8016 0 1.93039 1.84627 3.55478 0 1.93039-1.84627Z" fill="#b48c3c"/>
<path transform="matrix(-1,-0,0,1,59.98995,29.728005)" stroke-width="1.19553" stroke-linecap="butt" stroke-miterlimit="10" stroke-linejoin="miter" fill="none" stroke="#b48c3c" d="M6.8016 0 1.93039 1.84627 3.55478 0 1.93039-1.84627Z"/>
<path transform="matrix(1,0,0,-1,110.017749,29.728005)" d="M6.8016 0 1.93039 1.84627 3.55478 0 1.93039-1.84627Z" fill="#b48c3c"/>
<path transform="matrix(1,0,0,-1,110.017749,29.728005)" stroke-width="1.19553" stroke-linecap="butt" stroke-miterlimit="10" stroke-linejoin="miter" fill="none" stroke="#b48c3c" d="M6.8016 0 1.93039 1.84627 3.55478 0 1.93039-1.84627Z"/>
<use data-text="c" xlink:href="#font_3_4" transform="matrix(6.9738,0,0,-6.9738,68.28,23.845009)" fill="#555555"/>
<use data-text="i" xlink:href="#font_4_1" transform="matrix(4.9813,0,0,-4.9813,71.840999,24.841012)" fill="#555555"/>
<use data-text="j" xlink:href="#font_4_2" transform="matrix(4.9813,0,0,-4.9813,74.50101,24.841012)" fill="#555555"/>
<use data-text="(" xlink:href="#font_5_11" transform="matrix(6.9738,0,0,-6.9738,81.198,23.845009)" fill="#555555"/>
<use data-text="c" xlink:href="#font_5_3" transform="matrix(6.9738,0,0,-6.9738,84.587268,23.845009)" fill="#555555"/>
<use data-text="o" xlink:href="#font_5_9" transform="matrix(6.9738,0,0,-6.9738,87.96956,23.845009)" fill="#555555"/>
<use data-text="s" xlink:href="#font_5_14" transform="matrix(6.9738,0,0,-6.9738,92.17476,23.845009)" fill="#555555"/>
<use data-text="t" xlink:href="#font_5_15" transform="matrix(6.9738,0,0,-6.9738,95.564029,23.845009)" fill="#555555"/>
<use data-text=")" xlink:href="#font_5_12" transform="matrix(6.9738,0,0,-6.9738,98.3396,23.845009)" fill="#555555"/>
<use data-text="T" xlink:href="#font_3_3" transform="matrix(6.9738,0,0,-6.9738,69.76,38.412004)" fill="#555555"/>
<use data-text="i" xlink:href="#font_4_1" transform="matrix(4.9813,0,0,-4.9813,74.465007,39.408)" fill="#555555"/>
<use data-text="j" xlink:href="#font_4_2" transform="matrix(4.9813,0,0,-4.9813,77.125019,39.408)" fill="#555555"/>
<use data-text="t" xlink:href="#font_5_15" transform="matrix(6.9738,0,0,-6.9738,83.823009,38.412004)" fill="#555555"/>
<use data-text="r" xlink:href="#font_5_13" transform="matrix(6.9738,0,0,-6.9738,86.59858,38.412004)" fill="#555555"/>
<use data-text="i" xlink:href="#font_5_17" transform="matrix(6.9738,0,0,-6.9738,90.08548,38.412004)" fill="#555555"/>
<use data-text="p" xlink:href="#font_5_10" transform="matrix(6.9738,0,0,-6.9738,92.65184,38.412004)" fill="#555555"/>
<use data-text="s" xlink:href="#font_5_14" transform="matrix(6.9738,0,0,-6.9738,96.85704,38.412004)" fill="#555555"/>
<use data-text="b" xlink:href="#font_5_2" transform="matrix(6.9738,0,0,-6.9738,43.093,72.549)" fill="#555555"/>
<use data-text="i" xlink:href="#font_5_17" transform="matrix(6.9738,0,0,-6.9738,46.886747,72.549)" fill="#555555"/>
<use data-text="g" xlink:href="#font_5_5" transform="matrix(6.9738,0,0,-6.9738,49.453104,72.549)" fill="#555555"/>
<use data-text="O" xlink:href="#font_3_2" transform="matrix(6.9738,0,0,-6.9738,56.050317,72.549)" fill="#555555"/>
<use data-text="i" xlink:href="#font_4_1" transform="matrix(4.9813,0,0,-4.9813,62.118997,73.546009)" fill="#555555"/>
<use data-text="," xlink:href="#font_5_4" transform="matrix(6.9738,0,0,-6.9738,65.274997,72.549)" fill="#555555"/>
<use data-text="b" xlink:href="#font_5_2" transform="matrix(6.9738,0,0,-6.9738,70.64482,72.549)" fill="#555555"/>
<use data-text="i" xlink:href="#font_5_17" transform="matrix(6.9738,0,0,-6.9738,74.43857,72.549)" fill="#555555"/>
<use data-text="g" xlink:href="#font_5_5" transform="matrix(6.9738,0,0,-6.9738,77.00493,72.549)" fill="#555555"/>
<use data-text="D" xlink:href="#font_3_1" transform="matrix(6.9738,0,0,-6.9738,83.60214,72.549)" fill="#555555"/>
<use data-text="j" xlink:href="#font_4_2" transform="matrix(4.9813,0,0,-4.9813,90.12699,73.546009)" fill="#555555"/>
<use data-text="," xlink:href="#font_5_4" transform="matrix(6.9738,0,0,-6.9738,93.84899,72.549)" fill="#555555"/>
<use data-text="s" xlink:href="#font_5_14" transform="matrix(6.9738,0,0,-6.9738,99.21882,72.549)" fill="#555555"/>
<use data-text="m" xlink:href="#font_5_7" transform="matrix(6.9738,0,0,-6.9738,102.608089,72.549)" fill="#555555"/>
<use data-text="a" xlink:href="#font_5_1" transform="matrix(6.9738,0,0,-6.9738,109.27504,72.549)" fill="#555555"/>
<use data-text="l" xlink:href="#font_5_6" transform="matrix(6.9738,0,0,-6.9738,113.48024,72.549)" fill="#555555"/>
<use data-text="l" xlink:href="#font_5_6" transform="matrix(6.9738,0,0,-6.9738,116.25581,72.549)" fill="#555555"/>
<use data-text="c" xlink:href="#font_3_4" transform="matrix(6.9738,0,0,-6.9738,49.64799,80.520008)" fill="#555555"/>
<use data-text="i" xlink:href="#font_4_1" transform="matrix(4.9813,0,0,-4.9813,53.207994,81.51601)" fill="#555555"/>
<use data-text="j" xlink:href="#font_4_2" transform="matrix(4.9813,0,0,-4.9813,55.868009,81.51601)" fill="#555555"/>
<use data-text="&#x21d2;" xlink:href="#font_6_1" transform="matrix(6.9738,0,0,-6.9738,62.39199,80.520008)" fill="#555555"/>
<use data-text="m" xlink:href="#font_5_7" transform="matrix(6.9738,0,0,-6.9738,73.13862,80.520008)" fill="#555555"/>
<use data-text="a" xlink:href="#font_5_1" transform="matrix(6.9738,0,0,-6.9738,79.80557,80.520008)" fill="#555555"/>
<use data-text="n" xlink:href="#font_5_8" transform="matrix(6.9738,0,0,-6.9738,84.01077,80.520008)" fill="#555555"/>
<use data-text="y" xlink:href="#font_5_16" transform="matrix(6.9738,0,0,-6.9738,88.627429,80.520008)" fill="#555555"/>
<use data-text="t" xlink:href="#font_5_15" transform="matrix(6.9738,0,0,-6.9738,95.43385,80.520008)" fill="#555555"/>
<use data-text="r" xlink:href="#font_5_13" transform="matrix(6.9738,0,0,-6.9738,98.20943,80.520008)" fill="#555555"/>
<use data-text="i" xlink:href="#font_5_17" transform="matrix(6.9738,0,0,-6.9738,101.69633,80.520008)" fill="#555555"/>
<use data-text="p" xlink:href="#font_5_10" transform="matrix(6.9738,0,0,-6.9738,104.26269,80.520008)" fill="#555555"/>
<use data-text="s" xlink:href="#font_5_14" transform="matrix(6.9738,0,0,-6.9738,108.46789,80.520008)" fill="#555555"/>
</svg>
