<svg xmlns="http://www.w3.org/2000/svg" viewBox="0 0 380 185" font-family="Latin Modern Sans, sans-serif"><circle cx="70" cy="160" r="14" fill="#4682B4" fill-opacity="0.3" stroke="#4682B4"/><text x="70" y="165" text-anchor="middle" font-size="13">x1</text><line x1="70" y1="146" x2="70" y2="117" stroke="#003E74" stroke-width="2"/><polygon points="70,117 66,125 74,125" fill="#003E74"/><rect x="48" y="73" width="44" height="44" rx="7" fill="#003E74" fill-opacity="0.12" stroke="#003E74" stroke-width="1.5"/><text x="70" y="100" text-anchor="middle" font-size="15" fill="#003E74">h1</text><line x1="70" y1="73" x2="70" y2="34" stroke="#006E5A" stroke-width="2"/><polygon points="70,34 66,42 74,42" fill="#006E5A"/><text x="70" y="26" text-anchor="middle" font-size="13" fill="#006E5A">y1</text><circle cx="185" cy="160" r="14" fill="#4682B4" fill-opacity="0.3" stroke="#4682B4"/><text x="185" y="165" text-anchor="middle" font-size="13">x2</text><line x1="185" y1="146" x2="185" y2="117" stroke="#003E74" stroke-width="2"/><polygon points="185,117 181,125 189,125" fill="#003E74"/><rect x="163" y="73" width="44" height="44" rx="7" fill="#003E74" fill-opacity="0.12" stroke="#003E74" stroke-width="1.5"/><text x="185" y="100" text-anchor="middle" font-size="15" fill="#003E74">h2</text><line x1="185" y1="73" x2="185" y2="34" stroke="#006E5A" stroke-width="2"/><polygon points="185,34 181,42 189,42" fill="#006E5A"/><text x="185" y="26" text-anchor="middle" font-size="13" fill="#006E5A">y2</text><circle cx="300" cy="160" r="14" fill="#4682B4" fill-opacity="0.3" stroke="#4682B4"/><text x="300" y="165" text-anchor="middle" font-size="13">x3</text><line x1="300" y1="146" x2="300" y2="117" stroke="#003E74" stroke-width="2"/><polygon points="300,117 296,125 304,125" fill="#003E74"/><rect x="278" y="73" width="44" height="44" rx="7" fill="#003E74" fill-opacity="0.12" stroke="#003E74" stroke-width="1.5"/><text x="300" y="100" text-anchor="middle" font-size="15" fill="#003E74">h3</text><line x1="300" y1="73" x2="300" y2="34" stroke="#006E5A" stroke-width="2"/><polygon points="300,34 296,42 304,42" fill="#006E5A"/><text x="300" y="26" text-anchor="middle" font-size="13" fill="#006E5A">y3</text><line x1="92" y1="95" x2="159" y2="95" stroke="#003E74" stroke-width="2.5"/><polygon points="159,95 151,90 151,100" fill="#003E74"/><line x1="207" y1="95" x2="274" y2="95" stroke="#003E74" stroke-width="2.5"/><polygon points="274,95 266,90 266,100" fill="#003E74"/><text x="127" y="87" text-anchor="middle" font-size="12" fill="#5b6b7a">state</text><text x="345" y="100" font-size="18" fill="#5b6b7a">&#8230;</text></svg>